%TF.GenerationSoftware,KiCad,Pcbnew,9.0.6*%
%TF.CreationDate,2025-11-14T14:39:25-08:00*%
%TF.ProjectId,SD-DADPT,53442d44-4144-4505-942e-6b696361645f,PR-1.0*%
%TF.SameCoordinates,Original*%
%TF.FileFunction,Copper,L1,Top*%
%TF.FilePolarity,Positive*%
%FSLAX46Y46*%
G04 Gerber Fmt 4.6, Leading zero omitted, Abs format (unit mm)*
G04 Created by KiCad (PCBNEW 9.0.6) date 2025-11-14 14:39:25*
%MOMM*%
%LPD*%
G01*
G04 APERTURE LIST*
G04 Aperture macros list*
%AMRoundRect*
0 Rectangle with rounded corners*
0 $1 Rounding radius*
0 $2 $3 $4 $5 $6 $7 $8 $9 X,Y pos of 4 corners*
0 Add a 4 corners polygon primitive as box body*
4,1,4,$2,$3,$4,$5,$6,$7,$8,$9,$2,$3,0*
0 Add four circle primitives for the rounded corners*
1,1,$1+$1,$2,$3*
1,1,$1+$1,$4,$5*
1,1,$1+$1,$6,$7*
1,1,$1+$1,$8,$9*
0 Add four rect primitives between the rounded corners*
20,1,$1+$1,$2,$3,$4,$5,0*
20,1,$1+$1,$4,$5,$6,$7,0*
20,1,$1+$1,$6,$7,$8,$9,0*
20,1,$1+$1,$8,$9,$2,$3,0*%
G04 Aperture macros list end*
%TA.AperFunction,ComponentPad*%
%ADD10R,1.700000X1.700000*%
%TD*%
%TA.AperFunction,ComponentPad*%
%ADD11C,1.700000*%
%TD*%
%TA.AperFunction,ComponentPad*%
%ADD12R,2.400000X2.400000*%
%TD*%
%TA.AperFunction,ComponentPad*%
%ADD13C,2.400000*%
%TD*%
%TA.AperFunction,ComponentPad*%
%ADD14RoundRect,0.250000X0.550000X0.550000X-0.550000X0.550000X-0.550000X-0.550000X0.550000X-0.550000X0*%
%TD*%
%TA.AperFunction,ComponentPad*%
%ADD15C,1.600000*%
%TD*%
%TA.AperFunction,SMDPad,CuDef*%
%ADD16RoundRect,0.237500X-0.300000X-0.237500X0.300000X-0.237500X0.300000X0.237500X-0.300000X0.237500X0*%
%TD*%
%TA.AperFunction,SMDPad,CuDef*%
%ADD17RoundRect,0.237500X0.237500X-0.300000X0.237500X0.300000X-0.237500X0.300000X-0.237500X-0.300000X0*%
%TD*%
%TA.AperFunction,ViaPad*%
%ADD18C,0.762000*%
%TD*%
%TA.AperFunction,Conductor*%
%ADD19C,0.254000*%
%TD*%
%TA.AperFunction,Conductor*%
%ADD20C,0.508000*%
%TD*%
G04 APERTURE END LIST*
D10*
%TO.P,J3,1,Pin_1*%
%TO.N,/RD-*%
X112522000Y-77470000D03*
D11*
%TO.P,J3,2,Pin_2*%
%TO.N,/WR-*%
X109982000Y-77470000D03*
%TO.P,J3,3,Pin_3*%
%TO.N,/REGSEL*%
X107442001Y-77470000D03*
%TO.P,J3,4,Pin_4*%
%TO.N,/DISPSEL-*%
X104902000Y-77470000D03*
%TO.P,J3,5,Pin_5*%
%TO.N,/RESET-*%
X102362000Y-77470000D03*
%TO.P,J3,6,Pin_6*%
%TO.N,unconnected-(J3-Pin_6-Pad6)*%
X99822000Y-77470000D03*
%TD*%
D12*
%TO.P,J8,1,Pin_1*%
%TO.N,GND*%
X79650000Y-138250000D03*
D13*
%TO.P,J8,2,Pin_2*%
%TO.N,+5V*%
X84650000Y-138250000D03*
%TD*%
D10*
%TO.P,J4,1,Pin_1*%
%TO.N,unconnected-(J4-Pin_1-Pad1)*%
X130302000Y-77470000D03*
D11*
%TO.P,J4,2,Pin_2*%
%TO.N,+3.3V*%
X127762000Y-77470000D03*
%TO.P,J4,3,Pin_3*%
%TO.N,+5V*%
X125222001Y-77470000D03*
%TO.P,J4,4,Pin_4*%
%TO.N,unconnected-(J4-Pin_4-Pad4)*%
X122682000Y-77470000D03*
%TO.P,J4,5,Pin_5*%
%TO.N,GND*%
X120142000Y-77470000D03*
%TO.P,J4,6,Pin_6*%
%TO.N,unconnected-(J4-Pin_6-Pad6)*%
X117602000Y-77470000D03*
%TD*%
D14*
%TO.P,C3,1*%
%TO.N,+5V*%
X73978780Y-132029200D03*
D15*
%TO.P,C3,2*%
%TO.N,GND*%
X71478780Y-132029200D03*
%TD*%
D10*
%TO.P,J1,1,Pin_1*%
%TO.N,unconnected-(J1-Pin_1-Pad1)*%
X139700000Y-125730000D03*
D11*
%TO.P,J1,2,Pin_2*%
%TO.N,unconnected-(J1-Pin_2-Pad2)*%
X137160000Y-125730000D03*
%TO.P,J1,3,Pin_3*%
%TO.N,/SPI_CLK*%
X134620001Y-125730000D03*
%TO.P,J1,4,Pin_4*%
%TO.N,/SPI_MISO*%
X132080000Y-125730000D03*
%TO.P,J1,5,Pin_5*%
%TO.N,/SPI_MOSI*%
X129540000Y-125730000D03*
%TO.P,J1,6,Pin_6*%
%TO.N,/SPI_SEL-*%
X127000000Y-125730000D03*
%TO.P,J1,7,Pin_7*%
%TO.N,/D1*%
X124460000Y-125730000D03*
%TO.P,J1,8,Pin_8*%
%TO.N,/D0*%
X121919999Y-125730000D03*
%TD*%
D16*
%TO.P,C2,1*%
%TO.N,GND*%
X121592000Y-81280000D03*
%TO.P,C2,2*%
%TO.N,+5V*%
X123317000Y-81280000D03*
%TD*%
D10*
%TO.P,J5,1,Pin_1*%
%TO.N,GND*%
X88900000Y-139700000D03*
D11*
%TO.P,J5,2,Pin_2*%
X91440000Y-139700000D03*
%TO.P,J5,3,Pin_3*%
%TO.N,+5V*%
X93979999Y-139700000D03*
%TO.P,J5,4,Pin_4*%
%TO.N,/CONTV0*%
X96520000Y-139700000D03*
%TO.P,J5,5,Pin_5*%
%TO.N,/WR-*%
X99060000Y-139700000D03*
%TO.P,J5,6,Pin_6*%
%TO.N,/RD-*%
X101600000Y-139700000D03*
%TO.P,J5,7,Pin_7*%
%TO.N,/DISPSEL-*%
X104140000Y-139700000D03*
%TO.P,J5,8,Pin_8*%
%TO.N,/REGSEL*%
X106680001Y-139700000D03*
%TO.P,J5,9,Pin_9*%
%TO.N,/RESET-*%
X109220000Y-139700000D03*
%TO.P,J5,10,Pin_10*%
%TO.N,/D0*%
X111760000Y-139700000D03*
%TO.P,J5,11,Pin_11*%
%TO.N,/D1*%
X114300000Y-139700000D03*
%TO.P,J5,12,Pin_12*%
%TO.N,/D2*%
X116839999Y-139700000D03*
%TO.P,J5,13,Pin_13*%
%TO.N,/D3*%
X119380000Y-139700000D03*
%TO.P,J5,14,Pin_14*%
%TO.N,/D4*%
X121920000Y-139700000D03*
%TO.P,J5,15,Pin_15*%
%TO.N,/D5*%
X124460000Y-139700000D03*
%TO.P,J5,16,Pin_16*%
%TO.N,/D6*%
X126999999Y-139700000D03*
%TO.P,J5,17,Pin_17*%
%TO.N,/D7*%
X129540001Y-139700000D03*
%TO.P,J5,18,Pin_18*%
%TO.N,/FONT1*%
X132080000Y-139700000D03*
%TO.P,J5,19,Pin_19*%
%TO.N,/CONTPWR*%
X134620000Y-139700000D03*
%TO.P,J5,20,Pin_20*%
%TO.N,/BLPWR*%
X137160000Y-139700000D03*
%TO.P,J5,21,Pin_21*%
%TO.N,GND*%
X139699999Y-139700000D03*
%TO.P,J5,22,Pin_22*%
%TO.N,unconnected-(J5-Pin_22-Pad22)*%
X142240000Y-139700000D03*
%TD*%
D17*
%TO.P,C1,1*%
%TO.N,+5V*%
X98425000Y-132942501D03*
%TO.P,C1,2*%
%TO.N,GND*%
X98425000Y-131217499D03*
%TD*%
D10*
%TO.P,J2,1,Pin_1*%
%TO.N,/D7*%
X117906800Y-125730000D03*
D11*
%TO.P,J2,2,Pin_2*%
%TO.N,/D6*%
X115366800Y-125730000D03*
%TO.P,J2,3,Pin_3*%
%TO.N,/D5*%
X112826801Y-125730000D03*
%TO.P,J2,4,Pin_4*%
%TO.N,/D4*%
X110286800Y-125730000D03*
%TO.P,J2,5,Pin_5*%
%TO.N,/D3*%
X107746800Y-125730000D03*
%TO.P,J2,6,Pin_6*%
%TO.N,/D2*%
X105206800Y-125730000D03*
%TO.P,J2,7,Pin_7*%
%TO.N,unconnected-(J2-Pin_7-Pad7)*%
X102666800Y-125730000D03*
%TO.P,J2,8,Pin_8*%
%TO.N,unconnected-(J2-Pin_8-Pad8)*%
X100126799Y-125730000D03*
%TD*%
D10*
%TO.P,J7,1,Pin_1*%
%TO.N,GND*%
X151130000Y-132080000D03*
D11*
%TO.P,J7,2,Pin_2*%
%TO.N,+5V*%
X151130000Y-129540000D03*
%TO.P,J7,3,Pin_3*%
%TO.N,/SPI_CLK*%
X151130000Y-127000001D03*
%TO.P,J7,4,Pin_4*%
%TO.N,/SPI_MISO*%
X151130000Y-124460000D03*
%TO.P,J7,5,Pin_5*%
%TO.N,/SPI_MOSI*%
X151130000Y-121920000D03*
%TO.P,J7,6,Pin_6*%
%TO.N,/SPI_SEL-*%
X151130000Y-119380000D03*
%TD*%
D10*
%TO.P,J6,1,Pin_1*%
%TO.N,GND*%
X104140000Y-130810000D03*
D11*
%TO.P,J6,2,Pin_2*%
%TO.N,+5V*%
X104140000Y-133350000D03*
%TO.P,J6,3,Pin_3*%
%TO.N,/CONTV0*%
X106680000Y-130810000D03*
%TO.P,J6,4,Pin_4*%
%TO.N,/WR-*%
X106680000Y-133350000D03*
%TO.P,J6,5,Pin_5*%
%TO.N,/RD-*%
X109219999Y-130810000D03*
%TO.P,J6,6,Pin_6*%
%TO.N,/DISPSEL-*%
X109220000Y-133350000D03*
%TO.P,J6,7,Pin_7*%
%TO.N,/REGSEL*%
X111760000Y-130810000D03*
%TO.P,J6,8,Pin_8*%
%TO.N,/RESET-*%
X111760000Y-133350000D03*
%TO.P,J6,9,Pin_9*%
%TO.N,/D0*%
X114300000Y-130810000D03*
%TO.P,J6,10,Pin_10*%
%TO.N,/D1*%
X114300000Y-133350000D03*
%TO.P,J6,11,Pin_11*%
%TO.N,/D2*%
X116840000Y-130810000D03*
%TO.P,J6,12,Pin_12*%
%TO.N,/D3*%
X116840000Y-133350000D03*
%TO.P,J6,13,Pin_13*%
%TO.N,/D4*%
X119380000Y-130810000D03*
%TO.P,J6,14,Pin_14*%
%TO.N,/D5*%
X119380000Y-133350000D03*
%TO.P,J6,15,Pin_15*%
%TO.N,/D6*%
X121920001Y-130810000D03*
%TO.P,J6,16,Pin_16*%
%TO.N,/D7*%
X121920000Y-133350000D03*
%TO.P,J6,17,Pin_17*%
%TO.N,/FONT1*%
X124460000Y-130810000D03*
%TO.P,J6,18,Pin_18*%
%TO.N,/CONTPWR*%
X124460000Y-133350000D03*
%TO.P,J6,19,Pin_19*%
%TO.N,/BLPWR*%
X127000000Y-130810000D03*
%TO.P,J6,20,Pin_20*%
%TO.N,GND*%
X127000000Y-133350000D03*
%TD*%
D18*
%TO.N,GND*%
X138440000Y-137100000D03*
X135900000Y-137100000D03*
X138430000Y-135890000D03*
X135890000Y-135890000D03*
%TO.N,+5V*%
X94996000Y-136144000D03*
X94996000Y-130556000D03*
%TO.N,GND*%
X99568000Y-103124000D03*
X96266000Y-103124000D03*
X113284000Y-84074000D03*
X109982000Y-119380000D03*
X109982000Y-84074000D03*
X113284000Y-119380000D03*
%TO.N,/DISPSEL-*%
X98145600Y-128016000D03*
%TO.N,/REGSEL*%
X111633000Y-128295400D03*
%TO.N,/RESET-*%
X93980000Y-86106000D03*
%TO.N,/CONTV0*%
X96520000Y-136652000D03*
X96520000Y-130556000D03*
%TD*%
D19*
%TO.N,/D0*%
X128800000Y-134350000D02*
X127250000Y-135900000D01*
X128800000Y-130644978D02*
X128800000Y-134350000D01*
X126605022Y-128450000D02*
X128800000Y-130644978D01*
X124650000Y-128450000D02*
X126605022Y-128450000D01*
X121930000Y-125730000D02*
X124650000Y-128450000D01*
X127250000Y-135900000D02*
X115560000Y-135900000D01*
X115560000Y-135900000D02*
X111760000Y-139700000D01*
X121919999Y-125730000D02*
X121930000Y-125730000D01*
%TO.N,/D1*%
X127100000Y-137100000D02*
X116900000Y-137100000D01*
X129500000Y-134700000D02*
X127100000Y-137100000D01*
X116900000Y-137100000D02*
X114300000Y-139700000D01*
X124604856Y-125730000D02*
X129500000Y-130625144D01*
X124460000Y-125730000D02*
X124604856Y-125730000D01*
X129500000Y-130625144D02*
X129500000Y-134700000D01*
D20*
%TO.N,GND*%
X135900000Y-137100000D02*
X138440000Y-137100000D01*
X135890000Y-135890000D02*
X138430000Y-135890000D01*
%TO.N,+5V*%
X103732501Y-132942501D02*
X104140000Y-133350000D01*
X125222000Y-80645000D02*
X125222001Y-77470000D01*
X98425000Y-132942501D02*
X103732501Y-132942501D01*
X123317000Y-81280000D02*
X124587000Y-81280000D01*
X124587000Y-81280000D02*
X125222000Y-80645000D01*
%TO.N,GND*%
X99568000Y-103124000D02*
X96266000Y-103124000D01*
X120904000Y-81280000D02*
X120142000Y-80518000D01*
X113284000Y-84074000D02*
X109982000Y-84074000D01*
X120142000Y-80518000D02*
X120142000Y-77470000D01*
X103732501Y-131217499D02*
X104140000Y-130810000D01*
X121592000Y-81280000D02*
X120904000Y-81280000D01*
X98425000Y-131217499D02*
X103732501Y-131217499D01*
X113284000Y-119380000D02*
X109982000Y-119380000D01*
D19*
%TO.N,/D4*%
X110286800Y-125730000D02*
X111518800Y-126962000D01*
X115532000Y-126962000D02*
X119380000Y-130810000D01*
X111518800Y-126962000D02*
X115532000Y-126962000D01*
%TO.N,/D6*%
X115366800Y-125730000D02*
X119214800Y-129578000D01*
X119214800Y-129578000D02*
X120688001Y-129578000D01*
X120688001Y-129578000D02*
X121920001Y-130810000D01*
%TO.N,/D7*%
X123152001Y-129871201D02*
X123152001Y-132117999D01*
X117906800Y-125730000D02*
X119010800Y-125730000D01*
X123152001Y-132117999D02*
X121920000Y-133350000D01*
X119010800Y-125730000D02*
X123152001Y-129871201D01*
%TO.N,/D3*%
X115608000Y-130375688D02*
X115608000Y-132118000D01*
X109487800Y-127471000D02*
X112703312Y-127471000D01*
X107746800Y-125730000D02*
X109487800Y-127471000D01*
X112703312Y-127471000D02*
X115608000Y-130375688D01*
X115608000Y-132118000D02*
X116840000Y-133350000D01*
%TO.N,/WR-*%
X97028000Y-73787000D02*
X109093000Y-73787000D01*
X109982000Y-74676000D02*
X109982000Y-77470000D01*
X109093000Y-73787000D02*
X109982000Y-74676000D01*
X99060000Y-139700000D02*
X99060000Y-137922000D01*
X92202000Y-131064000D02*
X92202000Y-78613000D01*
X92202000Y-78613000D02*
X97028000Y-73787000D01*
X99060000Y-137922000D02*
X92202000Y-131064000D01*
%TO.N,/DISPSEL-*%
X98145600Y-128016000D02*
X105628312Y-128016000D01*
X107987999Y-132117999D02*
X109220000Y-133350000D01*
X105628312Y-128016000D02*
X107987999Y-130375687D01*
X107987999Y-130375687D02*
X107987999Y-132117999D01*
%TO.N,/REGSEL*%
X111633000Y-128295400D02*
X111760000Y-128422400D01*
X111760000Y-128422400D02*
X111760000Y-130810000D01*
%TO.N,/RD-*%
X112522000Y-79857600D02*
X112522000Y-77470000D01*
X101600000Y-139700000D02*
X92887800Y-130987800D01*
X111201200Y-81178400D02*
X112522000Y-79857600D01*
X92887800Y-85648800D02*
X97358200Y-81178400D01*
X97358200Y-81178400D02*
X111201200Y-81178400D01*
X92887800Y-130987800D02*
X92887800Y-85648800D01*
%TO.N,/RESET-*%
X93980000Y-86106000D02*
X93980000Y-131318000D01*
X101130000Y-138468000D02*
X107988000Y-138468000D01*
X107988000Y-138468000D02*
X109220000Y-139700000D01*
X93980000Y-131318000D02*
X101130000Y-138468000D01*
%TO.N,/CONTV0*%
X96520000Y-130556000D02*
X96520000Y-129794000D01*
X97536000Y-128778000D02*
X104648000Y-128778000D01*
X104648000Y-128778000D02*
X106680000Y-130810000D01*
X96520000Y-139700000D02*
X96520000Y-136652000D01*
X96520000Y-129794000D02*
X97536000Y-128778000D01*
%TD*%
%TA.AperFunction,Conductor*%
%TO.N,+5V*%
G36*
X105658418Y-131705417D02*
G01*
X105686673Y-131726569D01*
X105800213Y-131840109D01*
X105972182Y-131965050D01*
X105980946Y-131969516D01*
X106031742Y-132017491D01*
X106048536Y-132085312D01*
X106025998Y-132151447D01*
X105980946Y-132190484D01*
X105972182Y-132194949D01*
X105800213Y-132319890D01*
X105649890Y-132470213D01*
X105524949Y-132642182D01*
X105520202Y-132651499D01*
X105472227Y-132702293D01*
X105404405Y-132719087D01*
X105338271Y-132696548D01*
X105299234Y-132651495D01*
X105294626Y-132642452D01*
X105255270Y-132588282D01*
X105255269Y-132588282D01*
X104622962Y-133220590D01*
X104605925Y-133157007D01*
X104540099Y-133042993D01*
X104447007Y-132949901D01*
X104332993Y-132884075D01*
X104269409Y-132867037D01*
X104939627Y-132196818D01*
X105000950Y-132163333D01*
X105027307Y-132160499D01*
X105037872Y-132160499D01*
X105097483Y-132154091D01*
X105232331Y-132103796D01*
X105347546Y-132017546D01*
X105433796Y-131902331D01*
X105482810Y-131770916D01*
X105524681Y-131714984D01*
X105590145Y-131690566D01*
X105658418Y-131705417D01*
G37*
%TD.AperFunction*%
%TA.AperFunction,Conductor*%
G36*
X152343039Y-72409685D02*
G01*
X152388794Y-72462489D01*
X152400000Y-72514000D01*
X152400000Y-118448763D01*
X152380315Y-118515802D01*
X152327511Y-118561557D01*
X152258353Y-118571501D01*
X152194797Y-118542476D01*
X152175682Y-118521648D01*
X152160109Y-118500214D01*
X152160105Y-118500209D01*
X152009786Y-118349890D01*
X151837820Y-118224951D01*
X151648414Y-118128444D01*
X151648413Y-118128443D01*
X151648412Y-118128443D01*
X151446243Y-118062754D01*
X151446241Y-118062753D01*
X151446240Y-118062753D01*
X151284957Y-118037208D01*
X151236287Y-118029500D01*
X151023713Y-118029500D01*
X150975042Y-118037208D01*
X150813760Y-118062753D01*
X150611585Y-118128444D01*
X150422179Y-118224951D01*
X150250213Y-118349890D01*
X150099890Y-118500213D01*
X149974951Y-118672179D01*
X149878444Y-118861585D01*
X149812753Y-119063760D01*
X149791793Y-119196100D01*
X149779500Y-119273713D01*
X149779500Y-119486287D01*
X149812754Y-119696243D01*
X149853854Y-119822736D01*
X149878444Y-119898414D01*
X149974951Y-120087820D01*
X150099890Y-120259786D01*
X150250213Y-120410109D01*
X150422182Y-120535050D01*
X150430946Y-120539516D01*
X150481742Y-120587491D01*
X150498536Y-120655312D01*
X150475998Y-120721447D01*
X150430946Y-120760484D01*
X150422182Y-120764949D01*
X150250213Y-120889890D01*
X150099890Y-121040213D01*
X149974951Y-121212179D01*
X149878444Y-121401585D01*
X149812753Y-121603760D01*
X149779500Y-121813713D01*
X149779500Y-122026286D01*
X149812753Y-122236239D01*
X149878444Y-122438414D01*
X149974951Y-122627820D01*
X150099890Y-122799786D01*
X150250213Y-122950109D01*
X150422182Y-123075050D01*
X150430946Y-123079516D01*
X150481742Y-123127491D01*
X150498536Y-123195312D01*
X150475998Y-123261447D01*
X150430946Y-123300484D01*
X150422182Y-123304949D01*
X150250213Y-123429890D01*
X150099890Y-123580213D01*
X149974951Y-123752179D01*
X149878444Y-123941585D01*
X149812753Y-124143760D01*
X149779500Y-124353713D01*
X149779500Y-124566286D01*
X149812163Y-124772517D01*
X149812754Y-124776243D01*
X149836788Y-124850213D01*
X149878444Y-124978414D01*
X149974951Y-125167820D01*
X150099890Y-125339786D01*
X150250213Y-125490109D01*
X150422179Y-125615048D01*
X150422181Y-125615049D01*
X150422184Y-125615051D01*
X150430945Y-125619514D01*
X150481741Y-125667488D01*
X150498537Y-125735308D01*
X150476001Y-125801444D01*
X150430950Y-125840482D01*
X150422187Y-125844947D01*
X150422184Y-125844949D01*
X150250213Y-125969891D01*
X150099890Y-126120214D01*
X149974951Y-126292180D01*
X149878444Y-126481586D01*
X149812753Y-126683761D01*
X149779500Y-126893714D01*
X149779500Y-127106287D01*
X149808942Y-127292181D01*
X149812754Y-127316244D01*
X149859437Y-127459920D01*
X149878444Y-127518415D01*
X149974951Y-127707821D01*
X150099890Y-127879787D01*
X150250213Y-128030110D01*
X150422179Y-128155049D01*
X150422181Y-128155050D01*
X150422184Y-128155052D01*
X150431491Y-128159794D01*
X150431495Y-128159796D01*
X150482291Y-128207770D01*
X150499086Y-128275591D01*
X150476549Y-128341726D01*
X150431501Y-128380763D01*
X150422440Y-128385380D01*
X150368282Y-128424727D01*
X150368282Y-128424728D01*
X151000591Y-129057037D01*
X150937007Y-129074075D01*
X150822993Y-129139901D01*
X150729901Y-129232993D01*
X150664075Y-129347007D01*
X150647037Y-129410591D01*
X150014728Y-128778282D01*
X150014727Y-128778282D01*
X149975380Y-128832439D01*
X149878904Y-129021782D01*
X149813242Y-129223869D01*
X149813242Y-129223872D01*
X149780000Y-129433753D01*
X149780000Y-129646246D01*
X149813242Y-129856127D01*
X149813242Y-129856130D01*
X149878904Y-130058217D01*
X149975375Y-130247550D01*
X150014728Y-130301716D01*
X150647037Y-129669408D01*
X150664075Y-129732993D01*
X150729901Y-129847007D01*
X150822993Y-129940099D01*
X150937007Y-130005925D01*
X151000590Y-130022962D01*
X150330370Y-130693181D01*
X150269047Y-130726666D01*
X150242698Y-130729500D01*
X150232134Y-130729500D01*
X150232123Y-130729501D01*
X150172516Y-130735908D01*
X150037671Y-130786202D01*
X150037664Y-130786206D01*
X149922455Y-130872452D01*
X149922452Y-130872455D01*
X149836206Y-130987664D01*
X149836202Y-130987671D01*
X149785908Y-131122517D01*
X149779501Y-131182116D01*
X149779500Y-131182135D01*
X149779500Y-132977870D01*
X149779501Y-132977876D01*
X149785908Y-133037483D01*
X149836202Y-133172328D01*
X149836206Y-133172335D01*
X149922452Y-133287544D01*
X149922455Y-133287547D01*
X150037664Y-133373793D01*
X150037671Y-133373797D01*
X150172517Y-133424091D01*
X150172516Y-133424091D01*
X150179444Y-133424835D01*
X150232127Y-133430500D01*
X152027872Y-133430499D01*
X152087483Y-133424091D01*
X152171773Y-133392653D01*
X152230641Y-133370697D01*
X152231740Y-133373645D01*
X152284812Y-133362086D01*
X152350283Y-133386485D01*
X152392170Y-133442407D01*
X152400000Y-133485772D01*
X152400000Y-142116000D01*
X152380315Y-142183039D01*
X152327511Y-142228794D01*
X152276000Y-142240000D01*
X69974000Y-142240000D01*
X69906961Y-142220315D01*
X69861206Y-142167511D01*
X69850000Y-142116000D01*
X69850000Y-138578711D01*
X71549500Y-138578711D01*
X71549500Y-138821288D01*
X71581161Y-139061785D01*
X71643947Y-139296104D01*
X71684080Y-139392993D01*
X71736776Y-139520212D01*
X71858064Y-139730289D01*
X71858066Y-139730292D01*
X71858067Y-139730293D01*
X72005733Y-139922736D01*
X72005739Y-139922743D01*
X72177256Y-140094260D01*
X72177262Y-140094265D01*
X72369711Y-140241936D01*
X72579788Y-140363224D01*
X72803900Y-140456054D01*
X73038211Y-140518838D01*
X73218586Y-140542584D01*
X73278711Y-140550500D01*
X73278712Y-140550500D01*
X73521289Y-140550500D01*
X73569388Y-140544167D01*
X73761789Y-140518838D01*
X73996100Y-140456054D01*
X74220212Y-140363224D01*
X74430289Y-140241936D01*
X74622738Y-140094265D01*
X74794265Y-139922738D01*
X74941936Y-139730289D01*
X75063224Y-139520212D01*
X75156054Y-139296100D01*
X75218838Y-139061789D01*
X75250500Y-138821288D01*
X75250500Y-138578712D01*
X75218838Y-138338211D01*
X75156054Y-138103900D01*
X75063224Y-137879788D01*
X74941936Y-137669711D01*
X74794265Y-137477262D01*
X74794260Y-137477256D01*
X74622743Y-137305739D01*
X74622736Y-137305733D01*
X74430293Y-137158067D01*
X74430292Y-137158066D01*
X74430289Y-137158064D01*
X74220212Y-137036776D01*
X74220205Y-137036773D01*
X74136582Y-137002135D01*
X77949500Y-137002135D01*
X77949500Y-139497870D01*
X77949501Y-139497876D01*
X77955908Y-139557483D01*
X78006202Y-139692328D01*
X78006206Y-139692335D01*
X78092452Y-139807544D01*
X78092455Y-139807547D01*
X78207664Y-139893793D01*
X78207671Y-139893797D01*
X78342517Y-139944091D01*
X78342516Y-139944091D01*
X78349444Y-139944835D01*
X78402127Y-139950500D01*
X80897872Y-139950499D01*
X80957483Y-139944091D01*
X81092331Y-139893796D01*
X81207546Y-139807546D01*
X81293796Y-139692331D01*
X81344091Y-139557483D01*
X81350500Y-139497873D01*
X81350499Y-138138575D01*
X82950000Y-138138575D01*
X82950000Y-138361424D01*
X82979085Y-138582354D01*
X82979088Y-138582367D01*
X83036763Y-138797618D01*
X83122045Y-139003502D01*
X83122054Y-139003520D01*
X83233464Y-139196491D01*
X83233473Y-139196504D01*
X83284040Y-139262403D01*
X83284043Y-139262403D01*
X84085387Y-138461059D01*
X84090889Y-138481591D01*
X84169881Y-138618408D01*
X84281592Y-138730119D01*
X84418409Y-138809111D01*
X84438940Y-138814612D01*
X83637595Y-139615955D01*
X83637595Y-139615956D01*
X83703507Y-139666533D01*
X83896485Y-139777949D01*
X83896497Y-139777954D01*
X84102381Y-139863236D01*
X84317632Y-139920911D01*
X84317645Y-139920914D01*
X84538575Y-139950000D01*
X84761425Y-139950000D01*
X84982354Y-139920914D01*
X84982367Y-139920911D01*
X85197618Y-139863236D01*
X85403502Y-139777954D01*
X85403514Y-139777949D01*
X85596498Y-139666530D01*
X85662403Y-139615957D01*
X85662404Y-139615956D01*
X84861059Y-138814612D01*
X84881591Y-138809111D01*
X85018408Y-138730119D01*
X85130119Y-138618408D01*
X85209111Y-138481591D01*
X85214612Y-138461059D01*
X86015956Y-139262404D01*
X86015957Y-139262403D01*
X86066530Y-139196498D01*
X86177949Y-139003514D01*
X86177954Y-139003502D01*
X86261364Y-138802135D01*
X87549500Y-138802135D01*
X87549500Y-140597870D01*
X87549501Y-140597876D01*
X87555908Y-140657483D01*
X87606202Y-140792328D01*
X87606206Y-140792335D01*
X87692452Y-140907544D01*
X87692455Y-140907547D01*
X87807664Y-140993793D01*
X87807671Y-140993797D01*
X87942517Y-141044091D01*
X87942516Y-141044091D01*
X87949444Y-141044835D01*
X88002127Y-141050500D01*
X89797872Y-141050499D01*
X89857483Y-141044091D01*
X89992331Y-140993796D01*
X90107546Y-140907546D01*
X90193796Y-140792331D01*
X90242810Y-140660916D01*
X90284681Y-140604984D01*
X90350145Y-140580566D01*
X90418418Y-140595417D01*
X90446673Y-140616569D01*
X90560213Y-140730109D01*
X90732179Y-140855048D01*
X90732181Y-140855049D01*
X90732184Y-140855051D01*
X90921588Y-140951557D01*
X91123757Y-141017246D01*
X91333713Y-141050500D01*
X91333714Y-141050500D01*
X91546286Y-141050500D01*
X91546287Y-141050500D01*
X91756243Y-141017246D01*
X91958412Y-140951557D01*
X92147816Y-140855051D01*
X92234138Y-140792335D01*
X92319786Y-140730109D01*
X92319788Y-140730106D01*
X92319792Y-140730104D01*
X92470104Y-140579792D01*
X92470106Y-140579788D01*
X92470109Y-140579786D01*
X92595048Y-140407820D01*
X92595050Y-140407817D01*
X92595051Y-140407816D01*
X92599794Y-140398506D01*
X92647766Y-140347710D01*
X92715587Y-140330913D01*
X92781722Y-140353448D01*
X92820765Y-140398505D01*
X92825372Y-140407547D01*
X92864727Y-140461716D01*
X93497036Y-139829408D01*
X93514074Y-139892993D01*
X93579900Y-140007007D01*
X93672992Y-140100099D01*
X93787006Y-140165925D01*
X93850589Y-140182962D01*
X93218281Y-140815269D01*
X93218281Y-140815270D01*
X93272448Y-140854624D01*
X93461781Y-140951095D01*
X93663869Y-141016757D01*
X93873753Y-141050000D01*
X94086245Y-141050000D01*
X94296126Y-141016757D01*
X94296129Y-141016757D01*
X94498216Y-140951095D01*
X94687553Y-140854622D01*
X94741715Y-140815270D01*
X94741716Y-140815270D01*
X94109407Y-140182962D01*
X94172992Y-140165925D01*
X94287006Y-140100099D01*
X94380098Y-140007007D01*
X94445924Y-139892993D01*
X94462961Y-139829409D01*
X95095269Y-140461717D01*
X95095269Y-140461716D01*
X95134622Y-140407553D01*
X95139230Y-140398509D01*
X95187201Y-140347710D01*
X95255021Y-140330910D01*
X95321157Y-140353444D01*
X95360201Y-140398499D01*
X95364949Y-140407817D01*
X95489890Y-140579786D01*
X95640213Y-140730109D01*
X95812179Y-140855048D01*
X95812181Y-140855049D01*
X95812184Y-140855051D01*
X96001588Y-140951557D01*
X96203757Y-141017246D01*
X96413713Y-141050500D01*
X96413714Y-141050500D01*
X96626286Y-141050500D01*
X96626287Y-141050500D01*
X96836243Y-141017246D01*
X97038412Y-140951557D01*
X97227816Y-140855051D01*
X97314138Y-140792335D01*
X97399786Y-140730109D01*
X97399788Y-140730106D01*
X97399792Y-140730104D01*
X97550104Y-140579792D01*
X97550106Y-140579788D01*
X97550109Y-140579786D01*
X97675048Y-140407820D01*
X97675050Y-140407817D01*
X97675051Y-140407816D01*
X97679514Y-140399054D01*
X97727488Y-140348259D01*
X97795308Y-140331463D01*
X97861444Y-140353999D01*
X97900484Y-140399054D01*
X97904591Y-140407115D01*
X97904951Y-140407820D01*
X98029890Y-140579786D01*
X98180213Y-140730109D01*
X98352179Y-140855048D01*
X98352181Y-140855049D01*
X98352184Y-140855051D01*
X98541588Y-140951557D01*
X98743757Y-141017246D01*
X98953713Y-141050500D01*
X98953714Y-141050500D01*
X99166286Y-141050500D01*
X99166287Y-141050500D01*
X99376243Y-141017246D01*
X99578412Y-140951557D01*
X99767816Y-140855051D01*
X99854138Y-140792335D01*
X99939786Y-140730109D01*
X99939788Y-140730106D01*
X99939792Y-140730104D01*
X100090104Y-140579792D01*
X100090106Y-140579788D01*
X100090109Y-140579786D01*
X100215048Y-140407820D01*
X100215050Y-140407817D01*
X100215051Y-140407816D01*
X100219514Y-140399054D01*
X100267488Y-140348259D01*
X100335308Y-140331463D01*
X100401444Y-140353999D01*
X100440484Y-140399054D01*
X100444591Y-140407115D01*
X100444951Y-140407820D01*
X100569890Y-140579786D01*
X100720213Y-140730109D01*
X100892179Y-140855048D01*
X100892181Y-140855049D01*
X100892184Y-140855051D01*
X101081588Y-140951557D01*
X101283757Y-141017246D01*
X101493713Y-141050500D01*
X101493714Y-141050500D01*
X101706286Y-141050500D01*
X101706287Y-141050500D01*
X101916243Y-141017246D01*
X102118412Y-140951557D01*
X102307816Y-140855051D01*
X102394138Y-140792335D01*
X102479786Y-140730109D01*
X102479788Y-140730106D01*
X102479792Y-140730104D01*
X102630104Y-140579792D01*
X102630106Y-140579788D01*
X102630109Y-140579786D01*
X102755048Y-140407820D01*
X102755050Y-140407817D01*
X102755051Y-140407816D01*
X102759514Y-140399054D01*
X102807488Y-140348259D01*
X102875308Y-140331463D01*
X102941444Y-140353999D01*
X102980484Y-140399054D01*
X102984591Y-140407115D01*
X102984951Y-140407820D01*
X103109890Y-140579786D01*
X103260213Y-140730109D01*
X103432179Y-140855048D01*
X103432181Y-140855049D01*
X103432184Y-140855051D01*
X103621588Y-140951557D01*
X103823757Y-141017246D01*
X104033713Y-141050500D01*
X104033714Y-141050500D01*
X104246286Y-141050500D01*
X104246287Y-141050500D01*
X104456243Y-141017246D01*
X104658412Y-140951557D01*
X104847816Y-140855051D01*
X104934138Y-140792335D01*
X105019786Y-140730109D01*
X105019788Y-140730106D01*
X105019792Y-140730104D01*
X105170104Y-140579792D01*
X105170106Y-140579788D01*
X105170109Y-140579786D01*
X105295048Y-140407821D01*
X105295188Y-140407547D01*
X105299513Y-140399056D01*
X105347484Y-140348260D01*
X105415304Y-140331462D01*
X105481440Y-140353996D01*
X105520484Y-140399052D01*
X105524950Y-140407817D01*
X105649891Y-140579786D01*
X105800214Y-140730109D01*
X105972180Y-140855048D01*
X105972182Y-140855049D01*
X105972185Y-140855051D01*
X106161589Y-140951557D01*
X106363758Y-141017246D01*
X106573714Y-141050500D01*
X106573715Y-141050500D01*
X106786287Y-141050500D01*
X106786288Y-141050500D01*
X106996244Y-141017246D01*
X107198413Y-140951557D01*
X107387817Y-140855051D01*
X107474139Y-140792335D01*
X107559787Y-140730109D01*
X107559789Y-140730106D01*
X107559793Y-140730104D01*
X107710105Y-140579792D01*
X107710107Y-140579788D01*
X107710110Y-140579786D01*
X107835049Y-140407820D01*
X107835051Y-140407817D01*
X107835052Y-140407816D01*
X107839513Y-140399058D01*
X107887484Y-140348262D01*
X107955304Y-140331464D01*
X108021441Y-140353998D01*
X108060484Y-140399054D01*
X108064949Y-140407817D01*
X108189890Y-140579786D01*
X108340213Y-140730109D01*
X108512179Y-140855048D01*
X108512181Y-140855049D01*
X108512184Y-140855051D01*
X108701588Y-140951557D01*
X108903757Y-141017246D01*
X109113713Y-141050500D01*
X109113714Y-141050500D01*
X109326286Y-141050500D01*
X109326287Y-141050500D01*
X109536243Y-141017246D01*
X109738412Y-140951557D01*
X109927816Y-140855051D01*
X110014138Y-140792335D01*
X110099786Y-140730109D01*
X110099788Y-140730106D01*
X110099792Y-140730104D01*
X110250104Y-140579792D01*
X110250106Y-140579788D01*
X110250109Y-140579786D01*
X110375048Y-140407820D01*
X110375050Y-140407817D01*
X110375051Y-140407816D01*
X110379514Y-140399054D01*
X110427488Y-140348259D01*
X110495308Y-140331463D01*
X110561444Y-140353999D01*
X110600484Y-140399054D01*
X110604591Y-140407115D01*
X110604951Y-140407820D01*
X110729890Y-140579786D01*
X110880213Y-140730109D01*
X111052179Y-140855048D01*
X111052181Y-140855049D01*
X111052184Y-140855051D01*
X111241588Y-140951557D01*
X111443757Y-141017246D01*
X111653713Y-141050500D01*
X111653714Y-141050500D01*
X111866286Y-141050500D01*
X111866287Y-141050500D01*
X112076243Y-141017246D01*
X112278412Y-140951557D01*
X112467816Y-140855051D01*
X112554138Y-140792335D01*
X112639786Y-140730109D01*
X112639788Y-140730106D01*
X112639792Y-140730104D01*
X112790104Y-140579792D01*
X112790106Y-140579788D01*
X112790109Y-140579786D01*
X112915048Y-140407820D01*
X112915050Y-140407817D01*
X112915051Y-140407816D01*
X112919514Y-140399054D01*
X112967488Y-140348259D01*
X113035308Y-140331463D01*
X113101444Y-140353999D01*
X113140484Y-140399054D01*
X113144591Y-140407115D01*
X113144951Y-140407820D01*
X113269890Y-140579786D01*
X113420213Y-140730109D01*
X113592179Y-140855048D01*
X113592181Y-140855049D01*
X113592184Y-140855051D01*
X113781588Y-140951557D01*
X113983757Y-141017246D01*
X114193713Y-141050500D01*
X114193714Y-141050500D01*
X114406286Y-141050500D01*
X114406287Y-141050500D01*
X114616243Y-141017246D01*
X114818412Y-140951557D01*
X115007816Y-140855051D01*
X115094138Y-140792335D01*
X115179786Y-140730109D01*
X115179788Y-140730106D01*
X115179792Y-140730104D01*
X115330104Y-140579792D01*
X115330106Y-140579788D01*
X115330109Y-140579786D01*
X115455048Y-140407820D01*
X115455050Y-140407817D01*
X115455051Y-140407816D01*
X115459512Y-140399058D01*
X115507483Y-140348262D01*
X115575303Y-140331464D01*
X115641440Y-140353998D01*
X115680483Y-140399054D01*
X115684948Y-140407817D01*
X115809889Y-140579786D01*
X115960212Y-140730109D01*
X116132178Y-140855048D01*
X116132180Y-140855049D01*
X116132183Y-140855051D01*
X116321587Y-140951557D01*
X116523756Y-141017246D01*
X116733712Y-141050500D01*
X116733713Y-141050500D01*
X116946285Y-141050500D01*
X116946286Y-141050500D01*
X117156242Y-141017246D01*
X117358411Y-140951557D01*
X117547815Y-140855051D01*
X117634137Y-140792335D01*
X117719785Y-140730109D01*
X117719787Y-140730106D01*
X117719791Y-140730104D01*
X117870103Y-140579792D01*
X117870105Y-140579788D01*
X117870108Y-140579786D01*
X117995047Y-140407821D01*
X117995187Y-140407547D01*
X117999512Y-140399056D01*
X118047483Y-140348260D01*
X118115303Y-140331462D01*
X118181439Y-140353996D01*
X118220483Y-140399052D01*
X118224949Y-140407817D01*
X118349890Y-140579786D01*
X118500213Y-140730109D01*
X118672179Y-140855048D01*
X118672181Y-140855049D01*
X118672184Y-140855051D01*
X118861588Y-140951557D01*
X119063757Y-141017246D01*
X119273713Y-141050500D01*
X119273714Y-141050500D01*
X119486286Y-141050500D01*
X119486287Y-141050500D01*
X119696243Y-141017246D01*
X119898412Y-140951557D01*
X120087816Y-140855051D01*
X120174138Y-140792335D01*
X120259786Y-140730109D01*
X120259788Y-140730106D01*
X120259792Y-140730104D01*
X120410104Y-140579792D01*
X120410106Y-140579788D01*
X120410109Y-140579786D01*
X120535048Y-140407820D01*
X120535050Y-140407817D01*
X120535051Y-140407816D01*
X120539514Y-140399054D01*
X120587488Y-140348259D01*
X120655308Y-140331463D01*
X120721444Y-140353999D01*
X120760484Y-140399054D01*
X120764591Y-140407115D01*
X120764951Y-140407820D01*
X120889890Y-140579786D01*
X121040213Y-140730109D01*
X121212179Y-140855048D01*
X121212181Y-140855049D01*
X121212184Y-140855051D01*
X121401588Y-140951557D01*
X121603757Y-141017246D01*
X121813713Y-141050500D01*
X121813714Y-141050500D01*
X122026286Y-141050500D01*
X122026287Y-141050500D01*
X122236243Y-141017246D01*
X122438412Y-140951557D01*
X122627816Y-140855051D01*
X122714138Y-140792335D01*
X122799786Y-140730109D01*
X122799788Y-140730106D01*
X122799792Y-140730104D01*
X122950104Y-140579792D01*
X122950106Y-140579788D01*
X122950109Y-140579786D01*
X123075048Y-140407820D01*
X123075050Y-140407817D01*
X123075051Y-140407816D01*
X123079514Y-140399054D01*
X123127488Y-140348259D01*
X123195308Y-140331463D01*
X123261444Y-140353999D01*
X123300484Y-140399054D01*
X123304591Y-140407115D01*
X123304951Y-140407820D01*
X123429890Y-140579786D01*
X123580213Y-140730109D01*
X123752179Y-140855048D01*
X123752181Y-140855049D01*
X123752184Y-140855051D01*
X123941588Y-140951557D01*
X124143757Y-141017246D01*
X124353713Y-141050500D01*
X124353714Y-141050500D01*
X124566286Y-141050500D01*
X124566287Y-141050500D01*
X124776243Y-141017246D01*
X124978412Y-140951557D01*
X125167816Y-140855051D01*
X125254138Y-140792335D01*
X125339786Y-140730109D01*
X125339788Y-140730106D01*
X125339792Y-140730104D01*
X125490104Y-140579792D01*
X125490106Y-140579788D01*
X125490109Y-140579786D01*
X125615048Y-140407820D01*
X125615050Y-140407817D01*
X125615051Y-140407816D01*
X125619512Y-140399058D01*
X125667483Y-140348262D01*
X125735303Y-140331464D01*
X125801440Y-140353998D01*
X125840483Y-140399054D01*
X125844948Y-140407817D01*
X125969889Y-140579786D01*
X126120212Y-140730109D01*
X126292178Y-140855048D01*
X126292180Y-140855049D01*
X126292183Y-140855051D01*
X126481587Y-140951557D01*
X126683756Y-141017246D01*
X126893712Y-141050500D01*
X126893713Y-141050500D01*
X127106285Y-141050500D01*
X127106286Y-141050500D01*
X127316242Y-141017246D01*
X127518411Y-140951557D01*
X127707815Y-140855051D01*
X127794137Y-140792335D01*
X127879785Y-140730109D01*
X127879787Y-140730106D01*
X127879791Y-140730104D01*
X128030103Y-140579792D01*
X128030105Y-140579788D01*
X128030108Y-140579786D01*
X128155047Y-140407820D01*
X128155049Y-140407817D01*
X128155050Y-140407816D01*
X128159514Y-140399052D01*
X128207487Y-140348257D01*
X128275308Y-140331461D01*
X128341443Y-140353997D01*
X128380484Y-140399052D01*
X128384606Y-140407142D01*
X128384952Y-140407820D01*
X128509891Y-140579786D01*
X128660214Y-140730109D01*
X128832180Y-140855048D01*
X128832182Y-140855049D01*
X128832185Y-140855051D01*
X129021589Y-140951557D01*
X129223758Y-141017246D01*
X129433714Y-141050500D01*
X129433715Y-141050500D01*
X129646287Y-141050500D01*
X129646288Y-141050500D01*
X129856244Y-141017246D01*
X130058413Y-140951557D01*
X130247817Y-140855051D01*
X130334139Y-140792335D01*
X130419787Y-140730109D01*
X130419789Y-140730106D01*
X130419793Y-140730104D01*
X130570105Y-140579792D01*
X130570107Y-140579788D01*
X130570110Y-140579786D01*
X130695049Y-140407820D01*
X130695051Y-140407817D01*
X130695052Y-140407816D01*
X130699513Y-140399058D01*
X130747484Y-140348262D01*
X130815304Y-140331464D01*
X130881441Y-140353998D01*
X130920484Y-140399054D01*
X130924949Y-140407817D01*
X131049890Y-140579786D01*
X131200213Y-140730109D01*
X131372179Y-140855048D01*
X131372181Y-140855049D01*
X131372184Y-140855051D01*
X131561588Y-140951557D01*
X131763757Y-141017246D01*
X131973713Y-141050500D01*
X131973714Y-141050500D01*
X132186286Y-141050500D01*
X132186287Y-141050500D01*
X132396243Y-141017246D01*
X132598412Y-140951557D01*
X132787816Y-140855051D01*
X132874138Y-140792335D01*
X132959786Y-140730109D01*
X132959788Y-140730106D01*
X132959792Y-140730104D01*
X133110104Y-140579792D01*
X133110106Y-140579788D01*
X133110109Y-140579786D01*
X133235048Y-140407820D01*
X133235050Y-140407817D01*
X133235051Y-140407816D01*
X133239514Y-140399054D01*
X133287488Y-140348259D01*
X133355308Y-140331463D01*
X133421444Y-140353999D01*
X133460484Y-140399054D01*
X133464591Y-140407115D01*
X133464951Y-140407820D01*
X133589890Y-140579786D01*
X133740213Y-140730109D01*
X133912179Y-140855048D01*
X133912181Y-140855049D01*
X133912184Y-140855051D01*
X134101588Y-140951557D01*
X134303757Y-141017246D01*
X134513713Y-141050500D01*
X134513714Y-141050500D01*
X134726286Y-141050500D01*
X134726287Y-141050500D01*
X134936243Y-141017246D01*
X135138412Y-140951557D01*
X135327816Y-140855051D01*
X135414138Y-140792335D01*
X135499786Y-140730109D01*
X135499788Y-140730106D01*
X135499792Y-140730104D01*
X135650104Y-140579792D01*
X135650106Y-140579788D01*
X135650109Y-140579786D01*
X135775048Y-140407820D01*
X135775050Y-140407817D01*
X135775051Y-140407816D01*
X135779514Y-140399054D01*
X135827488Y-140348259D01*
X135895308Y-140331463D01*
X135961444Y-140353999D01*
X136000484Y-140399054D01*
X136004591Y-140407115D01*
X136004951Y-140407820D01*
X136129890Y-140579786D01*
X136280213Y-140730109D01*
X136452179Y-140855048D01*
X136452181Y-140855049D01*
X136452184Y-140855051D01*
X136641588Y-140951557D01*
X136843757Y-141017246D01*
X137053713Y-141050500D01*
X137053714Y-141050500D01*
X137266286Y-141050500D01*
X137266287Y-141050500D01*
X137476243Y-141017246D01*
X137678412Y-140951557D01*
X137867816Y-140855051D01*
X137954138Y-140792335D01*
X138039786Y-140730109D01*
X138039788Y-140730106D01*
X138039792Y-140730104D01*
X138190104Y-140579792D01*
X138190106Y-140579788D01*
X138190109Y-140579786D01*
X138315048Y-140407820D01*
X138315050Y-140407817D01*
X138315051Y-140407816D01*
X138319512Y-140399058D01*
X138367483Y-140348262D01*
X138435303Y-140331464D01*
X138501440Y-140353998D01*
X138540483Y-140399054D01*
X138544948Y-140407817D01*
X138669889Y-140579786D01*
X138820212Y-140730109D01*
X138992178Y-140855048D01*
X138992180Y-140855049D01*
X138992183Y-140855051D01*
X139181587Y-140951557D01*
X139383756Y-141017246D01*
X139593712Y-141050500D01*
X139593713Y-141050500D01*
X139806285Y-141050500D01*
X139806286Y-141050500D01*
X140016242Y-141017246D01*
X140218411Y-140951557D01*
X140407815Y-140855051D01*
X140494137Y-140792335D01*
X140579785Y-140730109D01*
X140579787Y-140730106D01*
X140579791Y-140730104D01*
X140730103Y-140579792D01*
X140730105Y-140579788D01*
X140730108Y-140579786D01*
X140855047Y-140407821D01*
X140855187Y-140407547D01*
X140859512Y-140399056D01*
X140907483Y-140348260D01*
X140975303Y-140331462D01*
X141041439Y-140353996D01*
X141080483Y-140399052D01*
X141084949Y-140407817D01*
X141209890Y-140579786D01*
X141360213Y-140730109D01*
X141532179Y-140855048D01*
X141532181Y-140855049D01*
X141532184Y-140855051D01*
X141721588Y-140951557D01*
X141923757Y-141017246D01*
X142133713Y-141050500D01*
X142133714Y-141050500D01*
X142346286Y-141050500D01*
X142346287Y-141050500D01*
X142556243Y-141017246D01*
X142758412Y-140951557D01*
X142947816Y-140855051D01*
X143034138Y-140792335D01*
X143119786Y-140730109D01*
X143119788Y-140730106D01*
X143119792Y-140730104D01*
X143270104Y-140579792D01*
X143270106Y-140579788D01*
X143270109Y-140579786D01*
X143395048Y-140407820D01*
X143395050Y-140407817D01*
X143395051Y-140407816D01*
X143491557Y-140218412D01*
X143557246Y-140016243D01*
X143590500Y-139806287D01*
X143590500Y-139593713D01*
X143557246Y-139383757D01*
X143491557Y-139181588D01*
X143395051Y-138992184D01*
X143395049Y-138992181D01*
X143395048Y-138992179D01*
X143270109Y-138820213D01*
X143119790Y-138669894D01*
X143119785Y-138669890D01*
X142994287Y-138578711D01*
X147749500Y-138578711D01*
X147749500Y-138821288D01*
X147781161Y-139061785D01*
X147843947Y-139296104D01*
X147884080Y-139392993D01*
X147936776Y-139520212D01*
X148058064Y-139730289D01*
X148058066Y-139730292D01*
X148058067Y-139730293D01*
X148205733Y-139922736D01*
X148205739Y-139922743D01*
X148377256Y-140094260D01*
X148377262Y-140094265D01*
X148569711Y-140241936D01*
X148779788Y-140363224D01*
X149003900Y-140456054D01*
X149238211Y-140518838D01*
X149418586Y-140542584D01*
X149478711Y-140550500D01*
X149478712Y-140550500D01*
X149721289Y-140550500D01*
X149769388Y-140544167D01*
X149961789Y-140518838D01*
X150196100Y-140456054D01*
X150420212Y-140363224D01*
X150630289Y-140241936D01*
X150822738Y-140094265D01*
X150994265Y-139922738D01*
X151141936Y-139730289D01*
X151263224Y-139520212D01*
X151356054Y-139296100D01*
X151418838Y-139061789D01*
X151450500Y-138821288D01*
X151450500Y-138578712D01*
X151418838Y-138338211D01*
X151356054Y-138103900D01*
X151263224Y-137879788D01*
X151141936Y-137669711D01*
X150994265Y-137477262D01*
X150994260Y-137477256D01*
X150822743Y-137305739D01*
X150822736Y-137305733D01*
X150630293Y-137158067D01*
X150630292Y-137158066D01*
X150630289Y-137158064D01*
X150420212Y-137036776D01*
X150420205Y-137036773D01*
X150196104Y-136943947D01*
X149961785Y-136881161D01*
X149721289Y-136849500D01*
X149721288Y-136849500D01*
X149478712Y-136849500D01*
X149478711Y-136849500D01*
X149238214Y-136881161D01*
X149003895Y-136943947D01*
X148779794Y-137036773D01*
X148779785Y-137036777D01*
X148569706Y-137158067D01*
X148377263Y-137305733D01*
X148377256Y-137305739D01*
X148205739Y-137477256D01*
X148205733Y-137477263D01*
X148058067Y-137669706D01*
X147936777Y-137879785D01*
X147936773Y-137879794D01*
X147843947Y-138103895D01*
X147781161Y-138338214D01*
X147749500Y-138578711D01*
X142994287Y-138578711D01*
X142947820Y-138544951D01*
X142758414Y-138448444D01*
X142758413Y-138448443D01*
X142758412Y-138448443D01*
X142556243Y-138382754D01*
X142556241Y-138382753D01*
X142556240Y-138382753D01*
X142392863Y-138356877D01*
X142346287Y-138349500D01*
X142133713Y-138349500D01*
X142087137Y-138356877D01*
X141923760Y-138382753D01*
X141721585Y-138448444D01*
X141532179Y-138544951D01*
X141360213Y-138669890D01*
X141209890Y-138820213D01*
X141084948Y-138992184D01*
X141084946Y-138992187D01*
X141080481Y-139000950D01*
X141032505Y-139051744D01*
X140964683Y-139068537D01*
X140898549Y-139045997D01*
X140859513Y-139000944D01*
X140855180Y-138992440D01*
X140855050Y-138992184D01*
X140855048Y-138992181D01*
X140855047Y-138992179D01*
X140730108Y-138820213D01*
X140579785Y-138669890D01*
X140407819Y-138544951D01*
X140218413Y-138448444D01*
X140218412Y-138448443D01*
X140218411Y-138448443D01*
X140016242Y-138382754D01*
X140016240Y-138382753D01*
X140016239Y-138382753D01*
X139852862Y-138356877D01*
X139806286Y-138349500D01*
X139593712Y-138349500D01*
X139547136Y-138356877D01*
X139383759Y-138382753D01*
X139181584Y-138448444D01*
X138992178Y-138544951D01*
X138820212Y-138669890D01*
X138669889Y-138820213D01*
X138544947Y-138992183D01*
X138540481Y-139000949D01*
X138492505Y-139051742D01*
X138424683Y-139068535D01*
X138358549Y-139045995D01*
X138319513Y-139000942D01*
X138315181Y-138992440D01*
X138315051Y-138992184D01*
X138315049Y-138992181D01*
X138315048Y-138992179D01*
X138190109Y-138820213D01*
X138039786Y-138669890D01*
X137867820Y-138544951D01*
X137678414Y-138448444D01*
X137678413Y-138448443D01*
X137678412Y-138448443D01*
X137476243Y-138382754D01*
X137476241Y-138382753D01*
X137476240Y-138382753D01*
X137312863Y-138356877D01*
X137266287Y-138349500D01*
X137053713Y-138349500D01*
X137007137Y-138356877D01*
X136843760Y-138382753D01*
X136641585Y-138448444D01*
X136452179Y-138544951D01*
X136280213Y-138669890D01*
X136129890Y-138820213D01*
X136004949Y-138992182D01*
X136000484Y-139000946D01*
X135952509Y-139051742D01*
X135884688Y-139068536D01*
X135818553Y-139045998D01*
X135779516Y-139000946D01*
X135775050Y-138992182D01*
X135650109Y-138820213D01*
X135499786Y-138669890D01*
X135327820Y-138544951D01*
X135138414Y-138448444D01*
X135138413Y-138448443D01*
X135138412Y-138448443D01*
X134936243Y-138382754D01*
X134936241Y-138382753D01*
X134936240Y-138382753D01*
X134772863Y-138356877D01*
X134726287Y-138349500D01*
X134513713Y-138349500D01*
X134467137Y-138356877D01*
X134303760Y-138382753D01*
X134101585Y-138448444D01*
X133912179Y-138544951D01*
X133740213Y-138669890D01*
X133589890Y-138820213D01*
X133464949Y-138992182D01*
X133460484Y-139000946D01*
X133412509Y-139051742D01*
X133344688Y-139068536D01*
X133278553Y-139045998D01*
X133239516Y-139000946D01*
X133235050Y-138992182D01*
X133110109Y-138820213D01*
X132959786Y-138669890D01*
X132787820Y-138544951D01*
X132598414Y-138448444D01*
X132598413Y-138448443D01*
X132598412Y-138448443D01*
X132396243Y-138382754D01*
X132396241Y-138382753D01*
X132396240Y-138382753D01*
X132232863Y-138356877D01*
X132186287Y-138349500D01*
X131973713Y-138349500D01*
X131927137Y-138356877D01*
X131763760Y-138382753D01*
X131561585Y-138448444D01*
X131372179Y-138544951D01*
X131200213Y-138669890D01*
X131049890Y-138820213D01*
X130924948Y-138992183D01*
X130920482Y-139000949D01*
X130872506Y-139051742D01*
X130804684Y-139068535D01*
X130738550Y-139045995D01*
X130699514Y-139000942D01*
X130695182Y-138992440D01*
X130695052Y-138992184D01*
X130695050Y-138992181D01*
X130695049Y-138992179D01*
X130570110Y-138820213D01*
X130419787Y-138669890D01*
X130247821Y-138544951D01*
X130058415Y-138448444D01*
X130058414Y-138448443D01*
X130058413Y-138448443D01*
X129856244Y-138382754D01*
X129856242Y-138382753D01*
X129856241Y-138382753D01*
X129692864Y-138356877D01*
X129646288Y-138349500D01*
X129433714Y-138349500D01*
X129387138Y-138356877D01*
X129223761Y-138382753D01*
X129021586Y-138448444D01*
X128832180Y-138544951D01*
X128660214Y-138669890D01*
X128509891Y-138820213D01*
X128384950Y-138992182D01*
X128380484Y-139000948D01*
X128332509Y-139051743D01*
X128264688Y-139068538D01*
X128198553Y-139046000D01*
X128159516Y-139000948D01*
X128155049Y-138992182D01*
X128030108Y-138820213D01*
X127879785Y-138669890D01*
X127707819Y-138544951D01*
X127518413Y-138448444D01*
X127518412Y-138448443D01*
X127518411Y-138448443D01*
X127316242Y-138382754D01*
X127316240Y-138382753D01*
X127316239Y-138382753D01*
X127152862Y-138356877D01*
X127106286Y-138349500D01*
X126893712Y-138349500D01*
X126847136Y-138356877D01*
X126683759Y-138382753D01*
X126481584Y-138448444D01*
X126292178Y-138544951D01*
X126120212Y-138669890D01*
X125969889Y-138820213D01*
X125844947Y-138992183D01*
X125840481Y-139000949D01*
X125792505Y-139051742D01*
X125724683Y-139068535D01*
X125658549Y-139045995D01*
X125619513Y-139000942D01*
X125615181Y-138992440D01*
X125615051Y-138992184D01*
X125615049Y-138992181D01*
X125615048Y-138992179D01*
X125490109Y-138820213D01*
X125339786Y-138669890D01*
X125167820Y-138544951D01*
X124978414Y-138448444D01*
X124978413Y-138448443D01*
X124978412Y-138448443D01*
X124776243Y-138382754D01*
X124776241Y-138382753D01*
X124776240Y-138382753D01*
X124612863Y-138356877D01*
X124566287Y-138349500D01*
X124353713Y-138349500D01*
X124307137Y-138356877D01*
X124143760Y-138382753D01*
X123941585Y-138448444D01*
X123752179Y-138544951D01*
X123580213Y-138669890D01*
X123429890Y-138820213D01*
X123304949Y-138992182D01*
X123300484Y-139000946D01*
X123252509Y-139051742D01*
X123184688Y-139068536D01*
X123118553Y-139045998D01*
X123079516Y-139000946D01*
X123075050Y-138992182D01*
X122950109Y-138820213D01*
X122799786Y-138669890D01*
X122627820Y-138544951D01*
X122438414Y-138448444D01*
X122438413Y-138448443D01*
X122438412Y-138448443D01*
X122236243Y-138382754D01*
X122236241Y-138382753D01*
X122236240Y-138382753D01*
X122072863Y-138356877D01*
X122026287Y-138349500D01*
X121813713Y-138349500D01*
X121767137Y-138356877D01*
X121603760Y-138382753D01*
X121401585Y-138448444D01*
X121212179Y-138544951D01*
X121040213Y-138669890D01*
X120889890Y-138820213D01*
X120764949Y-138992182D01*
X120760484Y-139000946D01*
X120712509Y-139051742D01*
X120644688Y-139068536D01*
X120578553Y-139045998D01*
X120539516Y-139000946D01*
X120535050Y-138992182D01*
X120410109Y-138820213D01*
X120259786Y-138669890D01*
X120087820Y-138544951D01*
X119898414Y-138448444D01*
X119898413Y-138448443D01*
X119898412Y-138448443D01*
X119696243Y-138382754D01*
X119696241Y-138382753D01*
X119696240Y-138382753D01*
X119532863Y-138356877D01*
X119486287Y-138349500D01*
X119273713Y-138349500D01*
X119227137Y-138356877D01*
X119063760Y-138382753D01*
X118861585Y-138448444D01*
X118672179Y-138544951D01*
X118500213Y-138669890D01*
X118349890Y-138820213D01*
X118224948Y-138992184D01*
X118224946Y-138992187D01*
X118220481Y-139000950D01*
X118172505Y-139051744D01*
X118104683Y-139068537D01*
X118038549Y-139045997D01*
X117999513Y-139000944D01*
X117995180Y-138992440D01*
X117995050Y-138992184D01*
X117995048Y-138992181D01*
X117995047Y-138992179D01*
X117870108Y-138820213D01*
X117719785Y-138669890D01*
X117547819Y-138544951D01*
X117358413Y-138448444D01*
X117358412Y-138448443D01*
X117358411Y-138448443D01*
X117156242Y-138382754D01*
X117156240Y-138382753D01*
X117156239Y-138382753D01*
X116992862Y-138356877D01*
X116946286Y-138349500D01*
X116837280Y-138349500D01*
X116770241Y-138329815D01*
X116724486Y-138277011D01*
X116714542Y-138207853D01*
X116743567Y-138144297D01*
X116749599Y-138137819D01*
X116869010Y-138018409D01*
X117123600Y-137763819D01*
X117184923Y-137730334D01*
X117211281Y-137727500D01*
X127161804Y-137727500D01*
X127161805Y-137727499D01*
X127283035Y-137703386D01*
X127364332Y-137669711D01*
X127397233Y-137656083D01*
X127500008Y-137587411D01*
X127587411Y-137500008D01*
X129110598Y-135976822D01*
X135008499Y-135976822D01*
X135042374Y-136147118D01*
X135042377Y-136147128D01*
X135108821Y-136307540D01*
X135108828Y-136307553D01*
X135193045Y-136433592D01*
X135213923Y-136500270D01*
X135195438Y-136567650D01*
X135193045Y-136571374D01*
X135118828Y-136682446D01*
X135118821Y-136682459D01*
X135052377Y-136842871D01*
X135052374Y-136842881D01*
X135018500Y-137013177D01*
X135018500Y-137013180D01*
X135018500Y-137186820D01*
X135018500Y-137186822D01*
X135018499Y-137186822D01*
X135052374Y-137357118D01*
X135052377Y-137357128D01*
X135118821Y-137517540D01*
X135118828Y-137517553D01*
X135215293Y-137661922D01*
X135215296Y-137661926D01*
X135338073Y-137784703D01*
X135338077Y-137784706D01*
X135482446Y-137881171D01*
X135482459Y-137881178D01*
X135642871Y-137947622D01*
X135642876Y-137947624D01*
X135642880Y-137947624D01*
X135642881Y-137947625D01*
X135813177Y-137981500D01*
X135813180Y-137981500D01*
X135986822Y-137981500D01*
X136143932Y-137950248D01*
X136157124Y-137947624D01*
X136283683Y-137895202D01*
X136317540Y-137881178D01*
X136317540Y-137881177D01*
X136317547Y-137881175D01*
X136317554Y-137881169D01*
X136317558Y-137881168D01*
X136326195Y-137875398D01*
X136392872Y-137854520D01*
X136395085Y-137854500D01*
X137944915Y-137854500D01*
X138011954Y-137874185D01*
X138013805Y-137875398D01*
X138022441Y-137881168D01*
X138022450Y-137881173D01*
X138022453Y-137881175D01*
X138022455Y-137881175D01*
X138022459Y-137881178D01*
X138182871Y-137947622D01*
X138182876Y-137947624D01*
X138182880Y-137947624D01*
X138182881Y-137947625D01*
X138353177Y-137981500D01*
X138353180Y-137981500D01*
X138526822Y-137981500D01*
X138683932Y-137950248D01*
X138697124Y-137947624D01*
X138823683Y-137895202D01*
X138857540Y-137881178D01*
X138857540Y-137881177D01*
X138857547Y-137881175D01*
X139001923Y-137784706D01*
X139124706Y-137661923D01*
X139221175Y-137517547D01*
X139287624Y-137357124D01*
X139311400Y-137237595D01*
X139321500Y-137186822D01*
X139321500Y-137013177D01*
X139287625Y-136842881D01*
X139287624Y-136842880D01*
X139287624Y-136842876D01*
X139283729Y-136833473D01*
X139221178Y-136682459D01*
X139221171Y-136682446D01*
X139136954Y-136556407D01*
X139116076Y-136489730D01*
X139134560Y-136422349D01*
X139136911Y-136418690D01*
X139211175Y-136307547D01*
X139277624Y-136147124D01*
X139288709Y-136091394D01*
X139311500Y-135976822D01*
X139311500Y-135803177D01*
X139277625Y-135632881D01*
X139277624Y-135632880D01*
X139277624Y-135632876D01*
X139277622Y-135632871D01*
X139211178Y-135472459D01*
X139211171Y-135472446D01*
X139114706Y-135328077D01*
X139114703Y-135328073D01*
X138991926Y-135205296D01*
X138991922Y-135205293D01*
X138847553Y-135108828D01*
X138847540Y-135108821D01*
X138687128Y-135042377D01*
X138687118Y-135042374D01*
X138516822Y-135008500D01*
X138516820Y-135008500D01*
X138343180Y-135008500D01*
X138343178Y-135008500D01*
X138172881Y-135042374D01*
X138172871Y-135042377D01*
X138012459Y-135108821D01*
X138012441Y-135108831D01*
X138003805Y-135114602D01*
X137937128Y-135135480D01*
X137934915Y-135135500D01*
X136385085Y-135135500D01*
X136318046Y-135115815D01*
X136316195Y-135114602D01*
X136307558Y-135108831D01*
X136307540Y-135108821D01*
X136147128Y-135042377D01*
X136147118Y-135042374D01*
X135976822Y-135008500D01*
X135976820Y-135008500D01*
X135803180Y-135008500D01*
X135803178Y-135008500D01*
X135632881Y-135042374D01*
X135632871Y-135042377D01*
X135472459Y-135108821D01*
X135472446Y-135108828D01*
X135328077Y-135205293D01*
X135328073Y-135205296D01*
X135205296Y-135328073D01*
X135205293Y-135328077D01*
X135108828Y-135472446D01*
X135108821Y-135472459D01*
X135042377Y-135632871D01*
X135042374Y-135632881D01*
X135008500Y-135803177D01*
X135008500Y-135803180D01*
X135008500Y-135976820D01*
X135008500Y-135976822D01*
X135008499Y-135976822D01*
X129110598Y-135976822D01*
X129378013Y-135709407D01*
X129987406Y-135100013D01*
X129987409Y-135100010D01*
X129987411Y-135100008D01*
X130025919Y-135042376D01*
X130056083Y-134997233D01*
X130075676Y-134949930D01*
X130103386Y-134883034D01*
X130127500Y-134761803D01*
X130127500Y-134638196D01*
X130127500Y-130563341D01*
X130126581Y-130558721D01*
X130103386Y-130442109D01*
X130058412Y-130333536D01*
X130056764Y-130328930D01*
X129987414Y-130225140D01*
X129987413Y-130225138D01*
X129952099Y-130189824D01*
X129900008Y-130137733D01*
X127050888Y-127288613D01*
X127017403Y-127227290D01*
X127022387Y-127157598D01*
X127064259Y-127101665D01*
X127119169Y-127078459D01*
X127316243Y-127047246D01*
X127518412Y-126981557D01*
X127707816Y-126885051D01*
X127794138Y-126822335D01*
X127879786Y-126760109D01*
X127879788Y-126760106D01*
X127879792Y-126760104D01*
X128030104Y-126609792D01*
X128030106Y-126609788D01*
X128030109Y-126609786D01*
X128155048Y-126437820D01*
X128155050Y-126437817D01*
X128155051Y-126437816D01*
X128159514Y-126429054D01*
X128207488Y-126378259D01*
X128275308Y-126361463D01*
X128341444Y-126383999D01*
X128380484Y-126429054D01*
X128384591Y-126437115D01*
X128384951Y-126437820D01*
X128509890Y-126609786D01*
X128660213Y-126760109D01*
X128832179Y-126885048D01*
X128832181Y-126885049D01*
X128832184Y-126885051D01*
X129021588Y-126981557D01*
X129223757Y-127047246D01*
X129433713Y-127080500D01*
X129433714Y-127080500D01*
X129646286Y-127080500D01*
X129646287Y-127080500D01*
X129856243Y-127047246D01*
X130058412Y-126981557D01*
X130247816Y-126885051D01*
X130334138Y-126822335D01*
X130419786Y-126760109D01*
X130419788Y-126760106D01*
X130419792Y-126760104D01*
X130570104Y-126609792D01*
X130570106Y-126609788D01*
X130570109Y-126609786D01*
X130695048Y-126437820D01*
X130695050Y-126437817D01*
X130695051Y-126437816D01*
X130699514Y-126429054D01*
X130747488Y-126378259D01*
X130815308Y-126361463D01*
X130881444Y-126383999D01*
X130920484Y-126429054D01*
X130924591Y-126437115D01*
X130924951Y-126437820D01*
X131049890Y-126609786D01*
X131200213Y-126760109D01*
X131372179Y-126885048D01*
X131372181Y-126885049D01*
X131372184Y-126885051D01*
X131561588Y-126981557D01*
X131763757Y-127047246D01*
X131973713Y-127080500D01*
X131973714Y-127080500D01*
X132186286Y-127080500D01*
X132186287Y-127080500D01*
X132396243Y-127047246D01*
X132598412Y-126981557D01*
X132787816Y-126885051D01*
X132874138Y-126822335D01*
X132959786Y-126760109D01*
X132959788Y-126760106D01*
X132959792Y-126760104D01*
X133110104Y-126609792D01*
X133110106Y-126609788D01*
X133110109Y-126609786D01*
X133235048Y-126437821D01*
X133235051Y-126437816D01*
X133239513Y-126429056D01*
X133287484Y-126378260D01*
X133355304Y-126361462D01*
X133421440Y-126383996D01*
X133460484Y-126429052D01*
X133464950Y-126437817D01*
X133589891Y-126609786D01*
X133740214Y-126760109D01*
X133912180Y-126885048D01*
X133912182Y-126885049D01*
X133912185Y-126885051D01*
X134101589Y-126981557D01*
X134303758Y-127047246D01*
X134513714Y-127080500D01*
X134513715Y-127080500D01*
X134726287Y-127080500D01*
X134726288Y-127080500D01*
X134936244Y-127047246D01*
X135138413Y-126981557D01*
X135327817Y-126885051D01*
X135414139Y-126822335D01*
X135499787Y-126760109D01*
X135499789Y-126760106D01*
X135499793Y-126760104D01*
X135650105Y-126609792D01*
X135650107Y-126609788D01*
X135650110Y-126609786D01*
X135775049Y-126437820D01*
X135775051Y-126437817D01*
X135775052Y-126437816D01*
X135779513Y-126429058D01*
X135827484Y-126378262D01*
X135895304Y-126361464D01*
X135961441Y-126383998D01*
X136000484Y-126429054D01*
X136004949Y-126437817D01*
X136129890Y-126609786D01*
X136280213Y-126760109D01*
X136452179Y-126885048D01*
X136452181Y-126885049D01*
X136452184Y-126885051D01*
X136641588Y-126981557D01*
X136843757Y-127047246D01*
X137053713Y-127080500D01*
X137053714Y-127080500D01*
X137266286Y-127080500D01*
X137266287Y-127080500D01*
X137476243Y-127047246D01*
X137678412Y-126981557D01*
X137867816Y-126885051D01*
X138039792Y-126760104D01*
X138153329Y-126646566D01*
X138214648Y-126613084D01*
X138284340Y-126618068D01*
X138340274Y-126659939D01*
X138357189Y-126690917D01*
X138406202Y-126822328D01*
X138406206Y-126822335D01*
X138492452Y-126937544D01*
X138492455Y-126937547D01*
X138607664Y-127023793D01*
X138607671Y-127023797D01*
X138742517Y-127074091D01*
X138742516Y-127074091D01*
X138749444Y-127074835D01*
X138802127Y-127080500D01*
X140597872Y-127080499D01*
X140657483Y-127074091D01*
X140792331Y-127023796D01*
X140907546Y-126937546D01*
X140993796Y-126822331D01*
X141044091Y-126687483D01*
X141050500Y-126627873D01*
X141050499Y-124832128D01*
X141044091Y-124772517D01*
X141042810Y-124769083D01*
X140993797Y-124637671D01*
X140993793Y-124637664D01*
X140907547Y-124522455D01*
X140907544Y-124522452D01*
X140792335Y-124436206D01*
X140792328Y-124436202D01*
X140657482Y-124385908D01*
X140657483Y-124385908D01*
X140597883Y-124379501D01*
X140597881Y-124379500D01*
X140597873Y-124379500D01*
X140597864Y-124379500D01*
X138802129Y-124379500D01*
X138802123Y-124379501D01*
X138742516Y-124385908D01*
X138607671Y-124436202D01*
X138607664Y-124436206D01*
X138492455Y-124522452D01*
X138492452Y-124522455D01*
X138406206Y-124637664D01*
X138406203Y-124637669D01*
X138357189Y-124769083D01*
X138315317Y-124825016D01*
X138249853Y-124849433D01*
X138181580Y-124834581D01*
X138153326Y-124813430D01*
X138039786Y-124699890D01*
X137867820Y-124574951D01*
X137678414Y-124478444D01*
X137678413Y-124478443D01*
X137678412Y-124478443D01*
X137476243Y-124412754D01*
X137476241Y-124412753D01*
X137476240Y-124412753D01*
X137314957Y-124387208D01*
X137266287Y-124379500D01*
X137053713Y-124379500D01*
X137005042Y-124387208D01*
X136843760Y-124412753D01*
X136641585Y-124478444D01*
X136452179Y-124574951D01*
X136280213Y-124699890D01*
X136129890Y-124850213D01*
X136004948Y-125022183D01*
X136000482Y-125030949D01*
X135952506Y-125081742D01*
X135884684Y-125098535D01*
X135818550Y-125075995D01*
X135779514Y-125030942D01*
X135775052Y-125022184D01*
X135775050Y-125022181D01*
X135775049Y-125022179D01*
X135650110Y-124850213D01*
X135499787Y-124699890D01*
X135327821Y-124574951D01*
X135138415Y-124478444D01*
X135138414Y-124478443D01*
X135138413Y-124478443D01*
X134936244Y-124412754D01*
X134936242Y-124412753D01*
X134936241Y-124412753D01*
X134774958Y-124387208D01*
X134726288Y-124379500D01*
X134513714Y-124379500D01*
X134465043Y-124387208D01*
X134303761Y-124412753D01*
X134101586Y-124478444D01*
X133912180Y-124574951D01*
X133740214Y-124699890D01*
X133589891Y-124850213D01*
X133464949Y-125022184D01*
X133464947Y-125022187D01*
X133460482Y-125030950D01*
X133412506Y-125081744D01*
X133344684Y-125098537D01*
X133278550Y-125075997D01*
X133239514Y-125030944D01*
X133239513Y-125030942D01*
X133235051Y-125022184D01*
X133235049Y-125022181D01*
X133235048Y-125022179D01*
X133110109Y-124850213D01*
X132959786Y-124699890D01*
X132787820Y-124574951D01*
X132598414Y-124478444D01*
X132598413Y-124478443D01*
X132598412Y-124478443D01*
X132396243Y-124412754D01*
X132396241Y-124412753D01*
X132396240Y-124412753D01*
X132234957Y-124387208D01*
X132186287Y-124379500D01*
X131973713Y-124379500D01*
X131925042Y-124387208D01*
X131763760Y-124412753D01*
X131561585Y-124478444D01*
X131372179Y-124574951D01*
X131200213Y-124699890D01*
X131049890Y-124850213D01*
X130924949Y-125022182D01*
X130920484Y-125030946D01*
X130872509Y-125081742D01*
X130804688Y-125098536D01*
X130738553Y-125075998D01*
X130699516Y-125030946D01*
X130695050Y-125022182D01*
X130570109Y-124850213D01*
X130419786Y-124699890D01*
X130247820Y-124574951D01*
X130058414Y-124478444D01*
X130058413Y-124478443D01*
X130058412Y-124478443D01*
X129856243Y-124412754D01*
X129856241Y-124412753D01*
X129856240Y-124412753D01*
X129694957Y-124387208D01*
X129646287Y-124379500D01*
X129433713Y-124379500D01*
X129385042Y-124387208D01*
X129223760Y-124412753D01*
X129021585Y-124478444D01*
X128832179Y-124574951D01*
X128660213Y-124699890D01*
X128509890Y-124850213D01*
X128384949Y-125022182D01*
X128380484Y-125030946D01*
X128332509Y-125081742D01*
X128264688Y-125098536D01*
X128198553Y-125075998D01*
X128159516Y-125030946D01*
X128155050Y-125022182D01*
X128030109Y-124850213D01*
X127879786Y-124699890D01*
X127707820Y-124574951D01*
X127518414Y-124478444D01*
X127518413Y-124478443D01*
X127518412Y-124478443D01*
X127316243Y-124412754D01*
X127316241Y-124412753D01*
X127316240Y-124412753D01*
X127154957Y-124387208D01*
X127106287Y-124379500D01*
X126893713Y-124379500D01*
X126845042Y-124387208D01*
X126683760Y-124412753D01*
X126481585Y-124478444D01*
X126292179Y-124574951D01*
X126120213Y-124699890D01*
X125969890Y-124850213D01*
X125844949Y-125022182D01*
X125840484Y-125030946D01*
X125792509Y-125081742D01*
X125724688Y-125098536D01*
X125658553Y-125075998D01*
X125619516Y-125030946D01*
X125615050Y-125022182D01*
X125490109Y-124850213D01*
X125339786Y-124699890D01*
X125167820Y-124574951D01*
X124978414Y-124478444D01*
X124978413Y-124478443D01*
X124978412Y-124478443D01*
X124776243Y-124412754D01*
X124776241Y-124412753D01*
X124776240Y-124412753D01*
X124614957Y-124387208D01*
X124566287Y-124379500D01*
X124353713Y-124379500D01*
X124305042Y-124387208D01*
X124143760Y-124412753D01*
X123941585Y-124478444D01*
X123752179Y-124574951D01*
X123580213Y-124699890D01*
X123429890Y-124850213D01*
X123304948Y-125022184D01*
X123304946Y-125022187D01*
X123300481Y-125030950D01*
X123252505Y-125081744D01*
X123184683Y-125098537D01*
X123118549Y-125075997D01*
X123079513Y-125030944D01*
X123079512Y-125030942D01*
X123075050Y-125022184D01*
X123075048Y-125022181D01*
X123075047Y-125022179D01*
X122950108Y-124850213D01*
X122799785Y-124699890D01*
X122627819Y-124574951D01*
X122438413Y-124478444D01*
X122438412Y-124478443D01*
X122438411Y-124478443D01*
X122236242Y-124412754D01*
X122236240Y-124412753D01*
X122236239Y-124412753D01*
X122074956Y-124387208D01*
X122026286Y-124379500D01*
X121813712Y-124379500D01*
X121765041Y-124387208D01*
X121603759Y-124412753D01*
X121401584Y-124478444D01*
X121212178Y-124574951D01*
X121040212Y-124699890D01*
X120889889Y-124850213D01*
X120764950Y-125022179D01*
X120668443Y-125211585D01*
X120602752Y-125413760D01*
X120590660Y-125490109D01*
X120569499Y-125623713D01*
X120569499Y-125836287D01*
X120602753Y-126046243D01*
X120626788Y-126120214D01*
X120630034Y-126130204D01*
X120632029Y-126200045D01*
X120595949Y-126259878D01*
X120533248Y-126290706D01*
X120463834Y-126282741D01*
X120424422Y-126256203D01*
X119410805Y-125242586D01*
X119402650Y-125237138D01*
X119402647Y-125237136D01*
X119312407Y-125176838D01*
X119267603Y-125123226D01*
X119257299Y-125073737D01*
X119257299Y-124832129D01*
X119257298Y-124832123D01*
X119250891Y-124772516D01*
X119200597Y-124637671D01*
X119200593Y-124637664D01*
X119114347Y-124522455D01*
X119114344Y-124522452D01*
X118999135Y-124436206D01*
X118999128Y-124436202D01*
X118864282Y-124385908D01*
X118864283Y-124385908D01*
X118804683Y-124379501D01*
X118804681Y-124379500D01*
X118804673Y-124379500D01*
X118804664Y-124379500D01*
X117008929Y-124379500D01*
X117008923Y-124379501D01*
X116949316Y-124385908D01*
X116814471Y-124436202D01*
X116814464Y-124436206D01*
X116699255Y-124522452D01*
X116699252Y-124522455D01*
X116613006Y-124637664D01*
X116613003Y-124637669D01*
X116563989Y-124769083D01*
X116522117Y-124825016D01*
X116456653Y-124849433D01*
X116388380Y-124834581D01*
X116360126Y-124813430D01*
X116246586Y-124699890D01*
X116074620Y-124574951D01*
X115885214Y-124478444D01*
X115885213Y-124478443D01*
X115885212Y-124478443D01*
X115683043Y-124412754D01*
X115683041Y-124412753D01*
X115683040Y-124412753D01*
X115521757Y-124387208D01*
X115473087Y-124379500D01*
X115260513Y-124379500D01*
X115211842Y-124387208D01*
X115050560Y-124412753D01*
X114848385Y-124478444D01*
X114658979Y-124574951D01*
X114487013Y-124699890D01*
X114336690Y-124850213D01*
X114211748Y-125022183D01*
X114207282Y-125030949D01*
X114159306Y-125081742D01*
X114091484Y-125098535D01*
X114025350Y-125075995D01*
X113986314Y-125030942D01*
X113981852Y-125022184D01*
X113981850Y-125022181D01*
X113981849Y-125022179D01*
X113856910Y-124850213D01*
X113706587Y-124699890D01*
X113534621Y-124574951D01*
X113345215Y-124478444D01*
X113345214Y-124478443D01*
X113345213Y-124478443D01*
X113143044Y-124412754D01*
X113143042Y-124412753D01*
X113143041Y-124412753D01*
X112981758Y-124387208D01*
X112933088Y-124379500D01*
X112720514Y-124379500D01*
X112671843Y-124387208D01*
X112510561Y-124412753D01*
X112308386Y-124478444D01*
X112118980Y-124574951D01*
X111947014Y-124699890D01*
X111796691Y-124850213D01*
X111671749Y-125022184D01*
X111671747Y-125022187D01*
X111667282Y-125030950D01*
X111619306Y-125081744D01*
X111551484Y-125098537D01*
X111485350Y-125075997D01*
X111446314Y-125030944D01*
X111446313Y-125030942D01*
X111441851Y-125022184D01*
X111441849Y-125022181D01*
X111441848Y-125022179D01*
X111316909Y-124850213D01*
X111166586Y-124699890D01*
X110994620Y-124574951D01*
X110805214Y-124478444D01*
X110805213Y-124478443D01*
X110805212Y-124478443D01*
X110603043Y-124412754D01*
X110603041Y-124412753D01*
X110603040Y-124412753D01*
X110441757Y-124387208D01*
X110393087Y-124379500D01*
X110180513Y-124379500D01*
X110131842Y-124387208D01*
X109970560Y-124412753D01*
X109768385Y-124478444D01*
X109578979Y-124574951D01*
X109407013Y-124699890D01*
X109256690Y-124850213D01*
X109131749Y-125022182D01*
X109127284Y-125030946D01*
X109079309Y-125081742D01*
X109011488Y-125098536D01*
X108945353Y-125075998D01*
X108906316Y-125030946D01*
X108901850Y-125022182D01*
X108776909Y-124850213D01*
X108626586Y-124699890D01*
X108454620Y-124574951D01*
X108265214Y-124478444D01*
X108265213Y-124478443D01*
X108265212Y-124478443D01*
X108063043Y-124412754D01*
X108063041Y-124412753D01*
X108063040Y-124412753D01*
X107901757Y-124387208D01*
X107853087Y-124379500D01*
X107640513Y-124379500D01*
X107591842Y-124387208D01*
X107430560Y-124412753D01*
X107228385Y-124478444D01*
X107038979Y-124574951D01*
X106867013Y-124699890D01*
X106716690Y-124850213D01*
X106591749Y-125022182D01*
X106587284Y-125030946D01*
X106539309Y-125081742D01*
X106471488Y-125098536D01*
X106405353Y-125075998D01*
X106366316Y-125030946D01*
X106361850Y-125022182D01*
X106236909Y-124850213D01*
X106086586Y-124699890D01*
X105914620Y-124574951D01*
X105725214Y-124478444D01*
X105725213Y-124478443D01*
X105725212Y-124478443D01*
X105523043Y-124412754D01*
X105523041Y-124412753D01*
X105523040Y-124412753D01*
X105361757Y-124387208D01*
X105313087Y-124379500D01*
X105100513Y-124379500D01*
X105051842Y-124387208D01*
X104890560Y-124412753D01*
X104688385Y-124478444D01*
X104498979Y-124574951D01*
X104327013Y-124699890D01*
X104176690Y-124850213D01*
X104051749Y-125022182D01*
X104047284Y-125030946D01*
X103999309Y-125081742D01*
X103931488Y-125098536D01*
X103865353Y-125075998D01*
X103826316Y-125030946D01*
X103821850Y-125022182D01*
X103696909Y-124850213D01*
X103546586Y-124699890D01*
X103374620Y-124574951D01*
X103185214Y-124478444D01*
X103185213Y-124478443D01*
X103185212Y-124478443D01*
X102983043Y-124412754D01*
X102983041Y-124412753D01*
X102983040Y-124412753D01*
X102821757Y-124387208D01*
X102773087Y-124379500D01*
X102560513Y-124379500D01*
X102511842Y-124387208D01*
X102350560Y-124412753D01*
X102148385Y-124478444D01*
X101958979Y-124574951D01*
X101787013Y-124699890D01*
X101636690Y-124850213D01*
X101511748Y-125022184D01*
X101511746Y-125022187D01*
X101507281Y-125030950D01*
X101459305Y-125081744D01*
X101391483Y-125098537D01*
X101325349Y-125075997D01*
X101286313Y-125030944D01*
X101286312Y-125030942D01*
X101281850Y-125022184D01*
X101281848Y-125022181D01*
X101281847Y-125022179D01*
X101156908Y-124850213D01*
X101006585Y-124699890D01*
X100834619Y-124574951D01*
X100645213Y-124478444D01*
X100645212Y-124478443D01*
X100645211Y-124478443D01*
X100443042Y-124412754D01*
X100443040Y-124412753D01*
X100443039Y-124412753D01*
X100281756Y-124387208D01*
X100233086Y-124379500D01*
X100020512Y-124379500D01*
X99971841Y-124387208D01*
X99810559Y-124412753D01*
X99608384Y-124478444D01*
X99418978Y-124574951D01*
X99247012Y-124699890D01*
X99096689Y-124850213D01*
X98971750Y-125022179D01*
X98875243Y-125211585D01*
X98809552Y-125413760D01*
X98797460Y-125490109D01*
X98776299Y-125623713D01*
X98776299Y-125836287D01*
X98809553Y-126046243D01*
X98856799Y-126191652D01*
X98875243Y-126248414D01*
X98971750Y-126437820D01*
X99096689Y-126609786D01*
X99247012Y-126760109D01*
X99418978Y-126885048D01*
X99418980Y-126885049D01*
X99418983Y-126885051D01*
X99608387Y-126981557D01*
X99810556Y-127047246D01*
X100020512Y-127080500D01*
X100020513Y-127080500D01*
X100233085Y-127080500D01*
X100233086Y-127080500D01*
X100443042Y-127047246D01*
X100645211Y-126981557D01*
X100834615Y-126885051D01*
X100920937Y-126822335D01*
X101006585Y-126760109D01*
X101006587Y-126760106D01*
X101006591Y-126760104D01*
X101156903Y-126609792D01*
X101156905Y-126609788D01*
X101156908Y-126609786D01*
X101281847Y-126437821D01*
X101281850Y-126437816D01*
X101286312Y-126429056D01*
X101334283Y-126378260D01*
X101402103Y-126361462D01*
X101468239Y-126383996D01*
X101507283Y-126429052D01*
X101511749Y-126437817D01*
X101636690Y-126609786D01*
X101787013Y-126760109D01*
X101958979Y-126885048D01*
X101958981Y-126885049D01*
X101958984Y-126885051D01*
X102148388Y-126981557D01*
X102350557Y-127047246D01*
X102560513Y-127080500D01*
X102560514Y-127080500D01*
X102773086Y-127080500D01*
X102773087Y-127080500D01*
X102983043Y-127047246D01*
X103185212Y-126981557D01*
X103374616Y-126885051D01*
X103460938Y-126822335D01*
X103546586Y-126760109D01*
X103546588Y-126760106D01*
X103546592Y-126760104D01*
X103696904Y-126609792D01*
X103696906Y-126609788D01*
X103696909Y-126609786D01*
X103821848Y-126437820D01*
X103821850Y-126437817D01*
X103821851Y-126437816D01*
X103826314Y-126429054D01*
X103874288Y-126378259D01*
X103942108Y-126361463D01*
X104008244Y-126383999D01*
X104047284Y-126429054D01*
X104051391Y-126437115D01*
X104051751Y-126437820D01*
X104176690Y-126609786D01*
X104327013Y-126760109D01*
X104498979Y-126885048D01*
X104498981Y-126885049D01*
X104498984Y-126885051D01*
X104688388Y-126981557D01*
X104890557Y-127047246D01*
X105100513Y-127080500D01*
X105100514Y-127080500D01*
X105313086Y-127080500D01*
X105313087Y-127080500D01*
X105523043Y-127047246D01*
X105725212Y-126981557D01*
X105914616Y-126885051D01*
X106000938Y-126822335D01*
X106086586Y-126760109D01*
X106086588Y-126760106D01*
X106086592Y-126760104D01*
X106236904Y-126609792D01*
X106236906Y-126609788D01*
X106236909Y-126609786D01*
X106361848Y-126437820D01*
X106361850Y-126437817D01*
X106361851Y-126437816D01*
X106366314Y-126429054D01*
X106414288Y-126378259D01*
X106482108Y-126361463D01*
X106548244Y-126383999D01*
X106587284Y-126429054D01*
X106591391Y-126437115D01*
X106591751Y-126437820D01*
X106716690Y-126609786D01*
X106867013Y-126760109D01*
X107038979Y-126885048D01*
X107038981Y-126885049D01*
X107038984Y-126885051D01*
X107228388Y-126981557D01*
X107430557Y-127047246D01*
X107640513Y-127080500D01*
X107640514Y-127080500D01*
X107853086Y-127080500D01*
X107853087Y-127080500D01*
X108063043Y-127047246D01*
X108076498Y-127042873D01*
X108146335Y-127040873D01*
X108202502Y-127073121D01*
X109000389Y-127871008D01*
X109058558Y-127929177D01*
X109087794Y-127958413D01*
X109087796Y-127958414D01*
X109190556Y-128027076D01*
X109190558Y-128027077D01*
X109190567Y-128027083D01*
X109215572Y-128037440D01*
X109237871Y-128046677D01*
X109280054Y-128064149D01*
X109304766Y-128074386D01*
X109425992Y-128098499D01*
X109425996Y-128098500D01*
X109425997Y-128098500D01*
X109549603Y-128098500D01*
X110627500Y-128098500D01*
X110694539Y-128118185D01*
X110740294Y-128170989D01*
X110751500Y-128222500D01*
X110751500Y-128382220D01*
X110751500Y-128382222D01*
X110751499Y-128382222D01*
X110785374Y-128552518D01*
X110785377Y-128552528D01*
X110851821Y-128712940D01*
X110851828Y-128712953D01*
X110948293Y-128857322D01*
X110948296Y-128857326D01*
X111071071Y-128980101D01*
X111071077Y-128980106D01*
X111077387Y-128984322D01*
X111122194Y-129037932D01*
X111132500Y-129087426D01*
X111132500Y-129538038D01*
X111112815Y-129605077D01*
X111064798Y-129648521D01*
X111052182Y-129654949D01*
X110880213Y-129779890D01*
X110729890Y-129930213D01*
X110604948Y-130102184D01*
X110604946Y-130102187D01*
X110600481Y-130110950D01*
X110552505Y-130161744D01*
X110484683Y-130178537D01*
X110418549Y-130155997D01*
X110379513Y-130110944D01*
X110375050Y-130102184D01*
X110375048Y-130102181D01*
X110375047Y-130102179D01*
X110250108Y-129930213D01*
X110099785Y-129779890D01*
X109927819Y-129654951D01*
X109738413Y-129558444D01*
X109738412Y-129558443D01*
X109738411Y-129558443D01*
X109536242Y-129492754D01*
X109536240Y-129492753D01*
X109536239Y-129492753D01*
X109372862Y-129466877D01*
X109326286Y-129459500D01*
X109113712Y-129459500D01*
X109067136Y-129466877D01*
X108903759Y-129492753D01*
X108701584Y-129558444D01*
X108512180Y-129654950D01*
X108390797Y-129743139D01*
X108324991Y-129766618D01*
X108256937Y-129750792D01*
X108230232Y-129730501D01*
X106028323Y-127528591D01*
X106028319Y-127528588D01*
X105925551Y-127459920D01*
X105925538Y-127459913D01*
X105892097Y-127446062D01*
X105811347Y-127412614D01*
X105811339Y-127412612D01*
X105690119Y-127388500D01*
X105690115Y-127388500D01*
X98816092Y-127388500D01*
X98749053Y-127368815D01*
X98728411Y-127352181D01*
X98707526Y-127331296D01*
X98707522Y-127331293D01*
X98563153Y-127234828D01*
X98563140Y-127234821D01*
X98402728Y-127168377D01*
X98402718Y-127168374D01*
X98232422Y-127134500D01*
X98232420Y-127134500D01*
X98058780Y-127134500D01*
X98058778Y-127134500D01*
X97888481Y-127168374D01*
X97888471Y-127168377D01*
X97728059Y-127234821D01*
X97728046Y-127234828D01*
X97583677Y-127331293D01*
X97583673Y-127331296D01*
X97460896Y-127454073D01*
X97460893Y-127454077D01*
X97364428Y-127598446D01*
X97364421Y-127598459D01*
X97297977Y-127758871D01*
X97297974Y-127758881D01*
X97264100Y-127929177D01*
X97264100Y-128102818D01*
X97265875Y-128111743D01*
X97264092Y-128131654D01*
X97267290Y-128151386D01*
X97261041Y-128165740D01*
X97259646Y-128181335D01*
X97247383Y-128197120D01*
X97239405Y-128215450D01*
X97218687Y-128234059D01*
X97216782Y-128236512D01*
X97213148Y-128239035D01*
X97171348Y-128266965D01*
X97171347Y-128266966D01*
X97135989Y-128290590D01*
X97135988Y-128290591D01*
X96373197Y-129053384D01*
X96119992Y-129306589D01*
X96095695Y-129330886D01*
X96032586Y-129393994D01*
X96032585Y-129393996D01*
X95963740Y-129497029D01*
X95963498Y-129497778D01*
X95916614Y-129610965D01*
X95901258Y-129688166D01*
X95899859Y-129695195D01*
X95899858Y-129695201D01*
X95892500Y-129732195D01*
X95892500Y-129885508D01*
X95872815Y-129952547D01*
X95856181Y-129973189D01*
X95835296Y-129994073D01*
X95835293Y-129994077D01*
X95738828Y-130138446D01*
X95738821Y-130138459D01*
X95672377Y-130298871D01*
X95672374Y-130298881D01*
X95638500Y-130469177D01*
X95638500Y-130469180D01*
X95638500Y-130642820D01*
X95638500Y-130642822D01*
X95638499Y-130642822D01*
X95672374Y-130813118D01*
X95672377Y-130813128D01*
X95738821Y-130973540D01*
X95738828Y-130973553D01*
X95835293Y-131117922D01*
X95835296Y-131117926D01*
X95958073Y-131240703D01*
X95958077Y-131240706D01*
X96102446Y-131337171D01*
X96102459Y-131337178D01*
X96160534Y-131361233D01*
X96262876Y-131403624D01*
X96262880Y-131403624D01*
X96262881Y-131403625D01*
X96433177Y-131437500D01*
X96433180Y-131437500D01*
X96606822Y-131437500D01*
X96721394Y-131414709D01*
X96777124Y-131403624D01*
X96912403Y-131347590D01*
X96937540Y-131337178D01*
X96937540Y-131337177D01*
X96937547Y-131337175D01*
X97081923Y-131240706D01*
X97204706Y-131117923D01*
X97222397Y-131091445D01*
X97276009Y-131046641D01*
X97345334Y-131037933D01*
X97408362Y-131068087D01*
X97445081Y-131127529D01*
X97449500Y-131160336D01*
X97449500Y-131566668D01*
X97449501Y-131566686D01*
X97459825Y-131667751D01*
X97514092Y-131831514D01*
X97514093Y-131831517D01*
X97519390Y-131840104D01*
X97600938Y-131972315D01*
X97604661Y-131978350D01*
X97618983Y-131992672D01*
X97652468Y-132053995D01*
X97647484Y-132123687D01*
X97618986Y-132168032D01*
X97605052Y-132181966D01*
X97514551Y-132328689D01*
X97514546Y-132328700D01*
X97460319Y-132492348D01*
X97450000Y-132593346D01*
X97450000Y-132692501D01*
X99399999Y-132692501D01*
X99399999Y-132593361D01*
X99399998Y-132593346D01*
X99389680Y-132492348D01*
X99335453Y-132328700D01*
X99335448Y-132328689D01*
X99244947Y-132181966D01*
X99240467Y-132176300D01*
X99241979Y-132175104D01*
X99213177Y-132122357D01*
X99218161Y-132052665D01*
X99260033Y-131996732D01*
X99325497Y-131972315D01*
X99334343Y-131971999D01*
X102836288Y-131971999D01*
X102903327Y-131991684D01*
X102925304Y-132012147D01*
X102926180Y-132011272D01*
X102932451Y-132017542D01*
X102932454Y-132017546D01*
X102932457Y-132017548D01*
X103047664Y-132103793D01*
X103047671Y-132103797D01*
X103092618Y-132120561D01*
X103182517Y-132154091D01*
X103242127Y-132160500D01*
X103252685Y-132160499D01*
X103319723Y-132180179D01*
X103340372Y-132196818D01*
X104010591Y-132867037D01*
X103947007Y-132884075D01*
X103832993Y-132949901D01*
X103739901Y-133042993D01*
X103674075Y-133157007D01*
X103657037Y-133220591D01*
X103024728Y-132588282D01*
X103024727Y-132588282D01*
X102985380Y-132642439D01*
X102888904Y-132831782D01*
X102823242Y-133033869D01*
X102823242Y-133033872D01*
X102790000Y-133243753D01*
X102790000Y-133456246D01*
X102823242Y-133666127D01*
X102823242Y-133666130D01*
X102888904Y-133868217D01*
X102985375Y-134057550D01*
X103024728Y-134111716D01*
X103657037Y-133479408D01*
X103674075Y-133542993D01*
X103739901Y-133657007D01*
X103832993Y-133750099D01*
X103947007Y-133815925D01*
X104010590Y-133832962D01*
X103378282Y-134465269D01*
X103378282Y-134465270D01*
X103432449Y-134504624D01*
X103621782Y-134601095D01*
X103823870Y-134666757D01*
X104033754Y-134700000D01*
X104246246Y-134700000D01*
X104456127Y-134666757D01*
X104456130Y-134666757D01*
X104658217Y-134601095D01*
X104847554Y-134504622D01*
X104901716Y-134465270D01*
X104901717Y-134465270D01*
X104269408Y-133832962D01*
X104332993Y-133815925D01*
X104447007Y-133750099D01*
X104540099Y-133657007D01*
X104605925Y-133542993D01*
X104622962Y-133479409D01*
X105255270Y-134111717D01*
X105255270Y-134111716D01*
X105294622Y-134057555D01*
X105299232Y-134048507D01*
X105347205Y-133997709D01*
X105415025Y-133980912D01*
X105481161Y-134003447D01*
X105520204Y-134048504D01*
X105524949Y-134057817D01*
X105649890Y-134229786D01*
X105800213Y-134380109D01*
X105972179Y-134505048D01*
X105972181Y-134505049D01*
X105972184Y-134505051D01*
X106161588Y-134601557D01*
X106363757Y-134667246D01*
X106573713Y-134700500D01*
X106573714Y-134700500D01*
X106786286Y-134700500D01*
X106786287Y-134700500D01*
X106996243Y-134667246D01*
X107198412Y-134601557D01*
X107387816Y-134505051D01*
X107442572Y-134465269D01*
X107559786Y-134380109D01*
X107559788Y-134380106D01*
X107559792Y-134380104D01*
X107710104Y-134229792D01*
X107710106Y-134229788D01*
X107710109Y-134229786D01*
X107835048Y-134057820D01*
X107835050Y-134057817D01*
X107835051Y-134057816D01*
X107839514Y-134049054D01*
X107887488Y-133998259D01*
X107955308Y-133981463D01*
X108021444Y-134003999D01*
X108060486Y-134049056D01*
X108064951Y-134057820D01*
X108189890Y-134229786D01*
X108340213Y-134380109D01*
X108512179Y-134505048D01*
X108512181Y-134505049D01*
X108512184Y-134505051D01*
X108701588Y-134601557D01*
X108903757Y-134667246D01*
X109113713Y-134700500D01*
X109113714Y-134700500D01*
X109326286Y-134700500D01*
X109326287Y-134700500D01*
X109536243Y-134667246D01*
X109738412Y-134601557D01*
X109927816Y-134505051D01*
X109982572Y-134465269D01*
X110099786Y-134380109D01*
X110099788Y-134380106D01*
X110099792Y-134380104D01*
X110250104Y-134229792D01*
X110250106Y-134229788D01*
X110250109Y-134229786D01*
X110375048Y-134057820D01*
X110375050Y-134057817D01*
X110375051Y-134057816D01*
X110379514Y-134049054D01*
X110427488Y-133998259D01*
X110495308Y-133981463D01*
X110561444Y-134003999D01*
X110600486Y-134049056D01*
X110604951Y-134057820D01*
X110729890Y-134229786D01*
X110880213Y-134380109D01*
X111052179Y-134505048D01*
X111052181Y-134505049D01*
X111052184Y-134505051D01*
X111241588Y-134601557D01*
X111443757Y-134667246D01*
X111653713Y-134700500D01*
X111653714Y-134700500D01*
X111866286Y-134700500D01*
X111866287Y-134700500D01*
X112076243Y-134667246D01*
X112278412Y-134601557D01*
X112467816Y-134505051D01*
X112522572Y-134465269D01*
X112639786Y-134380109D01*
X112639788Y-134380106D01*
X112639792Y-134380104D01*
X112790104Y-134229792D01*
X112790106Y-134229788D01*
X112790109Y-134229786D01*
X112915048Y-134057820D01*
X112915050Y-134057817D01*
X112915051Y-134057816D01*
X112919514Y-134049054D01*
X112967488Y-133998259D01*
X113035308Y-133981463D01*
X113101444Y-134003999D01*
X113140486Y-134049056D01*
X113144951Y-134057820D01*
X113269890Y-134229786D01*
X113420213Y-134380109D01*
X113592179Y-134505048D01*
X113592181Y-134505049D01*
X113592184Y-134505051D01*
X113781588Y-134601557D01*
X113983757Y-134667246D01*
X114193713Y-134700500D01*
X114193714Y-134700500D01*
X114406286Y-134700500D01*
X114406287Y-134700500D01*
X114616243Y-134667246D01*
X114818412Y-134601557D01*
X115007816Y-134505051D01*
X115062572Y-134465269D01*
X115179786Y-134380109D01*
X115179788Y-134380106D01*
X115179792Y-134380104D01*
X115330104Y-134229792D01*
X115330106Y-134229788D01*
X115330109Y-134229786D01*
X115455048Y-134057820D01*
X115455050Y-134057817D01*
X115455051Y-134057816D01*
X115459514Y-134049054D01*
X115507488Y-133998259D01*
X115575308Y-133981463D01*
X115641444Y-134003999D01*
X115680486Y-134049056D01*
X115684951Y-134057820D01*
X115809890Y-134229786D01*
X115960213Y-134380109D01*
X116132179Y-134505048D01*
X116132181Y-134505049D01*
X116132184Y-134505051D01*
X116321588Y-134601557D01*
X116523757Y-134667246D01*
X116733713Y-134700500D01*
X116733714Y-134700500D01*
X116946286Y-134700500D01*
X116946287Y-134700500D01*
X117156243Y-134667246D01*
X117358412Y-134601557D01*
X117547816Y-134505051D01*
X117602572Y-134465269D01*
X117719786Y-134380109D01*
X117719788Y-134380106D01*
X117719792Y-134380104D01*
X117870104Y-134229792D01*
X117870106Y-134229788D01*
X117870109Y-134229786D01*
X117995048Y-134057820D01*
X117995050Y-134057817D01*
X117995051Y-134057816D01*
X117999514Y-134049054D01*
X118047488Y-133998259D01*
X118115308Y-133981463D01*
X118181444Y-134003999D01*
X118220486Y-134049056D01*
X118224951Y-134057820D01*
X118349890Y-134229786D01*
X118500213Y-134380109D01*
X118672179Y-134505048D01*
X118672181Y-134505049D01*
X118672184Y-134505051D01*
X118861588Y-134601557D01*
X119063757Y-134667246D01*
X119273713Y-134700500D01*
X119273714Y-134700500D01*
X119486286Y-134700500D01*
X119486287Y-134700500D01*
X119696243Y-134667246D01*
X119898412Y-134601557D01*
X120087816Y-134505051D01*
X120142572Y-134465269D01*
X120259786Y-134380109D01*
X120259788Y-134380106D01*
X120259792Y-134380104D01*
X120410104Y-134229792D01*
X120410106Y-134229788D01*
X120410109Y-134229786D01*
X120535048Y-134057820D01*
X120535050Y-134057817D01*
X120535051Y-134057816D01*
X120539514Y-134049054D01*
X120587488Y-133998259D01*
X120655308Y-133981463D01*
X120721444Y-134003999D01*
X120760486Y-134049056D01*
X120764951Y-134057820D01*
X120889890Y-134229786D01*
X121040213Y-134380109D01*
X121212179Y-134505048D01*
X121212181Y-134505049D01*
X121212184Y-134505051D01*
X121401588Y-134601557D01*
X121603757Y-134667246D01*
X121813713Y-134700500D01*
X121813714Y-134700500D01*
X122026286Y-134700500D01*
X122026287Y-134700500D01*
X122236243Y-134667246D01*
X122438412Y-134601557D01*
X122627816Y-134505051D01*
X122682572Y-134465269D01*
X122799786Y-134380109D01*
X122799788Y-134380106D01*
X122799792Y-134380104D01*
X122950104Y-134229792D01*
X122950106Y-134229788D01*
X122950109Y-134229786D01*
X123075048Y-134057820D01*
X123075050Y-134057817D01*
X123075051Y-134057816D01*
X123079514Y-134049054D01*
X123127488Y-133998259D01*
X123195308Y-133981463D01*
X123261444Y-134003999D01*
X123300486Y-134049056D01*
X123304951Y-134057820D01*
X123429890Y-134229786D01*
X123580213Y-134380109D01*
X123752179Y-134505048D01*
X123752181Y-134505049D01*
X123752184Y-134505051D01*
X123941588Y-134601557D01*
X124143757Y-134667246D01*
X124353713Y-134700500D01*
X124353714Y-134700500D01*
X124566286Y-134700500D01*
X124566287Y-134700500D01*
X124776243Y-134667246D01*
X124978412Y-134601557D01*
X125167816Y-134505051D01*
X125222572Y-134465269D01*
X125339786Y-134380109D01*
X125339788Y-134380106D01*
X125339792Y-134380104D01*
X125490104Y-134229792D01*
X125490106Y-134229788D01*
X125490109Y-134229786D01*
X125615048Y-134057820D01*
X125615050Y-134057817D01*
X125615051Y-134057816D01*
X125619514Y-134049054D01*
X125667488Y-133998259D01*
X125735308Y-133981463D01*
X125801444Y-134003999D01*
X125840486Y-134049056D01*
X125844951Y-134057820D01*
X125969890Y-134229786D01*
X126120213Y-134380109D01*
X126292179Y-134505048D01*
X126292181Y-134505049D01*
X126292184Y-134505051D01*
X126481588Y-134601557D01*
X126683757Y-134667246D01*
X126893713Y-134700500D01*
X126893714Y-134700500D01*
X127106285Y-134700500D01*
X127106287Y-134700500D01*
X127270926Y-134674423D01*
X127340217Y-134683377D01*
X127393669Y-134728373D01*
X127414309Y-134795125D01*
X127395584Y-134862439D01*
X127378003Y-134884577D01*
X127026400Y-135236181D01*
X126965077Y-135269666D01*
X126938719Y-135272500D01*
X115498192Y-135272500D01*
X115376973Y-135296611D01*
X115376973Y-135296612D01*
X115376970Y-135296613D01*
X115376966Y-135296614D01*
X115310070Y-135324323D01*
X115310068Y-135324323D01*
X115262770Y-135343915D01*
X115262760Y-135343920D01*
X115165311Y-135409033D01*
X115165312Y-135409034D01*
X115159991Y-135412589D01*
X115159987Y-135412592D01*
X112215702Y-138356877D01*
X112154379Y-138390362D01*
X112089707Y-138387128D01*
X112076245Y-138382754D01*
X112076240Y-138382753D01*
X111912863Y-138356877D01*
X111866287Y-138349500D01*
X111653713Y-138349500D01*
X111607137Y-138356877D01*
X111443760Y-138382753D01*
X111241585Y-138448444D01*
X111052179Y-138544951D01*
X110880213Y-138669890D01*
X110729890Y-138820213D01*
X110604949Y-138992182D01*
X110600484Y-139000946D01*
X110552509Y-139051742D01*
X110484688Y-139068536D01*
X110418553Y-139045998D01*
X110379516Y-139000946D01*
X110375050Y-138992182D01*
X110250109Y-138820213D01*
X110099786Y-138669890D01*
X109927820Y-138544951D01*
X109738414Y-138448444D01*
X109738413Y-138448443D01*
X109738412Y-138448443D01*
X109536243Y-138382754D01*
X109536241Y-138382753D01*
X109536240Y-138382753D01*
X109372863Y-138356877D01*
X109326287Y-138349500D01*
X109113713Y-138349500D01*
X109067137Y-138356877D01*
X108903755Y-138382754D01*
X108890293Y-138387128D01*
X108820451Y-138389122D01*
X108764296Y-138356877D01*
X108388011Y-137980591D01*
X108388006Y-137980587D01*
X108366710Y-137966358D01*
X108338672Y-137947624D01*
X108285233Y-137911917D01*
X108251784Y-137898062D01*
X108244885Y-137895204D01*
X108244881Y-137895202D01*
X108171035Y-137864614D01*
X108171027Y-137864612D01*
X108049807Y-137840500D01*
X108049803Y-137840500D01*
X101441281Y-137840500D01*
X101374242Y-137820815D01*
X101353600Y-137804181D01*
X96841074Y-133291655D01*
X97450001Y-133291655D01*
X97460319Y-133392653D01*
X97514546Y-133556301D01*
X97514551Y-133556312D01*
X97605052Y-133703035D01*
X97605055Y-133703039D01*
X97726961Y-133824945D01*
X97726965Y-133824948D01*
X97873688Y-133915449D01*
X97873699Y-133915454D01*
X98037347Y-133969681D01*
X98138352Y-133980000D01*
X98175000Y-133980000D01*
X98675000Y-133980000D01*
X98711640Y-133980000D01*
X98711654Y-133979999D01*
X98812652Y-133969681D01*
X98976300Y-133915454D01*
X98976311Y-133915449D01*
X99123034Y-133824948D01*
X99123038Y-133824945D01*
X99244944Y-133703039D01*
X99244947Y-133703035D01*
X99335448Y-133556312D01*
X99335453Y-133556301D01*
X99389680Y-133392653D01*
X99399999Y-133291655D01*
X99400000Y-133291642D01*
X99400000Y-133192501D01*
X98675000Y-133192501D01*
X98675000Y-133980000D01*
X98175000Y-133980000D01*
X98175000Y-133192501D01*
X97450001Y-133192501D01*
X97450001Y-133291655D01*
X96841074Y-133291655D01*
X94643819Y-131094400D01*
X94610334Y-131033077D01*
X94607500Y-131006719D01*
X94607500Y-119466822D01*
X109100499Y-119466822D01*
X109134374Y-119637118D01*
X109134377Y-119637128D01*
X109200821Y-119797540D01*
X109200828Y-119797553D01*
X109297293Y-119941922D01*
X109297296Y-119941926D01*
X109420073Y-120064703D01*
X109420077Y-120064706D01*
X109564446Y-120161171D01*
X109564459Y-120161178D01*
X109647770Y-120195686D01*
X109724876Y-120227624D01*
X109724880Y-120227624D01*
X109724881Y-120227625D01*
X109895177Y-120261500D01*
X109895180Y-120261500D01*
X110068822Y-120261500D01*
X110185186Y-120238353D01*
X110239124Y-120227624D01*
X110399547Y-120161175D01*
X110399554Y-120161169D01*
X110399558Y-120161168D01*
X110408195Y-120155398D01*
X110474872Y-120134520D01*
X110477085Y-120134500D01*
X112788915Y-120134500D01*
X112855954Y-120154185D01*
X112857805Y-120155398D01*
X112866441Y-120161168D01*
X112866450Y-120161173D01*
X112866453Y-120161175D01*
X112866455Y-120161175D01*
X112866459Y-120161178D01*
X112949770Y-120195686D01*
X113026876Y-120227624D01*
X113026880Y-120227624D01*
X113026881Y-120227625D01*
X113197177Y-120261500D01*
X113197180Y-120261500D01*
X113370822Y-120261500D01*
X113487186Y-120238353D01*
X113541124Y-120227624D01*
X113701547Y-120161175D01*
X113845923Y-120064706D01*
X113968706Y-119941923D01*
X114065175Y-119797547D01*
X114131624Y-119637124D01*
X114165500Y-119466820D01*
X114165500Y-119293180D01*
X114165500Y-119293177D01*
X114131625Y-119122881D01*
X114131624Y-119122880D01*
X114131624Y-119122876D01*
X114131622Y-119122871D01*
X114065178Y-118962459D01*
X114065171Y-118962446D01*
X113968706Y-118818077D01*
X113968703Y-118818073D01*
X113845926Y-118695296D01*
X113845922Y-118695293D01*
X113701553Y-118598828D01*
X113701540Y-118598821D01*
X113541128Y-118532377D01*
X113541118Y-118532374D01*
X113370822Y-118498500D01*
X113370820Y-118498500D01*
X113197180Y-118498500D01*
X113197178Y-118498500D01*
X113026881Y-118532374D01*
X113026871Y-118532377D01*
X112866459Y-118598821D01*
X112866441Y-118598831D01*
X112857805Y-118604602D01*
X112791128Y-118625480D01*
X112788915Y-118625500D01*
X110477085Y-118625500D01*
X110410046Y-118605815D01*
X110408195Y-118604602D01*
X110399558Y-118598831D01*
X110399540Y-118598821D01*
X110239128Y-118532377D01*
X110239118Y-118532374D01*
X110068822Y-118498500D01*
X110068820Y-118498500D01*
X109895180Y-118498500D01*
X109895178Y-118498500D01*
X109724881Y-118532374D01*
X109724871Y-118532377D01*
X109564459Y-118598821D01*
X109564446Y-118598828D01*
X109420077Y-118695293D01*
X109420073Y-118695296D01*
X109297296Y-118818073D01*
X109297293Y-118818077D01*
X109200828Y-118962446D01*
X109200821Y-118962459D01*
X109134377Y-119122871D01*
X109134374Y-119122881D01*
X109100500Y-119293177D01*
X109100500Y-119293180D01*
X109100500Y-119466820D01*
X109100500Y-119466822D01*
X109100499Y-119466822D01*
X94607500Y-119466822D01*
X94607500Y-103210822D01*
X95384499Y-103210822D01*
X95418374Y-103381118D01*
X95418377Y-103381128D01*
X95484821Y-103541540D01*
X95484828Y-103541553D01*
X95581293Y-103685922D01*
X95581296Y-103685926D01*
X95704073Y-103808703D01*
X95704077Y-103808706D01*
X95848446Y-103905171D01*
X95848459Y-103905178D01*
X96008871Y-103971622D01*
X96008876Y-103971624D01*
X96008880Y-103971624D01*
X96008881Y-103971625D01*
X96179177Y-104005500D01*
X96179180Y-104005500D01*
X96352822Y-104005500D01*
X96467394Y-103982709D01*
X96523124Y-103971624D01*
X96683547Y-103905175D01*
X96683554Y-103905169D01*
X96683558Y-103905168D01*
X96692195Y-103899398D01*
X96758872Y-103878520D01*
X96761085Y-103878500D01*
X99072915Y-103878500D01*
X99139954Y-103898185D01*
X99141805Y-103899398D01*
X99150441Y-103905168D01*
X99150450Y-103905173D01*
X99150453Y-103905175D01*
X99150455Y-103905175D01*
X99150459Y-103905178D01*
X99310871Y-103971622D01*
X99310876Y-103971624D01*
X99310880Y-103971624D01*
X99310881Y-103971625D01*
X99481177Y-104005500D01*
X99481180Y-104005500D01*
X99654822Y-104005500D01*
X99769394Y-103982709D01*
X99825124Y-103971624D01*
X99985547Y-103905175D01*
X100129923Y-103808706D01*
X100252706Y-103685923D01*
X100349175Y-103541547D01*
X100415624Y-103381124D01*
X100449500Y-103210820D01*
X100449500Y-103037180D01*
X100449500Y-103037177D01*
X100415625Y-102866881D01*
X100415624Y-102866880D01*
X100415624Y-102866876D01*
X100415622Y-102866871D01*
X100349178Y-102706459D01*
X100349171Y-102706446D01*
X100252706Y-102562077D01*
X100252703Y-102562073D01*
X100129926Y-102439296D01*
X100129922Y-102439293D01*
X99985553Y-102342828D01*
X99985540Y-102342821D01*
X99825128Y-102276377D01*
X99825118Y-102276374D01*
X99654822Y-102242500D01*
X99654820Y-102242500D01*
X99481180Y-102242500D01*
X99481178Y-102242500D01*
X99310881Y-102276374D01*
X99310871Y-102276377D01*
X99150459Y-102342821D01*
X99150441Y-102342831D01*
X99141805Y-102348602D01*
X99075128Y-102369480D01*
X99072915Y-102369500D01*
X96761085Y-102369500D01*
X96694046Y-102349815D01*
X96692195Y-102348602D01*
X96683558Y-102342831D01*
X96683540Y-102342821D01*
X96523128Y-102276377D01*
X96523118Y-102276374D01*
X96352822Y-102242500D01*
X96352820Y-102242500D01*
X96179180Y-102242500D01*
X96179178Y-102242500D01*
X96008881Y-102276374D01*
X96008871Y-102276377D01*
X95848459Y-102342821D01*
X95848446Y-102342828D01*
X95704077Y-102439293D01*
X95704073Y-102439296D01*
X95581296Y-102562073D01*
X95581293Y-102562077D01*
X95484828Y-102706446D01*
X95484821Y-102706459D01*
X95418377Y-102866871D01*
X95418374Y-102866881D01*
X95384500Y-103037177D01*
X95384500Y-103037180D01*
X95384500Y-103210820D01*
X95384500Y-103210822D01*
X95384499Y-103210822D01*
X94607500Y-103210822D01*
X94607500Y-86776491D01*
X94627185Y-86709452D01*
X94643815Y-86688813D01*
X94664706Y-86667923D01*
X94761175Y-86523547D01*
X94827624Y-86363124D01*
X94861500Y-86192820D01*
X94861500Y-86019180D01*
X94861500Y-86019177D01*
X94827625Y-85848881D01*
X94827624Y-85848880D01*
X94827624Y-85848876D01*
X94827622Y-85848871D01*
X94761178Y-85688459D01*
X94761171Y-85688446D01*
X94664706Y-85544077D01*
X94664703Y-85544073D01*
X94541926Y-85421296D01*
X94541922Y-85421293D01*
X94397553Y-85324828D01*
X94397538Y-85324820D01*
X94358030Y-85308455D01*
X94303627Y-85264614D01*
X94281563Y-85198319D01*
X94298843Y-85130620D01*
X94317799Y-85106218D01*
X95263196Y-84160822D01*
X109100499Y-84160822D01*
X109134374Y-84331118D01*
X109134377Y-84331128D01*
X109200821Y-84491540D01*
X109200828Y-84491553D01*
X109297293Y-84635922D01*
X109297296Y-84635926D01*
X109420073Y-84758703D01*
X109420077Y-84758706D01*
X109564446Y-84855171D01*
X109564459Y-84855178D01*
X109724871Y-84921622D01*
X109724876Y-84921624D01*
X109724880Y-84921624D01*
X109724881Y-84921625D01*
X109895177Y-84955500D01*
X109895180Y-84955500D01*
X110068822Y-84955500D01*
X110183394Y-84932709D01*
X110239124Y-84921624D01*
X110399547Y-84855175D01*
X110399554Y-84855169D01*
X110399558Y-84855168D01*
X110408195Y-84849398D01*
X110474872Y-84828520D01*
X110477085Y-84828500D01*
X112788915Y-84828500D01*
X112855954Y-84848185D01*
X112857805Y-84849398D01*
X112866441Y-84855168D01*
X112866450Y-84855173D01*
X112866453Y-84855175D01*
X112866455Y-84855175D01*
X112866459Y-84855178D01*
X113026871Y-84921622D01*
X113026876Y-84921624D01*
X113026880Y-84921624D01*
X113026881Y-84921625D01*
X113197177Y-84955500D01*
X113197180Y-84955500D01*
X113370822Y-84955500D01*
X113485394Y-84932709D01*
X113541124Y-84921624D01*
X113701547Y-84855175D01*
X113845923Y-84758706D01*
X113968706Y-84635923D01*
X114065175Y-84491547D01*
X114131624Y-84331124D01*
X114165500Y-84160820D01*
X114165500Y-83987180D01*
X114165500Y-83987177D01*
X114131625Y-83816881D01*
X114131624Y-83816880D01*
X114131624Y-83816876D01*
X114131622Y-83816871D01*
X114065178Y-83656459D01*
X114065171Y-83656446D01*
X113968706Y-83512077D01*
X113968703Y-83512073D01*
X113845926Y-83389296D01*
X113845922Y-83389293D01*
X113701553Y-83292828D01*
X113701540Y-83292821D01*
X113541128Y-83226377D01*
X113541118Y-83226374D01*
X113370822Y-83192500D01*
X113370820Y-83192500D01*
X113197180Y-83192500D01*
X113197178Y-83192500D01*
X113026881Y-83226374D01*
X113026871Y-83226377D01*
X112866459Y-83292821D01*
X112866441Y-83292831D01*
X112857805Y-83298602D01*
X112791128Y-83319480D01*
X112788915Y-83319500D01*
X110477085Y-83319500D01*
X110410046Y-83299815D01*
X110408195Y-83298602D01*
X110399558Y-83292831D01*
X110399540Y-83292821D01*
X110239128Y-83226377D01*
X110239118Y-83226374D01*
X110068822Y-83192500D01*
X110068820Y-83192500D01*
X109895180Y-83192500D01*
X109895178Y-83192500D01*
X109724881Y-83226374D01*
X109724871Y-83226377D01*
X109564459Y-83292821D01*
X109564446Y-83292828D01*
X109420077Y-83389293D01*
X109420073Y-83389296D01*
X109297296Y-83512073D01*
X109297293Y-83512077D01*
X109200828Y-83656446D01*
X109200821Y-83656459D01*
X109134377Y-83816871D01*
X109134374Y-83816881D01*
X109100500Y-83987177D01*
X109100500Y-83987180D01*
X109100500Y-84160820D01*
X109100500Y-84160822D01*
X109100499Y-84160822D01*
X95263196Y-84160822D01*
X97581800Y-81842219D01*
X97643123Y-81808734D01*
X97669481Y-81805900D01*
X111263004Y-81805900D01*
X111263005Y-81805899D01*
X111384235Y-81781786D01*
X111464984Y-81748337D01*
X111498433Y-81734483D01*
X111601208Y-81665811D01*
X111688611Y-81578408D01*
X113009411Y-80257608D01*
X113078083Y-80154833D01*
X113125385Y-80040635D01*
X113149500Y-79919403D01*
X113149500Y-79795797D01*
X113149500Y-78944499D01*
X113169185Y-78877460D01*
X113221989Y-78831705D01*
X113273500Y-78820499D01*
X113419871Y-78820499D01*
X113419872Y-78820499D01*
X113479483Y-78814091D01*
X113614331Y-78763796D01*
X113729546Y-78677546D01*
X113815796Y-78562331D01*
X113866091Y-78427483D01*
X113872500Y-78367873D01*
X113872499Y-77363713D01*
X116251500Y-77363713D01*
X116251500Y-77576287D01*
X116284754Y-77786243D01*
X116332000Y-77931652D01*
X116350444Y-77988414D01*
X116446951Y-78177820D01*
X116571890Y-78349786D01*
X116722213Y-78500109D01*
X116894179Y-78625048D01*
X116894181Y-78625049D01*
X116894184Y-78625051D01*
X117083588Y-78721557D01*
X117285757Y-78787246D01*
X117495713Y-78820500D01*
X117495714Y-78820500D01*
X117708286Y-78820500D01*
X117708287Y-78820500D01*
X117918243Y-78787246D01*
X118120412Y-78721557D01*
X118309816Y-78625051D01*
X118331789Y-78609086D01*
X118481786Y-78500109D01*
X118481788Y-78500106D01*
X118481792Y-78500104D01*
X118632104Y-78349792D01*
X118632106Y-78349788D01*
X118632109Y-78349786D01*
X118757048Y-78177820D01*
X118757050Y-78177817D01*
X118757051Y-78177816D01*
X118761514Y-78169054D01*
X118809488Y-78118259D01*
X118877308Y-78101463D01*
X118943444Y-78123999D01*
X118982484Y-78169054D01*
X118986591Y-78177115D01*
X118986951Y-78177820D01*
X119111890Y-78349786D01*
X119262211Y-78500107D01*
X119310246Y-78535005D01*
X119336384Y-78553996D01*
X119379050Y-78609324D01*
X119387500Y-78654314D01*
X119387500Y-80438552D01*
X119387499Y-80438578D01*
X119387499Y-80443688D01*
X119387499Y-80592312D01*
X119387499Y-80592314D01*
X119387498Y-80592314D01*
X119416493Y-80738073D01*
X119416496Y-80738083D01*
X119473366Y-80875381D01*
X119473372Y-80875392D01*
X119555942Y-80998968D01*
X119555943Y-80998969D01*
X120313600Y-81756624D01*
X120313621Y-81756647D01*
X120423029Y-81866055D01*
X120423032Y-81866057D01*
X120423034Y-81866059D01*
X120505605Y-81921230D01*
X120546611Y-81948630D01*
X120618362Y-81978350D01*
X120683920Y-82005505D01*
X120708105Y-82010315D01*
X120712452Y-82011179D01*
X120744422Y-82027909D01*
X120774337Y-82043555D01*
X120774355Y-82043573D01*
X120774357Y-82043574D01*
X120774357Y-82043575D01*
X120775922Y-82045112D01*
X120831150Y-82100340D01*
X120977984Y-82190908D01*
X121141747Y-82245174D01*
X121242823Y-82255500D01*
X121941176Y-82255499D01*
X121941184Y-82255498D01*
X121941187Y-82255498D01*
X121996530Y-82249844D01*
X122042253Y-82245174D01*
X122206016Y-82190908D01*
X122352850Y-82100340D01*
X122367171Y-82086018D01*
X122428489Y-82052533D01*
X122498181Y-82057514D01*
X122542534Y-82086017D01*
X122556461Y-82099944D01*
X122556465Y-82099947D01*
X122703188Y-82190448D01*
X122703199Y-82190453D01*
X122866847Y-82244680D01*
X122967851Y-82254999D01*
X123567000Y-82254999D01*
X123666140Y-82254999D01*
X123666154Y-82254998D01*
X123767152Y-82244680D01*
X123930800Y-82190453D01*
X123930811Y-82190448D01*
X124077534Y-82099947D01*
X124077538Y-82099944D01*
X124199444Y-81978038D01*
X124199447Y-81978034D01*
X124289948Y-81831311D01*
X124289953Y-81831300D01*
X124344180Y-81667652D01*
X124354499Y-81566654D01*
X124354500Y-81566641D01*
X124354500Y-81530000D01*
X123567000Y-81530000D01*
X123567000Y-82254999D01*
X122967851Y-82254999D01*
X123067000Y-82254998D01*
X123067000Y-81030000D01*
X123567000Y-81030000D01*
X124354499Y-81030000D01*
X124354499Y-80993360D01*
X124354498Y-80993345D01*
X124344180Y-80892347D01*
X124289953Y-80728699D01*
X124289948Y-80728688D01*
X124199447Y-80581965D01*
X124199444Y-80581961D01*
X124077538Y-80460055D01*
X124077534Y-80460052D01*
X123930811Y-80369551D01*
X123930800Y-80369546D01*
X123767152Y-80315319D01*
X123666154Y-80305000D01*
X123567000Y-80305000D01*
X123567000Y-81030000D01*
X123067000Y-81030000D01*
X123067000Y-80304999D01*
X122967860Y-80305000D01*
X122967844Y-80305001D01*
X122866847Y-80315319D01*
X122703199Y-80369546D01*
X122703188Y-80369551D01*
X122556465Y-80460052D01*
X122542532Y-80473985D01*
X122481208Y-80507468D01*
X122411516Y-80502482D01*
X122367172Y-80473982D01*
X122352851Y-80459661D01*
X122352850Y-80459660D01*
X122261629Y-80403395D01*
X122206018Y-80369093D01*
X122206013Y-80369091D01*
X122144323Y-80348649D01*
X122042253Y-80314826D01*
X122042251Y-80314825D01*
X121941178Y-80304500D01*
X121242830Y-80304500D01*
X121242812Y-80304501D01*
X121141747Y-80314825D01*
X121141740Y-80314827D01*
X121112275Y-80324591D01*
X121096710Y-80325126D01*
X121082118Y-80330569D01*
X121062504Y-80326302D01*
X121042446Y-80326992D01*
X121028122Y-80318822D01*
X121013845Y-80315717D01*
X120985591Y-80294566D01*
X120932819Y-80241794D01*
X120899334Y-80180471D01*
X120896500Y-80154113D01*
X120896500Y-78654314D01*
X120916185Y-78587275D01*
X120947614Y-78553996D01*
X121021792Y-78500104D01*
X121172104Y-78349792D01*
X121172106Y-78349788D01*
X121172109Y-78349786D01*
X121297048Y-78177820D01*
X121297050Y-78177817D01*
X121297051Y-78177816D01*
X121301514Y-78169054D01*
X121349488Y-78118259D01*
X121417308Y-78101463D01*
X121483444Y-78123999D01*
X121522484Y-78169054D01*
X121526591Y-78177115D01*
X121526951Y-78177820D01*
X121651890Y-78349786D01*
X121802213Y-78500109D01*
X121974179Y-78625048D01*
X121974181Y-78625049D01*
X121974184Y-78625051D01*
X122163588Y-78721557D01*
X122365757Y-78787246D01*
X122575713Y-78820500D01*
X122575714Y-78820500D01*
X122788286Y-78820500D01*
X122788287Y-78820500D01*
X122998243Y-78787246D01*
X123200412Y-78721557D01*
X123389816Y-78625051D01*
X123411789Y-78609086D01*
X123561786Y-78500109D01*
X123561788Y-78500106D01*
X123561792Y-78500104D01*
X123712104Y-78349792D01*
X123712106Y-78349788D01*
X123712109Y-78349786D01*
X123837048Y-78177820D01*
X123837050Y-78177817D01*
X123837051Y-78177816D01*
X123841795Y-78168504D01*
X123889767Y-78117708D01*
X123957587Y-78100911D01*
X124023723Y-78123446D01*
X124062766Y-78168503D01*
X124067374Y-78177547D01*
X124106729Y-78231716D01*
X124739038Y-77599408D01*
X124756076Y-77662993D01*
X124821902Y-77777007D01*
X124914994Y-77870099D01*
X125029008Y-77935925D01*
X125092591Y-77952962D01*
X124460283Y-78585269D01*
X124460283Y-78585270D01*
X124514450Y-78624624D01*
X124703783Y-78721095D01*
X124905871Y-78786757D01*
X125115755Y-78820000D01*
X125328247Y-78820000D01*
X125538128Y-78786757D01*
X125538131Y-78786757D01*
X125740218Y-78721095D01*
X125929555Y-78624622D01*
X125983717Y-78585270D01*
X125983718Y-78585270D01*
X125351409Y-77952962D01*
X125414994Y-77935925D01*
X125529008Y-77870099D01*
X125622100Y-77777007D01*
X125687926Y-77662993D01*
X125704963Y-77599409D01*
X126337271Y-78231717D01*
X126337271Y-78231716D01*
X126376624Y-78177553D01*
X126381231Y-78168511D01*
X126429202Y-78117712D01*
X126497022Y-78100912D01*
X126563158Y-78123446D01*
X126602202Y-78168501D01*
X126606949Y-78177817D01*
X126731890Y-78349786D01*
X126882213Y-78500109D01*
X127054179Y-78625048D01*
X127054181Y-78625049D01*
X127054184Y-78625051D01*
X127243588Y-78721557D01*
X127445757Y-78787246D01*
X127655713Y-78820500D01*
X127655714Y-78820500D01*
X127868286Y-78820500D01*
X127868287Y-78820500D01*
X128078243Y-78787246D01*
X128280412Y-78721557D01*
X128469816Y-78625051D01*
X128641792Y-78500104D01*
X128755329Y-78386566D01*
X128816648Y-78353084D01*
X128886340Y-78358068D01*
X128942274Y-78399939D01*
X128959189Y-78430917D01*
X129008202Y-78562328D01*
X129008206Y-78562335D01*
X129094452Y-78677544D01*
X129094455Y-78677547D01*
X129209664Y-78763793D01*
X129209671Y-78763797D01*
X129344517Y-78814091D01*
X129344516Y-78814091D01*
X129351444Y-78814835D01*
X129404127Y-78820500D01*
X131199872Y-78820499D01*
X131259483Y-78814091D01*
X131394331Y-78763796D01*
X131509546Y-78677546D01*
X131595796Y-78562331D01*
X131646091Y-78427483D01*
X131652500Y-78367873D01*
X131652499Y-76572128D01*
X131646091Y-76512517D01*
X131644810Y-76509083D01*
X131595797Y-76377671D01*
X131595793Y-76377664D01*
X131509547Y-76262455D01*
X131509544Y-76262452D01*
X131394335Y-76176206D01*
X131394328Y-76176202D01*
X131259482Y-76125908D01*
X131259483Y-76125908D01*
X131199883Y-76119501D01*
X131199881Y-76119500D01*
X131199873Y-76119500D01*
X131199864Y-76119500D01*
X129404129Y-76119500D01*
X129404123Y-76119501D01*
X129344516Y-76125908D01*
X129209671Y-76176202D01*
X129209664Y-76176206D01*
X129094455Y-76262452D01*
X129094452Y-76262455D01*
X129008206Y-76377664D01*
X129008203Y-76377669D01*
X128959189Y-76509083D01*
X128917317Y-76565016D01*
X128851853Y-76589433D01*
X128783580Y-76574581D01*
X128755326Y-76553430D01*
X128641786Y-76439890D01*
X128469820Y-76314951D01*
X128280414Y-76218444D01*
X128280413Y-76218443D01*
X128280412Y-76218443D01*
X128078243Y-76152754D01*
X128078241Y-76152753D01*
X128078240Y-76152753D01*
X127916957Y-76127208D01*
X127868287Y-76119500D01*
X127655713Y-76119500D01*
X127607042Y-76127208D01*
X127445760Y-76152753D01*
X127243585Y-76218444D01*
X127054179Y-76314951D01*
X126882213Y-76439890D01*
X126731890Y-76590213D01*
X126606950Y-76762181D01*
X126602201Y-76771501D01*
X126554223Y-76822294D01*
X126486402Y-76839086D01*
X126420268Y-76816545D01*
X126381232Y-76771491D01*
X126376625Y-76762449D01*
X126337271Y-76708282D01*
X126337270Y-76708282D01*
X125704963Y-77340590D01*
X125687926Y-77277007D01*
X125622100Y-77162993D01*
X125529008Y-77069901D01*
X125414994Y-77004075D01*
X125351410Y-76987037D01*
X125983717Y-76354728D01*
X125929551Y-76315375D01*
X125740218Y-76218904D01*
X125538130Y-76153242D01*
X125328247Y-76120000D01*
X125115755Y-76120000D01*
X124905873Y-76153242D01*
X124905870Y-76153242D01*
X124703783Y-76218904D01*
X124514440Y-76315380D01*
X124460283Y-76354727D01*
X124460283Y-76354728D01*
X125092592Y-76987037D01*
X125029008Y-77004075D01*
X124914994Y-77069901D01*
X124821902Y-77162993D01*
X124756076Y-77277007D01*
X124739038Y-77340591D01*
X124106729Y-76708282D01*
X124106728Y-76708282D01*
X124067381Y-76762440D01*
X124062763Y-76771503D01*
X124014785Y-76822296D01*
X123946964Y-76839088D01*
X123880830Y-76816547D01*
X123841796Y-76771496D01*
X123837050Y-76762182D01*
X123712109Y-76590213D01*
X123561786Y-76439890D01*
X123389820Y-76314951D01*
X123200414Y-76218444D01*
X123200413Y-76218443D01*
X123200412Y-76218443D01*
X122998243Y-76152754D01*
X122998241Y-76152753D01*
X122998240Y-76152753D01*
X122836957Y-76127208D01*
X122788287Y-76119500D01*
X122575713Y-76119500D01*
X122527042Y-76127208D01*
X122365760Y-76152753D01*
X122163585Y-76218444D01*
X121974179Y-76314951D01*
X121802213Y-76439890D01*
X121651890Y-76590213D01*
X121526949Y-76762182D01*
X121522484Y-76770946D01*
X121474509Y-76821742D01*
X121406688Y-76838536D01*
X121340553Y-76815998D01*
X121301516Y-76770946D01*
X121297050Y-76762182D01*
X121172109Y-76590213D01*
X121021786Y-76439890D01*
X120849820Y-76314951D01*
X120660414Y-76218444D01*
X120660413Y-76218443D01*
X120660412Y-76218443D01*
X120458243Y-76152754D01*
X120458241Y-76152753D01*
X120458240Y-76152753D01*
X120296957Y-76127208D01*
X120248287Y-76119500D01*
X120035713Y-76119500D01*
X119987042Y-76127208D01*
X119825760Y-76152753D01*
X119623585Y-76218444D01*
X119434179Y-76314951D01*
X119262213Y-76439890D01*
X119111890Y-76590213D01*
X118986949Y-76762182D01*
X118982484Y-76770946D01*
X118934509Y-76821742D01*
X118866688Y-76838536D01*
X118800553Y-76815998D01*
X118761516Y-76770946D01*
X118757050Y-76762182D01*
X118632109Y-76590213D01*
X118481786Y-76439890D01*
X118309820Y-76314951D01*
X118120414Y-76218444D01*
X118120413Y-76218443D01*
X118120412Y-76218443D01*
X117918243Y-76152754D01*
X117918241Y-76152753D01*
X117918240Y-76152753D01*
X117756957Y-76127208D01*
X117708287Y-76119500D01*
X117495713Y-76119500D01*
X117447042Y-76127208D01*
X117285760Y-76152753D01*
X117083585Y-76218444D01*
X116894179Y-76314951D01*
X116722213Y-76439890D01*
X116571890Y-76590213D01*
X116446951Y-76762179D01*
X116350444Y-76951585D01*
X116284753Y-77153760D01*
X116283291Y-77162993D01*
X116251500Y-77363713D01*
X113872499Y-77363713D01*
X113872499Y-76572128D01*
X113866091Y-76512517D01*
X113864810Y-76509083D01*
X113815797Y-76377671D01*
X113815793Y-76377664D01*
X113729547Y-76262455D01*
X113729544Y-76262452D01*
X113614335Y-76176206D01*
X113614328Y-76176202D01*
X113479482Y-76125908D01*
X113479483Y-76125908D01*
X113419883Y-76119501D01*
X113419881Y-76119500D01*
X113419873Y-76119500D01*
X113419864Y-76119500D01*
X111624129Y-76119500D01*
X111624123Y-76119501D01*
X111564516Y-76125908D01*
X111429671Y-76176202D01*
X111429664Y-76176206D01*
X111314455Y-76262452D01*
X111314452Y-76262455D01*
X111228206Y-76377664D01*
X111228203Y-76377669D01*
X111179189Y-76509083D01*
X111137317Y-76565016D01*
X111071853Y-76589433D01*
X111003580Y-76574581D01*
X110975326Y-76553430D01*
X110861786Y-76439890D01*
X110689817Y-76314949D01*
X110677202Y-76308521D01*
X110626408Y-76260546D01*
X110609500Y-76198038D01*
X110609500Y-75078711D01*
X147749500Y-75078711D01*
X147749500Y-75321288D01*
X147781161Y-75561785D01*
X147843947Y-75796104D01*
X147936773Y-76020205D01*
X147936776Y-76020212D01*
X148058064Y-76230289D01*
X148058066Y-76230292D01*
X148058067Y-76230293D01*
X148205733Y-76422736D01*
X148205739Y-76422743D01*
X148377256Y-76594260D01*
X148377262Y-76594265D01*
X148569711Y-76741936D01*
X148779788Y-76863224D01*
X149003900Y-76956054D01*
X149238211Y-77018838D01*
X149418586Y-77042584D01*
X149478711Y-77050500D01*
X149478712Y-77050500D01*
X149721289Y-77050500D01*
X149769388Y-77044167D01*
X149961789Y-77018838D01*
X150196100Y-76956054D01*
X150420212Y-76863224D01*
X150630289Y-76741936D01*
X150822738Y-76594265D01*
X150994265Y-76422738D01*
X151141936Y-76230289D01*
X151263224Y-76020212D01*
X151356054Y-75796100D01*
X151418838Y-75561789D01*
X151450500Y-75321288D01*
X151450500Y-75078712D01*
X151418838Y-74838211D01*
X151356054Y-74603900D01*
X151263224Y-74379788D01*
X151141936Y-74169711D01*
X150994265Y-73977262D01*
X150994260Y-73977256D01*
X150822743Y-73805739D01*
X150822736Y-73805733D01*
X150630293Y-73658067D01*
X150630292Y-73658066D01*
X150630289Y-73658064D01*
X150420212Y-73536776D01*
X150420205Y-73536773D01*
X150196104Y-73443947D01*
X149961785Y-73381161D01*
X149721289Y-73349500D01*
X149721288Y-73349500D01*
X149478712Y-73349500D01*
X149478711Y-73349500D01*
X149238214Y-73381161D01*
X149003895Y-73443947D01*
X148779794Y-73536773D01*
X148779785Y-73536777D01*
X148569706Y-73658067D01*
X148377263Y-73805733D01*
X148377256Y-73805739D01*
X148205739Y-73977256D01*
X148205733Y-73977263D01*
X148058067Y-74169706D01*
X147936777Y-74379785D01*
X147936773Y-74379794D01*
X147843947Y-74603895D01*
X147781161Y-74838214D01*
X147749500Y-75078711D01*
X110609500Y-75078711D01*
X110609500Y-74614197D01*
X110609499Y-74614191D01*
X110607452Y-74603896D01*
X110607452Y-74603895D01*
X110585387Y-74492973D01*
X110585386Y-74492966D01*
X110540407Y-74384379D01*
X110538763Y-74379784D01*
X110469414Y-74275996D01*
X110469413Y-74275994D01*
X110469411Y-74275992D01*
X110382008Y-74188589D01*
X109999152Y-73805733D01*
X109493011Y-73299591D01*
X109493007Y-73299588D01*
X109390239Y-73230920D01*
X109390226Y-73230913D01*
X109356785Y-73217062D01*
X109276035Y-73183614D01*
X109276027Y-73183612D01*
X109154807Y-73159500D01*
X109154803Y-73159500D01*
X97089804Y-73159500D01*
X96966197Y-73159500D01*
X96966192Y-73159500D01*
X96844973Y-73183611D01*
X96844973Y-73183612D01*
X96844970Y-73183613D01*
X96844966Y-73183614D01*
X96778070Y-73211323D01*
X96778068Y-73211323D01*
X96730770Y-73230915D01*
X96627989Y-73299590D01*
X96627988Y-73299591D01*
X92975996Y-76951585D01*
X91801992Y-78125589D01*
X91759080Y-78168501D01*
X91714586Y-78212994D01*
X91714585Y-78212996D01*
X91645233Y-78316789D01*
X91643586Y-78321393D01*
X91598615Y-78429962D01*
X91598612Y-78429972D01*
X91584662Y-78500104D01*
X91584663Y-78500107D01*
X91574500Y-78551199D01*
X91574500Y-131125807D01*
X91598612Y-131247027D01*
X91598614Y-131247035D01*
X91632062Y-131327785D01*
X91645916Y-131361232D01*
X91703747Y-131447782D01*
X91703748Y-131447783D01*
X91714590Y-131464010D01*
X91714591Y-131464011D01*
X96006974Y-135756393D01*
X96040459Y-135817716D01*
X96035475Y-135887408D01*
X95993603Y-135943341D01*
X95988185Y-135947175D01*
X95958079Y-135967291D01*
X95958073Y-135967296D01*
X95835296Y-136090073D01*
X95835293Y-136090077D01*
X95738828Y-136234446D01*
X95738821Y-136234459D01*
X95672377Y-136394871D01*
X95672374Y-136394881D01*
X95638500Y-136565177D01*
X95638500Y-136565180D01*
X95638500Y-136738820D01*
X95638500Y-136738822D01*
X95638499Y-136738822D01*
X95672374Y-136909118D01*
X95672377Y-136909128D01*
X95738821Y-137069540D01*
X95738828Y-137069553D01*
X95835292Y-137213921D01*
X95835293Y-137213922D01*
X95835294Y-137213923D01*
X95856181Y-137234810D01*
X95889666Y-137296130D01*
X95892500Y-137322491D01*
X95892500Y-138428038D01*
X95872815Y-138495077D01*
X95824798Y-138538521D01*
X95812182Y-138544949D01*
X95640213Y-138669890D01*
X95489890Y-138820213D01*
X95364950Y-138992181D01*
X95360200Y-139001503D01*
X95312223Y-139052296D01*
X95244401Y-139069088D01*
X95178267Y-139046547D01*
X95139231Y-139001493D01*
X95134623Y-138992449D01*
X95095269Y-138938282D01*
X95095268Y-138938282D01*
X94462961Y-139570590D01*
X94445924Y-139507007D01*
X94380098Y-139392993D01*
X94287006Y-139299901D01*
X94172992Y-139234075D01*
X94109408Y-139217037D01*
X94741715Y-138584728D01*
X94687549Y-138545375D01*
X94498216Y-138448904D01*
X94296128Y-138383242D01*
X94086245Y-138350000D01*
X93873753Y-138350000D01*
X93663871Y-138383242D01*
X93663868Y-138383242D01*
X93461781Y-138448904D01*
X93272438Y-138545380D01*
X93218281Y-138584727D01*
X93218281Y-138584728D01*
X93850590Y-139217037D01*
X93787006Y-139234075D01*
X93672992Y-139299901D01*
X93579900Y-139392993D01*
X93514074Y-139507007D01*
X93497036Y-139570591D01*
X92864727Y-138938282D01*
X92864726Y-138938282D01*
X92825379Y-138992440D01*
X92820762Y-139001501D01*
X92772784Y-139052294D01*
X92704962Y-139069086D01*
X92638829Y-139046545D01*
X92599795Y-139001495D01*
X92595181Y-138992440D01*
X92595051Y-138992184D01*
X92595049Y-138992181D01*
X92595048Y-138992179D01*
X92470109Y-138820213D01*
X92319786Y-138669890D01*
X92147820Y-138544951D01*
X91958414Y-138448444D01*
X91958413Y-138448443D01*
X91958412Y-138448443D01*
X91756243Y-138382754D01*
X91756241Y-138382753D01*
X91756240Y-138382753D01*
X91592863Y-138356877D01*
X91546287Y-138349500D01*
X91333713Y-138349500D01*
X91287137Y-138356877D01*
X91123760Y-138382753D01*
X90921585Y-138448444D01*
X90732179Y-138544951D01*
X90560215Y-138669889D01*
X90446673Y-138783431D01*
X90385350Y-138816915D01*
X90315658Y-138811931D01*
X90259725Y-138770059D01*
X90242810Y-138739082D01*
X90193797Y-138607671D01*
X90193793Y-138607664D01*
X90107547Y-138492455D01*
X90107544Y-138492452D01*
X89992335Y-138406206D01*
X89992328Y-138406202D01*
X89857482Y-138355908D01*
X89857483Y-138355908D01*
X89797883Y-138349501D01*
X89797881Y-138349500D01*
X89797873Y-138349500D01*
X89797864Y-138349500D01*
X88002129Y-138349500D01*
X88002123Y-138349501D01*
X87942516Y-138355908D01*
X87807671Y-138406202D01*
X87807664Y-138406206D01*
X87692455Y-138492452D01*
X87692452Y-138492455D01*
X87606206Y-138607664D01*
X87606202Y-138607671D01*
X87555908Y-138742517D01*
X87549501Y-138802116D01*
X87549500Y-138802135D01*
X86261364Y-138802135D01*
X86263236Y-138797616D01*
X86271517Y-138766714D01*
X86271517Y-138766713D01*
X86320911Y-138582367D01*
X86320914Y-138582354D01*
X86350000Y-138361424D01*
X86350000Y-138138575D01*
X86320914Y-137917645D01*
X86320911Y-137917632D01*
X86263236Y-137702381D01*
X86177954Y-137496497D01*
X86177949Y-137496485D01*
X86066533Y-137303507D01*
X86015956Y-137237595D01*
X86015955Y-137237595D01*
X85214612Y-138038939D01*
X85209111Y-138018409D01*
X85130119Y-137881592D01*
X85018408Y-137769881D01*
X84881591Y-137690889D01*
X84861058Y-137685387D01*
X85662403Y-136884043D01*
X85662403Y-136884040D01*
X85596504Y-136833473D01*
X85596491Y-136833464D01*
X85403520Y-136722054D01*
X85403502Y-136722045D01*
X85197618Y-136636763D01*
X84982367Y-136579088D01*
X84982354Y-136579085D01*
X84761425Y-136550000D01*
X84538575Y-136550000D01*
X84317645Y-136579085D01*
X84317632Y-136579088D01*
X84102381Y-136636763D01*
X83896497Y-136722045D01*
X83896479Y-136722054D01*
X83703511Y-136833462D01*
X83637595Y-136884042D01*
X84438941Y-137685387D01*
X84418409Y-137690889D01*
X84281592Y-137769881D01*
X84169881Y-137881592D01*
X84090889Y-138018409D01*
X84085387Y-138038940D01*
X83284042Y-137237595D01*
X83233462Y-137303511D01*
X83122054Y-137496479D01*
X83122045Y-137496497D01*
X83036763Y-137702381D01*
X82979088Y-137917632D01*
X82979085Y-137917645D01*
X82950000Y-138138575D01*
X81350499Y-138138575D01*
X81350499Y-137002128D01*
X81344385Y-136945248D01*
X81344385Y-136945246D01*
X81344092Y-136942519D01*
X81293797Y-136807671D01*
X81293793Y-136807664D01*
X81207547Y-136692455D01*
X81207544Y-136692452D01*
X81092335Y-136606206D01*
X81092328Y-136606202D01*
X80957482Y-136555908D01*
X80957483Y-136555908D01*
X80897883Y-136549501D01*
X80897881Y-136549500D01*
X80897873Y-136549500D01*
X80897864Y-136549500D01*
X78402129Y-136549500D01*
X78402123Y-136549501D01*
X78342516Y-136555908D01*
X78207671Y-136606202D01*
X78207664Y-136606206D01*
X78092455Y-136692452D01*
X78092452Y-136692455D01*
X78006206Y-136807664D01*
X78006202Y-136807671D01*
X77955908Y-136942517D01*
X77949501Y-137002116D01*
X77949501Y-137002123D01*
X77949500Y-137002135D01*
X74136582Y-137002135D01*
X73996104Y-136943947D01*
X73761785Y-136881161D01*
X73521289Y-136849500D01*
X73521288Y-136849500D01*
X73278712Y-136849500D01*
X73278711Y-136849500D01*
X73038214Y-136881161D01*
X72803895Y-136943947D01*
X72579794Y-137036773D01*
X72579785Y-137036777D01*
X72369706Y-137158067D01*
X72177263Y-137305733D01*
X72177256Y-137305739D01*
X72005739Y-137477256D01*
X72005733Y-137477263D01*
X71858067Y-137669706D01*
X71736777Y-137879785D01*
X71736773Y-137879794D01*
X71643947Y-138103895D01*
X71581161Y-138338214D01*
X71549500Y-138578711D01*
X69850000Y-138578711D01*
X69850000Y-131926848D01*
X70178280Y-131926848D01*
X70178280Y-132131552D01*
X70181431Y-132151447D01*
X70210302Y-132333734D01*
X70273561Y-132528423D01*
X70324897Y-132629173D01*
X70362153Y-132702293D01*
X70366495Y-132710813D01*
X70486808Y-132876413D01*
X70631566Y-133021171D01*
X70786529Y-133133756D01*
X70797170Y-133141487D01*
X70913387Y-133200703D01*
X70979556Y-133234418D01*
X70979558Y-133234418D01*
X70979561Y-133234420D01*
X71069239Y-133263558D01*
X71174245Y-133297677D01*
X71275337Y-133313688D01*
X71376428Y-133329700D01*
X71376429Y-133329700D01*
X71581131Y-133329700D01*
X71581132Y-133329700D01*
X71783314Y-133297677D01*
X71977999Y-133234420D01*
X72160390Y-133141487D01*
X72253370Y-133073932D01*
X72325993Y-133021171D01*
X72325995Y-133021168D01*
X72325999Y-133021166D01*
X72470746Y-132876419D01*
X72511691Y-132820061D01*
X72567020Y-132777396D01*
X72636633Y-132771415D01*
X72698429Y-132804020D01*
X72729716Y-132853941D01*
X72744422Y-132898321D01*
X72744423Y-132898324D01*
X72836464Y-133047545D01*
X72960434Y-133171515D01*
X73109655Y-133263556D01*
X73109660Y-133263558D01*
X73276082Y-133318705D01*
X73276089Y-133318706D01*
X73378799Y-133329199D01*
X73728779Y-133329199D01*
X73728780Y-133329198D01*
X73728780Y-132344886D01*
X73733174Y-132349280D01*
X73824386Y-132401941D01*
X73926119Y-132429200D01*
X74031441Y-132429200D01*
X74133174Y-132401941D01*
X74224386Y-132349280D01*
X74228780Y-132344886D01*
X74228780Y-133329199D01*
X74578752Y-133329199D01*
X74578766Y-133329198D01*
X74681477Y-133318705D01*
X74847899Y-133263558D01*
X74847904Y-133263556D01*
X74997125Y-133171515D01*
X75121095Y-133047545D01*
X75213136Y-132898324D01*
X75213138Y-132898319D01*
X75268285Y-132731897D01*
X75268286Y-132731890D01*
X75278779Y-132629186D01*
X75278780Y-132629173D01*
X75278780Y-132279200D01*
X74294466Y-132279200D01*
X74298860Y-132274806D01*
X74351521Y-132183594D01*
X74378780Y-132081861D01*
X74378780Y-131976539D01*
X74351521Y-131874806D01*
X74298860Y-131783594D01*
X74294466Y-131779200D01*
X75278779Y-131779200D01*
X75278779Y-131429228D01*
X75278778Y-131429213D01*
X75268285Y-131326502D01*
X75213138Y-131160080D01*
X75213136Y-131160075D01*
X75121095Y-131010854D01*
X74997125Y-130886884D01*
X74847904Y-130794843D01*
X74847899Y-130794841D01*
X74681477Y-130739694D01*
X74681470Y-130739693D01*
X74578766Y-130729200D01*
X74228780Y-130729200D01*
X74228780Y-131713514D01*
X74224386Y-131709120D01*
X74133174Y-131656459D01*
X74031441Y-131629200D01*
X73926119Y-131629200D01*
X73824386Y-131656459D01*
X73733174Y-131709120D01*
X73728780Y-131713514D01*
X73728780Y-130729200D01*
X73378808Y-130729200D01*
X73378792Y-130729201D01*
X73276082Y-130739694D01*
X73109660Y-130794841D01*
X73109655Y-130794843D01*
X72960434Y-130886884D01*
X72836464Y-131010854D01*
X72744423Y-131160075D01*
X72744418Y-131160086D01*
X72729715Y-131204458D01*
X72689942Y-131261903D01*
X72625426Y-131288725D01*
X72556650Y-131276409D01*
X72511691Y-131238338D01*
X72470749Y-131181986D01*
X72470746Y-131181981D01*
X72325999Y-131037234D01*
X72325993Y-131037228D01*
X72160393Y-130916915D01*
X72160392Y-130916914D01*
X72160390Y-130916913D01*
X72101455Y-130886884D01*
X71978003Y-130823981D01*
X71783314Y-130760722D01*
X71608775Y-130733078D01*
X71581132Y-130728700D01*
X71376428Y-130728700D01*
X71352109Y-130732551D01*
X71174245Y-130760722D01*
X70979556Y-130823981D01*
X70797166Y-130916915D01*
X70631566Y-131037228D01*
X70486808Y-131181986D01*
X70366495Y-131347586D01*
X70273561Y-131529976D01*
X70210302Y-131724665D01*
X70178280Y-131926848D01*
X69850000Y-131926848D01*
X69850000Y-118478711D01*
X70749500Y-118478711D01*
X70749500Y-118721288D01*
X70781161Y-118961785D01*
X70843947Y-119196104D01*
X70936773Y-119420205D01*
X70936776Y-119420212D01*
X71058064Y-119630289D01*
X71058066Y-119630292D01*
X71058067Y-119630293D01*
X71205733Y-119822736D01*
X71205739Y-119822743D01*
X71377256Y-119994260D01*
X71377262Y-119994265D01*
X71569711Y-120141936D01*
X71779788Y-120263224D01*
X72003900Y-120356054D01*
X72238211Y-120418838D01*
X72418586Y-120442584D01*
X72478711Y-120450500D01*
X72478712Y-120450500D01*
X72721289Y-120450500D01*
X72769388Y-120444167D01*
X72961789Y-120418838D01*
X73196100Y-120356054D01*
X73420212Y-120263224D01*
X73630289Y-120141936D01*
X73822738Y-119994265D01*
X73994265Y-119822738D01*
X74141936Y-119630289D01*
X74263224Y-119420212D01*
X74356054Y-119196100D01*
X74418838Y-118961789D01*
X74450500Y-118721288D01*
X74450500Y-118478712D01*
X74418838Y-118238211D01*
X74356054Y-118003900D01*
X74263224Y-117779788D01*
X74141936Y-117569711D01*
X73994265Y-117377262D01*
X73994260Y-117377256D01*
X73822743Y-117205739D01*
X73822736Y-117205733D01*
X73630293Y-117058067D01*
X73630292Y-117058066D01*
X73630289Y-117058064D01*
X73420212Y-116936776D01*
X73420205Y-116936773D01*
X73196104Y-116843947D01*
X72961785Y-116781161D01*
X72721289Y-116749500D01*
X72721288Y-116749500D01*
X72478712Y-116749500D01*
X72478711Y-116749500D01*
X72238214Y-116781161D01*
X72003895Y-116843947D01*
X71779794Y-116936773D01*
X71779785Y-116936777D01*
X71569706Y-117058067D01*
X71377263Y-117205733D01*
X71377256Y-117205739D01*
X71205739Y-117377256D01*
X71205733Y-117377263D01*
X71058067Y-117569706D01*
X70936777Y-117779785D01*
X70936773Y-117779794D01*
X70843947Y-118003895D01*
X70781161Y-118238214D01*
X70749500Y-118478711D01*
X69850000Y-118478711D01*
X69850000Y-75078711D01*
X71549500Y-75078711D01*
X71549500Y-75321288D01*
X71581161Y-75561785D01*
X71643947Y-75796104D01*
X71736773Y-76020205D01*
X71736776Y-76020212D01*
X71858064Y-76230289D01*
X71858066Y-76230292D01*
X71858067Y-76230293D01*
X72005733Y-76422736D01*
X72005739Y-76422743D01*
X72177256Y-76594260D01*
X72177262Y-76594265D01*
X72369711Y-76741936D01*
X72579788Y-76863224D01*
X72803900Y-76956054D01*
X73038211Y-77018838D01*
X73218586Y-77042584D01*
X73278711Y-77050500D01*
X73278712Y-77050500D01*
X73521289Y-77050500D01*
X73569388Y-77044167D01*
X73761789Y-77018838D01*
X73996100Y-76956054D01*
X74220212Y-76863224D01*
X74430289Y-76741936D01*
X74622738Y-76594265D01*
X74794265Y-76422738D01*
X74941936Y-76230289D01*
X75063224Y-76020212D01*
X75156054Y-75796100D01*
X75218838Y-75561789D01*
X75250500Y-75321288D01*
X75250500Y-75078712D01*
X75218838Y-74838211D01*
X75156054Y-74603900D01*
X75063224Y-74379788D01*
X74941936Y-74169711D01*
X74794265Y-73977262D01*
X74794260Y-73977256D01*
X74622743Y-73805739D01*
X74622736Y-73805733D01*
X74430293Y-73658067D01*
X74430292Y-73658066D01*
X74430289Y-73658064D01*
X74220212Y-73536776D01*
X74220205Y-73536773D01*
X73996104Y-73443947D01*
X73761785Y-73381161D01*
X73521289Y-73349500D01*
X73521288Y-73349500D01*
X73278712Y-73349500D01*
X73278711Y-73349500D01*
X73038214Y-73381161D01*
X72803895Y-73443947D01*
X72579794Y-73536773D01*
X72579785Y-73536777D01*
X72369706Y-73658067D01*
X72177263Y-73805733D01*
X72177256Y-73805739D01*
X72005739Y-73977256D01*
X72005733Y-73977263D01*
X71858067Y-74169706D01*
X71736777Y-74379785D01*
X71736773Y-74379794D01*
X71643947Y-74603895D01*
X71581161Y-74838214D01*
X71549500Y-75078711D01*
X69850000Y-75078711D01*
X69850000Y-72514000D01*
X69869685Y-72446961D01*
X69922489Y-72401206D01*
X69974000Y-72390000D01*
X152276000Y-72390000D01*
X152343039Y-72409685D01*
G37*
%TD.AperFunction*%
%TA.AperFunction,Conductor*%
G36*
X152245269Y-130301716D02*
G01*
X152266271Y-130300064D01*
X152334648Y-130314428D01*
X152384405Y-130363479D01*
X152400000Y-130423682D01*
X152400000Y-130674227D01*
X152380315Y-130741266D01*
X152327511Y-130787021D01*
X152258353Y-130796965D01*
X152231158Y-130787915D01*
X152230641Y-130789303D01*
X152087482Y-130735908D01*
X152087483Y-130735908D01*
X152027883Y-130729501D01*
X152027881Y-130729500D01*
X152027873Y-130729500D01*
X152027865Y-130729500D01*
X152017309Y-130729500D01*
X151950270Y-130709815D01*
X151929628Y-130693181D01*
X151259408Y-130022962D01*
X151322993Y-130005925D01*
X151437007Y-129940099D01*
X151530099Y-129847007D01*
X151595925Y-129732993D01*
X151612962Y-129669408D01*
X152245269Y-130301716D01*
G37*
%TD.AperFunction*%
%TA.AperFunction,Conductor*%
G36*
X152362418Y-127842311D02*
G01*
X152396777Y-127903149D01*
X152400000Y-127931237D01*
X152400000Y-128656317D01*
X152380315Y-128723356D01*
X152327511Y-128769111D01*
X152266271Y-128779935D01*
X152245269Y-128778282D01*
X151612962Y-129410590D01*
X151595925Y-129347007D01*
X151530099Y-129232993D01*
X151437007Y-129139901D01*
X151322993Y-129074075D01*
X151259409Y-129057037D01*
X151891716Y-128424728D01*
X151837547Y-128385373D01*
X151837548Y-128385373D01*
X151828505Y-128380766D01*
X151777708Y-128332792D01*
X151760913Y-128264971D01*
X151783450Y-128198836D01*
X151828506Y-128159795D01*
X151837816Y-128155052D01*
X151870021Y-128131654D01*
X152009786Y-128030110D01*
X152009788Y-128030107D01*
X152009792Y-128030105D01*
X152160104Y-127879793D01*
X152175680Y-127858353D01*
X152231009Y-127815687D01*
X152300623Y-127809706D01*
X152362418Y-127842311D01*
G37*
%TD.AperFunction*%
%TD*%
M02*
