%TF.GenerationSoftware,KiCad,Pcbnew,9.0.6*%
%TF.CreationDate,2025-11-24T10:33:25-08:00*%
%TF.ProjectId,SD-DADPT,53442d44-4144-4505-942e-6b696361645f,PR-1.0b*%
%TF.SameCoordinates,Original*%
%TF.FileFunction,Copper,L2,Bot*%
%TF.FilePolarity,Positive*%
%FSLAX46Y46*%
G04 Gerber Fmt 4.6, Leading zero omitted, Abs format (unit mm)*
G04 Created by KiCad (PCBNEW 9.0.6) date 2025-11-24 10:33:25*
%MOMM*%
%LPD*%
G01*
G04 APERTURE LIST*
G04 Aperture macros list*
%AMRoundRect*
0 Rectangle with rounded corners*
0 $1 Rounding radius*
0 $2 $3 $4 $5 $6 $7 $8 $9 X,Y pos of 4 corners*
0 Add a 4 corners polygon primitive as box body*
4,1,4,$2,$3,$4,$5,$6,$7,$8,$9,$2,$3,0*
0 Add four circle primitives for the rounded corners*
1,1,$1+$1,$2,$3*
1,1,$1+$1,$4,$5*
1,1,$1+$1,$6,$7*
1,1,$1+$1,$8,$9*
0 Add four rect primitives between the rounded corners*
20,1,$1+$1,$2,$3,$4,$5,0*
20,1,$1+$1,$4,$5,$6,$7,0*
20,1,$1+$1,$6,$7,$8,$9,0*
20,1,$1+$1,$8,$9,$2,$3,0*%
G04 Aperture macros list end*
%ADD10C,0.222250*%
%TA.AperFunction,NonConductor*%
%ADD11C,0.222250*%
%TD*%
%TA.AperFunction,ComponentPad*%
%ADD12C,1.700000*%
%TD*%
%TA.AperFunction,ComponentPad*%
%ADD13R,1.700000X1.700000*%
%TD*%
%TA.AperFunction,ComponentPad*%
%ADD14R,2.400000X2.400000*%
%TD*%
%TA.AperFunction,ComponentPad*%
%ADD15C,2.400000*%
%TD*%
%TA.AperFunction,ComponentPad*%
%ADD16RoundRect,0.250000X0.550000X0.550000X-0.550000X0.550000X-0.550000X-0.550000X0.550000X-0.550000X0*%
%TD*%
%TA.AperFunction,ComponentPad*%
%ADD17C,1.600000*%
%TD*%
%TA.AperFunction,ViaPad*%
%ADD18C,0.762000*%
%TD*%
%TA.AperFunction,Conductor*%
%ADD19C,0.508000*%
%TD*%
%TA.AperFunction,Conductor*%
%ADD20C,0.254000*%
%TD*%
G04 APERTURE END LIST*
D10*
D11*
X72764352Y-97686116D02*
X73653352Y-97686116D01*
X73653352Y-97686116D02*
X73653352Y-97474449D01*
X73653352Y-97474449D02*
X73611019Y-97347449D01*
X73611019Y-97347449D02*
X73526352Y-97262783D01*
X73526352Y-97262783D02*
X73441686Y-97220449D01*
X73441686Y-97220449D02*
X73272352Y-97178116D01*
X73272352Y-97178116D02*
X73145352Y-97178116D01*
X73145352Y-97178116D02*
X72976019Y-97220449D01*
X72976019Y-97220449D02*
X72891352Y-97262783D01*
X72891352Y-97262783D02*
X72806686Y-97347449D01*
X72806686Y-97347449D02*
X72764352Y-97474449D01*
X72764352Y-97474449D02*
X72764352Y-97686116D01*
X72764352Y-96797116D02*
X73357019Y-96797116D01*
X73653352Y-96797116D02*
X73611019Y-96839449D01*
X73611019Y-96839449D02*
X73568686Y-96797116D01*
X73568686Y-96797116D02*
X73611019Y-96754783D01*
X73611019Y-96754783D02*
X73653352Y-96797116D01*
X73653352Y-96797116D02*
X73568686Y-96797116D01*
X72806686Y-96416116D02*
X72764352Y-96331450D01*
X72764352Y-96331450D02*
X72764352Y-96162116D01*
X72764352Y-96162116D02*
X72806686Y-96077450D01*
X72806686Y-96077450D02*
X72891352Y-96035116D01*
X72891352Y-96035116D02*
X72933686Y-96035116D01*
X72933686Y-96035116D02*
X73018352Y-96077450D01*
X73018352Y-96077450D02*
X73060686Y-96162116D01*
X73060686Y-96162116D02*
X73060686Y-96289116D01*
X73060686Y-96289116D02*
X73103019Y-96373783D01*
X73103019Y-96373783D02*
X73187686Y-96416116D01*
X73187686Y-96416116D02*
X73230019Y-96416116D01*
X73230019Y-96416116D02*
X73314686Y-96373783D01*
X73314686Y-96373783D02*
X73357019Y-96289116D01*
X73357019Y-96289116D02*
X73357019Y-96162116D01*
X73357019Y-96162116D02*
X73314686Y-96077450D01*
X73357019Y-95654116D02*
X72468019Y-95654116D01*
X73314686Y-95654116D02*
X73357019Y-95569449D01*
X73357019Y-95569449D02*
X73357019Y-95400116D01*
X73357019Y-95400116D02*
X73314686Y-95315449D01*
X73314686Y-95315449D02*
X73272352Y-95273116D01*
X73272352Y-95273116D02*
X73187686Y-95230783D01*
X73187686Y-95230783D02*
X72933686Y-95230783D01*
X72933686Y-95230783D02*
X72849019Y-95273116D01*
X72849019Y-95273116D02*
X72806686Y-95315449D01*
X72806686Y-95315449D02*
X72764352Y-95400116D01*
X72764352Y-95400116D02*
X72764352Y-95569449D01*
X72764352Y-95569449D02*
X72806686Y-95654116D01*
X72764352Y-94722783D02*
X72806686Y-94807450D01*
X72806686Y-94807450D02*
X72891352Y-94849783D01*
X72891352Y-94849783D02*
X73653352Y-94849783D01*
X72764352Y-94003116D02*
X73230019Y-94003116D01*
X73230019Y-94003116D02*
X73314686Y-94045449D01*
X73314686Y-94045449D02*
X73357019Y-94130116D01*
X73357019Y-94130116D02*
X73357019Y-94299449D01*
X73357019Y-94299449D02*
X73314686Y-94384116D01*
X72806686Y-94003116D02*
X72764352Y-94087783D01*
X72764352Y-94087783D02*
X72764352Y-94299449D01*
X72764352Y-94299449D02*
X72806686Y-94384116D01*
X72806686Y-94384116D02*
X72891352Y-94426449D01*
X72891352Y-94426449D02*
X72976019Y-94426449D01*
X72976019Y-94426449D02*
X73060686Y-94384116D01*
X73060686Y-94384116D02*
X73103019Y-94299449D01*
X73103019Y-94299449D02*
X73103019Y-94087783D01*
X73103019Y-94087783D02*
X73145352Y-94003116D01*
X73357019Y-93664450D02*
X72764352Y-93452783D01*
X73357019Y-93241116D02*
X72764352Y-93452783D01*
X72764352Y-93452783D02*
X72552686Y-93537450D01*
X72552686Y-93537450D02*
X72510352Y-93579783D01*
X72510352Y-93579783D02*
X72468019Y-93664450D01*
X72849019Y-91717117D02*
X72806686Y-91759450D01*
X72806686Y-91759450D02*
X72764352Y-91886450D01*
X72764352Y-91886450D02*
X72764352Y-91971117D01*
X72764352Y-91971117D02*
X72806686Y-92098117D01*
X72806686Y-92098117D02*
X72891352Y-92182784D01*
X72891352Y-92182784D02*
X72976019Y-92225117D01*
X72976019Y-92225117D02*
X73145352Y-92267450D01*
X73145352Y-92267450D02*
X73272352Y-92267450D01*
X73272352Y-92267450D02*
X73441686Y-92225117D01*
X73441686Y-92225117D02*
X73526352Y-92182784D01*
X73526352Y-92182784D02*
X73611019Y-92098117D01*
X73611019Y-92098117D02*
X73653352Y-91971117D01*
X73653352Y-91971117D02*
X73653352Y-91886450D01*
X73653352Y-91886450D02*
X73611019Y-91759450D01*
X73611019Y-91759450D02*
X73568686Y-91717117D01*
X72764352Y-90955117D02*
X73230019Y-90955117D01*
X73230019Y-90955117D02*
X73314686Y-90997450D01*
X73314686Y-90997450D02*
X73357019Y-91082117D01*
X73357019Y-91082117D02*
X73357019Y-91251450D01*
X73357019Y-91251450D02*
X73314686Y-91336117D01*
X72806686Y-90955117D02*
X72764352Y-91039784D01*
X72764352Y-91039784D02*
X72764352Y-91251450D01*
X72764352Y-91251450D02*
X72806686Y-91336117D01*
X72806686Y-91336117D02*
X72891352Y-91378450D01*
X72891352Y-91378450D02*
X72976019Y-91378450D01*
X72976019Y-91378450D02*
X73060686Y-91336117D01*
X73060686Y-91336117D02*
X73103019Y-91251450D01*
X73103019Y-91251450D02*
X73103019Y-91039784D01*
X73103019Y-91039784D02*
X73145352Y-90955117D01*
X72764352Y-90531784D02*
X73653352Y-90531784D01*
X73314686Y-90531784D02*
X73357019Y-90447117D01*
X73357019Y-90447117D02*
X73357019Y-90277784D01*
X73357019Y-90277784D02*
X73314686Y-90193117D01*
X73314686Y-90193117D02*
X73272352Y-90150784D01*
X73272352Y-90150784D02*
X73187686Y-90108451D01*
X73187686Y-90108451D02*
X72933686Y-90108451D01*
X72933686Y-90108451D02*
X72849019Y-90150784D01*
X72849019Y-90150784D02*
X72806686Y-90193117D01*
X72806686Y-90193117D02*
X72764352Y-90277784D01*
X72764352Y-90277784D02*
X72764352Y-90447117D01*
X72764352Y-90447117D02*
X72806686Y-90531784D01*
X72764352Y-89600451D02*
X72806686Y-89685118D01*
X72806686Y-89685118D02*
X72891352Y-89727451D01*
X72891352Y-89727451D02*
X73653352Y-89727451D01*
X72806686Y-88923117D02*
X72764352Y-89007784D01*
X72764352Y-89007784D02*
X72764352Y-89177117D01*
X72764352Y-89177117D02*
X72806686Y-89261784D01*
X72806686Y-89261784D02*
X72891352Y-89304117D01*
X72891352Y-89304117D02*
X73230019Y-89304117D01*
X73230019Y-89304117D02*
X73314686Y-89261784D01*
X73314686Y-89261784D02*
X73357019Y-89177117D01*
X73357019Y-89177117D02*
X73357019Y-89007784D01*
X73357019Y-89007784D02*
X73314686Y-88923117D01*
X73314686Y-88923117D02*
X73230019Y-88880784D01*
X73230019Y-88880784D02*
X73145352Y-88880784D01*
X73145352Y-88880784D02*
X73060686Y-89304117D01*
X73695686Y-87864784D02*
X72552686Y-88626784D01*
X73018352Y-87610784D02*
X73018352Y-87187451D01*
X72764352Y-87695451D02*
X73653352Y-87399118D01*
X73653352Y-87399118D02*
X72764352Y-87102784D01*
X72764352Y-86425451D02*
X73653352Y-86425451D01*
X72806686Y-86425451D02*
X72764352Y-86510118D01*
X72764352Y-86510118D02*
X72764352Y-86679451D01*
X72764352Y-86679451D02*
X72806686Y-86764118D01*
X72806686Y-86764118D02*
X72849019Y-86806451D01*
X72849019Y-86806451D02*
X72933686Y-86848784D01*
X72933686Y-86848784D02*
X73187686Y-86848784D01*
X73187686Y-86848784D02*
X73272352Y-86806451D01*
X73272352Y-86806451D02*
X73314686Y-86764118D01*
X73314686Y-86764118D02*
X73357019Y-86679451D01*
X73357019Y-86679451D02*
X73357019Y-86510118D01*
X73357019Y-86510118D02*
X73314686Y-86425451D01*
X72764352Y-85621118D02*
X73230019Y-85621118D01*
X73230019Y-85621118D02*
X73314686Y-85663451D01*
X73314686Y-85663451D02*
X73357019Y-85748118D01*
X73357019Y-85748118D02*
X73357019Y-85917451D01*
X73357019Y-85917451D02*
X73314686Y-86002118D01*
X72806686Y-85621118D02*
X72764352Y-85705785D01*
X72764352Y-85705785D02*
X72764352Y-85917451D01*
X72764352Y-85917451D02*
X72806686Y-86002118D01*
X72806686Y-86002118D02*
X72891352Y-86044451D01*
X72891352Y-86044451D02*
X72976019Y-86044451D01*
X72976019Y-86044451D02*
X73060686Y-86002118D01*
X73060686Y-86002118D02*
X73103019Y-85917451D01*
X73103019Y-85917451D02*
X73103019Y-85705785D01*
X73103019Y-85705785D02*
X73145352Y-85621118D01*
X73357019Y-85197785D02*
X72468019Y-85197785D01*
X73314686Y-85197785D02*
X73357019Y-85113118D01*
X73357019Y-85113118D02*
X73357019Y-84943785D01*
X73357019Y-84943785D02*
X73314686Y-84859118D01*
X73314686Y-84859118D02*
X73272352Y-84816785D01*
X73272352Y-84816785D02*
X73187686Y-84774452D01*
X73187686Y-84774452D02*
X72933686Y-84774452D01*
X72933686Y-84774452D02*
X72849019Y-84816785D01*
X72849019Y-84816785D02*
X72806686Y-84859118D01*
X72806686Y-84859118D02*
X72764352Y-84943785D01*
X72764352Y-84943785D02*
X72764352Y-85113118D01*
X72764352Y-85113118D02*
X72806686Y-85197785D01*
X73357019Y-84520452D02*
X73357019Y-84181785D01*
X73653352Y-84393452D02*
X72891352Y-84393452D01*
X72891352Y-84393452D02*
X72806686Y-84351119D01*
X72806686Y-84351119D02*
X72764352Y-84266452D01*
X72764352Y-84266452D02*
X72764352Y-84181785D01*
X72764352Y-83758452D02*
X72806686Y-83843119D01*
X72806686Y-83843119D02*
X72849019Y-83885452D01*
X72849019Y-83885452D02*
X72933686Y-83927785D01*
X72933686Y-83927785D02*
X73187686Y-83927785D01*
X73187686Y-83927785D02*
X73272352Y-83885452D01*
X73272352Y-83885452D02*
X73314686Y-83843119D01*
X73314686Y-83843119D02*
X73357019Y-83758452D01*
X73357019Y-83758452D02*
X73357019Y-83631452D01*
X73357019Y-83631452D02*
X73314686Y-83546785D01*
X73314686Y-83546785D02*
X73272352Y-83504452D01*
X73272352Y-83504452D02*
X73187686Y-83462119D01*
X73187686Y-83462119D02*
X72933686Y-83462119D01*
X72933686Y-83462119D02*
X72849019Y-83504452D01*
X72849019Y-83504452D02*
X72806686Y-83546785D01*
X72806686Y-83546785D02*
X72764352Y-83631452D01*
X72764352Y-83631452D02*
X72764352Y-83758452D01*
X72764352Y-83081119D02*
X73357019Y-83081119D01*
X73187686Y-83081119D02*
X73272352Y-83038786D01*
X73272352Y-83038786D02*
X73314686Y-82996452D01*
X73314686Y-82996452D02*
X73357019Y-82911786D01*
X73357019Y-82911786D02*
X73357019Y-82827119D01*
X73357019Y-81938120D02*
X72764352Y-81726453D01*
X72764352Y-81726453D02*
X73357019Y-81514786D01*
X72764352Y-80710453D02*
X72764352Y-81218453D01*
X72764352Y-80964453D02*
X73653352Y-80964453D01*
X73653352Y-80964453D02*
X73526352Y-81049120D01*
X73526352Y-81049120D02*
X73441686Y-81133787D01*
X73441686Y-81133787D02*
X73399352Y-81218453D01*
X72849019Y-80329453D02*
X72806686Y-80287120D01*
X72806686Y-80287120D02*
X72764352Y-80329453D01*
X72764352Y-80329453D02*
X72806686Y-80371786D01*
X72806686Y-80371786D02*
X72849019Y-80329453D01*
X72849019Y-80329453D02*
X72764352Y-80329453D01*
X73653352Y-79736787D02*
X73653352Y-79652120D01*
X73653352Y-79652120D02*
X73611019Y-79567453D01*
X73611019Y-79567453D02*
X73568686Y-79525120D01*
X73568686Y-79525120D02*
X73484019Y-79482787D01*
X73484019Y-79482787D02*
X73314686Y-79440453D01*
X73314686Y-79440453D02*
X73103019Y-79440453D01*
X73103019Y-79440453D02*
X72933686Y-79482787D01*
X72933686Y-79482787D02*
X72849019Y-79525120D01*
X72849019Y-79525120D02*
X72806686Y-79567453D01*
X72806686Y-79567453D02*
X72764352Y-79652120D01*
X72764352Y-79652120D02*
X72764352Y-79736787D01*
X72764352Y-79736787D02*
X72806686Y-79821453D01*
X72806686Y-79821453D02*
X72849019Y-79863787D01*
X72849019Y-79863787D02*
X72933686Y-79906120D01*
X72933686Y-79906120D02*
X73103019Y-79948453D01*
X73103019Y-79948453D02*
X73314686Y-79948453D01*
X73314686Y-79948453D02*
X73484019Y-79906120D01*
X73484019Y-79906120D02*
X73568686Y-79863787D01*
X73568686Y-79863787D02*
X73611019Y-79821453D01*
X73611019Y-79821453D02*
X73653352Y-79736787D01*
D10*
D11*
X70817019Y-97178116D02*
X70774686Y-97220449D01*
X70774686Y-97220449D02*
X70732352Y-97347449D01*
X70732352Y-97347449D02*
X70732352Y-97432116D01*
X70732352Y-97432116D02*
X70774686Y-97559116D01*
X70774686Y-97559116D02*
X70859352Y-97643783D01*
X70859352Y-97643783D02*
X70944019Y-97686116D01*
X70944019Y-97686116D02*
X71113352Y-97728449D01*
X71113352Y-97728449D02*
X71240352Y-97728449D01*
X71240352Y-97728449D02*
X71409686Y-97686116D01*
X71409686Y-97686116D02*
X71494352Y-97643783D01*
X71494352Y-97643783D02*
X71579019Y-97559116D01*
X71579019Y-97559116D02*
X71621352Y-97432116D01*
X71621352Y-97432116D02*
X71621352Y-97347449D01*
X71621352Y-97347449D02*
X71579019Y-97220449D01*
X71579019Y-97220449D02*
X71536686Y-97178116D01*
X70732352Y-96670116D02*
X70774686Y-96754783D01*
X70774686Y-96754783D02*
X70817019Y-96797116D01*
X70817019Y-96797116D02*
X70901686Y-96839449D01*
X70901686Y-96839449D02*
X71155686Y-96839449D01*
X71155686Y-96839449D02*
X71240352Y-96797116D01*
X71240352Y-96797116D02*
X71282686Y-96754783D01*
X71282686Y-96754783D02*
X71325019Y-96670116D01*
X71325019Y-96670116D02*
X71325019Y-96543116D01*
X71325019Y-96543116D02*
X71282686Y-96458449D01*
X71282686Y-96458449D02*
X71240352Y-96416116D01*
X71240352Y-96416116D02*
X71155686Y-96373783D01*
X71155686Y-96373783D02*
X70901686Y-96373783D01*
X70901686Y-96373783D02*
X70817019Y-96416116D01*
X70817019Y-96416116D02*
X70774686Y-96458449D01*
X70774686Y-96458449D02*
X70732352Y-96543116D01*
X70732352Y-96543116D02*
X70732352Y-96670116D01*
X71325019Y-95992783D02*
X70436019Y-95992783D01*
X71282686Y-95992783D02*
X71325019Y-95908116D01*
X71325019Y-95908116D02*
X71325019Y-95738783D01*
X71325019Y-95738783D02*
X71282686Y-95654116D01*
X71282686Y-95654116D02*
X71240352Y-95611783D01*
X71240352Y-95611783D02*
X71155686Y-95569450D01*
X71155686Y-95569450D02*
X70901686Y-95569450D01*
X70901686Y-95569450D02*
X70817019Y-95611783D01*
X70817019Y-95611783D02*
X70774686Y-95654116D01*
X70774686Y-95654116D02*
X70732352Y-95738783D01*
X70732352Y-95738783D02*
X70732352Y-95908116D01*
X70732352Y-95908116D02*
X70774686Y-95992783D01*
X71325019Y-95273117D02*
X70732352Y-95061450D01*
X71325019Y-94849783D02*
X70732352Y-95061450D01*
X70732352Y-95061450D02*
X70520686Y-95146117D01*
X70520686Y-95146117D02*
X70478352Y-95188450D01*
X70478352Y-95188450D02*
X70436019Y-95273117D01*
X70732352Y-94511117D02*
X71325019Y-94511117D01*
X71155686Y-94511117D02*
X71240352Y-94468784D01*
X71240352Y-94468784D02*
X71282686Y-94426450D01*
X71282686Y-94426450D02*
X71325019Y-94341784D01*
X71325019Y-94341784D02*
X71325019Y-94257117D01*
X70732352Y-93960784D02*
X71325019Y-93960784D01*
X71621352Y-93960784D02*
X71579019Y-94003117D01*
X71579019Y-94003117D02*
X71536686Y-93960784D01*
X71536686Y-93960784D02*
X71579019Y-93918451D01*
X71579019Y-93918451D02*
X71621352Y-93960784D01*
X71621352Y-93960784D02*
X71536686Y-93960784D01*
X71325019Y-93156451D02*
X70605352Y-93156451D01*
X70605352Y-93156451D02*
X70520686Y-93198784D01*
X70520686Y-93198784D02*
X70478352Y-93241118D01*
X70478352Y-93241118D02*
X70436019Y-93325784D01*
X70436019Y-93325784D02*
X70436019Y-93452784D01*
X70436019Y-93452784D02*
X70478352Y-93537451D01*
X70774686Y-93156451D02*
X70732352Y-93241118D01*
X70732352Y-93241118D02*
X70732352Y-93410451D01*
X70732352Y-93410451D02*
X70774686Y-93495118D01*
X70774686Y-93495118D02*
X70817019Y-93537451D01*
X70817019Y-93537451D02*
X70901686Y-93579784D01*
X70901686Y-93579784D02*
X71155686Y-93579784D01*
X71155686Y-93579784D02*
X71240352Y-93537451D01*
X71240352Y-93537451D02*
X71282686Y-93495118D01*
X71282686Y-93495118D02*
X71325019Y-93410451D01*
X71325019Y-93410451D02*
X71325019Y-93241118D01*
X71325019Y-93241118D02*
X71282686Y-93156451D01*
X70732352Y-92733118D02*
X71621352Y-92733118D01*
X70732352Y-92352118D02*
X71198019Y-92352118D01*
X71198019Y-92352118D02*
X71282686Y-92394451D01*
X71282686Y-92394451D02*
X71325019Y-92479118D01*
X71325019Y-92479118D02*
X71325019Y-92606118D01*
X71325019Y-92606118D02*
X71282686Y-92690785D01*
X71282686Y-92690785D02*
X71240352Y-92733118D01*
X71325019Y-92055785D02*
X71325019Y-91717118D01*
X71621352Y-91928785D02*
X70859352Y-91928785D01*
X70859352Y-91928785D02*
X70774686Y-91886452D01*
X70774686Y-91886452D02*
X70732352Y-91801785D01*
X70732352Y-91801785D02*
X70732352Y-91717118D01*
X71536686Y-90785785D02*
X71579019Y-90743452D01*
X71579019Y-90743452D02*
X71621352Y-90658785D01*
X71621352Y-90658785D02*
X71621352Y-90447119D01*
X71621352Y-90447119D02*
X71579019Y-90362452D01*
X71579019Y-90362452D02*
X71536686Y-90320119D01*
X71536686Y-90320119D02*
X71452019Y-90277785D01*
X71452019Y-90277785D02*
X71367352Y-90277785D01*
X71367352Y-90277785D02*
X71240352Y-90320119D01*
X71240352Y-90320119D02*
X70732352Y-90828119D01*
X70732352Y-90828119D02*
X70732352Y-90277785D01*
X71621352Y-89727452D02*
X71621352Y-89642785D01*
X71621352Y-89642785D02*
X71579019Y-89558118D01*
X71579019Y-89558118D02*
X71536686Y-89515785D01*
X71536686Y-89515785D02*
X71452019Y-89473452D01*
X71452019Y-89473452D02*
X71282686Y-89431118D01*
X71282686Y-89431118D02*
X71071019Y-89431118D01*
X71071019Y-89431118D02*
X70901686Y-89473452D01*
X70901686Y-89473452D02*
X70817019Y-89515785D01*
X70817019Y-89515785D02*
X70774686Y-89558118D01*
X70774686Y-89558118D02*
X70732352Y-89642785D01*
X70732352Y-89642785D02*
X70732352Y-89727452D01*
X70732352Y-89727452D02*
X70774686Y-89812118D01*
X70774686Y-89812118D02*
X70817019Y-89854452D01*
X70817019Y-89854452D02*
X70901686Y-89896785D01*
X70901686Y-89896785D02*
X71071019Y-89939118D01*
X71071019Y-89939118D02*
X71282686Y-89939118D01*
X71282686Y-89939118D02*
X71452019Y-89896785D01*
X71452019Y-89896785D02*
X71536686Y-89854452D01*
X71536686Y-89854452D02*
X71579019Y-89812118D01*
X71579019Y-89812118D02*
X71621352Y-89727452D01*
X71536686Y-89092451D02*
X71579019Y-89050118D01*
X71579019Y-89050118D02*
X71621352Y-88965451D01*
X71621352Y-88965451D02*
X71621352Y-88753785D01*
X71621352Y-88753785D02*
X71579019Y-88669118D01*
X71579019Y-88669118D02*
X71536686Y-88626785D01*
X71536686Y-88626785D02*
X71452019Y-88584451D01*
X71452019Y-88584451D02*
X71367352Y-88584451D01*
X71367352Y-88584451D02*
X71240352Y-88626785D01*
X71240352Y-88626785D02*
X70732352Y-89134785D01*
X70732352Y-89134785D02*
X70732352Y-88584451D01*
X71621352Y-87780118D02*
X71621352Y-88203451D01*
X71621352Y-88203451D02*
X71198019Y-88245784D01*
X71198019Y-88245784D02*
X71240352Y-88203451D01*
X71240352Y-88203451D02*
X71282686Y-88118784D01*
X71282686Y-88118784D02*
X71282686Y-87907118D01*
X71282686Y-87907118D02*
X71240352Y-87822451D01*
X71240352Y-87822451D02*
X71198019Y-87780118D01*
X71198019Y-87780118D02*
X71113352Y-87737784D01*
X71113352Y-87737784D02*
X70901686Y-87737784D01*
X70901686Y-87737784D02*
X70817019Y-87780118D01*
X70817019Y-87780118D02*
X70774686Y-87822451D01*
X70774686Y-87822451D02*
X70732352Y-87907118D01*
X70732352Y-87907118D02*
X70732352Y-88118784D01*
X70732352Y-88118784D02*
X70774686Y-88203451D01*
X70774686Y-88203451D02*
X70817019Y-88245784D01*
X70774686Y-87314451D02*
X70732352Y-87314451D01*
X70732352Y-87314451D02*
X70647686Y-87356784D01*
X70647686Y-87356784D02*
X70605352Y-87399117D01*
X70986352Y-86298451D02*
X70986352Y-85875118D01*
X70732352Y-86383118D02*
X71621352Y-86086785D01*
X71621352Y-86086785D02*
X70732352Y-85790451D01*
X71198019Y-85494118D02*
X71198019Y-85197785D01*
X70732352Y-85070785D02*
X70732352Y-85494118D01*
X70732352Y-85494118D02*
X71621352Y-85494118D01*
X71621352Y-85494118D02*
X71621352Y-85070785D01*
X70774686Y-84732118D02*
X70732352Y-84605118D01*
X70732352Y-84605118D02*
X70732352Y-84393452D01*
X70732352Y-84393452D02*
X70774686Y-84308785D01*
X70774686Y-84308785D02*
X70817019Y-84266452D01*
X70817019Y-84266452D02*
X70901686Y-84224118D01*
X70901686Y-84224118D02*
X70986352Y-84224118D01*
X70986352Y-84224118D02*
X71071019Y-84266452D01*
X71071019Y-84266452D02*
X71113352Y-84308785D01*
X71113352Y-84308785D02*
X71155686Y-84393452D01*
X71155686Y-84393452D02*
X71198019Y-84562785D01*
X71198019Y-84562785D02*
X71240352Y-84647452D01*
X71240352Y-84647452D02*
X71282686Y-84689785D01*
X71282686Y-84689785D02*
X71367352Y-84732118D01*
X71367352Y-84732118D02*
X71452019Y-84732118D01*
X71452019Y-84732118D02*
X71536686Y-84689785D01*
X71536686Y-84689785D02*
X71579019Y-84647452D01*
X71579019Y-84647452D02*
X71621352Y-84562785D01*
X71621352Y-84562785D02*
X71621352Y-84351118D01*
X71621352Y-84351118D02*
X71579019Y-84224118D01*
X70732352Y-83843118D02*
X71325019Y-83843118D01*
X71621352Y-83843118D02*
X71579019Y-83885451D01*
X71579019Y-83885451D02*
X71536686Y-83843118D01*
X71536686Y-83843118D02*
X71579019Y-83800785D01*
X71579019Y-83800785D02*
X71621352Y-83843118D01*
X71621352Y-83843118D02*
X71536686Y-83843118D01*
X70732352Y-83292785D02*
X70774686Y-83377452D01*
X70774686Y-83377452D02*
X70859352Y-83419785D01*
X70859352Y-83419785D02*
X71621352Y-83419785D01*
X70732352Y-82954118D02*
X71621352Y-82954118D01*
X71071019Y-82869451D02*
X70732352Y-82615451D01*
X71325019Y-82615451D02*
X70986352Y-82954118D01*
X71325019Y-82319118D02*
X70732352Y-82107451D01*
X71325019Y-81895784D02*
X70732352Y-82107451D01*
X70732352Y-82107451D02*
X70520686Y-82192118D01*
X70520686Y-82192118D02*
X70478352Y-82234451D01*
X70478352Y-82234451D02*
X70436019Y-82319118D01*
D12*
%TO.P,J4,6,Pin_6*%
%TO.N,unconnected-(J4-Pin_6-Pad6)*%
X117652800Y-77470000D03*
%TO.P,J4,5,Pin_5*%
%TO.N,GND*%
X120192800Y-77470000D03*
%TO.P,J4,4,Pin_4*%
%TO.N,unconnected-(J4-Pin_4-Pad4)*%
X122732800Y-77470000D03*
%TO.P,J4,3,Pin_3*%
%TO.N,+5V*%
X125272801Y-77470000D03*
%TO.P,J4,2,Pin_2*%
%TO.N,+3.3V*%
X127812800Y-77470000D03*
D13*
%TO.P,J4,1,Pin_1*%
%TO.N,unconnected-(J4-Pin_1-Pad1)*%
X130352800Y-77470000D03*
%TD*%
D12*
%TO.P,J3,6,Pin_6*%
%TO.N,unconnected-(J3-Pin_6-Pad6)*%
X99872800Y-77470000D03*
%TO.P,J3,5,Pin_5*%
%TO.N,/RESET-*%
X102412800Y-77470000D03*
%TO.P,J3,4,Pin_4*%
%TO.N,/DISPSEL-*%
X104952800Y-77470000D03*
%TO.P,J3,3,Pin_3*%
%TO.N,/REGSEL*%
X107492801Y-77470000D03*
%TO.P,J3,2,Pin_2*%
%TO.N,/WR-*%
X110032800Y-77470000D03*
D13*
%TO.P,J3,1,Pin_1*%
%TO.N,/RD-*%
X112572800Y-77470000D03*
%TD*%
%TO.P,J1,1,Pin_1*%
%TO.N,unconnected-(J1-Pin_1-Pad1)*%
X139700000Y-125730000D03*
D12*
%TO.P,J1,2,Pin_2*%
%TO.N,unconnected-(J1-Pin_2-Pad2)*%
X137160000Y-125730000D03*
%TO.P,J1,3,Pin_3*%
%TO.N,/SPI_CLK*%
X134620001Y-125730000D03*
%TO.P,J1,4,Pin_4*%
%TO.N,/SPI_MISO*%
X132080000Y-125730000D03*
%TO.P,J1,5,Pin_5*%
%TO.N,/SPI_MOSI*%
X129540000Y-125730000D03*
%TO.P,J1,6,Pin_6*%
%TO.N,/SPI_SEL-*%
X127000000Y-125730000D03*
%TO.P,J1,7,Pin_7*%
%TO.N,/D1*%
X124460000Y-125730000D03*
%TO.P,J1,8,Pin_8*%
%TO.N,/D0*%
X121919999Y-125730000D03*
%TD*%
D13*
%TO.P,J5,1,Pin_1*%
%TO.N,GND*%
X88900000Y-139700000D03*
D12*
%TO.P,J5,2,Pin_2*%
X91440000Y-139700000D03*
%TO.P,J5,3,Pin_3*%
%TO.N,+5V*%
X93979999Y-139700000D03*
%TO.P,J5,4,Pin_4*%
%TO.N,/CONTV0*%
X96520000Y-139700000D03*
%TO.P,J5,5,Pin_5*%
%TO.N,/WR-*%
X99060000Y-139700000D03*
%TO.P,J5,6,Pin_6*%
%TO.N,/RD-*%
X101600000Y-139700000D03*
%TO.P,J5,7,Pin_7*%
%TO.N,/DISPSEL-*%
X104140000Y-139700000D03*
%TO.P,J5,8,Pin_8*%
%TO.N,/REGSEL*%
X106680001Y-139700000D03*
%TO.P,J5,9,Pin_9*%
%TO.N,/RESET-*%
X109220000Y-139700000D03*
%TO.P,J5,10,Pin_10*%
%TO.N,/D0*%
X111760000Y-139700000D03*
%TO.P,J5,11,Pin_11*%
%TO.N,/D1*%
X114300000Y-139700000D03*
%TO.P,J5,12,Pin_12*%
%TO.N,/D2*%
X116839999Y-139700000D03*
%TO.P,J5,13,Pin_13*%
%TO.N,/D3*%
X119380000Y-139700000D03*
%TO.P,J5,14,Pin_14*%
%TO.N,/D4*%
X121920000Y-139700000D03*
%TO.P,J5,15,Pin_15*%
%TO.N,/D5*%
X124460000Y-139700000D03*
%TO.P,J5,16,Pin_16*%
%TO.N,/D6*%
X126999999Y-139700000D03*
%TO.P,J5,17,Pin_17*%
%TO.N,/D7*%
X129540001Y-139700000D03*
%TO.P,J5,18,Pin_18*%
%TO.N,/FONT1*%
X132080000Y-139700000D03*
%TO.P,J5,19,Pin_19*%
%TO.N,/CONTPWR*%
X134620000Y-139700000D03*
%TO.P,J5,20,Pin_20*%
%TO.N,/BLPWR*%
X137160000Y-139700000D03*
%TO.P,J5,21,Pin_21*%
%TO.N,GND*%
X139699999Y-139700000D03*
%TO.P,J5,22,Pin_22*%
%TO.N,unconnected-(J5-Pin_22-Pad22)*%
X142240000Y-139700000D03*
%TD*%
D13*
%TO.P,J2,1,Pin_1*%
%TO.N,/D7*%
X117906800Y-125730000D03*
D12*
%TO.P,J2,2,Pin_2*%
%TO.N,/D6*%
X115366800Y-125730000D03*
%TO.P,J2,3,Pin_3*%
%TO.N,/D5*%
X112826801Y-125730000D03*
%TO.P,J2,4,Pin_4*%
%TO.N,/D4*%
X110286800Y-125730000D03*
%TO.P,J2,5,Pin_5*%
%TO.N,/D3*%
X107746800Y-125730000D03*
%TO.P,J2,6,Pin_6*%
%TO.N,/D2*%
X105206800Y-125730000D03*
%TO.P,J2,7,Pin_7*%
%TO.N,unconnected-(J2-Pin_7-Pad7)*%
X102666800Y-125730000D03*
%TO.P,J2,8,Pin_8*%
%TO.N,unconnected-(J2-Pin_8-Pad8)*%
X100126799Y-125730000D03*
%TD*%
D13*
%TO.P,J7,1,Pin_1*%
%TO.N,GND*%
X151130000Y-132080000D03*
D12*
%TO.P,J7,2,Pin_2*%
%TO.N,+5V*%
X151130000Y-129540000D03*
%TO.P,J7,3,Pin_3*%
%TO.N,/SPI_CLK*%
X151130000Y-127000001D03*
%TO.P,J7,4,Pin_4*%
%TO.N,/SPI_MISO*%
X151130000Y-124460000D03*
%TO.P,J7,5,Pin_5*%
%TO.N,/SPI_MOSI*%
X151130000Y-121920000D03*
%TO.P,J7,6,Pin_6*%
%TO.N,/SPI_SEL-*%
X151130000Y-119380000D03*
%TD*%
D14*
%TO.P,J8,1,Pin_1*%
%TO.N,GND*%
X79650000Y-138250000D03*
D15*
%TO.P,J8,2,Pin_2*%
%TO.N,+5V*%
X84650000Y-138250000D03*
%TD*%
D16*
%TO.P,C3,1*%
%TO.N,+5V*%
X73978780Y-132029200D03*
D17*
%TO.P,C3,2*%
%TO.N,GND*%
X71478780Y-132029200D03*
%TD*%
D13*
%TO.P,J6,1,Pin_1*%
%TO.N,GND*%
X104140000Y-130810000D03*
D12*
%TO.P,J6,2,Pin_2*%
%TO.N,+5V*%
X104140000Y-133350000D03*
%TO.P,J6,3,Pin_3*%
%TO.N,/CONTV0*%
X106680000Y-130810000D03*
%TO.P,J6,4,Pin_4*%
%TO.N,/WR-*%
X106680000Y-133350000D03*
%TO.P,J6,5,Pin_5*%
%TO.N,/RD-*%
X109219999Y-130810000D03*
%TO.P,J6,6,Pin_6*%
%TO.N,/DISPSEL-*%
X109220000Y-133350000D03*
%TO.P,J6,7,Pin_7*%
%TO.N,/REGSEL*%
X111760000Y-130810000D03*
%TO.P,J6,8,Pin_8*%
%TO.N,/RESET-*%
X111760000Y-133350000D03*
%TO.P,J6,9,Pin_9*%
%TO.N,/D0*%
X114300000Y-130810000D03*
%TO.P,J6,10,Pin_10*%
%TO.N,/D1*%
X114300000Y-133350000D03*
%TO.P,J6,11,Pin_11*%
%TO.N,/D2*%
X116840000Y-130810000D03*
%TO.P,J6,12,Pin_12*%
%TO.N,/D3*%
X116840000Y-133350000D03*
%TO.P,J6,13,Pin_13*%
%TO.N,/D4*%
X119380000Y-130810000D03*
%TO.P,J6,14,Pin_14*%
%TO.N,/D5*%
X119380000Y-133350000D03*
%TO.P,J6,15,Pin_15*%
%TO.N,/D6*%
X121920001Y-130810000D03*
%TO.P,J6,16,Pin_16*%
%TO.N,/D7*%
X121920000Y-133350000D03*
%TO.P,J6,17,Pin_17*%
%TO.N,/FONT1*%
X124460000Y-130810000D03*
%TO.P,J6,18,Pin_18*%
%TO.N,/CONTPWR*%
X124460000Y-133350000D03*
%TO.P,J6,19,Pin_19*%
%TO.N,/BLPWR*%
X127000000Y-130810000D03*
%TO.P,J6,20,Pin_20*%
%TO.N,GND*%
X127000000Y-133350000D03*
%TD*%
D18*
%TO.N,+5V*%
X94996000Y-136144000D03*
X94996000Y-130556000D03*
%TO.N,GND*%
X135890000Y-135890000D03*
X99568000Y-103124000D03*
X96266000Y-103124000D03*
X113284000Y-84074000D03*
X138430000Y-135890000D03*
X135900000Y-137100000D03*
X109982000Y-119380000D03*
X109982000Y-84074000D03*
X138440000Y-137100000D03*
X113284000Y-119380000D03*
%TO.N,/DISPSEL-*%
X98145600Y-128016000D03*
%TO.N,/REGSEL*%
X111633000Y-128295400D03*
%TO.N,/RESET-*%
X93980000Y-86106000D03*
%TO.N,/CONTV0*%
X96520000Y-136652000D03*
X96520000Y-130556000D03*
%TD*%
D19*
%TO.N,+5V*%
X94996000Y-130556000D02*
X94996000Y-136144000D01*
D20*
%TO.N,/D1*%
X114300000Y-139700000D02*
X114300000Y-133350000D01*
%TO.N,/SPI_SEL-*%
X133350000Y-119380000D02*
X151130000Y-119380000D01*
X127000000Y-125730000D02*
X133350000Y-119380000D01*
%TO.N,/SPI_MISO*%
X132080000Y-125730000D02*
X133350000Y-124460000D01*
X133350000Y-124460000D02*
X151130000Y-124460000D01*
%TO.N,/D0*%
X112992000Y-132118000D02*
X114300000Y-130810000D01*
X111760000Y-139700000D02*
X112992000Y-138468000D01*
X112992000Y-138468000D02*
X112992000Y-132118000D01*
%TO.N,/SPI_CLK*%
X148580001Y-129550000D02*
X151130000Y-127000001D01*
X134620001Y-128820001D02*
X135350000Y-129550000D01*
X134620001Y-125730000D02*
X134620001Y-128820001D01*
X135350000Y-129550000D02*
X148580001Y-129550000D01*
%TO.N,/SPI_MOSI*%
X129540000Y-125730000D02*
X133350000Y-121920000D01*
X133350000Y-121920000D02*
X151130000Y-121920000D01*
%TO.N,/D4*%
X118148000Y-132042000D02*
X119380000Y-130810000D01*
X121920000Y-139700000D02*
X118148000Y-135928000D01*
X118148000Y-135928000D02*
X118148000Y-132042000D01*
%TO.N,/D6*%
X126999999Y-139700000D02*
X126527688Y-139700000D01*
X120688000Y-132042001D02*
X121920001Y-130810000D01*
X120688000Y-133860312D02*
X120688000Y-132042001D01*
X126527688Y-139700000D02*
X120688000Y-133860312D01*
%TO.N,/D2*%
X116839999Y-139700000D02*
X115608000Y-138468001D01*
X115608000Y-129578000D02*
X116840000Y-130810000D01*
X105206800Y-125730000D02*
X109054800Y-129578000D01*
X115608000Y-132042000D02*
X116840000Y-130810000D01*
X115608000Y-138468001D02*
X115608000Y-132042000D01*
X109054800Y-129578000D02*
X115608000Y-129578000D01*
%TO.N,/D7*%
X126720601Y-136880600D02*
X125450600Y-136880600D01*
X125450600Y-136880600D02*
X121920000Y-133350000D01*
X129540001Y-139700000D02*
X126720601Y-136880600D01*
%TO.N,/D3*%
X116840000Y-137160000D02*
X116840000Y-133350000D01*
X119380000Y-139700000D02*
X116840000Y-137160000D01*
%TO.N,/D5*%
X119380000Y-132630167D02*
X119380000Y-133350000D01*
X113512600Y-125730000D02*
X112826801Y-125730000D01*
X124460000Y-139700000D02*
X119380000Y-134620000D01*
X112826801Y-125730000D02*
X116128801Y-129032000D01*
X116128801Y-129032000D02*
X119344312Y-129032000D01*
X120688001Y-130375689D02*
X120688001Y-131322166D01*
X120688001Y-131322166D02*
X119380000Y-132630167D01*
X119344312Y-129032000D02*
X120688001Y-130375689D01*
X119380000Y-134620000D02*
X119380000Y-133350000D01*
%TO.N,/WR-*%
X99060000Y-139700000D02*
X100292000Y-138468000D01*
X101562000Y-138468000D02*
X106680000Y-133350000D01*
X100292000Y-138468000D02*
X101562000Y-138468000D01*
%TO.N,/DISPSEL-*%
X109220000Y-134620000D02*
X109220000Y-133350000D01*
X98044000Y-84328000D02*
X104902000Y-77470000D01*
X104140000Y-139700000D02*
X109220000Y-134620000D01*
X98145600Y-128016000D02*
X98044000Y-127914400D01*
X98044000Y-127914400D02*
X98044000Y-84328000D01*
%TO.N,/REGSEL*%
X110452000Y-132118000D02*
X111760000Y-130810000D01*
X110452000Y-135928001D02*
X110452000Y-132118000D01*
X111594801Y-81622800D02*
X111594801Y-82384800D01*
X111594801Y-82384800D02*
X111594801Y-128257201D01*
X107442001Y-77470000D02*
X111594801Y-81622800D01*
X111594801Y-128257201D02*
X111633000Y-128295400D01*
X106680001Y-139700000D02*
X110452000Y-135928001D01*
%TO.N,/RD-*%
X107988000Y-133784312D02*
X107988000Y-132041999D01*
X101600000Y-139700000D02*
X102072312Y-139700000D01*
X107988000Y-132041999D02*
X109219999Y-130810000D01*
X102072312Y-139700000D02*
X107988000Y-133784312D01*
%TO.N,/RESET-*%
X93980000Y-85750400D02*
X102260400Y-77470000D01*
X109220000Y-139700000D02*
X111760000Y-137160000D01*
X102362000Y-78130400D02*
X102362000Y-77470000D01*
X93980000Y-86106000D02*
X93980000Y-85750400D01*
X111760000Y-137160000D02*
X111760000Y-133350000D01*
X102260400Y-77470000D02*
X102362000Y-77470000D01*
%TO.N,/CONTV0*%
X96520000Y-136652000D02*
X96520000Y-130556000D01*
%TO.N,/CONTPWR*%
X125849480Y-134739480D02*
X124460000Y-133350000D01*
X134620000Y-139700000D02*
X129659480Y-134739480D01*
X129659480Y-134739480D02*
X125849480Y-134739480D01*
%TO.N,/FONT1*%
X125079888Y-135712200D02*
X123228000Y-133860312D01*
X123228000Y-133860312D02*
X123228000Y-132042000D01*
X128092200Y-135712200D02*
X125079888Y-135712200D01*
X132080000Y-139700000D02*
X128092200Y-135712200D01*
X123228000Y-132042000D02*
X124460000Y-130810000D01*
D19*
%TO.N,/BLPWR*%
X137160000Y-135260000D02*
X132710000Y-130810000D01*
X137160000Y-139700000D02*
X137160000Y-135260000D01*
X132710000Y-130810000D02*
X127000000Y-130810000D01*
%TD*%
%TA.AperFunction,Conductor*%
%TO.N,GND*%
G36*
X132413152Y-131584185D02*
G01*
X132433794Y-131600819D01*
X136369181Y-135536205D01*
X136402666Y-135597528D01*
X136405500Y-135623886D01*
X136405500Y-138515685D01*
X136385815Y-138582724D01*
X136354387Y-138616001D01*
X136300058Y-138655473D01*
X136280205Y-138669898D01*
X136129890Y-138820213D01*
X136004949Y-138992182D01*
X136000484Y-139000946D01*
X135952509Y-139051742D01*
X135884688Y-139068536D01*
X135818553Y-139045998D01*
X135779516Y-139000946D01*
X135775050Y-138992182D01*
X135650109Y-138820213D01*
X135499786Y-138669890D01*
X135327820Y-138544951D01*
X135138414Y-138448444D01*
X135138413Y-138448443D01*
X135138412Y-138448443D01*
X134936243Y-138382754D01*
X134936241Y-138382753D01*
X134936240Y-138382753D01*
X134774957Y-138357208D01*
X134726287Y-138349500D01*
X134513713Y-138349500D01*
X134458512Y-138358243D01*
X134303755Y-138382754D01*
X134290293Y-138387128D01*
X134220451Y-138389122D01*
X134164296Y-138356877D01*
X130059491Y-134252071D01*
X130059486Y-134252067D01*
X130015354Y-134222580D01*
X130015355Y-134222580D01*
X130011481Y-134219992D01*
X129956713Y-134183397D01*
X129923264Y-134169542D01*
X129916312Y-134166662D01*
X129916308Y-134166660D01*
X129842515Y-134136094D01*
X129842507Y-134136092D01*
X129721287Y-134111980D01*
X129721283Y-134111980D01*
X128329242Y-134111980D01*
X128262203Y-134092295D01*
X128216448Y-134039491D01*
X128206504Y-133970333D01*
X128218757Y-133931685D01*
X128251095Y-133868217D01*
X128316757Y-133666130D01*
X128316757Y-133666127D01*
X128350000Y-133456246D01*
X128350000Y-133243753D01*
X128316757Y-133033872D01*
X128316757Y-133033869D01*
X128251095Y-132831782D01*
X128154624Y-132642449D01*
X128115270Y-132588282D01*
X128115269Y-132588282D01*
X127482962Y-133220589D01*
X127465925Y-133157007D01*
X127400099Y-133042993D01*
X127307007Y-132949901D01*
X127192993Y-132884075D01*
X127129409Y-132867037D01*
X127761716Y-132234728D01*
X127707547Y-132195373D01*
X127707547Y-132195372D01*
X127698500Y-132190763D01*
X127647706Y-132142788D01*
X127630912Y-132074966D01*
X127653451Y-132008832D01*
X127698508Y-131969793D01*
X127707816Y-131965051D01*
X127794471Y-131902093D01*
X127879786Y-131840109D01*
X127879788Y-131840106D01*
X127879792Y-131840104D01*
X128030104Y-131689792D01*
X128083996Y-131615614D01*
X128139326Y-131572949D01*
X128184315Y-131564500D01*
X132346113Y-131564500D01*
X132413152Y-131584185D01*
G37*
%TD.AperFunction*%
%TA.AperFunction,Conductor*%
G36*
X125801444Y-131463999D02*
G01*
X125840486Y-131509056D01*
X125844951Y-131517820D01*
X125969890Y-131689786D01*
X126120213Y-131840109D01*
X126292179Y-131965048D01*
X126292181Y-131965049D01*
X126292184Y-131965051D01*
X126301493Y-131969794D01*
X126352290Y-132017766D01*
X126369087Y-132085587D01*
X126346552Y-132151722D01*
X126301505Y-132190760D01*
X126292446Y-132195376D01*
X126292440Y-132195380D01*
X126238282Y-132234727D01*
X126238282Y-132234728D01*
X126870591Y-132867037D01*
X126807007Y-132884075D01*
X126692993Y-132949901D01*
X126599901Y-133042993D01*
X126534075Y-133157007D01*
X126517037Y-133220591D01*
X125884728Y-132588282D01*
X125884727Y-132588282D01*
X125845380Y-132642440D01*
X125845376Y-132642446D01*
X125840760Y-132651505D01*
X125792781Y-132702297D01*
X125724959Y-132719087D01*
X125658826Y-132696543D01*
X125619794Y-132651493D01*
X125615051Y-132642184D01*
X125615049Y-132642181D01*
X125615048Y-132642179D01*
X125490109Y-132470213D01*
X125339786Y-132319890D01*
X125167820Y-132194951D01*
X125167115Y-132194591D01*
X125159054Y-132190485D01*
X125108259Y-132142512D01*
X125091463Y-132074692D01*
X125113999Y-132008556D01*
X125159054Y-131969515D01*
X125167816Y-131965051D01*
X125189789Y-131949086D01*
X125339786Y-131840109D01*
X125339788Y-131840106D01*
X125339792Y-131840104D01*
X125490104Y-131689792D01*
X125490106Y-131689788D01*
X125490109Y-131689786D01*
X125615048Y-131517820D01*
X125615047Y-131517820D01*
X125615051Y-131517816D01*
X125619514Y-131509054D01*
X125667488Y-131458259D01*
X125735308Y-131441463D01*
X125801444Y-131463999D01*
G37*
%TD.AperFunction*%
%TA.AperFunction,Conductor*%
G36*
X106294240Y-78123996D02*
G01*
X106333284Y-78169052D01*
X106337750Y-78177817D01*
X106462691Y-78349786D01*
X106613014Y-78500109D01*
X106784980Y-78625048D01*
X106784982Y-78625049D01*
X106784985Y-78625051D01*
X106974389Y-78721557D01*
X107176558Y-78787246D01*
X107386514Y-78820500D01*
X107386515Y-78820500D01*
X107599087Y-78820500D01*
X107599088Y-78820500D01*
X107800841Y-78788545D01*
X107870133Y-78797499D01*
X107907919Y-78823337D01*
X110930982Y-81846400D01*
X110964467Y-81907723D01*
X110967301Y-81934081D01*
X110967301Y-124360437D01*
X110947616Y-124427476D01*
X110894812Y-124473231D01*
X110825654Y-124483175D01*
X110804983Y-124478368D01*
X110603040Y-124412753D01*
X110439663Y-124386877D01*
X110393087Y-124379500D01*
X110180513Y-124379500D01*
X110133937Y-124386877D01*
X109970560Y-124412753D01*
X109768385Y-124478444D01*
X109578979Y-124574951D01*
X109407013Y-124699890D01*
X109256690Y-124850213D01*
X109131749Y-125022182D01*
X109127284Y-125030946D01*
X109079309Y-125081742D01*
X109011488Y-125098536D01*
X108945353Y-125075998D01*
X108906316Y-125030946D01*
X108901850Y-125022182D01*
X108776909Y-124850213D01*
X108626586Y-124699890D01*
X108454620Y-124574951D01*
X108265214Y-124478444D01*
X108265213Y-124478443D01*
X108265212Y-124478443D01*
X108063043Y-124412754D01*
X108063041Y-124412753D01*
X108063040Y-124412753D01*
X107899663Y-124386877D01*
X107853087Y-124379500D01*
X107640513Y-124379500D01*
X107593937Y-124386877D01*
X107430560Y-124412753D01*
X107228385Y-124478444D01*
X107038979Y-124574951D01*
X106867013Y-124699890D01*
X106716690Y-124850213D01*
X106591749Y-125022182D01*
X106587284Y-125030946D01*
X106539309Y-125081742D01*
X106471488Y-125098536D01*
X106405353Y-125075998D01*
X106366316Y-125030946D01*
X106361850Y-125022182D01*
X106236909Y-124850213D01*
X106086586Y-124699890D01*
X105914620Y-124574951D01*
X105725214Y-124478444D01*
X105725213Y-124478443D01*
X105725212Y-124478443D01*
X105523043Y-124412754D01*
X105523041Y-124412753D01*
X105523040Y-124412753D01*
X105359663Y-124386877D01*
X105313087Y-124379500D01*
X105100513Y-124379500D01*
X105053937Y-124386877D01*
X104890560Y-124412753D01*
X104688385Y-124478444D01*
X104498979Y-124574951D01*
X104327013Y-124699890D01*
X104176690Y-124850213D01*
X104051749Y-125022182D01*
X104047284Y-125030946D01*
X103999309Y-125081742D01*
X103931488Y-125098536D01*
X103865353Y-125075998D01*
X103826316Y-125030946D01*
X103821850Y-125022182D01*
X103696909Y-124850213D01*
X103546586Y-124699890D01*
X103374620Y-124574951D01*
X103185214Y-124478444D01*
X103185213Y-124478443D01*
X103185212Y-124478443D01*
X102983043Y-124412754D01*
X102983041Y-124412753D01*
X102983040Y-124412753D01*
X102819663Y-124386877D01*
X102773087Y-124379500D01*
X102560513Y-124379500D01*
X102513937Y-124386877D01*
X102350560Y-124412753D01*
X102148385Y-124478444D01*
X101958979Y-124574951D01*
X101787013Y-124699890D01*
X101636690Y-124850213D01*
X101511748Y-125022184D01*
X101511746Y-125022187D01*
X101507281Y-125030950D01*
X101459305Y-125081744D01*
X101391483Y-125098537D01*
X101325349Y-125075997D01*
X101286313Y-125030944D01*
X101286312Y-125030942D01*
X101281850Y-125022184D01*
X101281848Y-125022181D01*
X101281847Y-125022179D01*
X101156908Y-124850213D01*
X101006585Y-124699890D01*
X100834619Y-124574951D01*
X100645213Y-124478444D01*
X100645212Y-124478443D01*
X100645211Y-124478443D01*
X100443042Y-124412754D01*
X100443040Y-124412753D01*
X100443039Y-124412753D01*
X100279662Y-124386877D01*
X100233086Y-124379500D01*
X100020512Y-124379500D01*
X99973936Y-124386877D01*
X99810559Y-124412753D01*
X99608384Y-124478444D01*
X99418978Y-124574951D01*
X99247012Y-124699890D01*
X99096689Y-124850213D01*
X98971750Y-125022180D01*
X98905985Y-125151251D01*
X98858010Y-125202047D01*
X98790189Y-125218842D01*
X98724054Y-125196305D01*
X98680603Y-125141589D01*
X98671500Y-125094956D01*
X98671500Y-84639280D01*
X98691185Y-84572241D01*
X98707814Y-84551604D01*
X104458756Y-78800661D01*
X104520077Y-78767178D01*
X104584751Y-78770412D01*
X104636557Y-78787246D01*
X104846513Y-78820500D01*
X104846514Y-78820500D01*
X105059086Y-78820500D01*
X105059087Y-78820500D01*
X105269043Y-78787246D01*
X105471212Y-78721557D01*
X105660616Y-78625051D01*
X105746938Y-78562335D01*
X105832586Y-78500109D01*
X105832588Y-78500106D01*
X105832592Y-78500104D01*
X105982904Y-78349792D01*
X105982906Y-78349788D01*
X105982909Y-78349786D01*
X106107848Y-78177821D01*
X106107988Y-78177547D01*
X106112313Y-78169056D01*
X106160284Y-78118260D01*
X106228104Y-78101462D01*
X106294240Y-78123996D01*
G37*
%TD.AperFunction*%
%TA.AperFunction,Conductor*%
G36*
X152343039Y-72409685D02*
G01*
X152388794Y-72462489D01*
X152400000Y-72514000D01*
X152400000Y-118448763D01*
X152380315Y-118515802D01*
X152327511Y-118561557D01*
X152258353Y-118571501D01*
X152194797Y-118542476D01*
X152175682Y-118521648D01*
X152160109Y-118500214D01*
X152160105Y-118500209D01*
X152009786Y-118349890D01*
X151837820Y-118224951D01*
X151648414Y-118128444D01*
X151648413Y-118128443D01*
X151648412Y-118128443D01*
X151446243Y-118062754D01*
X151446241Y-118062753D01*
X151446240Y-118062753D01*
X151284957Y-118037208D01*
X151236287Y-118029500D01*
X151023713Y-118029500D01*
X150975042Y-118037208D01*
X150813760Y-118062753D01*
X150611585Y-118128444D01*
X150422179Y-118224951D01*
X150250213Y-118349890D01*
X150099890Y-118500213D01*
X149974949Y-118672181D01*
X149968525Y-118684792D01*
X149920552Y-118735589D01*
X149858039Y-118752500D01*
X133288195Y-118752500D01*
X133166970Y-118776613D01*
X133166960Y-118776616D01*
X133052773Y-118823913D01*
X133052760Y-118823920D01*
X132949992Y-118892588D01*
X132949988Y-118892591D01*
X127455702Y-124386877D01*
X127394379Y-124420362D01*
X127329707Y-124417128D01*
X127316245Y-124412754D01*
X127316240Y-124412753D01*
X127152863Y-124386877D01*
X127106287Y-124379500D01*
X126893713Y-124379500D01*
X126847137Y-124386877D01*
X126683760Y-124412753D01*
X126481585Y-124478444D01*
X126292179Y-124574951D01*
X126120213Y-124699890D01*
X125969890Y-124850213D01*
X125844949Y-125022182D01*
X125840484Y-125030946D01*
X125792509Y-125081742D01*
X125724688Y-125098536D01*
X125658553Y-125075998D01*
X125619516Y-125030946D01*
X125615050Y-125022182D01*
X125490109Y-124850213D01*
X125339786Y-124699890D01*
X125167820Y-124574951D01*
X124978414Y-124478444D01*
X124978413Y-124478443D01*
X124978412Y-124478443D01*
X124776243Y-124412754D01*
X124776241Y-124412753D01*
X124776240Y-124412753D01*
X124612863Y-124386877D01*
X124566287Y-124379500D01*
X124353713Y-124379500D01*
X124307137Y-124386877D01*
X124143760Y-124412753D01*
X123941585Y-124478444D01*
X123752179Y-124574951D01*
X123580213Y-124699890D01*
X123429890Y-124850213D01*
X123304948Y-125022184D01*
X123304946Y-125022187D01*
X123300481Y-125030950D01*
X123252505Y-125081744D01*
X123184683Y-125098537D01*
X123118549Y-125075997D01*
X123079513Y-125030944D01*
X123079512Y-125030942D01*
X123075050Y-125022184D01*
X123075048Y-125022181D01*
X123075047Y-125022179D01*
X122950108Y-124850213D01*
X122799785Y-124699890D01*
X122627819Y-124574951D01*
X122438413Y-124478444D01*
X122438412Y-124478443D01*
X122438411Y-124478443D01*
X122236242Y-124412754D01*
X122236240Y-124412753D01*
X122236239Y-124412753D01*
X122072862Y-124386877D01*
X122026286Y-124379500D01*
X121813712Y-124379500D01*
X121767136Y-124386877D01*
X121603759Y-124412753D01*
X121401584Y-124478444D01*
X121212178Y-124574951D01*
X121040212Y-124699890D01*
X120889889Y-124850213D01*
X120764950Y-125022179D01*
X120668443Y-125211585D01*
X120602752Y-125413760D01*
X120590660Y-125490109D01*
X120569499Y-125623713D01*
X120569499Y-125836287D01*
X120602753Y-126046243D01*
X120649999Y-126191652D01*
X120668443Y-126248414D01*
X120764950Y-126437820D01*
X120889889Y-126609786D01*
X121040212Y-126760109D01*
X121212178Y-126885048D01*
X121212180Y-126885049D01*
X121212183Y-126885051D01*
X121401587Y-126981557D01*
X121603756Y-127047246D01*
X121813712Y-127080500D01*
X121813713Y-127080500D01*
X122026285Y-127080500D01*
X122026286Y-127080500D01*
X122236242Y-127047246D01*
X122438411Y-126981557D01*
X122627815Y-126885051D01*
X122714137Y-126822335D01*
X122799785Y-126760109D01*
X122799787Y-126760106D01*
X122799791Y-126760104D01*
X122950103Y-126609792D01*
X122950105Y-126609788D01*
X122950108Y-126609786D01*
X123075047Y-126437821D01*
X123075050Y-126437816D01*
X123079512Y-126429056D01*
X123127483Y-126378260D01*
X123195303Y-126361462D01*
X123261439Y-126383996D01*
X123300483Y-126429052D01*
X123304949Y-126437817D01*
X123429890Y-126609786D01*
X123580213Y-126760109D01*
X123752179Y-126885048D01*
X123752181Y-126885049D01*
X123752184Y-126885051D01*
X123941588Y-126981557D01*
X124143757Y-127047246D01*
X124353713Y-127080500D01*
X124353714Y-127080500D01*
X124566286Y-127080500D01*
X124566287Y-127080500D01*
X124776243Y-127047246D01*
X124978412Y-126981557D01*
X125167816Y-126885051D01*
X125254138Y-126822335D01*
X125339786Y-126760109D01*
X125339788Y-126760106D01*
X125339792Y-126760104D01*
X125490104Y-126609792D01*
X125490106Y-126609788D01*
X125490109Y-126609786D01*
X125615048Y-126437820D01*
X125615050Y-126437817D01*
X125615051Y-126437816D01*
X125619514Y-126429054D01*
X125667488Y-126378259D01*
X125735308Y-126361463D01*
X125801444Y-126383999D01*
X125840484Y-126429054D01*
X125844591Y-126437115D01*
X125844951Y-126437820D01*
X125969890Y-126609786D01*
X126120213Y-126760109D01*
X126292179Y-126885048D01*
X126292181Y-126885049D01*
X126292184Y-126885051D01*
X126481588Y-126981557D01*
X126683757Y-127047246D01*
X126893713Y-127080500D01*
X126893714Y-127080500D01*
X127106286Y-127080500D01*
X127106287Y-127080500D01*
X127316243Y-127047246D01*
X127518412Y-126981557D01*
X127707816Y-126885051D01*
X127794138Y-126822335D01*
X127879786Y-126760109D01*
X127879788Y-126760106D01*
X127879792Y-126760104D01*
X128030104Y-126609792D01*
X128030106Y-126609788D01*
X128030109Y-126609786D01*
X128155048Y-126437820D01*
X128155050Y-126437817D01*
X128155051Y-126437816D01*
X128159514Y-126429054D01*
X128207488Y-126378259D01*
X128275308Y-126361463D01*
X128341444Y-126383999D01*
X128380484Y-126429054D01*
X128384591Y-126437115D01*
X128384951Y-126437820D01*
X128509890Y-126609786D01*
X128660213Y-126760109D01*
X128832179Y-126885048D01*
X128832181Y-126885049D01*
X128832184Y-126885051D01*
X129021588Y-126981557D01*
X129223757Y-127047246D01*
X129433713Y-127080500D01*
X129433714Y-127080500D01*
X129646286Y-127080500D01*
X129646287Y-127080500D01*
X129856243Y-127047246D01*
X130058412Y-126981557D01*
X130247816Y-126885051D01*
X130334138Y-126822335D01*
X130419786Y-126760109D01*
X130419788Y-126760106D01*
X130419792Y-126760104D01*
X130570104Y-126609792D01*
X130570106Y-126609788D01*
X130570109Y-126609786D01*
X130695048Y-126437820D01*
X130695050Y-126437817D01*
X130695051Y-126437816D01*
X130699514Y-126429054D01*
X130747488Y-126378259D01*
X130815308Y-126361463D01*
X130881444Y-126383999D01*
X130920484Y-126429054D01*
X130924591Y-126437115D01*
X130924951Y-126437820D01*
X131049890Y-126609786D01*
X131200213Y-126760109D01*
X131372179Y-126885048D01*
X131372181Y-126885049D01*
X131372184Y-126885051D01*
X131561588Y-126981557D01*
X131763757Y-127047246D01*
X131973713Y-127080500D01*
X131973714Y-127080500D01*
X132186286Y-127080500D01*
X132186287Y-127080500D01*
X132396243Y-127047246D01*
X132598412Y-126981557D01*
X132787816Y-126885051D01*
X132874138Y-126822335D01*
X132959786Y-126760109D01*
X132959788Y-126760106D01*
X132959792Y-126760104D01*
X133110104Y-126609792D01*
X133110106Y-126609788D01*
X133110109Y-126609786D01*
X133235048Y-126437821D01*
X133235051Y-126437816D01*
X133239513Y-126429056D01*
X133287484Y-126378260D01*
X133355304Y-126361462D01*
X133421440Y-126383996D01*
X133460484Y-126429052D01*
X133464950Y-126437817D01*
X133589891Y-126609786D01*
X133589897Y-126609792D01*
X133740209Y-126760104D01*
X133912185Y-126885051D01*
X133912189Y-126885053D01*
X133912196Y-126885057D01*
X133924791Y-126891474D01*
X133975589Y-126939446D01*
X133992501Y-127001961D01*
X133992501Y-128881808D01*
X134016613Y-129003028D01*
X134016615Y-129003036D01*
X134041283Y-129062589D01*
X134063916Y-129117230D01*
X134063921Y-129117240D01*
X134132589Y-129220008D01*
X134132592Y-129220012D01*
X134515390Y-129602809D01*
X134862589Y-129950008D01*
X134949992Y-130037411D01*
X134991897Y-130065411D01*
X135052767Y-130106083D01*
X135052769Y-130106084D01*
X135052773Y-130106086D01*
X135166960Y-130153383D01*
X135166965Y-130153385D01*
X135166969Y-130153385D01*
X135166970Y-130153386D01*
X135288193Y-130177500D01*
X135288196Y-130177500D01*
X148641805Y-130177500D01*
X148641806Y-130177499D01*
X148763036Y-130153386D01*
X148843785Y-130119937D01*
X148877234Y-130106083D01*
X148980009Y-130037411D01*
X149067412Y-129950008D01*
X149567819Y-129449599D01*
X149629142Y-129416115D01*
X149698833Y-129421099D01*
X149754767Y-129462970D01*
X149779184Y-129528435D01*
X149779500Y-129537281D01*
X149779500Y-129646287D01*
X149784472Y-129677680D01*
X149804027Y-129801147D01*
X149812754Y-129856243D01*
X149871620Y-130037414D01*
X149878444Y-130058414D01*
X149974951Y-130247820D01*
X150099890Y-130419786D01*
X150213818Y-130533714D01*
X150247303Y-130595037D01*
X150242319Y-130664729D01*
X150200447Y-130720662D01*
X150169471Y-130737577D01*
X150037912Y-130786646D01*
X150037906Y-130786649D01*
X149922812Y-130872809D01*
X149922809Y-130872812D01*
X149836649Y-130987906D01*
X149836645Y-130987913D01*
X149786403Y-131122620D01*
X149786401Y-131122627D01*
X149780000Y-131182155D01*
X149780000Y-131830000D01*
X150696988Y-131830000D01*
X150664075Y-131887007D01*
X150630000Y-132014174D01*
X150630000Y-132145826D01*
X150664075Y-132272993D01*
X150696988Y-132330000D01*
X149780000Y-132330000D01*
X149780000Y-132977844D01*
X149786401Y-133037372D01*
X149786403Y-133037379D01*
X149836645Y-133172086D01*
X149836649Y-133172093D01*
X149922809Y-133287187D01*
X149922812Y-133287190D01*
X150037906Y-133373350D01*
X150037913Y-133373354D01*
X150172620Y-133423596D01*
X150172627Y-133423598D01*
X150232155Y-133429999D01*
X150232172Y-133430000D01*
X150880000Y-133430000D01*
X150880000Y-132513012D01*
X150937007Y-132545925D01*
X151064174Y-132580000D01*
X151195826Y-132580000D01*
X151322993Y-132545925D01*
X151380000Y-132513012D01*
X151380000Y-133430000D01*
X152027828Y-133430000D01*
X152027844Y-133429999D01*
X152087372Y-133423598D01*
X152087379Y-133423596D01*
X152230399Y-133370254D01*
X152231470Y-133373127D01*
X152284822Y-133361511D01*
X152350291Y-133385915D01*
X152392173Y-133441841D01*
X152400000Y-133485197D01*
X152400000Y-142116000D01*
X152380315Y-142183039D01*
X152327511Y-142228794D01*
X152276000Y-142240000D01*
X69974000Y-142240000D01*
X69906961Y-142220315D01*
X69861206Y-142167511D01*
X69850000Y-142116000D01*
X69850000Y-138578711D01*
X71549500Y-138578711D01*
X71549500Y-138821288D01*
X71581161Y-139061785D01*
X71643947Y-139296104D01*
X71684080Y-139392993D01*
X71736776Y-139520212D01*
X71858064Y-139730289D01*
X71858066Y-139730292D01*
X71858067Y-139730293D01*
X72005733Y-139922736D01*
X72005739Y-139922743D01*
X72177256Y-140094260D01*
X72177262Y-140094265D01*
X72369711Y-140241936D01*
X72579788Y-140363224D01*
X72803900Y-140456054D01*
X73038211Y-140518838D01*
X73218586Y-140542584D01*
X73278711Y-140550500D01*
X73278712Y-140550500D01*
X73521289Y-140550500D01*
X73569388Y-140544167D01*
X73761789Y-140518838D01*
X73996100Y-140456054D01*
X74220212Y-140363224D01*
X74430289Y-140241936D01*
X74622738Y-140094265D01*
X74794265Y-139922738D01*
X74941936Y-139730289D01*
X75063224Y-139520212D01*
X75156054Y-139296100D01*
X75218838Y-139061789D01*
X75250500Y-138821288D01*
X75250500Y-138578712D01*
X75218838Y-138338211D01*
X75156054Y-138103900D01*
X75063224Y-137879788D01*
X74941936Y-137669711D01*
X74837418Y-137533500D01*
X74794266Y-137477263D01*
X74794260Y-137477256D01*
X74622743Y-137305739D01*
X74622736Y-137305733D01*
X74430293Y-137158067D01*
X74430292Y-137158066D01*
X74430289Y-137158064D01*
X74220212Y-137036776D01*
X74220205Y-137036773D01*
X74136630Y-137002155D01*
X77950000Y-137002155D01*
X77950000Y-138000000D01*
X79101518Y-138000000D01*
X79090889Y-138018409D01*
X79050000Y-138171009D01*
X79050000Y-138328991D01*
X79090889Y-138481591D01*
X79101518Y-138500000D01*
X77950000Y-138500000D01*
X77950000Y-139497844D01*
X77956401Y-139557372D01*
X77956403Y-139557379D01*
X78006645Y-139692086D01*
X78006649Y-139692093D01*
X78092809Y-139807187D01*
X78092812Y-139807190D01*
X78207906Y-139893350D01*
X78207913Y-139893354D01*
X78342620Y-139943596D01*
X78342627Y-139943598D01*
X78402155Y-139949999D01*
X78402172Y-139950000D01*
X79400000Y-139950000D01*
X79400000Y-138798482D01*
X79418409Y-138809111D01*
X79571009Y-138850000D01*
X79728991Y-138850000D01*
X79881591Y-138809111D01*
X79900000Y-138798482D01*
X79900000Y-139950000D01*
X80897828Y-139950000D01*
X80897844Y-139949999D01*
X80957372Y-139943598D01*
X80957379Y-139943596D01*
X81092086Y-139893354D01*
X81092093Y-139893350D01*
X81207187Y-139807190D01*
X81207190Y-139807187D01*
X81293350Y-139692093D01*
X81293354Y-139692086D01*
X81343596Y-139557379D01*
X81343598Y-139557372D01*
X81349999Y-139497844D01*
X81350000Y-139497827D01*
X81350000Y-138500000D01*
X80198482Y-138500000D01*
X80209111Y-138481591D01*
X80250000Y-138328991D01*
X80250000Y-138171009D01*
X80241302Y-138138549D01*
X82949500Y-138138549D01*
X82949500Y-138361450D01*
X82949501Y-138361466D01*
X82978594Y-138582452D01*
X82978595Y-138582457D01*
X82978596Y-138582463D01*
X83036290Y-138797780D01*
X83036293Y-138797790D01*
X83120443Y-139000946D01*
X83121595Y-139003726D01*
X83233052Y-139196774D01*
X83233057Y-139196780D01*
X83233058Y-139196782D01*
X83368751Y-139373622D01*
X83368757Y-139373629D01*
X83526370Y-139531242D01*
X83526376Y-139531247D01*
X83703226Y-139666948D01*
X83896274Y-139778405D01*
X84102219Y-139863710D01*
X84317537Y-139921404D01*
X84538543Y-139950500D01*
X84538550Y-139950500D01*
X84761450Y-139950500D01*
X84761457Y-139950500D01*
X84982463Y-139921404D01*
X85197781Y-139863710D01*
X85398161Y-139780710D01*
X85403717Y-139778409D01*
X85403718Y-139778407D01*
X85403726Y-139778405D01*
X85596774Y-139666948D01*
X85773624Y-139531247D01*
X85931247Y-139373624D01*
X86066948Y-139196774D01*
X86178405Y-139003726D01*
X86261898Y-138802155D01*
X87550000Y-138802155D01*
X87550000Y-139450000D01*
X88466988Y-139450000D01*
X88434075Y-139507007D01*
X88400000Y-139634174D01*
X88400000Y-139765826D01*
X88434075Y-139892993D01*
X88466988Y-139950000D01*
X87550000Y-139950000D01*
X87550000Y-140597844D01*
X87556401Y-140657372D01*
X87556403Y-140657379D01*
X87606645Y-140792086D01*
X87606649Y-140792093D01*
X87692809Y-140907187D01*
X87692812Y-140907190D01*
X87807906Y-140993350D01*
X87807913Y-140993354D01*
X87942620Y-141043596D01*
X87942627Y-141043598D01*
X88002155Y-141049999D01*
X88002172Y-141050000D01*
X88650000Y-141050000D01*
X88650000Y-140133012D01*
X88707007Y-140165925D01*
X88834174Y-140200000D01*
X88965826Y-140200000D01*
X89092993Y-140165925D01*
X89150000Y-140133012D01*
X89150000Y-141050000D01*
X89797828Y-141050000D01*
X89797844Y-141049999D01*
X89857372Y-141043598D01*
X89857379Y-141043596D01*
X89992086Y-140993354D01*
X89992093Y-140993350D01*
X90107187Y-140907190D01*
X90107190Y-140907187D01*
X90193350Y-140792093D01*
X90193354Y-140792086D01*
X90215529Y-140732632D01*
X90254319Y-140559390D01*
X90254682Y-140558734D01*
X90254642Y-140557984D01*
X90287642Y-140498802D01*
X90957037Y-139829408D01*
X90974075Y-139892993D01*
X91039901Y-140007007D01*
X91132993Y-140100099D01*
X91247007Y-140165925D01*
X91310590Y-140182962D01*
X90678282Y-140815269D01*
X90678282Y-140815270D01*
X90732449Y-140854624D01*
X90921782Y-140951095D01*
X91123870Y-141016757D01*
X91333754Y-141050000D01*
X91546246Y-141050000D01*
X91756127Y-141016757D01*
X91756130Y-141016757D01*
X91958217Y-140951095D01*
X92147554Y-140854622D01*
X92201716Y-140815270D01*
X92201717Y-140815270D01*
X91569408Y-140182962D01*
X91632993Y-140165925D01*
X91747007Y-140100099D01*
X91840099Y-140007007D01*
X91905925Y-139892993D01*
X91922962Y-139829408D01*
X92555270Y-140461717D01*
X92555270Y-140461716D01*
X92594623Y-140407553D01*
X92599230Y-140398511D01*
X92647201Y-140347712D01*
X92715021Y-140330912D01*
X92781157Y-140353446D01*
X92820201Y-140398501D01*
X92824948Y-140407817D01*
X92949889Y-140579786D01*
X93100212Y-140730109D01*
X93272178Y-140855048D01*
X93272180Y-140855049D01*
X93272183Y-140855051D01*
X93461587Y-140951557D01*
X93663756Y-141017246D01*
X93873712Y-141050500D01*
X93873713Y-141050500D01*
X94086285Y-141050500D01*
X94086286Y-141050500D01*
X94296242Y-141017246D01*
X94498411Y-140951557D01*
X94687815Y-140855051D01*
X94774470Y-140792093D01*
X94859785Y-140730109D01*
X94859787Y-140730106D01*
X94859791Y-140730104D01*
X95010103Y-140579792D01*
X95010105Y-140579788D01*
X95010108Y-140579786D01*
X95135047Y-140407821D01*
X95135187Y-140407547D01*
X95139512Y-140399056D01*
X95187483Y-140348260D01*
X95255303Y-140331462D01*
X95321439Y-140353996D01*
X95360483Y-140399052D01*
X95364949Y-140407817D01*
X95489890Y-140579786D01*
X95640213Y-140730109D01*
X95812179Y-140855048D01*
X95812181Y-140855049D01*
X95812184Y-140855051D01*
X96001588Y-140951557D01*
X96203757Y-141017246D01*
X96413713Y-141050500D01*
X96413714Y-141050500D01*
X96626286Y-141050500D01*
X96626287Y-141050500D01*
X96836243Y-141017246D01*
X97038412Y-140951557D01*
X97227816Y-140855051D01*
X97314471Y-140792093D01*
X97399786Y-140730109D01*
X97399788Y-140730106D01*
X97399792Y-140730104D01*
X97550104Y-140579792D01*
X97550106Y-140579788D01*
X97550109Y-140579786D01*
X97675048Y-140407820D01*
X97675050Y-140407817D01*
X97675051Y-140407816D01*
X97679514Y-140399054D01*
X97727488Y-140348259D01*
X97795308Y-140331463D01*
X97861444Y-140353999D01*
X97900484Y-140399054D01*
X97904591Y-140407115D01*
X97904951Y-140407820D01*
X98029890Y-140579786D01*
X98180213Y-140730109D01*
X98352179Y-140855048D01*
X98352181Y-140855049D01*
X98352184Y-140855051D01*
X98541588Y-140951557D01*
X98743757Y-141017246D01*
X98953713Y-141050500D01*
X98953714Y-141050500D01*
X99166286Y-141050500D01*
X99166287Y-141050500D01*
X99376243Y-141017246D01*
X99578412Y-140951557D01*
X99767816Y-140855051D01*
X99854471Y-140792093D01*
X99939786Y-140730109D01*
X99939788Y-140730106D01*
X99939792Y-140730104D01*
X100090104Y-140579792D01*
X100090106Y-140579788D01*
X100090109Y-140579786D01*
X100215048Y-140407820D01*
X100215050Y-140407817D01*
X100215051Y-140407816D01*
X100219514Y-140399054D01*
X100267488Y-140348259D01*
X100335308Y-140331463D01*
X100401444Y-140353999D01*
X100440484Y-140399054D01*
X100444591Y-140407115D01*
X100444951Y-140407820D01*
X100569890Y-140579786D01*
X100720213Y-140730109D01*
X100892179Y-140855048D01*
X100892181Y-140855049D01*
X100892184Y-140855051D01*
X101081588Y-140951557D01*
X101283757Y-141017246D01*
X101493713Y-141050500D01*
X101493714Y-141050500D01*
X101706286Y-141050500D01*
X101706287Y-141050500D01*
X101916243Y-141017246D01*
X102118412Y-140951557D01*
X102307816Y-140855051D01*
X102394471Y-140792093D01*
X102479786Y-140730109D01*
X102479788Y-140730106D01*
X102479792Y-140730104D01*
X102630104Y-140579792D01*
X102630106Y-140579788D01*
X102630109Y-140579786D01*
X102755048Y-140407820D01*
X102755050Y-140407817D01*
X102755051Y-140407816D01*
X102759514Y-140399054D01*
X102807488Y-140348259D01*
X102875308Y-140331463D01*
X102941444Y-140353999D01*
X102980484Y-140399054D01*
X102984591Y-140407115D01*
X102984951Y-140407820D01*
X103109890Y-140579786D01*
X103260213Y-140730109D01*
X103432179Y-140855048D01*
X103432181Y-140855049D01*
X103432184Y-140855051D01*
X103621588Y-140951557D01*
X103823757Y-141017246D01*
X104033713Y-141050500D01*
X104033714Y-141050500D01*
X104246286Y-141050500D01*
X104246287Y-141050500D01*
X104456243Y-141017246D01*
X104658412Y-140951557D01*
X104847816Y-140855051D01*
X104934471Y-140792093D01*
X105019786Y-140730109D01*
X105019788Y-140730106D01*
X105019792Y-140730104D01*
X105170104Y-140579792D01*
X105170106Y-140579788D01*
X105170109Y-140579786D01*
X105295048Y-140407821D01*
X105295188Y-140407547D01*
X105299513Y-140399056D01*
X105347484Y-140348260D01*
X105415304Y-140331462D01*
X105481440Y-140353996D01*
X105520484Y-140399052D01*
X105524950Y-140407817D01*
X105649891Y-140579786D01*
X105800214Y-140730109D01*
X105972180Y-140855048D01*
X105972182Y-140855049D01*
X105972185Y-140855051D01*
X106161589Y-140951557D01*
X106363758Y-141017246D01*
X106573714Y-141050500D01*
X106573715Y-141050500D01*
X106786287Y-141050500D01*
X106786288Y-141050500D01*
X106996244Y-141017246D01*
X107198413Y-140951557D01*
X107387817Y-140855051D01*
X107474472Y-140792093D01*
X107559787Y-140730109D01*
X107559789Y-140730106D01*
X107559793Y-140730104D01*
X107710105Y-140579792D01*
X107710107Y-140579788D01*
X107710110Y-140579786D01*
X107835049Y-140407820D01*
X107835051Y-140407817D01*
X107835052Y-140407816D01*
X107839513Y-140399058D01*
X107887484Y-140348262D01*
X107955304Y-140331464D01*
X108021441Y-140353998D01*
X108060484Y-140399054D01*
X108064949Y-140407817D01*
X108189890Y-140579786D01*
X108340213Y-140730109D01*
X108512179Y-140855048D01*
X108512181Y-140855049D01*
X108512184Y-140855051D01*
X108701588Y-140951557D01*
X108903757Y-141017246D01*
X109113713Y-141050500D01*
X109113714Y-141050500D01*
X109326286Y-141050500D01*
X109326287Y-141050500D01*
X109536243Y-141017246D01*
X109738412Y-140951557D01*
X109927816Y-140855051D01*
X110014471Y-140792093D01*
X110099786Y-140730109D01*
X110099788Y-140730106D01*
X110099792Y-140730104D01*
X110250104Y-140579792D01*
X110250106Y-140579788D01*
X110250109Y-140579786D01*
X110375048Y-140407820D01*
X110375050Y-140407817D01*
X110375051Y-140407816D01*
X110379514Y-140399054D01*
X110427488Y-140348259D01*
X110495308Y-140331463D01*
X110561444Y-140353999D01*
X110600484Y-140399054D01*
X110604591Y-140407115D01*
X110604951Y-140407820D01*
X110729890Y-140579786D01*
X110880213Y-140730109D01*
X111052179Y-140855048D01*
X111052181Y-140855049D01*
X111052184Y-140855051D01*
X111241588Y-140951557D01*
X111443757Y-141017246D01*
X111653713Y-141050500D01*
X111653714Y-141050500D01*
X111866286Y-141050500D01*
X111866287Y-141050500D01*
X112076243Y-141017246D01*
X112278412Y-140951557D01*
X112467816Y-140855051D01*
X112554471Y-140792093D01*
X112639786Y-140730109D01*
X112639788Y-140730106D01*
X112639792Y-140730104D01*
X112790104Y-140579792D01*
X112790106Y-140579788D01*
X112790109Y-140579786D01*
X112915048Y-140407820D01*
X112915050Y-140407817D01*
X112915051Y-140407816D01*
X112919514Y-140399054D01*
X112967488Y-140348259D01*
X113035308Y-140331463D01*
X113101444Y-140353999D01*
X113140484Y-140399054D01*
X113144591Y-140407115D01*
X113144951Y-140407820D01*
X113269890Y-140579786D01*
X113420213Y-140730109D01*
X113592179Y-140855048D01*
X113592181Y-140855049D01*
X113592184Y-140855051D01*
X113781588Y-140951557D01*
X113983757Y-141017246D01*
X114193713Y-141050500D01*
X114193714Y-141050500D01*
X114406286Y-141050500D01*
X114406287Y-141050500D01*
X114616243Y-141017246D01*
X114818412Y-140951557D01*
X115007816Y-140855051D01*
X115094471Y-140792093D01*
X115179786Y-140730109D01*
X115179788Y-140730106D01*
X115179792Y-140730104D01*
X115330104Y-140579792D01*
X115330106Y-140579788D01*
X115330109Y-140579786D01*
X115455048Y-140407820D01*
X115455050Y-140407817D01*
X115455051Y-140407816D01*
X115459512Y-140399058D01*
X115507483Y-140348262D01*
X115575303Y-140331464D01*
X115641440Y-140353998D01*
X115680483Y-140399054D01*
X115684948Y-140407817D01*
X115809889Y-140579786D01*
X115960212Y-140730109D01*
X116132178Y-140855048D01*
X116132180Y-140855049D01*
X116132183Y-140855051D01*
X116321587Y-140951557D01*
X116523756Y-141017246D01*
X116733712Y-141050500D01*
X116733713Y-141050500D01*
X116946285Y-141050500D01*
X116946286Y-141050500D01*
X117156242Y-141017246D01*
X117358411Y-140951557D01*
X117547815Y-140855051D01*
X117634470Y-140792093D01*
X117719785Y-140730109D01*
X117719787Y-140730106D01*
X117719791Y-140730104D01*
X117870103Y-140579792D01*
X117870105Y-140579788D01*
X117870108Y-140579786D01*
X117995047Y-140407821D01*
X117995187Y-140407547D01*
X117999512Y-140399056D01*
X118047483Y-140348260D01*
X118115303Y-140331462D01*
X118181439Y-140353996D01*
X118220483Y-140399052D01*
X118224949Y-140407817D01*
X118349890Y-140579786D01*
X118500213Y-140730109D01*
X118672179Y-140855048D01*
X118672181Y-140855049D01*
X118672184Y-140855051D01*
X118861588Y-140951557D01*
X119063757Y-141017246D01*
X119273713Y-141050500D01*
X119273714Y-141050500D01*
X119486286Y-141050500D01*
X119486287Y-141050500D01*
X119696243Y-141017246D01*
X119898412Y-140951557D01*
X120087816Y-140855051D01*
X120174471Y-140792093D01*
X120259786Y-140730109D01*
X120259788Y-140730106D01*
X120259792Y-140730104D01*
X120410104Y-140579792D01*
X120410106Y-140579788D01*
X120410109Y-140579786D01*
X120535048Y-140407820D01*
X120535050Y-140407817D01*
X120535051Y-140407816D01*
X120539514Y-140399054D01*
X120587488Y-140348259D01*
X120655308Y-140331463D01*
X120721444Y-140353999D01*
X120760484Y-140399054D01*
X120764591Y-140407115D01*
X120764951Y-140407820D01*
X120889890Y-140579786D01*
X121040213Y-140730109D01*
X121212179Y-140855048D01*
X121212181Y-140855049D01*
X121212184Y-140855051D01*
X121401588Y-140951557D01*
X121603757Y-141017246D01*
X121813713Y-141050500D01*
X121813714Y-141050500D01*
X122026286Y-141050500D01*
X122026287Y-141050500D01*
X122236243Y-141017246D01*
X122438412Y-140951557D01*
X122627816Y-140855051D01*
X122714471Y-140792093D01*
X122799786Y-140730109D01*
X122799788Y-140730106D01*
X122799792Y-140730104D01*
X122950104Y-140579792D01*
X122950106Y-140579788D01*
X122950109Y-140579786D01*
X123075048Y-140407820D01*
X123075050Y-140407817D01*
X123075051Y-140407816D01*
X123079514Y-140399054D01*
X123127488Y-140348259D01*
X123195308Y-140331463D01*
X123261444Y-140353999D01*
X123300484Y-140399054D01*
X123304591Y-140407115D01*
X123304951Y-140407820D01*
X123429890Y-140579786D01*
X123580213Y-140730109D01*
X123752179Y-140855048D01*
X123752181Y-140855049D01*
X123752184Y-140855051D01*
X123941588Y-140951557D01*
X124143757Y-141017246D01*
X124353713Y-141050500D01*
X124353714Y-141050500D01*
X124566286Y-141050500D01*
X124566287Y-141050500D01*
X124776243Y-141017246D01*
X124978412Y-140951557D01*
X125167816Y-140855051D01*
X125254471Y-140792093D01*
X125339786Y-140730109D01*
X125339788Y-140730106D01*
X125339792Y-140730104D01*
X125490104Y-140579792D01*
X125490106Y-140579788D01*
X125490109Y-140579786D01*
X125615048Y-140407820D01*
X125615050Y-140407817D01*
X125615051Y-140407816D01*
X125619512Y-140399058D01*
X125667483Y-140348262D01*
X125735303Y-140331464D01*
X125801440Y-140353998D01*
X125840483Y-140399054D01*
X125844948Y-140407817D01*
X125969889Y-140579786D01*
X126120212Y-140730109D01*
X126292178Y-140855048D01*
X126292180Y-140855049D01*
X126292183Y-140855051D01*
X126481587Y-140951557D01*
X126683756Y-141017246D01*
X126893712Y-141050500D01*
X126893713Y-141050500D01*
X127106285Y-141050500D01*
X127106286Y-141050500D01*
X127316242Y-141017246D01*
X127518411Y-140951557D01*
X127707815Y-140855051D01*
X127794470Y-140792093D01*
X127879785Y-140730109D01*
X127879787Y-140730106D01*
X127879791Y-140730104D01*
X128030103Y-140579792D01*
X128030105Y-140579788D01*
X128030108Y-140579786D01*
X128155047Y-140407820D01*
X128155049Y-140407817D01*
X128155050Y-140407816D01*
X128159514Y-140399052D01*
X128207487Y-140348257D01*
X128275308Y-140331461D01*
X128341443Y-140353997D01*
X128380484Y-140399052D01*
X128384606Y-140407142D01*
X128384952Y-140407820D01*
X128509891Y-140579786D01*
X128660214Y-140730109D01*
X128832180Y-140855048D01*
X128832182Y-140855049D01*
X128832185Y-140855051D01*
X129021589Y-140951557D01*
X129223758Y-141017246D01*
X129433714Y-141050500D01*
X129433715Y-141050500D01*
X129646287Y-141050500D01*
X129646288Y-141050500D01*
X129856244Y-141017246D01*
X130058413Y-140951557D01*
X130247817Y-140855051D01*
X130334472Y-140792093D01*
X130419787Y-140730109D01*
X130419789Y-140730106D01*
X130419793Y-140730104D01*
X130570105Y-140579792D01*
X130570107Y-140579788D01*
X130570110Y-140579786D01*
X130695049Y-140407820D01*
X130695051Y-140407817D01*
X130695052Y-140407816D01*
X130699513Y-140399058D01*
X130747484Y-140348262D01*
X130815304Y-140331464D01*
X130881441Y-140353998D01*
X130920484Y-140399054D01*
X130924949Y-140407817D01*
X131049890Y-140579786D01*
X131200213Y-140730109D01*
X131372179Y-140855048D01*
X131372181Y-140855049D01*
X131372184Y-140855051D01*
X131561588Y-140951557D01*
X131763757Y-141017246D01*
X131973713Y-141050500D01*
X131973714Y-141050500D01*
X132186286Y-141050500D01*
X132186287Y-141050500D01*
X132396243Y-141017246D01*
X132598412Y-140951557D01*
X132787816Y-140855051D01*
X132874471Y-140792093D01*
X132959786Y-140730109D01*
X132959788Y-140730106D01*
X132959792Y-140730104D01*
X133110104Y-140579792D01*
X133110106Y-140579788D01*
X133110109Y-140579786D01*
X133235048Y-140407820D01*
X133235050Y-140407817D01*
X133235051Y-140407816D01*
X133239514Y-140399054D01*
X133287488Y-140348259D01*
X133355308Y-140331463D01*
X133421444Y-140353999D01*
X133460484Y-140399054D01*
X133464591Y-140407115D01*
X133464951Y-140407820D01*
X133589890Y-140579786D01*
X133740213Y-140730109D01*
X133912179Y-140855048D01*
X133912181Y-140855049D01*
X133912184Y-140855051D01*
X134101588Y-140951557D01*
X134303757Y-141017246D01*
X134513713Y-141050500D01*
X134513714Y-141050500D01*
X134726286Y-141050500D01*
X134726287Y-141050500D01*
X134936243Y-141017246D01*
X135138412Y-140951557D01*
X135327816Y-140855051D01*
X135414471Y-140792093D01*
X135499786Y-140730109D01*
X135499788Y-140730106D01*
X135499792Y-140730104D01*
X135650104Y-140579792D01*
X135650106Y-140579788D01*
X135650109Y-140579786D01*
X135775048Y-140407820D01*
X135775050Y-140407817D01*
X135775051Y-140407816D01*
X135779514Y-140399054D01*
X135827488Y-140348259D01*
X135895308Y-140331463D01*
X135961444Y-140353999D01*
X136000484Y-140399054D01*
X136004591Y-140407115D01*
X136004951Y-140407820D01*
X136129890Y-140579786D01*
X136280213Y-140730109D01*
X136452179Y-140855048D01*
X136452181Y-140855049D01*
X136452184Y-140855051D01*
X136641588Y-140951557D01*
X136843757Y-141017246D01*
X137053713Y-141050500D01*
X137053714Y-141050500D01*
X137266286Y-141050500D01*
X137266287Y-141050500D01*
X137476243Y-141017246D01*
X137678412Y-140951557D01*
X137867816Y-140855051D01*
X137954471Y-140792093D01*
X138039786Y-140730109D01*
X138039788Y-140730106D01*
X138039792Y-140730104D01*
X138190104Y-140579792D01*
X138190106Y-140579788D01*
X138190109Y-140579786D01*
X138315048Y-140407820D01*
X138315050Y-140407817D01*
X138315051Y-140407816D01*
X138319794Y-140398506D01*
X138367766Y-140347710D01*
X138435587Y-140330913D01*
X138501722Y-140353448D01*
X138540765Y-140398505D01*
X138545372Y-140407547D01*
X138584727Y-140461716D01*
X139217036Y-139829408D01*
X139234074Y-139892993D01*
X139299900Y-140007007D01*
X139392992Y-140100099D01*
X139507006Y-140165925D01*
X139570589Y-140182962D01*
X138938281Y-140815269D01*
X138938281Y-140815270D01*
X138992448Y-140854624D01*
X139181781Y-140951095D01*
X139383869Y-141016757D01*
X139593753Y-141050000D01*
X139806245Y-141050000D01*
X140016126Y-141016757D01*
X140016129Y-141016757D01*
X140218216Y-140951095D01*
X140407553Y-140854622D01*
X140461715Y-140815270D01*
X140461716Y-140815270D01*
X139829407Y-140182962D01*
X139892992Y-140165925D01*
X140007006Y-140100099D01*
X140100098Y-140007007D01*
X140165924Y-139892993D01*
X140182961Y-139829408D01*
X140815269Y-140461717D01*
X140815269Y-140461716D01*
X140854622Y-140407553D01*
X140859230Y-140398509D01*
X140907201Y-140347710D01*
X140975021Y-140330910D01*
X141041157Y-140353444D01*
X141080201Y-140398499D01*
X141084949Y-140407817D01*
X141209890Y-140579786D01*
X141360213Y-140730109D01*
X141532179Y-140855048D01*
X141532181Y-140855049D01*
X141532184Y-140855051D01*
X141721588Y-140951557D01*
X141923757Y-141017246D01*
X142133713Y-141050500D01*
X142133714Y-141050500D01*
X142346286Y-141050500D01*
X142346287Y-141050500D01*
X142556243Y-141017246D01*
X142758412Y-140951557D01*
X142947816Y-140855051D01*
X143034471Y-140792093D01*
X143119786Y-140730109D01*
X143119788Y-140730106D01*
X143119792Y-140730104D01*
X143270104Y-140579792D01*
X143270106Y-140579788D01*
X143270109Y-140579786D01*
X143395048Y-140407820D01*
X143395050Y-140407817D01*
X143395051Y-140407816D01*
X143491557Y-140218412D01*
X143557246Y-140016243D01*
X143590500Y-139806287D01*
X143590500Y-139593713D01*
X143557246Y-139383757D01*
X143491557Y-139181588D01*
X143395051Y-138992184D01*
X143395049Y-138992181D01*
X143395048Y-138992179D01*
X143270109Y-138820213D01*
X143119790Y-138669894D01*
X143119785Y-138669890D01*
X142994287Y-138578711D01*
X147749500Y-138578711D01*
X147749500Y-138821288D01*
X147781161Y-139061785D01*
X147843947Y-139296104D01*
X147884080Y-139392993D01*
X147936776Y-139520212D01*
X148058064Y-139730289D01*
X148058066Y-139730292D01*
X148058067Y-139730293D01*
X148205733Y-139922736D01*
X148205739Y-139922743D01*
X148377256Y-140094260D01*
X148377262Y-140094265D01*
X148569711Y-140241936D01*
X148779788Y-140363224D01*
X149003900Y-140456054D01*
X149238211Y-140518838D01*
X149418586Y-140542584D01*
X149478711Y-140550500D01*
X149478712Y-140550500D01*
X149721289Y-140550500D01*
X149769388Y-140544167D01*
X149961789Y-140518838D01*
X150196100Y-140456054D01*
X150420212Y-140363224D01*
X150630289Y-140241936D01*
X150822738Y-140094265D01*
X150994265Y-139922738D01*
X151141936Y-139730289D01*
X151263224Y-139520212D01*
X151356054Y-139296100D01*
X151418838Y-139061789D01*
X151450500Y-138821288D01*
X151450500Y-138578712D01*
X151447057Y-138552563D01*
X151427847Y-138406645D01*
X151418838Y-138338211D01*
X151356054Y-138103900D01*
X151263224Y-137879788D01*
X151141936Y-137669711D01*
X151037418Y-137533500D01*
X150994266Y-137477263D01*
X150994260Y-137477256D01*
X150822743Y-137305739D01*
X150822736Y-137305733D01*
X150630293Y-137158067D01*
X150630292Y-137158066D01*
X150630289Y-137158064D01*
X150420212Y-137036776D01*
X150420205Y-137036773D01*
X150196104Y-136943947D01*
X149961785Y-136881161D01*
X149721289Y-136849500D01*
X149721288Y-136849500D01*
X149478712Y-136849500D01*
X149478711Y-136849500D01*
X149238214Y-136881161D01*
X149003895Y-136943947D01*
X148779794Y-137036773D01*
X148779785Y-137036777D01*
X148569706Y-137158067D01*
X148377263Y-137305733D01*
X148377256Y-137305739D01*
X148205739Y-137477256D01*
X148205733Y-137477263D01*
X148058067Y-137669706D01*
X147936777Y-137879785D01*
X147936773Y-137879794D01*
X147843947Y-138103895D01*
X147781161Y-138338214D01*
X147749500Y-138578711D01*
X142994287Y-138578711D01*
X142947820Y-138544951D01*
X142758414Y-138448444D01*
X142758413Y-138448443D01*
X142758412Y-138448443D01*
X142556243Y-138382754D01*
X142556241Y-138382753D01*
X142556240Y-138382753D01*
X142394957Y-138357208D01*
X142346287Y-138349500D01*
X142133713Y-138349500D01*
X142085042Y-138357208D01*
X141923760Y-138382753D01*
X141721585Y-138448444D01*
X141532179Y-138544951D01*
X141360213Y-138669890D01*
X141209890Y-138820213D01*
X141084950Y-138992181D01*
X141080200Y-139001503D01*
X141032223Y-139052296D01*
X140964401Y-139069088D01*
X140898267Y-139046547D01*
X140859231Y-139001493D01*
X140854623Y-138992449D01*
X140815269Y-138938282D01*
X140815268Y-138938282D01*
X140182961Y-139570590D01*
X140165924Y-139507007D01*
X140100098Y-139392993D01*
X140007006Y-139299901D01*
X139892992Y-139234075D01*
X139829408Y-139217037D01*
X140461715Y-138584728D01*
X140407549Y-138545375D01*
X140218216Y-138448904D01*
X140016128Y-138383242D01*
X139806245Y-138350000D01*
X139593753Y-138350000D01*
X139383871Y-138383242D01*
X139383868Y-138383242D01*
X139181781Y-138448904D01*
X138992438Y-138545380D01*
X138938281Y-138584727D01*
X138938281Y-138584728D01*
X139570590Y-139217037D01*
X139507006Y-139234075D01*
X139392992Y-139299901D01*
X139299900Y-139392993D01*
X139234074Y-139507007D01*
X139217036Y-139570591D01*
X138584727Y-138938282D01*
X138584726Y-138938282D01*
X138545379Y-138992440D01*
X138540762Y-139001501D01*
X138492784Y-139052294D01*
X138424962Y-139069086D01*
X138358829Y-139046545D01*
X138319795Y-139001495D01*
X138315181Y-138992440D01*
X138315051Y-138992184D01*
X138315049Y-138992181D01*
X138315048Y-138992179D01*
X138190109Y-138820213D01*
X138093420Y-138723524D01*
X138039792Y-138669896D01*
X137962130Y-138613471D01*
X137958842Y-138610715D01*
X137941762Y-138585071D01*
X137922949Y-138560673D01*
X137921942Y-138555312D01*
X137920111Y-138552563D01*
X137919985Y-138544892D01*
X137914500Y-138515685D01*
X137914500Y-135185687D01*
X137914499Y-135185683D01*
X137895364Y-135089487D01*
X137885505Y-135039920D01*
X137828629Y-134902610D01*
X137788229Y-134842147D01*
X137746060Y-134779035D01*
X137746054Y-134779028D01*
X137636647Y-134669621D01*
X137636624Y-134669600D01*
X135333344Y-132366319D01*
X133190969Y-130223943D01*
X133190968Y-130223942D01*
X133067392Y-130141372D01*
X133067391Y-130141371D01*
X133067389Y-130141370D01*
X133067386Y-130141368D01*
X133067381Y-130141366D01*
X132977566Y-130104164D01*
X132977562Y-130104162D01*
X132972785Y-130102184D01*
X132930080Y-130084495D01*
X132899720Y-130078456D01*
X132892843Y-130077088D01*
X132892840Y-130077087D01*
X132784313Y-130055499D01*
X132784312Y-130055499D01*
X132635688Y-130055499D01*
X132629574Y-130055499D01*
X132629554Y-130055500D01*
X128184315Y-130055500D01*
X128117276Y-130035815D01*
X128083996Y-130004385D01*
X128042517Y-129947293D01*
X128030104Y-129930208D01*
X127879792Y-129779896D01*
X127879786Y-129779890D01*
X127707820Y-129654951D01*
X127518414Y-129558444D01*
X127518413Y-129558443D01*
X127518412Y-129558443D01*
X127316243Y-129492754D01*
X127316241Y-129492753D01*
X127316240Y-129492753D01*
X127154957Y-129467208D01*
X127106287Y-129459500D01*
X126893713Y-129459500D01*
X126845042Y-129467208D01*
X126683760Y-129492753D01*
X126481585Y-129558444D01*
X126292179Y-129654951D01*
X126120213Y-129779890D01*
X125969890Y-129930213D01*
X125844949Y-130102182D01*
X125840484Y-130110946D01*
X125792509Y-130161742D01*
X125724688Y-130178536D01*
X125658553Y-130155998D01*
X125619516Y-130110946D01*
X125615050Y-130102182D01*
X125490109Y-129930213D01*
X125339786Y-129779890D01*
X125167820Y-129654951D01*
X124978414Y-129558444D01*
X124978413Y-129558443D01*
X124978412Y-129558443D01*
X124776243Y-129492754D01*
X124776241Y-129492753D01*
X124776240Y-129492753D01*
X124614957Y-129467208D01*
X124566287Y-129459500D01*
X124353713Y-129459500D01*
X124305042Y-129467208D01*
X124143760Y-129492753D01*
X123941585Y-129558444D01*
X123752179Y-129654951D01*
X123580213Y-129779890D01*
X123429890Y-129930213D01*
X123304948Y-130102183D01*
X123300482Y-130110949D01*
X123252506Y-130161742D01*
X123184684Y-130178535D01*
X123118550Y-130155995D01*
X123079514Y-130110942D01*
X123075052Y-130102184D01*
X123075050Y-130102181D01*
X123075049Y-130102179D01*
X122950110Y-129930213D01*
X122799787Y-129779890D01*
X122627821Y-129654951D01*
X122438415Y-129558444D01*
X122438414Y-129558443D01*
X122438413Y-129558443D01*
X122236244Y-129492754D01*
X122236242Y-129492753D01*
X122236241Y-129492753D01*
X122074958Y-129467208D01*
X122026288Y-129459500D01*
X121813714Y-129459500D01*
X121765043Y-129467208D01*
X121603761Y-129492753D01*
X121401586Y-129558444D01*
X121212185Y-129654948D01*
X121090799Y-129743140D01*
X121024992Y-129766619D01*
X120956938Y-129750793D01*
X120930233Y-129730502D01*
X119744323Y-128544591D01*
X119744318Y-128544587D01*
X119696419Y-128512583D01*
X119692398Y-128509896D01*
X119641545Y-128475917D01*
X119608096Y-128462062D01*
X119601313Y-128459252D01*
X119601309Y-128459250D01*
X119527347Y-128428614D01*
X119527339Y-128428612D01*
X119406119Y-128404500D01*
X119406115Y-128404500D01*
X116440082Y-128404500D01*
X116373043Y-128384815D01*
X116352401Y-128368181D01*
X115276401Y-127292181D01*
X115242916Y-127230858D01*
X115247900Y-127161166D01*
X115289772Y-127105233D01*
X115355236Y-127080816D01*
X115364082Y-127080500D01*
X115473086Y-127080500D01*
X115473087Y-127080500D01*
X115683043Y-127047246D01*
X115885212Y-126981557D01*
X116074616Y-126885051D01*
X116246592Y-126760104D01*
X116360129Y-126646566D01*
X116421448Y-126613084D01*
X116491140Y-126618068D01*
X116547074Y-126659939D01*
X116563989Y-126690917D01*
X116613002Y-126822328D01*
X116613006Y-126822335D01*
X116699252Y-126937544D01*
X116699255Y-126937547D01*
X116814464Y-127023793D01*
X116814471Y-127023797D01*
X116949317Y-127074091D01*
X116949316Y-127074091D01*
X116956244Y-127074835D01*
X117008927Y-127080500D01*
X118804672Y-127080499D01*
X118864283Y-127074091D01*
X118999131Y-127023796D01*
X119114346Y-126937546D01*
X119200596Y-126822331D01*
X119250891Y-126687483D01*
X119257300Y-126627873D01*
X119257299Y-124832128D01*
X119250891Y-124772517D01*
X119249610Y-124769083D01*
X119200597Y-124637671D01*
X119200593Y-124637664D01*
X119114347Y-124522455D01*
X119114344Y-124522452D01*
X118999135Y-124436206D01*
X118999128Y-124436202D01*
X118864282Y-124385908D01*
X118864283Y-124385908D01*
X118804683Y-124379501D01*
X118804681Y-124379500D01*
X118804673Y-124379500D01*
X118804664Y-124379500D01*
X117008929Y-124379500D01*
X117008923Y-124379501D01*
X116949316Y-124385908D01*
X116814471Y-124436202D01*
X116814464Y-124436206D01*
X116699255Y-124522452D01*
X116699252Y-124522455D01*
X116613006Y-124637664D01*
X116613003Y-124637669D01*
X116563989Y-124769083D01*
X116522117Y-124825016D01*
X116456653Y-124849433D01*
X116388380Y-124834581D01*
X116360126Y-124813430D01*
X116246586Y-124699890D01*
X116074620Y-124574951D01*
X115885214Y-124478444D01*
X115885213Y-124478443D01*
X115885212Y-124478443D01*
X115683043Y-124412754D01*
X115683041Y-124412753D01*
X115683040Y-124412753D01*
X115519663Y-124386877D01*
X115473087Y-124379500D01*
X115260513Y-124379500D01*
X115213937Y-124386877D01*
X115050560Y-124412753D01*
X114848385Y-124478444D01*
X114658979Y-124574951D01*
X114487013Y-124699890D01*
X114336690Y-124850213D01*
X114211748Y-125022183D01*
X114207282Y-125030949D01*
X114159306Y-125081742D01*
X114091484Y-125098535D01*
X114025350Y-125075995D01*
X113986314Y-125030942D01*
X113981852Y-125022184D01*
X113981850Y-125022181D01*
X113981849Y-125022179D01*
X113856910Y-124850213D01*
X113706587Y-124699890D01*
X113534621Y-124574951D01*
X113345215Y-124478444D01*
X113345214Y-124478443D01*
X113345213Y-124478443D01*
X113143044Y-124412754D01*
X113143042Y-124412753D01*
X113143041Y-124412753D01*
X112979664Y-124386877D01*
X112933088Y-124379500D01*
X112720514Y-124379500D01*
X112681003Y-124385757D01*
X112510560Y-124412753D01*
X112384619Y-124453674D01*
X112314778Y-124455669D01*
X112254945Y-124419588D01*
X112224117Y-124356887D01*
X112222301Y-124335743D01*
X112222301Y-81560994D01*
X112198187Y-81439770D01*
X112198186Y-81439769D01*
X112198186Y-81439765D01*
X112198184Y-81439760D01*
X112150887Y-81325573D01*
X112150880Y-81325560D01*
X112082213Y-81222793D01*
X112065135Y-81205715D01*
X111994809Y-81135389D01*
X109891601Y-79032181D01*
X109858116Y-78970858D01*
X109863100Y-78901166D01*
X109904972Y-78845233D01*
X109970436Y-78820816D01*
X109979282Y-78820500D01*
X110139086Y-78820500D01*
X110139087Y-78820500D01*
X110349043Y-78787246D01*
X110551212Y-78721557D01*
X110740616Y-78625051D01*
X110912592Y-78500104D01*
X111026129Y-78386566D01*
X111087448Y-78353084D01*
X111157140Y-78358068D01*
X111213074Y-78399939D01*
X111229989Y-78430917D01*
X111279002Y-78562328D01*
X111279006Y-78562335D01*
X111365252Y-78677544D01*
X111365255Y-78677547D01*
X111480464Y-78763793D01*
X111480471Y-78763797D01*
X111615317Y-78814091D01*
X111615316Y-78814091D01*
X111622244Y-78814835D01*
X111674927Y-78820500D01*
X113470672Y-78820499D01*
X113530283Y-78814091D01*
X113665131Y-78763796D01*
X113780346Y-78677546D01*
X113866596Y-78562331D01*
X113916891Y-78427483D01*
X113923300Y-78367873D01*
X113923299Y-77363713D01*
X116302300Y-77363713D01*
X116302300Y-77576287D01*
X116335554Y-77786243D01*
X116382800Y-77931652D01*
X116401244Y-77988414D01*
X116497751Y-78177820D01*
X116622690Y-78349786D01*
X116773013Y-78500109D01*
X116944979Y-78625048D01*
X116944981Y-78625049D01*
X116944984Y-78625051D01*
X117134388Y-78721557D01*
X117336557Y-78787246D01*
X117546513Y-78820500D01*
X117546514Y-78820500D01*
X117759086Y-78820500D01*
X117759087Y-78820500D01*
X117969043Y-78787246D01*
X118171212Y-78721557D01*
X118360616Y-78625051D01*
X118446938Y-78562335D01*
X118532586Y-78500109D01*
X118532588Y-78500106D01*
X118532592Y-78500104D01*
X118682904Y-78349792D01*
X118682906Y-78349788D01*
X118682909Y-78349786D01*
X118768690Y-78231717D01*
X118807851Y-78177816D01*
X118812593Y-78168508D01*
X118860563Y-78117711D01*
X118928383Y-78100911D01*
X118994519Y-78123445D01*
X119033563Y-78168500D01*
X119038173Y-78177547D01*
X119077528Y-78231716D01*
X119709837Y-77599408D01*
X119726875Y-77662993D01*
X119792701Y-77777007D01*
X119885793Y-77870099D01*
X119999807Y-77935925D01*
X120063390Y-77952962D01*
X119431082Y-78585269D01*
X119431082Y-78585270D01*
X119485249Y-78624624D01*
X119674582Y-78721095D01*
X119876670Y-78786757D01*
X120086554Y-78820000D01*
X120299046Y-78820000D01*
X120508927Y-78786757D01*
X120508930Y-78786757D01*
X120711017Y-78721095D01*
X120900354Y-78624622D01*
X120954516Y-78585270D01*
X120954517Y-78585270D01*
X120322208Y-77952962D01*
X120385793Y-77935925D01*
X120499807Y-77870099D01*
X120592899Y-77777007D01*
X120658725Y-77662993D01*
X120675762Y-77599408D01*
X121308070Y-78231717D01*
X121308070Y-78231716D01*
X121347422Y-78177555D01*
X121352032Y-78168507D01*
X121400005Y-78117709D01*
X121467825Y-78100912D01*
X121533961Y-78123447D01*
X121573004Y-78168504D01*
X121577749Y-78177817D01*
X121702690Y-78349786D01*
X121853013Y-78500109D01*
X122024979Y-78625048D01*
X122024981Y-78625049D01*
X122024984Y-78625051D01*
X122214388Y-78721557D01*
X122416557Y-78787246D01*
X122626513Y-78820500D01*
X122626514Y-78820500D01*
X122839086Y-78820500D01*
X122839087Y-78820500D01*
X123049043Y-78787246D01*
X123251212Y-78721557D01*
X123440616Y-78625051D01*
X123526938Y-78562335D01*
X123612586Y-78500109D01*
X123612588Y-78500106D01*
X123612592Y-78500104D01*
X123762904Y-78349792D01*
X123762906Y-78349788D01*
X123762909Y-78349786D01*
X123887848Y-78177821D01*
X123887988Y-78177547D01*
X123892313Y-78169056D01*
X123940284Y-78118260D01*
X124008104Y-78101462D01*
X124074240Y-78123996D01*
X124113284Y-78169052D01*
X124117750Y-78177817D01*
X124242691Y-78349786D01*
X124393014Y-78500109D01*
X124564980Y-78625048D01*
X124564982Y-78625049D01*
X124564985Y-78625051D01*
X124754389Y-78721557D01*
X124956558Y-78787246D01*
X125166514Y-78820500D01*
X125166515Y-78820500D01*
X125379087Y-78820500D01*
X125379088Y-78820500D01*
X125589044Y-78787246D01*
X125791213Y-78721557D01*
X125980617Y-78625051D01*
X126066939Y-78562335D01*
X126152587Y-78500109D01*
X126152589Y-78500106D01*
X126152593Y-78500104D01*
X126302905Y-78349792D01*
X126302907Y-78349788D01*
X126302910Y-78349786D01*
X126427849Y-78177820D01*
X126427848Y-78177820D01*
X126427852Y-78177816D01*
X126432313Y-78169058D01*
X126480284Y-78118262D01*
X126548104Y-78101464D01*
X126614241Y-78123998D01*
X126653284Y-78169054D01*
X126657749Y-78177817D01*
X126782690Y-78349786D01*
X126933013Y-78500109D01*
X127104979Y-78625048D01*
X127104981Y-78625049D01*
X127104984Y-78625051D01*
X127294388Y-78721557D01*
X127496557Y-78787246D01*
X127706513Y-78820500D01*
X127706514Y-78820500D01*
X127919086Y-78820500D01*
X127919087Y-78820500D01*
X128129043Y-78787246D01*
X128331212Y-78721557D01*
X128520616Y-78625051D01*
X128692592Y-78500104D01*
X128806129Y-78386566D01*
X128867448Y-78353084D01*
X128937140Y-78358068D01*
X128993074Y-78399939D01*
X129009989Y-78430917D01*
X129059002Y-78562328D01*
X129059006Y-78562335D01*
X129145252Y-78677544D01*
X129145255Y-78677547D01*
X129260464Y-78763793D01*
X129260471Y-78763797D01*
X129395317Y-78814091D01*
X129395316Y-78814091D01*
X129402244Y-78814835D01*
X129454927Y-78820500D01*
X131250672Y-78820499D01*
X131310283Y-78814091D01*
X131445131Y-78763796D01*
X131560346Y-78677546D01*
X131646596Y-78562331D01*
X131696891Y-78427483D01*
X131703300Y-78367873D01*
X131703299Y-76572128D01*
X131696891Y-76512517D01*
X131695610Y-76509083D01*
X131646597Y-76377671D01*
X131646593Y-76377664D01*
X131560347Y-76262455D01*
X131560344Y-76262452D01*
X131445135Y-76176206D01*
X131445128Y-76176202D01*
X131310282Y-76125908D01*
X131310283Y-76125908D01*
X131250683Y-76119501D01*
X131250681Y-76119500D01*
X131250673Y-76119500D01*
X131250664Y-76119500D01*
X129454929Y-76119500D01*
X129454923Y-76119501D01*
X129395316Y-76125908D01*
X129260471Y-76176202D01*
X129260464Y-76176206D01*
X129145255Y-76262452D01*
X129145252Y-76262455D01*
X129059006Y-76377664D01*
X129059003Y-76377669D01*
X129009989Y-76509083D01*
X128968117Y-76565016D01*
X128902653Y-76589433D01*
X128834380Y-76574581D01*
X128806126Y-76553430D01*
X128692586Y-76439890D01*
X128520620Y-76314951D01*
X128331214Y-76218444D01*
X128331213Y-76218443D01*
X128331212Y-76218443D01*
X128129043Y-76152754D01*
X128129041Y-76152753D01*
X128129040Y-76152753D01*
X127967757Y-76127208D01*
X127919087Y-76119500D01*
X127706513Y-76119500D01*
X127657842Y-76127208D01*
X127496560Y-76152753D01*
X127294385Y-76218444D01*
X127104979Y-76314951D01*
X126933013Y-76439890D01*
X126782690Y-76590213D01*
X126657748Y-76762183D01*
X126653282Y-76770949D01*
X126605306Y-76821742D01*
X126537484Y-76838535D01*
X126471350Y-76815995D01*
X126432314Y-76770942D01*
X126427852Y-76762184D01*
X126427850Y-76762181D01*
X126427849Y-76762179D01*
X126302910Y-76590213D01*
X126152587Y-76439890D01*
X125980621Y-76314951D01*
X125791215Y-76218444D01*
X125791214Y-76218443D01*
X125791213Y-76218443D01*
X125589044Y-76152754D01*
X125589042Y-76152753D01*
X125589041Y-76152753D01*
X125427758Y-76127208D01*
X125379088Y-76119500D01*
X125166514Y-76119500D01*
X125117843Y-76127208D01*
X124956561Y-76152753D01*
X124754386Y-76218444D01*
X124564980Y-76314951D01*
X124393014Y-76439890D01*
X124242691Y-76590213D01*
X124117749Y-76762184D01*
X124117747Y-76762187D01*
X124113282Y-76770950D01*
X124065306Y-76821744D01*
X123997484Y-76838537D01*
X123931350Y-76815997D01*
X123892314Y-76770944D01*
X123892313Y-76770942D01*
X123887851Y-76762184D01*
X123887849Y-76762181D01*
X123887848Y-76762179D01*
X123762909Y-76590213D01*
X123612586Y-76439890D01*
X123440620Y-76314951D01*
X123251214Y-76218444D01*
X123251213Y-76218443D01*
X123251212Y-76218443D01*
X123049043Y-76152754D01*
X123049041Y-76152753D01*
X123049040Y-76152753D01*
X122887757Y-76127208D01*
X122839087Y-76119500D01*
X122626513Y-76119500D01*
X122577842Y-76127208D01*
X122416560Y-76152753D01*
X122214385Y-76218444D01*
X122024979Y-76314951D01*
X121853013Y-76439890D01*
X121702690Y-76590213D01*
X121577749Y-76762182D01*
X121573002Y-76771499D01*
X121525027Y-76822293D01*
X121457205Y-76839087D01*
X121391071Y-76816548D01*
X121352034Y-76771495D01*
X121347426Y-76762452D01*
X121308070Y-76708282D01*
X121308069Y-76708282D01*
X120675762Y-77340590D01*
X120658725Y-77277007D01*
X120592899Y-77162993D01*
X120499807Y-77069901D01*
X120385793Y-77004075D01*
X120322209Y-76987037D01*
X120954516Y-76354728D01*
X120900350Y-76315375D01*
X120711017Y-76218904D01*
X120508929Y-76153242D01*
X120299046Y-76120000D01*
X120086554Y-76120000D01*
X119876672Y-76153242D01*
X119876669Y-76153242D01*
X119674582Y-76218904D01*
X119485239Y-76315380D01*
X119431082Y-76354727D01*
X119431082Y-76354728D01*
X120063391Y-76987037D01*
X119999807Y-77004075D01*
X119885793Y-77069901D01*
X119792701Y-77162993D01*
X119726875Y-77277007D01*
X119709837Y-77340591D01*
X119077528Y-76708282D01*
X119077527Y-76708282D01*
X119038180Y-76762440D01*
X119038176Y-76762446D01*
X119033560Y-76771505D01*
X118985581Y-76822297D01*
X118917759Y-76839087D01*
X118851626Y-76816543D01*
X118812594Y-76771493D01*
X118807851Y-76762184D01*
X118807849Y-76762181D01*
X118807848Y-76762179D01*
X118682909Y-76590213D01*
X118532586Y-76439890D01*
X118360620Y-76314951D01*
X118171214Y-76218444D01*
X118171213Y-76218443D01*
X118171212Y-76218443D01*
X117969043Y-76152754D01*
X117969041Y-76152753D01*
X117969040Y-76152753D01*
X117807757Y-76127208D01*
X117759087Y-76119500D01*
X117546513Y-76119500D01*
X117497842Y-76127208D01*
X117336560Y-76152753D01*
X117134385Y-76218444D01*
X116944979Y-76314951D01*
X116773013Y-76439890D01*
X116622690Y-76590213D01*
X116497751Y-76762179D01*
X116401244Y-76951585D01*
X116335553Y-77153760D01*
X116334091Y-77162993D01*
X116302300Y-77363713D01*
X113923299Y-77363713D01*
X113923299Y-76572128D01*
X113916891Y-76512517D01*
X113915610Y-76509083D01*
X113866597Y-76377671D01*
X113866593Y-76377664D01*
X113780347Y-76262455D01*
X113780344Y-76262452D01*
X113665135Y-76176206D01*
X113665128Y-76176202D01*
X113530282Y-76125908D01*
X113530283Y-76125908D01*
X113470683Y-76119501D01*
X113470681Y-76119500D01*
X113470673Y-76119500D01*
X113470664Y-76119500D01*
X111674929Y-76119500D01*
X111674923Y-76119501D01*
X111615316Y-76125908D01*
X111480471Y-76176202D01*
X111480464Y-76176206D01*
X111365255Y-76262452D01*
X111365252Y-76262455D01*
X111279006Y-76377664D01*
X111279003Y-76377669D01*
X111229989Y-76509083D01*
X111188117Y-76565016D01*
X111122653Y-76589433D01*
X111054380Y-76574581D01*
X111026126Y-76553430D01*
X110912586Y-76439890D01*
X110740620Y-76314951D01*
X110551214Y-76218444D01*
X110551213Y-76218443D01*
X110551212Y-76218443D01*
X110349043Y-76152754D01*
X110349041Y-76152753D01*
X110349040Y-76152753D01*
X110187757Y-76127208D01*
X110139087Y-76119500D01*
X109926513Y-76119500D01*
X109877842Y-76127208D01*
X109716560Y-76152753D01*
X109514385Y-76218444D01*
X109324979Y-76314951D01*
X109153013Y-76439890D01*
X109002690Y-76590213D01*
X108877748Y-76762183D01*
X108873282Y-76770949D01*
X108825306Y-76821742D01*
X108757484Y-76838535D01*
X108691350Y-76815995D01*
X108652314Y-76770942D01*
X108647852Y-76762184D01*
X108647850Y-76762181D01*
X108647849Y-76762179D01*
X108522910Y-76590213D01*
X108372587Y-76439890D01*
X108200621Y-76314951D01*
X108011215Y-76218444D01*
X108011214Y-76218443D01*
X108011213Y-76218443D01*
X107809044Y-76152754D01*
X107809042Y-76152753D01*
X107809041Y-76152753D01*
X107647758Y-76127208D01*
X107599088Y-76119500D01*
X107386514Y-76119500D01*
X107337843Y-76127208D01*
X107176561Y-76152753D01*
X106974386Y-76218444D01*
X106784980Y-76314951D01*
X106613014Y-76439890D01*
X106462691Y-76590213D01*
X106337749Y-76762184D01*
X106337747Y-76762187D01*
X106333282Y-76770950D01*
X106285306Y-76821744D01*
X106217484Y-76838537D01*
X106151350Y-76815997D01*
X106112314Y-76770944D01*
X106112313Y-76770942D01*
X106107851Y-76762184D01*
X106107849Y-76762181D01*
X106107848Y-76762179D01*
X105982909Y-76590213D01*
X105832586Y-76439890D01*
X105660620Y-76314951D01*
X105471214Y-76218444D01*
X105471213Y-76218443D01*
X105471212Y-76218443D01*
X105269043Y-76152754D01*
X105269041Y-76152753D01*
X105269040Y-76152753D01*
X105107757Y-76127208D01*
X105059087Y-76119500D01*
X104846513Y-76119500D01*
X104797842Y-76127208D01*
X104636560Y-76152753D01*
X104434385Y-76218444D01*
X104244979Y-76314951D01*
X104073013Y-76439890D01*
X103922690Y-76590213D01*
X103797749Y-76762182D01*
X103793284Y-76770946D01*
X103745309Y-76821742D01*
X103677488Y-76838536D01*
X103611353Y-76815998D01*
X103572316Y-76770946D01*
X103567850Y-76762182D01*
X103442909Y-76590213D01*
X103292586Y-76439890D01*
X103120620Y-76314951D01*
X102931214Y-76218444D01*
X102931213Y-76218443D01*
X102931212Y-76218443D01*
X102729043Y-76152754D01*
X102729041Y-76152753D01*
X102729040Y-76152753D01*
X102567757Y-76127208D01*
X102519087Y-76119500D01*
X102306513Y-76119500D01*
X102257842Y-76127208D01*
X102096560Y-76152753D01*
X101894385Y-76218444D01*
X101704979Y-76314951D01*
X101533013Y-76439890D01*
X101382690Y-76590213D01*
X101257749Y-76762182D01*
X101253284Y-76770946D01*
X101205309Y-76821742D01*
X101137488Y-76838536D01*
X101071353Y-76815998D01*
X101032316Y-76770946D01*
X101027850Y-76762182D01*
X100902909Y-76590213D01*
X100752586Y-76439890D01*
X100580620Y-76314951D01*
X100391214Y-76218444D01*
X100391213Y-76218443D01*
X100391212Y-76218443D01*
X100189043Y-76152754D01*
X100189041Y-76152753D01*
X100189040Y-76152753D01*
X100027757Y-76127208D01*
X99979087Y-76119500D01*
X99766513Y-76119500D01*
X99717842Y-76127208D01*
X99556560Y-76152753D01*
X99354385Y-76218444D01*
X99164979Y-76314951D01*
X98993013Y-76439890D01*
X98842690Y-76590213D01*
X98717751Y-76762179D01*
X98621244Y-76951585D01*
X98555553Y-77153760D01*
X98554091Y-77162993D01*
X98522300Y-77363713D01*
X98522300Y-77576287D01*
X98555554Y-77786243D01*
X98602800Y-77931652D01*
X98621244Y-77988414D01*
X98717751Y-78177820D01*
X98842690Y-78349786D01*
X98993013Y-78500109D01*
X99164979Y-78625048D01*
X99164981Y-78625049D01*
X99164984Y-78625051D01*
X99354388Y-78721557D01*
X99556557Y-78787246D01*
X99747117Y-78817427D01*
X99810249Y-78847356D01*
X99847181Y-78906667D01*
X99846183Y-78976530D01*
X99815398Y-79027581D01*
X93581685Y-85261295D01*
X93581672Y-85261308D01*
X93579992Y-85262989D01*
X93492589Y-85350392D01*
X93475365Y-85376167D01*
X93468704Y-85383365D01*
X93460667Y-85388165D01*
X93446596Y-85402237D01*
X93418078Y-85421293D01*
X93295292Y-85544078D01*
X93198828Y-85688446D01*
X93198821Y-85688459D01*
X93132377Y-85848871D01*
X93132374Y-85848881D01*
X93098500Y-86019177D01*
X93098500Y-86019180D01*
X93098500Y-86192820D01*
X93098500Y-86192822D01*
X93098499Y-86192822D01*
X93132374Y-86363118D01*
X93132377Y-86363128D01*
X93198821Y-86523540D01*
X93198828Y-86523553D01*
X93295293Y-86667922D01*
X93295296Y-86667926D01*
X93418073Y-86790703D01*
X93418077Y-86790706D01*
X93562446Y-86887171D01*
X93562459Y-86887178D01*
X93722871Y-86953622D01*
X93722876Y-86953624D01*
X93722880Y-86953624D01*
X93722881Y-86953625D01*
X93893177Y-86987500D01*
X93893180Y-86987500D01*
X94066822Y-86987500D01*
X94181394Y-86964709D01*
X94237124Y-86953624D01*
X94397547Y-86887175D01*
X94541923Y-86790706D01*
X94664706Y-86667923D01*
X94761175Y-86523547D01*
X94827624Y-86363124D01*
X94861500Y-86192820D01*
X94861500Y-86019180D01*
X94861500Y-86019177D01*
X94845847Y-85940490D01*
X94830818Y-85864934D01*
X94837045Y-85795345D01*
X94864752Y-85753065D01*
X101842072Y-78775745D01*
X101903393Y-78742262D01*
X101968068Y-78745496D01*
X102096557Y-78787246D01*
X102306513Y-78820500D01*
X102306514Y-78820500D01*
X102364718Y-78820500D01*
X102431757Y-78840185D01*
X102477512Y-78892989D01*
X102487456Y-78962147D01*
X102458431Y-79025703D01*
X102452399Y-79032181D01*
X100044821Y-81439760D01*
X97643992Y-83840589D01*
X97600289Y-83884292D01*
X97556586Y-83927994D01*
X97556585Y-83927996D01*
X97487233Y-84031789D01*
X97485586Y-84036393D01*
X97440614Y-84144964D01*
X97440612Y-84144972D01*
X97416500Y-84266192D01*
X97416500Y-127482902D01*
X97396815Y-127549941D01*
X97395602Y-127551792D01*
X97364425Y-127598451D01*
X97364423Y-127598454D01*
X97297977Y-127758871D01*
X97297974Y-127758881D01*
X97264100Y-127929177D01*
X97264100Y-127929180D01*
X97264100Y-128102820D01*
X97264100Y-128102822D01*
X97264099Y-128102822D01*
X97297974Y-128273118D01*
X97297977Y-128273128D01*
X97364421Y-128433540D01*
X97364428Y-128433553D01*
X97460893Y-128577922D01*
X97460896Y-128577926D01*
X97583673Y-128700703D01*
X97583677Y-128700706D01*
X97728046Y-128797171D01*
X97728059Y-128797178D01*
X97873264Y-128857323D01*
X97888476Y-128863624D01*
X97888480Y-128863624D01*
X97888481Y-128863625D01*
X98058777Y-128897500D01*
X98058780Y-128897500D01*
X98232422Y-128897500D01*
X98346994Y-128874709D01*
X98402724Y-128863624D01*
X98563147Y-128797175D01*
X98707523Y-128700706D01*
X98830306Y-128577923D01*
X98926775Y-128433547D01*
X98993224Y-128273124D01*
X99027100Y-128102820D01*
X99027100Y-127929180D01*
X99027100Y-127929177D01*
X98993225Y-127758881D01*
X98993224Y-127758880D01*
X98993224Y-127758876D01*
X98983108Y-127734454D01*
X98926778Y-127598459D01*
X98926771Y-127598446D01*
X98830306Y-127454077D01*
X98830303Y-127454073D01*
X98707819Y-127331589D01*
X98674334Y-127270266D01*
X98671500Y-127243908D01*
X98671500Y-126365043D01*
X98691185Y-126298004D01*
X98743989Y-126252249D01*
X98813147Y-126242305D01*
X98876703Y-126271330D01*
X98905984Y-126308746D01*
X98944327Y-126383999D01*
X98971750Y-126437820D01*
X99096689Y-126609786D01*
X99247012Y-126760109D01*
X99418978Y-126885048D01*
X99418980Y-126885049D01*
X99418983Y-126885051D01*
X99608387Y-126981557D01*
X99810556Y-127047246D01*
X100020512Y-127080500D01*
X100020513Y-127080500D01*
X100233085Y-127080500D01*
X100233086Y-127080500D01*
X100443042Y-127047246D01*
X100645211Y-126981557D01*
X100834615Y-126885051D01*
X100920937Y-126822335D01*
X101006585Y-126760109D01*
X101006587Y-126760106D01*
X101006591Y-126760104D01*
X101156903Y-126609792D01*
X101156905Y-126609788D01*
X101156908Y-126609786D01*
X101281847Y-126437821D01*
X101281850Y-126437816D01*
X101286312Y-126429056D01*
X101334283Y-126378260D01*
X101402103Y-126361462D01*
X101468239Y-126383996D01*
X101507283Y-126429052D01*
X101511749Y-126437817D01*
X101636690Y-126609786D01*
X101787013Y-126760109D01*
X101958979Y-126885048D01*
X101958981Y-126885049D01*
X101958984Y-126885051D01*
X102148388Y-126981557D01*
X102350557Y-127047246D01*
X102560513Y-127080500D01*
X102560514Y-127080500D01*
X102773086Y-127080500D01*
X102773087Y-127080500D01*
X102983043Y-127047246D01*
X103185212Y-126981557D01*
X103374616Y-126885051D01*
X103460938Y-126822335D01*
X103546586Y-126760109D01*
X103546588Y-126760106D01*
X103546592Y-126760104D01*
X103696904Y-126609792D01*
X103696906Y-126609788D01*
X103696909Y-126609786D01*
X103821848Y-126437820D01*
X103821850Y-126437817D01*
X103821851Y-126437816D01*
X103826314Y-126429054D01*
X103874288Y-126378259D01*
X103942108Y-126361463D01*
X104008244Y-126383999D01*
X104047284Y-126429054D01*
X104051391Y-126437115D01*
X104051751Y-126437820D01*
X104176690Y-126609786D01*
X104327013Y-126760109D01*
X104498979Y-126885048D01*
X104498981Y-126885049D01*
X104498984Y-126885051D01*
X104688388Y-126981557D01*
X104890557Y-127047246D01*
X105100513Y-127080500D01*
X105100514Y-127080500D01*
X105313086Y-127080500D01*
X105313087Y-127080500D01*
X105523043Y-127047246D01*
X105536498Y-127042873D01*
X105606335Y-127040873D01*
X105662502Y-127073121D01*
X108267061Y-129677680D01*
X108300546Y-129739003D01*
X108295562Y-129808695D01*
X108267061Y-129853042D01*
X108189893Y-129930209D01*
X108189889Y-129930213D01*
X108064947Y-130102183D01*
X108060481Y-130110949D01*
X108012505Y-130161742D01*
X107944683Y-130178535D01*
X107878549Y-130155995D01*
X107839513Y-130110942D01*
X107835051Y-130102184D01*
X107835049Y-130102181D01*
X107835048Y-130102179D01*
X107710109Y-129930213D01*
X107559786Y-129779890D01*
X107387820Y-129654951D01*
X107198414Y-129558444D01*
X107198413Y-129558443D01*
X107198412Y-129558443D01*
X106996243Y-129492754D01*
X106996241Y-129492753D01*
X106996240Y-129492753D01*
X106834957Y-129467208D01*
X106786287Y-129459500D01*
X106573713Y-129459500D01*
X106525042Y-129467208D01*
X106363760Y-129492753D01*
X106161585Y-129558444D01*
X105972179Y-129654951D01*
X105800215Y-129779889D01*
X105686285Y-129893819D01*
X105624962Y-129927303D01*
X105555270Y-129922319D01*
X105499337Y-129880447D01*
X105482422Y-129849470D01*
X105433354Y-129717913D01*
X105433350Y-129717906D01*
X105347190Y-129602812D01*
X105347187Y-129602809D01*
X105232093Y-129516649D01*
X105232086Y-129516645D01*
X105097379Y-129466403D01*
X105097372Y-129466401D01*
X105037844Y-129460000D01*
X104390000Y-129460000D01*
X104390000Y-130376988D01*
X104332993Y-130344075D01*
X104205826Y-130310000D01*
X104074174Y-130310000D01*
X103947007Y-130344075D01*
X103890000Y-130376988D01*
X103890000Y-129460000D01*
X103242155Y-129460000D01*
X103182627Y-129466401D01*
X103182620Y-129466403D01*
X103047913Y-129516645D01*
X103047906Y-129516649D01*
X102932812Y-129602809D01*
X102932809Y-129602812D01*
X102846649Y-129717906D01*
X102846645Y-129717913D01*
X102796403Y-129852620D01*
X102796401Y-129852627D01*
X102790000Y-129912155D01*
X102790000Y-130560000D01*
X103706988Y-130560000D01*
X103674075Y-130617007D01*
X103640000Y-130744174D01*
X103640000Y-130875826D01*
X103674075Y-131002993D01*
X103706988Y-131060000D01*
X102790000Y-131060000D01*
X102790000Y-131707844D01*
X102796401Y-131767372D01*
X102796403Y-131767379D01*
X102846645Y-131902086D01*
X102846649Y-131902093D01*
X102932809Y-132017187D01*
X102932812Y-132017190D01*
X103047906Y-132103350D01*
X103047913Y-132103354D01*
X103179470Y-132152422D01*
X103235404Y-132194293D01*
X103259821Y-132259758D01*
X103244969Y-132328031D01*
X103223819Y-132356285D01*
X103109889Y-132470215D01*
X102984951Y-132642179D01*
X102888444Y-132831585D01*
X102822753Y-133033760D01*
X102789500Y-133243713D01*
X102789500Y-133456286D01*
X102822753Y-133666239D01*
X102888444Y-133868414D01*
X102984951Y-134057820D01*
X103109890Y-134229786D01*
X103260213Y-134380109D01*
X103432179Y-134505048D01*
X103432181Y-134505049D01*
X103432184Y-134505051D01*
X103621588Y-134601557D01*
X103823757Y-134667246D01*
X104033713Y-134700500D01*
X104033714Y-134700500D01*
X104142718Y-134700500D01*
X104209757Y-134720185D01*
X104255512Y-134772989D01*
X104265456Y-134842147D01*
X104236431Y-134905703D01*
X104230399Y-134912181D01*
X101338400Y-137804181D01*
X101277077Y-137837666D01*
X101250719Y-137840500D01*
X100230195Y-137840500D01*
X100108970Y-137864613D01*
X100108960Y-137864616D01*
X99994773Y-137911913D01*
X99994760Y-137911920D01*
X99891992Y-137980588D01*
X99891988Y-137980591D01*
X99515702Y-138356877D01*
X99454379Y-138390362D01*
X99389707Y-138387128D01*
X99376245Y-138382754D01*
X99376240Y-138382753D01*
X99214957Y-138357208D01*
X99166287Y-138349500D01*
X98953713Y-138349500D01*
X98905042Y-138357208D01*
X98743760Y-138382753D01*
X98541585Y-138448444D01*
X98352179Y-138544951D01*
X98180213Y-138669890D01*
X98029890Y-138820213D01*
X97904949Y-138992182D01*
X97900484Y-139000946D01*
X97852509Y-139051742D01*
X97784688Y-139068536D01*
X97718553Y-139045998D01*
X97679516Y-139000946D01*
X97675050Y-138992182D01*
X97550109Y-138820213D01*
X97399786Y-138669890D01*
X97227820Y-138544951D01*
X97038414Y-138448444D01*
X97038413Y-138448443D01*
X97038412Y-138448443D01*
X96836243Y-138382754D01*
X96836241Y-138382753D01*
X96836240Y-138382753D01*
X96674957Y-138357208D01*
X96626287Y-138349500D01*
X96413713Y-138349500D01*
X96365042Y-138357208D01*
X96203760Y-138382753D01*
X96001585Y-138448444D01*
X95812179Y-138544951D01*
X95640213Y-138669890D01*
X95489890Y-138820213D01*
X95364948Y-138992184D01*
X95364946Y-138992187D01*
X95360481Y-139000950D01*
X95312505Y-139051744D01*
X95244683Y-139068537D01*
X95178549Y-139045997D01*
X95139513Y-139000944D01*
X95135180Y-138992440D01*
X95135050Y-138992184D01*
X95135048Y-138992181D01*
X95135047Y-138992179D01*
X95010108Y-138820213D01*
X94859785Y-138669890D01*
X94687819Y-138544951D01*
X94498413Y-138448444D01*
X94498412Y-138448443D01*
X94498411Y-138448443D01*
X94296242Y-138382754D01*
X94296240Y-138382753D01*
X94296239Y-138382753D01*
X94134956Y-138357208D01*
X94086286Y-138349500D01*
X93873712Y-138349500D01*
X93825041Y-138357208D01*
X93663759Y-138382753D01*
X93461584Y-138448444D01*
X93272178Y-138544951D01*
X93100212Y-138669890D01*
X92949889Y-138820213D01*
X92824949Y-138992181D01*
X92820200Y-139001501D01*
X92772222Y-139052294D01*
X92704401Y-139069086D01*
X92638267Y-139046545D01*
X92599231Y-139001491D01*
X92594624Y-138992449D01*
X92555270Y-138938282D01*
X92555269Y-138938282D01*
X91922962Y-139570590D01*
X91905925Y-139507007D01*
X91840099Y-139392993D01*
X91747007Y-139299901D01*
X91632993Y-139234075D01*
X91569409Y-139217037D01*
X92201716Y-138584728D01*
X92147550Y-138545375D01*
X91958217Y-138448904D01*
X91756129Y-138383242D01*
X91546246Y-138350000D01*
X91333754Y-138350000D01*
X91123872Y-138383242D01*
X91123869Y-138383242D01*
X90921782Y-138448904D01*
X90732439Y-138545380D01*
X90678282Y-138584727D01*
X90678282Y-138584728D01*
X91310591Y-139217037D01*
X91247007Y-139234075D01*
X91132993Y-139299901D01*
X91039901Y-139392993D01*
X90974075Y-139507007D01*
X90957037Y-139570591D01*
X90287642Y-138901196D01*
X90254319Y-138840609D01*
X90215527Y-138667364D01*
X90193354Y-138607913D01*
X90193350Y-138607906D01*
X90107190Y-138492812D01*
X90107187Y-138492809D01*
X89992093Y-138406649D01*
X89992086Y-138406645D01*
X89857379Y-138356403D01*
X89857372Y-138356401D01*
X89797844Y-138350000D01*
X89150000Y-138350000D01*
X89150000Y-139266988D01*
X89092993Y-139234075D01*
X88965826Y-139200000D01*
X88834174Y-139200000D01*
X88707007Y-139234075D01*
X88650000Y-139266988D01*
X88650000Y-138350000D01*
X88002155Y-138350000D01*
X87942627Y-138356401D01*
X87942620Y-138356403D01*
X87807913Y-138406645D01*
X87807906Y-138406649D01*
X87692812Y-138492809D01*
X87692809Y-138492812D01*
X87606649Y-138607906D01*
X87606645Y-138607913D01*
X87556403Y-138742620D01*
X87556401Y-138742627D01*
X87550000Y-138802155D01*
X86261898Y-138802155D01*
X86263710Y-138797781D01*
X86321404Y-138582463D01*
X86350500Y-138361457D01*
X86350500Y-138138543D01*
X86321404Y-137917537D01*
X86263710Y-137702219D01*
X86249524Y-137667972D01*
X86179793Y-137499625D01*
X86178405Y-137496274D01*
X86066948Y-137303226D01*
X85931247Y-137126376D01*
X85931242Y-137126370D01*
X85773629Y-136968757D01*
X85773622Y-136968751D01*
X85596782Y-136833058D01*
X85596780Y-136833057D01*
X85596774Y-136833052D01*
X85403726Y-136721595D01*
X85403722Y-136721593D01*
X85197790Y-136636293D01*
X85197783Y-136636291D01*
X85197781Y-136636290D01*
X84982463Y-136578596D01*
X84982457Y-136578595D01*
X84982452Y-136578594D01*
X84761466Y-136549501D01*
X84761463Y-136549500D01*
X84761457Y-136549500D01*
X84538543Y-136549500D01*
X84538537Y-136549500D01*
X84538533Y-136549501D01*
X84317547Y-136578594D01*
X84317540Y-136578595D01*
X84317537Y-136578596D01*
X84102219Y-136636290D01*
X84102209Y-136636293D01*
X83896277Y-136721593D01*
X83896273Y-136721595D01*
X83703226Y-136833052D01*
X83703217Y-136833058D01*
X83526377Y-136968751D01*
X83526370Y-136968757D01*
X83368757Y-137126370D01*
X83368751Y-137126377D01*
X83233058Y-137303217D01*
X83233052Y-137303226D01*
X83121595Y-137496273D01*
X83121593Y-137496277D01*
X83036293Y-137702209D01*
X83036290Y-137702219D01*
X82988228Y-137881592D01*
X82978597Y-137917534D01*
X82978594Y-137917547D01*
X82949501Y-138138533D01*
X82949500Y-138138549D01*
X80241302Y-138138549D01*
X80209111Y-138018409D01*
X80198482Y-138000000D01*
X81350000Y-138000000D01*
X81350000Y-137002172D01*
X81349999Y-137002155D01*
X81343598Y-136942627D01*
X81343596Y-136942620D01*
X81293354Y-136807913D01*
X81293350Y-136807906D01*
X81207190Y-136692812D01*
X81207187Y-136692809D01*
X81092093Y-136606649D01*
X81092086Y-136606645D01*
X80957379Y-136556403D01*
X80957372Y-136556401D01*
X80897844Y-136550000D01*
X79900000Y-136550000D01*
X79900000Y-137701517D01*
X79881591Y-137690889D01*
X79728991Y-137650000D01*
X79571009Y-137650000D01*
X79418409Y-137690889D01*
X79400000Y-137701517D01*
X79400000Y-136550000D01*
X78402155Y-136550000D01*
X78342627Y-136556401D01*
X78342620Y-136556403D01*
X78207913Y-136606645D01*
X78207906Y-136606649D01*
X78092812Y-136692809D01*
X78092809Y-136692812D01*
X78006649Y-136807906D01*
X78006645Y-136807913D01*
X77956403Y-136942620D01*
X77956401Y-136942627D01*
X77950000Y-137002155D01*
X74136630Y-137002155D01*
X73996104Y-136943947D01*
X73761785Y-136881161D01*
X73521289Y-136849500D01*
X73521288Y-136849500D01*
X73278712Y-136849500D01*
X73278711Y-136849500D01*
X73038214Y-136881161D01*
X72803895Y-136943947D01*
X72579794Y-137036773D01*
X72579785Y-137036777D01*
X72369706Y-137158067D01*
X72177263Y-137305733D01*
X72177256Y-137305739D01*
X72005739Y-137477256D01*
X72005733Y-137477263D01*
X71858067Y-137669706D01*
X71736777Y-137879785D01*
X71736773Y-137879794D01*
X71643947Y-138103895D01*
X71581161Y-138338214D01*
X71549500Y-138578711D01*
X69850000Y-138578711D01*
X69850000Y-131926882D01*
X70178780Y-131926882D01*
X70178780Y-132131517D01*
X70210789Y-132333617D01*
X70274024Y-132528231D01*
X70366921Y-132710550D01*
X70366927Y-132710559D01*
X70399303Y-132755121D01*
X70399304Y-132755122D01*
X71078780Y-132075646D01*
X71078780Y-132081861D01*
X71106039Y-132183594D01*
X71158700Y-132274806D01*
X71233174Y-132349280D01*
X71324386Y-132401941D01*
X71426119Y-132429200D01*
X71432333Y-132429200D01*
X70752856Y-133108674D01*
X70797430Y-133141059D01*
X70979748Y-133233955D01*
X71174362Y-133297190D01*
X71376463Y-133329200D01*
X71581097Y-133329200D01*
X71783197Y-133297190D01*
X71977811Y-133233955D01*
X72160129Y-133141059D01*
X72204701Y-133108674D01*
X71525227Y-132429200D01*
X71531441Y-132429200D01*
X71633174Y-132401941D01*
X71724386Y-132349280D01*
X71798860Y-132274806D01*
X71851521Y-132183594D01*
X71878780Y-132081861D01*
X71878780Y-132075647D01*
X72558253Y-132755121D01*
X72596060Y-132752146D01*
X72664438Y-132766510D01*
X72714195Y-132815561D01*
X72723494Y-132836756D01*
X72743966Y-132898534D01*
X72836068Y-133047856D01*
X72960124Y-133171912D01*
X73109446Y-133264014D01*
X73275983Y-133319199D01*
X73378771Y-133329700D01*
X74578788Y-133329699D01*
X74681577Y-133319199D01*
X74848114Y-133264014D01*
X74997436Y-133171912D01*
X75121492Y-133047856D01*
X75213594Y-132898534D01*
X75268779Y-132731997D01*
X75279280Y-132629209D01*
X75279279Y-131429192D01*
X75268779Y-131326403D01*
X75213594Y-131159866D01*
X75121492Y-131010544D01*
X74997436Y-130886488D01*
X74878484Y-130813118D01*
X74848116Y-130794387D01*
X74848111Y-130794385D01*
X74824756Y-130786646D01*
X74681577Y-130739201D01*
X74681575Y-130739200D01*
X74578790Y-130728700D01*
X73378778Y-130728700D01*
X73378761Y-130728701D01*
X73275983Y-130739200D01*
X73275980Y-130739201D01*
X73109448Y-130794385D01*
X73109443Y-130794387D01*
X72960122Y-130886489D01*
X72836069Y-131010542D01*
X72743967Y-131159863D01*
X72743966Y-131159866D01*
X72727321Y-131210099D01*
X72723497Y-131221638D01*
X72683724Y-131279083D01*
X72619208Y-131305906D01*
X72596063Y-131306252D01*
X72558254Y-131303276D01*
X71878780Y-131982751D01*
X71878780Y-131976539D01*
X71851521Y-131874806D01*
X71798860Y-131783594D01*
X71724386Y-131709120D01*
X71633174Y-131656459D01*
X71531441Y-131629200D01*
X71525226Y-131629200D01*
X72204702Y-130949724D01*
X72204701Y-130949723D01*
X72160139Y-130917347D01*
X72160130Y-130917341D01*
X71977811Y-130824444D01*
X71783197Y-130761209D01*
X71581097Y-130729200D01*
X71376463Y-130729200D01*
X71174362Y-130761209D01*
X70979748Y-130824444D01*
X70797424Y-130917343D01*
X70752857Y-130949723D01*
X70752857Y-130949724D01*
X71432334Y-131629200D01*
X71426119Y-131629200D01*
X71324386Y-131656459D01*
X71233174Y-131709120D01*
X71158700Y-131783594D01*
X71106039Y-131874806D01*
X71078780Y-131976539D01*
X71078780Y-131982753D01*
X70399304Y-131303277D01*
X70399303Y-131303277D01*
X70366923Y-131347844D01*
X70274024Y-131530168D01*
X70210789Y-131724782D01*
X70178780Y-131926882D01*
X69850000Y-131926882D01*
X69850000Y-130642822D01*
X94114499Y-130642822D01*
X94148374Y-130813118D01*
X94148377Y-130813128D01*
X94214822Y-130973542D01*
X94214824Y-130973545D01*
X94220601Y-130982191D01*
X94241480Y-131048868D01*
X94241500Y-131051083D01*
X94241500Y-135648915D01*
X94221815Y-135715954D01*
X94220602Y-135717805D01*
X94214831Y-135726441D01*
X94214821Y-135726459D01*
X94148377Y-135886871D01*
X94148374Y-135886881D01*
X94114500Y-136057177D01*
X94114500Y-136057180D01*
X94114500Y-136230820D01*
X94114500Y-136230822D01*
X94114499Y-136230822D01*
X94148374Y-136401118D01*
X94148377Y-136401128D01*
X94214821Y-136561540D01*
X94214828Y-136561553D01*
X94311293Y-136705922D01*
X94311296Y-136705926D01*
X94434073Y-136828703D01*
X94434077Y-136828706D01*
X94578446Y-136925171D01*
X94578459Y-136925178D01*
X94738871Y-136991622D01*
X94738876Y-136991624D01*
X94738880Y-136991624D01*
X94738881Y-136991625D01*
X94909177Y-137025500D01*
X94909180Y-137025500D01*
X95082822Y-137025500D01*
X95200182Y-137002155D01*
X95253124Y-136991624D01*
X95413547Y-136925175D01*
X95495845Y-136870184D01*
X95562522Y-136849307D01*
X95629902Y-136867791D01*
X95676593Y-136919770D01*
X95679297Y-136925834D01*
X95738823Y-137069544D01*
X95738828Y-137069553D01*
X95835293Y-137213922D01*
X95835296Y-137213926D01*
X95958073Y-137336703D01*
X95958077Y-137336706D01*
X96102446Y-137433171D01*
X96102459Y-137433178D01*
X96262871Y-137499622D01*
X96262876Y-137499624D01*
X96262880Y-137499624D01*
X96262881Y-137499625D01*
X96433177Y-137533500D01*
X96433180Y-137533500D01*
X96606822Y-137533500D01*
X96734513Y-137508100D01*
X96777124Y-137499624D01*
X96929078Y-137436683D01*
X96937540Y-137433178D01*
X96937540Y-137433177D01*
X96937547Y-137433175D01*
X97081923Y-137336706D01*
X97204706Y-137213923D01*
X97301175Y-137069547D01*
X97367624Y-136909124D01*
X97379484Y-136849500D01*
X97401500Y-136738822D01*
X97401500Y-136565177D01*
X97367625Y-136394881D01*
X97367624Y-136394880D01*
X97367624Y-136394876D01*
X97354868Y-136364080D01*
X97301178Y-136234459D01*
X97301171Y-136234446D01*
X97204706Y-136090077D01*
X97204703Y-136090073D01*
X97183819Y-136069189D01*
X97150334Y-136007866D01*
X97147500Y-135981508D01*
X97147500Y-131226491D01*
X97167185Y-131159452D01*
X97183815Y-131138813D01*
X97204706Y-131117923D01*
X97301175Y-130973547D01*
X97367624Y-130813124D01*
X97386016Y-130720662D01*
X97401500Y-130642822D01*
X97401500Y-130469177D01*
X97367625Y-130298881D01*
X97367624Y-130298880D01*
X97367624Y-130298876D01*
X97346476Y-130247820D01*
X97301178Y-130138459D01*
X97301171Y-130138446D01*
X97204706Y-129994077D01*
X97204703Y-129994073D01*
X97081926Y-129871296D01*
X97081922Y-129871293D01*
X96937553Y-129774828D01*
X96937540Y-129774821D01*
X96777128Y-129708377D01*
X96777118Y-129708374D01*
X96606822Y-129674500D01*
X96606820Y-129674500D01*
X96433180Y-129674500D01*
X96433178Y-129674500D01*
X96262881Y-129708374D01*
X96262871Y-129708377D01*
X96102459Y-129774821D01*
X96102446Y-129774828D01*
X95958077Y-129871293D01*
X95958073Y-129871296D01*
X95845681Y-129983689D01*
X95784358Y-130017174D01*
X95714666Y-130012190D01*
X95670319Y-129983689D01*
X95557926Y-129871296D01*
X95557922Y-129871293D01*
X95413553Y-129774828D01*
X95413540Y-129774821D01*
X95253128Y-129708377D01*
X95253118Y-129708374D01*
X95082822Y-129674500D01*
X95082820Y-129674500D01*
X94909180Y-129674500D01*
X94909178Y-129674500D01*
X94738881Y-129708374D01*
X94738871Y-129708377D01*
X94578459Y-129774821D01*
X94578446Y-129774828D01*
X94434077Y-129871293D01*
X94434073Y-129871296D01*
X94311296Y-129994073D01*
X94311293Y-129994077D01*
X94214828Y-130138446D01*
X94214821Y-130138459D01*
X94148377Y-130298871D01*
X94148374Y-130298881D01*
X94114500Y-130469177D01*
X94114500Y-130469180D01*
X94114500Y-130642820D01*
X94114500Y-130642822D01*
X94114499Y-130642822D01*
X69850000Y-130642822D01*
X69850000Y-118478711D01*
X70749500Y-118478711D01*
X70749500Y-118721288D01*
X70781161Y-118961785D01*
X70843947Y-119196104D01*
X70876094Y-119273713D01*
X70936776Y-119420212D01*
X71058064Y-119630289D01*
X71058066Y-119630292D01*
X71058067Y-119630293D01*
X71205733Y-119822736D01*
X71205739Y-119822743D01*
X71377256Y-119994260D01*
X71377263Y-119994266D01*
X71420164Y-120027185D01*
X71569711Y-120141936D01*
X71779788Y-120263224D01*
X72003900Y-120356054D01*
X72238211Y-120418838D01*
X72418586Y-120442584D01*
X72478711Y-120450500D01*
X72478712Y-120450500D01*
X72721289Y-120450500D01*
X72769388Y-120444167D01*
X72961789Y-120418838D01*
X73196100Y-120356054D01*
X73420212Y-120263224D01*
X73630289Y-120141936D01*
X73822738Y-119994265D01*
X73994265Y-119822738D01*
X74141936Y-119630289D01*
X74263224Y-119420212D01*
X74356054Y-119196100D01*
X74418838Y-118961789D01*
X74450500Y-118721288D01*
X74450500Y-118478712D01*
X74418838Y-118238211D01*
X74356054Y-118003900D01*
X74263224Y-117779788D01*
X74141936Y-117569711D01*
X73994265Y-117377262D01*
X73994260Y-117377256D01*
X73822743Y-117205739D01*
X73822736Y-117205733D01*
X73630293Y-117058067D01*
X73630292Y-117058066D01*
X73630289Y-117058064D01*
X73420212Y-116936776D01*
X73420205Y-116936773D01*
X73196104Y-116843947D01*
X72961785Y-116781161D01*
X72721289Y-116749500D01*
X72721288Y-116749500D01*
X72478712Y-116749500D01*
X72478711Y-116749500D01*
X72238214Y-116781161D01*
X72003895Y-116843947D01*
X71779794Y-116936773D01*
X71779785Y-116936777D01*
X71569706Y-117058067D01*
X71377263Y-117205733D01*
X71377256Y-117205739D01*
X71205739Y-117377256D01*
X71205733Y-117377263D01*
X71058067Y-117569706D01*
X70936777Y-117779785D01*
X70936773Y-117779794D01*
X70843947Y-118003895D01*
X70781161Y-118238214D01*
X70749500Y-118478711D01*
X69850000Y-118478711D01*
X69850000Y-98471063D01*
X69869685Y-98404024D01*
X69922489Y-98358269D01*
X69974000Y-98347063D01*
X72239600Y-98347063D01*
X72247603Y-98339060D01*
X72308926Y-98305575D01*
X72335284Y-98302741D01*
X74314393Y-98302741D01*
X74314393Y-78821839D01*
X71850120Y-78821839D01*
X71850120Y-81154204D01*
X71830435Y-81221243D01*
X71777631Y-81266998D01*
X71726120Y-81278204D01*
X69974000Y-81278204D01*
X69906961Y-81258519D01*
X69861206Y-81205715D01*
X69850000Y-81154204D01*
X69850000Y-75078711D01*
X71549500Y-75078711D01*
X71549500Y-75321288D01*
X71581161Y-75561785D01*
X71643947Y-75796104D01*
X71736773Y-76020205D01*
X71736776Y-76020212D01*
X71858064Y-76230289D01*
X71858066Y-76230292D01*
X71858067Y-76230293D01*
X72005733Y-76422736D01*
X72005739Y-76422743D01*
X72177256Y-76594260D01*
X72177262Y-76594265D01*
X72369711Y-76741936D01*
X72579788Y-76863224D01*
X72803900Y-76956054D01*
X73038211Y-77018838D01*
X73218586Y-77042584D01*
X73278711Y-77050500D01*
X73278712Y-77050500D01*
X73521289Y-77050500D01*
X73569388Y-77044167D01*
X73761789Y-77018838D01*
X73996100Y-76956054D01*
X74220212Y-76863224D01*
X74430289Y-76741936D01*
X74622738Y-76594265D01*
X74794265Y-76422738D01*
X74941936Y-76230289D01*
X75063224Y-76020212D01*
X75156054Y-75796100D01*
X75218838Y-75561789D01*
X75250500Y-75321288D01*
X75250500Y-75078712D01*
X75250500Y-75078711D01*
X147749500Y-75078711D01*
X147749500Y-75321288D01*
X147781161Y-75561785D01*
X147843947Y-75796104D01*
X147936773Y-76020205D01*
X147936776Y-76020212D01*
X148058064Y-76230289D01*
X148058066Y-76230292D01*
X148058067Y-76230293D01*
X148205733Y-76422736D01*
X148205739Y-76422743D01*
X148377256Y-76594260D01*
X148377262Y-76594265D01*
X148569711Y-76741936D01*
X148779788Y-76863224D01*
X149003900Y-76956054D01*
X149238211Y-77018838D01*
X149418586Y-77042584D01*
X149478711Y-77050500D01*
X149478712Y-77050500D01*
X149721289Y-77050500D01*
X149769388Y-77044167D01*
X149961789Y-77018838D01*
X150196100Y-76956054D01*
X150420212Y-76863224D01*
X150630289Y-76741936D01*
X150822738Y-76594265D01*
X150994265Y-76422738D01*
X151141936Y-76230289D01*
X151263224Y-76020212D01*
X151356054Y-75796100D01*
X151418838Y-75561789D01*
X151450500Y-75321288D01*
X151450500Y-75078712D01*
X151418838Y-74838211D01*
X151356054Y-74603900D01*
X151263224Y-74379788D01*
X151141936Y-74169711D01*
X150994265Y-73977262D01*
X150994260Y-73977256D01*
X150822743Y-73805739D01*
X150822736Y-73805733D01*
X150630293Y-73658067D01*
X150630292Y-73658066D01*
X150630289Y-73658064D01*
X150420212Y-73536776D01*
X150420205Y-73536773D01*
X150196104Y-73443947D01*
X149961785Y-73381161D01*
X149721289Y-73349500D01*
X149721288Y-73349500D01*
X149478712Y-73349500D01*
X149478711Y-73349500D01*
X149238214Y-73381161D01*
X149003895Y-73443947D01*
X148779794Y-73536773D01*
X148779785Y-73536777D01*
X148569706Y-73658067D01*
X148377263Y-73805733D01*
X148377256Y-73805739D01*
X148205739Y-73977256D01*
X148205733Y-73977263D01*
X148058067Y-74169706D01*
X147936777Y-74379785D01*
X147936773Y-74379794D01*
X147843947Y-74603895D01*
X147781161Y-74838214D01*
X147749500Y-75078711D01*
X75250500Y-75078711D01*
X75218838Y-74838211D01*
X75156054Y-74603900D01*
X75063224Y-74379788D01*
X74941936Y-74169711D01*
X74794265Y-73977262D01*
X74794260Y-73977256D01*
X74622743Y-73805739D01*
X74622736Y-73805733D01*
X74430293Y-73658067D01*
X74430292Y-73658066D01*
X74430289Y-73658064D01*
X74220212Y-73536776D01*
X74220205Y-73536773D01*
X73996104Y-73443947D01*
X73761785Y-73381161D01*
X73521289Y-73349500D01*
X73521288Y-73349500D01*
X73278712Y-73349500D01*
X73278711Y-73349500D01*
X73038214Y-73381161D01*
X72803895Y-73443947D01*
X72579794Y-73536773D01*
X72579785Y-73536777D01*
X72369706Y-73658067D01*
X72177263Y-73805733D01*
X72177256Y-73805739D01*
X72005739Y-73977256D01*
X72005733Y-73977263D01*
X71858067Y-74169706D01*
X71736777Y-74379785D01*
X71736773Y-74379794D01*
X71643947Y-74603895D01*
X71581161Y-74838214D01*
X71549500Y-75078711D01*
X69850000Y-75078711D01*
X69850000Y-72514000D01*
X69869685Y-72446961D01*
X69922489Y-72401206D01*
X69974000Y-72390000D01*
X152276000Y-72390000D01*
X152343039Y-72409685D01*
G37*
%TD.AperFunction*%
%TD*%
M02*
