%TF.GenerationSoftware,KiCad,Pcbnew,9.0.5*%
%TF.CreationDate,2025-11-02T14:40:10-08:00*%
%TF.ProjectId,SD-DADPT,53442d44-4144-4505-942e-6b696361645f,PR-1.0*%
%TF.SameCoordinates,Original*%
%TF.FileFunction,Legend,Bot*%
%TF.FilePolarity,Positive*%
%FSLAX46Y46*%
G04 Gerber Fmt 4.6, Leading zero omitted, Abs format (unit mm)*
G04 Created by KiCad (PCBNEW 9.0.5) date 2025-11-02 14:40:10*
%MOMM*%
%LPD*%
G01*
G04 APERTURE LIST*
%ADD10C,0.150000*%
%ADD11C,0.120000*%
G04 APERTURE END LIST*
D10*
X102889160Y-131534819D02*
X102889160Y-132249104D01*
X102889160Y-132249104D02*
X102936779Y-132391961D01*
X102936779Y-132391961D02*
X103032017Y-132487200D01*
X103032017Y-132487200D02*
X103174874Y-132534819D01*
X103174874Y-132534819D02*
X103270112Y-132534819D01*
X101984398Y-131534819D02*
X102174874Y-131534819D01*
X102174874Y-131534819D02*
X102270112Y-131582438D01*
X102270112Y-131582438D02*
X102317731Y-131630057D01*
X102317731Y-131630057D02*
X102412969Y-131772914D01*
X102412969Y-131772914D02*
X102460588Y-131963390D01*
X102460588Y-131963390D02*
X102460588Y-132344342D01*
X102460588Y-132344342D02*
X102412969Y-132439580D01*
X102412969Y-132439580D02*
X102365350Y-132487200D01*
X102365350Y-132487200D02*
X102270112Y-132534819D01*
X102270112Y-132534819D02*
X102079636Y-132534819D01*
X102079636Y-132534819D02*
X101984398Y-132487200D01*
X101984398Y-132487200D02*
X101936779Y-132439580D01*
X101936779Y-132439580D02*
X101889160Y-132344342D01*
X101889160Y-132344342D02*
X101889160Y-132106247D01*
X101889160Y-132106247D02*
X101936779Y-132011009D01*
X101936779Y-132011009D02*
X101984398Y-131963390D01*
X101984398Y-131963390D02*
X102079636Y-131915771D01*
X102079636Y-131915771D02*
X102270112Y-131915771D01*
X102270112Y-131915771D02*
X102365350Y-131963390D01*
X102365350Y-131963390D02*
X102412969Y-132011009D01*
X102412969Y-132011009D02*
X102460588Y-132106247D01*
X120974761Y-128978819D02*
X120974761Y-127978819D01*
X120974761Y-127978819D02*
X120736666Y-127978819D01*
X120736666Y-127978819D02*
X120593809Y-128026438D01*
X120593809Y-128026438D02*
X120498571Y-128121676D01*
X120498571Y-128121676D02*
X120450952Y-128216914D01*
X120450952Y-128216914D02*
X120403333Y-128407390D01*
X120403333Y-128407390D02*
X120403333Y-128550247D01*
X120403333Y-128550247D02*
X120450952Y-128740723D01*
X120450952Y-128740723D02*
X120498571Y-128835961D01*
X120498571Y-128835961D02*
X120593809Y-128931200D01*
X120593809Y-128931200D02*
X120736666Y-128978819D01*
X120736666Y-128978819D02*
X120974761Y-128978819D01*
X119974761Y-128978819D02*
X119974761Y-127978819D01*
X119546190Y-128931200D02*
X119403333Y-128978819D01*
X119403333Y-128978819D02*
X119165238Y-128978819D01*
X119165238Y-128978819D02*
X119070000Y-128931200D01*
X119070000Y-128931200D02*
X119022381Y-128883580D01*
X119022381Y-128883580D02*
X118974762Y-128788342D01*
X118974762Y-128788342D02*
X118974762Y-128693104D01*
X118974762Y-128693104D02*
X119022381Y-128597866D01*
X119022381Y-128597866D02*
X119070000Y-128550247D01*
X119070000Y-128550247D02*
X119165238Y-128502628D01*
X119165238Y-128502628D02*
X119355714Y-128455009D01*
X119355714Y-128455009D02*
X119450952Y-128407390D01*
X119450952Y-128407390D02*
X119498571Y-128359771D01*
X119498571Y-128359771D02*
X119546190Y-128264533D01*
X119546190Y-128264533D02*
X119546190Y-128169295D01*
X119546190Y-128169295D02*
X119498571Y-128074057D01*
X119498571Y-128074057D02*
X119450952Y-128026438D01*
X119450952Y-128026438D02*
X119355714Y-127978819D01*
X119355714Y-127978819D02*
X119117619Y-127978819D01*
X119117619Y-127978819D02*
X118974762Y-128026438D01*
X118546190Y-128978819D02*
X118546190Y-127978819D01*
X118546190Y-127978819D02*
X118165238Y-127978819D01*
X118165238Y-127978819D02*
X118070000Y-128026438D01*
X118070000Y-128026438D02*
X118022381Y-128074057D01*
X118022381Y-128074057D02*
X117974762Y-128169295D01*
X117974762Y-128169295D02*
X117974762Y-128312152D01*
X117974762Y-128312152D02*
X118022381Y-128407390D01*
X118022381Y-128407390D02*
X118070000Y-128455009D01*
X118070000Y-128455009D02*
X118165238Y-128502628D01*
X118165238Y-128502628D02*
X118546190Y-128502628D01*
X117070000Y-128978819D02*
X117546190Y-128978819D01*
X117546190Y-128978819D02*
X117546190Y-127978819D01*
X116784285Y-128693104D02*
X116308095Y-128693104D01*
X116879523Y-128978819D02*
X116546190Y-127978819D01*
X116546190Y-127978819D02*
X116212857Y-128978819D01*
X115689047Y-128502628D02*
X115689047Y-128978819D01*
X116022380Y-127978819D02*
X115689047Y-128502628D01*
X115689047Y-128502628D02*
X115355714Y-127978819D01*
X113689047Y-128883580D02*
X113736666Y-128931200D01*
X113736666Y-128931200D02*
X113879523Y-128978819D01*
X113879523Y-128978819D02*
X113974761Y-128978819D01*
X113974761Y-128978819D02*
X114117618Y-128931200D01*
X114117618Y-128931200D02*
X114212856Y-128835961D01*
X114212856Y-128835961D02*
X114260475Y-128740723D01*
X114260475Y-128740723D02*
X114308094Y-128550247D01*
X114308094Y-128550247D02*
X114308094Y-128407390D01*
X114308094Y-128407390D02*
X114260475Y-128216914D01*
X114260475Y-128216914D02*
X114212856Y-128121676D01*
X114212856Y-128121676D02*
X114117618Y-128026438D01*
X114117618Y-128026438D02*
X113974761Y-127978819D01*
X113974761Y-127978819D02*
X113879523Y-127978819D01*
X113879523Y-127978819D02*
X113736666Y-128026438D01*
X113736666Y-128026438D02*
X113689047Y-128074057D01*
X113308094Y-128693104D02*
X112831904Y-128693104D01*
X113403332Y-128978819D02*
X113069999Y-127978819D01*
X113069999Y-127978819D02*
X112736666Y-128978819D01*
X112069999Y-128455009D02*
X111927142Y-128502628D01*
X111927142Y-128502628D02*
X111879523Y-128550247D01*
X111879523Y-128550247D02*
X111831904Y-128645485D01*
X111831904Y-128645485D02*
X111831904Y-128788342D01*
X111831904Y-128788342D02*
X111879523Y-128883580D01*
X111879523Y-128883580D02*
X111927142Y-128931200D01*
X111927142Y-128931200D02*
X112022380Y-128978819D01*
X112022380Y-128978819D02*
X112403332Y-128978819D01*
X112403332Y-128978819D02*
X112403332Y-127978819D01*
X112403332Y-127978819D02*
X112069999Y-127978819D01*
X112069999Y-127978819D02*
X111974761Y-128026438D01*
X111974761Y-128026438D02*
X111927142Y-128074057D01*
X111927142Y-128074057D02*
X111879523Y-128169295D01*
X111879523Y-128169295D02*
X111879523Y-128264533D01*
X111879523Y-128264533D02*
X111927142Y-128359771D01*
X111927142Y-128359771D02*
X111974761Y-128407390D01*
X111974761Y-128407390D02*
X112069999Y-128455009D01*
X112069999Y-128455009D02*
X112403332Y-128455009D01*
X110927142Y-128978819D02*
X111403332Y-128978819D01*
X111403332Y-128978819D02*
X111403332Y-127978819D01*
X110593808Y-128455009D02*
X110260475Y-128455009D01*
X110117618Y-128978819D02*
X110593808Y-128978819D01*
X110593808Y-128978819D02*
X110593808Y-127978819D01*
X110593808Y-127978819D02*
X110117618Y-127978819D01*
D11*
%TO.C,J6*%
X102760000Y-129430000D02*
X102760001Y-130810000D01*
X102760000Y-132080000D02*
X102760000Y-134730000D01*
X102760000Y-134730000D02*
X128380000Y-134730000D01*
X104140000Y-129430001D02*
X102760000Y-129430000D01*
X105410000Y-129430000D02*
X105410000Y-132080000D01*
X105410000Y-129430000D02*
X128380000Y-129430000D01*
X105410000Y-132080000D02*
X102760000Y-132080000D01*
X128380000Y-129430000D02*
X128380000Y-134730000D01*
%TD*%
M02*
