%TF.GenerationSoftware,KiCad,Pcbnew,9.0.6*%
%TF.CreationDate,2025-11-14T14:39:25-08:00*%
%TF.ProjectId,SD-DADPT,53442d44-4144-4505-942e-6b696361645f,PR-1.0*%
%TF.SameCoordinates,Original*%
%TF.FileFunction,Soldermask,Top*%
%TF.FilePolarity,Negative*%
%FSLAX46Y46*%
G04 Gerber Fmt 4.6, Leading zero omitted, Abs format (unit mm)*
G04 Created by KiCad (PCBNEW 9.0.6) date 2025-11-14 14:39:25*
%MOMM*%
%LPD*%
G01*
G04 APERTURE LIST*
G04 Aperture macros list*
%AMRoundRect*
0 Rectangle with rounded corners*
0 $1 Rounding radius*
0 $2 $3 $4 $5 $6 $7 $8 $9 X,Y pos of 4 corners*
0 Add a 4 corners polygon primitive as box body*
4,1,4,$2,$3,$4,$5,$6,$7,$8,$9,$2,$3,0*
0 Add four circle primitives for the rounded corners*
1,1,$1+$1,$2,$3*
1,1,$1+$1,$4,$5*
1,1,$1+$1,$6,$7*
1,1,$1+$1,$8,$9*
0 Add four rect primitives between the rounded corners*
20,1,$1+$1,$2,$3,$4,$5,0*
20,1,$1+$1,$4,$5,$6,$7,0*
20,1,$1+$1,$6,$7,$8,$9,0*
20,1,$1+$1,$8,$9,$2,$3,0*%
G04 Aperture macros list end*
%ADD10C,3.200000*%
%ADD11R,1.700000X1.700000*%
%ADD12C,1.700000*%
%ADD13R,2.400000X2.400000*%
%ADD14C,2.400000*%
%ADD15RoundRect,0.250000X0.550000X0.550000X-0.550000X0.550000X-0.550000X-0.550000X0.550000X-0.550000X0*%
%ADD16C,1.600000*%
%ADD17RoundRect,0.237500X-0.300000X-0.237500X0.300000X-0.237500X0.300000X0.237500X-0.300000X0.237500X0*%
%ADD18RoundRect,0.237500X0.237500X-0.300000X0.237500X0.300000X-0.237500X0.300000X-0.237500X-0.300000X0*%
G04 APERTURE END LIST*
D10*
%TO.C,H5*%
X72600000Y-118600000D03*
%TD*%
%TO.C,H2*%
X73400000Y-75200000D03*
%TD*%
%TO.C,H1*%
X73400000Y-138700000D03*
%TD*%
%TO.C,H4*%
X149600000Y-138700000D03*
%TD*%
%TO.C,H3*%
X149600000Y-75200000D03*
%TD*%
D11*
%TO.C,J3*%
X112522000Y-77470000D03*
D12*
X109982000Y-77470000D03*
X107442001Y-77470000D03*
X104902000Y-77470000D03*
X102362000Y-77470000D03*
X99822000Y-77470000D03*
%TD*%
D13*
%TO.C,J8*%
X79650000Y-138250000D03*
D14*
X84650000Y-138250000D03*
%TD*%
D11*
%TO.C,J4*%
X130302000Y-77470000D03*
D12*
X127762000Y-77470000D03*
X125222001Y-77470000D03*
X122682000Y-77470000D03*
X120142000Y-77470000D03*
X117602000Y-77470000D03*
%TD*%
D15*
%TO.C,C3*%
X73978780Y-132029200D03*
D16*
X71478780Y-132029200D03*
%TD*%
D11*
%TO.C,J1*%
X139700000Y-125730000D03*
D12*
X137160000Y-125730000D03*
X134620001Y-125730000D03*
X132080000Y-125730000D03*
X129540000Y-125730000D03*
X127000000Y-125730000D03*
X124460000Y-125730000D03*
X121919999Y-125730000D03*
%TD*%
D17*
%TO.C,C2*%
X121592000Y-81280000D03*
X123317000Y-81280000D03*
%TD*%
D11*
%TO.C,J5*%
X88900000Y-139700000D03*
D12*
X91440000Y-139700000D03*
X93979999Y-139700000D03*
X96520000Y-139700000D03*
X99060000Y-139700000D03*
X101600000Y-139700000D03*
X104140000Y-139700000D03*
X106680001Y-139700000D03*
X109220000Y-139700000D03*
X111760000Y-139700000D03*
X114300000Y-139700000D03*
X116839999Y-139700000D03*
X119380000Y-139700000D03*
X121920000Y-139700000D03*
X124460000Y-139700000D03*
X126999999Y-139700000D03*
X129540001Y-139700000D03*
X132080000Y-139700000D03*
X134620000Y-139700000D03*
X137160000Y-139700000D03*
X139699999Y-139700000D03*
X142240000Y-139700000D03*
%TD*%
D18*
%TO.C,C1*%
X98425000Y-132942501D03*
X98425000Y-131217499D03*
%TD*%
D11*
%TO.C,J2*%
X117906800Y-125730000D03*
D12*
X115366800Y-125730000D03*
X112826801Y-125730000D03*
X110286800Y-125730000D03*
X107746800Y-125730000D03*
X105206800Y-125730000D03*
X102666800Y-125730000D03*
X100126799Y-125730000D03*
%TD*%
D11*
%TO.C,J7*%
X151130000Y-132080000D03*
D12*
X151130000Y-129540000D03*
X151130000Y-127000001D03*
X151130000Y-124460000D03*
X151130000Y-121920000D03*
X151130000Y-119380000D03*
%TD*%
D11*
%TO.C,J6*%
X104140000Y-130810000D03*
D12*
X104140000Y-133350000D03*
X106680000Y-130810000D03*
X106680000Y-133350000D03*
X109219999Y-130810000D03*
X109220000Y-133350000D03*
X111760000Y-130810000D03*
X111760000Y-133350000D03*
X114300000Y-130810000D03*
X114300000Y-133350000D03*
X116840000Y-130810000D03*
X116840000Y-133350000D03*
X119380000Y-130810000D03*
X119380000Y-133350000D03*
X121920001Y-130810000D03*
X121920000Y-133350000D03*
X124460000Y-130810000D03*
X124460000Y-133350000D03*
X127000000Y-130810000D03*
X127000000Y-133350000D03*
%TD*%
M02*
