%TF.GenerationSoftware,KiCad,Pcbnew,9.0.6*%
%TF.CreationDate,2025-11-14T19:52:51-08:00*%
%TF.ProjectId,SD-WSPICODB,53442d57-5350-4494-934f-44422e6b6963,R1.0*%
%TF.SameCoordinates,Original*%
%TF.FileFunction,Copper,L2,Bot*%
%TF.FilePolarity,Positive*%
%FSLAX46Y46*%
G04 Gerber Fmt 4.6, Leading zero omitted, Abs format (unit mm)*
G04 Created by KiCad (PCBNEW 9.0.6) date 2025-11-14 19:52:51*
%MOMM*%
%LPD*%
G01*
G04 APERTURE LIST*
%ADD10C,0.127000*%
%TA.AperFunction,NonConductor*%
%ADD11C,0.127000*%
%TD*%
%TA.AperFunction,ComponentPad*%
%ADD12R,1.700000X1.700000*%
%TD*%
%TA.AperFunction,ComponentPad*%
%ADD13C,1.700000*%
%TD*%
%TA.AperFunction,ComponentPad*%
%ADD14O,1.700000X1.700000*%
%TD*%
%TA.AperFunction,ComponentPad*%
%ADD15O,1.000000X1.800000*%
%TD*%
%TA.AperFunction,ComponentPad*%
%ADD16O,1.000000X2.100000*%
%TD*%
%TA.AperFunction,ViaPad*%
%ADD17C,0.600000*%
%TD*%
%TA.AperFunction,ViaPad*%
%ADD18C,0.711200*%
%TD*%
%TA.AperFunction,Conductor*%
%ADD19C,0.381000*%
%TD*%
%TA.AperFunction,Conductor*%
%ADD20C,0.200000*%
%TD*%
%TA.AperFunction,Conductor*%
%ADD21C,0.635000*%
%TD*%
%TA.AperFunction,Conductor*%
%ADD22C,0.762000*%
%TD*%
G04 APERTURE END LIST*
D10*
D11*
X68602639Y-100627448D02*
X67713639Y-100415781D01*
X67713639Y-100415781D02*
X68348639Y-100246448D01*
X68348639Y-100246448D02*
X67713639Y-100077114D01*
X67713639Y-100077114D02*
X68602639Y-99865448D01*
X67755973Y-99569114D02*
X67713639Y-99442114D01*
X67713639Y-99442114D02*
X67713639Y-99230448D01*
X67713639Y-99230448D02*
X67755973Y-99145781D01*
X67755973Y-99145781D02*
X67798306Y-99103448D01*
X67798306Y-99103448D02*
X67882973Y-99061114D01*
X67882973Y-99061114D02*
X67967639Y-99061114D01*
X67967639Y-99061114D02*
X68052306Y-99103448D01*
X68052306Y-99103448D02*
X68094639Y-99145781D01*
X68094639Y-99145781D02*
X68136973Y-99230448D01*
X68136973Y-99230448D02*
X68179306Y-99399781D01*
X68179306Y-99399781D02*
X68221639Y-99484448D01*
X68221639Y-99484448D02*
X68263973Y-99526781D01*
X68263973Y-99526781D02*
X68348639Y-99569114D01*
X68348639Y-99569114D02*
X68433306Y-99569114D01*
X68433306Y-99569114D02*
X68517973Y-99526781D01*
X68517973Y-99526781D02*
X68560306Y-99484448D01*
X68560306Y-99484448D02*
X68602639Y-99399781D01*
X68602639Y-99399781D02*
X68602639Y-99188114D01*
X68602639Y-99188114D02*
X68560306Y-99061114D01*
X67713639Y-97494781D02*
X68136973Y-97791114D01*
X67713639Y-98002781D02*
X68602639Y-98002781D01*
X68602639Y-98002781D02*
X68602639Y-97664114D01*
X68602639Y-97664114D02*
X68560306Y-97579448D01*
X68560306Y-97579448D02*
X68517973Y-97537114D01*
X68517973Y-97537114D02*
X68433306Y-97494781D01*
X68433306Y-97494781D02*
X68306306Y-97494781D01*
X68306306Y-97494781D02*
X68221639Y-97537114D01*
X68221639Y-97537114D02*
X68179306Y-97579448D01*
X68179306Y-97579448D02*
X68136973Y-97664114D01*
X68136973Y-97664114D02*
X68136973Y-98002781D01*
X67713639Y-97113781D02*
X68602639Y-97113781D01*
X68602639Y-97113781D02*
X68602639Y-96775114D01*
X68602639Y-96775114D02*
X68560306Y-96690448D01*
X68560306Y-96690448D02*
X68517973Y-96648114D01*
X68517973Y-96648114D02*
X68433306Y-96605781D01*
X68433306Y-96605781D02*
X68306306Y-96605781D01*
X68306306Y-96605781D02*
X68221639Y-96648114D01*
X68221639Y-96648114D02*
X68179306Y-96690448D01*
X68179306Y-96690448D02*
X68136973Y-96775114D01*
X68136973Y-96775114D02*
X68136973Y-97113781D01*
X68517973Y-96267114D02*
X68560306Y-96224781D01*
X68560306Y-96224781D02*
X68602639Y-96140114D01*
X68602639Y-96140114D02*
X68602639Y-95928448D01*
X68602639Y-95928448D02*
X68560306Y-95843781D01*
X68560306Y-95843781D02*
X68517973Y-95801448D01*
X68517973Y-95801448D02*
X68433306Y-95759114D01*
X68433306Y-95759114D02*
X68348639Y-95759114D01*
X68348639Y-95759114D02*
X68221639Y-95801448D01*
X68221639Y-95801448D02*
X67713639Y-96309448D01*
X67713639Y-96309448D02*
X67713639Y-95759114D01*
X68602639Y-95208781D02*
X68602639Y-95124114D01*
X68602639Y-95124114D02*
X68560306Y-95039447D01*
X68560306Y-95039447D02*
X68517973Y-94997114D01*
X68517973Y-94997114D02*
X68433306Y-94954781D01*
X68433306Y-94954781D02*
X68263973Y-94912447D01*
X68263973Y-94912447D02*
X68052306Y-94912447D01*
X68052306Y-94912447D02*
X67882973Y-94954781D01*
X67882973Y-94954781D02*
X67798306Y-94997114D01*
X67798306Y-94997114D02*
X67755973Y-95039447D01*
X67755973Y-95039447D02*
X67713639Y-95124114D01*
X67713639Y-95124114D02*
X67713639Y-95208781D01*
X67713639Y-95208781D02*
X67755973Y-95293447D01*
X67755973Y-95293447D02*
X67798306Y-95335781D01*
X67798306Y-95335781D02*
X67882973Y-95378114D01*
X67882973Y-95378114D02*
X68052306Y-95420447D01*
X68052306Y-95420447D02*
X68263973Y-95420447D01*
X68263973Y-95420447D02*
X68433306Y-95378114D01*
X68433306Y-95378114D02*
X68517973Y-95335781D01*
X68517973Y-95335781D02*
X68560306Y-95293447D01*
X68560306Y-95293447D02*
X68602639Y-95208781D01*
X68306306Y-94150447D02*
X67713639Y-94150447D01*
X68644973Y-94362114D02*
X68009973Y-94573780D01*
X68009973Y-94573780D02*
X68009973Y-94023447D01*
X68602639Y-93515447D02*
X68602639Y-93430780D01*
X68602639Y-93430780D02*
X68560306Y-93346113D01*
X68560306Y-93346113D02*
X68517973Y-93303780D01*
X68517973Y-93303780D02*
X68433306Y-93261447D01*
X68433306Y-93261447D02*
X68263973Y-93219113D01*
X68263973Y-93219113D02*
X68052306Y-93219113D01*
X68052306Y-93219113D02*
X67882973Y-93261447D01*
X67882973Y-93261447D02*
X67798306Y-93303780D01*
X67798306Y-93303780D02*
X67755973Y-93346113D01*
X67755973Y-93346113D02*
X67713639Y-93430780D01*
X67713639Y-93430780D02*
X67713639Y-93515447D01*
X67713639Y-93515447D02*
X67755973Y-93600113D01*
X67755973Y-93600113D02*
X67798306Y-93642447D01*
X67798306Y-93642447D02*
X67882973Y-93684780D01*
X67882973Y-93684780D02*
X68052306Y-93727113D01*
X68052306Y-93727113D02*
X68263973Y-93727113D01*
X68263973Y-93727113D02*
X68433306Y-93684780D01*
X68433306Y-93684780D02*
X68517973Y-93642447D01*
X68517973Y-93642447D02*
X68560306Y-93600113D01*
X68560306Y-93600113D02*
X68602639Y-93515447D01*
X68644973Y-91525780D02*
X67501973Y-92287780D01*
X67713639Y-90552114D02*
X68602639Y-90552114D01*
X68602639Y-90552114D02*
X68602639Y-90213447D01*
X68602639Y-90213447D02*
X68560306Y-90128781D01*
X68560306Y-90128781D02*
X68517973Y-90086447D01*
X68517973Y-90086447D02*
X68433306Y-90044114D01*
X68433306Y-90044114D02*
X68306306Y-90044114D01*
X68306306Y-90044114D02*
X68221639Y-90086447D01*
X68221639Y-90086447D02*
X68179306Y-90128781D01*
X68179306Y-90128781D02*
X68136973Y-90213447D01*
X68136973Y-90213447D02*
X68136973Y-90552114D01*
X67713639Y-89663114D02*
X68306306Y-89663114D01*
X68602639Y-89663114D02*
X68560306Y-89705447D01*
X68560306Y-89705447D02*
X68517973Y-89663114D01*
X68517973Y-89663114D02*
X68560306Y-89620781D01*
X68560306Y-89620781D02*
X68602639Y-89663114D01*
X68602639Y-89663114D02*
X68517973Y-89663114D01*
X67755973Y-88858781D02*
X67713639Y-88943448D01*
X67713639Y-88943448D02*
X67713639Y-89112781D01*
X67713639Y-89112781D02*
X67755973Y-89197448D01*
X67755973Y-89197448D02*
X67798306Y-89239781D01*
X67798306Y-89239781D02*
X67882973Y-89282114D01*
X67882973Y-89282114D02*
X68136973Y-89282114D01*
X68136973Y-89282114D02*
X68221639Y-89239781D01*
X68221639Y-89239781D02*
X68263973Y-89197448D01*
X68263973Y-89197448D02*
X68306306Y-89112781D01*
X68306306Y-89112781D02*
X68306306Y-88943448D01*
X68306306Y-88943448D02*
X68263973Y-88858781D01*
X67713639Y-88350781D02*
X67755973Y-88435448D01*
X67755973Y-88435448D02*
X67798306Y-88477781D01*
X67798306Y-88477781D02*
X67882973Y-88520114D01*
X67882973Y-88520114D02*
X68136973Y-88520114D01*
X68136973Y-88520114D02*
X68221639Y-88477781D01*
X68221639Y-88477781D02*
X68263973Y-88435448D01*
X68263973Y-88435448D02*
X68306306Y-88350781D01*
X68306306Y-88350781D02*
X68306306Y-88223781D01*
X68306306Y-88223781D02*
X68263973Y-88139114D01*
X68263973Y-88139114D02*
X68221639Y-88096781D01*
X68221639Y-88096781D02*
X68136973Y-88054448D01*
X68136973Y-88054448D02*
X67882973Y-88054448D01*
X67882973Y-88054448D02*
X67798306Y-88096781D01*
X67798306Y-88096781D02*
X67755973Y-88139114D01*
X67755973Y-88139114D02*
X67713639Y-88223781D01*
X67713639Y-88223781D02*
X67713639Y-88350781D01*
X68306306Y-87080782D02*
X67713639Y-86869115D01*
X67713639Y-86869115D02*
X68306306Y-86657448D01*
X67713639Y-85853115D02*
X67713639Y-86361115D01*
X67713639Y-86107115D02*
X68602639Y-86107115D01*
X68602639Y-86107115D02*
X68475639Y-86191782D01*
X68475639Y-86191782D02*
X68390973Y-86276449D01*
X68390973Y-86276449D02*
X68348639Y-86361115D01*
X67798306Y-85472115D02*
X67755973Y-85429782D01*
X67755973Y-85429782D02*
X67713639Y-85472115D01*
X67713639Y-85472115D02*
X67755973Y-85514448D01*
X67755973Y-85514448D02*
X67798306Y-85472115D01*
X67798306Y-85472115D02*
X67713639Y-85472115D01*
X68602639Y-84879449D02*
X68602639Y-84794782D01*
X68602639Y-84794782D02*
X68560306Y-84710115D01*
X68560306Y-84710115D02*
X68517973Y-84667782D01*
X68517973Y-84667782D02*
X68433306Y-84625449D01*
X68433306Y-84625449D02*
X68263973Y-84583115D01*
X68263973Y-84583115D02*
X68052306Y-84583115D01*
X68052306Y-84583115D02*
X67882973Y-84625449D01*
X67882973Y-84625449D02*
X67798306Y-84667782D01*
X67798306Y-84667782D02*
X67755973Y-84710115D01*
X67755973Y-84710115D02*
X67713639Y-84794782D01*
X67713639Y-84794782D02*
X67713639Y-84879449D01*
X67713639Y-84879449D02*
X67755973Y-84964115D01*
X67755973Y-84964115D02*
X67798306Y-85006449D01*
X67798306Y-85006449D02*
X67882973Y-85048782D01*
X67882973Y-85048782D02*
X68052306Y-85091115D01*
X68052306Y-85091115D02*
X68263973Y-85091115D01*
X68263973Y-85091115D02*
X68433306Y-85048782D01*
X68433306Y-85048782D02*
X68517973Y-85006449D01*
X68517973Y-85006449D02*
X68560306Y-84964115D01*
X68560306Y-84964115D02*
X68602639Y-84879449D01*
X66367066Y-100034781D02*
X66324733Y-100077114D01*
X66324733Y-100077114D02*
X66282399Y-100204114D01*
X66282399Y-100204114D02*
X66282399Y-100288781D01*
X66282399Y-100288781D02*
X66324733Y-100415781D01*
X66324733Y-100415781D02*
X66409399Y-100500448D01*
X66409399Y-100500448D02*
X66494066Y-100542781D01*
X66494066Y-100542781D02*
X66663399Y-100585114D01*
X66663399Y-100585114D02*
X66790399Y-100585114D01*
X66790399Y-100585114D02*
X66959733Y-100542781D01*
X66959733Y-100542781D02*
X67044399Y-100500448D01*
X67044399Y-100500448D02*
X67129066Y-100415781D01*
X67129066Y-100415781D02*
X67171399Y-100288781D01*
X67171399Y-100288781D02*
X67171399Y-100204114D01*
X67171399Y-100204114D02*
X67129066Y-100077114D01*
X67129066Y-100077114D02*
X67086733Y-100034781D01*
X66282399Y-99526781D02*
X66324733Y-99611448D01*
X66324733Y-99611448D02*
X66367066Y-99653781D01*
X66367066Y-99653781D02*
X66451733Y-99696114D01*
X66451733Y-99696114D02*
X66705733Y-99696114D01*
X66705733Y-99696114D02*
X66790399Y-99653781D01*
X66790399Y-99653781D02*
X66832733Y-99611448D01*
X66832733Y-99611448D02*
X66875066Y-99526781D01*
X66875066Y-99526781D02*
X66875066Y-99399781D01*
X66875066Y-99399781D02*
X66832733Y-99315114D01*
X66832733Y-99315114D02*
X66790399Y-99272781D01*
X66790399Y-99272781D02*
X66705733Y-99230448D01*
X66705733Y-99230448D02*
X66451733Y-99230448D01*
X66451733Y-99230448D02*
X66367066Y-99272781D01*
X66367066Y-99272781D02*
X66324733Y-99315114D01*
X66324733Y-99315114D02*
X66282399Y-99399781D01*
X66282399Y-99399781D02*
X66282399Y-99526781D01*
X66875066Y-98849448D02*
X65986066Y-98849448D01*
X66832733Y-98849448D02*
X66875066Y-98764781D01*
X66875066Y-98764781D02*
X66875066Y-98595448D01*
X66875066Y-98595448D02*
X66832733Y-98510781D01*
X66832733Y-98510781D02*
X66790399Y-98468448D01*
X66790399Y-98468448D02*
X66705733Y-98426115D01*
X66705733Y-98426115D02*
X66451733Y-98426115D01*
X66451733Y-98426115D02*
X66367066Y-98468448D01*
X66367066Y-98468448D02*
X66324733Y-98510781D01*
X66324733Y-98510781D02*
X66282399Y-98595448D01*
X66282399Y-98595448D02*
X66282399Y-98764781D01*
X66282399Y-98764781D02*
X66324733Y-98849448D01*
X66875066Y-98129782D02*
X66282399Y-97918115D01*
X66875066Y-97706448D02*
X66282399Y-97918115D01*
X66282399Y-97918115D02*
X66070733Y-98002782D01*
X66070733Y-98002782D02*
X66028399Y-98045115D01*
X66028399Y-98045115D02*
X65986066Y-98129782D01*
X66282399Y-97367782D02*
X66875066Y-97367782D01*
X66705733Y-97367782D02*
X66790399Y-97325449D01*
X66790399Y-97325449D02*
X66832733Y-97283115D01*
X66832733Y-97283115D02*
X66875066Y-97198449D01*
X66875066Y-97198449D02*
X66875066Y-97113782D01*
X66282399Y-96817449D02*
X66875066Y-96817449D01*
X67171399Y-96817449D02*
X67129066Y-96859782D01*
X67129066Y-96859782D02*
X67086733Y-96817449D01*
X67086733Y-96817449D02*
X67129066Y-96775116D01*
X67129066Y-96775116D02*
X67171399Y-96817449D01*
X67171399Y-96817449D02*
X67086733Y-96817449D01*
X66875066Y-96013116D02*
X66155399Y-96013116D01*
X66155399Y-96013116D02*
X66070733Y-96055449D01*
X66070733Y-96055449D02*
X66028399Y-96097783D01*
X66028399Y-96097783D02*
X65986066Y-96182449D01*
X65986066Y-96182449D02*
X65986066Y-96309449D01*
X65986066Y-96309449D02*
X66028399Y-96394116D01*
X66324733Y-96013116D02*
X66282399Y-96097783D01*
X66282399Y-96097783D02*
X66282399Y-96267116D01*
X66282399Y-96267116D02*
X66324733Y-96351783D01*
X66324733Y-96351783D02*
X66367066Y-96394116D01*
X66367066Y-96394116D02*
X66451733Y-96436449D01*
X66451733Y-96436449D02*
X66705733Y-96436449D01*
X66705733Y-96436449D02*
X66790399Y-96394116D01*
X66790399Y-96394116D02*
X66832733Y-96351783D01*
X66832733Y-96351783D02*
X66875066Y-96267116D01*
X66875066Y-96267116D02*
X66875066Y-96097783D01*
X66875066Y-96097783D02*
X66832733Y-96013116D01*
X66282399Y-95589783D02*
X67171399Y-95589783D01*
X66282399Y-95208783D02*
X66748066Y-95208783D01*
X66748066Y-95208783D02*
X66832733Y-95251116D01*
X66832733Y-95251116D02*
X66875066Y-95335783D01*
X66875066Y-95335783D02*
X66875066Y-95462783D01*
X66875066Y-95462783D02*
X66832733Y-95547450D01*
X66832733Y-95547450D02*
X66790399Y-95589783D01*
X66875066Y-94912450D02*
X66875066Y-94573783D01*
X67171399Y-94785450D02*
X66409399Y-94785450D01*
X66409399Y-94785450D02*
X66324733Y-94743117D01*
X66324733Y-94743117D02*
X66282399Y-94658450D01*
X66282399Y-94658450D02*
X66282399Y-94573783D01*
X67086733Y-93642450D02*
X67129066Y-93600117D01*
X67129066Y-93600117D02*
X67171399Y-93515450D01*
X67171399Y-93515450D02*
X67171399Y-93303784D01*
X67171399Y-93303784D02*
X67129066Y-93219117D01*
X67129066Y-93219117D02*
X67086733Y-93176784D01*
X67086733Y-93176784D02*
X67002066Y-93134450D01*
X67002066Y-93134450D02*
X66917399Y-93134450D01*
X66917399Y-93134450D02*
X66790399Y-93176784D01*
X66790399Y-93176784D02*
X66282399Y-93684784D01*
X66282399Y-93684784D02*
X66282399Y-93134450D01*
X67171399Y-92584117D02*
X67171399Y-92499450D01*
X67171399Y-92499450D02*
X67129066Y-92414783D01*
X67129066Y-92414783D02*
X67086733Y-92372450D01*
X67086733Y-92372450D02*
X67002066Y-92330117D01*
X67002066Y-92330117D02*
X66832733Y-92287783D01*
X66832733Y-92287783D02*
X66621066Y-92287783D01*
X66621066Y-92287783D02*
X66451733Y-92330117D01*
X66451733Y-92330117D02*
X66367066Y-92372450D01*
X66367066Y-92372450D02*
X66324733Y-92414783D01*
X66324733Y-92414783D02*
X66282399Y-92499450D01*
X66282399Y-92499450D02*
X66282399Y-92584117D01*
X66282399Y-92584117D02*
X66324733Y-92668783D01*
X66324733Y-92668783D02*
X66367066Y-92711117D01*
X66367066Y-92711117D02*
X66451733Y-92753450D01*
X66451733Y-92753450D02*
X66621066Y-92795783D01*
X66621066Y-92795783D02*
X66832733Y-92795783D01*
X66832733Y-92795783D02*
X67002066Y-92753450D01*
X67002066Y-92753450D02*
X67086733Y-92711117D01*
X67086733Y-92711117D02*
X67129066Y-92668783D01*
X67129066Y-92668783D02*
X67171399Y-92584117D01*
X67086733Y-91949116D02*
X67129066Y-91906783D01*
X67129066Y-91906783D02*
X67171399Y-91822116D01*
X67171399Y-91822116D02*
X67171399Y-91610450D01*
X67171399Y-91610450D02*
X67129066Y-91525783D01*
X67129066Y-91525783D02*
X67086733Y-91483450D01*
X67086733Y-91483450D02*
X67002066Y-91441116D01*
X67002066Y-91441116D02*
X66917399Y-91441116D01*
X66917399Y-91441116D02*
X66790399Y-91483450D01*
X66790399Y-91483450D02*
X66282399Y-91991450D01*
X66282399Y-91991450D02*
X66282399Y-91441116D01*
X67171399Y-90636783D02*
X67171399Y-91060116D01*
X67171399Y-91060116D02*
X66748066Y-91102449D01*
X66748066Y-91102449D02*
X66790399Y-91060116D01*
X66790399Y-91060116D02*
X66832733Y-90975449D01*
X66832733Y-90975449D02*
X66832733Y-90763783D01*
X66832733Y-90763783D02*
X66790399Y-90679116D01*
X66790399Y-90679116D02*
X66748066Y-90636783D01*
X66748066Y-90636783D02*
X66663399Y-90594449D01*
X66663399Y-90594449D02*
X66451733Y-90594449D01*
X66451733Y-90594449D02*
X66367066Y-90636783D01*
X66367066Y-90636783D02*
X66324733Y-90679116D01*
X66324733Y-90679116D02*
X66282399Y-90763783D01*
X66282399Y-90763783D02*
X66282399Y-90975449D01*
X66282399Y-90975449D02*
X66324733Y-91060116D01*
X66324733Y-91060116D02*
X66367066Y-91102449D01*
X66324733Y-90171116D02*
X66282399Y-90171116D01*
X66282399Y-90171116D02*
X66197733Y-90213449D01*
X66197733Y-90213449D02*
X66155399Y-90255782D01*
X66536399Y-89155116D02*
X66536399Y-88731783D01*
X66282399Y-89239783D02*
X67171399Y-88943450D01*
X67171399Y-88943450D02*
X66282399Y-88647116D01*
X66748066Y-88350783D02*
X66748066Y-88054450D01*
X66282399Y-87927450D02*
X66282399Y-88350783D01*
X66282399Y-88350783D02*
X67171399Y-88350783D01*
X67171399Y-88350783D02*
X67171399Y-87927450D01*
X66324733Y-87588783D02*
X66282399Y-87461783D01*
X66282399Y-87461783D02*
X66282399Y-87250117D01*
X66282399Y-87250117D02*
X66324733Y-87165450D01*
X66324733Y-87165450D02*
X66367066Y-87123117D01*
X66367066Y-87123117D02*
X66451733Y-87080783D01*
X66451733Y-87080783D02*
X66536399Y-87080783D01*
X66536399Y-87080783D02*
X66621066Y-87123117D01*
X66621066Y-87123117D02*
X66663399Y-87165450D01*
X66663399Y-87165450D02*
X66705733Y-87250117D01*
X66705733Y-87250117D02*
X66748066Y-87419450D01*
X66748066Y-87419450D02*
X66790399Y-87504117D01*
X66790399Y-87504117D02*
X66832733Y-87546450D01*
X66832733Y-87546450D02*
X66917399Y-87588783D01*
X66917399Y-87588783D02*
X67002066Y-87588783D01*
X67002066Y-87588783D02*
X67086733Y-87546450D01*
X67086733Y-87546450D02*
X67129066Y-87504117D01*
X67129066Y-87504117D02*
X67171399Y-87419450D01*
X67171399Y-87419450D02*
X67171399Y-87207783D01*
X67171399Y-87207783D02*
X67129066Y-87080783D01*
X66282399Y-86699783D02*
X66875066Y-86699783D01*
X67171399Y-86699783D02*
X67129066Y-86742116D01*
X67129066Y-86742116D02*
X67086733Y-86699783D01*
X67086733Y-86699783D02*
X67129066Y-86657450D01*
X67129066Y-86657450D02*
X67171399Y-86699783D01*
X67171399Y-86699783D02*
X67086733Y-86699783D01*
X66282399Y-86149450D02*
X66324733Y-86234117D01*
X66324733Y-86234117D02*
X66409399Y-86276450D01*
X66409399Y-86276450D02*
X67171399Y-86276450D01*
X66282399Y-85810783D02*
X67171399Y-85810783D01*
X66621066Y-85726116D02*
X66282399Y-85472116D01*
X66875066Y-85472116D02*
X66536399Y-85810783D01*
X66875066Y-85175783D02*
X66282399Y-84964116D01*
X66875066Y-84752449D02*
X66282399Y-84964116D01*
X66282399Y-84964116D02*
X66070733Y-85048783D01*
X66070733Y-85048783D02*
X66028399Y-85091116D01*
X66028399Y-85091116D02*
X65986066Y-85175783D01*
D12*
%TO.P,J4,1,Pin_1*%
%TO.N,GND*%
X71750000Y-80530000D03*
D13*
%TO.P,J4,2,Pin_2*%
%TO.N,VBUS*%
X74290000Y-80530000D03*
%TD*%
D14*
%TO.P,U2,1,GP0*%
%TO.N,/GPIO0*%
X86360000Y-50800000D03*
%TO.P,U2,2,GP1*%
%TO.N,/GPIO1*%
X86360000Y-53340000D03*
D12*
%TO.P,U2,3,GP2*%
%TO.N,/GPIO2*%
X86360000Y-55880000D03*
D14*
%TO.P,U2,4,GP3*%
%TO.N,/GPIO3*%
X86360000Y-58420000D03*
%TO.P,U2,5,GP4*%
%TO.N,/GPIO4*%
X86360000Y-60960000D03*
%TO.P,U2,6,GP5*%
%TO.N,/GPIO5*%
X86360000Y-63500000D03*
%TO.P,U2,7,GP6*%
%TO.N,/GPIO6*%
X86360000Y-66040000D03*
D12*
%TO.P,U2,8,GP7*%
%TO.N,/GPIO7*%
X86360000Y-68580000D03*
D14*
%TO.P,U2,9,GP8*%
%TO.N,/GPIO8*%
X86360000Y-71120000D03*
%TO.P,U2,10,GP9*%
%TO.N,/GPIO9*%
X83820000Y-71120000D03*
%TO.P,U2,11,GP10*%
%TO.N,/GPIO10*%
X81280000Y-71119999D03*
%TO.P,U2,12,GP11*%
%TO.N,/GPIO11*%
X78740000Y-71120001D03*
%TO.P,U2,13,GP12*%
%TO.N,/GPIO12*%
X76200000Y-71120000D03*
%TO.P,U2,14,GP13*%
%TO.N,/GPIO13*%
X73660000Y-71120000D03*
%TO.P,U2,15,GP14*%
%TO.N,/GPIO14*%
X71120000Y-71120000D03*
%TO.P,U2,16,GP15*%
%TO.N,/GPIO15*%
X71120000Y-68580000D03*
%TO.P,U2,17,GP26*%
%TO.N,/GPIO26*%
X71120000Y-66040000D03*
D12*
%TO.P,U2,18,GP27*%
%TO.N,/GPIO27*%
X71120000Y-63500000D03*
D14*
%TO.P,U2,19,GP28*%
%TO.N,/GPIO28*%
X71120000Y-60960000D03*
%TO.P,U2,20,GP29*%
%TO.N,/GP29_17*%
X71120000Y-58420000D03*
%TO.P,U2,21,3V3*%
%TO.N,/+3V3*%
X71120000Y-55880000D03*
%TO.P,U2,22,GND*%
%TO.N,GND*%
X71120000Y-53340000D03*
D12*
%TO.P,U2,23,VBUS*%
%TO.N,VBUS*%
X71120000Y-50800000D03*
%TD*%
%TO.P,J1,1,Pin_1*%
%TO.N,/GPIO0*%
X96520000Y-50800000D03*
D13*
%TO.P,J1,2,Pin_2*%
%TO.N,/GPIO1*%
X96520000Y-53340000D03*
%TO.P,J1,3,Pin_3*%
%TO.N,GND*%
X96520000Y-55880000D03*
%TO.P,J1,4,Pin_4*%
%TO.N,/GPIO2*%
X96520000Y-58420000D03*
%TO.P,J1,5,Pin_5*%
%TO.N,/GPIO3*%
X96520000Y-60960000D03*
%TO.P,J1,6,Pin_6*%
%TO.N,/GPIO4*%
X96520000Y-63500000D03*
%TO.P,J1,7,Pin_7*%
%TO.N,/GPIO5*%
X96520000Y-66040000D03*
%TO.P,J1,8,Pin_8*%
%TO.N,GND*%
X96520000Y-68580000D03*
%TO.P,J1,9,Pin_9*%
%TO.N,/GPIO6*%
X96520000Y-71120000D03*
%TO.P,J1,10,Pin_10*%
%TO.N,/GPIO7*%
X96520000Y-73660000D03*
%TO.P,J1,11,Pin_11*%
%TO.N,/GPIO8*%
X96520000Y-76200000D03*
%TO.P,J1,12,Pin_12*%
%TO.N,/GPIO9*%
X96520000Y-78740000D03*
%TO.P,J1,13,Pin_13*%
%TO.N,GND*%
X96520000Y-81280000D03*
%TO.P,J1,14,Pin_14*%
%TO.N,/GPIO10*%
X96520000Y-83820000D03*
%TO.P,J1,15,Pin_15*%
%TO.N,/GPIO11*%
X96520000Y-86360000D03*
%TO.P,J1,16,Pin_16*%
%TO.N,/GPIO12*%
X96520000Y-88900000D03*
%TO.P,J1,17,Pin_17*%
%TO.N,/GPIO13*%
X96520000Y-91440000D03*
%TO.P,J1,18,Pin_18*%
%TO.N,GND*%
X96520000Y-93980000D03*
%TO.P,J1,19,Pin_19*%
%TO.N,/GPIO14*%
X96520000Y-96520000D03*
%TO.P,J1,20,Pin_20*%
%TO.N,/GPIO15*%
X96520000Y-99060000D03*
%TD*%
D14*
%TO.P,U1,1,GPIO0*%
%TO.N,/GPIO0*%
X104140000Y-50800000D03*
%TO.P,U1,2,GPIO1*%
%TO.N,/GPIO1*%
X104140000Y-53340000D03*
D12*
%TO.P,U1,3,GND*%
%TO.N,GND*%
X104140000Y-55880000D03*
D14*
%TO.P,U1,4,GPIO2*%
%TO.N,/GPIO2*%
X104140000Y-58420000D03*
%TO.P,U1,5,GPIO3*%
%TO.N,/GPIO3*%
X104140000Y-60960000D03*
%TO.P,U1,6,GPIO4*%
%TO.N,/GPIO4*%
X104140000Y-63500000D03*
%TO.P,U1,7,GPIO5*%
%TO.N,/GPIO5*%
X104140000Y-66040000D03*
D12*
%TO.P,U1,8,GND*%
%TO.N,GND*%
X104140000Y-68580000D03*
D14*
%TO.P,U1,9,GPIO6*%
%TO.N,/GPIO6*%
X104140000Y-71120000D03*
%TO.P,U1,10,GPIO7*%
%TO.N,/GPIO7*%
X104140000Y-73660000D03*
%TO.P,U1,11,GPIO8*%
%TO.N,/GPIO8*%
X104140000Y-76200000D03*
%TO.P,U1,12,GPIO9*%
%TO.N,/GPIO9*%
X104140000Y-78740000D03*
D12*
%TO.P,U1,13,GND*%
%TO.N,GND*%
X104140000Y-81280000D03*
D14*
%TO.P,U1,14,GPIO10*%
%TO.N,/GPIO10*%
X104140000Y-83820000D03*
%TO.P,U1,15,GPIO11*%
%TO.N,/GPIO11*%
X104140000Y-86360000D03*
%TO.P,U1,16,GPIO12*%
%TO.N,/GPIO12*%
X104140000Y-88900000D03*
%TO.P,U1,17,GPIO13*%
%TO.N,/GPIO13*%
X104140000Y-91440000D03*
D12*
%TO.P,U1,18,GND*%
%TO.N,GND*%
X104140000Y-93980000D03*
D14*
%TO.P,U1,19,GPIO14*%
%TO.N,/GPIO14*%
X104140000Y-96520000D03*
%TO.P,U1,20,GPIO15*%
%TO.N,/GPIO15*%
X104140000Y-99060000D03*
%TO.P,U1,21,GPIO16*%
%TO.N,/GPIO16*%
X121920000Y-99060000D03*
%TO.P,U1,22,GPIO17*%
%TO.N,/GP29_17*%
X121920000Y-96520000D03*
D12*
%TO.P,U1,23,GND*%
%TO.N,GND*%
X121920000Y-93980000D03*
D14*
%TO.P,U1,24,GPIO18*%
%TO.N,/GPIO18*%
X121920000Y-91440000D03*
%TO.P,U1,25,GPIO19*%
%TO.N,/GPIO19*%
X121920000Y-88900000D03*
%TO.P,U1,26,GPIO20*%
%TO.N,/GPIO20*%
X121920000Y-86360000D03*
%TO.P,U1,27,GPIO21*%
%TO.N,/GPIO21*%
X121920000Y-83820000D03*
D12*
%TO.P,U1,28,GND*%
%TO.N,GND*%
X121920000Y-81280000D03*
D14*
%TO.P,U1,29,GPIO22*%
%TO.N,/GPIO22*%
X121920000Y-78740000D03*
%TO.P,U1,30,RUN*%
%TO.N,/RUN*%
X121920000Y-76200000D03*
%TO.P,U1,31,GPIO26_ADC0*%
%TO.N,/GPIO26*%
X121920000Y-73660000D03*
%TO.P,U1,32,GPIO27_ADC1*%
%TO.N,/GPIO27*%
X121920000Y-71120000D03*
D12*
%TO.P,U1,33,AGND*%
%TO.N,/AGND*%
X121920000Y-68580000D03*
D14*
%TO.P,U1,34,GPIO28_ADC2*%
%TO.N,/GPIO28*%
X121920000Y-66040000D03*
%TO.P,U1,35,ADC_VREF*%
%TO.N,/ADC_VREF*%
X121920000Y-63500000D03*
%TO.P,U1,36,3V3*%
%TO.N,/+3V3*%
X121920000Y-60960000D03*
%TO.P,U1,37,3V3_EN*%
%TO.N,/3V3_EN*%
X121920000Y-58420000D03*
D12*
%TO.P,U1,38,GND*%
%TO.N,GND*%
X121920000Y-55880000D03*
D14*
%TO.P,U1,39,VSYS*%
%TO.N,/VSYS*%
X121920000Y-53340000D03*
%TO.P,U1,40,VBUS*%
%TO.N,VBUS*%
X121920000Y-50800000D03*
%TO.P,U1,D1,SWCLK*%
%TO.N,/SWCLK*%
X110494000Y-99100000D03*
D12*
%TO.P,U1,D2,GND*%
%TO.N,GND*%
X113034000Y-99100000D03*
D14*
%TO.P,U1,D3,SWDIO*%
%TO.N,/SWDIO*%
X115574000Y-99100000D03*
%TD*%
D12*
%TO.P,J8,1,Pin_1*%
%TO.N,VBUS*%
X129540000Y-50800000D03*
D13*
%TO.P,J8,2,Pin_2*%
%TO.N,/VSYS*%
X129540000Y-53340000D03*
%TO.P,J8,3,Pin_3*%
%TO.N,GND*%
X129540000Y-55880000D03*
%TO.P,J8,4,Pin_4*%
%TO.N,/3V3_EN*%
X129540000Y-58420000D03*
%TO.P,J8,5,Pin_5*%
%TO.N,/+3V3*%
X129540000Y-60960000D03*
%TO.P,J8,6,Pin_6*%
%TO.N,/ADC_VREF*%
X129540000Y-63500000D03*
%TO.P,J8,7,Pin_7*%
%TO.N,/GPIO28*%
X129540000Y-66040000D03*
%TO.P,J8,8,Pin_8*%
%TO.N,/AGND*%
X129540000Y-68580000D03*
%TO.P,J8,9,Pin_9*%
%TO.N,/GPIO27*%
X129540000Y-71120000D03*
%TO.P,J8,10,Pin_10*%
%TO.N,/GPIO26*%
X129540000Y-73660000D03*
%TO.P,J8,11,Pin_11*%
%TO.N,/RUN*%
X129540000Y-76200000D03*
%TO.P,J8,12,Pin_12*%
%TO.N,/GPIO22*%
X129540000Y-78740000D03*
%TO.P,J8,13,Pin_13*%
%TO.N,GND*%
X129540000Y-81280000D03*
%TO.P,J8,14,Pin_14*%
%TO.N,/GPIO21*%
X129540000Y-83820000D03*
%TO.P,J8,15,Pin_15*%
%TO.N,/GPIO20*%
X129540000Y-86360000D03*
%TO.P,J8,16,Pin_16*%
%TO.N,/GPIO19*%
X129540000Y-88900000D03*
%TO.P,J8,17,Pin_17*%
%TO.N,/GPIO18*%
X129540000Y-91440000D03*
%TO.P,J8,18,Pin_18*%
%TO.N,GND*%
X129540000Y-93980000D03*
%TO.P,J8,19,Pin_19*%
%TO.N,/GP29_17*%
X129540000Y-96520000D03*
%TO.P,J8,20,Pin_20*%
%TO.N,/GPIO16*%
X129540000Y-99060000D03*
%TD*%
D12*
%TO.P,J3,1,Pin_1*%
%TO.N,/SWCLK*%
X110490000Y-104140000D03*
D13*
%TO.P,J3,2,Pin_2*%
%TO.N,GND*%
X113030000Y-104140000D03*
%TO.P,J3,3,Pin_3*%
%TO.N,/SWDIO*%
X115569999Y-104140000D03*
%TD*%
D12*
%TO.P,J2,1,Pin_1*%
%TO.N,/+3V3*%
X89154000Y-101600000D03*
D13*
%TO.P,J2,2,Pin_2*%
%TO.N,GND*%
X89154000Y-99060000D03*
%TO.P,J2,3,Pin_3*%
%TO.N,/GPIO1*%
X89154000Y-96520001D03*
%TO.P,J2,4,Pin_4*%
%TO.N,/GPIO0*%
X89154000Y-93980000D03*
%TD*%
D12*
%TO.P,J6,1,Pin_1*%
%TO.N,GND*%
X71750000Y-84300000D03*
D13*
%TO.P,J6,2,Pin_2*%
%TO.N,/+3V3*%
X74290000Y-84300000D03*
%TD*%
D15*
%TO.P,J5,SH1,SHIELD*%
%TO.N,Net-(J5-SHIELD-PadSH1)*%
X73155000Y-103940000D03*
%TO.P,J5,SH2,SHIELD*%
X81795000Y-103940000D03*
D16*
%TO.P,J5,SH3,SHIELD*%
X73155000Y-99760000D03*
%TO.P,J5,SH4,SHIELD*%
X81795000Y-99760000D03*
%TD*%
D17*
%TO.N,GND*%
X111760000Y-74930000D03*
D18*
X74168000Y-93980000D03*
D17*
X111760000Y-72390000D03*
D18*
X80640000Y-95900000D03*
D17*
%TO.N,/GP29_17*%
X119380000Y-62230000D03*
%TO.N,/+3V3*%
X106426000Y-91440000D03*
X110109000Y-91440000D03*
X110109000Y-58420000D03*
X106426000Y-58420000D03*
%TD*%
D19*
%TO.N,GND*%
X83820000Y-53340000D02*
X85090000Y-54610000D01*
X88138000Y-54610000D02*
X89408000Y-55880000D01*
X71120000Y-53340000D02*
X83820000Y-53340000D01*
X89408000Y-55880000D02*
X96520000Y-55880000D01*
X85090000Y-54610000D02*
X88138000Y-54610000D01*
X120650000Y-72390000D02*
X125730000Y-72390000D01*
D20*
%TO.N,/GP29_17*%
X85090000Y-62230000D02*
X81280000Y-58420000D01*
X81280000Y-58420000D02*
X71120000Y-58420000D01*
X119380000Y-62230000D02*
X85090000Y-62230000D01*
%TO.N,/GPIO14*%
X83185000Y-85725000D02*
X86042500Y-85725000D01*
X71120000Y-73660000D02*
X83185000Y-85725000D01*
X71120000Y-71120000D02*
X71120000Y-73660000D01*
X86042500Y-85725000D02*
X96520000Y-96202500D01*
%TO.N,/GPIO15*%
X82550000Y-84455000D02*
X87630000Y-84455000D01*
X105410000Y-92710000D02*
X106045000Y-93345000D01*
X105410000Y-99060000D02*
X104140000Y-99060000D01*
X72390000Y-69850000D02*
X72390000Y-74295000D01*
X95885000Y-92710000D02*
X105410000Y-92710000D01*
X106045000Y-98425000D02*
X105410000Y-99060000D01*
X87630000Y-84455000D02*
X95885000Y-92710000D01*
X72390000Y-74295000D02*
X82550000Y-84455000D01*
X71120000Y-68580000D02*
X72390000Y-69850000D01*
X106045000Y-93345000D02*
X106045000Y-98425000D01*
D19*
%TO.N,VBUS*%
X87884000Y-52070000D02*
X90424000Y-54610000D01*
X72390000Y-52070000D02*
X87884000Y-52070000D01*
X71120000Y-50800000D02*
X72390000Y-52070000D01*
X90424000Y-54610000D02*
X107315000Y-54610000D01*
X117475000Y-52705000D02*
X119380000Y-50800000D01*
X107315000Y-54610000D02*
X109220000Y-52705000D01*
X119380000Y-50800000D02*
X121920000Y-50800000D01*
X109220000Y-52705000D02*
X117475000Y-52705000D01*
D21*
%TO.N,/+3V3*%
X110109000Y-91440000D02*
X106426000Y-91440000D01*
X110109000Y-58420000D02*
X106426000Y-58420000D01*
D20*
%TO.N,/GPIO26*%
X71120000Y-66040000D02*
X81280000Y-66040000D01*
X111125000Y-73660000D02*
X121920000Y-73660000D01*
X85090000Y-69850000D02*
X107315000Y-69850000D01*
X81280000Y-66040000D02*
X85090000Y-69850000D01*
X107315000Y-69850000D02*
X111125000Y-73660000D01*
%TO.N,/GPIO28*%
X109855000Y-66040000D02*
X121920000Y-66040000D01*
X81280000Y-60960000D02*
X85090000Y-64770000D01*
X85090000Y-64770000D02*
X108585000Y-64770000D01*
X108585000Y-64770000D02*
X109855000Y-66040000D01*
X71120000Y-60960000D02*
X81280000Y-60960000D01*
%TO.N,/GPIO27*%
X112395000Y-71120000D02*
X121920000Y-71120000D01*
X108585000Y-67310000D02*
X112395000Y-71120000D01*
X81280000Y-63500000D02*
X85090000Y-67310000D01*
X71120000Y-63500000D02*
X81280000Y-63500000D01*
X85090000Y-67310000D02*
X108585000Y-67310000D01*
D22*
%TO.N,Net-(J5-SHIELD-PadSH1)*%
X73155000Y-99760000D02*
X73155000Y-103940000D01*
D20*
X73155000Y-100310000D02*
X74191000Y-101346000D01*
X80772000Y-101346000D02*
X81795000Y-100323000D01*
X74191000Y-101346000D02*
X80772000Y-101346000D01*
X73155000Y-103940000D02*
X81795000Y-103940000D01*
%TD*%
%TA.AperFunction,Conductor*%
%TO.N,GND*%
G36*
X69781266Y-49549685D02*
G01*
X69827021Y-49602489D01*
X69836965Y-49671647D01*
X69827915Y-49698841D01*
X69829303Y-49699359D01*
X69775908Y-49842517D01*
X69773840Y-49861758D01*
X69769501Y-49902123D01*
X69769500Y-49902135D01*
X69769500Y-51697870D01*
X69769501Y-51697876D01*
X69775908Y-51757483D01*
X69826202Y-51892328D01*
X69826206Y-51892335D01*
X69912452Y-52007544D01*
X69912455Y-52007547D01*
X70027664Y-52093793D01*
X70027671Y-52093797D01*
X70089902Y-52117007D01*
X70159598Y-52143002D01*
X70215531Y-52184873D01*
X70239949Y-52250337D01*
X70225098Y-52318610D01*
X70203947Y-52346865D01*
X70090271Y-52460541D01*
X69965379Y-52632442D01*
X69868904Y-52821782D01*
X69803242Y-53023870D01*
X69803242Y-53023873D01*
X69792769Y-53090000D01*
X70675440Y-53090000D01*
X70644755Y-53143147D01*
X70610000Y-53272857D01*
X70610000Y-53407143D01*
X70644755Y-53536853D01*
X70675440Y-53590000D01*
X69792769Y-53590000D01*
X69803242Y-53656126D01*
X69803242Y-53656129D01*
X69868904Y-53858217D01*
X69965379Y-54047557D01*
X70090272Y-54219459D01*
X70090276Y-54219464D01*
X70240535Y-54369723D01*
X70240540Y-54369727D01*
X70412444Y-54494622D01*
X70421495Y-54499234D01*
X70472292Y-54547208D01*
X70489087Y-54615029D01*
X70466550Y-54681164D01*
X70421499Y-54720202D01*
X70412182Y-54724949D01*
X70240213Y-54849890D01*
X70089890Y-55000213D01*
X69964951Y-55172179D01*
X69868444Y-55361585D01*
X69802753Y-55563760D01*
X69769500Y-55773713D01*
X69769500Y-55986286D01*
X69802753Y-56196239D01*
X69868444Y-56398414D01*
X69964951Y-56587820D01*
X70089890Y-56759786D01*
X70240213Y-56910109D01*
X70412182Y-57035050D01*
X70420946Y-57039516D01*
X70471742Y-57087491D01*
X70488536Y-57155312D01*
X70465998Y-57221447D01*
X70420946Y-57260484D01*
X70412182Y-57264949D01*
X70240213Y-57389890D01*
X70089890Y-57540213D01*
X69964951Y-57712179D01*
X69868444Y-57901585D01*
X69802753Y-58103760D01*
X69769500Y-58313713D01*
X69769500Y-58526286D01*
X69795896Y-58692947D01*
X69802754Y-58736243D01*
X69812392Y-58765907D01*
X69868444Y-58938414D01*
X69964951Y-59127820D01*
X70089890Y-59299786D01*
X70240213Y-59450109D01*
X70412182Y-59575050D01*
X70420946Y-59579516D01*
X70471742Y-59627491D01*
X70488536Y-59695312D01*
X70465998Y-59761447D01*
X70420946Y-59800484D01*
X70412182Y-59804949D01*
X70240213Y-59929890D01*
X70089890Y-60080213D01*
X69964951Y-60252179D01*
X69868444Y-60441585D01*
X69802753Y-60643760D01*
X69769500Y-60853713D01*
X69769500Y-61066286D01*
X69802753Y-61276239D01*
X69802753Y-61276241D01*
X69802754Y-61276243D01*
X69862546Y-61460264D01*
X69868444Y-61478414D01*
X69964951Y-61667820D01*
X70089890Y-61839786D01*
X70203430Y-61953326D01*
X70236915Y-62014649D01*
X70231931Y-62084341D01*
X70190059Y-62140274D01*
X70159083Y-62157189D01*
X70027669Y-62206203D01*
X70027664Y-62206206D01*
X69912455Y-62292452D01*
X69912452Y-62292455D01*
X69826206Y-62407664D01*
X69826202Y-62407671D01*
X69775908Y-62542517D01*
X69773087Y-62568763D01*
X69769501Y-62602123D01*
X69769500Y-62602135D01*
X69769500Y-64397870D01*
X69769501Y-64397876D01*
X69775908Y-64457483D01*
X69826202Y-64592328D01*
X69826206Y-64592335D01*
X69912452Y-64707544D01*
X69912455Y-64707547D01*
X70027664Y-64793793D01*
X70027671Y-64793797D01*
X70159082Y-64842810D01*
X70215016Y-64884681D01*
X70239433Y-64950145D01*
X70224582Y-65018418D01*
X70203431Y-65046673D01*
X70089889Y-65160215D01*
X69964951Y-65332179D01*
X69868444Y-65521585D01*
X69802753Y-65723760D01*
X69769500Y-65933713D01*
X69769500Y-66146286D01*
X69802753Y-66356239D01*
X69802753Y-66356241D01*
X69802754Y-66356243D01*
X69818396Y-66404385D01*
X69868444Y-66558414D01*
X69964951Y-66747820D01*
X70089890Y-66919786D01*
X70240213Y-67070109D01*
X70412182Y-67195050D01*
X70420946Y-67199516D01*
X70471742Y-67247491D01*
X70488536Y-67315312D01*
X70465998Y-67381447D01*
X70420946Y-67420484D01*
X70412182Y-67424949D01*
X70240213Y-67549890D01*
X70089890Y-67700213D01*
X69964951Y-67872179D01*
X69868444Y-68061585D01*
X69802753Y-68263760D01*
X69769500Y-68473713D01*
X69769500Y-68686286D01*
X69802753Y-68896239D01*
X69802753Y-68896241D01*
X69802754Y-68896243D01*
X69857431Y-69064522D01*
X69868444Y-69098414D01*
X69964951Y-69287820D01*
X70089890Y-69459786D01*
X70240213Y-69610109D01*
X70412182Y-69735050D01*
X70420946Y-69739516D01*
X70471742Y-69787491D01*
X70488536Y-69855312D01*
X70465998Y-69921447D01*
X70420946Y-69960484D01*
X70412182Y-69964949D01*
X70240213Y-70089890D01*
X70089890Y-70240213D01*
X69964951Y-70412179D01*
X69868444Y-70601585D01*
X69802753Y-70803760D01*
X69769500Y-71013713D01*
X69769500Y-71226287D01*
X69802754Y-71436243D01*
X69856132Y-71600524D01*
X69868444Y-71638414D01*
X69964951Y-71827820D01*
X70089890Y-71999786D01*
X70240213Y-72150109D01*
X70412184Y-72275051D01*
X70412184Y-72275052D01*
X70451793Y-72295233D01*
X70502590Y-72343206D01*
X70519500Y-72405718D01*
X70519500Y-73573330D01*
X70519499Y-73573348D01*
X70519499Y-73739054D01*
X70519498Y-73739054D01*
X70560424Y-73891789D01*
X70560425Y-73891790D01*
X70580340Y-73926283D01*
X70580341Y-73926284D01*
X70639477Y-74028712D01*
X70639481Y-74028717D01*
X70758349Y-74147585D01*
X70758354Y-74147589D01*
X82816284Y-86205520D01*
X82816286Y-86205521D01*
X82816290Y-86205524D01*
X82899757Y-86253713D01*
X82953216Y-86284577D01*
X83105943Y-86325501D01*
X83105945Y-86325501D01*
X83271654Y-86325501D01*
X83271670Y-86325500D01*
X85742403Y-86325500D01*
X85809442Y-86345185D01*
X85830084Y-86361819D01*
X95272722Y-95804458D01*
X95306207Y-95865781D01*
X95301223Y-95935473D01*
X95295526Y-95948433D01*
X95268446Y-96001580D01*
X95268442Y-96001590D01*
X95202753Y-96203760D01*
X95169500Y-96413713D01*
X95169500Y-96626286D01*
X95202753Y-96836239D01*
X95202753Y-96836241D01*
X95202754Y-96836243D01*
X95202754Y-96836244D01*
X95268444Y-97038414D01*
X95364951Y-97227820D01*
X95489890Y-97399786D01*
X95640213Y-97550109D01*
X95812182Y-97675050D01*
X95820946Y-97679516D01*
X95871742Y-97727491D01*
X95888536Y-97795312D01*
X95865998Y-97861447D01*
X95820946Y-97900484D01*
X95812182Y-97904949D01*
X95640213Y-98029890D01*
X95489890Y-98180213D01*
X95364951Y-98352179D01*
X95268444Y-98541585D01*
X95202753Y-98743760D01*
X95169500Y-98953713D01*
X95169500Y-99166286D01*
X95202735Y-99376127D01*
X95202754Y-99376243D01*
X95216486Y-99418507D01*
X95268444Y-99578414D01*
X95364951Y-99767820D01*
X95489890Y-99939786D01*
X95640213Y-100090109D01*
X95812179Y-100215048D01*
X95812181Y-100215049D01*
X95812184Y-100215051D01*
X96001588Y-100311557D01*
X96203757Y-100377246D01*
X96413713Y-100410500D01*
X96413714Y-100410500D01*
X96626286Y-100410500D01*
X96626287Y-100410500D01*
X96836243Y-100377246D01*
X97038412Y-100311557D01*
X97227816Y-100215051D01*
X97270232Y-100184234D01*
X97399786Y-100090109D01*
X97399788Y-100090106D01*
X97399792Y-100090104D01*
X97550104Y-99939792D01*
X97550106Y-99939788D01*
X97550109Y-99939786D01*
X97675048Y-99767820D01*
X97675047Y-99767820D01*
X97675051Y-99767816D01*
X97771557Y-99578412D01*
X97837246Y-99376243D01*
X97870500Y-99166287D01*
X97870500Y-98953713D01*
X97837246Y-98743757D01*
X97771557Y-98541588D01*
X97675051Y-98352184D01*
X97675049Y-98352181D01*
X97675048Y-98352179D01*
X97550109Y-98180213D01*
X97399786Y-98029890D01*
X97227820Y-97904951D01*
X97219600Y-97900763D01*
X97219054Y-97900485D01*
X97168259Y-97852512D01*
X97151463Y-97784692D01*
X97173999Y-97718556D01*
X97219054Y-97679515D01*
X97227816Y-97675051D01*
X97249789Y-97659086D01*
X97399786Y-97550109D01*
X97399788Y-97550106D01*
X97399792Y-97550104D01*
X97550104Y-97399792D01*
X97550108Y-97399787D01*
X97550109Y-97399786D01*
X97675048Y-97227820D01*
X97675050Y-97227817D01*
X97675051Y-97227816D01*
X97771557Y-97038412D01*
X97837246Y-96836243D01*
X97870500Y-96626287D01*
X97870500Y-96413713D01*
X97837246Y-96203757D01*
X97771557Y-96001588D01*
X97675051Y-95812184D01*
X97675049Y-95812181D01*
X97675048Y-95812179D01*
X97550109Y-95640213D01*
X97399786Y-95489890D01*
X97227817Y-95364949D01*
X97218504Y-95360204D01*
X97167707Y-95312230D01*
X97150912Y-95244409D01*
X97173449Y-95178274D01*
X97218507Y-95139232D01*
X97227555Y-95134622D01*
X97281716Y-95095270D01*
X97281717Y-95095270D01*
X96649409Y-94462962D01*
X96712993Y-94445925D01*
X96827007Y-94380099D01*
X96920099Y-94287007D01*
X96985925Y-94172993D01*
X97002962Y-94109409D01*
X97635270Y-94741717D01*
X97635270Y-94741716D01*
X97674622Y-94687554D01*
X97771095Y-94498217D01*
X97836757Y-94296130D01*
X97836757Y-94296127D01*
X97870000Y-94086246D01*
X97870000Y-93873753D01*
X97836757Y-93663872D01*
X97836757Y-93663869D01*
X97774681Y-93472818D01*
X97772686Y-93402977D01*
X97808766Y-93343144D01*
X97871467Y-93312316D01*
X97892612Y-93310500D01*
X102666000Y-93310500D01*
X102733039Y-93330185D01*
X102778794Y-93382989D01*
X102790000Y-93434500D01*
X102790000Y-93730000D01*
X103695440Y-93730000D01*
X103664755Y-93783147D01*
X103630000Y-93912857D01*
X103630000Y-94047143D01*
X103664755Y-94176853D01*
X103695440Y-94230000D01*
X102790000Y-94230000D01*
X102790000Y-94877844D01*
X102796401Y-94937372D01*
X102796403Y-94937379D01*
X102846645Y-95072086D01*
X102846649Y-95072093D01*
X102932809Y-95187187D01*
X102932812Y-95187190D01*
X103047906Y-95273350D01*
X103047913Y-95273354D01*
X103179470Y-95322422D01*
X103235404Y-95364293D01*
X103259821Y-95429758D01*
X103244969Y-95498031D01*
X103223819Y-95526285D01*
X103109889Y-95640215D01*
X102984951Y-95812179D01*
X102888444Y-96001585D01*
X102822753Y-96203760D01*
X102789500Y-96413713D01*
X102789500Y-96626286D01*
X102822753Y-96836239D01*
X102822753Y-96836241D01*
X102822754Y-96836243D01*
X102822754Y-96836244D01*
X102888444Y-97038414D01*
X102984951Y-97227820D01*
X103109890Y-97399786D01*
X103260213Y-97550109D01*
X103432182Y-97675050D01*
X103440946Y-97679516D01*
X103491742Y-97727491D01*
X103508536Y-97795312D01*
X103485998Y-97861447D01*
X103440946Y-97900484D01*
X103432182Y-97904949D01*
X103260213Y-98029890D01*
X103109890Y-98180213D01*
X102984951Y-98352179D01*
X102888444Y-98541585D01*
X102822753Y-98743760D01*
X102789500Y-98953713D01*
X102789500Y-99166286D01*
X102822735Y-99376127D01*
X102822754Y-99376243D01*
X102836486Y-99418507D01*
X102888444Y-99578414D01*
X102984951Y-99767820D01*
X103109890Y-99939786D01*
X103260213Y-100090109D01*
X103432179Y-100215048D01*
X103432181Y-100215049D01*
X103432184Y-100215051D01*
X103621588Y-100311557D01*
X103823757Y-100377246D01*
X104033713Y-100410500D01*
X104033714Y-100410500D01*
X104246286Y-100410500D01*
X104246287Y-100410500D01*
X104456243Y-100377246D01*
X104658412Y-100311557D01*
X104847816Y-100215051D01*
X104890232Y-100184234D01*
X105019786Y-100090109D01*
X105019788Y-100090106D01*
X105019792Y-100090104D01*
X105170104Y-99939792D01*
X105170106Y-99939788D01*
X105170109Y-99939786D01*
X105295048Y-99767820D01*
X105295047Y-99767820D01*
X105295051Y-99767816D01*
X105315233Y-99728205D01*
X105363207Y-99677410D01*
X105425718Y-99660501D01*
X105489054Y-99660501D01*
X105489057Y-99660501D01*
X105641785Y-99619577D01*
X105691904Y-99590639D01*
X105778716Y-99540520D01*
X105890520Y-99428716D01*
X105890520Y-99428714D01*
X105900728Y-99418507D01*
X105900729Y-99418504D01*
X106325522Y-98993713D01*
X109143500Y-98993713D01*
X109143500Y-99206286D01*
X109176263Y-99413147D01*
X109176754Y-99416243D01*
X109217134Y-99540520D01*
X109242444Y-99618414D01*
X109338951Y-99807820D01*
X109463890Y-99979786D01*
X109614213Y-100130109D01*
X109786179Y-100255048D01*
X109786181Y-100255049D01*
X109786184Y-100255051D01*
X109975588Y-100351557D01*
X110177757Y-100417246D01*
X110387713Y-100450500D01*
X110387714Y-100450500D01*
X110600286Y-100450500D01*
X110600287Y-100450500D01*
X110810243Y-100417246D01*
X111012412Y-100351557D01*
X111201816Y-100255051D01*
X111288478Y-100192088D01*
X111373784Y-100130110D01*
X111373784Y-100130109D01*
X111373792Y-100130104D01*
X111487717Y-100016178D01*
X111549036Y-99982696D01*
X111618728Y-99987680D01*
X111674662Y-100029551D01*
X111691577Y-100060528D01*
X111740646Y-100192088D01*
X111740649Y-100192093D01*
X111826809Y-100307187D01*
X111826812Y-100307190D01*
X111941906Y-100393350D01*
X111941913Y-100393354D01*
X112076620Y-100443596D01*
X112076627Y-100443598D01*
X112136155Y-100449999D01*
X112136172Y-100450000D01*
X112784000Y-100450000D01*
X112784000Y-99544560D01*
X112837147Y-99575245D01*
X112966857Y-99610000D01*
X113101143Y-99610000D01*
X113230853Y-99575245D01*
X113284000Y-99544560D01*
X113284000Y-100450000D01*
X113931828Y-100450000D01*
X113931844Y-100449999D01*
X113991372Y-100443598D01*
X113991379Y-100443596D01*
X114126086Y-100393354D01*
X114126093Y-100393350D01*
X114241187Y-100307190D01*
X114241190Y-100307187D01*
X114327350Y-100192093D01*
X114327354Y-100192086D01*
X114376422Y-100060529D01*
X114418293Y-100004595D01*
X114483757Y-99980178D01*
X114552030Y-99995030D01*
X114580285Y-100016181D01*
X114694213Y-100130109D01*
X114866179Y-100255048D01*
X114866181Y-100255049D01*
X114866184Y-100255051D01*
X115055588Y-100351557D01*
X115257757Y-100417246D01*
X115467713Y-100450500D01*
X115467714Y-100450500D01*
X115680286Y-100450500D01*
X115680287Y-100450500D01*
X115890243Y-100417246D01*
X116092412Y-100351557D01*
X116281816Y-100255051D01*
X116368478Y-100192088D01*
X116453786Y-100130109D01*
X116453788Y-100130106D01*
X116453792Y-100130104D01*
X116604104Y-99979792D01*
X116604106Y-99979788D01*
X116604109Y-99979786D01*
X116729048Y-99807820D01*
X116729047Y-99807820D01*
X116729051Y-99807816D01*
X116825557Y-99618412D01*
X116891246Y-99416243D01*
X116924500Y-99206287D01*
X116924500Y-98993713D01*
X116891246Y-98783757D01*
X116825557Y-98581588D01*
X116729051Y-98392184D01*
X116729049Y-98392181D01*
X116729048Y-98392179D01*
X116604109Y-98220213D01*
X116453786Y-98069890D01*
X116281820Y-97944951D01*
X116092414Y-97848444D01*
X116092413Y-97848443D01*
X116092412Y-97848443D01*
X115890243Y-97782754D01*
X115890241Y-97782753D01*
X115890240Y-97782753D01*
X115728957Y-97757208D01*
X115680287Y-97749500D01*
X115467713Y-97749500D01*
X115419042Y-97757208D01*
X115257760Y-97782753D01*
X115055585Y-97848444D01*
X114866179Y-97944951D01*
X114694215Y-98069889D01*
X114580285Y-98183819D01*
X114518962Y-98217303D01*
X114449270Y-98212319D01*
X114393337Y-98170447D01*
X114376422Y-98139470D01*
X114327354Y-98007913D01*
X114327350Y-98007906D01*
X114241190Y-97892812D01*
X114241187Y-97892809D01*
X114126093Y-97806649D01*
X114126086Y-97806645D01*
X113991379Y-97756403D01*
X113991372Y-97756401D01*
X113931844Y-97750000D01*
X113284000Y-97750000D01*
X113284000Y-98655439D01*
X113230853Y-98624755D01*
X113101143Y-98590000D01*
X112966857Y-98590000D01*
X112837147Y-98624755D01*
X112784000Y-98655439D01*
X112784000Y-97750000D01*
X112136155Y-97750000D01*
X112076627Y-97756401D01*
X112076620Y-97756403D01*
X111941913Y-97806645D01*
X111941906Y-97806649D01*
X111826812Y-97892809D01*
X111826809Y-97892812D01*
X111740649Y-98007906D01*
X111740646Y-98007912D01*
X111691577Y-98139471D01*
X111649705Y-98195404D01*
X111584241Y-98219821D01*
X111515968Y-98204969D01*
X111487714Y-98183818D01*
X111373786Y-98069890D01*
X111201820Y-97944951D01*
X111012414Y-97848444D01*
X111012413Y-97848443D01*
X111012412Y-97848443D01*
X110810243Y-97782754D01*
X110810241Y-97782753D01*
X110810240Y-97782753D01*
X110648957Y-97757208D01*
X110600287Y-97749500D01*
X110387713Y-97749500D01*
X110339042Y-97757208D01*
X110177760Y-97782753D01*
X109975585Y-97848444D01*
X109786179Y-97944951D01*
X109614213Y-98069890D01*
X109463890Y-98220213D01*
X109338951Y-98392179D01*
X109242444Y-98581585D01*
X109176753Y-98783760D01*
X109143500Y-98993713D01*
X106325522Y-98993713D01*
X106525520Y-98793716D01*
X106604577Y-98656784D01*
X106645501Y-98504057D01*
X106645501Y-98345942D01*
X106645501Y-98338347D01*
X106645500Y-98338329D01*
X106645500Y-93434060D01*
X106645501Y-93434047D01*
X106645501Y-93265944D01*
X106645501Y-93265943D01*
X106604577Y-93113216D01*
X106597067Y-93100208D01*
X106525524Y-92976290D01*
X106525518Y-92976282D01*
X106235882Y-92686646D01*
X105925557Y-92376322D01*
X105892073Y-92315000D01*
X105897057Y-92245309D01*
X105938928Y-92189375D01*
X106004393Y-92164958D01*
X106060691Y-92174080D01*
X106187398Y-92226565D01*
X106303732Y-92249705D01*
X106345429Y-92257999D01*
X106345433Y-92258000D01*
X106345434Y-92258000D01*
X110189567Y-92258000D01*
X110189568Y-92257999D01*
X110347602Y-92226565D01*
X110496468Y-92164902D01*
X110630445Y-92075382D01*
X110744382Y-91961445D01*
X110833902Y-91827468D01*
X110895565Y-91678602D01*
X110927000Y-91520566D01*
X110927000Y-91359434D01*
X110895565Y-91201398D01*
X110851117Y-91094092D01*
X110833903Y-91052533D01*
X110744380Y-90918552D01*
X110630447Y-90804619D01*
X110496466Y-90715096D01*
X110347602Y-90653435D01*
X110347594Y-90653433D01*
X110189570Y-90622000D01*
X110189566Y-90622000D01*
X106345434Y-90622000D01*
X106345429Y-90622000D01*
X106187405Y-90653433D01*
X106187397Y-90653435D01*
X106038533Y-90715096D01*
X105904552Y-90804619D01*
X105790619Y-90918552D01*
X105701096Y-91052535D01*
X105680097Y-91103229D01*
X105636255Y-91157632D01*
X105569961Y-91179695D01*
X105502261Y-91162415D01*
X105454652Y-91111276D01*
X105447611Y-91094106D01*
X105391557Y-90921588D01*
X105295051Y-90732184D01*
X105295049Y-90732181D01*
X105295048Y-90732179D01*
X105170109Y-90560213D01*
X105019786Y-90409890D01*
X104847820Y-90284951D01*
X104847115Y-90284591D01*
X104839054Y-90280485D01*
X104788259Y-90232512D01*
X104771463Y-90164692D01*
X104793999Y-90098556D01*
X104839054Y-90059515D01*
X104847816Y-90055051D01*
X104869789Y-90039086D01*
X105019786Y-89930109D01*
X105019788Y-89930106D01*
X105019792Y-89930104D01*
X105170104Y-89779792D01*
X105170106Y-89779788D01*
X105170109Y-89779786D01*
X105295048Y-89607820D01*
X105295047Y-89607820D01*
X105295051Y-89607816D01*
X105391557Y-89418412D01*
X105457246Y-89216243D01*
X105490500Y-89006287D01*
X105490500Y-88793713D01*
X105457246Y-88583757D01*
X105391557Y-88381588D01*
X105295051Y-88192184D01*
X105295049Y-88192181D01*
X105295048Y-88192179D01*
X105170109Y-88020213D01*
X105019786Y-87869890D01*
X104847820Y-87744951D01*
X104847115Y-87744591D01*
X104839054Y-87740485D01*
X104788259Y-87692512D01*
X104771463Y-87624692D01*
X104793999Y-87558556D01*
X104839054Y-87519515D01*
X104847816Y-87515051D01*
X104869789Y-87499086D01*
X105019786Y-87390109D01*
X105019788Y-87390106D01*
X105019792Y-87390104D01*
X105170104Y-87239792D01*
X105170106Y-87239788D01*
X105170109Y-87239786D01*
X105295048Y-87067820D01*
X105295047Y-87067820D01*
X105295051Y-87067816D01*
X105391557Y-86878412D01*
X105457246Y-86676243D01*
X105490500Y-86466287D01*
X105490500Y-86253713D01*
X105457246Y-86043757D01*
X105391557Y-85841588D01*
X105295051Y-85652184D01*
X105295049Y-85652181D01*
X105295048Y-85652179D01*
X105170109Y-85480213D01*
X105019786Y-85329890D01*
X104847820Y-85204951D01*
X104847115Y-85204591D01*
X104839054Y-85200485D01*
X104788259Y-85152512D01*
X104771463Y-85084692D01*
X104793999Y-85018556D01*
X104839054Y-84979515D01*
X104847816Y-84975051D01*
X104869789Y-84959086D01*
X105019786Y-84850109D01*
X105019788Y-84850106D01*
X105019792Y-84850104D01*
X105170104Y-84699792D01*
X105170106Y-84699788D01*
X105170109Y-84699786D01*
X105295048Y-84527820D01*
X105295047Y-84527820D01*
X105295051Y-84527816D01*
X105391557Y-84338412D01*
X105457246Y-84136243D01*
X105490500Y-83926287D01*
X105490500Y-83713713D01*
X105457246Y-83503757D01*
X105391557Y-83301588D01*
X105295051Y-83112184D01*
X105295049Y-83112181D01*
X105295048Y-83112179D01*
X105170109Y-82940213D01*
X105056181Y-82826285D01*
X105022696Y-82764962D01*
X105027680Y-82695270D01*
X105069552Y-82639337D01*
X105100529Y-82622422D01*
X105232086Y-82573354D01*
X105232093Y-82573350D01*
X105347187Y-82487190D01*
X105347190Y-82487187D01*
X105433350Y-82372093D01*
X105433354Y-82372086D01*
X105483596Y-82237379D01*
X105483598Y-82237372D01*
X105489999Y-82177844D01*
X105490000Y-82177827D01*
X105490000Y-81530000D01*
X104584560Y-81530000D01*
X104615245Y-81476853D01*
X104650000Y-81347143D01*
X104650000Y-81212857D01*
X104615245Y-81083147D01*
X104584560Y-81030000D01*
X105490000Y-81030000D01*
X105490000Y-80382172D01*
X105489999Y-80382155D01*
X105483598Y-80322627D01*
X105483596Y-80322620D01*
X105433354Y-80187913D01*
X105433350Y-80187906D01*
X105347190Y-80072812D01*
X105347187Y-80072809D01*
X105232093Y-79986649D01*
X105232088Y-79986646D01*
X105100528Y-79937577D01*
X105044595Y-79895705D01*
X105020178Y-79830241D01*
X105035030Y-79761968D01*
X105056175Y-79733720D01*
X105170104Y-79619792D01*
X105295051Y-79447816D01*
X105391557Y-79258412D01*
X105457246Y-79056243D01*
X105490500Y-78846287D01*
X105490500Y-78633713D01*
X105457246Y-78423757D01*
X105391557Y-78221588D01*
X105295051Y-78032184D01*
X105295049Y-78032181D01*
X105295048Y-78032179D01*
X105170109Y-77860213D01*
X105019786Y-77709890D01*
X104847820Y-77584951D01*
X104847115Y-77584591D01*
X104839054Y-77580485D01*
X104788259Y-77532512D01*
X104771463Y-77464692D01*
X104793999Y-77398556D01*
X104839054Y-77359515D01*
X104847816Y-77355051D01*
X104869789Y-77339086D01*
X105019786Y-77230109D01*
X105019788Y-77230106D01*
X105019792Y-77230104D01*
X105170104Y-77079792D01*
X105170106Y-77079788D01*
X105170109Y-77079786D01*
X105295048Y-76907820D01*
X105295047Y-76907820D01*
X105295051Y-76907816D01*
X105391557Y-76718412D01*
X105457246Y-76516243D01*
X105490500Y-76306287D01*
X105490500Y-76093713D01*
X105457246Y-75883757D01*
X105391557Y-75681588D01*
X105295051Y-75492184D01*
X105295049Y-75492181D01*
X105295048Y-75492179D01*
X105170109Y-75320213D01*
X105019786Y-75169890D01*
X104847820Y-75044951D01*
X104847115Y-75044591D01*
X104839054Y-75040485D01*
X104788259Y-74992512D01*
X104771463Y-74924692D01*
X104793999Y-74858556D01*
X104839054Y-74819515D01*
X104847816Y-74815051D01*
X104869789Y-74799086D01*
X105019786Y-74690109D01*
X105019788Y-74690106D01*
X105019792Y-74690104D01*
X105170104Y-74539792D01*
X105170106Y-74539788D01*
X105170109Y-74539786D01*
X105295048Y-74367820D01*
X105295047Y-74367820D01*
X105295051Y-74367816D01*
X105391557Y-74178412D01*
X105457246Y-73976243D01*
X105490500Y-73766287D01*
X105490500Y-73553713D01*
X105457246Y-73343757D01*
X105391557Y-73141588D01*
X105295051Y-72952184D01*
X105295049Y-72952181D01*
X105295048Y-72952179D01*
X105170109Y-72780213D01*
X105019786Y-72629890D01*
X104847820Y-72504951D01*
X104847115Y-72504591D01*
X104839054Y-72500485D01*
X104788259Y-72452512D01*
X104771463Y-72384692D01*
X104793999Y-72318556D01*
X104839054Y-72279515D01*
X104847816Y-72275051D01*
X104869789Y-72259086D01*
X105019786Y-72150109D01*
X105019788Y-72150106D01*
X105019792Y-72150104D01*
X105170104Y-71999792D01*
X105170108Y-71999787D01*
X105170109Y-71999786D01*
X105295048Y-71827820D01*
X105295050Y-71827817D01*
X105295051Y-71827816D01*
X105391557Y-71638412D01*
X105457246Y-71436243D01*
X105490500Y-71226287D01*
X105490500Y-71013713D01*
X105457246Y-70803757D01*
X105395206Y-70612818D01*
X105393211Y-70542977D01*
X105429291Y-70483144D01*
X105491992Y-70452316D01*
X105513137Y-70450500D01*
X107014903Y-70450500D01*
X107081942Y-70470185D01*
X107102583Y-70486818D01*
X110756284Y-74140520D01*
X110756286Y-74140521D01*
X110756290Y-74140524D01*
X110893209Y-74219573D01*
X110893216Y-74219577D01*
X111045943Y-74260501D01*
X111045945Y-74260501D01*
X111211654Y-74260501D01*
X111211670Y-74260500D01*
X120634281Y-74260500D01*
X120701320Y-74280185D01*
X120744765Y-74328205D01*
X120764947Y-74367814D01*
X120764948Y-74367815D01*
X120889890Y-74539786D01*
X121040213Y-74690109D01*
X121212182Y-74815050D01*
X121220946Y-74819516D01*
X121271742Y-74867491D01*
X121288536Y-74935312D01*
X121265998Y-75001447D01*
X121220946Y-75040484D01*
X121212182Y-75044949D01*
X121040213Y-75169890D01*
X120889890Y-75320213D01*
X120764951Y-75492179D01*
X120668444Y-75681585D01*
X120602753Y-75883760D01*
X120569500Y-76093713D01*
X120569500Y-76306286D01*
X120602753Y-76516239D01*
X120668444Y-76718414D01*
X120764951Y-76907820D01*
X120889890Y-77079786D01*
X121040213Y-77230109D01*
X121212182Y-77355050D01*
X121220946Y-77359516D01*
X121271742Y-77407491D01*
X121288536Y-77475312D01*
X121265998Y-77541447D01*
X121220946Y-77580484D01*
X121212182Y-77584949D01*
X121040213Y-77709890D01*
X120889890Y-77860213D01*
X120764951Y-78032179D01*
X120668444Y-78221585D01*
X120602753Y-78423760D01*
X120569500Y-78633713D01*
X120569500Y-78846287D01*
X120602754Y-79056243D01*
X120661370Y-79236645D01*
X120668444Y-79258414D01*
X120764951Y-79447820D01*
X120889890Y-79619786D01*
X121003818Y-79733714D01*
X121037303Y-79795037D01*
X121032319Y-79864729D01*
X120990447Y-79920662D01*
X120959471Y-79937577D01*
X120827912Y-79986646D01*
X120827906Y-79986649D01*
X120712812Y-80072809D01*
X120712809Y-80072812D01*
X120626649Y-80187906D01*
X120626645Y-80187913D01*
X120576403Y-80322620D01*
X120576401Y-80322627D01*
X120570000Y-80382155D01*
X120570000Y-81030000D01*
X121475440Y-81030000D01*
X121444755Y-81083147D01*
X121410000Y-81212857D01*
X121410000Y-81347143D01*
X121444755Y-81476853D01*
X121475440Y-81530000D01*
X120570000Y-81530000D01*
X120570000Y-82177844D01*
X120576401Y-82237372D01*
X120576403Y-82237379D01*
X120626645Y-82372086D01*
X120626649Y-82372093D01*
X120712809Y-82487187D01*
X120712812Y-82487190D01*
X120827906Y-82573350D01*
X120827913Y-82573354D01*
X120959470Y-82622422D01*
X121015404Y-82664293D01*
X121039821Y-82729758D01*
X121024969Y-82798031D01*
X121003819Y-82826285D01*
X120889889Y-82940215D01*
X120764951Y-83112179D01*
X120668444Y-83301585D01*
X120602753Y-83503760D01*
X120569500Y-83713713D01*
X120569500Y-83926286D01*
X120595960Y-84093352D01*
X120602754Y-84136243D01*
X120621427Y-84193713D01*
X120668444Y-84338414D01*
X120764951Y-84527820D01*
X120889890Y-84699786D01*
X121040213Y-84850109D01*
X121212182Y-84975050D01*
X121220946Y-84979516D01*
X121271742Y-85027491D01*
X121288536Y-85095312D01*
X121265998Y-85161447D01*
X121220946Y-85200484D01*
X121212182Y-85204949D01*
X121040213Y-85329890D01*
X120889890Y-85480213D01*
X120764951Y-85652179D01*
X120668444Y-85841585D01*
X120602753Y-86043760D01*
X120569500Y-86253713D01*
X120569500Y-86466286D01*
X120602753Y-86676239D01*
X120668444Y-86878414D01*
X120764951Y-87067820D01*
X120889890Y-87239786D01*
X121040213Y-87390109D01*
X121212182Y-87515050D01*
X121220946Y-87519516D01*
X121271742Y-87567491D01*
X121288536Y-87635312D01*
X121265998Y-87701447D01*
X121220946Y-87740484D01*
X121212182Y-87744949D01*
X121040213Y-87869890D01*
X120889890Y-88020213D01*
X120764951Y-88192179D01*
X120668444Y-88381585D01*
X120602753Y-88583760D01*
X120569500Y-88793713D01*
X120569500Y-89006286D01*
X120602753Y-89216239D01*
X120668444Y-89418414D01*
X120764951Y-89607820D01*
X120889890Y-89779786D01*
X121040213Y-89930109D01*
X121212182Y-90055050D01*
X121220946Y-90059516D01*
X121271742Y-90107491D01*
X121288536Y-90175312D01*
X121265998Y-90241447D01*
X121220946Y-90280484D01*
X121212182Y-90284949D01*
X121040213Y-90409890D01*
X120889890Y-90560213D01*
X120764951Y-90732179D01*
X120668444Y-90921585D01*
X120668443Y-90921587D01*
X120668443Y-90921588D01*
X120635815Y-91022007D01*
X120602753Y-91123760D01*
X120569500Y-91333713D01*
X120569500Y-91546286D01*
X120602753Y-91756239D01*
X120668444Y-91958414D01*
X120764951Y-92147820D01*
X120889890Y-92319786D01*
X121003818Y-92433714D01*
X121037303Y-92495037D01*
X121032319Y-92564729D01*
X120990447Y-92620662D01*
X120959471Y-92637577D01*
X120827912Y-92686646D01*
X120827906Y-92686649D01*
X120712812Y-92772809D01*
X120712809Y-92772812D01*
X120626649Y-92887906D01*
X120626645Y-92887913D01*
X120576403Y-93022620D01*
X120576401Y-93022627D01*
X120570000Y-93082155D01*
X120570000Y-93730000D01*
X121475440Y-93730000D01*
X121444755Y-93783147D01*
X121410000Y-93912857D01*
X121410000Y-94047143D01*
X121444755Y-94176853D01*
X121475440Y-94230000D01*
X120570000Y-94230000D01*
X120570000Y-94877844D01*
X120576401Y-94937372D01*
X120576403Y-94937379D01*
X120626645Y-95072086D01*
X120626649Y-95072093D01*
X120712809Y-95187187D01*
X120712812Y-95187190D01*
X120827906Y-95273350D01*
X120827913Y-95273354D01*
X120959470Y-95322422D01*
X121015404Y-95364293D01*
X121039821Y-95429758D01*
X121024969Y-95498031D01*
X121003819Y-95526285D01*
X120889889Y-95640215D01*
X120764951Y-95812179D01*
X120668444Y-96001585D01*
X120602753Y-96203760D01*
X120569500Y-96413713D01*
X120569500Y-96626286D01*
X120602753Y-96836239D01*
X120602753Y-96836241D01*
X120602754Y-96836243D01*
X120602754Y-96836244D01*
X120668444Y-97038414D01*
X120764951Y-97227820D01*
X120889890Y-97399786D01*
X121040213Y-97550109D01*
X121212182Y-97675050D01*
X121220946Y-97679516D01*
X121271742Y-97727491D01*
X121288536Y-97795312D01*
X121265998Y-97861447D01*
X121220946Y-97900484D01*
X121212182Y-97904949D01*
X121040213Y-98029890D01*
X120889890Y-98180213D01*
X120764951Y-98352179D01*
X120668444Y-98541585D01*
X120602753Y-98743760D01*
X120569500Y-98953713D01*
X120569500Y-99166286D01*
X120602735Y-99376127D01*
X120602754Y-99376243D01*
X120616486Y-99418507D01*
X120668444Y-99578414D01*
X120764951Y-99767820D01*
X120889890Y-99939786D01*
X121040213Y-100090109D01*
X121212179Y-100215048D01*
X121212181Y-100215049D01*
X121212184Y-100215051D01*
X121401588Y-100311557D01*
X121603757Y-100377246D01*
X121813713Y-100410500D01*
X121813714Y-100410500D01*
X122026286Y-100410500D01*
X122026287Y-100410500D01*
X122236243Y-100377246D01*
X122438412Y-100311557D01*
X122627816Y-100215051D01*
X122670232Y-100184234D01*
X122799786Y-100090109D01*
X122799788Y-100090106D01*
X122799792Y-100090104D01*
X122950104Y-99939792D01*
X122950106Y-99939788D01*
X122950109Y-99939786D01*
X123075048Y-99767820D01*
X123075047Y-99767820D01*
X123075051Y-99767816D01*
X123171557Y-99578412D01*
X123237246Y-99376243D01*
X123270500Y-99166287D01*
X123270500Y-98953713D01*
X123237246Y-98743757D01*
X123171557Y-98541588D01*
X123075051Y-98352184D01*
X123075049Y-98352181D01*
X123075048Y-98352179D01*
X122950109Y-98180213D01*
X122799786Y-98029890D01*
X122627820Y-97904951D01*
X122619600Y-97900763D01*
X122619054Y-97900485D01*
X122568259Y-97852512D01*
X122551463Y-97784692D01*
X122573999Y-97718556D01*
X122619054Y-97679515D01*
X122627816Y-97675051D01*
X122649789Y-97659086D01*
X122799786Y-97550109D01*
X122799788Y-97550106D01*
X122799792Y-97550104D01*
X122950104Y-97399792D01*
X122950108Y-97399787D01*
X122950109Y-97399786D01*
X123075048Y-97227820D01*
X123075050Y-97227817D01*
X123075051Y-97227816D01*
X123171557Y-97038412D01*
X123237246Y-96836243D01*
X123270500Y-96626287D01*
X123270500Y-96413713D01*
X123237246Y-96203757D01*
X123171557Y-96001588D01*
X123075051Y-95812184D01*
X123075049Y-95812181D01*
X123075048Y-95812179D01*
X122950109Y-95640213D01*
X122836181Y-95526285D01*
X122802696Y-95464962D01*
X122807680Y-95395270D01*
X122849552Y-95339337D01*
X122880529Y-95322422D01*
X123012086Y-95273354D01*
X123012093Y-95273350D01*
X123127187Y-95187190D01*
X123127190Y-95187187D01*
X123213350Y-95072093D01*
X123213354Y-95072086D01*
X123263596Y-94937379D01*
X123263598Y-94937372D01*
X123269999Y-94877844D01*
X123270000Y-94877827D01*
X123270000Y-94230000D01*
X122364560Y-94230000D01*
X122395245Y-94176853D01*
X122430000Y-94047143D01*
X122430000Y-93912857D01*
X122395245Y-93783147D01*
X122364560Y-93730000D01*
X123270000Y-93730000D01*
X123270000Y-93082172D01*
X123269999Y-93082155D01*
X123263598Y-93022627D01*
X123263596Y-93022620D01*
X123213354Y-92887913D01*
X123213350Y-92887906D01*
X123127190Y-92772812D01*
X123127187Y-92772809D01*
X123012093Y-92686649D01*
X123012088Y-92686646D01*
X122880528Y-92637577D01*
X122824595Y-92595705D01*
X122800178Y-92530241D01*
X122815030Y-92461968D01*
X122836175Y-92433720D01*
X122950104Y-92319792D01*
X123075051Y-92147816D01*
X123171557Y-91958412D01*
X123237246Y-91756243D01*
X123270500Y-91546287D01*
X123270500Y-91333713D01*
X123237246Y-91123757D01*
X123171557Y-90921588D01*
X123075051Y-90732184D01*
X123075049Y-90732181D01*
X123075048Y-90732179D01*
X122950109Y-90560213D01*
X122799786Y-90409890D01*
X122627820Y-90284951D01*
X122627115Y-90284591D01*
X122619054Y-90280485D01*
X122568259Y-90232512D01*
X122551463Y-90164692D01*
X122573999Y-90098556D01*
X122619054Y-90059515D01*
X122627816Y-90055051D01*
X122649789Y-90039086D01*
X122799786Y-89930109D01*
X122799788Y-89930106D01*
X122799792Y-89930104D01*
X122950104Y-89779792D01*
X122950106Y-89779788D01*
X122950109Y-89779786D01*
X123075048Y-89607820D01*
X123075047Y-89607820D01*
X123075051Y-89607816D01*
X123171557Y-89418412D01*
X123237246Y-89216243D01*
X123270500Y-89006287D01*
X123270500Y-88793713D01*
X123237246Y-88583757D01*
X123171557Y-88381588D01*
X123075051Y-88192184D01*
X123075049Y-88192181D01*
X123075048Y-88192179D01*
X122950109Y-88020213D01*
X122799786Y-87869890D01*
X122627820Y-87744951D01*
X122627115Y-87744591D01*
X122619054Y-87740485D01*
X122568259Y-87692512D01*
X122551463Y-87624692D01*
X122573999Y-87558556D01*
X122619054Y-87519515D01*
X122627816Y-87515051D01*
X122649789Y-87499086D01*
X122799786Y-87390109D01*
X122799788Y-87390106D01*
X122799792Y-87390104D01*
X122950104Y-87239792D01*
X122950106Y-87239788D01*
X122950109Y-87239786D01*
X123075048Y-87067820D01*
X123075047Y-87067820D01*
X123075051Y-87067816D01*
X123171557Y-86878412D01*
X123237246Y-86676243D01*
X123270500Y-86466287D01*
X123270500Y-86253713D01*
X123237246Y-86043757D01*
X123171557Y-85841588D01*
X123075051Y-85652184D01*
X123075049Y-85652181D01*
X123075048Y-85652179D01*
X122950109Y-85480213D01*
X122799786Y-85329890D01*
X122627820Y-85204951D01*
X122627115Y-85204591D01*
X122619054Y-85200485D01*
X122568259Y-85152512D01*
X122551463Y-85084692D01*
X122573999Y-85018556D01*
X122619054Y-84979515D01*
X122627816Y-84975051D01*
X122649789Y-84959086D01*
X122799786Y-84850109D01*
X122799788Y-84850106D01*
X122799792Y-84850104D01*
X122950104Y-84699792D01*
X122950106Y-84699788D01*
X122950109Y-84699786D01*
X123075048Y-84527820D01*
X123075047Y-84527820D01*
X123075051Y-84527816D01*
X123171557Y-84338412D01*
X123237246Y-84136243D01*
X123270500Y-83926287D01*
X123270500Y-83713713D01*
X123237246Y-83503757D01*
X123171557Y-83301588D01*
X123075051Y-83112184D01*
X123075049Y-83112181D01*
X123075048Y-83112179D01*
X122950109Y-82940213D01*
X122836181Y-82826285D01*
X122802696Y-82764962D01*
X122807680Y-82695270D01*
X122849552Y-82639337D01*
X122880529Y-82622422D01*
X123012086Y-82573354D01*
X123012093Y-82573350D01*
X123127187Y-82487190D01*
X123127190Y-82487187D01*
X123213350Y-82372093D01*
X123213354Y-82372086D01*
X123263596Y-82237379D01*
X123263598Y-82237372D01*
X123269999Y-82177844D01*
X123270000Y-82177827D01*
X123270000Y-81530000D01*
X122364560Y-81530000D01*
X122395245Y-81476853D01*
X122430000Y-81347143D01*
X122430000Y-81212857D01*
X122395245Y-81083147D01*
X122364560Y-81030000D01*
X123270000Y-81030000D01*
X123270000Y-80382172D01*
X123269999Y-80382155D01*
X123263598Y-80322627D01*
X123263596Y-80322620D01*
X123213354Y-80187913D01*
X123213350Y-80187906D01*
X123127190Y-80072812D01*
X123127187Y-80072809D01*
X123012093Y-79986649D01*
X123012088Y-79986646D01*
X122880528Y-79937577D01*
X122824595Y-79895705D01*
X122800178Y-79830241D01*
X122815030Y-79761968D01*
X122836175Y-79733720D01*
X122950104Y-79619792D01*
X123075051Y-79447816D01*
X123171557Y-79258412D01*
X123237246Y-79056243D01*
X123270500Y-78846287D01*
X123270500Y-78633713D01*
X123237246Y-78423757D01*
X123171557Y-78221588D01*
X123075051Y-78032184D01*
X123075049Y-78032181D01*
X123075048Y-78032179D01*
X122950109Y-77860213D01*
X122799786Y-77709890D01*
X122627820Y-77584951D01*
X122627115Y-77584591D01*
X122619054Y-77580485D01*
X122568259Y-77532512D01*
X122551463Y-77464692D01*
X122573999Y-77398556D01*
X122619054Y-77359515D01*
X122627816Y-77355051D01*
X122649789Y-77339086D01*
X122799786Y-77230109D01*
X122799788Y-77230106D01*
X122799792Y-77230104D01*
X122950104Y-77079792D01*
X122950106Y-77079788D01*
X122950109Y-77079786D01*
X123075048Y-76907820D01*
X123075047Y-76907820D01*
X123075051Y-76907816D01*
X123171557Y-76718412D01*
X123237246Y-76516243D01*
X123270500Y-76306287D01*
X123270500Y-76093713D01*
X123237246Y-75883757D01*
X123171557Y-75681588D01*
X123075051Y-75492184D01*
X123075049Y-75492181D01*
X123075048Y-75492179D01*
X122950109Y-75320213D01*
X122799786Y-75169890D01*
X122627820Y-75044951D01*
X122627115Y-75044591D01*
X122619054Y-75040485D01*
X122568259Y-74992512D01*
X122551463Y-74924692D01*
X122573999Y-74858556D01*
X122619054Y-74819515D01*
X122627816Y-74815051D01*
X122649789Y-74799086D01*
X122799786Y-74690109D01*
X122799788Y-74690106D01*
X122799792Y-74690104D01*
X122950104Y-74539792D01*
X122950106Y-74539788D01*
X122950109Y-74539786D01*
X123075048Y-74367820D01*
X123075047Y-74367820D01*
X123075051Y-74367816D01*
X123171557Y-74178412D01*
X123237246Y-73976243D01*
X123270500Y-73766287D01*
X123270500Y-73553713D01*
X123237246Y-73343757D01*
X123171557Y-73141588D01*
X123075051Y-72952184D01*
X123075049Y-72952181D01*
X123075048Y-72952179D01*
X122950109Y-72780213D01*
X122799786Y-72629890D01*
X122627820Y-72504951D01*
X122627115Y-72504591D01*
X122619054Y-72500485D01*
X122568259Y-72452512D01*
X122551463Y-72384692D01*
X122573999Y-72318556D01*
X122619054Y-72279515D01*
X122627816Y-72275051D01*
X122649789Y-72259086D01*
X122799786Y-72150109D01*
X122799788Y-72150106D01*
X122799792Y-72150104D01*
X122950104Y-71999792D01*
X122950108Y-71999787D01*
X122950109Y-71999786D01*
X123075048Y-71827820D01*
X123075050Y-71827817D01*
X123075051Y-71827816D01*
X123171557Y-71638412D01*
X123237246Y-71436243D01*
X123270500Y-71226287D01*
X123270500Y-71013713D01*
X123237246Y-70803757D01*
X123171557Y-70601588D01*
X123075051Y-70412184D01*
X123075049Y-70412181D01*
X123075048Y-70412179D01*
X122950109Y-70240213D01*
X122836569Y-70126673D01*
X122803084Y-70065350D01*
X122808068Y-69995658D01*
X122849940Y-69939725D01*
X122880915Y-69922810D01*
X123012331Y-69873796D01*
X123127546Y-69787546D01*
X123213796Y-69672331D01*
X123264091Y-69537483D01*
X123270500Y-69477873D01*
X123270499Y-67682128D01*
X123264091Y-67622517D01*
X123213796Y-67487669D01*
X123213795Y-67487668D01*
X123213793Y-67487664D01*
X123127547Y-67372455D01*
X123127544Y-67372452D01*
X123012335Y-67286206D01*
X123012328Y-67286202D01*
X122880917Y-67237189D01*
X122824983Y-67195318D01*
X122800566Y-67129853D01*
X122815418Y-67061580D01*
X122836563Y-67033332D01*
X122950104Y-66919792D01*
X123075051Y-66747816D01*
X123171557Y-66558412D01*
X123237246Y-66356243D01*
X123270500Y-66146287D01*
X123270500Y-65933713D01*
X123237246Y-65723757D01*
X123171557Y-65521588D01*
X123075051Y-65332184D01*
X123075049Y-65332181D01*
X123075048Y-65332179D01*
X122950109Y-65160213D01*
X122799786Y-65009890D01*
X122627820Y-64884951D01*
X122627115Y-64884591D01*
X122619054Y-64880485D01*
X122568259Y-64832512D01*
X122551463Y-64764692D01*
X122573999Y-64698556D01*
X122619054Y-64659515D01*
X122627816Y-64655051D01*
X122714138Y-64592335D01*
X122799786Y-64530109D01*
X122799788Y-64530106D01*
X122799792Y-64530104D01*
X122950104Y-64379792D01*
X122950106Y-64379788D01*
X122950109Y-64379786D01*
X123075048Y-64207820D01*
X123075047Y-64207820D01*
X123075051Y-64207816D01*
X123171557Y-64018412D01*
X123237246Y-63816243D01*
X123270500Y-63606287D01*
X123270500Y-63393713D01*
X123237246Y-63183757D01*
X123171557Y-62981588D01*
X123075051Y-62792184D01*
X123075049Y-62792181D01*
X123075048Y-62792179D01*
X122950109Y-62620213D01*
X122799786Y-62469890D01*
X122627820Y-62344951D01*
X122627115Y-62344591D01*
X122619054Y-62340485D01*
X122568259Y-62292512D01*
X122551463Y-62224692D01*
X122573999Y-62158556D01*
X122619054Y-62119515D01*
X122627816Y-62115051D01*
X122717554Y-62049853D01*
X122799786Y-61990109D01*
X122799788Y-61990106D01*
X122799792Y-61990104D01*
X122950104Y-61839792D01*
X122950106Y-61839788D01*
X122950109Y-61839786D01*
X123075048Y-61667820D01*
X123075047Y-61667820D01*
X123075051Y-61667816D01*
X123171557Y-61478412D01*
X123237246Y-61276243D01*
X123270500Y-61066287D01*
X123270500Y-60853713D01*
X123237246Y-60643757D01*
X123171557Y-60441588D01*
X123075051Y-60252184D01*
X123075049Y-60252181D01*
X123075048Y-60252179D01*
X122950109Y-60080213D01*
X122799786Y-59929890D01*
X122627820Y-59804951D01*
X122627115Y-59804591D01*
X122619054Y-59800485D01*
X122568259Y-59752512D01*
X122551463Y-59684692D01*
X122573999Y-59618556D01*
X122619054Y-59579515D01*
X122627816Y-59575051D01*
X122649789Y-59559086D01*
X122799786Y-59450109D01*
X122799788Y-59450106D01*
X122799792Y-59450104D01*
X122950104Y-59299792D01*
X122950106Y-59299788D01*
X122950109Y-59299786D01*
X123075048Y-59127820D01*
X123075047Y-59127820D01*
X123075051Y-59127816D01*
X123171557Y-58938412D01*
X123237246Y-58736243D01*
X123270500Y-58526287D01*
X123270500Y-58313713D01*
X123237246Y-58103757D01*
X123171557Y-57901588D01*
X123075051Y-57712184D01*
X123075049Y-57712181D01*
X123075048Y-57712179D01*
X122950109Y-57540213D01*
X122836181Y-57426285D01*
X122802696Y-57364962D01*
X122807680Y-57295270D01*
X122849552Y-57239337D01*
X122880529Y-57222422D01*
X123012086Y-57173354D01*
X123012093Y-57173350D01*
X123127187Y-57087190D01*
X123127190Y-57087187D01*
X123213350Y-56972093D01*
X123213354Y-56972086D01*
X123263596Y-56837379D01*
X123263598Y-56837372D01*
X123269999Y-56777844D01*
X123270000Y-56777827D01*
X123270000Y-56130000D01*
X122364560Y-56130000D01*
X122395245Y-56076853D01*
X122430000Y-55947143D01*
X122430000Y-55812857D01*
X122395245Y-55683147D01*
X122364560Y-55630000D01*
X123270000Y-55630000D01*
X123270000Y-54982172D01*
X123269999Y-54982155D01*
X123263598Y-54922627D01*
X123263596Y-54922620D01*
X123213354Y-54787913D01*
X123213350Y-54787906D01*
X123127190Y-54672812D01*
X123127187Y-54672809D01*
X123012093Y-54586649D01*
X123012088Y-54586646D01*
X122880528Y-54537577D01*
X122824595Y-54495705D01*
X122800178Y-54430241D01*
X122815030Y-54361968D01*
X122836175Y-54333720D01*
X122950104Y-54219792D01*
X123075051Y-54047816D01*
X123171557Y-53858412D01*
X123237246Y-53656243D01*
X123270500Y-53446287D01*
X123270500Y-53233713D01*
X123237246Y-53023757D01*
X123171557Y-52821588D01*
X123075051Y-52632184D01*
X123075049Y-52632181D01*
X123075048Y-52632179D01*
X122950109Y-52460213D01*
X122799786Y-52309890D01*
X122627820Y-52184951D01*
X122627115Y-52184591D01*
X122619054Y-52180485D01*
X122568259Y-52132512D01*
X122551463Y-52064692D01*
X122573999Y-51998556D01*
X122619054Y-51959515D01*
X122627816Y-51955051D01*
X122714138Y-51892335D01*
X122799786Y-51830109D01*
X122799788Y-51830106D01*
X122799792Y-51830104D01*
X122950104Y-51679792D01*
X122950106Y-51679788D01*
X122950109Y-51679786D01*
X123060881Y-51527319D01*
X123075051Y-51507816D01*
X123171557Y-51318412D01*
X123237246Y-51116243D01*
X123270500Y-50906287D01*
X123270500Y-50693713D01*
X123237246Y-50483757D01*
X123171557Y-50281588D01*
X123075051Y-50092184D01*
X123075049Y-50092181D01*
X123075048Y-50092179D01*
X122950109Y-49920213D01*
X122799790Y-49769894D01*
X122799785Y-49769890D01*
X122778352Y-49754318D01*
X122735686Y-49698988D01*
X122729707Y-49629375D01*
X122762312Y-49567580D01*
X122823151Y-49533223D01*
X122851237Y-49530000D01*
X128134227Y-49530000D01*
X128201266Y-49549685D01*
X128247021Y-49602489D01*
X128256965Y-49671647D01*
X128247915Y-49698841D01*
X128249303Y-49699359D01*
X128195908Y-49842517D01*
X128193840Y-49861758D01*
X128189501Y-49902123D01*
X128189500Y-49902135D01*
X128189500Y-51697870D01*
X128189501Y-51697876D01*
X128195908Y-51757483D01*
X128246202Y-51892328D01*
X128246206Y-51892335D01*
X128332452Y-52007544D01*
X128332455Y-52007547D01*
X128447664Y-52093793D01*
X128447671Y-52093797D01*
X128579082Y-52142810D01*
X128635016Y-52184681D01*
X128659433Y-52250145D01*
X128644582Y-52318418D01*
X128623431Y-52346673D01*
X128509889Y-52460215D01*
X128384951Y-52632179D01*
X128288444Y-52821585D01*
X128222753Y-53023760D01*
X128203844Y-53143147D01*
X128189500Y-53233713D01*
X128189500Y-53446287D01*
X128194836Y-53479975D01*
X128222753Y-53656239D01*
X128222753Y-53656241D01*
X128222754Y-53656243D01*
X128262105Y-53777353D01*
X128288444Y-53858414D01*
X128384951Y-54047820D01*
X128509890Y-54219786D01*
X128660213Y-54370109D01*
X128832179Y-54495048D01*
X128832181Y-54495049D01*
X128832184Y-54495051D01*
X128841493Y-54499794D01*
X128892290Y-54547766D01*
X128909087Y-54615587D01*
X128886552Y-54681722D01*
X128841505Y-54720760D01*
X128832446Y-54725376D01*
X128832440Y-54725380D01*
X128778282Y-54764727D01*
X128778282Y-54764728D01*
X129410591Y-55397037D01*
X129347007Y-55414075D01*
X129232993Y-55479901D01*
X129139901Y-55572993D01*
X129074075Y-55687007D01*
X129057037Y-55750591D01*
X128424728Y-55118282D01*
X128424727Y-55118282D01*
X128385380Y-55172439D01*
X128288904Y-55361782D01*
X128223242Y-55563869D01*
X128223242Y-55563872D01*
X128190000Y-55773753D01*
X128190000Y-55986246D01*
X128223242Y-56196127D01*
X128223242Y-56196130D01*
X128288904Y-56398217D01*
X128385375Y-56587550D01*
X128424728Y-56641716D01*
X129057037Y-56009408D01*
X129074075Y-56072993D01*
X129139901Y-56187007D01*
X129232993Y-56280099D01*
X129347007Y-56345925D01*
X129410590Y-56362962D01*
X128778282Y-56995269D01*
X128778282Y-56995270D01*
X128832452Y-57034626D01*
X128832451Y-57034626D01*
X128841495Y-57039234D01*
X128892292Y-57087208D01*
X128909087Y-57155029D01*
X128886550Y-57221164D01*
X128841499Y-57260202D01*
X128832182Y-57264949D01*
X128660213Y-57389890D01*
X128509890Y-57540213D01*
X128384951Y-57712179D01*
X128288444Y-57901585D01*
X128222753Y-58103760D01*
X128189500Y-58313713D01*
X128189500Y-58526286D01*
X128215896Y-58692947D01*
X128222754Y-58736243D01*
X128232392Y-58765907D01*
X128288444Y-58938414D01*
X128384951Y-59127820D01*
X128509890Y-59299786D01*
X128660213Y-59450109D01*
X128832182Y-59575050D01*
X128840946Y-59579516D01*
X128891742Y-59627491D01*
X128908536Y-59695312D01*
X128885998Y-59761447D01*
X128840946Y-59800484D01*
X128832182Y-59804949D01*
X128660213Y-59929890D01*
X128509890Y-60080213D01*
X128384951Y-60252179D01*
X128288444Y-60441585D01*
X128222753Y-60643760D01*
X128189500Y-60853713D01*
X128189500Y-61066286D01*
X128222753Y-61276239D01*
X128222753Y-61276241D01*
X128222754Y-61276243D01*
X128282546Y-61460264D01*
X128288444Y-61478414D01*
X128384951Y-61667820D01*
X128509890Y-61839786D01*
X128660213Y-61990109D01*
X128832182Y-62115050D01*
X128840946Y-62119516D01*
X128891742Y-62167491D01*
X128908536Y-62235312D01*
X128885998Y-62301447D01*
X128840946Y-62340484D01*
X128832182Y-62344949D01*
X128660213Y-62469890D01*
X128509890Y-62620213D01*
X128384951Y-62792179D01*
X128288444Y-62981585D01*
X128222753Y-63183760D01*
X128189500Y-63393713D01*
X128189500Y-63606286D01*
X128222753Y-63816239D01*
X128288444Y-64018414D01*
X128384951Y-64207820D01*
X128509890Y-64379786D01*
X128660213Y-64530109D01*
X128832182Y-64655050D01*
X128840946Y-64659516D01*
X128891742Y-64707491D01*
X128908536Y-64775312D01*
X128885998Y-64841447D01*
X128840946Y-64880484D01*
X128832182Y-64884949D01*
X128660213Y-65009890D01*
X128509890Y-65160213D01*
X128384951Y-65332179D01*
X128288444Y-65521585D01*
X128222753Y-65723760D01*
X128189500Y-65933713D01*
X128189500Y-66146286D01*
X128222753Y-66356239D01*
X128222753Y-66356241D01*
X128222754Y-66356243D01*
X128238396Y-66404385D01*
X128288444Y-66558414D01*
X128384951Y-66747820D01*
X128509890Y-66919786D01*
X128660213Y-67070109D01*
X128832182Y-67195050D01*
X128840946Y-67199516D01*
X128891742Y-67247491D01*
X128908536Y-67315312D01*
X128885998Y-67381447D01*
X128840946Y-67420484D01*
X128832182Y-67424949D01*
X128660213Y-67549890D01*
X128509890Y-67700213D01*
X128384951Y-67872179D01*
X128288444Y-68061585D01*
X128222753Y-68263760D01*
X128189500Y-68473713D01*
X128189500Y-68686286D01*
X128222753Y-68896239D01*
X128222753Y-68896241D01*
X128222754Y-68896243D01*
X128277431Y-69064522D01*
X128288444Y-69098414D01*
X128384951Y-69287820D01*
X128509890Y-69459786D01*
X128660213Y-69610109D01*
X128832182Y-69735050D01*
X128840946Y-69739516D01*
X128891742Y-69787491D01*
X128908536Y-69855312D01*
X128885998Y-69921447D01*
X128840946Y-69960484D01*
X128832182Y-69964949D01*
X128660213Y-70089890D01*
X128509890Y-70240213D01*
X128384951Y-70412179D01*
X128288444Y-70601585D01*
X128222753Y-70803760D01*
X128189500Y-71013713D01*
X128189500Y-71226287D01*
X128222754Y-71436243D01*
X128276132Y-71600524D01*
X128288444Y-71638414D01*
X128384951Y-71827820D01*
X128509890Y-71999786D01*
X128660213Y-72150109D01*
X128832182Y-72275050D01*
X128840946Y-72279516D01*
X128891742Y-72327491D01*
X128908536Y-72395312D01*
X128885998Y-72461447D01*
X128840946Y-72500484D01*
X128832182Y-72504949D01*
X128660213Y-72629890D01*
X128509890Y-72780213D01*
X128384951Y-72952179D01*
X128288444Y-73141585D01*
X128222753Y-73343760D01*
X128212062Y-73411264D01*
X128189500Y-73553713D01*
X128189500Y-73766287D01*
X128222754Y-73976243D01*
X128278428Y-74147590D01*
X128288444Y-74178414D01*
X128384951Y-74367820D01*
X128509890Y-74539786D01*
X128660213Y-74690109D01*
X128832182Y-74815050D01*
X128840946Y-74819516D01*
X128891742Y-74867491D01*
X128908536Y-74935312D01*
X128885998Y-75001447D01*
X128840946Y-75040484D01*
X128832182Y-75044949D01*
X128660213Y-75169890D01*
X128509890Y-75320213D01*
X128384951Y-75492179D01*
X128288444Y-75681585D01*
X128222753Y-75883760D01*
X128189500Y-76093713D01*
X128189500Y-76306286D01*
X128222753Y-76516239D01*
X128288444Y-76718414D01*
X128384951Y-76907820D01*
X128509890Y-77079786D01*
X128660213Y-77230109D01*
X128832182Y-77355050D01*
X128840946Y-77359516D01*
X128891742Y-77407491D01*
X128908536Y-77475312D01*
X128885998Y-77541447D01*
X128840946Y-77580484D01*
X128832182Y-77584949D01*
X128660213Y-77709890D01*
X128509890Y-77860213D01*
X128384951Y-78032179D01*
X128288444Y-78221585D01*
X128222753Y-78423760D01*
X128189500Y-78633713D01*
X128189500Y-78846287D01*
X128222754Y-79056243D01*
X128281370Y-79236645D01*
X128288444Y-79258414D01*
X128384951Y-79447820D01*
X128509890Y-79619786D01*
X128660213Y-79770109D01*
X128832179Y-79895048D01*
X128832181Y-79895049D01*
X128832184Y-79895051D01*
X128841493Y-79899794D01*
X128892290Y-79947766D01*
X128909087Y-80015587D01*
X128886552Y-80081722D01*
X128841505Y-80120760D01*
X128832446Y-80125376D01*
X128832440Y-80125380D01*
X128778282Y-80164727D01*
X128778282Y-80164728D01*
X129410591Y-80797037D01*
X129347007Y-80814075D01*
X129232993Y-80879901D01*
X129139901Y-80972993D01*
X129074075Y-81087007D01*
X129057037Y-81150591D01*
X128424728Y-80518282D01*
X128424727Y-80518282D01*
X128385380Y-80572439D01*
X128288904Y-80761782D01*
X128223242Y-80963869D01*
X128223242Y-80963872D01*
X128190000Y-81173753D01*
X128190000Y-81386246D01*
X128223242Y-81596127D01*
X128223242Y-81596130D01*
X128288904Y-81798217D01*
X128385375Y-81987550D01*
X128424728Y-82041716D01*
X129057037Y-81409408D01*
X129074075Y-81472993D01*
X129139901Y-81587007D01*
X129232993Y-81680099D01*
X129347007Y-81745925D01*
X129410590Y-81762962D01*
X128778282Y-82395269D01*
X128778282Y-82395270D01*
X128832452Y-82434626D01*
X128832451Y-82434626D01*
X128841495Y-82439234D01*
X128892292Y-82487208D01*
X128909087Y-82555029D01*
X128886550Y-82621164D01*
X128841499Y-82660202D01*
X128832182Y-82664949D01*
X128660213Y-82789890D01*
X128509890Y-82940213D01*
X128384951Y-83112179D01*
X128288444Y-83301585D01*
X128222753Y-83503760D01*
X128189500Y-83713713D01*
X128189500Y-83926286D01*
X128215960Y-84093352D01*
X128222754Y-84136243D01*
X128241427Y-84193713D01*
X128288444Y-84338414D01*
X128384951Y-84527820D01*
X128509890Y-84699786D01*
X128660213Y-84850109D01*
X128832182Y-84975050D01*
X128840946Y-84979516D01*
X128891742Y-85027491D01*
X128908536Y-85095312D01*
X128885998Y-85161447D01*
X128840946Y-85200484D01*
X128832182Y-85204949D01*
X128660213Y-85329890D01*
X128509890Y-85480213D01*
X128384951Y-85652179D01*
X128288444Y-85841585D01*
X128222753Y-86043760D01*
X128189500Y-86253713D01*
X128189500Y-86466286D01*
X128222753Y-86676239D01*
X128288444Y-86878414D01*
X128384951Y-87067820D01*
X128509890Y-87239786D01*
X128660213Y-87390109D01*
X128832182Y-87515050D01*
X128840946Y-87519516D01*
X128891742Y-87567491D01*
X128908536Y-87635312D01*
X128885998Y-87701447D01*
X128840946Y-87740484D01*
X128832182Y-87744949D01*
X128660213Y-87869890D01*
X128509890Y-88020213D01*
X128384951Y-88192179D01*
X128288444Y-88381585D01*
X128222753Y-88583760D01*
X128189500Y-88793713D01*
X128189500Y-89006286D01*
X128222753Y-89216239D01*
X128288444Y-89418414D01*
X128384951Y-89607820D01*
X128509890Y-89779786D01*
X128660213Y-89930109D01*
X128832182Y-90055050D01*
X128840946Y-90059516D01*
X128891742Y-90107491D01*
X128908536Y-90175312D01*
X128885998Y-90241447D01*
X128840946Y-90280484D01*
X128832182Y-90284949D01*
X128660213Y-90409890D01*
X128509890Y-90560213D01*
X128384951Y-90732179D01*
X128288444Y-90921585D01*
X128288443Y-90921587D01*
X128288443Y-90921588D01*
X128255815Y-91022007D01*
X128222753Y-91123760D01*
X128189500Y-91333713D01*
X128189500Y-91546286D01*
X128222753Y-91756239D01*
X128288444Y-91958414D01*
X128384951Y-92147820D01*
X128509890Y-92319786D01*
X128660213Y-92470109D01*
X128832179Y-92595048D01*
X128832181Y-92595049D01*
X128832184Y-92595051D01*
X128841493Y-92599794D01*
X128892290Y-92647766D01*
X128909087Y-92715587D01*
X128886552Y-92781722D01*
X128841505Y-92820760D01*
X128832446Y-92825376D01*
X128832440Y-92825380D01*
X128778282Y-92864727D01*
X128778282Y-92864728D01*
X129410591Y-93497037D01*
X129347007Y-93514075D01*
X129232993Y-93579901D01*
X129139901Y-93672993D01*
X129074075Y-93787007D01*
X129057037Y-93850591D01*
X128424728Y-93218282D01*
X128424727Y-93218282D01*
X128385380Y-93272439D01*
X128288904Y-93461782D01*
X128223242Y-93663869D01*
X128223242Y-93663872D01*
X128190000Y-93873753D01*
X128190000Y-94086246D01*
X128223242Y-94296127D01*
X128223242Y-94296130D01*
X128288904Y-94498217D01*
X128385375Y-94687550D01*
X128424728Y-94741716D01*
X129057037Y-94109408D01*
X129074075Y-94172993D01*
X129139901Y-94287007D01*
X129232993Y-94380099D01*
X129347007Y-94445925D01*
X129410590Y-94462962D01*
X128778282Y-95095269D01*
X128778282Y-95095270D01*
X128832452Y-95134626D01*
X128832451Y-95134626D01*
X128841495Y-95139234D01*
X128892292Y-95187208D01*
X128909087Y-95255029D01*
X128886550Y-95321164D01*
X128841499Y-95360202D01*
X128832182Y-95364949D01*
X128660213Y-95489890D01*
X128509890Y-95640213D01*
X128384951Y-95812179D01*
X128288444Y-96001585D01*
X128222753Y-96203760D01*
X128189500Y-96413713D01*
X128189500Y-96626286D01*
X128222753Y-96836239D01*
X128222753Y-96836241D01*
X128222754Y-96836243D01*
X128222754Y-96836244D01*
X128288444Y-97038414D01*
X128384951Y-97227820D01*
X128509890Y-97399786D01*
X128660213Y-97550109D01*
X128832182Y-97675050D01*
X128840946Y-97679516D01*
X128891742Y-97727491D01*
X128908536Y-97795312D01*
X128885998Y-97861447D01*
X128840946Y-97900484D01*
X128832182Y-97904949D01*
X128660213Y-98029890D01*
X128509890Y-98180213D01*
X128384951Y-98352179D01*
X128288444Y-98541585D01*
X128222753Y-98743760D01*
X128189500Y-98953713D01*
X128189500Y-99166286D01*
X128222735Y-99376127D01*
X128222754Y-99376243D01*
X128236486Y-99418507D01*
X128288444Y-99578414D01*
X128384951Y-99767820D01*
X128509890Y-99939786D01*
X128660213Y-100090109D01*
X128832179Y-100215048D01*
X128832181Y-100215049D01*
X128832184Y-100215051D01*
X129021588Y-100311557D01*
X129223757Y-100377246D01*
X129433713Y-100410500D01*
X129433714Y-100410500D01*
X129646286Y-100410500D01*
X129646287Y-100410500D01*
X129856243Y-100377246D01*
X130058412Y-100311557D01*
X130247816Y-100215051D01*
X130290232Y-100184234D01*
X130419786Y-100090109D01*
X130419788Y-100090106D01*
X130419792Y-100090104D01*
X130570104Y-99939792D01*
X130585680Y-99918352D01*
X130641009Y-99875686D01*
X130710623Y-99869705D01*
X130772418Y-99902310D01*
X130806777Y-99963148D01*
X130810000Y-99991236D01*
X130810000Y-105293609D01*
X130790315Y-105360648D01*
X130737511Y-105406403D01*
X130687265Y-105417603D01*
X129814774Y-105426506D01*
X129747537Y-105407506D01*
X129701246Y-105355172D01*
X129690597Y-105286118D01*
X129718972Y-105222270D01*
X129740625Y-105202193D01*
X129784788Y-105170107D01*
X129784788Y-105170106D01*
X129784792Y-105170104D01*
X129935104Y-105019792D01*
X129935106Y-105019788D01*
X129935109Y-105019786D01*
X130060048Y-104847820D01*
X130060050Y-104847817D01*
X130060051Y-104847816D01*
X130156557Y-104658412D01*
X130222246Y-104456243D01*
X130255500Y-104246287D01*
X130255500Y-104033713D01*
X130222246Y-103823757D01*
X130156557Y-103621588D01*
X130060051Y-103432184D01*
X130060049Y-103432181D01*
X130060048Y-103432179D01*
X129935109Y-103260213D01*
X129784786Y-103109890D01*
X129612820Y-102984951D01*
X129423414Y-102888444D01*
X129423413Y-102888443D01*
X129423412Y-102888443D01*
X129221243Y-102822754D01*
X129221241Y-102822753D01*
X129221240Y-102822753D01*
X129059957Y-102797208D01*
X129011287Y-102789500D01*
X128798713Y-102789500D01*
X128750042Y-102797208D01*
X128588760Y-102822753D01*
X128386585Y-102888444D01*
X128197179Y-102984951D01*
X128025213Y-103109890D01*
X127874890Y-103260213D01*
X127749951Y-103432179D01*
X127653444Y-103621585D01*
X127587753Y-103823760D01*
X127554500Y-104033713D01*
X127554500Y-104246286D01*
X127584950Y-104438543D01*
X127587754Y-104456243D01*
X127643724Y-104628501D01*
X127653444Y-104658414D01*
X127749951Y-104847820D01*
X127874890Y-105019786D01*
X127874896Y-105019792D01*
X128025208Y-105170104D01*
X128025212Y-105170107D01*
X128094540Y-105220476D01*
X128137206Y-105275806D01*
X128143185Y-105345419D01*
X128110580Y-105407215D01*
X128049741Y-105441572D01*
X128022920Y-105444789D01*
X116266241Y-105564755D01*
X116199004Y-105545755D01*
X116152713Y-105493421D01*
X116142064Y-105424367D01*
X116170439Y-105360519D01*
X116208682Y-105330276D01*
X116213269Y-105327938D01*
X116277815Y-105295051D01*
X116364137Y-105232335D01*
X116449785Y-105170109D01*
X116449787Y-105170106D01*
X116449791Y-105170104D01*
X116600103Y-105019792D01*
X116600105Y-105019788D01*
X116600108Y-105019786D01*
X116725047Y-104847820D01*
X116725049Y-104847817D01*
X116725050Y-104847816D01*
X116821556Y-104658412D01*
X116887245Y-104456243D01*
X116920499Y-104246287D01*
X116920499Y-104033713D01*
X116887245Y-103823757D01*
X116821556Y-103621588D01*
X116725050Y-103432184D01*
X116725048Y-103432181D01*
X116725047Y-103432179D01*
X116600108Y-103260213D01*
X116449785Y-103109890D01*
X116277819Y-102984951D01*
X116088413Y-102888444D01*
X116088412Y-102888443D01*
X116088411Y-102888443D01*
X115886242Y-102822754D01*
X115886240Y-102822753D01*
X115886239Y-102822753D01*
X115724956Y-102797208D01*
X115676286Y-102789500D01*
X115463712Y-102789500D01*
X115415041Y-102797208D01*
X115253759Y-102822753D01*
X115051584Y-102888444D01*
X114862178Y-102984951D01*
X114690212Y-103109890D01*
X114539889Y-103260213D01*
X114414949Y-103432181D01*
X114410200Y-103441501D01*
X114362222Y-103492294D01*
X114294401Y-103509086D01*
X114228267Y-103486545D01*
X114189231Y-103441491D01*
X114184624Y-103432449D01*
X114145270Y-103378282D01*
X114145269Y-103378282D01*
X113512962Y-104010590D01*
X113495925Y-103947007D01*
X113430099Y-103832993D01*
X113337007Y-103739901D01*
X113222993Y-103674075D01*
X113159409Y-103657037D01*
X113791716Y-103024728D01*
X113737550Y-102985375D01*
X113548217Y-102888904D01*
X113346129Y-102823242D01*
X113136246Y-102790000D01*
X112923754Y-102790000D01*
X112713872Y-102823242D01*
X112713869Y-102823242D01*
X112511782Y-102888904D01*
X112322439Y-102985380D01*
X112268282Y-103024727D01*
X112268282Y-103024728D01*
X112900591Y-103657037D01*
X112837007Y-103674075D01*
X112722993Y-103739901D01*
X112629901Y-103832993D01*
X112564075Y-103947007D01*
X112547037Y-104010591D01*
X111876818Y-103340372D01*
X111843333Y-103279049D01*
X111843330Y-103279036D01*
X111840499Y-103266015D01*
X111840499Y-103242128D01*
X111834091Y-103182517D01*
X111794344Y-103075949D01*
X111783798Y-103047673D01*
X111783793Y-103047664D01*
X111697547Y-102932455D01*
X111697544Y-102932452D01*
X111582335Y-102846206D01*
X111582328Y-102846202D01*
X111447482Y-102795908D01*
X111447483Y-102795908D01*
X111387883Y-102789501D01*
X111387881Y-102789500D01*
X111387873Y-102789500D01*
X111387864Y-102789500D01*
X109592129Y-102789500D01*
X109592123Y-102789501D01*
X109532516Y-102795908D01*
X109397671Y-102846202D01*
X109397664Y-102846206D01*
X109282455Y-102932452D01*
X109282452Y-102932455D01*
X109196206Y-103047664D01*
X109196202Y-103047671D01*
X109145908Y-103182517D01*
X109139501Y-103242116D01*
X109139500Y-103242135D01*
X109139500Y-105037870D01*
X109139501Y-105037876D01*
X109145908Y-105097483D01*
X109196202Y-105232328D01*
X109196206Y-105232335D01*
X109282452Y-105347544D01*
X109282455Y-105347547D01*
X109369375Y-105412616D01*
X109411246Y-105468550D01*
X109416230Y-105538241D01*
X109382744Y-105599564D01*
X109321421Y-105633048D01*
X109296329Y-105635876D01*
X69340265Y-106043588D01*
X69273028Y-106024588D01*
X69226737Y-105972254D01*
X69215000Y-105919594D01*
X69215000Y-101255815D01*
X69218776Y-101242955D01*
X69218776Y-100408543D01*
X72154499Y-100408543D01*
X72192947Y-100601829D01*
X72192950Y-100601839D01*
X72264061Y-100773518D01*
X72273500Y-100820970D01*
X72273500Y-103029031D01*
X72264061Y-103076483D01*
X72192950Y-103248160D01*
X72192947Y-103248170D01*
X72154500Y-103441456D01*
X72154500Y-103441459D01*
X72154500Y-104438541D01*
X72154500Y-104438543D01*
X72154499Y-104438543D01*
X72192947Y-104631829D01*
X72192950Y-104631839D01*
X72268364Y-104813907D01*
X72268371Y-104813920D01*
X72377860Y-104977781D01*
X72377863Y-104977785D01*
X72517214Y-105117136D01*
X72517218Y-105117139D01*
X72681079Y-105226628D01*
X72681092Y-105226635D01*
X72845234Y-105294624D01*
X72863165Y-105302051D01*
X72863169Y-105302051D01*
X72863170Y-105302052D01*
X73056456Y-105340500D01*
X73056459Y-105340500D01*
X73253543Y-105340500D01*
X73383582Y-105314632D01*
X73446835Y-105302051D01*
X73628914Y-105226632D01*
X73792782Y-105117139D01*
X73932139Y-104977782D01*
X74041632Y-104813914D01*
X74117051Y-104631835D01*
X74117052Y-104631832D01*
X74118063Y-104628501D01*
X74119066Y-104626970D01*
X74119382Y-104626208D01*
X74119526Y-104626267D01*
X74156362Y-104570063D01*
X74220175Y-104541609D01*
X74236722Y-104540500D01*
X80713278Y-104540500D01*
X80780317Y-104560185D01*
X80826072Y-104612989D01*
X80831937Y-104628501D01*
X80832947Y-104631832D01*
X80908364Y-104813907D01*
X80908371Y-104813920D01*
X81017860Y-104977781D01*
X81017863Y-104977785D01*
X81157214Y-105117136D01*
X81157218Y-105117139D01*
X81321079Y-105226628D01*
X81321092Y-105226635D01*
X81485234Y-105294624D01*
X81503165Y-105302051D01*
X81503169Y-105302051D01*
X81503170Y-105302052D01*
X81696456Y-105340500D01*
X81696459Y-105340500D01*
X81893543Y-105340500D01*
X82023582Y-105314632D01*
X82086835Y-105302051D01*
X82268914Y-105226632D01*
X82432782Y-105117139D01*
X82572139Y-104977782D01*
X82681632Y-104813914D01*
X82757051Y-104631835D01*
X82795500Y-104438541D01*
X82795500Y-103441459D01*
X82795500Y-103441456D01*
X82757052Y-103248170D01*
X82757051Y-103248167D01*
X82757051Y-103248165D01*
X82754550Y-103242127D01*
X82681635Y-103066092D01*
X82681628Y-103066079D01*
X82572139Y-102902218D01*
X82572136Y-102902214D01*
X82432785Y-102762863D01*
X82432781Y-102762860D01*
X82268920Y-102653371D01*
X82268907Y-102653364D01*
X82086839Y-102577950D01*
X82086829Y-102577947D01*
X81893543Y-102539500D01*
X81893541Y-102539500D01*
X81696459Y-102539500D01*
X81696457Y-102539500D01*
X81503170Y-102577947D01*
X81503160Y-102577950D01*
X81321092Y-102653364D01*
X81321079Y-102653371D01*
X81157218Y-102762860D01*
X81157214Y-102762863D01*
X81017863Y-102902214D01*
X81017860Y-102902218D01*
X80908371Y-103066079D01*
X80908364Y-103066092D01*
X80832947Y-103248167D01*
X80831937Y-103251499D01*
X80830933Y-103253029D01*
X80830618Y-103253792D01*
X80830473Y-103253732D01*
X80793638Y-103309937D01*
X80729825Y-103338391D01*
X80713278Y-103339500D01*
X74236722Y-103339500D01*
X74217272Y-103333788D01*
X74197015Y-103332971D01*
X74184428Y-103324144D01*
X74169683Y-103319815D01*
X74156408Y-103304495D01*
X74139809Y-103292855D01*
X74129756Y-103273737D01*
X74123928Y-103267011D01*
X74121941Y-103262418D01*
X74117938Y-103252625D01*
X74117051Y-103248165D01*
X74045842Y-103076250D01*
X74045719Y-103075949D01*
X74045597Y-103074765D01*
X74036500Y-103029031D01*
X74036500Y-102070500D01*
X74056185Y-102003461D01*
X74108989Y-101957706D01*
X74160500Y-101946500D01*
X80685331Y-101946500D01*
X80685347Y-101946501D01*
X80692943Y-101946501D01*
X80851054Y-101946501D01*
X80851057Y-101946501D01*
X81003785Y-101905577D01*
X81053904Y-101876639D01*
X81140716Y-101826520D01*
X81252520Y-101714716D01*
X81252520Y-101714714D01*
X81262728Y-101704507D01*
X81262730Y-101704504D01*
X81620415Y-101346819D01*
X81681738Y-101313334D01*
X81708096Y-101310500D01*
X81893543Y-101310500D01*
X82023582Y-101284632D01*
X82086835Y-101272051D01*
X82227655Y-101213721D01*
X82268907Y-101196635D01*
X82268907Y-101196634D01*
X82268914Y-101196632D01*
X82432782Y-101087139D01*
X82572139Y-100947782D01*
X82681632Y-100783914D01*
X82685938Y-100773518D01*
X82736540Y-100651354D01*
X82757049Y-100601839D01*
X82757051Y-100601835D01*
X82787253Y-100450000D01*
X82795500Y-100408543D01*
X82795500Y-99111456D01*
X82767973Y-98973073D01*
X82767973Y-98973072D01*
X82757052Y-98918172D01*
X82757052Y-98918170D01*
X82757051Y-98918165D01*
X82705503Y-98793716D01*
X82681635Y-98736092D01*
X82681628Y-98736079D01*
X82572139Y-98572218D01*
X82572136Y-98572214D01*
X82432785Y-98432863D01*
X82432781Y-98432860D01*
X82268920Y-98323371D01*
X82268907Y-98323364D01*
X82086839Y-98247950D01*
X82086829Y-98247947D01*
X81893543Y-98209500D01*
X81893541Y-98209500D01*
X81696459Y-98209500D01*
X81696457Y-98209500D01*
X81503170Y-98247947D01*
X81503160Y-98247950D01*
X81321092Y-98323364D01*
X81321079Y-98323371D01*
X81157218Y-98432860D01*
X81157214Y-98432863D01*
X81017863Y-98572214D01*
X81017860Y-98572218D01*
X80908371Y-98736079D01*
X80908364Y-98736092D01*
X80832950Y-98918160D01*
X80832947Y-98918170D01*
X80794500Y-99111456D01*
X80794500Y-99628666D01*
X80774815Y-99695705D01*
X80722011Y-99741460D01*
X80652853Y-99751404D01*
X80608501Y-99736054D01*
X80587137Y-99723719D01*
X80482584Y-99695705D01*
X80440766Y-99684500D01*
X80289234Y-99684500D01*
X80142863Y-99723719D01*
X80011635Y-99799485D01*
X80011632Y-99799487D01*
X79904487Y-99906632D01*
X79904485Y-99906635D01*
X79828719Y-100037863D01*
X79804002Y-100130110D01*
X79789500Y-100184234D01*
X79789500Y-100335766D01*
X79809000Y-100408541D01*
X79828719Y-100482136D01*
X79843458Y-100507664D01*
X79873386Y-100559501D01*
X79889859Y-100627399D01*
X79867007Y-100693426D01*
X79812086Y-100736617D01*
X79765999Y-100745500D01*
X75184001Y-100745500D01*
X75116962Y-100725815D01*
X75071207Y-100673011D01*
X75061263Y-100603853D01*
X75076612Y-100559501D01*
X75121281Y-100482135D01*
X75160500Y-100335766D01*
X75160500Y-100184234D01*
X75121281Y-100037865D01*
X75045515Y-99906635D01*
X74938365Y-99799485D01*
X74855087Y-99751404D01*
X74807136Y-99723719D01*
X74702584Y-99695705D01*
X74660766Y-99684500D01*
X74509234Y-99684500D01*
X74362862Y-99723719D01*
X74341499Y-99736054D01*
X74273598Y-99752525D01*
X74207572Y-99729673D01*
X74164382Y-99674751D01*
X74155500Y-99628666D01*
X74155500Y-99111456D01*
X74117052Y-98918170D01*
X74117051Y-98918169D01*
X74117051Y-98918165D01*
X74065503Y-98793716D01*
X74041635Y-98736092D01*
X74041628Y-98736079D01*
X73932139Y-98572218D01*
X73932136Y-98572214D01*
X73792785Y-98432863D01*
X73792781Y-98432860D01*
X73628920Y-98323371D01*
X73628907Y-98323364D01*
X73446839Y-98247950D01*
X73446829Y-98247947D01*
X73253543Y-98209500D01*
X73253541Y-98209500D01*
X73056459Y-98209500D01*
X73056457Y-98209500D01*
X72863170Y-98247947D01*
X72863160Y-98247950D01*
X72681092Y-98323364D01*
X72681079Y-98323371D01*
X72517218Y-98432860D01*
X72517214Y-98432863D01*
X72377863Y-98572214D01*
X72377860Y-98572218D01*
X72268371Y-98736079D01*
X72268364Y-98736092D01*
X72192950Y-98918160D01*
X72192947Y-98918170D01*
X72154500Y-99111456D01*
X72154500Y-99111459D01*
X72154500Y-100408541D01*
X72154500Y-100408543D01*
X72154499Y-100408543D01*
X69218776Y-100408543D01*
X69218776Y-93873713D01*
X87803500Y-93873713D01*
X87803500Y-94086286D01*
X87836753Y-94296239D01*
X87902444Y-94498414D01*
X87998951Y-94687820D01*
X88123890Y-94859786D01*
X88274213Y-95010109D01*
X88446179Y-95135048D01*
X88446181Y-95135049D01*
X88446184Y-95135051D01*
X88454945Y-95139514D01*
X88505741Y-95187488D01*
X88522537Y-95255308D01*
X88500001Y-95321444D01*
X88454950Y-95360482D01*
X88446187Y-95364947D01*
X88446184Y-95364949D01*
X88274213Y-95489891D01*
X88123890Y-95640214D01*
X87998951Y-95812180D01*
X87902444Y-96001586D01*
X87836753Y-96203761D01*
X87803500Y-96413713D01*
X87803500Y-96413714D01*
X87803500Y-96626288D01*
X87836754Y-96836244D01*
X87849499Y-96875470D01*
X87902444Y-97038415D01*
X87998951Y-97227821D01*
X88123890Y-97399787D01*
X88274213Y-97550110D01*
X88446179Y-97675049D01*
X88446181Y-97675050D01*
X88446184Y-97675052D01*
X88454945Y-97679516D01*
X88455495Y-97679796D01*
X88506291Y-97727770D01*
X88523086Y-97795591D01*
X88500549Y-97861726D01*
X88455501Y-97900763D01*
X88446440Y-97905380D01*
X88392282Y-97944727D01*
X88392282Y-97944728D01*
X89024591Y-98577037D01*
X88961007Y-98594075D01*
X88846993Y-98659901D01*
X88753901Y-98752993D01*
X88688075Y-98867007D01*
X88671037Y-98930591D01*
X88038728Y-98298282D01*
X88038727Y-98298282D01*
X87999380Y-98352439D01*
X87902904Y-98541782D01*
X87837242Y-98743869D01*
X87837242Y-98743872D01*
X87804000Y-98953753D01*
X87804000Y-99166246D01*
X87837242Y-99376127D01*
X87837242Y-99376130D01*
X87902904Y-99578217D01*
X87999375Y-99767550D01*
X88038728Y-99821716D01*
X88671037Y-99189408D01*
X88688075Y-99252993D01*
X88753901Y-99367007D01*
X88846993Y-99460099D01*
X88961007Y-99525925D01*
X89024590Y-99542962D01*
X88354370Y-100213181D01*
X88293047Y-100246666D01*
X88266698Y-100249500D01*
X88256134Y-100249500D01*
X88256123Y-100249501D01*
X88196516Y-100255908D01*
X88061671Y-100306202D01*
X88061664Y-100306206D01*
X87946455Y-100392452D01*
X87946452Y-100392455D01*
X87860206Y-100507664D01*
X87860202Y-100507671D01*
X87809908Y-100642517D01*
X87806630Y-100673011D01*
X87803501Y-100702123D01*
X87803500Y-100702135D01*
X87803500Y-102497870D01*
X87803501Y-102497876D01*
X87809908Y-102557483D01*
X87860202Y-102692328D01*
X87860206Y-102692335D01*
X87946452Y-102807544D01*
X87946455Y-102807547D01*
X88061664Y-102893793D01*
X88061671Y-102893797D01*
X88196517Y-102944091D01*
X88196516Y-102944091D01*
X88203444Y-102944835D01*
X88256127Y-102950500D01*
X90051872Y-102950499D01*
X90111483Y-102944091D01*
X90246331Y-102893796D01*
X90361546Y-102807546D01*
X90447796Y-102692331D01*
X90498091Y-102557483D01*
X90504500Y-102497873D01*
X90504499Y-100702128D01*
X90498091Y-100642517D01*
X90492452Y-100627399D01*
X90447797Y-100507671D01*
X90447793Y-100507664D01*
X90361547Y-100392455D01*
X90361544Y-100392452D01*
X90246335Y-100306206D01*
X90246328Y-100306202D01*
X90111482Y-100255908D01*
X90111483Y-100255908D01*
X90051883Y-100249501D01*
X90051881Y-100249500D01*
X90051873Y-100249500D01*
X90051865Y-100249500D01*
X90041309Y-100249500D01*
X89974270Y-100229815D01*
X89953628Y-100213181D01*
X89283408Y-99542962D01*
X89346993Y-99525925D01*
X89461007Y-99460099D01*
X89554099Y-99367007D01*
X89619925Y-99252993D01*
X89636962Y-99189408D01*
X90269270Y-99821717D01*
X90269270Y-99821716D01*
X90308622Y-99767554D01*
X90405095Y-99578217D01*
X90470757Y-99376130D01*
X90470757Y-99376127D01*
X90504000Y-99166246D01*
X90504000Y-98953753D01*
X90470757Y-98743872D01*
X90470757Y-98743869D01*
X90405095Y-98541782D01*
X90308624Y-98352449D01*
X90269270Y-98298282D01*
X90269269Y-98298282D01*
X89636962Y-98930590D01*
X89619925Y-98867007D01*
X89554099Y-98752993D01*
X89461007Y-98659901D01*
X89346993Y-98594075D01*
X89283409Y-98577037D01*
X89915716Y-97944728D01*
X89861547Y-97905373D01*
X89861548Y-97905373D01*
X89852505Y-97900766D01*
X89801708Y-97852792D01*
X89784913Y-97784971D01*
X89807450Y-97718836D01*
X89852506Y-97679795D01*
X89861816Y-97675052D01*
X89883789Y-97659087D01*
X90033786Y-97550110D01*
X90033788Y-97550107D01*
X90033792Y-97550105D01*
X90184104Y-97399793D01*
X90184106Y-97399789D01*
X90184109Y-97399787D01*
X90309048Y-97227821D01*
X90309049Y-97227820D01*
X90309051Y-97227817D01*
X90405557Y-97038413D01*
X90471246Y-96836244D01*
X90504500Y-96626288D01*
X90504500Y-96413714D01*
X90471246Y-96203758D01*
X90405557Y-96001589D01*
X90309051Y-95812185D01*
X90309049Y-95812182D01*
X90309048Y-95812180D01*
X90184109Y-95640214D01*
X90033786Y-95489891D01*
X89861817Y-95364950D01*
X89853052Y-95360484D01*
X89802257Y-95312509D01*
X89785462Y-95244688D01*
X89808000Y-95178553D01*
X89853056Y-95139514D01*
X89861816Y-95135051D01*
X89861818Y-95135049D01*
X89861821Y-95135048D01*
X90033786Y-95010109D01*
X90033788Y-95010106D01*
X90033792Y-95010104D01*
X90184104Y-94859792D01*
X90184106Y-94859788D01*
X90184109Y-94859786D01*
X90309048Y-94687820D01*
X90309047Y-94687820D01*
X90309051Y-94687816D01*
X90405557Y-94498412D01*
X90471246Y-94296243D01*
X90504500Y-94086287D01*
X90504500Y-93873713D01*
X90471246Y-93663757D01*
X90405557Y-93461588D01*
X90309051Y-93272184D01*
X90309049Y-93272181D01*
X90309048Y-93272179D01*
X90184109Y-93100213D01*
X90033786Y-92949890D01*
X89861820Y-92824951D01*
X89672414Y-92728444D01*
X89672413Y-92728443D01*
X89672412Y-92728443D01*
X89470243Y-92662754D01*
X89470241Y-92662753D01*
X89470240Y-92662753D01*
X89308957Y-92637208D01*
X89260287Y-92629500D01*
X89047713Y-92629500D01*
X88999042Y-92637208D01*
X88837760Y-92662753D01*
X88635585Y-92728444D01*
X88446179Y-92824951D01*
X88274213Y-92949890D01*
X88123890Y-93100213D01*
X87998951Y-93272179D01*
X87902444Y-93461585D01*
X87836753Y-93663760D01*
X87803500Y-93873713D01*
X69218776Y-93873713D01*
X69218776Y-83982725D01*
X69217834Y-83981000D01*
X69215000Y-83954642D01*
X69215000Y-83402155D01*
X70400000Y-83402155D01*
X70400000Y-84050000D01*
X71316988Y-84050000D01*
X71284075Y-84107007D01*
X71250000Y-84234174D01*
X71250000Y-84365826D01*
X71284075Y-84492993D01*
X71316988Y-84550000D01*
X70400000Y-84550000D01*
X70400000Y-85197844D01*
X70406401Y-85257372D01*
X70406403Y-85257379D01*
X70456645Y-85392086D01*
X70456649Y-85392093D01*
X70542809Y-85507187D01*
X70542812Y-85507190D01*
X70657906Y-85593350D01*
X70657913Y-85593354D01*
X70792620Y-85643596D01*
X70792627Y-85643598D01*
X70852155Y-85649999D01*
X70852172Y-85650000D01*
X71500000Y-85650000D01*
X71500000Y-84733012D01*
X71557007Y-84765925D01*
X71684174Y-84800000D01*
X71815826Y-84800000D01*
X71942993Y-84765925D01*
X72000000Y-84733012D01*
X72000000Y-85650000D01*
X72647828Y-85650000D01*
X72647844Y-85649999D01*
X72707372Y-85643598D01*
X72707379Y-85643596D01*
X72842086Y-85593354D01*
X72842093Y-85593350D01*
X72957187Y-85507190D01*
X72957190Y-85507187D01*
X73043350Y-85392093D01*
X73043354Y-85392086D01*
X73092422Y-85260529D01*
X73134293Y-85204595D01*
X73199757Y-85180178D01*
X73268030Y-85195030D01*
X73296285Y-85216181D01*
X73410213Y-85330109D01*
X73582179Y-85455048D01*
X73582181Y-85455049D01*
X73582184Y-85455051D01*
X73771588Y-85551557D01*
X73973757Y-85617246D01*
X74183713Y-85650500D01*
X74183714Y-85650500D01*
X74396286Y-85650500D01*
X74396287Y-85650500D01*
X74606243Y-85617246D01*
X74808412Y-85551557D01*
X74997816Y-85455051D01*
X75084471Y-85392093D01*
X75169786Y-85330109D01*
X75169788Y-85330106D01*
X75169792Y-85330104D01*
X75320104Y-85179792D01*
X75320106Y-85179788D01*
X75320109Y-85179786D01*
X75445048Y-85007820D01*
X75445047Y-85007820D01*
X75445051Y-85007816D01*
X75541557Y-84818412D01*
X75607246Y-84616243D01*
X75640500Y-84406287D01*
X75640500Y-84193713D01*
X75607246Y-83983757D01*
X75541557Y-83781588D01*
X75445051Y-83592184D01*
X75445049Y-83592181D01*
X75445048Y-83592179D01*
X75320109Y-83420213D01*
X75169786Y-83269890D01*
X74997820Y-83144951D01*
X74808414Y-83048444D01*
X74808413Y-83048443D01*
X74808412Y-83048443D01*
X74606243Y-82982754D01*
X74606241Y-82982753D01*
X74606240Y-82982753D01*
X74444957Y-82957208D01*
X74396287Y-82949500D01*
X74183713Y-82949500D01*
X74135042Y-82957208D01*
X73973760Y-82982753D01*
X73771585Y-83048444D01*
X73582179Y-83144951D01*
X73410215Y-83269889D01*
X73296285Y-83383819D01*
X73234962Y-83417303D01*
X73165270Y-83412319D01*
X73109337Y-83370447D01*
X73092422Y-83339470D01*
X73043354Y-83207913D01*
X73043350Y-83207906D01*
X72957190Y-83092812D01*
X72957187Y-83092809D01*
X72842093Y-83006649D01*
X72842086Y-83006645D01*
X72707379Y-82956403D01*
X72707372Y-82956401D01*
X72647844Y-82950000D01*
X72000000Y-82950000D01*
X72000000Y-83866988D01*
X71942993Y-83834075D01*
X71815826Y-83800000D01*
X71684174Y-83800000D01*
X71557007Y-83834075D01*
X71500000Y-83866988D01*
X71500000Y-82950000D01*
X70852155Y-82950000D01*
X70792627Y-82956401D01*
X70792620Y-82956403D01*
X70657913Y-83006645D01*
X70657906Y-83006649D01*
X70542812Y-83092809D01*
X70542809Y-83092812D01*
X70456649Y-83207906D01*
X70456645Y-83207913D01*
X70406403Y-83342620D01*
X70406401Y-83342627D01*
X70400000Y-83402155D01*
X69215000Y-83402155D01*
X69215000Y-79632155D01*
X70400000Y-79632155D01*
X70400000Y-80280000D01*
X71316988Y-80280000D01*
X71284075Y-80337007D01*
X71250000Y-80464174D01*
X71250000Y-80595826D01*
X71284075Y-80722993D01*
X71316988Y-80780000D01*
X70400000Y-80780000D01*
X70400000Y-81427844D01*
X70406401Y-81487372D01*
X70406403Y-81487379D01*
X70456645Y-81622086D01*
X70456649Y-81622093D01*
X70542809Y-81737187D01*
X70542812Y-81737190D01*
X70657906Y-81823350D01*
X70657913Y-81823354D01*
X70792620Y-81873596D01*
X70792627Y-81873598D01*
X70852155Y-81879999D01*
X70852172Y-81880000D01*
X71500000Y-81880000D01*
X71500000Y-80963012D01*
X71557007Y-80995925D01*
X71684174Y-81030000D01*
X71815826Y-81030000D01*
X71942993Y-80995925D01*
X72000000Y-80963012D01*
X72000000Y-81880000D01*
X72647828Y-81880000D01*
X72647844Y-81879999D01*
X72707372Y-81873598D01*
X72707379Y-81873596D01*
X72842086Y-81823354D01*
X72842093Y-81823350D01*
X72957187Y-81737190D01*
X72957190Y-81737187D01*
X73043350Y-81622093D01*
X73043354Y-81622086D01*
X73092422Y-81490529D01*
X73134293Y-81434595D01*
X73199757Y-81410178D01*
X73268030Y-81425030D01*
X73296285Y-81446181D01*
X73410213Y-81560109D01*
X73582179Y-81685048D01*
X73582181Y-81685049D01*
X73582184Y-81685051D01*
X73771588Y-81781557D01*
X73973757Y-81847246D01*
X74183713Y-81880500D01*
X74183714Y-81880500D01*
X74396286Y-81880500D01*
X74396287Y-81880500D01*
X74606243Y-81847246D01*
X74808412Y-81781557D01*
X74997816Y-81685051D01*
X75084471Y-81622093D01*
X75169786Y-81560109D01*
X75169788Y-81560106D01*
X75169792Y-81560104D01*
X75320104Y-81409792D01*
X75320106Y-81409788D01*
X75320109Y-81409786D01*
X75445048Y-81237820D01*
X75445047Y-81237820D01*
X75445051Y-81237816D01*
X75541557Y-81048412D01*
X75607246Y-80846243D01*
X75640500Y-80636287D01*
X75640500Y-80423713D01*
X75607246Y-80213757D01*
X75541557Y-80011588D01*
X75445051Y-79822184D01*
X75445049Y-79822181D01*
X75445048Y-79822179D01*
X75320109Y-79650213D01*
X75169786Y-79499890D01*
X74997820Y-79374951D01*
X74808414Y-79278444D01*
X74808413Y-79278443D01*
X74808412Y-79278443D01*
X74606243Y-79212754D01*
X74606241Y-79212753D01*
X74606240Y-79212753D01*
X74444957Y-79187208D01*
X74396287Y-79179500D01*
X74183713Y-79179500D01*
X74135042Y-79187208D01*
X73973760Y-79212753D01*
X73771585Y-79278444D01*
X73582179Y-79374951D01*
X73410215Y-79499889D01*
X73296285Y-79613819D01*
X73234962Y-79647303D01*
X73165270Y-79642319D01*
X73109337Y-79600447D01*
X73092422Y-79569470D01*
X73043354Y-79437913D01*
X73043350Y-79437906D01*
X72957190Y-79322812D01*
X72957187Y-79322809D01*
X72842093Y-79236649D01*
X72842086Y-79236645D01*
X72707379Y-79186403D01*
X72707372Y-79186401D01*
X72647844Y-79180000D01*
X72000000Y-79180000D01*
X72000000Y-80096988D01*
X71942993Y-80064075D01*
X71815826Y-80030000D01*
X71684174Y-80030000D01*
X71557007Y-80064075D01*
X71500000Y-80096988D01*
X71500000Y-79180000D01*
X70852155Y-79180000D01*
X70792627Y-79186401D01*
X70792620Y-79186403D01*
X70657913Y-79236645D01*
X70657906Y-79236649D01*
X70542812Y-79322809D01*
X70542809Y-79322812D01*
X70456649Y-79437906D01*
X70456645Y-79437913D01*
X70406403Y-79572620D01*
X70406401Y-79572627D01*
X70400000Y-79632155D01*
X69215000Y-79632155D01*
X69215000Y-49654000D01*
X69234685Y-49586961D01*
X69287489Y-49541206D01*
X69339000Y-49530000D01*
X69714227Y-49530000D01*
X69781266Y-49549685D01*
G37*
%TD.AperFunction*%
%TA.AperFunction,Conductor*%
G36*
X112564075Y-104332993D02*
G01*
X112629901Y-104447007D01*
X112722993Y-104540099D01*
X112837007Y-104605925D01*
X112900590Y-104622962D01*
X112268282Y-105255269D01*
X112268282Y-105255270D01*
X112322450Y-105294624D01*
X112469554Y-105369579D01*
X112520350Y-105417554D01*
X112537145Y-105485375D01*
X112514607Y-105551510D01*
X112459892Y-105594961D01*
X112414524Y-105604058D01*
X111719226Y-105611152D01*
X111651989Y-105592152D01*
X111605698Y-105539818D01*
X111595049Y-105470764D01*
X111623424Y-105406916D01*
X111643646Y-105387895D01*
X111697546Y-105347546D01*
X111783796Y-105232331D01*
X111834091Y-105097483D01*
X111840500Y-105037873D01*
X111840499Y-105027312D01*
X111860179Y-104960275D01*
X111876818Y-104939626D01*
X112547037Y-104269408D01*
X112564075Y-104332993D01*
G37*
%TD.AperFunction*%
%TA.AperFunction,Conductor*%
G36*
X114145270Y-104901717D02*
G01*
X114145270Y-104901716D01*
X114184623Y-104847553D01*
X114189230Y-104838511D01*
X114237201Y-104787712D01*
X114305021Y-104770912D01*
X114371157Y-104793446D01*
X114410201Y-104838501D01*
X114414948Y-104847817D01*
X114539889Y-105019786D01*
X114690212Y-105170109D01*
X114862178Y-105295048D01*
X114862180Y-105295049D01*
X114862183Y-105295051D01*
X114958605Y-105344180D01*
X115009401Y-105392154D01*
X115026196Y-105459975D01*
X115003659Y-105526110D01*
X114948944Y-105569562D01*
X114903575Y-105578659D01*
X113673212Y-105591214D01*
X113605975Y-105572214D01*
X113559684Y-105519880D01*
X113549035Y-105450826D01*
X113577410Y-105386978D01*
X113615652Y-105356735D01*
X113737554Y-105294622D01*
X113791716Y-105255270D01*
X113791717Y-105255270D01*
X113159408Y-104622962D01*
X113222993Y-104605925D01*
X113337007Y-104540099D01*
X113430099Y-104447007D01*
X113495925Y-104332993D01*
X113512962Y-104269409D01*
X114145270Y-104901717D01*
G37*
%TD.AperFunction*%
%TA.AperFunction,Conductor*%
G36*
X130655269Y-94741716D02*
G01*
X130676271Y-94740064D01*
X130744648Y-94754428D01*
X130794405Y-94803479D01*
X130810000Y-94863682D01*
X130810000Y-95588763D01*
X130790315Y-95655802D01*
X130737511Y-95701557D01*
X130668353Y-95711501D01*
X130604797Y-95682476D01*
X130585682Y-95661648D01*
X130570109Y-95640214D01*
X130570105Y-95640209D01*
X130419786Y-95489890D01*
X130247817Y-95364949D01*
X130238504Y-95360204D01*
X130187707Y-95312230D01*
X130170912Y-95244409D01*
X130193449Y-95178274D01*
X130238507Y-95139232D01*
X130247555Y-95134622D01*
X130301716Y-95095270D01*
X130301717Y-95095270D01*
X129669408Y-94462962D01*
X129732993Y-94445925D01*
X129847007Y-94380099D01*
X129940099Y-94287007D01*
X130005925Y-94172993D01*
X130022962Y-94109408D01*
X130655269Y-94741716D01*
G37*
%TD.AperFunction*%
%TA.AperFunction,Conductor*%
G36*
X130772418Y-92282310D02*
G01*
X130806777Y-92343148D01*
X130810000Y-92371236D01*
X130810000Y-93096317D01*
X130790315Y-93163356D01*
X130737511Y-93209111D01*
X130676271Y-93219935D01*
X130655269Y-93218282D01*
X130022962Y-93850590D01*
X130005925Y-93787007D01*
X129940099Y-93672993D01*
X129847007Y-93579901D01*
X129732993Y-93514075D01*
X129669409Y-93497037D01*
X130301716Y-92864728D01*
X130247547Y-92825373D01*
X130247547Y-92825372D01*
X130238500Y-92820763D01*
X130187706Y-92772788D01*
X130170912Y-92704966D01*
X130193451Y-92638832D01*
X130238508Y-92599793D01*
X130247816Y-92595051D01*
X130337020Y-92530241D01*
X130419786Y-92470109D01*
X130419788Y-92470106D01*
X130419792Y-92470104D01*
X130570104Y-92319792D01*
X130585680Y-92298352D01*
X130641009Y-92255686D01*
X130710623Y-92249705D01*
X130772418Y-92282310D01*
G37*
%TD.AperFunction*%
%TA.AperFunction,Conductor*%
G36*
X102833902Y-70470185D02*
G01*
X102879657Y-70522989D01*
X102889601Y-70592147D01*
X102884794Y-70612818D01*
X102822753Y-70803759D01*
X102789500Y-71013713D01*
X102789500Y-71226287D01*
X102822754Y-71436243D01*
X102876132Y-71600524D01*
X102888444Y-71638414D01*
X102984951Y-71827820D01*
X103109890Y-71999786D01*
X103260213Y-72150109D01*
X103432182Y-72275050D01*
X103440946Y-72279516D01*
X103491742Y-72327491D01*
X103508536Y-72395312D01*
X103485998Y-72461447D01*
X103440946Y-72500484D01*
X103432182Y-72504949D01*
X103260213Y-72629890D01*
X103109890Y-72780213D01*
X102984951Y-72952179D01*
X102888444Y-73141585D01*
X102822753Y-73343760D01*
X102812062Y-73411264D01*
X102789500Y-73553713D01*
X102789500Y-73766287D01*
X102822754Y-73976243D01*
X102878428Y-74147590D01*
X102888444Y-74178414D01*
X102984951Y-74367820D01*
X103109890Y-74539786D01*
X103260213Y-74690109D01*
X103432182Y-74815050D01*
X103440946Y-74819516D01*
X103491742Y-74867491D01*
X103508536Y-74935312D01*
X103485998Y-75001447D01*
X103440946Y-75040484D01*
X103432182Y-75044949D01*
X103260213Y-75169890D01*
X103109890Y-75320213D01*
X102984951Y-75492179D01*
X102888444Y-75681585D01*
X102822753Y-75883760D01*
X102789500Y-76093713D01*
X102789500Y-76306286D01*
X102822753Y-76516239D01*
X102888444Y-76718414D01*
X102984951Y-76907820D01*
X103109890Y-77079786D01*
X103260213Y-77230109D01*
X103432182Y-77355050D01*
X103440946Y-77359516D01*
X103491742Y-77407491D01*
X103508536Y-77475312D01*
X103485998Y-77541447D01*
X103440946Y-77580484D01*
X103432182Y-77584949D01*
X103260213Y-77709890D01*
X103109890Y-77860213D01*
X102984951Y-78032179D01*
X102888444Y-78221585D01*
X102822753Y-78423760D01*
X102789500Y-78633713D01*
X102789500Y-78846287D01*
X102822754Y-79056243D01*
X102881370Y-79236645D01*
X102888444Y-79258414D01*
X102984951Y-79447820D01*
X103109890Y-79619786D01*
X103223818Y-79733714D01*
X103257303Y-79795037D01*
X103252319Y-79864729D01*
X103210447Y-79920662D01*
X103179471Y-79937577D01*
X103047912Y-79986646D01*
X103047906Y-79986649D01*
X102932812Y-80072809D01*
X102932809Y-80072812D01*
X102846649Y-80187906D01*
X102846645Y-80187913D01*
X102796403Y-80322620D01*
X102796401Y-80322627D01*
X102790000Y-80382155D01*
X102790000Y-81030000D01*
X103695440Y-81030000D01*
X103664755Y-81083147D01*
X103630000Y-81212857D01*
X103630000Y-81347143D01*
X103664755Y-81476853D01*
X103695440Y-81530000D01*
X102790000Y-81530000D01*
X102790000Y-82177844D01*
X102796401Y-82237372D01*
X102796403Y-82237379D01*
X102846645Y-82372086D01*
X102846649Y-82372093D01*
X102932809Y-82487187D01*
X102932812Y-82487190D01*
X103047906Y-82573350D01*
X103047913Y-82573354D01*
X103179470Y-82622422D01*
X103235404Y-82664293D01*
X103259821Y-82729758D01*
X103244969Y-82798031D01*
X103223819Y-82826285D01*
X103109889Y-82940215D01*
X102984951Y-83112179D01*
X102888444Y-83301585D01*
X102822753Y-83503760D01*
X102789500Y-83713713D01*
X102789500Y-83926286D01*
X102815960Y-84093352D01*
X102822754Y-84136243D01*
X102841427Y-84193713D01*
X102888444Y-84338414D01*
X102984951Y-84527820D01*
X103109890Y-84699786D01*
X103260213Y-84850109D01*
X103432182Y-84975050D01*
X103440946Y-84979516D01*
X103491742Y-85027491D01*
X103508536Y-85095312D01*
X103485998Y-85161447D01*
X103440946Y-85200484D01*
X103432182Y-85204949D01*
X103260213Y-85329890D01*
X103109890Y-85480213D01*
X102984951Y-85652179D01*
X102888444Y-85841585D01*
X102822753Y-86043760D01*
X102789500Y-86253713D01*
X102789500Y-86466286D01*
X102822753Y-86676239D01*
X102888444Y-86878414D01*
X102984951Y-87067820D01*
X103109890Y-87239786D01*
X103260213Y-87390109D01*
X103432182Y-87515050D01*
X103440946Y-87519516D01*
X103491742Y-87567491D01*
X103508536Y-87635312D01*
X103485998Y-87701447D01*
X103440946Y-87740484D01*
X103432182Y-87744949D01*
X103260213Y-87869890D01*
X103109890Y-88020213D01*
X102984951Y-88192179D01*
X102888444Y-88381585D01*
X102822753Y-88583760D01*
X102789500Y-88793713D01*
X102789500Y-89006286D01*
X102822753Y-89216239D01*
X102888444Y-89418414D01*
X102984951Y-89607820D01*
X103109890Y-89779786D01*
X103260213Y-89930109D01*
X103432182Y-90055050D01*
X103440946Y-90059516D01*
X103491742Y-90107491D01*
X103508536Y-90175312D01*
X103485998Y-90241447D01*
X103440946Y-90280484D01*
X103432182Y-90284949D01*
X103260213Y-90409890D01*
X103109890Y-90560213D01*
X102984951Y-90732179D01*
X102888444Y-90921585D01*
X102888443Y-90921587D01*
X102888443Y-90921588D01*
X102855815Y-91022007D01*
X102822753Y-91123760D01*
X102789500Y-91333713D01*
X102789500Y-91546286D01*
X102822753Y-91756240D01*
X102884794Y-91947182D01*
X102886789Y-92017023D01*
X102850709Y-92076856D01*
X102788008Y-92107684D01*
X102766863Y-92109500D01*
X97893137Y-92109500D01*
X97826098Y-92089815D01*
X97780343Y-92037011D01*
X97770399Y-91967853D01*
X97775206Y-91947182D01*
X97814104Y-91827466D01*
X97837246Y-91756243D01*
X97870500Y-91546287D01*
X97870500Y-91333713D01*
X97837246Y-91123757D01*
X97771557Y-90921588D01*
X97675051Y-90732184D01*
X97675049Y-90732181D01*
X97675048Y-90732179D01*
X97550109Y-90560213D01*
X97399786Y-90409890D01*
X97227820Y-90284951D01*
X97227115Y-90284591D01*
X97219054Y-90280485D01*
X97168259Y-90232512D01*
X97151463Y-90164692D01*
X97173999Y-90098556D01*
X97219054Y-90059515D01*
X97227816Y-90055051D01*
X97249789Y-90039086D01*
X97399786Y-89930109D01*
X97399788Y-89930106D01*
X97399792Y-89930104D01*
X97550104Y-89779792D01*
X97550106Y-89779788D01*
X97550109Y-89779786D01*
X97675048Y-89607820D01*
X97675047Y-89607820D01*
X97675051Y-89607816D01*
X97771557Y-89418412D01*
X97837246Y-89216243D01*
X97870500Y-89006287D01*
X97870500Y-88793713D01*
X97837246Y-88583757D01*
X97771557Y-88381588D01*
X97675051Y-88192184D01*
X97675049Y-88192181D01*
X97675048Y-88192179D01*
X97550109Y-88020213D01*
X97399786Y-87869890D01*
X97227820Y-87744951D01*
X97227115Y-87744591D01*
X97219054Y-87740485D01*
X97168259Y-87692512D01*
X97151463Y-87624692D01*
X97173999Y-87558556D01*
X97219054Y-87519515D01*
X97227816Y-87515051D01*
X97249789Y-87499086D01*
X97399786Y-87390109D01*
X97399788Y-87390106D01*
X97399792Y-87390104D01*
X97550104Y-87239792D01*
X97550106Y-87239788D01*
X97550109Y-87239786D01*
X97675048Y-87067820D01*
X97675047Y-87067820D01*
X97675051Y-87067816D01*
X97771557Y-86878412D01*
X97837246Y-86676243D01*
X97870500Y-86466287D01*
X97870500Y-86253713D01*
X97837246Y-86043757D01*
X97771557Y-85841588D01*
X97675051Y-85652184D01*
X97675049Y-85652181D01*
X97675048Y-85652179D01*
X97550109Y-85480213D01*
X97399786Y-85329890D01*
X97227820Y-85204951D01*
X97227115Y-85204591D01*
X97219054Y-85200485D01*
X97168259Y-85152512D01*
X97151463Y-85084692D01*
X97173999Y-85018556D01*
X97219054Y-84979515D01*
X97227816Y-84975051D01*
X97249789Y-84959086D01*
X97399786Y-84850109D01*
X97399788Y-84850106D01*
X97399792Y-84850104D01*
X97550104Y-84699792D01*
X97550106Y-84699788D01*
X97550109Y-84699786D01*
X97675048Y-84527820D01*
X97675047Y-84527820D01*
X97675051Y-84527816D01*
X97771557Y-84338412D01*
X97837246Y-84136243D01*
X97870500Y-83926287D01*
X97870500Y-83713713D01*
X97837246Y-83503757D01*
X97771557Y-83301588D01*
X97675051Y-83112184D01*
X97675049Y-83112181D01*
X97675048Y-83112179D01*
X97550109Y-82940213D01*
X97399786Y-82789890D01*
X97227817Y-82664949D01*
X97218504Y-82660204D01*
X97167707Y-82612230D01*
X97150912Y-82544409D01*
X97173449Y-82478274D01*
X97218507Y-82439232D01*
X97227555Y-82434622D01*
X97281716Y-82395270D01*
X97281717Y-82395270D01*
X96649408Y-81762962D01*
X96712993Y-81745925D01*
X96827007Y-81680099D01*
X96920099Y-81587007D01*
X96985925Y-81472993D01*
X97002962Y-81409409D01*
X97635270Y-82041717D01*
X97635270Y-82041716D01*
X97674622Y-81987554D01*
X97771095Y-81798217D01*
X97836757Y-81596130D01*
X97836757Y-81596127D01*
X97870000Y-81386246D01*
X97870000Y-81173753D01*
X97836757Y-80963872D01*
X97836757Y-80963869D01*
X97771095Y-80761782D01*
X97674624Y-80572449D01*
X97635270Y-80518282D01*
X97635269Y-80518282D01*
X97002962Y-81150590D01*
X96985925Y-81087007D01*
X96920099Y-80972993D01*
X96827007Y-80879901D01*
X96712993Y-80814075D01*
X96649409Y-80797037D01*
X97281716Y-80164728D01*
X97227547Y-80125373D01*
X97227547Y-80125372D01*
X97218500Y-80120763D01*
X97167706Y-80072788D01*
X97150912Y-80004966D01*
X97173451Y-79938832D01*
X97218508Y-79899793D01*
X97227816Y-79895051D01*
X97328110Y-79822184D01*
X97399786Y-79770109D01*
X97399788Y-79770106D01*
X97399792Y-79770104D01*
X97550104Y-79619792D01*
X97550106Y-79619788D01*
X97550109Y-79619786D01*
X97675048Y-79447820D01*
X97675047Y-79447820D01*
X97675051Y-79447816D01*
X97771557Y-79258412D01*
X97837246Y-79056243D01*
X97870500Y-78846287D01*
X97870500Y-78633713D01*
X97837246Y-78423757D01*
X97771557Y-78221588D01*
X97675051Y-78032184D01*
X97675049Y-78032181D01*
X97675048Y-78032179D01*
X97550109Y-77860213D01*
X97399786Y-77709890D01*
X97227820Y-77584951D01*
X97227115Y-77584591D01*
X97219054Y-77580485D01*
X97168259Y-77532512D01*
X97151463Y-77464692D01*
X97173999Y-77398556D01*
X97219054Y-77359515D01*
X97227816Y-77355051D01*
X97249789Y-77339086D01*
X97399786Y-77230109D01*
X97399788Y-77230106D01*
X97399792Y-77230104D01*
X97550104Y-77079792D01*
X97550106Y-77079788D01*
X97550109Y-77079786D01*
X97675048Y-76907820D01*
X97675047Y-76907820D01*
X97675051Y-76907816D01*
X97771557Y-76718412D01*
X97837246Y-76516243D01*
X97870500Y-76306287D01*
X97870500Y-76093713D01*
X97837246Y-75883757D01*
X97771557Y-75681588D01*
X97675051Y-75492184D01*
X97675049Y-75492181D01*
X97675048Y-75492179D01*
X97550109Y-75320213D01*
X97399786Y-75169890D01*
X97227820Y-75044951D01*
X97227115Y-75044591D01*
X97219054Y-75040485D01*
X97168259Y-74992512D01*
X97151463Y-74924692D01*
X97173999Y-74858556D01*
X97219054Y-74819515D01*
X97227816Y-74815051D01*
X97249789Y-74799086D01*
X97399786Y-74690109D01*
X97399788Y-74690106D01*
X97399792Y-74690104D01*
X97550104Y-74539792D01*
X97550106Y-74539788D01*
X97550109Y-74539786D01*
X97675048Y-74367820D01*
X97675047Y-74367820D01*
X97675051Y-74367816D01*
X97771557Y-74178412D01*
X97837246Y-73976243D01*
X97870500Y-73766287D01*
X97870500Y-73553713D01*
X97837246Y-73343757D01*
X97771557Y-73141588D01*
X97675051Y-72952184D01*
X97675049Y-72952181D01*
X97675048Y-72952179D01*
X97550109Y-72780213D01*
X97399786Y-72629890D01*
X97227820Y-72504951D01*
X97227115Y-72504591D01*
X97219054Y-72500485D01*
X97168259Y-72452512D01*
X97151463Y-72384692D01*
X97173999Y-72318556D01*
X97219054Y-72279515D01*
X97227816Y-72275051D01*
X97249789Y-72259086D01*
X97399786Y-72150109D01*
X97399788Y-72150106D01*
X97399792Y-72150104D01*
X97550104Y-71999792D01*
X97550108Y-71999787D01*
X97550109Y-71999786D01*
X97675048Y-71827820D01*
X97675050Y-71827817D01*
X97675051Y-71827816D01*
X97771557Y-71638412D01*
X97837246Y-71436243D01*
X97870500Y-71226287D01*
X97870500Y-71013713D01*
X97837246Y-70803757D01*
X97775206Y-70612818D01*
X97773211Y-70542977D01*
X97809291Y-70483144D01*
X97871992Y-70452316D01*
X97893137Y-70450500D01*
X102766863Y-70450500D01*
X102833902Y-70470185D01*
G37*
%TD.AperFunction*%
%TA.AperFunction,Conductor*%
G36*
X95213902Y-70470185D02*
G01*
X95259657Y-70522989D01*
X95269601Y-70592147D01*
X95264794Y-70612818D01*
X95202753Y-70803759D01*
X95169500Y-71013713D01*
X95169500Y-71226287D01*
X95202754Y-71436243D01*
X95256132Y-71600524D01*
X95268444Y-71638414D01*
X95364951Y-71827820D01*
X95489890Y-71999786D01*
X95640213Y-72150109D01*
X95812182Y-72275050D01*
X95820946Y-72279516D01*
X95871742Y-72327491D01*
X95888536Y-72395312D01*
X95865998Y-72461447D01*
X95820946Y-72500484D01*
X95812182Y-72504949D01*
X95640213Y-72629890D01*
X95489890Y-72780213D01*
X95364951Y-72952179D01*
X95268444Y-73141585D01*
X95202753Y-73343760D01*
X95192062Y-73411264D01*
X95169500Y-73553713D01*
X95169500Y-73766287D01*
X95202754Y-73976243D01*
X95258428Y-74147590D01*
X95268444Y-74178414D01*
X95364951Y-74367820D01*
X95489890Y-74539786D01*
X95640213Y-74690109D01*
X95812182Y-74815050D01*
X95820946Y-74819516D01*
X95871742Y-74867491D01*
X95888536Y-74935312D01*
X95865998Y-75001447D01*
X95820946Y-75040484D01*
X95812182Y-75044949D01*
X95640213Y-75169890D01*
X95489890Y-75320213D01*
X95364951Y-75492179D01*
X95268444Y-75681585D01*
X95202753Y-75883760D01*
X95169500Y-76093713D01*
X95169500Y-76306286D01*
X95202753Y-76516239D01*
X95268444Y-76718414D01*
X95364951Y-76907820D01*
X95489890Y-77079786D01*
X95640213Y-77230109D01*
X95812182Y-77355050D01*
X95820946Y-77359516D01*
X95871742Y-77407491D01*
X95888536Y-77475312D01*
X95865998Y-77541447D01*
X95820946Y-77580484D01*
X95812182Y-77584949D01*
X95640213Y-77709890D01*
X95489890Y-77860213D01*
X95364951Y-78032179D01*
X95268444Y-78221585D01*
X95202753Y-78423760D01*
X95169500Y-78633713D01*
X95169500Y-78846287D01*
X95202754Y-79056243D01*
X95261370Y-79236645D01*
X95268444Y-79258414D01*
X95364951Y-79447820D01*
X95489890Y-79619786D01*
X95640213Y-79770109D01*
X95812179Y-79895048D01*
X95812181Y-79895049D01*
X95812184Y-79895051D01*
X95821493Y-79899794D01*
X95872290Y-79947766D01*
X95889087Y-80015587D01*
X95866552Y-80081722D01*
X95821505Y-80120760D01*
X95812446Y-80125376D01*
X95812440Y-80125380D01*
X95758282Y-80164727D01*
X95758282Y-80164728D01*
X96390591Y-80797037D01*
X96327007Y-80814075D01*
X96212993Y-80879901D01*
X96119901Y-80972993D01*
X96054075Y-81087007D01*
X96037037Y-81150591D01*
X95404728Y-80518282D01*
X95404727Y-80518282D01*
X95365380Y-80572439D01*
X95268904Y-80761782D01*
X95203242Y-80963869D01*
X95203242Y-80963872D01*
X95170000Y-81173753D01*
X95170000Y-81386246D01*
X95203242Y-81596127D01*
X95203242Y-81596130D01*
X95268904Y-81798217D01*
X95365375Y-81987550D01*
X95404728Y-82041716D01*
X96037037Y-81409408D01*
X96054075Y-81472993D01*
X96119901Y-81587007D01*
X96212993Y-81680099D01*
X96327007Y-81745925D01*
X96390590Y-81762962D01*
X95758282Y-82395269D01*
X95758282Y-82395270D01*
X95812452Y-82434626D01*
X95812451Y-82434626D01*
X95821495Y-82439234D01*
X95872292Y-82487208D01*
X95889087Y-82555029D01*
X95866550Y-82621164D01*
X95821499Y-82660202D01*
X95812182Y-82664949D01*
X95640213Y-82789890D01*
X95489890Y-82940213D01*
X95364951Y-83112179D01*
X95268444Y-83301585D01*
X95202753Y-83503760D01*
X95169500Y-83713713D01*
X95169500Y-83926286D01*
X95195960Y-84093352D01*
X95202754Y-84136243D01*
X95221427Y-84193713D01*
X95268444Y-84338414D01*
X95364951Y-84527820D01*
X95489890Y-84699786D01*
X95640213Y-84850109D01*
X95812182Y-84975050D01*
X95820946Y-84979516D01*
X95871742Y-85027491D01*
X95888536Y-85095312D01*
X95865998Y-85161447D01*
X95820946Y-85200484D01*
X95812182Y-85204949D01*
X95640213Y-85329890D01*
X95489890Y-85480213D01*
X95364951Y-85652179D01*
X95268444Y-85841585D01*
X95202753Y-86043760D01*
X95169500Y-86253713D01*
X95169500Y-86466286D01*
X95202753Y-86676239D01*
X95268444Y-86878414D01*
X95364951Y-87067820D01*
X95489890Y-87239786D01*
X95640213Y-87390109D01*
X95812182Y-87515050D01*
X95820946Y-87519516D01*
X95871742Y-87567491D01*
X95888536Y-87635312D01*
X95865998Y-87701447D01*
X95820946Y-87740484D01*
X95812182Y-87744949D01*
X95640213Y-87869890D01*
X95489890Y-88020213D01*
X95364951Y-88192179D01*
X95268444Y-88381585D01*
X95202753Y-88583760D01*
X95169500Y-88793713D01*
X95169500Y-89006286D01*
X95202753Y-89216239D01*
X95268444Y-89418414D01*
X95364951Y-89607820D01*
X95489890Y-89779786D01*
X95640213Y-89930109D01*
X95812182Y-90055050D01*
X95820946Y-90059516D01*
X95871742Y-90107491D01*
X95888536Y-90175312D01*
X95865998Y-90241447D01*
X95820946Y-90280484D01*
X95812182Y-90284949D01*
X95640213Y-90409890D01*
X95489890Y-90560213D01*
X95364951Y-90732179D01*
X95268444Y-90921583D01*
X95259256Y-90949862D01*
X95251853Y-90972646D01*
X95212416Y-91030320D01*
X95148057Y-91057518D01*
X95079211Y-91045603D01*
X95046242Y-91022007D01*
X88117590Y-84093355D01*
X88117588Y-84093352D01*
X87998717Y-83974481D01*
X87998716Y-83974480D01*
X87901826Y-83918541D01*
X87861785Y-83895423D01*
X87709057Y-83854499D01*
X87550943Y-83854499D01*
X87543347Y-83854499D01*
X87543331Y-83854500D01*
X82850098Y-83854500D01*
X82783059Y-83834815D01*
X82762417Y-83818181D01*
X73026819Y-74082583D01*
X72993334Y-74021260D01*
X72990500Y-73994902D01*
X72990500Y-72493136D01*
X73010185Y-72426097D01*
X73062989Y-72380342D01*
X73132147Y-72370398D01*
X73152806Y-72375202D01*
X73343757Y-72437246D01*
X73553713Y-72470500D01*
X73553714Y-72470500D01*
X73766286Y-72470500D01*
X73766287Y-72470500D01*
X73976243Y-72437246D01*
X74178412Y-72371557D01*
X74367816Y-72275051D01*
X74389789Y-72259086D01*
X74539786Y-72150109D01*
X74539788Y-72150106D01*
X74539792Y-72150104D01*
X74690104Y-71999792D01*
X74690108Y-71999787D01*
X74690109Y-71999786D01*
X74815048Y-71827820D01*
X74815050Y-71827817D01*
X74815051Y-71827816D01*
X74819514Y-71819054D01*
X74867488Y-71768259D01*
X74935308Y-71751463D01*
X75001444Y-71773999D01*
X75040484Y-71819054D01*
X75044591Y-71827115D01*
X75044951Y-71827820D01*
X75169890Y-71999786D01*
X75320213Y-72150109D01*
X75492179Y-72275048D01*
X75492181Y-72275049D01*
X75492184Y-72275051D01*
X75681588Y-72371557D01*
X75883757Y-72437246D01*
X76093713Y-72470500D01*
X76093714Y-72470500D01*
X76306286Y-72470500D01*
X76306287Y-72470500D01*
X76516243Y-72437246D01*
X76718412Y-72371557D01*
X76907816Y-72275051D01*
X76929789Y-72259086D01*
X77079786Y-72150109D01*
X77079788Y-72150106D01*
X77079792Y-72150104D01*
X77230104Y-71999792D01*
X77230108Y-71999787D01*
X77230109Y-71999786D01*
X77355048Y-71827820D01*
X77355050Y-71827817D01*
X77355051Y-71827816D01*
X77359512Y-71819058D01*
X77407483Y-71768262D01*
X77475303Y-71751464D01*
X77541440Y-71773998D01*
X77580481Y-71819051D01*
X77584946Y-71827813D01*
X77584948Y-71827816D01*
X77709890Y-71999787D01*
X77860213Y-72150110D01*
X78032179Y-72275049D01*
X78032181Y-72275050D01*
X78032184Y-72275052D01*
X78221588Y-72371558D01*
X78423757Y-72437247D01*
X78633713Y-72470501D01*
X78633714Y-72470501D01*
X78846286Y-72470501D01*
X78846287Y-72470501D01*
X79056243Y-72437247D01*
X79258412Y-72371558D01*
X79447816Y-72275052D01*
X79469789Y-72259087D01*
X79619786Y-72150110D01*
X79619788Y-72150107D01*
X79619792Y-72150105D01*
X79770104Y-71999793D01*
X79770106Y-71999789D01*
X79770109Y-71999787D01*
X79895048Y-71827822D01*
X79895051Y-71827817D01*
X79899513Y-71819057D01*
X79947484Y-71768261D01*
X80015304Y-71751463D01*
X80081440Y-71773997D01*
X80120484Y-71819053D01*
X80124949Y-71827816D01*
X80249890Y-71999785D01*
X80400213Y-72150108D01*
X80572179Y-72275047D01*
X80572181Y-72275048D01*
X80572184Y-72275050D01*
X80761588Y-72371556D01*
X80963757Y-72437245D01*
X81173713Y-72470499D01*
X81173714Y-72470499D01*
X81386286Y-72470499D01*
X81386287Y-72470499D01*
X81596243Y-72437245D01*
X81798412Y-72371556D01*
X81987816Y-72275050D01*
X82009789Y-72259085D01*
X82159786Y-72150108D01*
X82159788Y-72150105D01*
X82159792Y-72150103D01*
X82310104Y-71999791D01*
X82310108Y-71999786D01*
X82310109Y-71999785D01*
X82435048Y-71827819D01*
X82435047Y-71827819D01*
X82435051Y-71827815D01*
X82439512Y-71819057D01*
X82487483Y-71768261D01*
X82555303Y-71751463D01*
X82621440Y-71773997D01*
X82660481Y-71819050D01*
X82664946Y-71827812D01*
X82664948Y-71827815D01*
X82789890Y-71999786D01*
X82940213Y-72150109D01*
X83112179Y-72275048D01*
X83112181Y-72275049D01*
X83112184Y-72275051D01*
X83301588Y-72371557D01*
X83503757Y-72437246D01*
X83713713Y-72470500D01*
X83713714Y-72470500D01*
X83926286Y-72470500D01*
X83926287Y-72470500D01*
X84136243Y-72437246D01*
X84338412Y-72371557D01*
X84527816Y-72275051D01*
X84549789Y-72259086D01*
X84699786Y-72150109D01*
X84699788Y-72150106D01*
X84699792Y-72150104D01*
X84850104Y-71999792D01*
X84850108Y-71999787D01*
X84850109Y-71999786D01*
X84975048Y-71827820D01*
X84975050Y-71827817D01*
X84975051Y-71827816D01*
X84979514Y-71819054D01*
X85027488Y-71768259D01*
X85095308Y-71751463D01*
X85161444Y-71773999D01*
X85200484Y-71819054D01*
X85204591Y-71827115D01*
X85204951Y-71827820D01*
X85329890Y-71999786D01*
X85480213Y-72150109D01*
X85652179Y-72275048D01*
X85652181Y-72275049D01*
X85652184Y-72275051D01*
X85841588Y-72371557D01*
X86043757Y-72437246D01*
X86253713Y-72470500D01*
X86253714Y-72470500D01*
X86466286Y-72470500D01*
X86466287Y-72470500D01*
X86676243Y-72437246D01*
X86878412Y-72371557D01*
X87067816Y-72275051D01*
X87089789Y-72259086D01*
X87239786Y-72150109D01*
X87239788Y-72150106D01*
X87239792Y-72150104D01*
X87390104Y-71999792D01*
X87390108Y-71999787D01*
X87390109Y-71999786D01*
X87515048Y-71827820D01*
X87515050Y-71827817D01*
X87515051Y-71827816D01*
X87611557Y-71638412D01*
X87677246Y-71436243D01*
X87710500Y-71226287D01*
X87710500Y-71013713D01*
X87677246Y-70803757D01*
X87615206Y-70612818D01*
X87613211Y-70542977D01*
X87649291Y-70483144D01*
X87711992Y-70452316D01*
X87733137Y-70450500D01*
X95146863Y-70450500D01*
X95213902Y-70470185D01*
G37*
%TD.AperFunction*%
%TA.AperFunction,Conductor*%
G36*
X130655269Y-82041716D02*
G01*
X130676271Y-82040064D01*
X130744648Y-82054428D01*
X130794405Y-82103479D01*
X130810000Y-82163682D01*
X130810000Y-82888763D01*
X130790315Y-82955802D01*
X130737511Y-83001557D01*
X130668353Y-83011501D01*
X130604797Y-82982476D01*
X130585682Y-82961648D01*
X130570109Y-82940214D01*
X130570105Y-82940209D01*
X130419786Y-82789890D01*
X130247817Y-82664949D01*
X130238504Y-82660204D01*
X130187707Y-82612230D01*
X130170912Y-82544409D01*
X130193449Y-82478274D01*
X130238507Y-82439232D01*
X130247555Y-82434622D01*
X130301716Y-82395270D01*
X130301717Y-82395270D01*
X129669408Y-81762962D01*
X129732993Y-81745925D01*
X129847007Y-81680099D01*
X129940099Y-81587007D01*
X130005925Y-81472993D01*
X130022962Y-81409408D01*
X130655269Y-82041716D01*
G37*
%TD.AperFunction*%
%TA.AperFunction,Conductor*%
G36*
X130772418Y-79582310D02*
G01*
X130806777Y-79643148D01*
X130810000Y-79671236D01*
X130810000Y-80396317D01*
X130790315Y-80463356D01*
X130737511Y-80509111D01*
X130676271Y-80519935D01*
X130655269Y-80518282D01*
X130022962Y-81150590D01*
X130005925Y-81087007D01*
X129940099Y-80972993D01*
X129847007Y-80879901D01*
X129732993Y-80814075D01*
X129669409Y-80797037D01*
X130301716Y-80164728D01*
X130247547Y-80125373D01*
X130247547Y-80125372D01*
X130238500Y-80120763D01*
X130187706Y-80072788D01*
X130170912Y-80004966D01*
X130193451Y-79938832D01*
X130238508Y-79899793D01*
X130247816Y-79895051D01*
X130348110Y-79822184D01*
X130419786Y-79770109D01*
X130419788Y-79770106D01*
X130419792Y-79770104D01*
X130570104Y-79619792D01*
X130585680Y-79598352D01*
X130641009Y-79555686D01*
X130710623Y-79549705D01*
X130772418Y-79582310D01*
G37*
%TD.AperFunction*%
%TA.AperFunction,Conductor*%
G36*
X108351942Y-67930185D02*
G01*
X108372583Y-67946818D01*
X112026284Y-71600520D01*
X112026286Y-71600521D01*
X112026290Y-71600524D01*
X112163209Y-71679573D01*
X112163216Y-71679577D01*
X112315943Y-71720501D01*
X112315945Y-71720501D01*
X112481654Y-71720501D01*
X112481670Y-71720500D01*
X120634281Y-71720500D01*
X120701320Y-71740185D01*
X120744765Y-71788205D01*
X120764947Y-71827814D01*
X120764948Y-71827815D01*
X120889890Y-71999786D01*
X121040213Y-72150109D01*
X121212182Y-72275050D01*
X121220946Y-72279516D01*
X121271742Y-72327491D01*
X121288536Y-72395312D01*
X121265998Y-72461447D01*
X121220946Y-72500484D01*
X121212182Y-72504949D01*
X121040213Y-72629890D01*
X120889890Y-72780213D01*
X120764948Y-72952184D01*
X120764947Y-72952185D01*
X120744765Y-72991795D01*
X120696791Y-73042591D01*
X120634281Y-73059500D01*
X111425098Y-73059500D01*
X111358059Y-73039815D01*
X111337417Y-73023181D01*
X107802590Y-69488355D01*
X107802588Y-69488352D01*
X107683717Y-69369481D01*
X107683716Y-69369480D01*
X107596904Y-69319360D01*
X107596904Y-69319359D01*
X107596900Y-69319358D01*
X107546785Y-69290423D01*
X107394057Y-69249499D01*
X107235943Y-69249499D01*
X107228347Y-69249499D01*
X107228331Y-69249500D01*
X105614000Y-69249500D01*
X105546961Y-69229815D01*
X105501206Y-69177011D01*
X105490000Y-69125500D01*
X105490000Y-68830000D01*
X104584560Y-68830000D01*
X104615245Y-68776853D01*
X104650000Y-68647143D01*
X104650000Y-68512857D01*
X104615245Y-68383147D01*
X104584560Y-68330000D01*
X105490000Y-68330000D01*
X105490000Y-68034500D01*
X105509685Y-67967461D01*
X105562489Y-67921706D01*
X105614000Y-67910500D01*
X108284903Y-67910500D01*
X108351942Y-67930185D01*
G37*
%TD.AperFunction*%
%TA.AperFunction,Conductor*%
G36*
X102733039Y-67930185D02*
G01*
X102778794Y-67982989D01*
X102790000Y-68034500D01*
X102790000Y-68330000D01*
X103695440Y-68330000D01*
X103664755Y-68383147D01*
X103630000Y-68512857D01*
X103630000Y-68647143D01*
X103664755Y-68776853D01*
X103695440Y-68830000D01*
X102790000Y-68830000D01*
X102790000Y-69125500D01*
X102770315Y-69192539D01*
X102717511Y-69238294D01*
X102666000Y-69249500D01*
X97892612Y-69249500D01*
X97825573Y-69229815D01*
X97779818Y-69177011D01*
X97769874Y-69107853D01*
X97774681Y-69087182D01*
X97836757Y-68896130D01*
X97836757Y-68896127D01*
X97870000Y-68686246D01*
X97870000Y-68473753D01*
X97836757Y-68263872D01*
X97836757Y-68263869D01*
X97774681Y-68072818D01*
X97772686Y-68002977D01*
X97808766Y-67943144D01*
X97871467Y-67912316D01*
X97892612Y-67910500D01*
X102666000Y-67910500D01*
X102733039Y-67930185D01*
G37*
%TD.AperFunction*%
%TA.AperFunction,Conductor*%
G36*
X120756589Y-51510685D02*
G01*
X120789869Y-51542115D01*
X120889896Y-51679792D01*
X121040213Y-51830109D01*
X121212182Y-51955050D01*
X121220946Y-51959516D01*
X121271742Y-52007491D01*
X121288536Y-52075312D01*
X121265998Y-52141447D01*
X121220946Y-52180484D01*
X121212182Y-52184949D01*
X121040213Y-52309890D01*
X120889890Y-52460213D01*
X120764951Y-52632179D01*
X120668444Y-52821585D01*
X120602753Y-53023760D01*
X120583844Y-53143147D01*
X120569500Y-53233713D01*
X120569500Y-53446287D01*
X120574836Y-53479975D01*
X120602753Y-53656239D01*
X120602753Y-53656241D01*
X120602754Y-53656243D01*
X120642105Y-53777353D01*
X120668444Y-53858414D01*
X120764951Y-54047820D01*
X120889890Y-54219786D01*
X121003818Y-54333714D01*
X121037303Y-54395037D01*
X121032319Y-54464729D01*
X120990447Y-54520662D01*
X120959471Y-54537577D01*
X120827912Y-54586646D01*
X120827906Y-54586649D01*
X120712812Y-54672809D01*
X120712809Y-54672812D01*
X120626649Y-54787906D01*
X120626645Y-54787913D01*
X120576403Y-54922620D01*
X120576401Y-54922627D01*
X120570000Y-54982155D01*
X120570000Y-55630000D01*
X121475440Y-55630000D01*
X121444755Y-55683147D01*
X121410000Y-55812857D01*
X121410000Y-55947143D01*
X121444755Y-56076853D01*
X121475440Y-56130000D01*
X120570000Y-56130000D01*
X120570000Y-56777844D01*
X120576401Y-56837372D01*
X120576403Y-56837379D01*
X120626645Y-56972086D01*
X120626649Y-56972093D01*
X120712809Y-57087187D01*
X120712812Y-57087190D01*
X120827906Y-57173350D01*
X120827913Y-57173354D01*
X120959470Y-57222422D01*
X121015404Y-57264293D01*
X121039821Y-57329758D01*
X121024969Y-57398031D01*
X121003819Y-57426285D01*
X120889889Y-57540215D01*
X120764951Y-57712179D01*
X120668444Y-57901585D01*
X120602753Y-58103760D01*
X120569500Y-58313713D01*
X120569500Y-58526286D01*
X120595896Y-58692947D01*
X120602754Y-58736243D01*
X120612392Y-58765907D01*
X120668444Y-58938414D01*
X120764951Y-59127820D01*
X120889890Y-59299786D01*
X121040213Y-59450109D01*
X121212182Y-59575050D01*
X121220946Y-59579516D01*
X121271742Y-59627491D01*
X121288536Y-59695312D01*
X121265998Y-59761447D01*
X121220946Y-59800484D01*
X121212182Y-59804949D01*
X121040213Y-59929890D01*
X120889890Y-60080213D01*
X120764951Y-60252179D01*
X120668444Y-60441585D01*
X120602753Y-60643760D01*
X120569500Y-60853713D01*
X120569500Y-61066286D01*
X120602753Y-61276239D01*
X120602753Y-61276241D01*
X120602754Y-61276243D01*
X120662546Y-61460264D01*
X120668444Y-61478414D01*
X120764951Y-61667820D01*
X120889890Y-61839786D01*
X121040213Y-61990109D01*
X121212182Y-62115050D01*
X121220946Y-62119516D01*
X121271742Y-62167491D01*
X121288536Y-62235312D01*
X121265998Y-62301447D01*
X121220946Y-62340484D01*
X121212182Y-62344949D01*
X121040213Y-62469890D01*
X120889890Y-62620213D01*
X120764951Y-62792179D01*
X120668444Y-62981585D01*
X120602753Y-63183760D01*
X120569500Y-63393713D01*
X120569500Y-63606286D01*
X120602753Y-63816239D01*
X120668444Y-64018414D01*
X120764951Y-64207820D01*
X120889890Y-64379786D01*
X121040213Y-64530109D01*
X121212182Y-64655050D01*
X121220946Y-64659516D01*
X121271742Y-64707491D01*
X121288536Y-64775312D01*
X121265998Y-64841447D01*
X121220946Y-64880484D01*
X121212182Y-64884949D01*
X121040213Y-65009890D01*
X120889890Y-65160213D01*
X120764948Y-65332184D01*
X120764947Y-65332185D01*
X120744765Y-65371795D01*
X120696791Y-65422591D01*
X120634281Y-65439500D01*
X110155097Y-65439500D01*
X110088058Y-65419815D01*
X110067416Y-65403181D01*
X109072590Y-64408355D01*
X109072588Y-64408352D01*
X108953717Y-64289481D01*
X108953716Y-64289480D01*
X108866904Y-64239360D01*
X108866904Y-64239359D01*
X108866900Y-64239358D01*
X108816785Y-64210423D01*
X108664057Y-64169499D01*
X108505943Y-64169499D01*
X108498347Y-64169499D01*
X108498331Y-64169500D01*
X105513137Y-64169500D01*
X105446098Y-64149815D01*
X105400343Y-64097011D01*
X105390399Y-64027853D01*
X105395206Y-64007182D01*
X105429679Y-63901085D01*
X105457246Y-63816243D01*
X105490500Y-63606287D01*
X105490500Y-63393713D01*
X105457246Y-63183757D01*
X105395206Y-62992818D01*
X105393211Y-62922977D01*
X105429291Y-62863144D01*
X105491992Y-62832316D01*
X105513137Y-62830500D01*
X118800234Y-62830500D01*
X118867273Y-62850185D01*
X118869125Y-62851398D01*
X119000814Y-62939390D01*
X119000827Y-62939397D01*
X119129799Y-62992818D01*
X119146503Y-62999737D01*
X119301153Y-63030499D01*
X119301156Y-63030500D01*
X119301158Y-63030500D01*
X119458844Y-63030500D01*
X119458845Y-63030499D01*
X119613497Y-62999737D01*
X119759179Y-62939394D01*
X119890289Y-62851789D01*
X120001789Y-62740289D01*
X120089394Y-62609179D01*
X120149737Y-62463497D01*
X120180500Y-62308842D01*
X120180500Y-62151158D01*
X120180500Y-62151155D01*
X120180499Y-62151153D01*
X120174206Y-62119516D01*
X120149737Y-61996503D01*
X120147089Y-61990109D01*
X120089397Y-61850827D01*
X120089390Y-61850814D01*
X120001789Y-61719711D01*
X120001786Y-61719707D01*
X119890292Y-61608213D01*
X119890288Y-61608210D01*
X119759185Y-61520609D01*
X119759172Y-61520602D01*
X119613501Y-61460264D01*
X119613489Y-61460261D01*
X119458845Y-61429500D01*
X119458842Y-61429500D01*
X119301158Y-61429500D01*
X119301155Y-61429500D01*
X119146510Y-61460261D01*
X119146498Y-61460264D01*
X119000827Y-61520602D01*
X119000814Y-61520609D01*
X118869125Y-61608602D01*
X118802447Y-61629480D01*
X118800234Y-61629500D01*
X105513137Y-61629500D01*
X105446098Y-61609815D01*
X105400343Y-61557011D01*
X105390399Y-61487853D01*
X105395206Y-61467182D01*
X105402733Y-61444015D01*
X105457246Y-61276243D01*
X105490500Y-61066287D01*
X105490500Y-60853713D01*
X105457246Y-60643757D01*
X105391557Y-60441588D01*
X105295051Y-60252184D01*
X105295049Y-60252181D01*
X105295048Y-60252179D01*
X105170109Y-60080213D01*
X105019786Y-59929890D01*
X104847820Y-59804951D01*
X104847115Y-59804591D01*
X104839054Y-59800485D01*
X104788259Y-59752512D01*
X104771463Y-59684692D01*
X104793999Y-59618556D01*
X104839054Y-59579515D01*
X104847816Y-59575051D01*
X104869789Y-59559086D01*
X105019786Y-59450109D01*
X105019788Y-59450106D01*
X105019792Y-59450104D01*
X105170104Y-59299792D01*
X105170106Y-59299788D01*
X105170109Y-59299786D01*
X105295048Y-59127820D01*
X105295047Y-59127820D01*
X105295051Y-59127816D01*
X105391557Y-58938412D01*
X105447608Y-58765902D01*
X105487043Y-58708232D01*
X105551401Y-58681033D01*
X105620248Y-58692947D01*
X105671724Y-58740191D01*
X105680097Y-58756771D01*
X105701095Y-58807463D01*
X105790619Y-58941447D01*
X105904552Y-59055380D01*
X106038533Y-59144903D01*
X106112965Y-59175733D01*
X106187398Y-59206565D01*
X106303732Y-59229705D01*
X106345429Y-59237999D01*
X106345433Y-59238000D01*
X106345434Y-59238000D01*
X110189567Y-59238000D01*
X110189568Y-59237999D01*
X110347602Y-59206565D01*
X110496468Y-59144902D01*
X110630445Y-59055382D01*
X110744382Y-58941445D01*
X110833902Y-58807468D01*
X110895565Y-58658602D01*
X110927000Y-58500566D01*
X110927000Y-58339434D01*
X110895565Y-58181398D01*
X110851117Y-58074092D01*
X110833903Y-58032533D01*
X110744380Y-57898552D01*
X110630447Y-57784619D01*
X110496466Y-57695096D01*
X110347602Y-57633435D01*
X110347594Y-57633433D01*
X110189570Y-57602000D01*
X110189566Y-57602000D01*
X106345434Y-57602000D01*
X106345429Y-57602000D01*
X106187405Y-57633433D01*
X106187397Y-57633435D01*
X106038533Y-57695096D01*
X105904552Y-57784619D01*
X105790619Y-57898552D01*
X105701096Y-58032535D01*
X105680097Y-58083229D01*
X105636255Y-58137632D01*
X105569961Y-58159695D01*
X105502261Y-58142415D01*
X105454652Y-58091276D01*
X105447611Y-58074106D01*
X105391557Y-57901588D01*
X105295051Y-57712184D01*
X105295049Y-57712181D01*
X105295048Y-57712179D01*
X105170109Y-57540213D01*
X105056181Y-57426285D01*
X105022696Y-57364962D01*
X105027680Y-57295270D01*
X105069552Y-57239337D01*
X105100529Y-57222422D01*
X105232086Y-57173354D01*
X105232093Y-57173350D01*
X105347187Y-57087190D01*
X105347190Y-57087187D01*
X105433350Y-56972093D01*
X105433354Y-56972086D01*
X105483596Y-56837379D01*
X105483598Y-56837372D01*
X105489999Y-56777844D01*
X105490000Y-56777827D01*
X105490000Y-56130000D01*
X104584560Y-56130000D01*
X104615245Y-56076853D01*
X104650000Y-55947143D01*
X104650000Y-55812857D01*
X104615245Y-55683147D01*
X104584560Y-55630000D01*
X105490000Y-55630000D01*
X105490000Y-55425000D01*
X105509685Y-55357961D01*
X105562489Y-55312206D01*
X105614000Y-55301000D01*
X107383060Y-55301000D01*
X107472870Y-55283134D01*
X107516557Y-55274445D01*
X107579434Y-55248400D01*
X107642307Y-55222358D01*
X107642308Y-55222357D01*
X107642311Y-55222356D01*
X107706137Y-55179709D01*
X107755487Y-55146735D01*
X109143713Y-53758507D01*
X109205033Y-53725024D01*
X109274724Y-53730008D01*
X109330658Y-53771879D01*
X109355075Y-53837344D01*
X109354255Y-53856669D01*
X109354882Y-53856719D01*
X109354500Y-53861576D01*
X109354500Y-54058422D01*
X109385290Y-54252826D01*
X109446117Y-54440029D01*
X109520824Y-54586649D01*
X109535476Y-54615405D01*
X109651172Y-54774646D01*
X109790354Y-54913828D01*
X109949595Y-55029524D01*
X110032455Y-55071743D01*
X110124970Y-55118882D01*
X110124972Y-55118882D01*
X110124975Y-55118884D01*
X110210676Y-55146730D01*
X110312173Y-55179709D01*
X110506578Y-55210500D01*
X110506583Y-55210500D01*
X110703422Y-55210500D01*
X110897826Y-55179709D01*
X111085025Y-55118884D01*
X111086207Y-55118282D01*
X111104206Y-55109111D01*
X111260405Y-55029524D01*
X111419646Y-54913828D01*
X111558828Y-54774646D01*
X111674524Y-54615405D01*
X111763884Y-54440025D01*
X111824709Y-54252826D01*
X111835878Y-54182310D01*
X111855500Y-54058422D01*
X111855500Y-53861577D01*
X111824709Y-53667173D01*
X111799633Y-53590000D01*
X111789338Y-53558316D01*
X111787343Y-53488478D01*
X111823423Y-53428645D01*
X111886124Y-53397816D01*
X111907270Y-53396000D01*
X114152730Y-53396000D01*
X114219769Y-53415685D01*
X114265524Y-53468489D01*
X114275468Y-53537647D01*
X114270662Y-53558311D01*
X114260367Y-53590000D01*
X114235290Y-53667173D01*
X114204500Y-53861577D01*
X114204500Y-54058422D01*
X114235290Y-54252826D01*
X114296117Y-54440029D01*
X114370824Y-54586649D01*
X114385476Y-54615405D01*
X114501172Y-54774646D01*
X114640354Y-54913828D01*
X114799595Y-55029524D01*
X114882455Y-55071743D01*
X114974970Y-55118882D01*
X114974972Y-55118882D01*
X114974975Y-55118884D01*
X115060676Y-55146730D01*
X115162173Y-55179709D01*
X115356578Y-55210500D01*
X115356583Y-55210500D01*
X115553422Y-55210500D01*
X115747826Y-55179709D01*
X115935025Y-55118884D01*
X115936207Y-55118282D01*
X115954206Y-55109111D01*
X116110405Y-55029524D01*
X116269646Y-54913828D01*
X116408828Y-54774646D01*
X116524524Y-54615405D01*
X116613884Y-54440025D01*
X116674709Y-54252826D01*
X116685878Y-54182310D01*
X116705500Y-54058422D01*
X116705500Y-53861577D01*
X116674709Y-53667173D01*
X116649633Y-53590000D01*
X116639338Y-53558316D01*
X116637343Y-53488478D01*
X116673423Y-53428645D01*
X116736124Y-53397816D01*
X116757270Y-53396000D01*
X117543060Y-53396000D01*
X117632870Y-53378134D01*
X117676557Y-53369445D01*
X117802311Y-53317356D01*
X117821409Y-53304595D01*
X117915487Y-53241735D01*
X119629902Y-51527318D01*
X119691225Y-51493834D01*
X119717583Y-51491000D01*
X120689550Y-51491000D01*
X120756589Y-51510685D01*
G37*
%TD.AperFunction*%
%TA.AperFunction,Conductor*%
G36*
X87890469Y-53058248D02*
G01*
X87912607Y-53075829D01*
X89983509Y-55146732D01*
X89983513Y-55146735D01*
X90096681Y-55222352D01*
X90096685Y-55222354D01*
X90096688Y-55222356D01*
X90222442Y-55274445D01*
X90241439Y-55278223D01*
X90297905Y-55289455D01*
X90355941Y-55301000D01*
X95117983Y-55301000D01*
X95185022Y-55320685D01*
X95230777Y-55373489D01*
X95240721Y-55442647D01*
X95235914Y-55463318D01*
X95203242Y-55563869D01*
X95203242Y-55563872D01*
X95170000Y-55773753D01*
X95170000Y-55986246D01*
X95203242Y-56196127D01*
X95203242Y-56196130D01*
X95268904Y-56398217D01*
X95365375Y-56587550D01*
X95404728Y-56641716D01*
X96037036Y-56009407D01*
X96054075Y-56072993D01*
X96119901Y-56187007D01*
X96212993Y-56280099D01*
X96327007Y-56345925D01*
X96390590Y-56362962D01*
X95758282Y-56995269D01*
X95758282Y-56995270D01*
X95812452Y-57034626D01*
X95812451Y-57034626D01*
X95821495Y-57039234D01*
X95872292Y-57087208D01*
X95889087Y-57155029D01*
X95866550Y-57221164D01*
X95821499Y-57260202D01*
X95812182Y-57264949D01*
X95640213Y-57389890D01*
X95489890Y-57540213D01*
X95364951Y-57712179D01*
X95268444Y-57901585D01*
X95202753Y-58103760D01*
X95169500Y-58313713D01*
X95169500Y-58526286D01*
X95195896Y-58692947D01*
X95202754Y-58736243D01*
X95212392Y-58765907D01*
X95268444Y-58938414D01*
X95364951Y-59127820D01*
X95489890Y-59299786D01*
X95640213Y-59450109D01*
X95812182Y-59575050D01*
X95820946Y-59579516D01*
X95871742Y-59627491D01*
X95888536Y-59695312D01*
X95865998Y-59761447D01*
X95820946Y-59800484D01*
X95812182Y-59804949D01*
X95640213Y-59929890D01*
X95489890Y-60080213D01*
X95364951Y-60252179D01*
X95268444Y-60441585D01*
X95202753Y-60643760D01*
X95169500Y-60853713D01*
X95169500Y-61066286D01*
X95202753Y-61276240D01*
X95264794Y-61467182D01*
X95266789Y-61537023D01*
X95230709Y-61596856D01*
X95168008Y-61627684D01*
X95146863Y-61629500D01*
X87733137Y-61629500D01*
X87666098Y-61609815D01*
X87620343Y-61557011D01*
X87610399Y-61487853D01*
X87615206Y-61467182D01*
X87622733Y-61444015D01*
X87677246Y-61276243D01*
X87710500Y-61066287D01*
X87710500Y-60853713D01*
X87677246Y-60643757D01*
X87611557Y-60441588D01*
X87515051Y-60252184D01*
X87515049Y-60252181D01*
X87515048Y-60252179D01*
X87390109Y-60080213D01*
X87239786Y-59929890D01*
X87067820Y-59804951D01*
X87067115Y-59804591D01*
X87059054Y-59800485D01*
X87008259Y-59752512D01*
X86991463Y-59684692D01*
X87013999Y-59618556D01*
X87059054Y-59579515D01*
X87067816Y-59575051D01*
X87089789Y-59559086D01*
X87239786Y-59450109D01*
X87239788Y-59450106D01*
X87239792Y-59450104D01*
X87390104Y-59299792D01*
X87390106Y-59299788D01*
X87390109Y-59299786D01*
X87515048Y-59127820D01*
X87515047Y-59127820D01*
X87515051Y-59127816D01*
X87611557Y-58938412D01*
X87677246Y-58736243D01*
X87710500Y-58526287D01*
X87710500Y-58313713D01*
X87677246Y-58103757D01*
X87611557Y-57901588D01*
X87515051Y-57712184D01*
X87515049Y-57712181D01*
X87515048Y-57712179D01*
X87390109Y-57540213D01*
X87276569Y-57426673D01*
X87243084Y-57365350D01*
X87248068Y-57295658D01*
X87289940Y-57239725D01*
X87320915Y-57222810D01*
X87452331Y-57173796D01*
X87567546Y-57087546D01*
X87653796Y-56972331D01*
X87704091Y-56837483D01*
X87710500Y-56777873D01*
X87710499Y-54982128D01*
X87704091Y-54922517D01*
X87700850Y-54913828D01*
X87653797Y-54787671D01*
X87653793Y-54787664D01*
X87567547Y-54672455D01*
X87567544Y-54672452D01*
X87452335Y-54586206D01*
X87452328Y-54586202D01*
X87320917Y-54537189D01*
X87264983Y-54495318D01*
X87240566Y-54429853D01*
X87255418Y-54361580D01*
X87276563Y-54333332D01*
X87390104Y-54219792D01*
X87515051Y-54047816D01*
X87611557Y-53858412D01*
X87677246Y-53656243D01*
X87710500Y-53446287D01*
X87710500Y-53233713D01*
X87702453Y-53182907D01*
X87711407Y-53113615D01*
X87756404Y-53060163D01*
X87823155Y-53039523D01*
X87890469Y-53058248D01*
G37*
%TD.AperFunction*%
%TA.AperFunction,Conductor*%
G36*
X102733039Y-55320685D02*
G01*
X102778794Y-55373489D01*
X102790000Y-55425000D01*
X102790000Y-55630000D01*
X103695440Y-55630000D01*
X103664755Y-55683147D01*
X103630000Y-55812857D01*
X103630000Y-55947143D01*
X103664755Y-56076853D01*
X103695440Y-56130000D01*
X102790000Y-56130000D01*
X102790000Y-56777844D01*
X102796401Y-56837372D01*
X102796403Y-56837379D01*
X102846645Y-56972086D01*
X102846649Y-56972093D01*
X102932809Y-57087187D01*
X102932812Y-57087190D01*
X103047906Y-57173350D01*
X103047913Y-57173354D01*
X103179470Y-57222422D01*
X103235404Y-57264293D01*
X103259821Y-57329758D01*
X103244969Y-57398031D01*
X103223819Y-57426285D01*
X103109889Y-57540215D01*
X102984951Y-57712179D01*
X102888444Y-57901585D01*
X102822753Y-58103760D01*
X102789500Y-58313713D01*
X102789500Y-58526286D01*
X102815896Y-58692947D01*
X102822754Y-58736243D01*
X102832392Y-58765907D01*
X102888444Y-58938414D01*
X102984951Y-59127820D01*
X103109890Y-59299786D01*
X103260213Y-59450109D01*
X103432182Y-59575050D01*
X103440946Y-59579516D01*
X103491742Y-59627491D01*
X103508536Y-59695312D01*
X103485998Y-59761447D01*
X103440946Y-59800484D01*
X103432182Y-59804949D01*
X103260213Y-59929890D01*
X103109890Y-60080213D01*
X102984951Y-60252179D01*
X102888444Y-60441585D01*
X102822753Y-60643760D01*
X102789500Y-60853713D01*
X102789500Y-61066286D01*
X102822753Y-61276240D01*
X102884794Y-61467182D01*
X102886789Y-61537023D01*
X102850709Y-61596856D01*
X102788008Y-61627684D01*
X102766863Y-61629500D01*
X97893137Y-61629500D01*
X97826098Y-61609815D01*
X97780343Y-61557011D01*
X97770399Y-61487853D01*
X97775206Y-61467182D01*
X97782733Y-61444015D01*
X97837246Y-61276243D01*
X97870500Y-61066287D01*
X97870500Y-60853713D01*
X97837246Y-60643757D01*
X97771557Y-60441588D01*
X97675051Y-60252184D01*
X97675049Y-60252181D01*
X97675048Y-60252179D01*
X97550109Y-60080213D01*
X97399786Y-59929890D01*
X97227820Y-59804951D01*
X97227115Y-59804591D01*
X97219054Y-59800485D01*
X97168259Y-59752512D01*
X97151463Y-59684692D01*
X97173999Y-59618556D01*
X97219054Y-59579515D01*
X97227816Y-59575051D01*
X97249789Y-59559086D01*
X97399786Y-59450109D01*
X97399788Y-59450106D01*
X97399792Y-59450104D01*
X97550104Y-59299792D01*
X97550106Y-59299788D01*
X97550109Y-59299786D01*
X97675048Y-59127820D01*
X97675047Y-59127820D01*
X97675051Y-59127816D01*
X97771557Y-58938412D01*
X97837246Y-58736243D01*
X97870500Y-58526287D01*
X97870500Y-58313713D01*
X97837246Y-58103757D01*
X97771557Y-57901588D01*
X97675051Y-57712184D01*
X97675049Y-57712181D01*
X97675048Y-57712179D01*
X97550109Y-57540213D01*
X97399786Y-57389890D01*
X97227817Y-57264949D01*
X97218504Y-57260204D01*
X97167707Y-57212230D01*
X97150912Y-57144409D01*
X97173449Y-57078274D01*
X97218507Y-57039232D01*
X97227555Y-57034622D01*
X97281716Y-56995270D01*
X97281717Y-56995270D01*
X96649408Y-56362962D01*
X96712993Y-56345925D01*
X96827007Y-56280099D01*
X96920099Y-56187007D01*
X96985925Y-56072993D01*
X97002962Y-56009409D01*
X97635270Y-56641717D01*
X97635270Y-56641716D01*
X97674622Y-56587554D01*
X97771095Y-56398217D01*
X97836757Y-56196130D01*
X97836757Y-56196127D01*
X97870000Y-55986246D01*
X97870000Y-55773753D01*
X97836757Y-55563872D01*
X97836757Y-55563869D01*
X97804086Y-55463318D01*
X97802091Y-55393477D01*
X97838171Y-55333644D01*
X97900872Y-55302816D01*
X97922017Y-55301000D01*
X102666000Y-55301000D01*
X102733039Y-55320685D01*
G37*
%TD.AperFunction*%
%TA.AperFunction,Conductor*%
G36*
X85024497Y-52780685D02*
G01*
X85070252Y-52833489D01*
X85080196Y-52902647D01*
X85075389Y-52923318D01*
X85042753Y-53023759D01*
X85023844Y-53143147D01*
X85009500Y-53233713D01*
X85009500Y-53446287D01*
X85014836Y-53479975D01*
X85042753Y-53656239D01*
X85042753Y-53656241D01*
X85042754Y-53656243D01*
X85082105Y-53777353D01*
X85108444Y-53858414D01*
X85204951Y-54047820D01*
X85329890Y-54219786D01*
X85443430Y-54333326D01*
X85476915Y-54394649D01*
X85471931Y-54464341D01*
X85430059Y-54520274D01*
X85399083Y-54537189D01*
X85267669Y-54586203D01*
X85267664Y-54586206D01*
X85152455Y-54672452D01*
X85152452Y-54672455D01*
X85066206Y-54787664D01*
X85066202Y-54787671D01*
X85015908Y-54922517D01*
X85009501Y-54982116D01*
X85009501Y-54982123D01*
X85009500Y-54982135D01*
X85009500Y-56777870D01*
X85009501Y-56777876D01*
X85015908Y-56837483D01*
X85066202Y-56972328D01*
X85066206Y-56972335D01*
X85152452Y-57087544D01*
X85152455Y-57087547D01*
X85267664Y-57173793D01*
X85267671Y-57173797D01*
X85399082Y-57222810D01*
X85455016Y-57264681D01*
X85479433Y-57330145D01*
X85464582Y-57398418D01*
X85443431Y-57426673D01*
X85329889Y-57540215D01*
X85204951Y-57712179D01*
X85108444Y-57901585D01*
X85042753Y-58103760D01*
X85009500Y-58313713D01*
X85009500Y-58526286D01*
X85035896Y-58692947D01*
X85042754Y-58736243D01*
X85052392Y-58765907D01*
X85108444Y-58938414D01*
X85204951Y-59127820D01*
X85329890Y-59299786D01*
X85480213Y-59450109D01*
X85652182Y-59575050D01*
X85660946Y-59579516D01*
X85711742Y-59627491D01*
X85728536Y-59695312D01*
X85705998Y-59761447D01*
X85660946Y-59800484D01*
X85652182Y-59804949D01*
X85480213Y-59929890D01*
X85329890Y-60080213D01*
X85204951Y-60252179D01*
X85108444Y-60441585D01*
X85042753Y-60643760D01*
X85009500Y-60853713D01*
X85009500Y-61000902D01*
X84989815Y-61067941D01*
X84937011Y-61113696D01*
X84867853Y-61123640D01*
X84804297Y-61094615D01*
X84797819Y-61088583D01*
X81767590Y-58058355D01*
X81767588Y-58058352D01*
X81648717Y-57939481D01*
X81648716Y-57939480D01*
X81561904Y-57889360D01*
X81561904Y-57889359D01*
X81561900Y-57889358D01*
X81511785Y-57860423D01*
X81359057Y-57819499D01*
X81200943Y-57819499D01*
X81193347Y-57819499D01*
X81193331Y-57819500D01*
X72405719Y-57819500D01*
X72338680Y-57799815D01*
X72295235Y-57751795D01*
X72275052Y-57712185D01*
X72275051Y-57712184D01*
X72150109Y-57540213D01*
X71999786Y-57389890D01*
X71827820Y-57264951D01*
X71827115Y-57264591D01*
X71819054Y-57260485D01*
X71768259Y-57212512D01*
X71751463Y-57144692D01*
X71773999Y-57078556D01*
X71819054Y-57039515D01*
X71827816Y-57035051D01*
X71914138Y-56972335D01*
X71999786Y-56910109D01*
X71999788Y-56910106D01*
X71999792Y-56910104D01*
X72150104Y-56759792D01*
X72150106Y-56759788D01*
X72150109Y-56759786D01*
X72275048Y-56587820D01*
X72275047Y-56587820D01*
X72275051Y-56587816D01*
X72371557Y-56398412D01*
X72437246Y-56196243D01*
X72470500Y-55986287D01*
X72470500Y-55773713D01*
X72437246Y-55563757D01*
X72371557Y-55361588D01*
X72275051Y-55172184D01*
X72275049Y-55172181D01*
X72275048Y-55172179D01*
X72150109Y-55000213D01*
X71999786Y-54849890D01*
X71827817Y-54724949D01*
X71818504Y-54720204D01*
X71767707Y-54672230D01*
X71750912Y-54604409D01*
X71773449Y-54538274D01*
X71818507Y-54499232D01*
X71827558Y-54494620D01*
X71999459Y-54369727D01*
X71999464Y-54369723D01*
X72149723Y-54219464D01*
X72149727Y-54219459D01*
X72274620Y-54047557D01*
X72371095Y-53858217D01*
X72436757Y-53656129D01*
X72436757Y-53656126D01*
X72447231Y-53590000D01*
X71564560Y-53590000D01*
X71595245Y-53536853D01*
X71630000Y-53407143D01*
X71630000Y-53272857D01*
X71595245Y-53143147D01*
X71564560Y-53090000D01*
X72447231Y-53090000D01*
X72436757Y-53023873D01*
X72436757Y-53023870D01*
X72404086Y-52923318D01*
X72402091Y-52853477D01*
X72438172Y-52793644D01*
X72500873Y-52762816D01*
X72522017Y-52761000D01*
X84957458Y-52761000D01*
X85024497Y-52780685D01*
G37*
%TD.AperFunction*%
%TA.AperFunction,Conductor*%
G36*
X130655269Y-56641716D02*
G01*
X130676271Y-56640064D01*
X130744648Y-56654428D01*
X130794405Y-56703479D01*
X130810000Y-56763682D01*
X130810000Y-57488763D01*
X130790315Y-57555802D01*
X130737511Y-57601557D01*
X130668353Y-57611501D01*
X130604797Y-57582476D01*
X130585682Y-57561648D01*
X130570109Y-57540214D01*
X130570105Y-57540209D01*
X130419786Y-57389890D01*
X130247817Y-57264949D01*
X130238504Y-57260204D01*
X130187707Y-57212230D01*
X130170912Y-57144409D01*
X130193449Y-57078274D01*
X130238507Y-57039232D01*
X130247555Y-57034622D01*
X130301716Y-56995270D01*
X130301717Y-56995270D01*
X129669408Y-56362962D01*
X129732993Y-56345925D01*
X129847007Y-56280099D01*
X129940099Y-56187007D01*
X130005925Y-56072993D01*
X130022962Y-56009408D01*
X130655269Y-56641716D01*
G37*
%TD.AperFunction*%
%TA.AperFunction,Conductor*%
G36*
X130772418Y-54182310D02*
G01*
X130806777Y-54243148D01*
X130810000Y-54271236D01*
X130810000Y-54996317D01*
X130790315Y-55063356D01*
X130737511Y-55109111D01*
X130676271Y-55119935D01*
X130655269Y-55118282D01*
X130022962Y-55750590D01*
X130005925Y-55687007D01*
X129940099Y-55572993D01*
X129847007Y-55479901D01*
X129732993Y-55414075D01*
X129669409Y-55397037D01*
X130301716Y-54764728D01*
X130247547Y-54725373D01*
X130247547Y-54725372D01*
X130238500Y-54720763D01*
X130187706Y-54672788D01*
X130170912Y-54604966D01*
X130193451Y-54538832D01*
X130238508Y-54499793D01*
X130247816Y-54495051D01*
X130337554Y-54429853D01*
X130419786Y-54370109D01*
X130419788Y-54370106D01*
X130419792Y-54370104D01*
X130570104Y-54219792D01*
X130585680Y-54198352D01*
X130641009Y-54155686D01*
X130710623Y-54149705D01*
X130772418Y-54182310D01*
G37*
%TD.AperFunction*%
%TD*%
M02*
