%TF.GenerationSoftware,KiCad,Pcbnew,9.0.6*%
%TF.CreationDate,2025-11-14T19:52:51-08:00*%
%TF.ProjectId,SD-WSPICODB,53442d57-5350-4494-934f-44422e6b6963,R1.0*%
%TF.SameCoordinates,Original*%
%TF.FileFunction,Soldermask,Bot*%
%TF.FilePolarity,Negative*%
%FSLAX46Y46*%
G04 Gerber Fmt 4.6, Leading zero omitted, Abs format (unit mm)*
G04 Created by KiCad (PCBNEW 9.0.6) date 2025-11-14 19:52:51*
%MOMM*%
%LPD*%
G01*
G04 APERTURE LIST*
%ADD10R,1.700000X1.700000*%
%ADD11C,1.700000*%
%ADD12O,1.700000X1.700000*%
%ADD13C,2.200000*%
%ADD14O,1.800000X1.800000*%
%ADD15O,1.500000X1.500000*%
%ADD16C,0.650000*%
%ADD17O,1.000000X1.800000*%
%ADD18O,1.000000X2.100000*%
G04 APERTURE END LIST*
D10*
%TO.C,J4*%
X71750000Y-80530000D03*
D11*
X74290000Y-80530000D03*
%TD*%
D12*
%TO.C,U2*%
X86360000Y-50800000D03*
X86360000Y-53340000D03*
D10*
X86360000Y-55880000D03*
D12*
X86360000Y-58420000D03*
X86360000Y-60960000D03*
X86360000Y-63500000D03*
X86360000Y-66040000D03*
D10*
X86360000Y-68580000D03*
D12*
X86360000Y-71120000D03*
X83820000Y-71120000D03*
X81280000Y-71119999D03*
X78740000Y-71120001D03*
X76200000Y-71120000D03*
X73660000Y-71120000D03*
X71120000Y-71120000D03*
X71120000Y-68580000D03*
X71120000Y-66040000D03*
D10*
X71120000Y-63500000D03*
D12*
X71120000Y-60960000D03*
X71120000Y-58420000D03*
X71120000Y-55880000D03*
X71120000Y-53340000D03*
D10*
X71120000Y-50800000D03*
%TD*%
D13*
%TO.C,H3*%
X67310000Y-104140000D03*
%TD*%
D10*
%TO.C,J1*%
X96520000Y-50800000D03*
D11*
X96520000Y-53340000D03*
X96520000Y-55880000D03*
X96520000Y-58420000D03*
X96520000Y-60960000D03*
X96520000Y-63500000D03*
X96520000Y-66040000D03*
X96520000Y-68580000D03*
X96520000Y-71120000D03*
X96520000Y-73660000D03*
X96520000Y-76200000D03*
X96520000Y-78740000D03*
X96520000Y-81280000D03*
X96520000Y-83820000D03*
X96520000Y-86360000D03*
X96520000Y-88900000D03*
X96520000Y-91440000D03*
X96520000Y-93980000D03*
X96520000Y-96520000D03*
X96520000Y-99060000D03*
%TD*%
D14*
%TO.C,U1*%
X110305000Y-50930000D03*
D15*
X110605000Y-53960000D03*
X115455000Y-53960000D03*
D14*
X115755000Y-50930000D03*
D12*
X104140000Y-50800000D03*
X104140000Y-53340000D03*
D10*
X104140000Y-55880000D03*
D12*
X104140000Y-58420000D03*
X104140000Y-60960000D03*
X104140000Y-63500000D03*
X104140000Y-66040000D03*
D10*
X104140000Y-68580000D03*
D12*
X104140000Y-71120000D03*
X104140000Y-73660000D03*
X104140000Y-76200000D03*
X104140000Y-78740000D03*
D10*
X104140000Y-81280000D03*
D12*
X104140000Y-83820000D03*
X104140000Y-86360000D03*
X104140000Y-88900000D03*
X104140000Y-91440000D03*
D10*
X104140000Y-93980000D03*
D12*
X104140000Y-96520000D03*
X104140000Y-99060000D03*
X121920000Y-99060000D03*
X121920000Y-96520000D03*
D10*
X121920000Y-93980000D03*
D12*
X121920000Y-91440000D03*
X121920000Y-88900000D03*
X121920000Y-86360000D03*
X121920000Y-83820000D03*
D10*
X121920000Y-81280000D03*
D12*
X121920000Y-78740000D03*
X121920000Y-76200000D03*
X121920000Y-73660000D03*
X121920000Y-71120000D03*
D10*
X121920000Y-68580000D03*
D12*
X121920000Y-66040000D03*
X121920000Y-63500000D03*
X121920000Y-60960000D03*
X121920000Y-58420000D03*
D10*
X121920000Y-55880000D03*
D12*
X121920000Y-53340000D03*
X121920000Y-50800000D03*
X110494000Y-99100000D03*
D10*
X113034000Y-99100000D03*
D12*
X115574000Y-99100000D03*
%TD*%
D10*
%TO.C,J8*%
X129540000Y-50800000D03*
D11*
X129540000Y-53340000D03*
X129540000Y-55880000D03*
X129540000Y-58420000D03*
X129540000Y-60960000D03*
X129540000Y-63500000D03*
X129540000Y-66040000D03*
X129540000Y-68580000D03*
X129540000Y-71120000D03*
X129540000Y-73660000D03*
X129540000Y-76200000D03*
X129540000Y-78740000D03*
X129540000Y-81280000D03*
X129540000Y-83820000D03*
X129540000Y-86360000D03*
X129540000Y-88900000D03*
X129540000Y-91440000D03*
X129540000Y-93980000D03*
X129540000Y-96520000D03*
X129540000Y-99060000D03*
%TD*%
D10*
%TO.C,J3*%
X110490000Y-104140000D03*
D11*
X113030000Y-104140000D03*
X115569999Y-104140000D03*
%TD*%
D13*
%TO.C,H4*%
X128905000Y-104140000D03*
%TD*%
%TO.C,H2*%
X67310000Y-78740000D03*
%TD*%
%TO.C,H1*%
X92202000Y-51308000D03*
%TD*%
D10*
%TO.C,J2*%
X89154000Y-101600000D03*
D11*
X89154000Y-99060000D03*
X89154000Y-96520001D03*
X89154000Y-93980000D03*
%TD*%
D10*
%TO.C,J6*%
X71750000Y-84300000D03*
D11*
X74290000Y-84300000D03*
%TD*%
D16*
%TO.C,J5*%
X74585000Y-100260000D03*
X80365000Y-100260000D03*
D17*
X73155000Y-103940000D03*
X81795000Y-103940000D03*
D18*
X73155000Y-99760000D03*
X81795000Y-99760000D03*
%TD*%
M02*
