%TF.GenerationSoftware,KiCad,Pcbnew,9.0.6*%
%TF.CreationDate,2025-11-14T19:52:51-08:00*%
%TF.ProjectId,SD-WSPICODB,53442d57-5350-4494-934f-44422e6b6963,R1.0*%
%TF.SameCoordinates,Original*%
%TF.FileFunction,Soldermask,Top*%
%TF.FilePolarity,Negative*%
%FSLAX46Y46*%
G04 Gerber Fmt 4.6, Leading zero omitted, Abs format (unit mm)*
G04 Created by KiCad (PCBNEW 9.0.6) date 2025-11-14 19:52:51*
%MOMM*%
%LPD*%
G01*
G04 APERTURE LIST*
G04 Aperture macros list*
%AMRoundRect*
0 Rectangle with rounded corners*
0 $1 Rounding radius*
0 $2 $3 $4 $5 $6 $7 $8 $9 X,Y pos of 4 corners*
0 Add a 4 corners polygon primitive as box body*
4,1,4,$2,$3,$4,$5,$6,$7,$8,$9,$2,$3,0*
0 Add four circle primitives for the rounded corners*
1,1,$1+$1,$2,$3*
1,1,$1+$1,$4,$5*
1,1,$1+$1,$6,$7*
1,1,$1+$1,$8,$9*
0 Add four rect primitives between the rounded corners*
20,1,$1+$1,$2,$3,$4,$5,0*
20,1,$1+$1,$4,$5,$6,$7,0*
20,1,$1+$1,$6,$7,$8,$9,0*
20,1,$1+$1,$8,$9,$2,$3,0*%
G04 Aperture macros list end*
%ADD10R,1.700000X1.700000*%
%ADD11C,1.700000*%
%ADD12O,1.700000X1.700000*%
%ADD13R,3.500000X1.700000*%
%ADD14R,1.700000X3.500000*%
%ADD15RoundRect,0.250000X-0.350000X-0.450000X0.350000X-0.450000X0.350000X0.450000X-0.350000X0.450000X0*%
%ADD16C,2.200000*%
%ADD17O,1.800000X1.800000*%
%ADD18O,1.500000X1.500000*%
%ADD19C,0.650000*%
%ADD20R,0.600000X1.150000*%
%ADD21R,0.300000X1.150000*%
%ADD22O,1.000000X1.800000*%
%ADD23O,1.000000X2.100000*%
G04 APERTURE END LIST*
D10*
%TO.C,J4*%
X71750000Y-80530000D03*
D11*
X74290000Y-80530000D03*
%TD*%
D12*
%TO.C,U2*%
X86360000Y-50800000D03*
D13*
X87260000Y-50800000D03*
D12*
X86360000Y-53340000D03*
D13*
X87260000Y-53340000D03*
D10*
X86360000Y-55880000D03*
D13*
X87260000Y-55880000D03*
D12*
X86360000Y-58420000D03*
D13*
X87260000Y-58420000D03*
D12*
X86360000Y-60960000D03*
D13*
X87260000Y-60960000D03*
D12*
X86360000Y-63500000D03*
D13*
X87260000Y-63500000D03*
D12*
X86360000Y-66040000D03*
D13*
X87260000Y-66040000D03*
D10*
X86360000Y-68580000D03*
D13*
X87260000Y-68580000D03*
D12*
X86360000Y-71120000D03*
D13*
X87260000Y-71120000D03*
D12*
X83820000Y-71120000D03*
D14*
X83820000Y-72020000D03*
D12*
X81280000Y-71119999D03*
D14*
X81280000Y-72019999D03*
D12*
X78740000Y-71120001D03*
D14*
X78740000Y-72020001D03*
D12*
X76200000Y-71120000D03*
D14*
X76200000Y-72020000D03*
D12*
X73660000Y-71120000D03*
D14*
X73660000Y-72020000D03*
D12*
X71120000Y-71120000D03*
D13*
X70220000Y-71120000D03*
D12*
X71120000Y-68580000D03*
D13*
X70220000Y-68580000D03*
D12*
X71120000Y-66040000D03*
D13*
X70220000Y-66040000D03*
D10*
X71120000Y-63500000D03*
D13*
X70220000Y-63500000D03*
D12*
X71120000Y-60960000D03*
D13*
X70220000Y-60960000D03*
D12*
X71120000Y-58420000D03*
D13*
X70220000Y-58420000D03*
D12*
X71120000Y-55880000D03*
D13*
X70220000Y-55880000D03*
D12*
X71120000Y-53340000D03*
D13*
X70220000Y-53340000D03*
D10*
X71120000Y-50800000D03*
D13*
X70220000Y-50800000D03*
%TD*%
D15*
%TO.C,R1*%
X72025000Y-95885000D03*
X74025000Y-95885000D03*
%TD*%
D16*
%TO.C,H3*%
X67310000Y-104140000D03*
%TD*%
D10*
%TO.C,J1*%
X96520000Y-50800000D03*
D11*
X96520000Y-53340000D03*
X96520000Y-55880000D03*
X96520000Y-58420000D03*
X96520000Y-60960000D03*
X96520000Y-63500000D03*
X96520000Y-66040000D03*
X96520000Y-68580000D03*
X96520000Y-71120000D03*
X96520000Y-73660000D03*
X96520000Y-76200000D03*
X96520000Y-78740000D03*
X96520000Y-81280000D03*
X96520000Y-83820000D03*
X96520000Y-86360000D03*
X96520000Y-88900000D03*
X96520000Y-91440000D03*
X96520000Y-93980000D03*
X96520000Y-96520000D03*
X96520000Y-99060000D03*
%TD*%
D17*
%TO.C,U1*%
X110305000Y-50930000D03*
D18*
X110605000Y-53960000D03*
X115455000Y-53960000D03*
D17*
X115755000Y-50930000D03*
D12*
X104140000Y-50800000D03*
D13*
X103240000Y-50800000D03*
D12*
X104140000Y-53340000D03*
D13*
X103240000Y-53340000D03*
D10*
X104140000Y-55880000D03*
D13*
X103240000Y-55880000D03*
D12*
X104140000Y-58420000D03*
D13*
X103240000Y-58420000D03*
D12*
X104140000Y-60960000D03*
D13*
X103240000Y-60960000D03*
D12*
X104140000Y-63500000D03*
D13*
X103240000Y-63500000D03*
D12*
X104140000Y-66040000D03*
D13*
X103240000Y-66040000D03*
D10*
X104140000Y-68580000D03*
D13*
X103240000Y-68580000D03*
D12*
X104140000Y-71120000D03*
D13*
X103240000Y-71120000D03*
D12*
X104140000Y-73660000D03*
D13*
X103240000Y-73660000D03*
D12*
X104140000Y-76200000D03*
D13*
X103240000Y-76200000D03*
D12*
X104140000Y-78740000D03*
D13*
X103240000Y-78740000D03*
D10*
X104140000Y-81280000D03*
D13*
X103240000Y-81280000D03*
D12*
X104140000Y-83820000D03*
D13*
X103240000Y-83820000D03*
D12*
X104140000Y-86360000D03*
D13*
X103240000Y-86360000D03*
D12*
X104140000Y-88900000D03*
D13*
X103240000Y-88900000D03*
D12*
X104140000Y-91440000D03*
D13*
X103240000Y-91440000D03*
D10*
X104140000Y-93980000D03*
D13*
X103240000Y-93980000D03*
D12*
X104140000Y-96520000D03*
D13*
X103240000Y-96520000D03*
D12*
X104140000Y-99060000D03*
D13*
X103240000Y-99060000D03*
D12*
X121920000Y-99060000D03*
D13*
X122820000Y-99060000D03*
D12*
X121920000Y-96520000D03*
D13*
X122820000Y-96520000D03*
D10*
X121920000Y-93980000D03*
D13*
X122820000Y-93980000D03*
D12*
X121920000Y-91440000D03*
D13*
X122820000Y-91440000D03*
D12*
X121920000Y-88900000D03*
D13*
X122820000Y-88900000D03*
D12*
X121920000Y-86360000D03*
D13*
X122820000Y-86360000D03*
D12*
X121920000Y-83820000D03*
D13*
X122820000Y-83820000D03*
D10*
X121920000Y-81280000D03*
D13*
X122820000Y-81280000D03*
D12*
X121920000Y-78740000D03*
D13*
X122820000Y-78740000D03*
D12*
X121920000Y-76200000D03*
D13*
X122820000Y-76200000D03*
D12*
X121920000Y-73660000D03*
D13*
X122820000Y-73660000D03*
D12*
X121920000Y-71120000D03*
D13*
X122820000Y-71120000D03*
D10*
X121920000Y-68580000D03*
D13*
X122820000Y-68580000D03*
D12*
X121920000Y-66040000D03*
D13*
X122820000Y-66040000D03*
D12*
X121920000Y-63500000D03*
D13*
X122820000Y-63500000D03*
D12*
X121920000Y-60960000D03*
D13*
X122820000Y-60960000D03*
D12*
X121920000Y-58420000D03*
D13*
X122820000Y-58420000D03*
D10*
X121920000Y-55880000D03*
D13*
X122820000Y-55880000D03*
D12*
X121920000Y-53340000D03*
D13*
X122820000Y-53340000D03*
D12*
X121920000Y-50800000D03*
D13*
X122820000Y-50800000D03*
D12*
X110494000Y-99100000D03*
D14*
X110494000Y-100000000D03*
D10*
X113034000Y-99100000D03*
D14*
X113034000Y-100000000D03*
D12*
X115574000Y-99100000D03*
D14*
X115574000Y-100000000D03*
%TD*%
D10*
%TO.C,J8*%
X129540000Y-50800000D03*
D11*
X129540000Y-53340000D03*
X129540000Y-55880000D03*
X129540000Y-58420000D03*
X129540000Y-60960000D03*
X129540000Y-63500000D03*
X129540000Y-66040000D03*
X129540000Y-68580000D03*
X129540000Y-71120000D03*
X129540000Y-73660000D03*
X129540000Y-76200000D03*
X129540000Y-78740000D03*
X129540000Y-81280000D03*
X129540000Y-83820000D03*
X129540000Y-86360000D03*
X129540000Y-88900000D03*
X129540000Y-91440000D03*
X129540000Y-93980000D03*
X129540000Y-96520000D03*
X129540000Y-99060000D03*
%TD*%
D10*
%TO.C,J3*%
X110490000Y-104140000D03*
D11*
X113030000Y-104140000D03*
X115569999Y-104140000D03*
%TD*%
D16*
%TO.C,H4*%
X128905000Y-104140000D03*
%TD*%
%TO.C,H2*%
X67310000Y-78740000D03*
%TD*%
%TO.C,H1*%
X92202000Y-51308000D03*
%TD*%
D10*
%TO.C,J2*%
X89154000Y-101600000D03*
D11*
X89154000Y-99060000D03*
X89154000Y-96520001D03*
X89154000Y-93980000D03*
%TD*%
D10*
%TO.C,J6*%
X71750000Y-84300000D03*
D11*
X74290000Y-84300000D03*
%TD*%
D19*
%TO.C,J5*%
X74585000Y-100260000D03*
X80365000Y-100260000D03*
D20*
X74275000Y-99185000D03*
X75075000Y-99185000D03*
D21*
X76225000Y-99185000D03*
X77225000Y-99185000D03*
X77725000Y-99185000D03*
X78725000Y-99185000D03*
D20*
X80675000Y-99185000D03*
X79875000Y-99185000D03*
D21*
X79225000Y-99185000D03*
X78225000Y-99185000D03*
X76725000Y-99185000D03*
X75725000Y-99185000D03*
D22*
X73155000Y-103940000D03*
X81795000Y-103940000D03*
D23*
X73155000Y-99760000D03*
X81795000Y-99760000D03*
%TD*%
M02*
