%TF.GenerationSoftware,KiCad,Pcbnew,9.0.6*%
%TF.CreationDate,2025-11-23T22:39:12-08:00*%
%TF.ProjectId,SD-ZMB,53442d5a-4d42-42e6-9b69-6361645f7063,PR8.2*%
%TF.SameCoordinates,Original*%
%TF.FileFunction,Legend,Bot*%
%TF.FilePolarity,Positive*%
%FSLAX46Y46*%
G04 Gerber Fmt 4.6, Leading zero omitted, Abs format (unit mm)*
G04 Created by KiCad (PCBNEW 9.0.6) date 2025-11-23 22:39:12*
%MOMM*%
%LPD*%
G01*
G04 APERTURE LIST*
%ADD10C,0.150000*%
G04 APERTURE END LIST*
D10*
X265574523Y-252730180D02*
X265764999Y-252730180D01*
X265764999Y-252730180D02*
X265860237Y-252682561D01*
X265860237Y-252682561D02*
X265955475Y-252587323D01*
X265955475Y-252587323D02*
X266003094Y-252396847D01*
X266003094Y-252396847D02*
X266003094Y-252063514D01*
X266003094Y-252063514D02*
X265955475Y-251873038D01*
X265955475Y-251873038D02*
X265860237Y-251777800D01*
X265860237Y-251777800D02*
X265764999Y-251730180D01*
X265764999Y-251730180D02*
X265574523Y-251730180D01*
X265574523Y-251730180D02*
X265479285Y-251777800D01*
X265479285Y-251777800D02*
X265384047Y-251873038D01*
X265384047Y-251873038D02*
X265336428Y-252063514D01*
X265336428Y-252063514D02*
X265336428Y-252396847D01*
X265336428Y-252396847D02*
X265384047Y-252587323D01*
X265384047Y-252587323D02*
X265479285Y-252682561D01*
X265479285Y-252682561D02*
X265574523Y-252730180D01*
X266907856Y-251730180D02*
X266431666Y-251730180D01*
X266431666Y-251730180D02*
X266431666Y-252730180D01*
X267241190Y-252253990D02*
X267574523Y-252253990D01*
X267717380Y-251730180D02*
X267241190Y-251730180D01*
X267241190Y-251730180D02*
X267241190Y-252730180D01*
X267241190Y-252730180D02*
X267717380Y-252730180D01*
X268145952Y-251730180D02*
X268145952Y-252730180D01*
X268145952Y-252730180D02*
X268384047Y-252730180D01*
X268384047Y-252730180D02*
X268526904Y-252682561D01*
X268526904Y-252682561D02*
X268622142Y-252587323D01*
X268622142Y-252587323D02*
X268669761Y-252492085D01*
X268669761Y-252492085D02*
X268717380Y-252301609D01*
X268717380Y-252301609D02*
X268717380Y-252158752D01*
X268717380Y-252158752D02*
X268669761Y-251968276D01*
X268669761Y-251968276D02*
X268622142Y-251873038D01*
X268622142Y-251873038D02*
X268526904Y-251777800D01*
X268526904Y-251777800D02*
X268384047Y-251730180D01*
X268384047Y-251730180D02*
X268145952Y-251730180D01*
X270193571Y-252730180D02*
X270193571Y-252015895D01*
X270193571Y-252015895D02*
X270145952Y-251873038D01*
X270145952Y-251873038D02*
X270050714Y-251777800D01*
X270050714Y-251777800D02*
X269907857Y-251730180D01*
X269907857Y-251730180D02*
X269812619Y-251730180D01*
X271193571Y-251730180D02*
X270622143Y-251730180D01*
X270907857Y-251730180D02*
X270907857Y-252730180D01*
X270907857Y-252730180D02*
X270812619Y-252587323D01*
X270812619Y-252587323D02*
X270717381Y-252492085D01*
X270717381Y-252492085D02*
X270622143Y-252444466D01*
X210149523Y-252730180D02*
X210339999Y-252730180D01*
X210339999Y-252730180D02*
X210435237Y-252682561D01*
X210435237Y-252682561D02*
X210530475Y-252587323D01*
X210530475Y-252587323D02*
X210578094Y-252396847D01*
X210578094Y-252396847D02*
X210578094Y-252063514D01*
X210578094Y-252063514D02*
X210530475Y-251873038D01*
X210530475Y-251873038D02*
X210435237Y-251777800D01*
X210435237Y-251777800D02*
X210339999Y-251730180D01*
X210339999Y-251730180D02*
X210149523Y-251730180D01*
X210149523Y-251730180D02*
X210054285Y-251777800D01*
X210054285Y-251777800D02*
X209959047Y-251873038D01*
X209959047Y-251873038D02*
X209911428Y-252063514D01*
X209911428Y-252063514D02*
X209911428Y-252396847D01*
X209911428Y-252396847D02*
X209959047Y-252587323D01*
X209959047Y-252587323D02*
X210054285Y-252682561D01*
X210054285Y-252682561D02*
X210149523Y-252730180D01*
X211482856Y-251730180D02*
X211006666Y-251730180D01*
X211006666Y-251730180D02*
X211006666Y-252730180D01*
X211816190Y-252253990D02*
X212149523Y-252253990D01*
X212292380Y-251730180D02*
X211816190Y-251730180D01*
X211816190Y-251730180D02*
X211816190Y-252730180D01*
X211816190Y-252730180D02*
X212292380Y-252730180D01*
X212720952Y-251730180D02*
X212720952Y-252730180D01*
X212720952Y-252730180D02*
X212959047Y-252730180D01*
X212959047Y-252730180D02*
X213101904Y-252682561D01*
X213101904Y-252682561D02*
X213197142Y-252587323D01*
X213197142Y-252587323D02*
X213244761Y-252492085D01*
X213244761Y-252492085D02*
X213292380Y-252301609D01*
X213292380Y-252301609D02*
X213292380Y-252158752D01*
X213292380Y-252158752D02*
X213244761Y-251968276D01*
X213244761Y-251968276D02*
X213197142Y-251873038D01*
X213197142Y-251873038D02*
X213101904Y-251777800D01*
X213101904Y-251777800D02*
X212959047Y-251730180D01*
X212959047Y-251730180D02*
X212720952Y-251730180D01*
X214768571Y-252730180D02*
X214768571Y-252015895D01*
X214768571Y-252015895D02*
X214720952Y-251873038D01*
X214720952Y-251873038D02*
X214625714Y-251777800D01*
X214625714Y-251777800D02*
X214482857Y-251730180D01*
X214482857Y-251730180D02*
X214387619Y-251730180D01*
X215197143Y-252634942D02*
X215244762Y-252682561D01*
X215244762Y-252682561D02*
X215340000Y-252730180D01*
X215340000Y-252730180D02*
X215578095Y-252730180D01*
X215578095Y-252730180D02*
X215673333Y-252682561D01*
X215673333Y-252682561D02*
X215720952Y-252634942D01*
X215720952Y-252634942D02*
X215768571Y-252539704D01*
X215768571Y-252539704D02*
X215768571Y-252444466D01*
X215768571Y-252444466D02*
X215720952Y-252301609D01*
X215720952Y-252301609D02*
X215149524Y-251730180D01*
X215149524Y-251730180D02*
X215768571Y-251730180D01*
M02*
