%TF.GenerationSoftware,KiCad,Pcbnew,9.0.6*%
%TF.CreationDate,2025-11-24T00:24:31-08:00*%
%TF.ProjectId,SD-ZMB,53442d5a-4d42-42e6-9b69-6361645f7063,PR8.2*%
%TF.SameCoordinates,Original*%
%TF.FileFunction,Soldermask,Top*%
%TF.FilePolarity,Negative*%
%FSLAX46Y46*%
G04 Gerber Fmt 4.6, Leading zero omitted, Abs format (unit mm)*
G04 Created by KiCad (PCBNEW 9.0.6) date 2025-11-24 00:24:31*
%MOMM*%
%LPD*%
G01*
G04 APERTURE LIST*
G04 Aperture macros list*
%AMRoundRect*
0 Rectangle with rounded corners*
0 $1 Rounding radius*
0 $2 $3 $4 $5 $6 $7 $8 $9 X,Y pos of 4 corners*
0 Add a 4 corners polygon primitive as box body*
4,1,4,$2,$3,$4,$5,$6,$7,$8,$9,$2,$3,0*
0 Add four circle primitives for the rounded corners*
1,1,$1+$1,$2,$3*
1,1,$1+$1,$4,$5*
1,1,$1+$1,$6,$7*
1,1,$1+$1,$8,$9*
0 Add four rect primitives between the rounded corners*
20,1,$1+$1,$2,$3,$4,$5,0*
20,1,$1+$1,$4,$5,$6,$7,0*
20,1,$1+$1,$6,$7,$8,$9,0*
20,1,$1+$1,$8,$9,$2,$3,0*%
G04 Aperture macros list end*
%ADD10RoundRect,0.250000X-0.550000X-0.550000X0.550000X-0.550000X0.550000X0.550000X-0.550000X0.550000X0*%
%ADD11RoundRect,0.150000X-0.512500X-0.150000X0.512500X-0.150000X0.512500X0.150000X-0.512500X0.150000X0*%
%ADD12RoundRect,0.150000X0.512500X0.150000X-0.512500X0.150000X-0.512500X-0.150000X0.512500X-0.150000X0*%
%ADD13C,1.600000*%
%ADD14RoundRect,0.250000X0.550000X-0.550000X0.550000X0.550000X-0.550000X0.550000X-0.550000X-0.550000X0*%
%ADD15RoundRect,0.150000X0.150000X-0.825000X0.150000X0.825000X-0.150000X0.825000X-0.150000X-0.825000X0*%
%ADD16RoundRect,0.150000X0.200000X-0.150000X0.200000X0.150000X-0.200000X0.150000X-0.200000X-0.150000X0*%
%ADD17C,3.200000*%
%ADD18RoundRect,0.250000X0.350000X0.350000X-0.350000X0.350000X-0.350000X-0.350000X0.350000X-0.350000X0*%
%ADD19C,1.200000*%
%ADD20R,1.600000X1.600000*%
%ADD21RoundRect,0.150000X0.825000X0.150000X-0.825000X0.150000X-0.825000X-0.150000X0.825000X-0.150000X0*%
%ADD22RoundRect,0.225000X0.225000X0.250000X-0.225000X0.250000X-0.225000X-0.250000X0.225000X-0.250000X0*%
%ADD23RoundRect,0.250000X0.250000X-0.250000X0.250000X0.250000X-0.250000X0.250000X-0.250000X-0.250000X0*%
%ADD24RoundRect,0.250000X0.450000X-0.262500X0.450000X0.262500X-0.450000X0.262500X-0.450000X-0.262500X0*%
%ADD25RoundRect,0.225000X0.250000X-0.225000X0.250000X0.225000X-0.250000X0.225000X-0.250000X-0.225000X0*%
%ADD26R,1.350000X1.350000*%
%ADD27C,1.350000*%
%ADD28RoundRect,0.250000X0.550000X-0.950000X0.550000X0.950000X-0.550000X0.950000X-0.550000X-0.950000X0*%
%ADD29C,1.400000*%
%ADD30O,1.600000X2.400000*%
%ADD31RoundRect,0.150000X-0.837500X-0.150000X0.837500X-0.150000X0.837500X0.150000X-0.837500X0.150000X0*%
%ADD32RoundRect,0.225000X-0.250000X0.225000X-0.250000X-0.225000X0.250000X-0.225000X0.250000X0.225000X0*%
%ADD33C,2.700000*%
%ADD34R,1.700000X1.700000*%
%ADD35C,1.700000*%
%ADD36O,1.700000X1.700000*%
%ADD37R,3.500000X1.700000*%
%ADD38RoundRect,0.150000X-0.825000X-0.150000X0.825000X-0.150000X0.825000X0.150000X-0.825000X0.150000X0*%
%ADD39RoundRect,0.250000X-0.950000X-0.550000X0.950000X-0.550000X0.950000X0.550000X-0.950000X0.550000X0*%
%ADD40O,2.400000X1.600000*%
%ADD41RoundRect,0.225000X-0.225000X-0.250000X0.225000X-0.250000X0.225000X0.250000X-0.225000X0.250000X0*%
%ADD42RoundRect,0.250000X-0.450000X0.262500X-0.450000X-0.262500X0.450000X-0.262500X0.450000X0.262500X0*%
%ADD43RoundRect,0.150000X0.150000X-0.900000X0.150000X0.900000X-0.150000X0.900000X-0.150000X-0.900000X0*%
%ADD44C,4.000000*%
%ADD45C,3.500000*%
%ADD46R,1.800000X1.800000*%
%ADD47C,1.800000*%
%ADD48RoundRect,0.250000X-0.262500X-0.450000X0.262500X-0.450000X0.262500X0.450000X-0.262500X0.450000X0*%
%ADD49RoundRect,0.250000X0.550000X0.550000X-0.550000X0.550000X-0.550000X-0.550000X0.550000X-0.550000X0*%
%ADD50RoundRect,0.150000X0.150000X-0.837500X0.150000X0.837500X-0.150000X0.837500X-0.150000X-0.837500X0*%
%ADD51RoundRect,0.250000X0.262500X0.450000X-0.262500X0.450000X-0.262500X-0.450000X0.262500X-0.450000X0*%
%ADD52R,1.400000X1.600000*%
%ADD53RoundRect,0.150000X-0.150000X0.825000X-0.150000X-0.825000X0.150000X-0.825000X0.150000X0.825000X0*%
%ADD54RoundRect,0.250000X0.600000X-0.600000X0.600000X0.600000X-0.600000X0.600000X-0.600000X-0.600000X0*%
%ADD55RoundRect,0.150000X-0.150000X0.512500X-0.150000X-0.512500X0.150000X-0.512500X0.150000X0.512500X0*%
%ADD56RoundRect,0.250000X-0.550000X0.950000X-0.550000X-0.950000X0.550000X-0.950000X0.550000X0.950000X0*%
%ADD57O,5.000000X2.500000*%
%ADD58O,4.500000X2.250000*%
%ADD59R,1.700000X3.500000*%
%ADD60RoundRect,0.150000X0.837500X0.150000X-0.837500X0.150000X-0.837500X-0.150000X0.837500X-0.150000X0*%
%ADD61RoundRect,0.150000X0.150000X-0.512500X0.150000X0.512500X-0.150000X0.512500X-0.150000X-0.512500X0*%
%ADD62RoundRect,0.150000X-0.150000X0.837500X-0.150000X-0.837500X0.150000X-0.837500X0.150000X0.837500X0*%
%ADD63RoundRect,0.150000X-0.200000X0.150000X-0.200000X-0.150000X0.200000X-0.150000X0.200000X0.150000X0*%
%ADD64C,0.950000*%
%ADD65R,0.620000X1.400000*%
%ADD66R,1.100000X2.400000*%
%ADD67C,1.440000*%
G04 APERTURE END LIST*
D10*
%TO.C,SPARE2*%
X304292000Y-215900000D03*
D11*
X306964499Y-230251000D03*
X306970000Y-217424000D03*
D12*
X309234000Y-226944000D03*
D13*
X304292000Y-218440000D03*
D11*
X306964500Y-231201000D03*
X306970000Y-218374000D03*
D12*
X309233999Y-225994000D03*
D13*
X304292000Y-220979999D03*
D11*
X306964500Y-232151000D03*
X306970000Y-219324001D03*
D12*
X309234000Y-225044000D03*
D13*
X304292000Y-223520000D03*
D12*
X306959000Y-225044000D03*
D11*
X309239500Y-232151000D03*
X309245000Y-219324001D03*
D13*
X304292000Y-226060000D03*
D12*
X306959000Y-226944000D03*
D11*
X309239500Y-230251000D03*
X309245000Y-218380000D03*
D13*
X304292000Y-228600000D03*
D11*
X309245000Y-217424000D03*
D13*
X304292000Y-231140000D03*
X304292000Y-233680001D03*
X311912000Y-233680000D03*
X311912000Y-231140000D03*
X311912000Y-228600000D03*
X311912000Y-226060000D03*
X311912000Y-223520000D03*
X311912000Y-220980000D03*
X311912000Y-218440000D03*
X311912000Y-215900000D03*
%TD*%
D14*
%TO.C,SPARE3*%
X283972000Y-248920000D03*
D15*
X288544000Y-246380000D03*
D13*
X286512000Y-248920000D03*
D15*
X289814000Y-246380000D03*
D13*
X289051999Y-248920000D03*
D15*
X291084000Y-246380000D03*
D13*
X291592000Y-248920000D03*
D15*
X292354000Y-246380000D03*
D13*
X294132000Y-248920000D03*
D15*
X293624000Y-246380000D03*
D13*
X296672000Y-248920000D03*
D15*
X294894000Y-246380000D03*
D13*
X299212000Y-248920000D03*
D15*
X296164000Y-246380000D03*
D13*
X301752001Y-248920000D03*
D15*
X297434000Y-246380000D03*
X297434000Y-241430000D03*
D13*
X301752000Y-238760001D03*
D15*
X296164000Y-241430000D03*
D13*
X299212000Y-238760000D03*
D15*
X294894000Y-241430000D03*
D13*
X296672000Y-238760000D03*
D15*
X293624000Y-241430000D03*
D13*
X294132000Y-238760000D03*
D15*
X292354000Y-241430000D03*
D13*
X291592000Y-238760000D03*
D15*
X291084000Y-241430000D03*
D13*
X289052000Y-238760001D03*
D15*
X289814000Y-241430000D03*
D13*
X286512000Y-238760000D03*
D15*
X288544000Y-241430000D03*
D13*
X283972000Y-238760000D03*
%TD*%
D10*
%TO.C,SPARE1*%
X294132000Y-215900000D03*
D11*
X296804499Y-230251000D03*
X296810000Y-217424000D03*
D12*
X299074000Y-226944000D03*
D13*
X294132000Y-218440000D03*
D11*
X296804500Y-231201000D03*
X296810000Y-218374000D03*
D12*
X299073999Y-225994000D03*
D13*
X294132000Y-220979999D03*
D11*
X296804500Y-232151000D03*
X296810000Y-219324001D03*
D12*
X299074000Y-225044000D03*
D13*
X294132000Y-223520000D03*
D12*
X296799000Y-225044000D03*
D11*
X299079500Y-232151000D03*
X299085000Y-219324001D03*
D13*
X294132000Y-226060000D03*
D12*
X296799000Y-226944000D03*
D11*
X299079500Y-230251000D03*
X299085000Y-218380000D03*
D13*
X294132000Y-228600000D03*
D11*
X299085000Y-217424000D03*
D13*
X294132000Y-231140000D03*
X294132000Y-233680001D03*
X301752000Y-233680000D03*
X301752000Y-231140000D03*
X301752000Y-228600000D03*
X301752000Y-226060000D03*
X301752000Y-223520000D03*
X301752000Y-220980000D03*
X301752000Y-218440000D03*
X301752000Y-215900000D03*
%TD*%
D16*
%TO.C,D5*%
X158750000Y-224725000D03*
X158750000Y-226125000D03*
%TD*%
D17*
%TO.C,H3*%
X309880000Y-99060000D03*
%TD*%
D18*
%TO.C,C6*%
X156043600Y-240157000D03*
D19*
X154543600Y-240157000D03*
%TD*%
D20*
%TO.C,RN4*%
X107315000Y-131650000D03*
D13*
X109855000Y-131650000D03*
X112395000Y-131650000D03*
X114935000Y-131650000D03*
X117475000Y-131650000D03*
X120015000Y-131650000D03*
X122555000Y-131650000D03*
X125095000Y-131650000D03*
X127635000Y-131650000D03*
%TD*%
D21*
%TO.C,U10*%
X132715000Y-146050000D03*
X132715000Y-144780000D03*
X132715000Y-143510000D03*
X132715000Y-142240000D03*
X132715000Y-140970000D03*
X132715000Y-139700000D03*
X132715000Y-138430000D03*
X127765000Y-138430000D03*
X127765000Y-139700000D03*
X127765000Y-140970000D03*
X127765000Y-142240000D03*
X127765000Y-143510000D03*
X127765000Y-144780000D03*
X127765000Y-146050000D03*
%TD*%
D22*
%TO.C,C26*%
X169939000Y-148082000D03*
X168389000Y-148082000D03*
%TD*%
D23*
%TO.C,D6*%
X123952000Y-252500000D03*
X123952000Y-250000000D03*
%TD*%
D24*
%TO.C,R36*%
X158242000Y-200302500D03*
X158242000Y-198477500D03*
%TD*%
D25*
%TO.C,C27*%
X200406000Y-240551000D03*
X200406000Y-239001000D03*
%TD*%
D26*
%TO.C,OP1*%
X150780999Y-206375000D03*
D27*
X152780999Y-206375000D03*
X154780999Y-206375000D03*
%TD*%
D28*
%TO.C,U31*%
X281940000Y-132969000D03*
D29*
X284480000Y-132969000D03*
X287020000Y-132969000D03*
D30*
X289560000Y-132969000D03*
D29*
X292100000Y-132969000D03*
X294640000Y-132969000D03*
D30*
X297180000Y-132969000D03*
X297180000Y-125349000D03*
D29*
X294640000Y-125349000D03*
X292100000Y-125349000D03*
D30*
X289560000Y-125349000D03*
D29*
X287020000Y-125349000D03*
X284480000Y-125349000D03*
D30*
X281940000Y-125349000D03*
%TD*%
D21*
%TO.C,U43*%
X127570000Y-223520000D03*
X127570000Y-222250000D03*
X127570000Y-220980000D03*
X127570000Y-219710000D03*
X127570000Y-218440000D03*
X127570000Y-217170000D03*
X127570000Y-215900000D03*
X122620000Y-215900000D03*
X122620000Y-217170000D03*
X122620000Y-218440000D03*
X122620000Y-219710000D03*
X122620000Y-220980000D03*
X122620000Y-222250000D03*
X122620000Y-223520000D03*
%TD*%
D31*
%TO.C,U26*%
X209897500Y-169545000D03*
X209897500Y-170815000D03*
X209897500Y-172085000D03*
X209897500Y-173355000D03*
X209897500Y-174625000D03*
X209897500Y-175895000D03*
X209897500Y-177165000D03*
X209897500Y-178435000D03*
X209897500Y-179705000D03*
X209897500Y-180975000D03*
X216822500Y-180975000D03*
X216822500Y-179705000D03*
X216822500Y-178435000D03*
X216822500Y-177165000D03*
X216822500Y-175895000D03*
X216822500Y-174625000D03*
X216822500Y-173355000D03*
X216822500Y-172085000D03*
X216822500Y-170815000D03*
X216822500Y-169545000D03*
%TD*%
D32*
%TO.C,C12*%
X158496000Y-203949000D03*
X158496000Y-205499000D03*
%TD*%
%TO.C,C32*%
X158242000Y-213347000D03*
X158242000Y-214897000D03*
%TD*%
D33*
%TO.C,H6*%
X171796679Y-248907865D03*
%TD*%
D32*
%TO.C,C41*%
X276352000Y-141211000D03*
X276352000Y-142761000D03*
%TD*%
D34*
%TO.C,J16*%
X274447000Y-119253000D03*
D35*
X271907000Y-119253000D03*
X269367001Y-119253000D03*
%TD*%
D15*
%TO.C,U8*%
X147955000Y-200595000D03*
X149225000Y-200595000D03*
X150495000Y-200595000D03*
X151765000Y-200595000D03*
X153035000Y-200595000D03*
X154305000Y-200595000D03*
X155575000Y-200595000D03*
X155575000Y-195645000D03*
X154305000Y-195645000D03*
X153035000Y-195645000D03*
X151765000Y-195645000D03*
X150495000Y-195645000D03*
X149225000Y-195645000D03*
X147955000Y-195645000D03*
%TD*%
D36*
%TO.C,M1*%
X265450000Y-103722000D03*
D37*
X264550000Y-103722000D03*
D36*
X265450000Y-106262000D03*
D37*
X264550000Y-106262000D03*
D34*
X265450000Y-108802000D03*
D37*
X264550000Y-108802000D03*
D36*
X265450000Y-111342000D03*
D37*
X264550000Y-111342000D03*
D36*
X265450000Y-113882000D03*
D37*
X264550000Y-113882000D03*
D36*
X278130000Y-113792000D03*
D37*
X279030000Y-113792000D03*
D36*
X278130000Y-111252000D03*
D37*
X279030000Y-111252000D03*
D34*
X278130000Y-108712000D03*
D37*
X279030000Y-108712000D03*
D36*
X278130000Y-106172000D03*
D37*
X279030000Y-106172000D03*
D36*
X278130000Y-103632000D03*
D37*
X279030000Y-103632000D03*
%TD*%
D38*
%TO.C,U34*%
X196407000Y-137160000D03*
X196407000Y-138430000D03*
X196407000Y-139700000D03*
X196407000Y-140970000D03*
X196407000Y-142240000D03*
X196407000Y-143510000D03*
X196407000Y-144780000D03*
X201357000Y-144780000D03*
X201357000Y-143510000D03*
X201357000Y-142240000D03*
X201357000Y-140970000D03*
X201357000Y-139700000D03*
X201357000Y-138430000D03*
X201357000Y-137160000D03*
%TD*%
%TO.C,U12*%
X180405000Y-198728000D03*
X180405000Y-199998000D03*
X180405000Y-201268000D03*
X180405000Y-202538000D03*
X180405000Y-203808000D03*
X180405000Y-205078000D03*
X180405000Y-206348000D03*
X180405000Y-207618000D03*
X185355000Y-207618000D03*
X185355000Y-206348000D03*
X185355000Y-205078000D03*
X185355000Y-203808000D03*
X185355000Y-202538000D03*
X185355000Y-201268000D03*
X185355000Y-199998000D03*
X185355000Y-198728000D03*
%TD*%
D17*
%TO.C,H1*%
X96520000Y-248920000D03*
%TD*%
D22*
%TO.C,C8*%
X234709000Y-150622000D03*
X233159000Y-150622000D03*
%TD*%
D38*
%TO.C,U7*%
X180405000Y-152400000D03*
X180405000Y-153670000D03*
X180405000Y-154940000D03*
X180405000Y-156210000D03*
X180405000Y-157480000D03*
X180405000Y-158750000D03*
X180405000Y-160020000D03*
X185355000Y-160020000D03*
X185355000Y-158750000D03*
X185355000Y-157480000D03*
X185355000Y-156210000D03*
X185355000Y-154940000D03*
X185355000Y-153670000D03*
X185355000Y-152400000D03*
%TD*%
D39*
%TO.C,U13*%
X109220000Y-153035000D03*
D40*
X109220000Y-155575000D03*
X109220000Y-158115000D03*
X109220000Y-160655000D03*
X109220000Y-163195000D03*
X109220000Y-165735000D03*
X109220000Y-168275000D03*
X109220000Y-170815000D03*
X109220000Y-173355000D03*
X109220000Y-175895000D03*
X109220000Y-178435000D03*
X109220000Y-180975000D03*
X109220000Y-183515000D03*
X109220000Y-186055000D03*
X109220000Y-188595000D03*
X109220000Y-191135000D03*
X109220000Y-193675000D03*
X109220000Y-196215000D03*
X109220000Y-198755000D03*
X109220000Y-201295000D03*
X124460000Y-201295000D03*
X124460000Y-198755000D03*
X124460000Y-196215000D03*
X124460000Y-193675000D03*
X124460000Y-191135000D03*
X124460000Y-188595000D03*
X124460000Y-186055000D03*
X124460000Y-183515000D03*
X124460000Y-180975000D03*
X124460000Y-178435000D03*
X124460000Y-175895000D03*
X124460000Y-173355000D03*
X124460000Y-170815000D03*
X124460000Y-168275000D03*
X124460000Y-165735000D03*
X124460000Y-163195000D03*
X124460000Y-160655000D03*
X124460000Y-158115000D03*
X124460000Y-155575000D03*
X124460000Y-153035000D03*
%TD*%
D32*
%TO.C,C31*%
X197866000Y-205727000D03*
X197866000Y-207277000D03*
%TD*%
D41*
%TO.C,C7*%
X214871000Y-190500000D03*
X216421000Y-190500000D03*
%TD*%
D34*
%TO.C,J3*%
X253370000Y-119380000D03*
D35*
X250830000Y-119380000D03*
%TD*%
D38*
%TO.C,U4*%
X243905000Y-152400000D03*
X243905000Y-153670000D03*
X243905000Y-154940000D03*
X243905000Y-156210000D03*
X243905000Y-157480000D03*
X243905000Y-158750000D03*
X243905000Y-160020000D03*
X248855000Y-160020000D03*
X248855000Y-158750000D03*
X248855000Y-157480000D03*
X248855000Y-156210000D03*
X248855000Y-154940000D03*
X248855000Y-153670000D03*
X248855000Y-152400000D03*
%TD*%
D31*
%TO.C,U18*%
X209897500Y-192405000D03*
X209897500Y-193675000D03*
X209897500Y-194945000D03*
X209897500Y-196215000D03*
X209897500Y-197485000D03*
X209897500Y-198755000D03*
X209897500Y-200025000D03*
X209897500Y-201295000D03*
X209897500Y-202565000D03*
X209897500Y-203835000D03*
X216822500Y-203835000D03*
X216822500Y-202565000D03*
X216822500Y-201295000D03*
X216822500Y-200025000D03*
X216822500Y-198755000D03*
X216822500Y-197485000D03*
X216822500Y-196215000D03*
X216822500Y-194945000D03*
X216822500Y-193675000D03*
X216822500Y-192405000D03*
%TD*%
D20*
%TO.C,RN1*%
X189865000Y-191135000D03*
D13*
X189865000Y-193675000D03*
X189865000Y-196215000D03*
X189865000Y-198755000D03*
X189865000Y-201295000D03*
X189865000Y-203835000D03*
X189865000Y-206375000D03*
X189865000Y-208915000D03*
X189865000Y-211455000D03*
%TD*%
D42*
%TO.C,R6*%
X257810000Y-176633500D03*
X257810000Y-178458500D03*
%TD*%
D43*
%TO.C,U15*%
X137160000Y-145205000D03*
X138430001Y-145205000D03*
X139700000Y-145205000D03*
X140970000Y-145205000D03*
X142240000Y-145204999D03*
X143510000Y-145205000D03*
X144780000Y-145205000D03*
X146050000Y-145205000D03*
X147320000Y-145205000D03*
X148590000Y-145204999D03*
X149860000Y-145205000D03*
X151130000Y-145205000D03*
X152399999Y-145205000D03*
X153670000Y-145205000D03*
X153670000Y-138005000D03*
X152399999Y-138005000D03*
X151130000Y-138005000D03*
X149860000Y-138005000D03*
X148590000Y-138005001D03*
X147320000Y-138005000D03*
X146050000Y-138005000D03*
X144780000Y-138005000D03*
X143510000Y-138005000D03*
X142240000Y-138005001D03*
X140970000Y-138005000D03*
X139700000Y-138005000D03*
X138430001Y-138005000D03*
X137160000Y-138005000D03*
%TD*%
D25*
%TO.C,C14*%
X108712000Y-139713000D03*
X108712000Y-138163000D03*
%TD*%
D41*
%TO.C,C9*%
X144767000Y-212090000D03*
X146317000Y-212090000D03*
%TD*%
D44*
%TO.C,J18*%
X255690000Y-103155331D03*
X230690000Y-103155331D03*
D20*
X248730000Y-104575331D03*
D13*
X245960000Y-104575331D03*
X243190000Y-104575331D03*
X240420000Y-104575331D03*
X237650000Y-104575331D03*
X247345000Y-101735331D03*
X244575000Y-101735331D03*
X241805000Y-101735331D03*
X239035000Y-101735331D03*
%TD*%
D24*
%TO.C,R14*%
X144653000Y-233195500D03*
X144653000Y-231370500D03*
%TD*%
D26*
%TO.C,OP4*%
X147256999Y-221837000D03*
D27*
X149256999Y-221837000D03*
X151256999Y-221837000D03*
X147256999Y-219837000D03*
X149256999Y-219837000D03*
X151256999Y-219837000D03*
%TD*%
D45*
%TO.C,SW2*%
X294679000Y-109216000D03*
X299379000Y-109216000D03*
X304079000Y-109216000D03*
X296879000Y-96266000D03*
X301879000Y-96266000D03*
%TD*%
D31*
%TO.C,U17*%
X197832500Y-192405000D03*
X197832500Y-193675000D03*
X197832500Y-194945000D03*
X197832500Y-196215000D03*
X197832500Y-197485000D03*
X197832500Y-198755000D03*
X197832500Y-200025000D03*
X197832500Y-201295000D03*
X197832500Y-202565000D03*
X197832500Y-203835000D03*
X204757500Y-203835000D03*
X204757500Y-202565000D03*
X204757500Y-201295000D03*
X204757500Y-200025000D03*
X204757500Y-198755000D03*
X204757500Y-197485000D03*
X204757500Y-196215000D03*
X204757500Y-194945000D03*
X204757500Y-193675000D03*
X204757500Y-192405000D03*
%TD*%
D46*
%TO.C,D2*%
X154305000Y-251460000D03*
D47*
X156845000Y-251460000D03*
%TD*%
D34*
%TO.C,J10*%
X97663000Y-207137000D03*
D35*
X97663000Y-209677000D03*
X97663000Y-212217000D03*
X97663000Y-214757000D03*
%TD*%
D33*
%TO.C,H5*%
X309777694Y-151929173D03*
%TD*%
D24*
%TO.C,R17*%
X260350000Y-154582500D03*
X260350000Y-152757500D03*
%TD*%
D48*
%TO.C,R29*%
X169521500Y-237998000D03*
X171346500Y-237998000D03*
%TD*%
D20*
%TO.C,RN3*%
X224155000Y-171450000D03*
D13*
X224155000Y-173990000D03*
X224155000Y-176530000D03*
X224155000Y-179070000D03*
X224155000Y-181610000D03*
X224155000Y-184150000D03*
X224155000Y-186690000D03*
X224155000Y-189230000D03*
X224155000Y-191770000D03*
%TD*%
D24*
%TO.C,R1*%
X151765000Y-248181500D03*
X151765000Y-246356500D03*
%TD*%
D22*
%TO.C,C23*%
X193815000Y-145034000D03*
X192265000Y-145034000D03*
%TD*%
D24*
%TO.C,R10*%
X268097000Y-154582500D03*
X268097000Y-152757500D03*
%TD*%
%TO.C,R21*%
X149225000Y-227123000D03*
X149225000Y-225298000D03*
%TD*%
D20*
%TO.C,RN2*%
X94615000Y-180339999D03*
D13*
X94615000Y-177799999D03*
X94615000Y-175259999D03*
X94615000Y-172719999D03*
X94615000Y-170179999D03*
X94615000Y-167639999D03*
X94615000Y-165099999D03*
X94615000Y-162559999D03*
X94615000Y-160019999D03*
%TD*%
D49*
%TO.C,C3*%
X138153449Y-109466688D03*
D13*
X135653449Y-109466688D03*
%TD*%
D24*
%TO.C,R25*%
X237871000Y-240561500D03*
X237871000Y-238736500D03*
%TD*%
D50*
%TO.C,U27*%
X111125000Y-145067500D03*
X112395000Y-145067500D03*
X113665000Y-145067500D03*
X114935000Y-145067500D03*
X116205000Y-145067500D03*
X117475000Y-145067500D03*
X118745000Y-145067500D03*
X120015000Y-145067500D03*
X121285000Y-145067500D03*
X122555000Y-145067500D03*
X122555000Y-138142500D03*
X121285000Y-138142500D03*
X120015000Y-138142500D03*
X118745000Y-138142500D03*
X117475000Y-138142500D03*
X116205000Y-138142500D03*
X114935000Y-138142500D03*
X113665000Y-138142500D03*
X112395000Y-138142500D03*
X111125000Y-138142500D03*
%TD*%
D25*
%TO.C,C24*%
X106172000Y-180099000D03*
X106172000Y-178549000D03*
%TD*%
D51*
%TO.C,R20*%
X183157500Y-251968000D03*
X181332500Y-251968000D03*
%TD*%
D49*
%TO.C,C4*%
X297473380Y-115697000D03*
D13*
X294973380Y-115697000D03*
%TD*%
D26*
%TO.C,OP2*%
X240919000Y-112776000D03*
D27*
X238919000Y-112776000D03*
X236919000Y-112776000D03*
%TD*%
D38*
%TO.C,U9*%
X228030000Y-152400000D03*
X228030000Y-153670000D03*
X228030000Y-154940000D03*
X228030000Y-156210000D03*
X228030000Y-157480000D03*
X228030000Y-158750000D03*
X228030000Y-160020000D03*
X232980000Y-160020000D03*
X232980000Y-158750000D03*
X232980000Y-157480000D03*
X232980000Y-156210000D03*
X232980000Y-154940000D03*
X232980000Y-153670000D03*
X232980000Y-152400000D03*
%TD*%
D41*
%TO.C,C1*%
X140830000Y-203962000D03*
X142380000Y-203962000D03*
%TD*%
%TO.C,C21*%
X213093000Y-161544000D03*
X214643000Y-161544000D03*
%TD*%
D24*
%TO.C,R7*%
X232283000Y-115466500D03*
X232283000Y-113641500D03*
%TD*%
%TO.C,R9*%
X254127000Y-115466500D03*
X254127000Y-113641500D03*
%TD*%
D52*
%TO.C,SW1*%
X312638000Y-103577000D03*
X312602000Y-112677000D03*
X308138000Y-103577000D03*
X308102000Y-112677000D03*
%TD*%
D24*
%TO.C,R31*%
X136940000Y-233162500D03*
X136940000Y-231337500D03*
%TD*%
D31*
%TO.C,U23*%
X242917500Y-183515000D03*
X242917500Y-184785000D03*
X242917500Y-186055000D03*
X242917500Y-187325000D03*
X242917500Y-188595000D03*
X242917500Y-189865000D03*
X242917500Y-191135000D03*
X242917500Y-192405000D03*
X242917500Y-193675000D03*
X242917500Y-194945000D03*
X249842500Y-194945000D03*
X249842500Y-193675000D03*
X249842500Y-192405000D03*
X249842500Y-191135000D03*
X249842500Y-189865000D03*
X249842500Y-188595000D03*
X249842500Y-187325000D03*
X249842500Y-186055000D03*
X249842500Y-184785000D03*
X249842500Y-183515000D03*
%TD*%
D53*
%TO.C,U46*%
X274701000Y-137733000D03*
X273431000Y-137733000D03*
X272161000Y-137733000D03*
X270891000Y-137733000D03*
X269621000Y-137733000D03*
X268351000Y-137733000D03*
X267081000Y-137733000D03*
X265811000Y-137733000D03*
X265811000Y-142683000D03*
X267081000Y-142683000D03*
X268351000Y-142683000D03*
X269621000Y-142683000D03*
X270891000Y-142683000D03*
X272161000Y-142683000D03*
X273431000Y-142683000D03*
X274701000Y-142683000D03*
%TD*%
D48*
%TO.C,R28*%
X100299000Y-131313000D03*
X102124000Y-131313000D03*
%TD*%
D25*
%TO.C,C37*%
X140970000Y-231535772D03*
X140970000Y-229985772D03*
%TD*%
D42*
%TO.C,R18*%
X265430000Y-176633500D03*
X265430000Y-178458500D03*
%TD*%
D39*
%TO.C,U22*%
X151130000Y-150495000D03*
D40*
X151130000Y-153035000D03*
X151130000Y-155575000D03*
X151130000Y-158115000D03*
X151130000Y-160655000D03*
X151130000Y-163195000D03*
X151130000Y-165735000D03*
X151130000Y-168275000D03*
X151130000Y-170815000D03*
X151130000Y-173355000D03*
X151130000Y-175895000D03*
X151130000Y-178435000D03*
X151130000Y-180975000D03*
X151130000Y-183515000D03*
X151130000Y-186055000D03*
X151130000Y-188595000D03*
X166370000Y-188595000D03*
X166370000Y-186055000D03*
X166370000Y-183515000D03*
X166370000Y-180975000D03*
X166370000Y-178435000D03*
X166370000Y-175895000D03*
X166370000Y-173355000D03*
X166370000Y-170815000D03*
X166370000Y-168275000D03*
X166370000Y-165735000D03*
X166370000Y-163195000D03*
X166370000Y-160655000D03*
X166370000Y-158115000D03*
X166370000Y-155575000D03*
X166370000Y-153035000D03*
X166370000Y-150495000D03*
%TD*%
D24*
%TO.C,R33*%
X134940000Y-233162500D03*
X134940000Y-231337500D03*
%TD*%
D54*
%TO.C,J9*%
X169678501Y-101805501D03*
D35*
X169678501Y-99265501D03*
X172218501Y-101805501D03*
X172218501Y-99265501D03*
X174758500Y-101805501D03*
X174758501Y-99265501D03*
X177298501Y-101805501D03*
X177298501Y-99265501D03*
X179838501Y-101805501D03*
X179838501Y-99265501D03*
X182378501Y-101805501D03*
X182378501Y-99265501D03*
X184918501Y-101805501D03*
X184918501Y-99265501D03*
X187458502Y-101805501D03*
X187458501Y-99265501D03*
X189998501Y-101805501D03*
X189998501Y-99265501D03*
X192538501Y-101805501D03*
X192538501Y-99265501D03*
X195078501Y-101805501D03*
X195078501Y-99265501D03*
X197618500Y-101805501D03*
X197618501Y-99265501D03*
X200158501Y-101805501D03*
X200158501Y-99265501D03*
X202698501Y-101805501D03*
X202698501Y-99265501D03*
X205238501Y-101805501D03*
X205238501Y-99265501D03*
X207778500Y-101805501D03*
X207778501Y-99265501D03*
X210318502Y-101805501D03*
X210318501Y-99265501D03*
X212858501Y-101805501D03*
X212858501Y-99265501D03*
X215398501Y-101805501D03*
X215398501Y-99265501D03*
X217938501Y-101805501D03*
X217938501Y-99265501D03*
%TD*%
D24*
%TO.C,R12*%
X264033000Y-154582500D03*
X264033000Y-152757500D03*
%TD*%
D53*
%TO.C,U38*%
X167640000Y-212790000D03*
X166370000Y-212790000D03*
X165100000Y-212790000D03*
X163830000Y-212790000D03*
X162560000Y-212790000D03*
X161290000Y-212790000D03*
X160020000Y-212790000D03*
X160020000Y-217740000D03*
X161290000Y-217740000D03*
X162560000Y-217740000D03*
X163830000Y-217740000D03*
X165100000Y-217740000D03*
X166370000Y-217740000D03*
X167640000Y-217740000D03*
%TD*%
D55*
%TO.C,U40*%
X305114999Y-136403500D03*
X304165000Y-136403500D03*
X303215001Y-136403500D03*
X303215001Y-138678500D03*
X305114999Y-138678500D03*
%TD*%
D33*
%TO.C,H7*%
X171754750Y-151938471D03*
%TD*%
D41*
%TO.C,C33*%
X189890000Y-188468000D03*
X191440000Y-188468000D03*
%TD*%
D21*
%TO.C,U39*%
X185355000Y-222469000D03*
X185355000Y-221199000D03*
X185355000Y-219929000D03*
X185355000Y-218659000D03*
X185355000Y-217389000D03*
X185355000Y-216119000D03*
X185355000Y-214849000D03*
X180405000Y-214849000D03*
X180405000Y-216119000D03*
X180405000Y-217389000D03*
X180405000Y-218659000D03*
X180405000Y-219929000D03*
X180405000Y-221199000D03*
X180405000Y-222469000D03*
%TD*%
D26*
%TO.C,OP8*%
X259715000Y-120380000D03*
D27*
X259715000Y-118380000D03*
%TD*%
D17*
%TO.C,H2*%
X309880000Y-248920000D03*
%TD*%
D41*
%TO.C,C25*%
X162801000Y-132842000D03*
X164351000Y-132842000D03*
%TD*%
D25*
%TO.C,C35*%
X179832000Y-226327000D03*
X179832000Y-224777000D03*
%TD*%
%TO.C,C2*%
X279527000Y-126886001D03*
X279527000Y-125336001D03*
%TD*%
D56*
%TO.C,U35*%
X306070000Y-158115000D03*
D30*
X303530000Y-158115000D03*
X300990000Y-158115000D03*
X298450000Y-158115000D03*
X295910000Y-158115000D03*
X293370000Y-158115000D03*
X290830000Y-158115000D03*
X288290000Y-158115000D03*
X285750000Y-158115000D03*
X283210000Y-158115000D03*
X280670000Y-158115000D03*
X278130000Y-158115000D03*
X275590000Y-158115000D03*
X273050000Y-158115000D03*
X270510000Y-158115000D03*
X267970000Y-158115000D03*
X265430000Y-158115000D03*
X262890000Y-158115000D03*
X260350000Y-158115000D03*
X257810000Y-158115000D03*
X257810000Y-173355000D03*
X260350000Y-173355000D03*
X262890000Y-173355000D03*
X265430000Y-173355000D03*
X267970000Y-173355000D03*
X270510000Y-173355000D03*
X273050000Y-173355000D03*
X275590000Y-173355000D03*
X278130000Y-173355000D03*
X280670000Y-173355000D03*
X283210000Y-173355000D03*
X285750000Y-173355000D03*
X288290000Y-173355000D03*
X290830000Y-173355000D03*
X293370000Y-173355000D03*
X295910000Y-173355000D03*
X298450000Y-173355000D03*
X300990000Y-173355000D03*
X303530000Y-173355000D03*
X306070000Y-173355000D03*
%TD*%
D50*
%TO.C,U30*%
X165989000Y-140217500D03*
X167259000Y-140217500D03*
X168529000Y-140217500D03*
X169799000Y-140217500D03*
X171069000Y-140217500D03*
X172339000Y-140217500D03*
X173609000Y-140217500D03*
X174879000Y-140217500D03*
X176149000Y-140217500D03*
X177419000Y-140217500D03*
X177419000Y-133292500D03*
X176149000Y-133292500D03*
X174879000Y-133292500D03*
X173609000Y-133292500D03*
X172339000Y-133292500D03*
X171069000Y-133292500D03*
X169799000Y-133292500D03*
X168529000Y-133292500D03*
X167259000Y-133292500D03*
X165989000Y-133292500D03*
%TD*%
D26*
%TO.C,OP3*%
X245269000Y-112776000D03*
D27*
X247269000Y-112776000D03*
X249269000Y-112776000D03*
%TD*%
D57*
%TO.C,J4*%
X286385000Y-107727000D03*
D58*
X286385000Y-101727000D03*
%TD*%
D34*
%TO.C,J17*%
X202946000Y-241051000D03*
D35*
X202946000Y-238511000D03*
X205486000Y-241051000D03*
X205486000Y-238511000D03*
X208026000Y-241051000D03*
X208026000Y-238511000D03*
X210566000Y-241051000D03*
X210566000Y-238511000D03*
X213106000Y-241051000D03*
X213106000Y-238511000D03*
X215646000Y-241051000D03*
X215646000Y-238511000D03*
X218186000Y-241051000D03*
X218186000Y-238511000D03*
X220726000Y-241051000D03*
X220726000Y-238511000D03*
X223266000Y-241051000D03*
X223266000Y-238511000D03*
X225806000Y-241051000D03*
X225806000Y-238511000D03*
%TD*%
D26*
%TO.C,JP3*%
X98690000Y-126250000D03*
D27*
X100690000Y-126250000D03*
%TD*%
D32*
%TO.C,C19*%
X285750000Y-152895000D03*
X285750000Y-154445000D03*
%TD*%
D26*
%TO.C,JP2*%
X191690000Y-107000000D03*
D27*
X193690000Y-107000000D03*
%TD*%
D25*
%TO.C,C30*%
X146304000Y-229121000D03*
X146304000Y-227571000D03*
%TD*%
D26*
%TO.C,OP6*%
X174212000Y-216757000D03*
D27*
X174212000Y-214757000D03*
X174212000Y-212757000D03*
X172212000Y-216757000D03*
X172212000Y-214757000D03*
X172212000Y-212757000D03*
%TD*%
D32*
%TO.C,C18*%
X243840000Y-161531000D03*
X243840000Y-163081000D03*
%TD*%
D24*
%TO.C,R2*%
X156845000Y-248181500D03*
X156845000Y-246356500D03*
%TD*%
D26*
%TO.C,JP4*%
X191690000Y-112250000D03*
D27*
X193690000Y-112250000D03*
%TD*%
D48*
%TO.C,R32*%
X123527500Y-241750000D03*
X125352500Y-241750000D03*
%TD*%
D36*
%TO.C,U45*%
X104140000Y-251968000D03*
D37*
X103240000Y-251968000D03*
D36*
X104140000Y-249428000D03*
D37*
X103240000Y-249428000D03*
D34*
X104140000Y-246888000D03*
D37*
X103240000Y-246888000D03*
D36*
X104140000Y-244348000D03*
D37*
X103240000Y-244348000D03*
D36*
X104140000Y-241808000D03*
D37*
X103240000Y-241808000D03*
D36*
X104140000Y-239268000D03*
D37*
X103240000Y-239268000D03*
D36*
X104140000Y-236728000D03*
D37*
X103240000Y-236728000D03*
D34*
X104140000Y-234188000D03*
D37*
X103240000Y-234188000D03*
D36*
X104140000Y-231648000D03*
D37*
X103240000Y-231648000D03*
D36*
X106680000Y-231648000D03*
D59*
X106680000Y-230748000D03*
D36*
X109220000Y-231648001D03*
D59*
X109220000Y-230748001D03*
D36*
X111760000Y-231647999D03*
D59*
X111760000Y-230747999D03*
D36*
X114300000Y-231648000D03*
D59*
X114300000Y-230748000D03*
D36*
X116840000Y-231648000D03*
D59*
X116840000Y-230748000D03*
D36*
X119380000Y-231648000D03*
D37*
X120280000Y-231648000D03*
D36*
X119380000Y-234188000D03*
D37*
X120280000Y-234188000D03*
D36*
X119380000Y-236728000D03*
D37*
X120280000Y-236728000D03*
D34*
X119380000Y-239268000D03*
D37*
X120280000Y-239268000D03*
D36*
X119380000Y-241808000D03*
D37*
X120280000Y-241808000D03*
D36*
X119380000Y-244348000D03*
D37*
X120280000Y-244348000D03*
D36*
X119380000Y-246888000D03*
D37*
X120280000Y-246888000D03*
D36*
X119380000Y-249428000D03*
D37*
X120280000Y-249428000D03*
D34*
X119380000Y-251968000D03*
D37*
X120280000Y-251968000D03*
%TD*%
D53*
%TO.C,U44*%
X155575000Y-229300000D03*
X154305000Y-229300000D03*
X153035000Y-229300000D03*
X151765000Y-229300000D03*
X150495000Y-229300000D03*
X149225000Y-229300000D03*
X147955000Y-229300000D03*
X147955000Y-234250000D03*
X149225000Y-234250000D03*
X150495000Y-234250000D03*
X151765000Y-234250000D03*
X153035000Y-234250000D03*
X154305000Y-234250000D03*
X155575000Y-234250000D03*
%TD*%
D22*
%TO.C,C28*%
X228105000Y-171450000D03*
X226555000Y-171450000D03*
%TD*%
D26*
%TO.C,JP6*%
X280247869Y-119363742D03*
D27*
X280247869Y-117363742D03*
%TD*%
D34*
%TO.C,J1*%
X309113000Y-116839999D03*
D35*
X311653000Y-116839999D03*
%TD*%
D41*
%TO.C,C42*%
X269862000Y-135382000D03*
X271412000Y-135382000D03*
%TD*%
D22*
%TO.C,C10*%
X238773000Y-181610000D03*
X237223000Y-181610000D03*
%TD*%
D38*
%TO.C,U14*%
X196280000Y-167640000D03*
X196280000Y-168910000D03*
X196280000Y-170180000D03*
X196280000Y-171450000D03*
X196280000Y-172720000D03*
X196280000Y-173990000D03*
X196280000Y-175260000D03*
X201230000Y-175260000D03*
X201230000Y-173990000D03*
X201230000Y-172720000D03*
X201230000Y-171450000D03*
X201230000Y-170180000D03*
X201230000Y-168910000D03*
X201230000Y-167640000D03*
%TD*%
D56*
%TO.C,U33*%
X306070000Y-186690000D03*
D30*
X303530000Y-186690000D03*
X300990000Y-186690000D03*
X298450000Y-186690000D03*
X295910000Y-186690000D03*
X293370000Y-186690000D03*
X290830000Y-186690000D03*
X288290000Y-186690000D03*
X285750000Y-186690000D03*
X283210000Y-186690000D03*
X280670000Y-186690000D03*
X278130000Y-186690000D03*
X275590000Y-186690000D03*
X273050000Y-186690000D03*
X273050000Y-201930000D03*
X275590000Y-201930000D03*
X278130000Y-201930000D03*
X280670000Y-201930000D03*
X283210000Y-201930000D03*
X285750000Y-201930000D03*
X288290000Y-201930000D03*
X290830000Y-201930000D03*
X293370000Y-201930000D03*
X295910000Y-201930000D03*
X298450000Y-201930000D03*
X300990000Y-201930000D03*
X303530000Y-201930000D03*
X306070000Y-201930000D03*
%TD*%
D41*
%TO.C,C34*%
X291579000Y-204470000D03*
X293129000Y-204470000D03*
%TD*%
D53*
%TO.C,U32*%
X167640000Y-204154000D03*
X166370000Y-204154000D03*
X165100000Y-204154000D03*
X163830000Y-204154000D03*
X162560000Y-204154000D03*
X161290000Y-204154000D03*
X160020000Y-204154000D03*
X160020000Y-209104000D03*
X161290000Y-209104000D03*
X162560000Y-209104000D03*
X163830000Y-209104000D03*
X165100000Y-209104000D03*
X166370000Y-209104000D03*
X167640000Y-209104000D03*
%TD*%
D15*
%TO.C,U11*%
X160020000Y-200468000D03*
X161290000Y-200468000D03*
X162560000Y-200468000D03*
X163830000Y-200468000D03*
X165100000Y-200468000D03*
X166370000Y-200468000D03*
X167640000Y-200468000D03*
X167640000Y-195518000D03*
X166370000Y-195518000D03*
X165100000Y-195518000D03*
X163830000Y-195518000D03*
X162560000Y-195518000D03*
X161290000Y-195518000D03*
X160020000Y-195518000D03*
%TD*%
D42*
%TO.C,R5*%
X156845000Y-224512500D03*
X156845000Y-226337500D03*
%TD*%
D34*
%TO.C,M2*%
X187565000Y-249660000D03*
D35*
X190105000Y-249660000D03*
X192645000Y-249660000D03*
X195185000Y-249660000D03*
X197725000Y-249660000D03*
X200265000Y-249660000D03*
X202805000Y-249660000D03*
X205345000Y-249660000D03*
X207885000Y-249660000D03*
X210425000Y-249660000D03*
X212965000Y-249660000D03*
X215505000Y-249660000D03*
X218045000Y-249660000D03*
X220585000Y-249660000D03*
X223125000Y-249660000D03*
X225665000Y-249660000D03*
X228205000Y-249660000D03*
X230745000Y-249660000D03*
X233285000Y-249660000D03*
X235825000Y-249660000D03*
X238365000Y-249660000D03*
X240905000Y-249660000D03*
%TD*%
D41*
%TO.C,C16*%
X228587000Y-161544000D03*
X230137000Y-161544000D03*
%TD*%
D38*
%TO.C,U5*%
X212155001Y-152400000D03*
X212155001Y-153670000D03*
X212155001Y-154940000D03*
X212155001Y-156210000D03*
X212155001Y-157480000D03*
X212155001Y-158750000D03*
X212155001Y-160020000D03*
X217105001Y-160020000D03*
X217105001Y-158750000D03*
X217105001Y-157480000D03*
X217105001Y-156210000D03*
X217105001Y-154940000D03*
X217105001Y-153670000D03*
X217105001Y-152400000D03*
%TD*%
D46*
%TO.C,D4*%
X164465000Y-251460000D03*
D47*
X167005000Y-251460000D03*
%TD*%
D60*
%TO.C,U25*%
X104775000Y-174625000D03*
X104775000Y-173355000D03*
X104775000Y-172085000D03*
X104775000Y-170815000D03*
X104775000Y-169545000D03*
X104775000Y-168275000D03*
X104775000Y-167005000D03*
X104775000Y-165735000D03*
X104775000Y-164465000D03*
X104775000Y-163195000D03*
X97850000Y-163195000D03*
X97850000Y-164465000D03*
X97850000Y-165735000D03*
X97850000Y-167005000D03*
X97850000Y-168275000D03*
X97850000Y-169545000D03*
X97850000Y-170815000D03*
X97850000Y-172085000D03*
X97850000Y-173355000D03*
X97850000Y-174625000D03*
%TD*%
D61*
%TO.C,U37*%
X125034001Y-231642500D03*
X125984000Y-231642500D03*
X126933999Y-231642500D03*
X126933999Y-229367500D03*
X125034001Y-229367500D03*
%TD*%
D39*
%TO.C,U21*%
X130175000Y-150495000D03*
D40*
X130175000Y-153035000D03*
X130175000Y-155575000D03*
X130175000Y-158115000D03*
X130175000Y-160655000D03*
X130175000Y-163195000D03*
X130175000Y-165735000D03*
X130175000Y-168275000D03*
X130175000Y-170815000D03*
X130175000Y-173355000D03*
X130175000Y-175895000D03*
X130175000Y-178435000D03*
X130175000Y-180975000D03*
X130175000Y-183515000D03*
X130175000Y-186055000D03*
X130175000Y-188595000D03*
X145415000Y-188595000D03*
X145415000Y-186055000D03*
X145415000Y-183515000D03*
X145415000Y-180975000D03*
X145415000Y-178435000D03*
X145415000Y-175895000D03*
X145415000Y-173355000D03*
X145415000Y-170815000D03*
X145415000Y-168275000D03*
X145415000Y-165735000D03*
X145415000Y-163195000D03*
X145415000Y-160655000D03*
X145415000Y-158115000D03*
X145415000Y-155575000D03*
X145415000Y-153035000D03*
X145415000Y-150495000D03*
%TD*%
D53*
%TO.C,U42*%
X171450000Y-221045000D03*
X170180000Y-221045000D03*
X168910000Y-221045000D03*
X167640000Y-221045000D03*
X166370000Y-221045000D03*
X165100000Y-221045000D03*
X163830000Y-221045000D03*
X163830000Y-225995000D03*
X165100000Y-225995000D03*
X166370000Y-225995000D03*
X167640000Y-225995000D03*
X168910000Y-225995000D03*
X170180000Y-225995000D03*
X171450000Y-225995000D03*
%TD*%
D48*
%TO.C,R35*%
X202795500Y-187452000D03*
X204620500Y-187452000D03*
%TD*%
D42*
%TO.C,R22*%
X293370000Y-152884500D03*
X293370000Y-154709500D03*
%TD*%
D20*
%TO.C,RN5*%
X160782000Y-144526000D03*
D13*
X163322000Y-144526000D03*
X165862000Y-144526000D03*
X168402000Y-144526000D03*
X170942000Y-144526000D03*
X173482000Y-144526000D03*
X176022000Y-144526000D03*
X178562000Y-144526000D03*
X181102000Y-144526000D03*
%TD*%
D32*
%TO.C,C29*%
X248920000Y-149339000D03*
X248920000Y-150889000D03*
%TD*%
D62*
%TO.C,U36*%
X117475000Y-215960000D03*
X116205000Y-215960000D03*
X114935000Y-215960000D03*
X113665000Y-215960000D03*
X112395000Y-215960000D03*
X111125000Y-215960000D03*
X109855000Y-215960000D03*
X108585000Y-215960000D03*
X107315000Y-215960000D03*
X106045000Y-215960000D03*
X104775000Y-215960000D03*
X103505000Y-215960000D03*
X103505000Y-222885000D03*
X104775000Y-222885000D03*
X106045000Y-222885000D03*
X107315000Y-222885000D03*
X108585000Y-222885000D03*
X109855000Y-222885000D03*
X111125000Y-222885000D03*
X112395000Y-222885000D03*
X113665000Y-222885000D03*
X114935000Y-222885000D03*
X116205000Y-222885000D03*
X117475000Y-222885000D03*
%TD*%
D41*
%TO.C,C40*%
X169405000Y-199898000D03*
X170955000Y-199898000D03*
%TD*%
D22*
%TO.C,C38*%
X274587000Y-135382000D03*
X273037000Y-135382000D03*
%TD*%
D32*
%TO.C,C11*%
X173228000Y-223507000D03*
X173228000Y-225057000D03*
%TD*%
D26*
%TO.C,JP1*%
X194190000Y-129250000D03*
D27*
X194190000Y-127250000D03*
%TD*%
D51*
%TO.C,R34*%
X146962500Y-206502000D03*
X145137500Y-206502000D03*
%TD*%
D25*
%TO.C,C17*%
X185420000Y-227851000D03*
X185420000Y-226301000D03*
%TD*%
D53*
%TO.C,U41*%
X171450000Y-229300000D03*
X170180000Y-229300000D03*
X168910000Y-229300000D03*
X167640000Y-229300000D03*
X166370000Y-229300000D03*
X165100000Y-229300000D03*
X163830000Y-229300000D03*
X163830000Y-234250000D03*
X165100000Y-234250000D03*
X166370000Y-234250000D03*
X167640000Y-234250000D03*
X168910000Y-234250000D03*
X170180000Y-234250000D03*
X171450000Y-234250000D03*
%TD*%
D24*
%TO.C,R24*%
X120650000Y-227861500D03*
X120650000Y-226036500D03*
%TD*%
D31*
%TO.C,U28*%
X209897500Y-217805000D03*
X209897500Y-219075000D03*
X209897500Y-220345000D03*
X209897500Y-221615000D03*
X209897500Y-222885000D03*
X209897500Y-224155000D03*
X209897500Y-225425000D03*
X209897500Y-226695000D03*
X209897500Y-227965000D03*
X209897500Y-229235000D03*
X216822500Y-229235000D03*
X216822500Y-227965000D03*
X216822500Y-226695000D03*
X216822500Y-225425000D03*
X216822500Y-224155000D03*
X216822500Y-222885000D03*
X216822500Y-221615000D03*
X216822500Y-220345000D03*
X216822500Y-219075000D03*
X216822500Y-217805000D03*
%TD*%
D54*
%TO.C,J8*%
X109988501Y-101805501D03*
D35*
X109988501Y-99265501D03*
X112528501Y-101805501D03*
X112528501Y-99265501D03*
X115068500Y-101805501D03*
X115068501Y-99265501D03*
X117608501Y-101805501D03*
X117608501Y-99265501D03*
X120148501Y-101805501D03*
X120148501Y-99265501D03*
X122688501Y-101805501D03*
X122688501Y-99265501D03*
X125228501Y-101805501D03*
X125228501Y-99265501D03*
X127768502Y-101805501D03*
X127768501Y-99265501D03*
X130308501Y-101805501D03*
X130308501Y-99265501D03*
X132848501Y-101805501D03*
X132848501Y-99265501D03*
X135388501Y-101805501D03*
X135388501Y-99265501D03*
X137928500Y-101805501D03*
X137928501Y-99265501D03*
X140468501Y-101805501D03*
X140468501Y-99265501D03*
X143008501Y-101805501D03*
X143008501Y-99265501D03*
X145548501Y-101805501D03*
X145548501Y-99265501D03*
X148088500Y-101805501D03*
X148088501Y-99265501D03*
X150628502Y-101805501D03*
X150628501Y-99265501D03*
X153168501Y-101805501D03*
X153168501Y-99265501D03*
X155708501Y-101805501D03*
X155708501Y-99265501D03*
X158248501Y-101805501D03*
X158248501Y-99265501D03*
%TD*%
D24*
%TO.C,R3*%
X161925000Y-248181500D03*
X161925000Y-246356500D03*
%TD*%
D63*
%TO.C,D7*%
X142748000Y-233110000D03*
X142748000Y-231710000D03*
%TD*%
D32*
%TO.C,C36*%
X160504757Y-226124638D03*
X160504757Y-227674638D03*
%TD*%
D51*
%TO.C,R27*%
X125880500Y-248158000D03*
X124055500Y-248158000D03*
%TD*%
D24*
%TO.C,R30*%
X138940000Y-233162500D03*
X138940000Y-231337500D03*
%TD*%
D42*
%TO.C,R8*%
X258040000Y-113641500D03*
X258040000Y-115466500D03*
%TD*%
D26*
%TO.C,JP5*%
X124222000Y-245618000D03*
D27*
X126222000Y-245618000D03*
%TD*%
D46*
%TO.C,D3*%
X159385000Y-251460000D03*
D47*
X161925000Y-251460000D03*
%TD*%
D42*
%TO.C,R23*%
X130302000Y-229719500D03*
X130302000Y-231544500D03*
%TD*%
D51*
%TO.C,R26*%
X305077500Y-142367000D03*
X303252500Y-142367000D03*
%TD*%
D20*
%TO.C,RN7*%
X210058000Y-128651000D03*
D13*
X212598000Y-128651000D03*
X215138000Y-128651000D03*
X217678000Y-128651000D03*
X220218000Y-128651000D03*
X222758000Y-128651000D03*
X225298000Y-128651000D03*
X227838000Y-128651000D03*
X230378000Y-128651000D03*
%TD*%
D26*
%TO.C,OP7*%
X289560000Y-139192000D03*
D27*
X287560000Y-139192000D03*
X289560000Y-141192000D03*
X287560000Y-141192000D03*
%TD*%
D20*
%TO.C,RN6*%
X136906000Y-131699000D03*
D13*
X139446000Y-131699000D03*
X141986000Y-131699000D03*
X144526000Y-131699000D03*
X147066000Y-131699000D03*
X149606000Y-131699000D03*
X152146000Y-131699000D03*
X154686000Y-131699000D03*
X157226000Y-131699000D03*
%TD*%
D55*
%TO.C,Q1*%
X235519000Y-238771000D03*
X233619000Y-238771000D03*
X234569000Y-241046000D03*
%TD*%
D22*
%TO.C,C39*%
X275095000Y-144907000D03*
X273545000Y-144907000D03*
%TD*%
D34*
%TO.C,J14*%
X97663000Y-217297000D03*
D35*
X97663000Y-219837000D03*
X97663000Y-222377000D03*
X97663000Y-224917000D03*
%TD*%
D15*
%TO.C,U2*%
X147955000Y-216089000D03*
X149225000Y-216089000D03*
X150495000Y-216089000D03*
X151765000Y-216089000D03*
X153035000Y-216089000D03*
X154305000Y-216089000D03*
X155575000Y-216089000D03*
X155575000Y-211139000D03*
X154305000Y-211139000D03*
X153035000Y-211139000D03*
X151765000Y-211139000D03*
X150495000Y-211139000D03*
X149225000Y-211139000D03*
X147955000Y-211139000D03*
%TD*%
D61*
%TO.C,U3*%
X303215001Y-131693500D03*
X304165000Y-131693500D03*
X305114999Y-131693500D03*
X305114999Y-129418500D03*
X303215001Y-129418500D03*
%TD*%
D17*
%TO.C,H4*%
X96520000Y-99060000D03*
%TD*%
D22*
%TO.C,C22*%
X219469000Y-216154000D03*
X217919000Y-216154000D03*
%TD*%
D34*
%TO.C,J12*%
X94996000Y-117856000D03*
D35*
X97536000Y-117856000D03*
X100076000Y-117856000D03*
X102616000Y-117856000D03*
X105156000Y-117856000D03*
X107696000Y-117856000D03*
X110236000Y-117856000D03*
X112776000Y-117856000D03*
X115316000Y-117856000D03*
X117856000Y-117856000D03*
X120396000Y-117856000D03*
X122936000Y-117856000D03*
X125476000Y-117856000D03*
X128016000Y-117856000D03*
X130556000Y-117856000D03*
X133096000Y-117856000D03*
X135636000Y-117856000D03*
X138176000Y-117856000D03*
X140716000Y-117856000D03*
X143256000Y-117856000D03*
X145796000Y-117856000D03*
X148336000Y-117856000D03*
X150876000Y-117856000D03*
X153416000Y-117856000D03*
X155956000Y-117856000D03*
X158496000Y-117856000D03*
X161036000Y-117856000D03*
X163576000Y-117856000D03*
X166116000Y-117856000D03*
X168656000Y-117856000D03*
X171196000Y-117856000D03*
X173736000Y-117856000D03*
X176276000Y-117856000D03*
X178816000Y-117856000D03*
X181356000Y-117856000D03*
X183896000Y-117856000D03*
X186436000Y-117856000D03*
X188976000Y-117856000D03*
X191516000Y-117856000D03*
X194056000Y-117856000D03*
X94996000Y-120396000D03*
X97536000Y-120396000D03*
X100076000Y-120396000D03*
X102616000Y-120396000D03*
X105156000Y-120396000D03*
X107696000Y-120396000D03*
X110236000Y-120396000D03*
X112776000Y-120396000D03*
X115316000Y-120396000D03*
X117856000Y-120396000D03*
X120396000Y-120396000D03*
X122936000Y-120396000D03*
X125476000Y-120396000D03*
X128016000Y-120396000D03*
X130556000Y-120396000D03*
X133096000Y-120396000D03*
X135636000Y-120396000D03*
X138176000Y-120396000D03*
X140716000Y-120396000D03*
X143256000Y-120396000D03*
X145796000Y-120396000D03*
X148336000Y-120396000D03*
X150876000Y-120396000D03*
X153416000Y-120396000D03*
X155956000Y-120396000D03*
X158496000Y-120396000D03*
X161036000Y-120396000D03*
X163576000Y-120396000D03*
X166116000Y-120396000D03*
X168656000Y-120396000D03*
X171196000Y-120396000D03*
X173736000Y-120396000D03*
X176276000Y-120396000D03*
X178816000Y-120396000D03*
X181356000Y-120396000D03*
X183896000Y-120396000D03*
X186436000Y-120396000D03*
X188976000Y-120396000D03*
X191516000Y-120396000D03*
X194056000Y-120396000D03*
%TD*%
D32*
%TO.C,C43*%
X268097000Y-133718000D03*
X268097000Y-135268000D03*
%TD*%
D26*
%TO.C,OP5*%
X195548000Y-185515000D03*
D27*
X195548000Y-183515000D03*
X195548000Y-181515000D03*
X193548000Y-185515000D03*
X193548000Y-183515000D03*
X193548000Y-181515000D03*
%TD*%
D24*
%TO.C,R4*%
X167005000Y-248181500D03*
X167005000Y-246356500D03*
%TD*%
D22*
%TO.C,C20*%
X162065000Y-229362000D03*
X160515000Y-229362000D03*
%TD*%
D64*
%TO.C,SD1*%
X133920000Y-249862500D03*
X140720000Y-249862500D03*
D65*
X139900000Y-238442500D03*
X138800000Y-238442500D03*
X137700000Y-238442500D03*
X136600000Y-238442500D03*
X135500000Y-238442500D03*
X134400000Y-238442500D03*
X133300000Y-238442500D03*
X132200000Y-238442500D03*
X131100000Y-238442500D03*
D66*
X129720000Y-240442500D03*
X129720000Y-249442500D03*
X145870000Y-240442500D03*
X145870000Y-249442500D03*
%TD*%
D46*
%TO.C,D1*%
X149225000Y-251460000D03*
D47*
X151765000Y-251460000D03*
%TD*%
D67*
%TO.C,RV1*%
X164405000Y-237998000D03*
X161865000Y-240538000D03*
X164405000Y-243078000D03*
%TD*%
D17*
%TO.C,H8*%
X98298000Y-106045000D03*
%TD*%
D24*
%TO.C,R11*%
X279527000Y-154582500D03*
X279527000Y-152757500D03*
%TD*%
%TO.C,R15*%
X239649000Y-121181500D03*
X239649000Y-119356500D03*
%TD*%
%TO.C,R19*%
X153035000Y-227123000D03*
X153035000Y-225298000D03*
%TD*%
D61*
%TO.C,U47*%
X128082001Y-208147500D03*
X129032000Y-208147500D03*
X129981999Y-208147500D03*
X129981999Y-205872500D03*
X128082001Y-205872500D03*
%TD*%
D15*
%TO.C,U6*%
X134620000Y-200595000D03*
X135890000Y-200595000D03*
X137160000Y-200595000D03*
X138430000Y-200595000D03*
X139700000Y-200595000D03*
X140970000Y-200595000D03*
X142240000Y-200595000D03*
X142240000Y-195645000D03*
X140970000Y-195645000D03*
X139700000Y-195645000D03*
X138430000Y-195645000D03*
X137160000Y-195645000D03*
X135890000Y-195645000D03*
X134620000Y-195645000D03*
%TD*%
D38*
%TO.C,U16*%
X180405000Y-182447000D03*
X180405000Y-183717000D03*
X180405000Y-184987000D03*
X180405000Y-186257000D03*
X180405000Y-187527000D03*
X180405000Y-188797000D03*
X180405000Y-190067000D03*
X180405000Y-191337000D03*
X185355000Y-191337000D03*
X185355000Y-190067000D03*
X185355000Y-188797000D03*
X185355000Y-187527000D03*
X185355000Y-186257000D03*
X185355000Y-184987000D03*
X185355000Y-183717000D03*
X185355000Y-182447000D03*
%TD*%
%TO.C,U19*%
X180405000Y-167421000D03*
X180405000Y-168691000D03*
X180405000Y-169961000D03*
X180405000Y-171231000D03*
X180405000Y-172501000D03*
X180405000Y-173771000D03*
X180405000Y-175041000D03*
X185355000Y-175041000D03*
X185355000Y-173771000D03*
X185355000Y-172501000D03*
X185355000Y-171231000D03*
X185355000Y-169961000D03*
X185355000Y-168691000D03*
X185355000Y-167421000D03*
%TD*%
D41*
%TO.C,C5*%
X184518000Y-247015000D03*
X186068000Y-247015000D03*
%TD*%
D24*
%TO.C,R13*%
X251460000Y-170457500D03*
X251460000Y-168632500D03*
%TD*%
%TO.C,R16*%
X243840000Y-121181500D03*
X243840000Y-119356500D03*
%TD*%
D38*
%TO.C,U29*%
X196280000Y-152400000D03*
X196280000Y-153670000D03*
X196280000Y-154940000D03*
X196280000Y-156210000D03*
X196280000Y-157480000D03*
X196280000Y-158750000D03*
X196280000Y-160020000D03*
X201230000Y-160020000D03*
X201230000Y-158750000D03*
X201230000Y-157480000D03*
X201230000Y-156210000D03*
X201230000Y-154940000D03*
X201230000Y-153670000D03*
X201230000Y-152400000D03*
%TD*%
D31*
%TO.C,U24*%
X230217500Y-183515000D03*
X230217500Y-184785000D03*
X230217500Y-186055000D03*
X230217500Y-187325000D03*
X230217500Y-188595000D03*
X230217500Y-189865000D03*
X230217500Y-191135000D03*
X230217500Y-192405000D03*
X230217500Y-193675000D03*
X230217500Y-194945000D03*
X237142500Y-194945000D03*
X237142500Y-193675000D03*
X237142500Y-192405000D03*
X237142500Y-191135000D03*
X237142500Y-189865000D03*
X237142500Y-188595000D03*
X237142500Y-187325000D03*
X237142500Y-186055000D03*
X237142500Y-184785000D03*
X237142500Y-183515000D03*
%TD*%
D21*
%TO.C,U20*%
X185355000Y-237490000D03*
X185355000Y-236220000D03*
X185355000Y-234950000D03*
X185355000Y-233680000D03*
X185355000Y-232410000D03*
X185355000Y-231140000D03*
X185355000Y-229870000D03*
X180405000Y-229870000D03*
X180405000Y-231140000D03*
X180405000Y-232410000D03*
X180405000Y-233680000D03*
X180405000Y-234950000D03*
X180405000Y-236220000D03*
X180405000Y-237490000D03*
%TD*%
D20*
%TO.C,RN8*%
X161036000Y-128778000D03*
D13*
X163576000Y-128778000D03*
X166116000Y-128778000D03*
X168656000Y-128778000D03*
X171196000Y-128778000D03*
X173736000Y-128778000D03*
X176276000Y-128778000D03*
X178816000Y-128778000D03*
X181356000Y-128778000D03*
%TD*%
D49*
%TO.C,C44*%
X100163000Y-190373000D03*
D13*
X97663000Y-190373000D03*
%TD*%
D39*
%TO.C,U1*%
X134620000Y-206375000D03*
D29*
X134620000Y-208915000D03*
X134620000Y-211455000D03*
D40*
X134620000Y-213995000D03*
D29*
X134620000Y-216535000D03*
X134620000Y-219075000D03*
D40*
X134620000Y-221615000D03*
X142240000Y-221615000D03*
D29*
X142240000Y-219075000D03*
X142240000Y-216535000D03*
D40*
X142240000Y-213995000D03*
D29*
X142240000Y-211455000D03*
X142240000Y-208915000D03*
D40*
X142240000Y-206375000D03*
%TD*%
D41*
%TO.C,C13*%
X133845000Y-136144000D03*
X135395000Y-136144000D03*
%TD*%
%TO.C,C15*%
X249669000Y-181864000D03*
X251219000Y-181864000D03*
%TD*%
M02*
