%TF.GenerationSoftware,KiCad,Pcbnew,9.0.6*%
%TF.CreationDate,2025-11-25T21:23:54-08:00*%
%TF.ProjectId,SD-ZMB,53442d5a-4d42-42e6-9b69-6361645f7063,PR8.2*%
%TF.SameCoordinates,Original*%
%TF.FileFunction,Copper,L5,Inr*%
%TF.FilePolarity,Positive*%
%FSLAX46Y46*%
G04 Gerber Fmt 4.6, Leading zero omitted, Abs format (unit mm)*
G04 Created by KiCad (PCBNEW 9.0.6) date 2025-11-25 21:23:54*
%MOMM*%
%LPD*%
G01*
G04 APERTURE LIST*
G04 Aperture macros list*
%AMRoundRect*
0 Rectangle with rounded corners*
0 $1 Rounding radius*
0 $2 $3 $4 $5 $6 $7 $8 $9 X,Y pos of 4 corners*
0 Add a 4 corners polygon primitive as box body*
4,1,4,$2,$3,$4,$5,$6,$7,$8,$9,$2,$3,0*
0 Add four circle primitives for the rounded corners*
1,1,$1+$1,$2,$3*
1,1,$1+$1,$4,$5*
1,1,$1+$1,$6,$7*
1,1,$1+$1,$8,$9*
0 Add four rect primitives between the rounded corners*
20,1,$1+$1,$2,$3,$4,$5,0*
20,1,$1+$1,$4,$5,$6,$7,0*
20,1,$1+$1,$6,$7,$8,$9,0*
20,1,$1+$1,$8,$9,$2,$3,0*%
G04 Aperture macros list end*
%TA.AperFunction,ComponentPad*%
%ADD10RoundRect,0.250000X-0.550000X-0.550000X0.550000X-0.550000X0.550000X0.550000X-0.550000X0.550000X0*%
%TD*%
%TA.AperFunction,ComponentPad*%
%ADD11C,1.600000*%
%TD*%
%TA.AperFunction,ComponentPad*%
%ADD12R,1.700000X1.700000*%
%TD*%
%TA.AperFunction,ComponentPad*%
%ADD13C,1.700000*%
%TD*%
%TA.AperFunction,ComponentPad*%
%ADD14RoundRect,0.250000X0.550000X-0.550000X0.550000X0.550000X-0.550000X0.550000X-0.550000X-0.550000X0*%
%TD*%
%TA.AperFunction,ComponentPad*%
%ADD15RoundRect,0.250000X0.350000X0.350000X-0.350000X0.350000X-0.350000X-0.350000X0.350000X-0.350000X0*%
%TD*%
%TA.AperFunction,ComponentPad*%
%ADD16C,1.200000*%
%TD*%
%TA.AperFunction,ComponentPad*%
%ADD17R,1.600000X1.600000*%
%TD*%
%TA.AperFunction,ComponentPad*%
%ADD18R,1.350000X1.350000*%
%TD*%
%TA.AperFunction,ComponentPad*%
%ADD19C,1.350000*%
%TD*%
%TA.AperFunction,ComponentPad*%
%ADD20RoundRect,0.250000X0.550000X-0.950000X0.550000X0.950000X-0.550000X0.950000X-0.550000X-0.950000X0*%
%TD*%
%TA.AperFunction,ComponentPad*%
%ADD21C,1.400000*%
%TD*%
%TA.AperFunction,ComponentPad*%
%ADD22O,1.600000X2.400000*%
%TD*%
%TA.AperFunction,ComponentPad*%
%ADD23O,1.700000X1.700000*%
%TD*%
%TA.AperFunction,ComponentPad*%
%ADD24RoundRect,0.250000X-0.950000X-0.550000X0.950000X-0.550000X0.950000X0.550000X-0.950000X0.550000X0*%
%TD*%
%TA.AperFunction,ComponentPad*%
%ADD25O,2.400000X1.600000*%
%TD*%
%TA.AperFunction,ComponentPad*%
%ADD26C,4.000000*%
%TD*%
%TA.AperFunction,ComponentPad*%
%ADD27C,3.500000*%
%TD*%
%TA.AperFunction,ComponentPad*%
%ADD28R,1.800000X1.800000*%
%TD*%
%TA.AperFunction,ComponentPad*%
%ADD29C,1.800000*%
%TD*%
%TA.AperFunction,ComponentPad*%
%ADD30RoundRect,0.250000X0.550000X0.550000X-0.550000X0.550000X-0.550000X-0.550000X0.550000X-0.550000X0*%
%TD*%
%TA.AperFunction,ComponentPad*%
%ADD31RoundRect,0.250000X0.600000X-0.600000X0.600000X0.600000X-0.600000X0.600000X-0.600000X-0.600000X0*%
%TD*%
%TA.AperFunction,ComponentPad*%
%ADD32RoundRect,0.250000X-0.550000X0.950000X-0.550000X-0.950000X0.550000X-0.950000X0.550000X0.950000X0*%
%TD*%
%TA.AperFunction,ComponentPad*%
%ADD33O,5.000000X2.500000*%
%TD*%
%TA.AperFunction,ComponentPad*%
%ADD34O,4.500000X2.250000*%
%TD*%
%TA.AperFunction,ComponentPad*%
%ADD35C,1.440000*%
%TD*%
%TA.AperFunction,ViaPad*%
%ADD36C,0.762000*%
%TD*%
%TA.AperFunction,ViaPad*%
%ADD37C,2.082800*%
%TD*%
%TA.AperFunction,ViaPad*%
%ADD38C,0.635000*%
%TD*%
%TA.AperFunction,ViaPad*%
%ADD39C,0.558800*%
%TD*%
%TA.AperFunction,Conductor*%
%ADD40C,0.203200*%
%TD*%
G04 APERTURE END LIST*
D10*
%TO.N,unconnected-(SPARE1-UC-Pad1)*%
%TO.C,SPARE1*%
X301752000Y-209552000D03*
D11*
%TO.N,unconnected-(SPARE1-UC-Pad2)*%
X301752000Y-212092000D03*
%TO.N,unconnected-(SPARE1-UC-Pad3)*%
X301752000Y-214632000D03*
%TO.N,unconnected-(SPARE1-UC-Pad4)*%
X301752000Y-217172000D03*
%TO.N,unconnected-(SPARE1-UC-Pad5)*%
X301752000Y-219712000D03*
%TO.N,unconnected-(SPARE1-UC-Pad6)*%
X301752000Y-222252000D03*
%TO.N,unconnected-(SPARE1-UC-Pad7)*%
X301752000Y-224792000D03*
%TO.N,unconnected-(SPARE1-UC-Pad8)*%
X301752000Y-227332000D03*
%TO.N,unconnected-(SPARE1-UC-Pad9)*%
X311912000Y-227332000D03*
%TO.N,unconnected-(SPARE1-UC-Pad10)*%
X311912000Y-224792000D03*
%TO.N,unconnected-(SPARE1-UC-Pad11)*%
X311912000Y-222252000D03*
%TO.N,unconnected-(SPARE1-UC-Pad12)*%
X311912000Y-219712000D03*
%TO.N,unconnected-(SPARE1-UC-Pad13)*%
X311912000Y-217172000D03*
%TO.N,unconnected-(SPARE1-UC-Pad14)*%
X311912000Y-214632000D03*
%TO.N,unconnected-(SPARE1-UC-Pad15)*%
X311912000Y-212092000D03*
%TO.N,unconnected-(SPARE1-UC-Pad16)*%
X311912000Y-209552000D03*
%TD*%
D12*
%TO.N,GND*%
%TO.C,DISP1*%
X187565000Y-249660000D03*
D13*
X190105000Y-249660000D03*
%TO.N,+5V*%
X192645000Y-249660000D03*
%TO.N,/ExpIFC-SIOCTC/CONV0*%
X195185000Y-249660000D03*
%TO.N,ZWR-*%
X197725000Y-249660000D03*
%TO.N,ZRD-*%
X200265000Y-249660000D03*
%TO.N,DISPSEL-*%
X202805000Y-249660000D03*
%TO.N,ZA0*%
X205345000Y-249660000D03*
%TO.N,BRDRST-*%
X207885000Y-249660000D03*
%TO.N,ZD0*%
X210425000Y-249660000D03*
%TO.N,ZD1*%
X212965000Y-249660000D03*
%TO.N,ZD2*%
X215505000Y-249660000D03*
%TO.N,ZD3*%
X218045000Y-249660000D03*
%TO.N,ZD4*%
X220585000Y-249660000D03*
%TO.N,ZD5*%
X223125000Y-249660000D03*
%TO.N,ZD6*%
X225665000Y-249660000D03*
%TO.N,ZD7*%
X228205000Y-249660000D03*
%TO.N,/ExpIFC-SIOCTC/FONT1*%
X230745000Y-249660000D03*
%TO.N,/ExpIFC-SIOCTC/CONPWR*%
X233285000Y-249660000D03*
%TO.N,/ExpIFC-SIOCTC/BLPWR*%
X235825000Y-249660000D03*
%TO.N,GND*%
X238365000Y-249660000D03*
%TO.N,unconnected-(DISP1-NC-Pad22)*%
X240905000Y-249660000D03*
%TD*%
D14*
%TO.N,unconnected-(SPARE3-UC-Pad1)*%
%TO.C,SPARE3*%
X284052200Y-250963800D03*
D11*
%TO.N,unconnected-(SPARE3-UC-Pad2)*%
X286592200Y-250963800D03*
%TO.N,unconnected-(SPARE3-UC-Pad3)*%
X289132200Y-250963800D03*
%TO.N,unconnected-(SPARE3-UC-Pad4)*%
X291672200Y-250963800D03*
%TO.N,unconnected-(SPARE3-UC-Pad5)*%
X294212200Y-250963800D03*
%TO.N,unconnected-(SPARE3-UC-Pad6)*%
X296752200Y-250963800D03*
%TO.N,unconnected-(SPARE3-UC-Pad7)*%
X299292200Y-250963800D03*
%TO.N,unconnected-(SPARE3-UC-Pad8)*%
X301832200Y-250963800D03*
%TO.N,unconnected-(SPARE3-UC-Pad9)*%
X301832200Y-243343800D03*
%TO.N,unconnected-(SPARE3-UC-Pad10)*%
X299292200Y-243343800D03*
%TO.N,unconnected-(SPARE3-UC-Pad11)*%
X296752200Y-243343800D03*
%TO.N,unconnected-(SPARE3-UC-Pad12)*%
X294212200Y-243343800D03*
%TO.N,unconnected-(SPARE3-UC-Pad13)*%
X291672200Y-243343800D03*
%TO.N,unconnected-(SPARE3-UC-Pad14)*%
X289132200Y-243343800D03*
%TO.N,unconnected-(SPARE3-UC-Pad15)*%
X286592200Y-243343800D03*
%TO.N,unconnected-(SPARE3-UC-Pad16)*%
X284052200Y-243343800D03*
%TD*%
D14*
%TO.N,unconnected-(SPARE2-UC-Pad1)*%
%TO.C,SPARE2*%
X284052200Y-238318769D03*
D11*
%TO.N,unconnected-(SPARE2-UC-Pad2)*%
X286592200Y-238318769D03*
%TO.N,unconnected-(SPARE2-UC-Pad3)*%
X289132200Y-238318769D03*
%TO.N,unconnected-(SPARE2-UC-Pad4)*%
X291672200Y-238318769D03*
%TO.N,unconnected-(SPARE2-UC-Pad5)*%
X294212200Y-238318769D03*
%TO.N,unconnected-(SPARE2-UC-Pad6)*%
X296752200Y-238318769D03*
%TO.N,unconnected-(SPARE2-UC-Pad7)*%
X299292200Y-238318769D03*
%TO.N,unconnected-(SPARE2-UC-Pad8)*%
X301832200Y-238318769D03*
%TO.N,unconnected-(SPARE2-UC-Pad9)*%
X301832200Y-230698769D03*
%TO.N,unconnected-(SPARE2-UC-Pad10)*%
X299292200Y-230698769D03*
%TO.N,unconnected-(SPARE2-UC-Pad11)*%
X296752200Y-230698769D03*
%TO.N,unconnected-(SPARE2-UC-Pad12)*%
X294212200Y-230698769D03*
%TO.N,unconnected-(SPARE2-UC-Pad13)*%
X291672200Y-230698769D03*
%TO.N,unconnected-(SPARE2-UC-Pad14)*%
X289132200Y-230698769D03*
%TO.N,unconnected-(SPARE2-UC-Pad15)*%
X286592200Y-230698769D03*
%TO.N,unconnected-(SPARE2-UC-Pad16)*%
X284052200Y-230698769D03*
%TD*%
D15*
%TO.N,+5V*%
%TO.C,C6*%
X156043600Y-240157000D03*
D16*
%TO.N,GND*%
X154543600Y-240157000D03*
%TD*%
D17*
%TO.N,+5V*%
%TO.C,RN4*%
X107315000Y-131650000D03*
D11*
%TO.N,BA16*%
X109855000Y-131650000D03*
%TO.N,BA17*%
X112395000Y-131650000D03*
%TO.N,BA18*%
X114935000Y-131650000D03*
%TO.N,BA19*%
X117475000Y-131650000D03*
%TO.N,BA20*%
X120015000Y-131650000D03*
%TO.N,BA21*%
X122555000Y-131650000D03*
%TO.N,BA22*%
X125095000Y-131650000D03*
%TO.N,BA23*%
X127635000Y-131650000D03*
%TD*%
D18*
%TO.N,/MainBoard-CPU_Decode/VPU2*%
%TO.C,OP1*%
X150780999Y-206375000D03*
D19*
%TO.N,/MainBoard-CPU_Decode/CLKhRST-*%
X152780999Y-206375000D03*
%TO.N,/MainBoard-CPU_Decode/CLKhRR-*%
X154780999Y-206375000D03*
%TD*%
D20*
%TO.N,+5V*%
%TO.C,U1*%
X281940000Y-132969000D03*
D21*
%TO.N,unconnected-(U1-NC2-Pad2)*%
X284480000Y-132969000D03*
%TO.N,unconnected-(U1-NC3-Pad3)*%
X287020000Y-132969000D03*
D22*
%TO.N,GND*%
X289560000Y-132969000D03*
D21*
%TO.N,unconnected-(U1-NC5-Pad5)*%
X292100000Y-132969000D03*
%TO.N,unconnected-(U1-NC6-Pad6)*%
X294640000Y-132969000D03*
D22*
%TO.N,GND*%
X297180000Y-132969000D03*
%TO.N,/ExpIFC-SIOCTC/CTC_CLK*%
X297180000Y-125349000D03*
D21*
%TO.N,unconnected-(U1-NC9-Pad9)*%
X294640000Y-125349000D03*
%TO.N,unconnected-(U1-NC10-Pad10)*%
X292100000Y-125349000D03*
D22*
%TO.N,/ExpIFC-SIOCTC/CTC_CLK*%
X289560000Y-125349000D03*
D21*
%TO.N,unconnected-(U1-NC12-Pad12)*%
X287020000Y-125349000D03*
%TO.N,unconnected-(U1-NC13-Pad13)*%
X284480000Y-125349000D03*
D22*
%TO.N,+5V*%
X281940000Y-125349000D03*
%TD*%
D12*
%TO.N,GND*%
%TO.C,J7*%
X274447000Y-119253000D03*
D13*
%TO.N,/ExpIFC-SIOCTC/CHB_RXD*%
X271907000Y-119253000D03*
%TO.N,/ExpIFC-SIOCTC/CHB_TXD*%
X269367001Y-119253000D03*
%TD*%
D23*
%TO.N,BRDRST-*%
%TO.C,M1*%
X265450000Y-103722000D03*
%TO.N,unconnected-(M1-3V3-Pad2)*%
X265450000Y-106262000D03*
D12*
%TO.N,unconnected-(M1-VIO-Pad3)_1*%
X265450000Y-108802000D03*
D23*
%TO.N,GND*%
X265450000Y-111342000D03*
%TO.N,unconnected-(M1-VBUS-Pad5)_1*%
X265450000Y-113882000D03*
%TO.N,unconnected-(M1-CB0-Pad6)_1*%
X278130000Y-113792000D03*
%TO.N,Net-(JP5-Pin_2)*%
X278130000Y-111252000D03*
D12*
%TO.N,unconnected-(M1-RTS-(O)-Pad8)*%
X278130000Y-108712000D03*
D23*
%TO.N,/ExpIFC-SIOCTC/CHB_TXD*%
X278130000Y-106172000D03*
%TO.N,unconnected-(M1-CTS-(I)-Pad10)*%
X278130000Y-103632000D03*
%TD*%
D24*
%TO.N,ZA11*%
%TO.C,U10*%
X109220000Y-153035000D03*
D25*
%TO.N,ZA12*%
X109220000Y-155575000D03*
%TO.N,ZA13*%
X109220000Y-158115000D03*
%TO.N,ZA14*%
X109220000Y-160655000D03*
%TO.N,ZA15*%
X109220000Y-163195000D03*
%TO.N,ZCLK*%
X109220000Y-165735000D03*
%TO.N,ZD4*%
X109220000Y-168275000D03*
%TO.N,ZD3*%
X109220000Y-170815000D03*
%TO.N,ZD5*%
X109220000Y-173355000D03*
%TO.N,ZD6*%
X109220000Y-175895000D03*
%TO.N,+5V*%
X109220000Y-178435000D03*
%TO.N,ZD2*%
X109220000Y-180975000D03*
%TO.N,ZD7*%
X109220000Y-183515000D03*
%TO.N,ZD0*%
X109220000Y-186055000D03*
%TO.N,ZD1*%
X109220000Y-188595000D03*
%TO.N,ZINT-*%
X109220000Y-191135000D03*
%TO.N,ZNMI-*%
X109220000Y-193675000D03*
%TO.N,ZHALT-*%
X109220000Y-196215000D03*
%TO.N,ZMREQ-*%
X109220000Y-198755000D03*
%TO.N,ZIORQ-*%
X109220000Y-201295000D03*
%TO.N,ZRD-*%
X124460000Y-201295000D03*
%TO.N,ZWR-*%
X124460000Y-198755000D03*
%TO.N,ZBSAK-*%
X124460000Y-196215000D03*
%TO.N,ZWAIT-*%
X124460000Y-193675000D03*
%TO.N,ZBREQ-*%
X124460000Y-191135000D03*
%TO.N,ZRST-*%
X124460000Y-188595000D03*
%TO.N,ZM1-*%
X124460000Y-186055000D03*
%TO.N,ZRFSH-*%
X124460000Y-183515000D03*
%TO.N,GND*%
X124460000Y-180975000D03*
%TO.N,ZA0*%
X124460000Y-178435000D03*
%TO.N,ZA1*%
X124460000Y-175895000D03*
%TO.N,ZA2*%
X124460000Y-173355000D03*
%TO.N,ZA3*%
X124460000Y-170815000D03*
%TO.N,ZA4*%
X124460000Y-168275000D03*
%TO.N,ZA5*%
X124460000Y-165735000D03*
%TO.N,ZA6*%
X124460000Y-163195000D03*
%TO.N,ZA7*%
X124460000Y-160655000D03*
%TO.N,ZA8*%
X124460000Y-158115000D03*
%TO.N,ZA9*%
X124460000Y-155575000D03*
%TO.N,ZA10*%
X124460000Y-153035000D03*
%TD*%
D12*
%TO.N,GND*%
%TO.C,J6*%
X253370000Y-119380000D03*
D13*
%TO.N,/ExpIFC-SIOCTC/CHA_DTR-*%
X250830000Y-119380000D03*
%TD*%
D17*
%TO.N,GND*%
%TO.C,RN1*%
X189865000Y-191135000D03*
D11*
%TO.N,/MainBoard-CPU_Decode/PDA16*%
X189865000Y-193675000D03*
%TO.N,/MainBoard-CPU_Decode/PDA17*%
X189865000Y-196215000D03*
%TO.N,/MainBoard-CPU_Decode/PDA18*%
X189865000Y-198755000D03*
%TO.N,/MainBoard-CPU_Decode/PDA20*%
X189865000Y-201295000D03*
%TO.N,/MainBoard-CPU_Decode/MHA21*%
X189865000Y-203835000D03*
%TO.N,/MainBoard-CPU_Decode/MHA22*%
X189865000Y-206375000D03*
%TO.N,/MainBoard-CPU_Decode/MHA23*%
X189865000Y-208915000D03*
%TO.N,unconnected-(RN1-R8-Pad9)*%
X189865000Y-211455000D03*
%TD*%
D26*
%TO.N,N/C*%
%TO.C,J3*%
X255690000Y-103155331D03*
X230690000Y-103155331D03*
D17*
%TO.N,unconnected-(J3-Pad1)*%
X248730000Y-104575331D03*
D11*
%TO.N,/ExpIFC-SIOCTC/C1_RXD*%
X245960000Y-104575331D03*
%TO.N,/ExpIFC-SIOCTC/C1_TXD*%
X243190000Y-104575331D03*
%TO.N,/ExpIFC-SIOCTC/C1_DTR*%
X240420000Y-104575331D03*
%TO.N,GND*%
X237650000Y-104575331D03*
%TO.N,/ExpIFC-SIOCTC/C1_DSR*%
X247345000Y-101735331D03*
%TO.N,/ExpIFC-SIOCTC/C1_RTR*%
X244575000Y-101735331D03*
%TO.N,/ExpIFC-SIOCTC/C1_CTS*%
X241805000Y-101735331D03*
%TO.N,unconnected-(J3-Pad9)*%
X239035000Y-101735331D03*
%TD*%
D18*
%TO.N,Net-(OP4-Pin_a1)*%
%TO.C,OP4*%
X147256999Y-221837000D03*
D19*
%TO.N,CLKf*%
X149256999Y-221837000D03*
%TO.N,CLKh*%
X151256999Y-221837000D03*
%TO.N,ZCLK*%
X147256999Y-219837000D03*
X149256999Y-219837000D03*
X151256999Y-219837000D03*
%TD*%
D27*
%TO.N,unconnected-(SW2-A-Pad1)*%
%TO.C,SW2*%
X294679000Y-109216000D03*
%TO.N,/ExpIFC-SIOCTC/+5IN*%
X299379000Y-109216000D03*
%TO.N,+5V*%
X304079000Y-109216000D03*
%TO.N,unconnected-(SW2-PadM1)*%
X296879000Y-96266000D03*
%TO.N,unconnected-(SW2-PadM2)*%
X301879000Y-96266000D03*
%TD*%
D28*
%TO.N,Net-(D2-K)*%
%TO.C,D2*%
X154305000Y-251460000D03*
D29*
%TO.N,Net-(D2-A)*%
X156845000Y-251460000D03*
%TD*%
D12*
%TO.N,+3.3V*%
%TO.C,J9*%
X97663000Y-207137000D03*
D13*
%TO.N,GND*%
X97663000Y-209677000D03*
%TO.N,/ExpIFC-SIOCTC/SCL0_RX*%
X97663000Y-212217000D03*
%TO.N,/ExpIFC-SIOCTC/SDA_TX*%
X97663000Y-214757000D03*
%TD*%
D17*
%TO.N,+5V*%
%TO.C,RN3*%
X224155000Y-171450000D03*
D11*
%TO.N,BA08*%
X224155000Y-173990000D03*
%TO.N,BA09*%
X224155000Y-176530000D03*
%TO.N,BA10*%
X224155000Y-179070000D03*
%TO.N,BA11*%
X224155000Y-181610000D03*
%TO.N,BA13*%
X224155000Y-184150000D03*
%TO.N,BA14*%
X224155000Y-186690000D03*
%TO.N,BA15*%
X224155000Y-189230000D03*
%TO.N,BA12*%
X224155000Y-191770000D03*
%TD*%
D17*
%TO.N,+5V*%
%TO.C,RN2*%
X94615000Y-180339999D03*
D11*
%TO.N,BA00*%
X94615000Y-177799999D03*
%TO.N,BA01*%
X94615000Y-175259999D03*
%TO.N,BA02*%
X94615000Y-172719999D03*
%TO.N,BA03*%
X94615000Y-170179999D03*
%TO.N,BA04*%
X94615000Y-167639999D03*
%TO.N,BA05*%
X94615000Y-165099999D03*
%TO.N,BA06*%
X94615000Y-162559999D03*
%TO.N,BA07*%
X94615000Y-160019999D03*
%TD*%
D30*
%TO.N,+5V*%
%TO.C,C3*%
X138153449Y-109466688D03*
D11*
%TO.N,GND*%
X135653449Y-109466688D03*
%TD*%
D30*
%TO.N,+5V*%
%TO.C,C4*%
X297473380Y-115697000D03*
D11*
%TO.N,GND*%
X294973380Y-115697000D03*
%TD*%
D18*
%TO.N,/ExpIFC-SIOCTC/C1_RTR*%
%TO.C,OP2*%
X240919000Y-112776000D03*
D19*
%TO.N,/ExpIFC-SIOCTC/HSOUT*%
X238919000Y-112776000D03*
%TO.N,/ExpIFC-SIOCTC/C1_DTR*%
X236919000Y-112776000D03*
%TD*%
D24*
%TO.N,/MainBoard-CPU_Decode/MHA18*%
%TO.C,U12*%
X151130000Y-150495000D03*
D25*
%TO.N,/MainBoard-CPU_Decode/MHA16*%
X151130000Y-153035000D03*
%TO.N,/MainBoard-CPU_Decode/MHA15*%
X151130000Y-155575000D03*
%TO.N,ZA12*%
X151130000Y-158115000D03*
%TO.N,ZA7*%
X151130000Y-160655000D03*
%TO.N,ZA6*%
X151130000Y-163195000D03*
%TO.N,ZA5*%
X151130000Y-165735000D03*
%TO.N,ZA4*%
X151130000Y-168275000D03*
%TO.N,ZA3*%
X151130000Y-170815000D03*
%TO.N,ZA2*%
X151130000Y-173355000D03*
%TO.N,ZA1*%
X151130000Y-175895000D03*
%TO.N,ZA0*%
X151130000Y-178435000D03*
%TO.N,ZD0*%
X151130000Y-180975000D03*
%TO.N,ZD1*%
X151130000Y-183515000D03*
%TO.N,ZD2*%
X151130000Y-186055000D03*
%TO.N,GND*%
X151130000Y-188595000D03*
%TO.N,ZD3*%
X166370000Y-188595000D03*
%TO.N,ZD4*%
X166370000Y-186055000D03*
%TO.N,ZD5*%
X166370000Y-183515000D03*
%TO.N,ZD6*%
X166370000Y-180975000D03*
%TO.N,ZD7*%
X166370000Y-178435000D03*
%TO.N,/MainBoard-CPU_Decode/LCLMEM-*%
X166370000Y-175895000D03*
%TO.N,ZA10*%
X166370000Y-173355000D03*
%TO.N,/MainBoard-CPU_Decode/FLASHRD-*%
X166370000Y-170815000D03*
%TO.N,ZA11*%
X166370000Y-168275000D03*
%TO.N,ZA9*%
X166370000Y-165735000D03*
%TO.N,ZA8*%
X166370000Y-163195000D03*
%TO.N,/MainBoard-CPU_Decode/MHA13*%
X166370000Y-160655000D03*
%TO.N,/MainBoard-CPU_Decode/MHA14*%
X166370000Y-158115000D03*
%TO.N,/MainBoard-CPU_Decode/MHA17*%
X166370000Y-155575000D03*
%TO.N,/MainBoard-CPU_Decode/FLASHWR-*%
X166370000Y-153035000D03*
%TO.N,+5V*%
X166370000Y-150495000D03*
%TD*%
D31*
%TO.N,ZCLK*%
%TO.C,J2*%
X169678501Y-101805501D03*
D13*
%TO.N,ZINT-*%
X169678501Y-99265501D03*
%TO.N,BMREQ-*%
X172218501Y-101805501D03*
%TO.N,BWR-*%
X172218501Y-99265501D03*
%TO.N,BRD-*%
X174758500Y-101805501D03*
%TO.N,BIORQ-*%
X174758501Y-99265501D03*
%TO.N,BD0*%
X177298501Y-101805501D03*
%TO.N,BD1*%
X177298501Y-99265501D03*
%TO.N,BD2*%
X179838501Y-101805501D03*
%TO.N,BD3*%
X179838501Y-99265501D03*
%TO.N,BD4*%
X182378501Y-101805501D03*
%TO.N,BD5*%
X182378501Y-99265501D03*
%TO.N,BD6*%
X184918501Y-101805501D03*
%TO.N,BD7*%
X184918501Y-99265501D03*
%TO.N,/ExpIFC-SIOCTC/TXD_A*%
X187458502Y-101805501D03*
%TO.N,/ExpIFC-SIOCTC/RXD_A*%
X187458501Y-99265501D03*
%TO.N,/ExpIFC-SIOCTC/ExIRQ1-*%
X189998501Y-101805501D03*
%TO.N,/ExpIFC-SIOCTC/bpIEI*%
X189998501Y-99265501D03*
%TO.N,bpIEO*%
X192538501Y-101805501D03*
%TO.N,CRSTRQ-*%
X192538501Y-99265501D03*
%TO.N,/ExpIFC-SIOCTC/IOCLK*%
X195078501Y-101805501D03*
%TO.N,ZBSAK-*%
X195078501Y-99265501D03*
%TO.N,ZHALT-*%
X197618500Y-101805501D03*
%TO.N,ZBREQ-*%
X197618501Y-99265501D03*
%TO.N,ZWAIT-*%
X200158501Y-101805501D03*
%TO.N,NMIREQ-*%
X200158501Y-99265501D03*
%TO.N,/ExpIFC-SIOCTC/NC_D08*%
X202698501Y-101805501D03*
%TO.N,/ExpIFC-SIOCTC/NC_D09*%
X202698501Y-99265501D03*
%TO.N,/ExpIFC-SIOCTC/NC_D10*%
X205238501Y-101805501D03*
%TO.N,/ExpIFC-SIOCTC/NC_D11*%
X205238501Y-99265501D03*
%TO.N,/ExpIFC-SIOCTC/NC_D12*%
X207778500Y-101805501D03*
%TO.N,/ExpIFC-SIOCTC/NC_D13*%
X207778501Y-99265501D03*
%TO.N,/ExpIFC-SIOCTC/NC_D14*%
X210318502Y-101805501D03*
%TO.N,/ExpIFC-SIOCTC/NC_D15*%
X210318501Y-99265501D03*
%TO.N,/ExpIFC-SIOCTC/TXD_B*%
X212858501Y-101805501D03*
%TO.N,/ExpIFC-SIOCTC/RXD_B*%
X212858501Y-99265501D03*
%TO.N,/ExpIFC-SIOCTC/ExIRQ2-*%
X215398501Y-101805501D03*
%TO.N,/ExpIFC-SIOCTC/USR6*%
X215398501Y-99265501D03*
%TO.N,/ExpIFC-SIOCTC/USR7*%
X217938501Y-101805501D03*
%TO.N,/ExpIFC-SIOCTC/USR8*%
X217938501Y-99265501D03*
%TD*%
D18*
%TO.N,GND*%
%TO.C,OP8*%
X259715000Y-120380000D03*
D19*
%TO.N,/ExpIFC-SIOCTC/CNSLSELB-*%
X259715000Y-118380000D03*
%TD*%
D32*
%TO.N,ZD1*%
%TO.C,U22*%
X306070000Y-158115000D03*
D22*
%TO.N,ZD3*%
X303530000Y-158115000D03*
%TO.N,ZD5*%
X300990000Y-158115000D03*
%TO.N,ZD7*%
X298450000Y-158115000D03*
%TO.N,ZINT-*%
X295910000Y-158115000D03*
%TO.N,Net-(U22-IEI)*%
X293370000Y-158115000D03*
%TO.N,/ExpIFC-SIOCTC/SIOIEO*%
X290830000Y-158115000D03*
%TO.N,ZM1-*%
X288290000Y-158115000D03*
%TO.N,+5V*%
X285750000Y-158115000D03*
%TO.N,unconnected-(U22-~{W{slash}RDYA}-Pad10)*%
X283210000Y-158115000D03*
%TO.N,/ExpIFC-SIOCTC/CNSLSELB-*%
X280670000Y-158115000D03*
%TO.N,/ExpIFC-SIOCTC/CHA_RXD*%
X278130000Y-158115000D03*
%TO.N,/ExpIFC-SIOCTC/CHA_CLK*%
X275590000Y-158115000D03*
X273050000Y-158115000D03*
%TO.N,/ExpIFC-SIOCTC/CHA_TXD*%
X270510000Y-158115000D03*
%TO.N,Net-(U22-~{DTRA})*%
X267970000Y-158115000D03*
%TO.N,/ExpIFC-SIOCTC/CHA_RTR-*%
X265430000Y-158115000D03*
%TO.N,/ExpIFC-SIOCTC/CHA_CTS-*%
X262890000Y-158115000D03*
%TO.N,/ExpIFC-SIOCTC/ExIRQ1-*%
X260350000Y-158115000D03*
%TO.N,/ExpIFC-SIOCTC/IOCLK*%
X257810000Y-158115000D03*
%TO.N,BRDRST-*%
X257810000Y-173355000D03*
%TO.N,/ExpIFC-SIOCTC/ExIRQ2-*%
X260350000Y-173355000D03*
%TO.N,/ExpIFC-SIOCTC/MODIRQ-*%
X262890000Y-173355000D03*
%TO.N,Net-(U22-~{RTSB})*%
X265430000Y-173355000D03*
%TO.N,Net-(U22-~{DTRB})*%
X267970000Y-173355000D03*
%TO.N,Net-(U22-TxDB)*%
X270510000Y-173355000D03*
%TO.N,/ExpIFC-SIOCTC/CHB_CLK*%
X273050000Y-173355000D03*
X275590000Y-173355000D03*
%TO.N,Net-(U22-RxDB)*%
X278130000Y-173355000D03*
%TO.N,unconnected-(U22-~{W{slash}RDYB}-Pad30)*%
X280670000Y-173355000D03*
%TO.N,GND*%
X283210000Y-173355000D03*
%TO.N,ZRD-*%
X285750000Y-173355000D03*
%TO.N,ZA0*%
X288290000Y-173355000D03*
%TO.N,ZA1*%
X290830000Y-173355000D03*
%TO.N,SIO_SEL-*%
X293370000Y-173355000D03*
%TO.N,ZIORQ-*%
X295910000Y-173355000D03*
%TO.N,ZD6*%
X298450000Y-173355000D03*
%TO.N,ZD4*%
X300990000Y-173355000D03*
%TO.N,ZD2*%
X303530000Y-173355000D03*
%TO.N,ZD0*%
X306070000Y-173355000D03*
%TD*%
D18*
%TO.N,/ExpIFC-SIOCTC/C1_CTS*%
%TO.C,OP3*%
X245269000Y-112776000D03*
D19*
%TO.N,/ExpIFC-SIOCTC/HSIN*%
X247269000Y-112776000D03*
%TO.N,/ExpIFC-SIOCTC/C1_DSR*%
X249269000Y-112776000D03*
%TD*%
D33*
%TO.N,/ExpIFC-SIOCTC/+5IN*%
%TO.C,J4*%
X286385000Y-107727000D03*
D34*
%TO.N,GND*%
X286385000Y-101727000D03*
%TD*%
D12*
%TO.N,GND*%
%TO.C,J11*%
X202946000Y-241051000D03*
D13*
%TO.N,+5V*%
X202946000Y-238511000D03*
%TO.N,/ExpIFC-SIOCTC/CONV0*%
X205486000Y-241051000D03*
%TO.N,ZWR-*%
X205486000Y-238511000D03*
%TO.N,ZRD-*%
X208026000Y-241051000D03*
%TO.N,DISPSEL-*%
X208026000Y-238511000D03*
%TO.N,ZA0*%
X210566000Y-241051000D03*
%TO.N,BRDRST-*%
X210566000Y-238511000D03*
%TO.N,ZD0*%
X213106000Y-241051000D03*
%TO.N,ZD1*%
X213106000Y-238511000D03*
%TO.N,ZD2*%
X215646000Y-241051000D03*
%TO.N,ZD3*%
X215646000Y-238511000D03*
%TO.N,ZD4*%
X218186000Y-241051000D03*
%TO.N,ZD5*%
X218186000Y-238511000D03*
%TO.N,ZD6*%
X220726000Y-241051000D03*
%TO.N,ZD7*%
X220726000Y-238511000D03*
%TO.N,/ExpIFC-SIOCTC/FONT1*%
X223266000Y-241051000D03*
%TO.N,/ExpIFC-SIOCTC/CONPWR*%
X223266000Y-238511000D03*
%TO.N,/ExpIFC-SIOCTC/BLPWR*%
X225806000Y-241051000D03*
%TO.N,GND*%
X225806000Y-238511000D03*
%TD*%
D18*
%TO.N,/ExpIFC-SIOCTC/BAI0*%
%TO.C,JP3*%
X98690000Y-126250000D03*
D19*
%TO.N,/ExpIFC-SIOCTC/BAO0*%
X100690000Y-126250000D03*
%TD*%
D18*
%TO.N,/ExpIFC-SIOCTC/bpIEI*%
%TO.C,JP1*%
X191690000Y-107000000D03*
D19*
%TO.N,bpIEO*%
X193690000Y-107000000D03*
%TD*%
D18*
%TO.N,ZCLK*%
%TO.C,OP6*%
X174212000Y-216757000D03*
D19*
%TO.N,CLKf*%
X174212000Y-214757000D03*
%TO.N,CLKh*%
X174212000Y-212757000D03*
%TO.N,/ExpIFC-SIOCTC/IOCLK*%
X172212000Y-216757000D03*
X172212000Y-214757000D03*
X172212000Y-212757000D03*
%TD*%
D18*
%TO.N,/ExpIFC-SIOCTC/LCLIA-*%
%TO.C,JP2*%
X191690000Y-112250000D03*
D19*
%TO.N,/ExpIFC-SIOCTC/B0IEO*%
X193690000Y-112250000D03*
%TD*%
D23*
%TO.N,/ExpIFC-SIOCTC/SDA_TX*%
%TO.C,M2*%
X104140000Y-251968000D03*
%TO.N,/ExpIFC-SIOCTC/SCL0_RX*%
X104140000Y-249428000D03*
D12*
%TO.N,/ExpIFC-SIOCTC/V3D0*%
X104140000Y-246888000D03*
D23*
%TO.N,/ExpIFC-SIOCTC/V3D1*%
X104140000Y-244348000D03*
%TO.N,/ExpIFC-SIOCTC/V3D2*%
X104140000Y-241808000D03*
%TO.N,/ExpIFC-SIOCTC/V3D3*%
X104140000Y-239268000D03*
%TO.N,/ExpIFC-SIOCTC/V3D4*%
X104140000Y-236728000D03*
D12*
%TO.N,/ExpIFC-SIOCTC/V3D5*%
X104140000Y-234188000D03*
D23*
%TO.N,/ExpIFC-SIOCTC/V3D6*%
X104140000Y-231648000D03*
%TO.N,/ExpIFC-SIOCTC/V3D7*%
X106680000Y-231648000D03*
%TO.N,/ExpIFC-SIOCTC/MA0*%
X109220000Y-231648001D03*
%TO.N,/ExpIFC-SIOCTC/MRD-*%
X111760000Y-231647999D03*
%TO.N,/ExpIFC-SIOCTC/MWR-*%
X114300000Y-231648000D03*
%TO.N,/ExpIFC-SIOCTC/MSEL-*%
X116840000Y-231648000D03*
%TO.N,/ExpIFC-SIOCTC/WAITRQ-*%
X119380000Y-231648000D03*
%TO.N,/ExpIFC-SIOCTC/INTRQ*%
X119380000Y-234188000D03*
%TO.N,/ExpIFC-SIOCTC/SPICK*%
X119380000Y-236728000D03*
D12*
%TO.N,/ExpIFC-SIOCTC/SPIMO*%
X119380000Y-239268000D03*
D23*
%TO.N,/ExpIFC-SIOCTC/SPIMI*%
X119380000Y-241808000D03*
%TO.N,/ExpIFC-SIOCTC/SDCS-*%
X119380000Y-244348000D03*
%TO.N,+3.3V*%
X119380000Y-246888000D03*
%TO.N,GND*%
X119380000Y-249428000D03*
D12*
%TO.N,/ExpIFC-SIOCTC/UHPWR5*%
X119380000Y-251968000D03*
%TD*%
D18*
%TO.N,/ExpIFC-SIOCTC/CHB_RXD*%
%TO.C,JP5*%
X280247869Y-119363742D03*
D19*
%TO.N,Net-(JP5-Pin_2)*%
X280247869Y-117363742D03*
%TD*%
D12*
%TO.N,GND*%
%TO.C,J8*%
X309113000Y-116839999D03*
D13*
%TO.N,Net-(J8-Pin_2)*%
X311653000Y-116839999D03*
%TD*%
D32*
%TO.N,ZD4*%
%TO.C,U26*%
X306070000Y-186690000D03*
D22*
%TO.N,ZD5*%
X303530000Y-186690000D03*
%TO.N,ZD6*%
X300990000Y-186690000D03*
%TO.N,ZD7*%
X298450000Y-186690000D03*
%TO.N,GND*%
X295910000Y-186690000D03*
%TO.N,ZRD-*%
X293370000Y-186690000D03*
%TO.N,/ExpIFC-SIOCTC/CHA_CLK*%
X290830000Y-186690000D03*
%TO.N,/ExpIFC-SIOCTC/CHB_CLK*%
X288290000Y-186690000D03*
%TO.N,/ExpIFC-SIOCTC/CTC2_OUT*%
X285750000Y-186690000D03*
%TO.N,ZIORQ-*%
X283210000Y-186690000D03*
%TO.N,/ExpIFC-SIOCTC/CTCIEO*%
X280670000Y-186690000D03*
%TO.N,ZINT-*%
X278130000Y-186690000D03*
%TO.N,/ExpIFC-SIOCTC/SIOIEO*%
X275590000Y-186690000D03*
%TO.N,ZM1-*%
X273050000Y-186690000D03*
%TO.N,/ExpIFC-SIOCTC/IOCLK*%
X273050000Y-201930000D03*
%TO.N,CTC_SEL-*%
X275590000Y-201930000D03*
%TO.N,BRDRST-*%
X278130000Y-201930000D03*
%TO.N,ZA0*%
X280670000Y-201930000D03*
%TO.N,ZA1*%
X283210000Y-201930000D03*
%TO.N,/ExpIFC-SIOCTC/CTC3_CLK*%
X285750000Y-201930000D03*
%TO.N,/ExpIFC-SIOCTC/CTC_CLK*%
X288290000Y-201930000D03*
X290830000Y-201930000D03*
X293370000Y-201930000D03*
%TO.N,+5V*%
X295910000Y-201930000D03*
%TO.N,ZD0*%
X298450000Y-201930000D03*
%TO.N,ZD1*%
X300990000Y-201930000D03*
%TO.N,ZD2*%
X303530000Y-201930000D03*
%TO.N,ZD3*%
X306070000Y-201930000D03*
%TD*%
D28*
%TO.N,Net-(D4-K)*%
%TO.C,D4*%
X164465000Y-251460000D03*
D29*
%TO.N,Net-(D4-A)*%
X167005000Y-251460000D03*
%TD*%
D24*
%TO.N,/MainBoard-CPU_Decode/MHA18*%
%TO.C,U11*%
X130175000Y-150495000D03*
D25*
%TO.N,/MainBoard-CPU_Decode/MHA16*%
X130175000Y-153035000D03*
%TO.N,/MainBoard-CPU_Decode/MHA14*%
X130175000Y-155575000D03*
%TO.N,ZA12*%
X130175000Y-158115000D03*
%TO.N,ZA7*%
X130175000Y-160655000D03*
%TO.N,ZA6*%
X130175000Y-163195000D03*
%TO.N,ZA5*%
X130175000Y-165735000D03*
%TO.N,ZA4*%
X130175000Y-168275000D03*
%TO.N,ZA3*%
X130175000Y-170815000D03*
%TO.N,ZA2*%
X130175000Y-173355000D03*
%TO.N,ZA1*%
X130175000Y-175895000D03*
%TO.N,ZA0*%
X130175000Y-178435000D03*
%TO.N,ZD0*%
X130175000Y-180975000D03*
%TO.N,ZD1*%
X130175000Y-183515000D03*
%TO.N,ZD2*%
X130175000Y-186055000D03*
%TO.N,GND*%
X130175000Y-188595000D03*
%TO.N,ZD3*%
X145415000Y-188595000D03*
%TO.N,ZD4*%
X145415000Y-186055000D03*
%TO.N,ZD5*%
X145415000Y-183515000D03*
%TO.N,ZD6*%
X145415000Y-180975000D03*
%TO.N,ZD7*%
X145415000Y-178435000D03*
%TO.N,/MainBoard-CPU_Decode/LCLMEM-*%
X145415000Y-175895000D03*
%TO.N,ZA10*%
X145415000Y-173355000D03*
%TO.N,/MainBoard-CPU_Decode/SRAMRD-*%
X145415000Y-170815000D03*
%TO.N,ZA11*%
X145415000Y-168275000D03*
%TO.N,ZA9*%
X145415000Y-165735000D03*
%TO.N,ZA8*%
X145415000Y-163195000D03*
%TO.N,/MainBoard-CPU_Decode/MHA13*%
X145415000Y-160655000D03*
%TO.N,/MainBoard-CPU_Decode/SRAMWR-*%
X145415000Y-158115000D03*
%TO.N,/MainBoard-CPU_Decode/MHA17*%
X145415000Y-155575000D03*
%TO.N,/MainBoard-CPU_Decode/MHA15*%
X145415000Y-153035000D03*
%TO.N,+5V*%
X145415000Y-150495000D03*
%TD*%
D17*
%TO.N,+5V*%
%TO.C,RN5*%
X160782000Y-144526000D03*
D11*
%TO.N,ZD0*%
X163322000Y-144526000D03*
%TO.N,ZD1*%
X165862000Y-144526000D03*
%TO.N,ZD2*%
X168402000Y-144526000D03*
%TO.N,ZD3*%
X170942000Y-144526000D03*
%TO.N,ZD4*%
X173482000Y-144526000D03*
%TO.N,ZD5*%
X176022000Y-144526000D03*
%TO.N,ZD6*%
X178562000Y-144526000D03*
%TO.N,ZD7*%
X181102000Y-144526000D03*
%TD*%
D18*
%TO.N,/ExpIFC-SIOCTC/USR8J*%
%TO.C,JP4*%
X194190000Y-129250000D03*
D19*
%TO.N,/ExpIFC-SIOCTC/USR8*%
X194190000Y-127250000D03*
%TD*%
D31*
%TO.N,BA15*%
%TO.C,J1*%
X109988501Y-101805501D03*
D13*
%TO.N,BA14*%
X109988501Y-99265501D03*
%TO.N,BA13*%
X112528501Y-101805501D03*
%TO.N,BA12*%
X112528501Y-99265501D03*
%TO.N,BA11*%
X115068500Y-101805501D03*
%TO.N,BA10*%
X115068501Y-99265501D03*
%TO.N,BA09*%
X117608501Y-101805501D03*
%TO.N,BA08*%
X117608501Y-99265501D03*
%TO.N,BA07*%
X120148501Y-101805501D03*
%TO.N,BA06*%
X120148501Y-99265501D03*
%TO.N,BA05*%
X122688501Y-101805501D03*
%TO.N,BA04*%
X122688501Y-99265501D03*
%TO.N,BA03*%
X125228501Y-101805501D03*
%TO.N,BA02*%
X125228501Y-99265501D03*
%TO.N,BA01*%
X127768502Y-101805501D03*
%TO.N,BA00*%
X127768501Y-99265501D03*
%TO.N,GND*%
X130308501Y-101805501D03*
%TO.N,+5V*%
X130308501Y-99265501D03*
%TO.N,ZM1-*%
X132848501Y-101805501D03*
%TO.N,BRDRST-*%
X132848501Y-99265501D03*
%TO.N,/ExpIFC-SIOCTC/CSTM41*%
X135388501Y-101805501D03*
%TO.N,/ExpIFC-SIOCTC/BAO0*%
X135388501Y-99265501D03*
%TO.N,/ExpIFC-SIOCTC/BAObp*%
X137928500Y-101805501D03*
%TO.N,/ExpIFC-SIOCTC/CSTM44*%
X137928501Y-99265501D03*
%TO.N,/ExpIFC-SIOCTC/CSTM45*%
X140468501Y-101805501D03*
%TO.N,/ExpIFC-SIOCTC/CSTM46*%
X140468501Y-99265501D03*
%TO.N,/ExpIFC-SIOCTC/CSTM47*%
X143008501Y-101805501D03*
%TO.N,/ExpIFC-SIOCTC/CSTM48*%
X143008501Y-99265501D03*
%TO.N,BA23*%
X145548501Y-101805501D03*
%TO.N,BA22*%
X145548501Y-99265501D03*
%TO.N,BA21*%
X148088500Y-101805501D03*
%TO.N,BA20*%
X148088501Y-99265501D03*
%TO.N,BA19*%
X150628502Y-101805501D03*
%TO.N,BA18*%
X150628501Y-99265501D03*
%TO.N,BA17*%
X153168501Y-101805501D03*
%TO.N,BA16*%
X153168501Y-99265501D03*
%TO.N,GND*%
X155708501Y-101805501D03*
%TO.N,+5V*%
X155708501Y-99265501D03*
%TO.N,ZRFSH-*%
X158248501Y-101805501D03*
%TO.N,RCBPAGE*%
X158248501Y-99265501D03*
%TD*%
D18*
%TO.N,Net-(D6-A)*%
%TO.C,JP6*%
X124222000Y-245618000D03*
D19*
%TO.N,+5V*%
X126222000Y-245618000D03*
%TD*%
D28*
%TO.N,Net-(D3-K)*%
%TO.C,D3*%
X159385000Y-251460000D03*
D29*
%TO.N,Net-(D3-A)*%
X161925000Y-251460000D03*
%TD*%
D17*
%TO.N,+5V*%
%TO.C,RN7*%
X210058000Y-128651000D03*
D11*
%TO.N,CRSTRQ-*%
X212598000Y-128651000D03*
%TO.N,ZINT-*%
X215138000Y-128651000D03*
%TO.N,NMIREQ-*%
X217678000Y-128651000D03*
%TO.N,ZWAIT-*%
X220218000Y-128651000D03*
%TO.N,ZRD-*%
X222758000Y-128651000D03*
%TO.N,ZWR-*%
X225298000Y-128651000D03*
%TO.N,ZMREQ-*%
X227838000Y-128651000D03*
%TO.N,ZIORQ-*%
X230378000Y-128651000D03*
%TD*%
D18*
%TO.N,/ExpIFC-SIOCTC/CTC2_OUT*%
%TO.C,OP7*%
X289560000Y-139192000D03*
D19*
%TO.N,/ExpIFC-SIOCTC/CTC_CLK*%
X287560000Y-139192000D03*
%TO.N,/ExpIFC-SIOCTC/CTC3_CLK*%
X289560000Y-141192000D03*
X287560000Y-141192000D03*
%TD*%
D17*
%TO.N,+5V*%
%TO.C,RN6*%
X136906000Y-131699000D03*
D11*
%TO.N,/MainBoard-CPU_Decode/VPU1N*%
X139446000Y-131699000D03*
%TO.N,/MainBoard-CPU_Decode/VPU2N*%
X141986000Y-131699000D03*
%TO.N,/MainBoard-CPU_Decode/VPU3N*%
X144526000Y-131699000D03*
%TO.N,BMREQ-*%
X147066000Y-131699000D03*
%TO.N,BWR-*%
X149606000Y-131699000D03*
%TO.N,BRD-*%
X152146000Y-131699000D03*
%TO.N,ZBREQ-*%
X154686000Y-131699000D03*
%TO.N,BIORQ-*%
X157226000Y-131699000D03*
%TD*%
D12*
%TO.N,unconnected-(J10-Pin_1-Pad1)*%
%TO.C,J10*%
X97663000Y-217297000D03*
D13*
%TO.N,unconnected-(J10-Pin_2-Pad2)*%
X97663000Y-219837000D03*
%TO.N,unconnected-(J10-Pin_3-Pad3)*%
X97663000Y-222377000D03*
%TO.N,unconnected-(J10-Pin_4-Pad4)*%
X97663000Y-224917000D03*
%TD*%
D12*
%TO.N,BA15*%
%TO.C,J5*%
X94996000Y-117856000D03*
D13*
%TO.N,BA14*%
X97536000Y-117856000D03*
%TO.N,BA13*%
X100076000Y-117856000D03*
%TO.N,BA12*%
X102616000Y-117856000D03*
%TO.N,BA11*%
X105156000Y-117856000D03*
%TO.N,BA10*%
X107696000Y-117856000D03*
%TO.N,BA09*%
X110236000Y-117856000D03*
%TO.N,BA08*%
X112776000Y-117856000D03*
%TO.N,BA07*%
X115316000Y-117856000D03*
%TO.N,BA06*%
X117856000Y-117856000D03*
%TO.N,BA05*%
X120396000Y-117856000D03*
%TO.N,BA04*%
X122936000Y-117856000D03*
%TO.N,BA03*%
X125476000Y-117856000D03*
%TO.N,BA02*%
X128016000Y-117856000D03*
%TO.N,BA01*%
X130556000Y-117856000D03*
%TO.N,BA00*%
X133096000Y-117856000D03*
%TO.N,GND*%
X135636000Y-117856000D03*
%TO.N,+5V*%
X138176000Y-117856000D03*
%TO.N,ZM1-*%
X140716000Y-117856000D03*
%TO.N,BRDRST-*%
X143256000Y-117856000D03*
%TO.N,ZCLK*%
X145796000Y-117856000D03*
%TO.N,ZINT-*%
X148336000Y-117856000D03*
%TO.N,BMREQ-*%
X150876000Y-117856000D03*
%TO.N,BWR-*%
X153416000Y-117856000D03*
%TO.N,BRD-*%
X155956000Y-117856000D03*
%TO.N,BIORQ-*%
X158496000Y-117856000D03*
%TO.N,BD0*%
X161036000Y-117856000D03*
%TO.N,BD1*%
X163576000Y-117856000D03*
%TO.N,BD2*%
X166116000Y-117856000D03*
%TO.N,BD3*%
X168656000Y-117856000D03*
%TO.N,BD4*%
X171196000Y-117856000D03*
%TO.N,BD5*%
X173736000Y-117856000D03*
%TO.N,BD6*%
X176276000Y-117856000D03*
%TO.N,BD7*%
X178816000Y-117856000D03*
%TO.N,/ExpIFC-SIOCTC/TXD_A*%
X181356000Y-117856000D03*
%TO.N,/ExpIFC-SIOCTC/RXD_A*%
X183896000Y-117856000D03*
%TO.N,/ExpIFC-SIOCTC/ExIRQ1-*%
X186436000Y-117856000D03*
%TO.N,/ExpIFC-SIOCTC/LCLIA-*%
X188976000Y-117856000D03*
%TO.N,/ExpIFC-SIOCTC/B0IEO*%
X191516000Y-117856000D03*
%TO.N,CRSTRQ-*%
X194056000Y-117856000D03*
%TO.N,/ExpIFC-SIOCTC/CSTM41*%
X94996000Y-120396000D03*
%TO.N,/ExpIFC-SIOCTC/BAI0*%
X97536000Y-120396000D03*
%TO.N,/ExpIFC-SIOCTC/BAO0*%
X100076000Y-120396000D03*
%TO.N,/ExpIFC-SIOCTC/CSTM44*%
X102616000Y-120396000D03*
%TO.N,/ExpIFC-SIOCTC/CSTM45*%
X105156000Y-120396000D03*
%TO.N,/ExpIFC-SIOCTC/CSTM46*%
X107696000Y-120396000D03*
%TO.N,/ExpIFC-SIOCTC/CSTM47*%
X110236000Y-120396000D03*
%TO.N,/ExpIFC-SIOCTC/CSTM48*%
X112776000Y-120396000D03*
%TO.N,BA23*%
X115316000Y-120396000D03*
%TO.N,BA22*%
X117856000Y-120396000D03*
%TO.N,BA21*%
X120396000Y-120396000D03*
%TO.N,BA20*%
X122936000Y-120396000D03*
%TO.N,BA19*%
X125476000Y-120396000D03*
%TO.N,BA18*%
X128016000Y-120396000D03*
%TO.N,BA17*%
X130556000Y-120396000D03*
%TO.N,BA16*%
X133096000Y-120396000D03*
%TO.N,GND*%
X135636000Y-120396000D03*
%TO.N,+5V*%
X138176000Y-120396000D03*
%TO.N,ZRFSH-*%
X140716000Y-120396000D03*
%TO.N,RCBPAGE*%
X143256000Y-120396000D03*
%TO.N,/ExpIFC-SIOCTC/IOCLK*%
X145796000Y-120396000D03*
%TO.N,ZBSAK-*%
X148336000Y-120396000D03*
%TO.N,ZHALT-*%
X150876000Y-120396000D03*
%TO.N,ZBREQ-*%
X153416000Y-120396000D03*
%TO.N,ZWAIT-*%
X155956000Y-120396000D03*
%TO.N,NMIREQ-*%
X158496000Y-120396000D03*
%TO.N,/ExpIFC-SIOCTC/NC_D08*%
X161036000Y-120396000D03*
%TO.N,/ExpIFC-SIOCTC/NC_D09*%
X163576000Y-120396000D03*
%TO.N,/ExpIFC-SIOCTC/NC_D10*%
X166116000Y-120396000D03*
%TO.N,/ExpIFC-SIOCTC/NC_D11*%
X168656000Y-120396000D03*
%TO.N,/ExpIFC-SIOCTC/NC_D12*%
X171196000Y-120396000D03*
%TO.N,/ExpIFC-SIOCTC/NC_D13*%
X173736000Y-120396000D03*
%TO.N,/ExpIFC-SIOCTC/NC_D14*%
X176276000Y-120396000D03*
%TO.N,/ExpIFC-SIOCTC/NC_D15*%
X178816000Y-120396000D03*
%TO.N,/ExpIFC-SIOCTC/TXD_B*%
X181356000Y-120396000D03*
%TO.N,/ExpIFC-SIOCTC/RXD_B*%
X183896000Y-120396000D03*
%TO.N,/ExpIFC-SIOCTC/ExIRQ2-*%
X186436000Y-120396000D03*
%TO.N,/ExpIFC-SIOCTC/USR6*%
X188976000Y-120396000D03*
%TO.N,/ExpIFC-SIOCTC/USR7*%
X191516000Y-120396000D03*
%TO.N,/ExpIFC-SIOCTC/USR8*%
X194056000Y-120396000D03*
%TD*%
D18*
%TO.N,/MainBoard-CPU_Decode/VPU1*%
%TO.C,OP5*%
X195548000Y-185515000D03*
D19*
%TO.N,ZA15*%
X195548000Y-183515000D03*
%TO.N,GND*%
X195548000Y-181515000D03*
%TO.N,/MainBoard-CPU_Decode/RA55RO*%
X193548000Y-185515000D03*
X193548000Y-183515000D03*
X193548000Y-181515000D03*
%TD*%
D28*
%TO.N,Net-(D1-K)*%
%TO.C,D1*%
X149225000Y-251460000D03*
D29*
%TO.N,Net-(D1-A)*%
X151765000Y-251460000D03*
%TD*%
D35*
%TO.N,Net-(R29-Pad1)*%
%TO.C,RV1*%
X164405000Y-237998000D03*
%TO.N,/ExpIFC-SIOCTC/CONV0*%
X161865000Y-240538000D03*
%TO.N,Net-(R20-Pad2)*%
X164405000Y-243078000D03*
%TD*%
D17*
%TO.N,+5V*%
%TO.C,RN8*%
X161036000Y-128778000D03*
D11*
%TO.N,BD0*%
X163576000Y-128778000D03*
%TO.N,BD1*%
X166116000Y-128778000D03*
%TO.N,BD2*%
X168656000Y-128778000D03*
%TO.N,BD3*%
X171196000Y-128778000D03*
%TO.N,BD4*%
X173736000Y-128778000D03*
%TO.N,BD5*%
X176276000Y-128778000D03*
%TO.N,BD6*%
X178816000Y-128778000D03*
%TO.N,BD7*%
X181356000Y-128778000D03*
%TD*%
D30*
%TO.N,+5V*%
%TO.C,C46*%
X100163000Y-190373000D03*
D11*
%TO.N,GND*%
X97663000Y-190373000D03*
%TD*%
D24*
%TO.N,+5V*%
%TO.C,U34*%
X134620000Y-206375000D03*
D21*
%TO.N,unconnected-(U34-NC2-Pad2)*%
X134620000Y-208915000D03*
%TO.N,unconnected-(U34-NC3-Pad3)*%
X134620000Y-211455000D03*
D25*
%TO.N,GND*%
X134620000Y-213995000D03*
D21*
%TO.N,unconnected-(U34-NC5-Pad5)*%
X134620000Y-216535000D03*
%TO.N,unconnected-(U34-NC6-Pad6)*%
X134620000Y-219075000D03*
D25*
%TO.N,GND*%
X134620000Y-221615000D03*
%TO.N,CLKf*%
X142240000Y-221615000D03*
D21*
%TO.N,unconnected-(U34-NC9-Pad9)*%
X142240000Y-219075000D03*
%TO.N,unconnected-(U34-NC10-Pad10)*%
X142240000Y-216535000D03*
D25*
%TO.N,CLKf*%
X142240000Y-213995000D03*
D21*
%TO.N,unconnected-(U34-NC12-Pad12)*%
X142240000Y-211455000D03*
%TO.N,unconnected-(U34-NC13-Pad13)*%
X142240000Y-208915000D03*
D25*
%TO.N,+5V*%
X142240000Y-206375000D03*
%TD*%
D36*
%TO.N,GND*%
X122504200Y-214426800D03*
X147320000Y-240538000D03*
X129032000Y-223647000D03*
X146690000Y-230100000D03*
X179400200Y-208610200D03*
X197866000Y-204597000D03*
X208980100Y-181965600D03*
X139790000Y-229950000D03*
X105079800Y-180721000D03*
X131445000Y-138430000D03*
X150495000Y-209550000D03*
X179832000Y-228286600D03*
X163830000Y-222290000D03*
X176098200Y-150368000D03*
X178540000Y-160100000D03*
X194970400Y-145618200D03*
X104749600Y-162280600D03*
X244602000Y-195326000D03*
X102235000Y-216027000D03*
X161340800Y-132664200D03*
X127889000Y-249428000D03*
X266954000Y-133858000D03*
X109982000Y-139801600D03*
X120650000Y-223266000D03*
X231902000Y-195326000D03*
X147320000Y-249428000D03*
D37*
X286385000Y-96520000D03*
D36*
X153670000Y-143560800D03*
X204901800Y-171780200D03*
D38*
X160807400Y-199110600D03*
D36*
X120396000Y-218440000D03*
X140944600Y-136271000D03*
X239928400Y-181635400D03*
X178587400Y-140208000D03*
X122682000Y-143510000D03*
X102235000Y-222885000D03*
X215341200Y-159461200D03*
X170180000Y-236474000D03*
X177800000Y-232410000D03*
D38*
X178765200Y-175056800D03*
D36*
X242595400Y-161493200D03*
D38*
X162204638Y-227674638D03*
D36*
X129032000Y-219837000D03*
X185343800Y-213817200D03*
X178562000Y-191338200D03*
X157327600Y-203987400D03*
X168275000Y-246380000D03*
X208153000Y-229108000D03*
X156133800Y-198755000D03*
X129032000Y-215900000D03*
X214858600Y-189407800D03*
D37*
X281686000Y-99314000D03*
D36*
X248589800Y-181889400D03*
X248945400Y-147955000D03*
X165887400Y-206340100D03*
X278130000Y-126872999D03*
X144754600Y-210769200D03*
X167030400Y-198780400D03*
X236347000Y-150647400D03*
X290245800Y-204749400D03*
X208432400Y-203809600D03*
X129290065Y-145539805D03*
D38*
X142240000Y-202438000D03*
D36*
X185340000Y-229000000D03*
X272084800Y-144907000D03*
X193598800Y-174510700D03*
X134366000Y-235966000D03*
X230047800Y-171450000D03*
X285750000Y-151638000D03*
X128524000Y-240411000D03*
X129188001Y-141632205D03*
X230047800Y-160121600D03*
X218694000Y-170815000D03*
X198504544Y-160131832D03*
D37*
X291013055Y-99240780D03*
D36*
X128016000Y-231648000D03*
X219430600Y-217449400D03*
X173228000Y-222326200D03*
X159664400Y-214706200D03*
X155829000Y-217932000D03*
X99695000Y-173355000D03*
D38*
X303215001Y-133985000D03*
D36*
X137134600Y-143383000D03*
D37*
%TO.N,+5V*%
X304165000Y-125603000D03*
D36*
X196951600Y-166497000D03*
X97790000Y-175895000D03*
X159308800Y-229387400D03*
X190449200Y-145669000D03*
X216408000Y-189382400D03*
X194411600Y-190144400D03*
X183103400Y-198704200D03*
X276377400Y-144881600D03*
X257810000Y-179959000D03*
X163195000Y-246380000D03*
X186940000Y-152300000D03*
X172540000Y-226000000D03*
X250393200Y-151384000D03*
D37*
X304165000Y-117305667D03*
D36*
X216662000Y-216662000D03*
X243814600Y-164261800D03*
X183769000Y-248539000D03*
X134640000Y-193900000D03*
X293370000Y-151511000D03*
D37*
X304165000Y-125603000D03*
D38*
X204620500Y-189674500D03*
D36*
X197739000Y-208889600D03*
X232460800Y-149453600D03*
X234442000Y-237363000D03*
D38*
X158292800Y-196240400D03*
D36*
X137160000Y-136144000D03*
X203047600Y-152120600D03*
X171450000Y-235966000D03*
X146354800Y-226288600D03*
X251460000Y-183388000D03*
X186932300Y-182448200D03*
X230174800Y-162991800D03*
X146685000Y-210820000D03*
X184912000Y-166166800D03*
X258140200Y-111937800D03*
X157403800Y-206273400D03*
X157022800Y-216331800D03*
X179806600Y-223545400D03*
D37*
X304165000Y-113157000D03*
D36*
X109982000Y-138049000D03*
X123698000Y-229362000D03*
X128016000Y-204470000D03*
X237134400Y-182651400D03*
X156464000Y-234442000D03*
X167030400Y-206146400D03*
X218973400Y-152095200D03*
X186131200Y-225399600D03*
X306451000Y-142367000D03*
X117475000Y-214249000D03*
X169951400Y-217347800D03*
X152781000Y-246380000D03*
D37*
X304165000Y-121454333D03*
D36*
X157861000Y-246380000D03*
X172999400Y-199339200D03*
X259080000Y-152757500D03*
X218592400Y-161544000D03*
X146726145Y-195386145D03*
X178562000Y-237490000D03*
X129286000Y-146812000D03*
X199390000Y-137185400D03*
D38*
%TO.N,Net-(D1-K)*%
X207010000Y-219075000D03*
%TO.N,Net-(D2-K)*%
X207010000Y-222885000D03*
%TO.N,Net-(D3-K)*%
X207010000Y-224155000D03*
%TO.N,Net-(D4-A)*%
X207010000Y-227965000D03*
%TO.N,/ExpIFC-SIOCTC/B0IEO*%
X246910500Y-115493800D03*
X192786000Y-115366800D03*
X246910500Y-154965400D03*
%TO.N,/ExpIFC-SIOCTC/LCLIA-*%
X247396000Y-153644600D03*
X219557600Y-156222300D03*
X219558164Y-153711900D03*
X219100400Y-119024400D03*
%TO.N,BA11*%
X233034683Y-111253383D03*
%TO.N,BA16*%
X109804200Y-125730000D03*
X133140000Y-125700000D03*
%TO.N,/MainBoard-CPU_Decode/CLKhEN-*%
X147955000Y-202768200D03*
X153640000Y-214426800D03*
X161240000Y-206579000D03*
%TO.N,BA17*%
X130530600Y-126441200D03*
X112395000Y-126415800D03*
%TO.N,/MainBoard-CPU_Decode/CLKfEN-*%
X160085383Y-207010000D03*
X161240000Y-216400000D03*
X161140000Y-232295700D03*
%TO.N,BA18*%
X127990600Y-127076200D03*
X114935000Y-127076200D03*
%TO.N,BA22*%
X124206000Y-124942600D03*
X117881400Y-124917200D03*
%TO.N,BA23*%
X115290600Y-124155200D03*
X126847600Y-124180600D03*
%TO.N,BA14*%
X235407200Y-108534200D03*
%TO.N,BA10*%
X231571800Y-112471200D03*
%TO.N,BA20*%
X122961400Y-128498600D03*
X120015000Y-128447800D03*
%TO.N,BA13*%
X233832400Y-109194600D03*
%TO.N,BA12*%
X247777000Y-194945000D03*
X221411800Y-104775000D03*
X231648000Y-193802000D03*
%TO.N,ZM1-*%
X139640000Y-193900000D03*
X257540000Y-155600000D03*
X168840000Y-227500000D03*
X139640000Y-228350000D03*
X139540000Y-187300000D03*
X231749600Y-227100000D03*
%TO.N,BA15*%
X237896400Y-105994200D03*
%TO.N,CLKf*%
X170180000Y-231140000D03*
X149233490Y-230795700D03*
X171140000Y-219000000D03*
X163830000Y-227726438D03*
%TO.N,BRDRST-*%
X209840000Y-214600000D03*
X245110000Y-173355000D03*
X243840000Y-150495000D03*
X245110000Y-134620000D03*
%TO.N,BA19*%
X117449600Y-127711200D03*
X125476000Y-127711200D03*
%TO.N,ZRFSH-*%
X175133000Y-145973800D03*
X175133000Y-168707500D03*
X140589000Y-126873000D03*
X188925200Y-145973800D03*
X175133000Y-182397400D03*
X168656000Y-126771400D03*
X188950600Y-126771400D03*
%TO.N,BA02*%
X126085600Y-135509000D03*
X102412800Y-135509000D03*
%TO.N,BA06*%
X116611400Y-129971800D03*
X99263200Y-129997200D03*
%TO.N,ZNMI-*%
X225882200Y-187401200D03*
X225780600Y-154965400D03*
%TO.N,BWR-*%
X214757000Y-178435000D03*
X214654500Y-134366000D03*
X149631400Y-134264400D03*
%TO.N,ZBREQ-*%
X148234400Y-190653400D03*
%TO.N,ZWAIT-*%
X220192600Y-106984800D03*
X130556000Y-130022600D03*
%TO.N,ZHALT-*%
X104673400Y-129133600D03*
%TO.N,ZBSAK-*%
X210963300Y-190347600D03*
X153009600Y-124307600D03*
X134640000Y-198800000D03*
X210388200Y-152441900D03*
X211277200Y-124282200D03*
%TO.N,BMREQ-*%
X213131400Y-135051800D03*
X147091400Y-136245600D03*
X213409900Y-179679600D03*
%TO.N,ZINT-*%
X133883400Y-124180600D03*
X169612300Y-222570300D03*
X138506200Y-222580200D03*
X295859200Y-130556000D03*
X137769600Y-190080900D03*
%TO.N,ZCLK*%
X116140000Y-165800000D03*
X105511600Y-123469400D03*
X116140000Y-212700000D03*
X160617700Y-219400000D03*
%TO.N,BRD-*%
X216204800Y-131546600D03*
X215519000Y-177139600D03*
%TO.N,BIORQ-*%
X157226000Y-125806200D03*
X218516200Y-180949600D03*
X215442800Y-125831600D03*
%TO.N,/ExpIFC-SIOCTC/IOCLK*%
X261213600Y-97358200D03*
X260909263Y-150091125D03*
X172240000Y-207700000D03*
%TO.N,BA00*%
X131902200Y-136956800D03*
X103759000Y-137109200D03*
%TO.N,ZRD-*%
X224190000Y-213200000D03*
X222758000Y-151168100D03*
X200265000Y-213222300D03*
X224240000Y-199400000D03*
X179966200Y-212039200D03*
X131521200Y-241782600D03*
X178993800Y-182473600D03*
X222508467Y-180843533D03*
%TO.N,ZD6*%
X142240000Y-179070000D03*
X255828800Y-247129300D03*
X218694000Y-202260200D03*
X219151200Y-179019200D03*
%TO.N,ZWR-*%
X162864800Y-234100000D03*
X182016400Y-234100000D03*
X162878738Y-215747600D03*
X203022200Y-177165000D03*
X124091700Y-220971100D03*
X181717700Y-177165000D03*
X224459800Y-166776400D03*
X203225400Y-166801800D03*
X154919115Y-220022300D03*
X181711600Y-183743600D03*
X203225400Y-160718500D03*
X120396000Y-220726000D03*
%TO.N,ZD2*%
X114300000Y-187325000D03*
X167894000Y-243852700D03*
X168367700Y-184480200D03*
X114300000Y-196977000D03*
%TO.N,ZA0*%
X129840000Y-218500000D03*
X129840000Y-247200000D03*
X127254000Y-194945000D03*
X245732300Y-156222300D03*
X134874000Y-177329200D03*
%TO.N,ZD7*%
X180340000Y-178434000D03*
X253034800Y-247650000D03*
X201739500Y-178409600D03*
X201879200Y-206044800D03*
X215138000Y-206044800D03*
X141605000Y-178435000D03*
X141605000Y-192405000D03*
X113664000Y-192405000D03*
%TO.N,BA05*%
X100457000Y-133451600D03*
X118846600Y-133299200D03*
%TO.N,DISPSEL-*%
X187566736Y-203314300D03*
X188040000Y-236000000D03*
%TO.N,ZD5*%
X106172000Y-184658000D03*
X258876800Y-246507000D03*
X178638200Y-181229000D03*
X220751400Y-183591200D03*
X221361000Y-201295000D03*
X133985000Y-170815000D03*
X133985000Y-183515000D03*
%TO.N,ZD0*%
X113665000Y-193675000D03*
X162814000Y-180924200D03*
X187401200Y-196875400D03*
X162814000Y-196850000D03*
%TO.N,ZD1*%
X113665000Y-195326000D03*
X115519200Y-250698000D03*
X163957000Y-180949600D03*
X113639600Y-219125800D03*
%TO.N,ZD3*%
X220014800Y-186867800D03*
X111607600Y-148285200D03*
X114935000Y-189865000D03*
X114934987Y-198120000D03*
X220065600Y-198831200D03*
%TO.N,ZD4*%
X220726000Y-200025000D03*
X261874000Y-245986300D03*
X220700600Y-186283600D03*
X133350000Y-186055000D03*
X133350000Y-168910000D03*
X120396000Y-188468000D03*
X173278800Y-186105800D03*
%TO.N,BA08*%
X226415600Y-114350800D03*
%TO.N,BA03*%
X123444000Y-134747000D03*
X101777800Y-134772400D03*
%TO.N,BA07*%
X94615000Y-124587000D03*
X114147600Y-124612400D03*
%TO.N,/ExpIFC-SIOCTC/CHB_TXD*%
X263906000Y-148336000D03*
%TO.N,/ExpIFC-SIOCTC/SPIMI*%
X133350000Y-235966000D03*
%TO.N,USBSDSEL-*%
X175564800Y-223400000D03*
X175564800Y-203200000D03*
X129540000Y-222250000D03*
D36*
%TO.N,+3.3V*%
X136652000Y-235966000D03*
X134740000Y-229700000D03*
X127240000Y-242500000D03*
X122555000Y-224536000D03*
X117475000Y-224536000D03*
D38*
%TO.N,/ExpIFC-SIOCTC/V3D6*%
X105537000Y-225679000D03*
%TO.N,/ExpIFC-SIOCTC/V3D4*%
X108585000Y-225679000D03*
%TO.N,/ExpIFC-SIOCTC/V3D2*%
X111125000Y-225679000D03*
%TO.N,RCBPAGE*%
X214440000Y-227900000D03*
X214040000Y-96700000D03*
%TO.N,/MainBoard-CPU_Decode/MHA21*%
X143662400Y-204241400D03*
X126136400Y-138430000D03*
%TO.N,/MainBoard-CPU_Decode/MHA22*%
X120446800Y-203022200D03*
X120015000Y-143510000D03*
D39*
%TO.N,/MainBoard-CPU_Decode/MHA23*%
X130810000Y-140995400D03*
X170154600Y-209296000D03*
X171551600Y-142798800D03*
D38*
%TO.N,BA04*%
X121081800Y-134035800D03*
X101168200Y-134137400D03*
%TO.N,ZMREQ-*%
X205790800Y-216357200D03*
X176940000Y-216741300D03*
X176890000Y-191750000D03*
X225247200Y-216014300D03*
X227838000Y-140309600D03*
%TO.N,NMIREQ-*%
X217652600Y-150545800D03*
%TO.N,ZIORQ-*%
X183032400Y-138226800D03*
X197993000Y-172745400D03*
X149225000Y-193929000D03*
X130200400Y-143501100D03*
X176316700Y-203822300D03*
X253619000Y-172720000D03*
X197967600Y-139700000D03*
X253562300Y-158100000D03*
X130225800Y-139369800D03*
X253695200Y-190119000D03*
D39*
X181716700Y-167436800D03*
D38*
X198755000Y-237464600D03*
X181762400Y-153670000D03*
X229743000Y-157480000D03*
X197993000Y-150634700D03*
X176336000Y-238446000D03*
X181716700Y-169926000D03*
X181717700Y-171214500D03*
%TO.N,Net-(U38A-D)*%
X154305000Y-217805000D03*
X149225000Y-217805000D03*
%TO.N,/MainBoard-CPU_Decode/PGINGEN*%
X166340000Y-194000000D03*
X138440000Y-199072300D03*
%TO.N,/MainBoard-CPU_Decode/PGENWR-*%
X181717700Y-197993000D03*
X181717700Y-206324200D03*
X163830000Y-199085200D03*
%TO.N,/MainBoard-CPU_Decode/BAtoZAH-*%
X252196600Y-184759600D03*
X192278000Y-205384400D03*
X252196600Y-157454600D03*
X248310400Y-184785000D03*
X248539000Y-203695300D03*
%TO.N,/MainBoard-CPU_Decode/PRA3*%
X240487200Y-146837400D03*
X240440000Y-158900000D03*
X144840000Y-146659600D03*
%TO.N,ZRST-*%
X210340000Y-153700000D03*
X137140000Y-193900000D03*
X127040000Y-193027300D03*
X137140000Y-154300000D03*
%TO.N,/MainBoard-CPU_Decode/BAtoZA-*%
X106019600Y-174955200D03*
X106273600Y-149606000D03*
X157530800Y-151739600D03*
X208965800Y-168605200D03*
X208965800Y-150012400D03*
%TO.N,/MainBoard-CPU_Decode/BAtoMHA-*%
X241325400Y-183515000D03*
X241300000Y-159385000D03*
%TO.N,/ExpIFC-SIOCTC/CTCIEO*%
X252940000Y-154400000D03*
X215215200Y-153670000D03*
X215214200Y-139090400D03*
X252907800Y-188290200D03*
%TO.N,/ExpIFC-SIOCTC/SIOIEO*%
X193141600Y-137160000D03*
X193141600Y-146088100D03*
X215214200Y-154956500D03*
X215849200Y-146088100D03*
%TO.N,/MainBoard-CPU_Decode/ZMNIO-*%
X208369900Y-156311600D03*
X194208400Y-196240400D03*
X156768800Y-213283800D03*
X208512364Y-195592700D03*
X151790400Y-193928000D03*
X194183000Y-214045800D03*
%TO.N,/MainBoard-CPU_Decode/PROE-*%
X154711400Y-140334000D03*
X154711400Y-159359600D03*
%TO.N,/MainBoard-CPU_Decode/PGRGRD-*%
X213409901Y-158082464D03*
X169824400Y-215115500D03*
X170738800Y-158115000D03*
X165662300Y-215099900D03*
%TO.N,/MainBoard-CPU_Decode/ZMASTER*%
X150698200Y-193954400D03*
X194183000Y-154940000D03*
X194183000Y-164617400D03*
X160172400Y-165404800D03*
X160197800Y-183565800D03*
%TO.N,/MainBoard-CPU_Decode/BUSMEM-*%
X218160600Y-175247300D03*
X190271400Y-175260000D03*
X230949500Y-154956500D03*
X218668600Y-158775400D03*
%TO.N,Net-(U14-Pad13)*%
X204673200Y-162077400D03*
X204491617Y-153758883D03*
%TO.N,/MainBoard-CPU_Decode/ZMASTER-*%
X151721400Y-198457400D03*
X175971200Y-169418000D03*
X175971200Y-199923400D03*
X192230965Y-152412700D03*
X175996600Y-155575000D03*
X230936800Y-149987000D03*
X192227200Y-154940000D03*
X230949500Y-153686500D03*
%TO.N,ZA7*%
X138740000Y-159549200D03*
X141040000Y-193900000D03*
%TO.N,Net-(U30-~{E0})*%
X134440000Y-146100000D03*
X142240000Y-193900000D03*
X177562300Y-202539600D03*
X177562300Y-193027300D03*
%TO.N,/MainBoard-CPU_Decode/ZRST*%
X161950400Y-199110600D03*
X140972064Y-197420300D03*
%TO.N,Net-(U13-Pad13)*%
X192938400Y-159385000D03*
X198767700Y-158931564D03*
X192913000Y-153653500D03*
%TO.N,BUSIA-*%
X191363600Y-156210000D03*
X191312800Y-139065000D03*
%TO.N,ZA6*%
X131368800Y-143501100D03*
X177241200Y-162509200D03*
X177241200Y-158800800D03*
%TO.N,INTACK*%
X182295800Y-136156700D03*
X182245000Y-152400000D03*
%TO.N,Net-(U30-E2)*%
X174880600Y-205061500D03*
X174117000Y-156210000D03*
%TO.N,Net-(U13-Pad10)*%
X193548000Y-157480000D03*
X194805300Y-157480000D03*
%TO.N,/MainBoard-CPU_Decode/LCLIO*%
X192024000Y-158775400D03*
X192430400Y-192976500D03*
X192455800Y-171450000D03*
X225221800Y-156222300D03*
X183692800Y-141578600D03*
X183692800Y-158737300D03*
X225221800Y-162763200D03*
X192481200Y-162572700D03*
X134518400Y-140995400D03*
X153051500Y-199161400D03*
%TO.N,ZA2*%
X156565600Y-157226000D03*
X118110000Y-170815000D03*
X156565600Y-173380400D03*
X126111000Y-144780000D03*
%TO.N,/MainBoard-CPU_Decode/LCLMEM*%
X182340000Y-160000000D03*
X182981600Y-234950000D03*
%TO.N,/MainBoard-CPU_Decode/NMIEN*%
X181717700Y-218700900D03*
X215240000Y-219000000D03*
%TO.N,/MainBoard-CPU_Decode/PGRGSEL-*%
X219430600Y-193801000D03*
X166370000Y-215722200D03*
X192278000Y-215163400D03*
X219430600Y-207035400D03*
X168224200Y-193422300D03*
X192303400Y-207077700D03*
%TO.N,BA09*%
X228955600Y-113538000D03*
%TO.N,/MainBoard-CPU_Decode/MHAtoBA-*%
X234454700Y-156222300D03*
X234454700Y-183362600D03*
%TO.N,/MainBoard-CPU_Decode/LCLMEM-*%
X204698600Y-165531800D03*
X186969400Y-177787300D03*
X187045600Y-169977500D03*
%TO.N,/MainBoard-CPU_Decode/LOW1MEG*%
X177546000Y-188849000D03*
X187960000Y-168926500D03*
X187960000Y-167640000D03*
X182962300Y-173151800D03*
X178638200Y-236220000D03*
X134493000Y-139687300D03*
X182984200Y-168691000D03*
X177571400Y-173151800D03*
X187655200Y-139446000D03*
%TO.N,/MainBoard-CPU_Decode/MHA20*%
X206248000Y-203835000D03*
X205905100Y-142214600D03*
X148615400Y-142214600D03*
X148539200Y-136347200D03*
%TO.N,BA01*%
X129209800Y-136220200D03*
X103098600Y-136321800D03*
%TO.N,ZA5*%
X169612300Y-201294000D03*
X169748200Y-166878000D03*
X106680000Y-167005000D03*
%TO.N,CTC_SEL-*%
X186690000Y-201295000D03*
%TO.N,/MainBoard-CPU_Decode/BDCTRL-*%
X198704200Y-173380400D03*
X188722000Y-173380400D03*
X186868800Y-206349600D03*
%TO.N,SIO_SEL-*%
X186690000Y-200025000D03*
%TO.N,ZA3*%
X106680000Y-168910000D03*
X171653200Y-198780400D03*
X171653200Y-172262800D03*
%TO.N,ZA4*%
X176657000Y-169964100D03*
X178892200Y-199999600D03*
%TO.N,ZA10*%
X139700000Y-151765000D03*
X170078400Y-170586400D03*
%TO.N,ZA13*%
X148577300Y-148716100D03*
X235610400Y-192430400D03*
X201117200Y-148640800D03*
X113017300Y-148971000D03*
X201077217Y-193067283D03*
%TO.N,ZA8*%
X140970000Y-156845000D03*
%TO.N,ZA15*%
X115925600Y-147726400D03*
X146050000Y-147434301D03*
X199390000Y-196215000D03*
X215188800Y-185191400D03*
X199364600Y-147332700D03*
%TO.N,ZA14*%
X147320000Y-148056600D03*
X240030000Y-188607700D03*
X240030000Y-189852300D03*
X114312700Y-148336000D03*
X200279000Y-147929600D03*
X200304400Y-194894200D03*
%TO.N,ZA1*%
X171856400Y-200761600D03*
X116840000Y-171450000D03*
%TO.N,ZA12*%
X199440800Y-185813700D03*
X247904000Y-193802000D03*
X244348000Y-193802000D03*
X198678800Y-156159200D03*
X133350000Y-155575000D03*
%TO.N,ZA9*%
X135255000Y-154305000D03*
X135255000Y-165735000D03*
%TO.N,/MainBoard-CPU_Decode/LOW1MEG-*%
X189331600Y-169545000D03*
X189534800Y-174371000D03*
%TO.N,/MainBoard-CPU_Decode/ZAtHoBA-*%
X213409900Y-182880000D03*
X194614800Y-174091600D03*
X194360800Y-179696100D03*
%TO.N,Net-(U19-Pad10)*%
X202260200Y-176250600D03*
X183870600Y-172516800D03*
%TO.N,/MainBoard-CPU_Decode/MHA15*%
X212902800Y-190322200D03*
X187375800Y-198069200D03*
X143281400Y-153009600D03*
X143967200Y-194487800D03*
X202971400Y-197526900D03*
X228473000Y-189890400D03*
X154889200Y-198272400D03*
X211963000Y-196215000D03*
%TO.N,/MainBoard-CPU_Decode/MHA19*%
X206527400Y-202450700D03*
X206400400Y-140970000D03*
X116230400Y-140309600D03*
X206502000Y-188976000D03*
X203301600Y-189001400D03*
X149860000Y-140258800D03*
%TO.N,/MainBoard-CPU_Decode/MHA13*%
X171551600Y-160858200D03*
X202869800Y-195148200D03*
X147955000Y-143281400D03*
X172542200Y-195783200D03*
X187858400Y-194995800D03*
%TO.N,/MainBoard-CPU_Decode/MHA16*%
X189128400Y-163817300D03*
X155498800Y-153035000D03*
X204647800Y-163550600D03*
X155498800Y-164642800D03*
X202971400Y-198932800D03*
%TO.N,/MainBoard-CPU_Decode/PGRGWR-*%
X209677000Y-133629400D03*
X138303000Y-133629400D03*
X161213800Y-211175600D03*
X209753200Y-191262000D03*
X211208700Y-210235800D03*
%TO.N,/MainBoard-CPU_Decode/MHA17*%
X207772000Y-135534400D03*
X207746600Y-199401000D03*
X142951200Y-135636000D03*
X113639600Y-151638000D03*
%TO.N,/MainBoard-CPU_Decode/MHA14*%
X153212800Y-158115000D03*
X153187400Y-149428200D03*
X232156000Y-187452000D03*
X211683600Y-161455100D03*
X228193600Y-195554600D03*
X212013800Y-195047600D03*
X247650000Y-188468000D03*
%TO.N,/MainBoard-CPU_Decode/MHA18*%
X151130000Y-140233400D03*
X207124300Y-201295000D03*
X207124300Y-149301200D03*
%TO.N,/MainBoard-CPU_Decode/SRAMRD-*%
X183083200Y-191312800D03*
X183083200Y-176428400D03*
%TO.N,/MainBoard-CPU_Decode/SRAMWR-*%
X142646400Y-160629600D03*
X185928000Y-164515800D03*
X187591700Y-188480700D03*
%TO.N,/MainBoard-CPU_Decode/FLASHWR-*%
X187426600Y-186220100D03*
X185877200Y-150634700D03*
%TO.N,/MainBoard-CPU_Decode/FLASHRD-*%
X178333400Y-183819800D03*
X164439600Y-185369200D03*
%TO.N,/MainBoard-CPU_Decode/RA55RO*%
X196088000Y-201295000D03*
%TO.N,/MainBoard-CPU_Decode/BDCTLWR-*%
X214240000Y-229250000D03*
X183840000Y-230505000D03*
X183840000Y-175000000D03*
%TO.N,/MainBoard-CPU_Decode/BDTOZD-*%
X203254793Y-159880813D03*
X204241400Y-134912100D03*
%TO.N,/ExpIFC-SIOCTC/FONT1*%
X243078000Y-248453400D03*
%TO.N,/MainBoard-CPU_Decode/ZDBDEN-*%
X202971400Y-134899400D03*
X202996800Y-144754600D03*
%TO.N,/MainBoard-CPU_Decode/VPU2*%
X151231600Y-214426800D03*
%TO.N,DSPBLON-*%
X218567000Y-224155000D03*
X235585000Y-224155000D03*
%TO.N,/ExpIFC-SIOCTC/INTRQ*%
X177038000Y-221234000D03*
%TO.N,/MainBoard-CPU_Decode/CLKfFRC-*%
X188662300Y-222453200D03*
X188747400Y-205105000D03*
%TO.N,/MainBoard-CPU_Decode/CLKf-*%
X180840000Y-211300000D03*
X180840000Y-213800000D03*
%TO.N,Net-(U38B-~{S})*%
X150495000Y-202234800D03*
X153035000Y-209575400D03*
%TO.N,/MainBoard-CPU_Decode/CLKhSW*%
X163840000Y-216200000D03*
X149225000Y-202805300D03*
X163804600Y-207060800D03*
%TO.N,Net-(U16-Pad2)*%
X204036268Y-156864284D03*
X225628200Y-153686500D03*
X204347967Y-217808967D03*
%TO.N,Net-(U35A-~{S})*%
X163840000Y-205650000D03*
X187417700Y-204571600D03*
X187417700Y-231140000D03*
%TO.N,/MainBoard-CPU_Decode/FRCCLKf*%
X215140000Y-222900000D03*
X186867800Y-219945500D03*
%TO.N,/MainBoard-CPU_Decode/CLKfSW*%
X165040000Y-227726438D03*
X165040000Y-205700000D03*
%TO.N,/MainBoard-CPU_Decode/CTRLCLK-*%
X172040000Y-219300000D03*
X177040000Y-219300000D03*
%TO.N,/MainBoard-CPU_Decode/ZMREQ*%
X186157767Y-224382232D03*
X186840000Y-216200000D03*
X170163500Y-224500000D03*
%TO.N,/ExpIFC-SIOCTC/MRD-*%
X113665000Y-226949000D03*
%TO.N,/ExpIFC-SIOCTC/MWR-*%
X119507000Y-222123000D03*
X119507000Y-219710000D03*
%TO.N,/ExpIFC-SIOCTC/MA0*%
X124714000Y-217170000D03*
%TO.N,/ExpIFC-SIOCTC/MSEL-*%
X125730000Y-220980000D03*
%TO.N,Net-(U8-T1OUT)*%
X232410000Y-117602000D03*
X232410000Y-140208000D03*
%TO.N,Net-(U8-R1IN)*%
X255270000Y-140970000D03*
X255270000Y-115570000D03*
%TO.N,/ExpIFC-SIOCTC/CHA_DTR-*%
X267970000Y-150876000D03*
%TO.N,/ExpIFC-SIOCTC/MODIRQ-*%
X207645000Y-215392000D03*
X262740000Y-192600000D03*
%TO.N,/ExpIFC-SIOCTC/ExIRQ1-*%
X262788400Y-150063200D03*
X262788400Y-116230400D03*
X259105400Y-175539400D03*
%TO.N,bpIEO*%
X171240000Y-125100000D03*
X167640000Y-227726438D03*
%TO.N,/ExpIFC-SIOCTC/ExIRQ2-*%
X261747000Y-150063200D03*
X260400800Y-168300400D03*
X261747000Y-100609400D03*
%TO.N,/ExpIFC-SIOCTC/bpIEI*%
X246288200Y-109677200D03*
X247294400Y-156844600D03*
%TO.N,/ExpIFC-SIOCTC/USR8J*%
X211937600Y-130835400D03*
X212369400Y-168630600D03*
%TD*%
D40*
%TO.N,BA11*%
X233034683Y-111253383D02*
X233375200Y-111593900D01*
X233375200Y-179705000D02*
X231470200Y-181610000D01*
X233375200Y-111593900D02*
X233375200Y-179705000D01*
X231470200Y-181610000D02*
X224155000Y-181610000D01*
%TO.N,BA14*%
X235407200Y-108534200D02*
X235407200Y-185115200D01*
X235407200Y-185115200D02*
X233832400Y-186690000D01*
X233832400Y-186690000D02*
X224155000Y-186690000D01*
%TO.N,BA10*%
X231571800Y-112471200D02*
X231571800Y-176911000D01*
X229412800Y-179070000D02*
X224155000Y-179070000D01*
X231571800Y-176911000D02*
X229412800Y-179070000D01*
%TO.N,BA13*%
X224155000Y-184150000D02*
X232994200Y-184150000D01*
X233832400Y-183362600D02*
X233832400Y-109194600D01*
X233019600Y-184175400D02*
X233832400Y-183362600D01*
X232994200Y-184150000D02*
X233019600Y-184175400D01*
%TO.N,BA12*%
X221411800Y-189026800D02*
X221411800Y-104775000D01*
X224155000Y-191770000D02*
X221411800Y-189026800D01*
%TO.N,ZM1-*%
X272135600Y-186690000D02*
X273050000Y-186690000D01*
X139640000Y-187400000D02*
X139540000Y-187300000D01*
X139640000Y-193900000D02*
X139640000Y-228350000D01*
X139640000Y-193900000D02*
X139640000Y-187400000D01*
X231749600Y-227100000D02*
X231749600Y-227076000D01*
X231749600Y-227076000D02*
X272135600Y-186690000D01*
%TO.N,BA15*%
X237896400Y-107315000D02*
X237899800Y-107318400D01*
X237896400Y-105994200D02*
X237896400Y-107315000D01*
X237899800Y-186635800D02*
X235305599Y-189230001D01*
X235305599Y-189230001D02*
X224155000Y-189230001D01*
X237899800Y-107318400D02*
X237899800Y-186635800D01*
%TO.N,CLKf*%
X171140000Y-230180000D02*
X171140000Y-219000000D01*
X149233490Y-230795700D02*
X149257000Y-230772190D01*
X149257000Y-230772190D02*
X149257000Y-221837000D01*
X170180000Y-231140000D02*
X171140000Y-230180000D01*
%TO.N,BA02*%
X126085600Y-135456200D02*
X126224300Y-135317500D01*
X126860200Y-119011800D02*
X128016000Y-117856000D01*
X126860200Y-120874749D02*
X126860200Y-119011800D01*
X101600000Y-172491400D02*
X102412800Y-171678600D01*
X102412800Y-171678600D02*
X102412800Y-135509000D01*
X94843599Y-172491400D02*
X101600000Y-172491400D01*
X126224300Y-121510649D02*
X126860200Y-120874749D01*
X126224300Y-135317500D02*
X126224300Y-121510649D01*
X126085600Y-135509000D02*
X126085600Y-135456200D01*
%TO.N,BA06*%
X99263200Y-129997200D02*
X99263200Y-161747200D01*
X116611400Y-119100600D02*
X117856000Y-117856000D01*
X99263200Y-161747200D02*
X98450402Y-162559998D01*
X98450402Y-162559998D02*
X94615000Y-162559998D01*
X116611400Y-129971800D02*
X116611400Y-119100600D01*
%TO.N,BWR-*%
X152260200Y-119011800D02*
X153416000Y-117856000D01*
X149606000Y-120031451D02*
X150625651Y-119011800D01*
X150625651Y-119011800D02*
X152260200Y-119011800D01*
X149606000Y-131699000D02*
X149606000Y-120031451D01*
%TO.N,ZBREQ-*%
X150507700Y-140492580D02*
X150507700Y-135877301D01*
X154686001Y-121666001D02*
X153416000Y-120396000D01*
X154686001Y-131699000D02*
X154686001Y-121666001D01*
X149428200Y-141572080D02*
X150507700Y-140492580D01*
X148234400Y-190653400D02*
X149428200Y-189459600D01*
X150507700Y-135877301D02*
X154686001Y-131699000D01*
X149428200Y-189459600D02*
X149428200Y-141572080D01*
%TO.N,ZWAIT-*%
X124460000Y-193675000D02*
X128430519Y-189704481D01*
X220218000Y-128651000D02*
X220218000Y-107010200D01*
X128430519Y-189704481D02*
X128430519Y-137880961D01*
X220218000Y-107010200D02*
X220192600Y-106984800D01*
X128430519Y-137880961D02*
X130556000Y-135755480D01*
X130556000Y-135755480D02*
X130556000Y-130022600D01*
%TO.N,BMREQ-*%
X149720200Y-119011800D02*
X150876000Y-117856000D01*
X147866000Y-119011800D02*
X149720200Y-119011800D01*
X147066000Y-131699000D02*
X147066000Y-119811800D01*
X147066000Y-119811800D02*
X147866000Y-119011800D01*
%TO.N,ZINT-*%
X172867302Y-96076700D02*
X169678501Y-99265501D01*
X215138000Y-128651000D02*
X216554301Y-127234699D01*
X214298180Y-96076700D02*
X172867302Y-96076700D01*
X137769600Y-150855750D02*
X133816700Y-146902850D01*
X216554301Y-127234699D02*
X216554301Y-98332821D01*
X216554301Y-98332821D02*
X214298180Y-96076700D01*
X133816700Y-146902850D02*
X133816700Y-124247300D01*
X137769600Y-190080900D02*
X137769600Y-150855750D01*
X133816700Y-124247300D02*
X133883400Y-124180600D01*
%TO.N,ZCLK*%
X116140000Y-165800000D02*
X116140000Y-212700000D01*
%TO.N,BRD-*%
X152146000Y-120031451D02*
X153165651Y-119011800D01*
X153165651Y-119011800D02*
X154800200Y-119011800D01*
X154800200Y-119011800D02*
X155956000Y-117856000D01*
X152146000Y-131699000D02*
X152146000Y-120031451D01*
%TO.N,BIORQ-*%
X157226000Y-131699000D02*
X157226000Y-125806200D01*
X157226000Y-125806200D02*
X157226000Y-119126000D01*
X157226000Y-119126000D02*
X158496000Y-117856000D01*
%TO.N,BA00*%
X103708200Y-137160000D02*
X103759000Y-137109200D01*
X94615000Y-177799999D02*
X103022401Y-177799999D01*
X131902200Y-119049800D02*
X133096000Y-117856000D01*
X103022401Y-177799999D02*
X103708200Y-177114200D01*
X103708200Y-177114200D02*
X103708200Y-137160000D01*
X131902200Y-136956800D02*
X131902200Y-119049800D01*
%TO.N,ZRD-*%
X130302000Y-201295000D02*
X124460000Y-201295000D01*
X200265000Y-213222300D02*
X200265000Y-249660000D01*
X222758000Y-128651000D02*
X222758000Y-151168100D01*
X131521200Y-241782600D02*
X131521200Y-202514200D01*
X131521200Y-202514200D02*
X130302000Y-201295000D01*
%TO.N,ZD6*%
X173457350Y-173887650D02*
X173457350Y-149630651D01*
X173457350Y-149630651D02*
X178562001Y-144526000D01*
X166370000Y-180975000D02*
X173457350Y-173887650D01*
%TO.N,ZWR-*%
X162878738Y-215747600D02*
X162878738Y-233761262D01*
X162864800Y-233775200D02*
X162864800Y-234100000D01*
X162878738Y-233761262D02*
X162864800Y-233775200D01*
%TO.N,ZD2*%
X159232600Y-186690000D02*
X158572200Y-186029600D01*
X159232600Y-195427600D02*
X159232600Y-186690000D01*
X162610800Y-198805800D02*
X159232600Y-195427600D01*
X158267400Y-234226100D02*
X158267400Y-204157680D01*
X158572200Y-186029600D02*
X158546800Y-186055000D01*
X158267400Y-204157680D02*
X162610800Y-199814280D01*
X158546800Y-186055000D02*
X151130000Y-186055000D01*
X162610800Y-199814280D02*
X162610800Y-198805800D01*
X167894000Y-243852700D02*
X158267400Y-234226100D01*
%TO.N,ZA0*%
X129840000Y-247200000D02*
X130163300Y-246876700D01*
X130163300Y-218823300D02*
X129840000Y-218500000D01*
X130163300Y-246876700D02*
X130163300Y-218823300D01*
%TO.N,BA05*%
X100457000Y-164515800D02*
X100457000Y-133451600D01*
X119240200Y-120646349D02*
X119240200Y-119011800D01*
X119240200Y-119011800D02*
X120396000Y-117856000D01*
X118846600Y-121039949D02*
X119240200Y-120646349D01*
X118846600Y-133299200D02*
X118846600Y-121039949D01*
X99872801Y-165099999D02*
X100457000Y-164515800D01*
X94615000Y-165099999D02*
X99872801Y-165099999D01*
%TO.N,ZD0*%
X162814000Y-180924200D02*
X162814000Y-196850000D01*
%TO.N,ZD1*%
X115519200Y-220802200D02*
X113741200Y-219024200D01*
X113741200Y-219024200D02*
X113639600Y-219125800D01*
X115519200Y-250698000D02*
X115519200Y-220802200D01*
%TO.N,ZD3*%
X111607600Y-168427400D02*
X109220000Y-170815000D01*
X111607600Y-148285200D02*
X111607600Y-168427400D01*
%TO.N,BA08*%
X226415600Y-172237400D02*
X226415600Y-173253400D01*
X226415600Y-114477800D02*
X226403800Y-114489600D01*
X226415600Y-173253400D02*
X225679000Y-173990000D01*
X226403800Y-114489600D02*
X226403800Y-172225600D01*
X226415600Y-114350800D02*
X226415600Y-114477800D01*
X226403800Y-172225600D02*
X226415600Y-172237400D01*
X225679000Y-173990000D02*
X224155000Y-173990000D01*
%TO.N,BA03*%
X101777800Y-169189400D02*
X101777800Y-134772400D01*
X123660800Y-125278880D02*
X123582700Y-125200780D01*
X124320200Y-119011800D02*
X125476000Y-117856000D01*
X123444000Y-134747000D02*
X123660800Y-134530200D01*
X94615000Y-170179999D02*
X100787201Y-170179999D01*
X124320200Y-120646349D02*
X124320200Y-119011800D01*
X123582700Y-121383849D02*
X124320200Y-120646349D01*
X100787201Y-170179999D02*
X101777800Y-169189400D01*
X123582700Y-125200780D02*
X123582700Y-121383849D01*
X123660800Y-134530200D02*
X123660800Y-125278880D01*
%TO.N,BA07*%
X114147600Y-124612400D02*
X114147600Y-119024400D01*
X114147600Y-119024400D02*
X115316000Y-117856000D01*
X94615000Y-124587000D02*
X94615000Y-160019999D01*
%TO.N,RCBPAGE*%
X214033201Y-157824284D02*
X213791800Y-157582883D01*
X214440000Y-227900000D02*
X214033201Y-227493201D01*
X213791800Y-157582883D02*
X213791800Y-102506751D01*
X214040000Y-102258551D02*
X214040000Y-96700000D01*
X214033201Y-227493201D02*
X214033201Y-157824284D01*
X213791800Y-102506751D02*
X214040000Y-102258551D01*
%TO.N,/MainBoard-CPU_Decode/MHA22*%
X119772700Y-202348100D02*
X119772700Y-143752300D01*
X120446800Y-203022200D02*
X119772700Y-202348100D01*
X119772700Y-143752300D02*
X120015000Y-143510000D01*
%TO.N,BA04*%
X101154500Y-166942500D02*
X101154500Y-134151100D01*
X94615000Y-167639999D02*
X100457001Y-167639999D01*
X121120800Y-133996800D02*
X121120800Y-121305749D01*
X121081800Y-134035800D02*
X121120800Y-133996800D01*
X121780200Y-119011800D02*
X122936000Y-117856000D01*
X121120800Y-121305749D02*
X121780200Y-120646349D01*
X100457001Y-167639999D02*
X101154500Y-166942500D01*
X101154500Y-134151100D02*
X101168200Y-134137400D01*
X121780200Y-120646349D02*
X121780200Y-119011800D01*
%TO.N,ZMREQ-*%
X224613038Y-190664200D02*
X223625350Y-190664200D01*
X225260800Y-213564100D02*
X225260800Y-191311962D01*
X223696962Y-175095800D02*
X225149351Y-175095800D01*
X223625350Y-190664200D02*
X221843600Y-188882450D01*
X225247200Y-213577700D02*
X225260800Y-213564100D01*
X225247200Y-216014300D02*
X225247200Y-213577700D01*
X221843600Y-176949162D02*
X223696962Y-175095800D01*
X225260800Y-191311962D02*
X224613038Y-190664200D01*
X221843600Y-188882450D02*
X221843600Y-176949162D01*
X227838000Y-172407151D02*
X227838000Y-140309600D01*
X225149351Y-175095800D02*
X227838000Y-172407151D01*
%TO.N,ZIORQ-*%
X198755000Y-180543200D02*
X197993000Y-179781200D01*
X198755000Y-237464600D02*
X198755000Y-180543200D01*
X176336000Y-238446000D02*
X176316700Y-238426700D01*
X197993000Y-179781200D02*
X197993000Y-172745400D01*
X176316700Y-238426700D02*
X176316700Y-203819700D01*
X176316700Y-203819700D02*
X176316700Y-203822300D01*
%TO.N,ZRST-*%
X137140000Y-193900000D02*
X137140000Y-154300000D01*
%TO.N,/MainBoard-CPU_Decode/BAtoZA-*%
X106056700Y-174918100D02*
X106019600Y-174955200D01*
X106056700Y-149822900D02*
X106056700Y-174918100D01*
X106273600Y-149606000D02*
X106056700Y-149822900D01*
%TO.N,/ExpIFC-SIOCTC/SIOIEO*%
X215849200Y-146189700D02*
X215747600Y-146088100D01*
X215849200Y-154321500D02*
X215849200Y-146189700D01*
X215214200Y-154956500D02*
X215849200Y-154321500D01*
%TO.N,/MainBoard-CPU_Decode/ZMASTER*%
X160197800Y-165430200D02*
X160172400Y-165404800D01*
X160197800Y-183565800D02*
X160197800Y-165430200D01*
%TO.N,/MainBoard-CPU_Decode/ZMASTER-*%
X175971200Y-155600400D02*
X175996600Y-155575000D01*
X175971200Y-169418000D02*
X175971200Y-155600400D01*
%TO.N,ZA7*%
X140981700Y-179684300D02*
X140981700Y-193841700D01*
X138740000Y-159549200D02*
X138740000Y-177442600D01*
X140981700Y-193841700D02*
X141040000Y-193900000D01*
X138740000Y-177442600D02*
X140981700Y-179684300D01*
%TO.N,Net-(U30-~{E0})*%
X142240000Y-193900000D02*
X142240000Y-179951480D01*
X142240000Y-179951480D02*
X140340000Y-178051480D01*
X134440000Y-146950000D02*
X134440000Y-146100000D01*
X140340000Y-178051480D02*
X140340000Y-148050000D01*
X139640000Y-147350000D02*
X140340000Y-148050000D01*
X134840000Y-147350000D02*
X134440000Y-146950000D01*
X139640000Y-147350000D02*
X134840000Y-147350000D01*
%TO.N,/MainBoard-CPU_Decode/ZRST*%
X160260100Y-197420300D02*
X140972064Y-197420300D01*
X161950400Y-199110600D02*
X160260100Y-197420300D01*
%TO.N,ZA6*%
X131368800Y-143501100D02*
X131680800Y-143813100D01*
X131680800Y-161689200D02*
X130175000Y-163195000D01*
X131680800Y-143813100D02*
X131680800Y-161689200D01*
%TO.N,BA09*%
X224155000Y-176529999D02*
X226898201Y-176529999D01*
X228955600Y-174472600D02*
X228955600Y-113538000D01*
X226898201Y-176529999D02*
X228955600Y-174472600D01*
%TO.N,/MainBoard-CPU_Decode/LCLMEM-*%
X187045600Y-177711100D02*
X186969400Y-177787300D01*
X187045600Y-169977500D02*
X187045600Y-177711100D01*
%TO.N,/MainBoard-CPU_Decode/LOW1MEG*%
X177546000Y-173177200D02*
X177571400Y-173151800D01*
X177546000Y-188849000D02*
X177546000Y-173177200D01*
%TO.N,BA01*%
X129209800Y-119202200D02*
X130556000Y-117856000D01*
X129209800Y-136220200D02*
X129209800Y-119202200D01*
X102362000Y-174853600D02*
X103047800Y-174167800D01*
X103047800Y-174167800D02*
X103047800Y-136372600D01*
X103047800Y-136372600D02*
X103098600Y-136321800D01*
X95021400Y-174853600D02*
X102362000Y-174853600D01*
%TO.N,ZA1*%
X161975800Y-186740800D02*
X151130000Y-175895000D01*
X163018200Y-198637049D02*
X161975800Y-197594650D01*
X171743100Y-200648300D02*
X164511620Y-200648300D01*
X161975800Y-197594650D02*
X161975800Y-186740800D01*
X171856400Y-200761600D02*
X171743100Y-200648300D01*
X163018200Y-199154880D02*
X163018200Y-198637049D01*
X164511620Y-200648300D02*
X163018200Y-199154880D01*
%TO.N,ZA12*%
X199440800Y-156921200D02*
X198678800Y-156159200D01*
X199440800Y-185813700D02*
X199440800Y-156921200D01*
%TO.N,/MainBoard-CPU_Decode/MHA15*%
X143281400Y-193802000D02*
X143967200Y-194487800D01*
X143281400Y-153009600D02*
X143281400Y-193802000D01*
%TO.N,/MainBoard-CPU_Decode/MHA16*%
X203924900Y-197979300D02*
X203924900Y-164273500D01*
X202971400Y-198932800D02*
X203924900Y-197979300D01*
X203924900Y-164273500D02*
X204647800Y-163550600D01*
%TO.N,/MainBoard-CPU_Decode/FLASHRD-*%
X164580300Y-185228500D02*
X164580300Y-172604700D01*
X164439600Y-185369200D02*
X164580300Y-185228500D01*
X164580300Y-172604700D02*
X166370000Y-170815000D01*
%TO.N,/ExpIFC-SIOCTC/CTC2_OUT*%
X289544000Y-139223999D02*
X288191201Y-137871200D01*
X284593400Y-139840600D02*
X284593400Y-185533400D01*
X288191201Y-137871200D02*
X286562800Y-137871200D01*
X286562800Y-137871200D02*
X284593400Y-139840600D01*
X284593400Y-185533400D02*
X285750000Y-186690000D01*
%TO.N,/ExpIFC-SIOCTC/CTC3_CLK*%
X289544000Y-141224000D02*
X289544000Y-202639837D01*
X289544000Y-202639837D02*
X288748037Y-203435800D01*
X287255800Y-203435800D02*
X285750000Y-201930000D01*
X288748037Y-203435800D02*
X287255800Y-203435800D01*
%TO.N,/ExpIFC-SIOCTC/CTC_CLK*%
X286906600Y-151751476D02*
X286283400Y-151128276D01*
X286906600Y-200546600D02*
X286906600Y-151751476D01*
X288290000Y-201930000D02*
X286906600Y-200546600D01*
X286283400Y-140484598D02*
X287543999Y-139223999D01*
X286283400Y-151128276D02*
X286283400Y-140484598D01*
%TO.N,/MainBoard-CPU_Decode/CLKfSW*%
X165040000Y-227726438D02*
X165040000Y-205700000D01*
%TO.N,/ExpIFC-SIOCTC/CNSLSELB-*%
X262128000Y-146738000D02*
X263091000Y-147701000D01*
X280670000Y-148590000D02*
X280670000Y-158115000D01*
X279781000Y-147701000D02*
X280670000Y-148590000D01*
X263091000Y-147701000D02*
X279781000Y-147701000D01*
X259715000Y-118379999D02*
X261635999Y-118379999D01*
X262128000Y-118872000D02*
X262128000Y-146738000D01*
X261635999Y-118379999D02*
X262128000Y-118872000D01*
%TO.N,bpIEO*%
X171240000Y-125100000D02*
X183366549Y-125100000D01*
X187820200Y-112869801D02*
X193690001Y-107000000D01*
X183366549Y-125100000D02*
X187820200Y-120646349D01*
X187820200Y-120646349D02*
X187820200Y-112869801D01*
%TD*%
M02*
