%TF.GenerationSoftware,KiCad,Pcbnew,9.0.6*%
%TF.CreationDate,2025-11-24T00:24:31-08:00*%
%TF.ProjectId,SD-ZMB,53442d5a-4d42-42e6-9b69-6361645f7063,PR8.2*%
%TF.SameCoordinates,Original*%
%TF.FileFunction,Copper,L2,Inr*%
%TF.FilePolarity,Positive*%
%FSLAX46Y46*%
G04 Gerber Fmt 4.6, Leading zero omitted, Abs format (unit mm)*
G04 Created by KiCad (PCBNEW 9.0.6) date 2025-11-24 00:24:31*
%MOMM*%
%LPD*%
G01*
G04 APERTURE LIST*
G04 Aperture macros list*
%AMRoundRect*
0 Rectangle with rounded corners*
0 $1 Rounding radius*
0 $2 $3 $4 $5 $6 $7 $8 $9 X,Y pos of 4 corners*
0 Add a 4 corners polygon primitive as box body*
4,1,4,$2,$3,$4,$5,$6,$7,$8,$9,$2,$3,0*
0 Add four circle primitives for the rounded corners*
1,1,$1+$1,$2,$3*
1,1,$1+$1,$4,$5*
1,1,$1+$1,$6,$7*
1,1,$1+$1,$8,$9*
0 Add four rect primitives between the rounded corners*
20,1,$1+$1,$2,$3,$4,$5,0*
20,1,$1+$1,$4,$5,$6,$7,0*
20,1,$1+$1,$6,$7,$8,$9,0*
20,1,$1+$1,$8,$9,$2,$3,0*%
G04 Aperture macros list end*
%TA.AperFunction,ComponentPad*%
%ADD10RoundRect,0.250000X-0.550000X-0.550000X0.550000X-0.550000X0.550000X0.550000X-0.550000X0.550000X0*%
%TD*%
%TA.AperFunction,ComponentPad*%
%ADD11C,1.600000*%
%TD*%
%TA.AperFunction,ComponentPad*%
%ADD12RoundRect,0.250000X0.550000X-0.550000X0.550000X0.550000X-0.550000X0.550000X-0.550000X-0.550000X0*%
%TD*%
%TA.AperFunction,ComponentPad*%
%ADD13RoundRect,0.250000X0.350000X0.350000X-0.350000X0.350000X-0.350000X-0.350000X0.350000X-0.350000X0*%
%TD*%
%TA.AperFunction,ComponentPad*%
%ADD14C,1.200000*%
%TD*%
%TA.AperFunction,ComponentPad*%
%ADD15R,1.600000X1.600000*%
%TD*%
%TA.AperFunction,ComponentPad*%
%ADD16R,1.350000X1.350000*%
%TD*%
%TA.AperFunction,ComponentPad*%
%ADD17C,1.350000*%
%TD*%
%TA.AperFunction,ComponentPad*%
%ADD18RoundRect,0.250000X0.550000X-0.950000X0.550000X0.950000X-0.550000X0.950000X-0.550000X-0.950000X0*%
%TD*%
%TA.AperFunction,ComponentPad*%
%ADD19C,1.400000*%
%TD*%
%TA.AperFunction,ComponentPad*%
%ADD20O,1.600000X2.400000*%
%TD*%
%TA.AperFunction,ComponentPad*%
%ADD21R,1.700000X1.700000*%
%TD*%
%TA.AperFunction,ComponentPad*%
%ADD22C,1.700000*%
%TD*%
%TA.AperFunction,ComponentPad*%
%ADD23O,1.700000X1.700000*%
%TD*%
%TA.AperFunction,ComponentPad*%
%ADD24RoundRect,0.250000X-0.950000X-0.550000X0.950000X-0.550000X0.950000X0.550000X-0.950000X0.550000X0*%
%TD*%
%TA.AperFunction,ComponentPad*%
%ADD25O,2.400000X1.600000*%
%TD*%
%TA.AperFunction,ComponentPad*%
%ADD26C,4.000000*%
%TD*%
%TA.AperFunction,ComponentPad*%
%ADD27C,3.500000*%
%TD*%
%TA.AperFunction,ComponentPad*%
%ADD28R,1.800000X1.800000*%
%TD*%
%TA.AperFunction,ComponentPad*%
%ADD29C,1.800000*%
%TD*%
%TA.AperFunction,ComponentPad*%
%ADD30RoundRect,0.250000X0.550000X0.550000X-0.550000X0.550000X-0.550000X-0.550000X0.550000X-0.550000X0*%
%TD*%
%TA.AperFunction,ComponentPad*%
%ADD31RoundRect,0.250000X0.600000X-0.600000X0.600000X0.600000X-0.600000X0.600000X-0.600000X-0.600000X0*%
%TD*%
%TA.AperFunction,ComponentPad*%
%ADD32RoundRect,0.250000X-0.550000X0.950000X-0.550000X-0.950000X0.550000X-0.950000X0.550000X0.950000X0*%
%TD*%
%TA.AperFunction,ComponentPad*%
%ADD33O,5.000000X2.500000*%
%TD*%
%TA.AperFunction,ComponentPad*%
%ADD34O,4.500000X2.250000*%
%TD*%
%TA.AperFunction,ComponentPad*%
%ADD35C,1.440000*%
%TD*%
%TA.AperFunction,ViaPad*%
%ADD36C,0.762000*%
%TD*%
%TA.AperFunction,ViaPad*%
%ADD37C,2.082800*%
%TD*%
%TA.AperFunction,ViaPad*%
%ADD38C,0.635000*%
%TD*%
%TA.AperFunction,ViaPad*%
%ADD39C,0.558800*%
%TD*%
%TA.AperFunction,Conductor*%
%ADD40C,0.203200*%
%TD*%
G04 APERTURE END LIST*
D10*
%TO.N,N/C*%
%TO.C,SPARE2*%
X304292000Y-215900000D03*
D11*
X304292000Y-218440000D03*
X304292000Y-220979999D03*
X304292000Y-223520000D03*
X304292000Y-226060000D03*
X304292000Y-228600000D03*
X304292000Y-231140000D03*
X304292000Y-233680001D03*
X311912000Y-233680000D03*
X311912000Y-231140000D03*
X311912000Y-228600000D03*
X311912000Y-226060000D03*
X311912000Y-223520000D03*
X311912000Y-220980000D03*
X311912000Y-218440000D03*
X311912000Y-215900000D03*
%TD*%
D12*
%TO.N,N/C*%
%TO.C,SPARE3*%
X283972000Y-248920000D03*
D11*
X286512000Y-248920000D03*
X289051999Y-248920000D03*
X291592000Y-248920000D03*
X294132000Y-248920000D03*
X296672000Y-248920000D03*
X299212000Y-248920000D03*
X301752001Y-248920000D03*
X301752000Y-238760001D03*
X299212000Y-238760000D03*
X296672000Y-238760000D03*
X294132000Y-238760000D03*
X291592000Y-238760000D03*
X289052000Y-238760001D03*
X286512000Y-238760000D03*
X283972000Y-238760000D03*
%TD*%
D10*
%TO.N,N/C*%
%TO.C,SPARE1*%
X294132000Y-215900000D03*
D11*
X294132000Y-218440000D03*
X294132000Y-220979999D03*
X294132000Y-223520000D03*
X294132000Y-226060000D03*
X294132000Y-228600000D03*
X294132000Y-231140000D03*
X294132000Y-233680001D03*
X301752000Y-233680000D03*
X301752000Y-231140000D03*
X301752000Y-228600000D03*
X301752000Y-226060000D03*
X301752000Y-223520000D03*
X301752000Y-220980000D03*
X301752000Y-218440000D03*
X301752000Y-215900000D03*
%TD*%
D13*
%TO.N,+5V*%
%TO.C,C6*%
X156043600Y-240157000D03*
D14*
%TO.N,GND*%
X154543600Y-240157000D03*
%TD*%
D15*
%TO.N,+5V*%
%TO.C,RN4*%
X107315000Y-131650000D03*
D11*
%TO.N,BA16*%
X109855000Y-131650000D03*
%TO.N,BA17*%
X112395000Y-131650000D03*
%TO.N,BA18*%
X114935000Y-131650000D03*
%TO.N,BA19*%
X117475000Y-131650000D03*
%TO.N,BA20*%
X120015000Y-131650000D03*
%TO.N,BA21*%
X122555000Y-131650000D03*
%TO.N,BA22*%
X125095000Y-131650000D03*
%TO.N,BA23*%
X127635000Y-131650000D03*
%TD*%
D16*
%TO.N,/MainBoard-CPU_Decode/VPU2*%
%TO.C,OP1*%
X150780999Y-206375000D03*
D17*
%TO.N,/MainBoard-CPU_Decode/CLKhRST-*%
X152780999Y-206375000D03*
%TO.N,/MainBoard-CPU_Decode/CLKhRR-*%
X154780999Y-206375000D03*
%TD*%
D18*
%TO.N,+5V*%
%TO.C,U31*%
X281940000Y-132969000D03*
D19*
%TO.N,unconnected-(U31-NC2-Pad2)*%
X284480000Y-132969000D03*
%TO.N,unconnected-(U31-NC3-Pad3)*%
X287020000Y-132969000D03*
D20*
%TO.N,GND*%
X289560000Y-132969000D03*
D19*
%TO.N,unconnected-(U31-NC5-Pad5)*%
X292100000Y-132969000D03*
%TO.N,unconnected-(U31-NC6-Pad6)*%
X294640000Y-132969000D03*
D20*
%TO.N,GND*%
X297180000Y-132969000D03*
%TO.N,/ExpIFC-SIOCTC/CTC_CLK*%
X297180000Y-125349000D03*
D19*
%TO.N,unconnected-(U31-NC9-Pad9)*%
X294640000Y-125349000D03*
%TO.N,unconnected-(U31-NC10-Pad10)*%
X292100000Y-125349000D03*
D20*
%TO.N,/ExpIFC-SIOCTC/CTC_CLK*%
X289560000Y-125349000D03*
D19*
%TO.N,unconnected-(U31-NC12-Pad12)*%
X287020000Y-125349000D03*
%TO.N,unconnected-(U31-NC13-Pad13)*%
X284480000Y-125349000D03*
D20*
%TO.N,+5V*%
X281940000Y-125349000D03*
%TD*%
D21*
%TO.N,GND*%
%TO.C,J16*%
X274447000Y-119253000D03*
D22*
%TO.N,/ExpIFC-SIOCTC/CHB_RXD*%
X271907000Y-119253000D03*
%TO.N,/ExpIFC-SIOCTC/CHB_TXD*%
X269367001Y-119253000D03*
%TD*%
D23*
%TO.N,BRDRST-*%
%TO.C,M1*%
X265450000Y-103722000D03*
%TO.N,unconnected-(M1-3V3-Pad2)*%
X265450000Y-106262000D03*
D21*
%TO.N,unconnected-(M1-VIO-Pad3)_1*%
X265450000Y-108802000D03*
D23*
%TO.N,GND*%
X265450000Y-111342000D03*
%TO.N,unconnected-(M1-VBUS-Pad5)_1*%
X265450000Y-113882000D03*
%TO.N,unconnected-(M1-CB0-Pad6)_1*%
X278130000Y-113792000D03*
%TO.N,Net-(JP6-Pin_2)*%
X278130000Y-111252000D03*
D21*
%TO.N,unconnected-(M1-RTS-(O)-Pad8)*%
X278130000Y-108712000D03*
D23*
%TO.N,/ExpIFC-SIOCTC/CHB_TXD*%
X278130000Y-106172000D03*
%TO.N,unconnected-(M1-CTS-(I)-Pad10)*%
X278130000Y-103632000D03*
%TD*%
D24*
%TO.N,ZA11*%
%TO.C,U13*%
X109220000Y-153035000D03*
D25*
%TO.N,ZA12*%
X109220000Y-155575000D03*
%TO.N,ZA13*%
X109220000Y-158115000D03*
%TO.N,ZA14*%
X109220000Y-160655000D03*
%TO.N,ZA15*%
X109220000Y-163195000D03*
%TO.N,ZCLK*%
X109220000Y-165735000D03*
%TO.N,ZD4*%
X109220000Y-168275000D03*
%TO.N,ZD3*%
X109220000Y-170815000D03*
%TO.N,ZD5*%
X109220000Y-173355000D03*
%TO.N,ZD6*%
X109220000Y-175895000D03*
%TO.N,+5V*%
X109220000Y-178435000D03*
%TO.N,ZD2*%
X109220000Y-180975000D03*
%TO.N,ZD7*%
X109220000Y-183515000D03*
%TO.N,ZD0*%
X109220000Y-186055000D03*
%TO.N,ZD1*%
X109220000Y-188595000D03*
%TO.N,ZINT-*%
X109220000Y-191135000D03*
%TO.N,ZNMI-*%
X109220000Y-193675000D03*
%TO.N,ZHALT-*%
X109220000Y-196215000D03*
%TO.N,ZMREQ-*%
X109220000Y-198755000D03*
%TO.N,ZIORQ-*%
X109220000Y-201295000D03*
%TO.N,ZRD-*%
X124460000Y-201295000D03*
%TO.N,ZWR-*%
X124460000Y-198755000D03*
%TO.N,ZBSAK-*%
X124460000Y-196215000D03*
%TO.N,ZWAIT-*%
X124460000Y-193675000D03*
%TO.N,ZBREQ-*%
X124460000Y-191135000D03*
%TO.N,ZRST-*%
X124460000Y-188595000D03*
%TO.N,ZM1-*%
X124460000Y-186055000D03*
%TO.N,ZRFSH-*%
X124460000Y-183515000D03*
%TO.N,GND*%
X124460000Y-180975000D03*
%TO.N,ZA0*%
X124460000Y-178435000D03*
%TO.N,ZA1*%
X124460000Y-175895000D03*
%TO.N,ZA2*%
X124460000Y-173355000D03*
%TO.N,ZA3*%
X124460000Y-170815000D03*
%TO.N,ZA4*%
X124460000Y-168275000D03*
%TO.N,ZA5*%
X124460000Y-165735000D03*
%TO.N,ZA6*%
X124460000Y-163195000D03*
%TO.N,ZA7*%
X124460000Y-160655000D03*
%TO.N,ZA8*%
X124460000Y-158115000D03*
%TO.N,ZA9*%
X124460000Y-155575000D03*
%TO.N,ZA10*%
X124460000Y-153035000D03*
%TD*%
D21*
%TO.N,GND*%
%TO.C,J3*%
X253370000Y-119380000D03*
D22*
%TO.N,/ExpIFC-SIOCTC/CHA_DTR-*%
X250830000Y-119380000D03*
%TD*%
D15*
%TO.N,GND*%
%TO.C,RN1*%
X189865000Y-191135000D03*
D11*
%TO.N,/MainBoard-CPU_Decode/PDA16*%
X189865000Y-193675000D03*
%TO.N,/MainBoard-CPU_Decode/PDA17*%
X189865000Y-196215000D03*
%TO.N,/MainBoard-CPU_Decode/PDA18*%
X189865000Y-198755000D03*
%TO.N,/MainBoard-CPU_Decode/PDA20*%
X189865000Y-201295000D03*
%TO.N,/MainBoard-CPU_Decode/MHA21*%
X189865000Y-203835000D03*
%TO.N,/MainBoard-CPU_Decode/MHA22*%
X189865000Y-206375000D03*
%TO.N,/MainBoard-CPU_Decode/MHA23*%
X189865000Y-208915000D03*
%TO.N,unconnected-(RN1-R8-Pad9)*%
X189865000Y-211455000D03*
%TD*%
D26*
%TO.N,N/C*%
%TO.C,J18*%
X255690000Y-103155331D03*
X230690000Y-103155331D03*
D15*
%TO.N,unconnected-(J18-Pad1)*%
X248730000Y-104575331D03*
D11*
%TO.N,/ExpIFC-SIOCTC/C1_RXD*%
X245960000Y-104575331D03*
%TO.N,/ExpIFC-SIOCTC/C1_TXD*%
X243190000Y-104575331D03*
%TO.N,/ExpIFC-SIOCTC/C1_DTR*%
X240420000Y-104575331D03*
%TO.N,GND*%
X237650000Y-104575331D03*
%TO.N,/ExpIFC-SIOCTC/C1_DSR*%
X247345000Y-101735331D03*
%TO.N,/ExpIFC-SIOCTC/C1_RTR*%
X244575000Y-101735331D03*
%TO.N,/ExpIFC-SIOCTC/C1_CTS*%
X241805000Y-101735331D03*
%TO.N,unconnected-(J18-Pad9)*%
X239035000Y-101735331D03*
%TD*%
D16*
%TO.N,Net-(OP4-Pin_a1)*%
%TO.C,OP4*%
X147256999Y-221837000D03*
D17*
%TO.N,CLKf*%
X149256999Y-221837000D03*
%TO.N,CLKh*%
X151256999Y-221837000D03*
%TO.N,ZCLK*%
X147256999Y-219837000D03*
X149256999Y-219837000D03*
X151256999Y-219837000D03*
%TD*%
D27*
%TO.N,unconnected-(SW2-A-Pad1)*%
%TO.C,SW2*%
X294679000Y-109216000D03*
%TO.N,/ExpIFC-SIOCTC/+5IN*%
X299379000Y-109216000D03*
%TO.N,+5V*%
X304079000Y-109216000D03*
%TO.N,unconnected-(SW2-PadM1)*%
X296879000Y-96266000D03*
%TO.N,unconnected-(SW2-PadM2)*%
X301879000Y-96266000D03*
%TD*%
D28*
%TO.N,Net-(D2-K)*%
%TO.C,D2*%
X154305000Y-251460000D03*
D29*
%TO.N,Net-(D2-A)*%
X156845000Y-251460000D03*
%TD*%
D21*
%TO.N,+3.3V*%
%TO.C,J10*%
X97663000Y-207137000D03*
D22*
%TO.N,GND*%
X97663000Y-209677000D03*
%TO.N,/ExpIFC-SIOCTC/SCL0_RX*%
X97663000Y-212217000D03*
%TO.N,/ExpIFC-SIOCTC/SDA_TX*%
X97663000Y-214757000D03*
%TD*%
D15*
%TO.N,+5V*%
%TO.C,RN3*%
X224155000Y-171450000D03*
D11*
%TO.N,BA08*%
X224155000Y-173990000D03*
%TO.N,BA09*%
X224155000Y-176530000D03*
%TO.N,BA10*%
X224155000Y-179070000D03*
%TO.N,BA11*%
X224155000Y-181610000D03*
%TO.N,BA13*%
X224155000Y-184150000D03*
%TO.N,BA14*%
X224155000Y-186690000D03*
%TO.N,BA15*%
X224155000Y-189230000D03*
%TO.N,BA12*%
X224155000Y-191770000D03*
%TD*%
D15*
%TO.N,+5V*%
%TO.C,RN2*%
X94615000Y-180339999D03*
D11*
%TO.N,BA00*%
X94615000Y-177799999D03*
%TO.N,BA01*%
X94615000Y-175259999D03*
%TO.N,BA02*%
X94615000Y-172719999D03*
%TO.N,BA03*%
X94615000Y-170179999D03*
%TO.N,BA04*%
X94615000Y-167639999D03*
%TO.N,BA05*%
X94615000Y-165099999D03*
%TO.N,BA06*%
X94615000Y-162559999D03*
%TO.N,BA07*%
X94615000Y-160019999D03*
%TD*%
D30*
%TO.N,+5V*%
%TO.C,C3*%
X138153449Y-109466688D03*
D11*
%TO.N,GND*%
X135653449Y-109466688D03*
%TD*%
D30*
%TO.N,+5V*%
%TO.C,C4*%
X297473380Y-115697000D03*
D11*
%TO.N,GND*%
X294973380Y-115697000D03*
%TD*%
D16*
%TO.N,/ExpIFC-SIOCTC/C1_RTR*%
%TO.C,OP2*%
X240919000Y-112776000D03*
D17*
%TO.N,/ExpIFC-SIOCTC/HSOUT*%
X238919000Y-112776000D03*
%TO.N,/ExpIFC-SIOCTC/C1_DTR*%
X236919000Y-112776000D03*
%TD*%
D24*
%TO.N,/MainBoard-CPU_Decode/MHA18*%
%TO.C,U22*%
X151130000Y-150495000D03*
D25*
%TO.N,/MainBoard-CPU_Decode/MHA16*%
X151130000Y-153035000D03*
%TO.N,/MainBoard-CPU_Decode/MHA15*%
X151130000Y-155575000D03*
%TO.N,ZA12*%
X151130000Y-158115000D03*
%TO.N,ZA7*%
X151130000Y-160655000D03*
%TO.N,ZA6*%
X151130000Y-163195000D03*
%TO.N,ZA5*%
X151130000Y-165735000D03*
%TO.N,ZA4*%
X151130000Y-168275000D03*
%TO.N,ZA3*%
X151130000Y-170815000D03*
%TO.N,ZA2*%
X151130000Y-173355000D03*
%TO.N,ZA1*%
X151130000Y-175895000D03*
%TO.N,ZA0*%
X151130000Y-178435000D03*
%TO.N,ZD0*%
X151130000Y-180975000D03*
%TO.N,ZD1*%
X151130000Y-183515000D03*
%TO.N,ZD2*%
X151130000Y-186055000D03*
%TO.N,GND*%
X151130000Y-188595000D03*
%TO.N,ZD3*%
X166370000Y-188595000D03*
%TO.N,ZD4*%
X166370000Y-186055000D03*
%TO.N,ZD5*%
X166370000Y-183515000D03*
%TO.N,ZD6*%
X166370000Y-180975000D03*
%TO.N,ZD7*%
X166370000Y-178435000D03*
%TO.N,/MainBoard-CPU_Decode/LCLMEM-*%
X166370000Y-175895000D03*
%TO.N,ZA10*%
X166370000Y-173355000D03*
%TO.N,/MainBoard-CPU_Decode/FLASHRD-*%
X166370000Y-170815000D03*
%TO.N,ZA11*%
X166370000Y-168275000D03*
%TO.N,ZA9*%
X166370000Y-165735000D03*
%TO.N,ZA8*%
X166370000Y-163195000D03*
%TO.N,/MainBoard-CPU_Decode/MHA13*%
X166370000Y-160655000D03*
%TO.N,/MainBoard-CPU_Decode/MHA14*%
X166370000Y-158115000D03*
%TO.N,/MainBoard-CPU_Decode/MHA17*%
X166370000Y-155575000D03*
%TO.N,/MainBoard-CPU_Decode/FLASHWR-*%
X166370000Y-153035000D03*
%TO.N,+5V*%
X166370000Y-150495000D03*
%TD*%
D31*
%TO.N,ZCLK*%
%TO.C,J9*%
X169678501Y-101805501D03*
D22*
%TO.N,ZINT-*%
X169678501Y-99265501D03*
%TO.N,BMREQ-*%
X172218501Y-101805501D03*
%TO.N,BWR-*%
X172218501Y-99265501D03*
%TO.N,BRD-*%
X174758500Y-101805501D03*
%TO.N,BIORQ-*%
X174758501Y-99265501D03*
%TO.N,BD0*%
X177298501Y-101805501D03*
%TO.N,BD1*%
X177298501Y-99265501D03*
%TO.N,BD2*%
X179838501Y-101805501D03*
%TO.N,BD3*%
X179838501Y-99265501D03*
%TO.N,BD4*%
X182378501Y-101805501D03*
%TO.N,BD5*%
X182378501Y-99265501D03*
%TO.N,BD6*%
X184918501Y-101805501D03*
%TO.N,BD7*%
X184918501Y-99265501D03*
%TO.N,/ExpIFC-SIOCTC/TXD_A*%
X187458502Y-101805501D03*
%TO.N,/ExpIFC-SIOCTC/RXD_A*%
X187458501Y-99265501D03*
%TO.N,/ExpIFC-SIOCTC/ExIRQ1-*%
X189998501Y-101805501D03*
%TO.N,/ExpIFC-SIOCTC/bpIEI*%
X189998501Y-99265501D03*
%TO.N,bpIEO*%
X192538501Y-101805501D03*
%TO.N,CRSTRQ-*%
X192538501Y-99265501D03*
%TO.N,/ExpIFC-SIOCTC/IOCLK*%
X195078501Y-101805501D03*
%TO.N,ZBSAK-*%
X195078501Y-99265501D03*
%TO.N,ZHALT-*%
X197618500Y-101805501D03*
%TO.N,ZBREQ-*%
X197618501Y-99265501D03*
%TO.N,ZWAIT-*%
X200158501Y-101805501D03*
%TO.N,NMIREQ-*%
X200158501Y-99265501D03*
%TO.N,/ExpIFC-SIOCTC/NC_D08*%
X202698501Y-101805501D03*
%TO.N,/ExpIFC-SIOCTC/NC_D09*%
X202698501Y-99265501D03*
%TO.N,/ExpIFC-SIOCTC/NC_D10*%
X205238501Y-101805501D03*
%TO.N,/ExpIFC-SIOCTC/NC_D11*%
X205238501Y-99265501D03*
%TO.N,/ExpIFC-SIOCTC/NC_D12*%
X207778500Y-101805501D03*
%TO.N,/ExpIFC-SIOCTC/NC_D13*%
X207778501Y-99265501D03*
%TO.N,/ExpIFC-SIOCTC/NC_D14*%
X210318502Y-101805501D03*
%TO.N,/ExpIFC-SIOCTC/NC_D15*%
X210318501Y-99265501D03*
%TO.N,/ExpIFC-SIOCTC/TXD_B*%
X212858501Y-101805501D03*
%TO.N,/ExpIFC-SIOCTC/RXD_B*%
X212858501Y-99265501D03*
%TO.N,/ExpIFC-SIOCTC/ExIRQ2-*%
X215398501Y-101805501D03*
%TO.N,/ExpIFC-SIOCTC/USR6*%
X215398501Y-99265501D03*
%TO.N,/ExpIFC-SIOCTC/USR7*%
X217938501Y-101805501D03*
%TO.N,/ExpIFC-SIOCTC/USR8*%
X217938501Y-99265501D03*
%TD*%
D16*
%TO.N,GND*%
%TO.C,OP8*%
X259715000Y-120380000D03*
D17*
%TO.N,/ExpIFC-SIOCTC/CNSLSELB-*%
X259715000Y-118380000D03*
%TD*%
D32*
%TO.N,ZD1*%
%TO.C,U35*%
X306070000Y-158115000D03*
D20*
%TO.N,ZD3*%
X303530000Y-158115000D03*
%TO.N,ZD5*%
X300990000Y-158115000D03*
%TO.N,ZD7*%
X298450000Y-158115000D03*
%TO.N,ZINT-*%
X295910000Y-158115000D03*
%TO.N,Net-(U35-IEI)*%
X293370000Y-158115000D03*
%TO.N,/ExpIFC-SIOCTC/SIOIEO*%
X290830000Y-158115000D03*
%TO.N,ZM1-*%
X288290000Y-158115000D03*
%TO.N,+5V*%
X285750000Y-158115000D03*
%TO.N,unconnected-(U35-~{W{slash}RDYA}-Pad10)*%
X283210000Y-158115000D03*
%TO.N,/ExpIFC-SIOCTC/CNSLSELB-*%
X280670000Y-158115000D03*
%TO.N,/ExpIFC-SIOCTC/CHA_RXD*%
X278130000Y-158115000D03*
%TO.N,/ExpIFC-SIOCTC/CHA_CLK*%
X275590000Y-158115000D03*
X273050000Y-158115000D03*
%TO.N,/ExpIFC-SIOCTC/CHA_TXD*%
X270510000Y-158115000D03*
%TO.N,Net-(U35-~{DTRA})*%
X267970000Y-158115000D03*
%TO.N,/ExpIFC-SIOCTC/CHA_RTR-*%
X265430000Y-158115000D03*
%TO.N,/ExpIFC-SIOCTC/CHA_CTS-*%
X262890000Y-158115000D03*
%TO.N,/ExpIFC-SIOCTC/ExIRQ1-*%
X260350000Y-158115000D03*
%TO.N,/ExpIFC-SIOCTC/IOCLK*%
X257810000Y-158115000D03*
%TO.N,BRDRST-*%
X257810000Y-173355000D03*
%TO.N,/ExpIFC-SIOCTC/ExIRQ2-*%
X260350000Y-173355000D03*
%TO.N,/ExpIFC-SIOCTC/MODIRQ-*%
X262890000Y-173355000D03*
%TO.N,Net-(U35-~{RTSB})*%
X265430000Y-173355000D03*
%TO.N,Net-(U35-~{DTRB})*%
X267970000Y-173355000D03*
%TO.N,Net-(U35-TxDB)*%
X270510000Y-173355000D03*
%TO.N,/ExpIFC-SIOCTC/CHB_CLK*%
X273050000Y-173355000D03*
X275590000Y-173355000D03*
%TO.N,Net-(U35-RxDB)*%
X278130000Y-173355000D03*
%TO.N,unconnected-(U35-~{W{slash}RDYB}-Pad30)*%
X280670000Y-173355000D03*
%TO.N,GND*%
X283210000Y-173355000D03*
%TO.N,ZRD-*%
X285750000Y-173355000D03*
%TO.N,ZA0*%
X288290000Y-173355000D03*
%TO.N,ZA1*%
X290830000Y-173355000D03*
%TO.N,SIO_SEL-*%
X293370000Y-173355000D03*
%TO.N,ZIORQ-*%
X295910000Y-173355000D03*
%TO.N,ZD6*%
X298450000Y-173355000D03*
%TO.N,ZD4*%
X300990000Y-173355000D03*
%TO.N,ZD2*%
X303530000Y-173355000D03*
%TO.N,ZD0*%
X306070000Y-173355000D03*
%TD*%
D16*
%TO.N,/ExpIFC-SIOCTC/C1_CTS*%
%TO.C,OP3*%
X245269000Y-112776000D03*
D17*
%TO.N,/ExpIFC-SIOCTC/HSIN*%
X247269000Y-112776000D03*
%TO.N,/ExpIFC-SIOCTC/C1_DSR*%
X249269000Y-112776000D03*
%TD*%
D33*
%TO.N,/ExpIFC-SIOCTC/+5IN*%
%TO.C,J4*%
X286385000Y-107727000D03*
D34*
%TO.N,GND*%
X286385000Y-101727000D03*
%TD*%
D21*
%TO.N,GND*%
%TO.C,J17*%
X202946000Y-241051000D03*
D22*
%TO.N,+5V*%
X202946000Y-238511000D03*
%TO.N,/ExpIFC-SIOCTC/CONV0*%
X205486000Y-241051000D03*
%TO.N,ZWR-*%
X205486000Y-238511000D03*
%TO.N,ZRD-*%
X208026000Y-241051000D03*
%TO.N,DISPSEL-*%
X208026000Y-238511000D03*
%TO.N,ZA0*%
X210566000Y-241051000D03*
%TO.N,BRDRST-*%
X210566000Y-238511000D03*
%TO.N,ZD0*%
X213106000Y-241051000D03*
%TO.N,ZD1*%
X213106000Y-238511000D03*
%TO.N,ZD2*%
X215646000Y-241051000D03*
%TO.N,ZD3*%
X215646000Y-238511000D03*
%TO.N,ZD4*%
X218186000Y-241051000D03*
%TO.N,ZD5*%
X218186000Y-238511000D03*
%TO.N,ZD6*%
X220726000Y-241051000D03*
%TO.N,ZD7*%
X220726000Y-238511000D03*
%TO.N,/ExpIFC-SIOCTC/FONT1*%
X223266000Y-241051000D03*
%TO.N,/ExpIFC-SIOCTC/CONPWR*%
X223266000Y-238511000D03*
%TO.N,/ExpIFC-SIOCTC/BLPWR*%
X225806000Y-241051000D03*
%TO.N,GND*%
X225806000Y-238511000D03*
%TD*%
D16*
%TO.N,/ExpIFC-SIOCTC/BAI0*%
%TO.C,JP3*%
X98690000Y-126250000D03*
D17*
%TO.N,/ExpIFC-SIOCTC/BAO0*%
X100690000Y-126250000D03*
%TD*%
D16*
%TO.N,/ExpIFC-SIOCTC/bpIEI*%
%TO.C,JP2*%
X191690000Y-107000000D03*
D17*
%TO.N,bpIEO*%
X193690000Y-107000000D03*
%TD*%
D16*
%TO.N,ZCLK*%
%TO.C,OP6*%
X174212000Y-216757000D03*
D17*
%TO.N,CLKf*%
X174212000Y-214757000D03*
%TO.N,CLKh*%
X174212000Y-212757000D03*
%TO.N,/ExpIFC-SIOCTC/IOCLK*%
X172212000Y-216757000D03*
X172212000Y-214757000D03*
X172212000Y-212757000D03*
%TD*%
D16*
%TO.N,/ExpIFC-SIOCTC/LCLIA-*%
%TO.C,JP4*%
X191690000Y-112250000D03*
D17*
%TO.N,/ExpIFC-SIOCTC/B0IEO*%
X193690000Y-112250000D03*
%TD*%
D23*
%TO.N,/ExpIFC-SIOCTC/SDA_TX*%
%TO.C,U45*%
X104140000Y-251968000D03*
%TO.N,/ExpIFC-SIOCTC/SCL0_RX*%
X104140000Y-249428000D03*
D21*
%TO.N,/ExpIFC-SIOCTC/V3D0*%
X104140000Y-246888000D03*
D23*
%TO.N,/ExpIFC-SIOCTC/V3D1*%
X104140000Y-244348000D03*
%TO.N,/ExpIFC-SIOCTC/V3D2*%
X104140000Y-241808000D03*
%TO.N,/ExpIFC-SIOCTC/V3D3*%
X104140000Y-239268000D03*
%TO.N,/ExpIFC-SIOCTC/V3D4*%
X104140000Y-236728000D03*
D21*
%TO.N,/ExpIFC-SIOCTC/V3D5*%
X104140000Y-234188000D03*
D23*
%TO.N,/ExpIFC-SIOCTC/V3D6*%
X104140000Y-231648000D03*
%TO.N,/ExpIFC-SIOCTC/V3D7*%
X106680000Y-231648000D03*
%TO.N,/ExpIFC-SIOCTC/MA0*%
X109220000Y-231648001D03*
%TO.N,/ExpIFC-SIOCTC/MRD-*%
X111760000Y-231647999D03*
%TO.N,/ExpIFC-SIOCTC/MWR-*%
X114300000Y-231648000D03*
%TO.N,/ExpIFC-SIOCTC/MSEL-*%
X116840000Y-231648000D03*
%TO.N,/ExpIFC-SIOCTC/WAITRQ-*%
X119380000Y-231648000D03*
%TO.N,/ExpIFC-SIOCTC/INTRQ*%
X119380000Y-234188000D03*
%TO.N,/ExpIFC-SIOCTC/SPICK*%
X119380000Y-236728000D03*
D21*
%TO.N,/ExpIFC-SIOCTC/SPIMO*%
X119380000Y-239268000D03*
D23*
%TO.N,/ExpIFC-SIOCTC/SPIMI*%
X119380000Y-241808000D03*
%TO.N,/ExpIFC-SIOCTC/SDCS-*%
X119380000Y-244348000D03*
%TO.N,+3.3V*%
X119380000Y-246888000D03*
%TO.N,GND*%
X119380000Y-249428000D03*
D21*
%TO.N,/ExpIFC-SIOCTC/UHPWR5*%
X119380000Y-251968000D03*
%TD*%
D16*
%TO.N,/ExpIFC-SIOCTC/CHB_RXD*%
%TO.C,JP6*%
X280247869Y-119363742D03*
D17*
%TO.N,Net-(JP6-Pin_2)*%
X280247869Y-117363742D03*
%TD*%
D21*
%TO.N,GND*%
%TO.C,J1*%
X309113000Y-116839999D03*
D22*
%TO.N,Net-(J1-Pin_2)*%
X311653000Y-116839999D03*
%TD*%
D32*
%TO.N,ZD4*%
%TO.C,U33*%
X306070000Y-186690000D03*
D20*
%TO.N,ZD5*%
X303530000Y-186690000D03*
%TO.N,ZD6*%
X300990000Y-186690000D03*
%TO.N,ZD7*%
X298450000Y-186690000D03*
%TO.N,GND*%
X295910000Y-186690000D03*
%TO.N,ZRD-*%
X293370000Y-186690000D03*
%TO.N,/ExpIFC-SIOCTC/CHA_CLK*%
X290830000Y-186690000D03*
%TO.N,/ExpIFC-SIOCTC/CHB_CLK*%
X288290000Y-186690000D03*
%TO.N,/ExpIFC-SIOCTC/CTC2_OUT*%
X285750000Y-186690000D03*
%TO.N,ZIORQ-*%
X283210000Y-186690000D03*
%TO.N,/ExpIFC-SIOCTC/CTCIEO*%
X280670000Y-186690000D03*
%TO.N,ZINT-*%
X278130000Y-186690000D03*
%TO.N,/ExpIFC-SIOCTC/SIOIEO*%
X275590000Y-186690000D03*
%TO.N,ZM1-*%
X273050000Y-186690000D03*
%TO.N,/ExpIFC-SIOCTC/IOCLK*%
X273050000Y-201930000D03*
%TO.N,CTC_SEL-*%
X275590000Y-201930000D03*
%TO.N,BRDRST-*%
X278130000Y-201930000D03*
%TO.N,ZA0*%
X280670000Y-201930000D03*
%TO.N,ZA1*%
X283210000Y-201930000D03*
%TO.N,/ExpIFC-SIOCTC/CTC3_CLK*%
X285750000Y-201930000D03*
%TO.N,/ExpIFC-SIOCTC/CTC_CLK*%
X288290000Y-201930000D03*
X290830000Y-201930000D03*
X293370000Y-201930000D03*
%TO.N,+5V*%
X295910000Y-201930000D03*
%TO.N,ZD0*%
X298450000Y-201930000D03*
%TO.N,ZD1*%
X300990000Y-201930000D03*
%TO.N,ZD2*%
X303530000Y-201930000D03*
%TO.N,ZD3*%
X306070000Y-201930000D03*
%TD*%
D21*
%TO.N,GND*%
%TO.C,M2*%
X187565000Y-249660000D03*
D22*
X190105000Y-249660000D03*
%TO.N,+5V*%
X192645000Y-249660000D03*
%TO.N,/ExpIFC-SIOCTC/CONV0*%
X195185000Y-249660000D03*
%TO.N,ZWR-*%
X197725000Y-249660000D03*
%TO.N,ZRD-*%
X200265000Y-249660000D03*
%TO.N,DISPSEL-*%
X202805000Y-249660000D03*
%TO.N,ZA0*%
X205345000Y-249660000D03*
%TO.N,BRDRST-*%
X207885000Y-249660000D03*
%TO.N,ZD0*%
X210425000Y-249660000D03*
%TO.N,ZD1*%
X212965000Y-249660000D03*
%TO.N,ZD2*%
X215505000Y-249660000D03*
%TO.N,ZD3*%
X218045000Y-249660000D03*
%TO.N,ZD4*%
X220585000Y-249660000D03*
%TO.N,ZD5*%
X223125000Y-249660000D03*
%TO.N,ZD6*%
X225665000Y-249660000D03*
%TO.N,ZD7*%
X228205000Y-249660000D03*
%TO.N,/ExpIFC-SIOCTC/FONT1*%
X230745000Y-249660000D03*
%TO.N,/ExpIFC-SIOCTC/CONPWR*%
X233285000Y-249660000D03*
%TO.N,/ExpIFC-SIOCTC/BLPWR*%
X235825000Y-249660000D03*
%TO.N,GND*%
X238365000Y-249660000D03*
%TO.N,unconnected-(M2-NC-Pad22)*%
X240905000Y-249660000D03*
%TD*%
D28*
%TO.N,Net-(D4-K)*%
%TO.C,D4*%
X164465000Y-251460000D03*
D29*
%TO.N,Net-(D4-A)*%
X167005000Y-251460000D03*
%TD*%
D24*
%TO.N,/MainBoard-CPU_Decode/MHA18*%
%TO.C,U21*%
X130175000Y-150495000D03*
D25*
%TO.N,/MainBoard-CPU_Decode/MHA16*%
X130175000Y-153035000D03*
%TO.N,/MainBoard-CPU_Decode/MHA14*%
X130175000Y-155575000D03*
%TO.N,ZA12*%
X130175000Y-158115000D03*
%TO.N,ZA7*%
X130175000Y-160655000D03*
%TO.N,ZA6*%
X130175000Y-163195000D03*
%TO.N,ZA5*%
X130175000Y-165735000D03*
%TO.N,ZA4*%
X130175000Y-168275000D03*
%TO.N,ZA3*%
X130175000Y-170815000D03*
%TO.N,ZA2*%
X130175000Y-173355000D03*
%TO.N,ZA1*%
X130175000Y-175895000D03*
%TO.N,ZA0*%
X130175000Y-178435000D03*
%TO.N,ZD0*%
X130175000Y-180975000D03*
%TO.N,ZD1*%
X130175000Y-183515000D03*
%TO.N,ZD2*%
X130175000Y-186055000D03*
%TO.N,GND*%
X130175000Y-188595000D03*
%TO.N,ZD3*%
X145415000Y-188595000D03*
%TO.N,ZD4*%
X145415000Y-186055000D03*
%TO.N,ZD5*%
X145415000Y-183515000D03*
%TO.N,ZD6*%
X145415000Y-180975000D03*
%TO.N,ZD7*%
X145415000Y-178435000D03*
%TO.N,/MainBoard-CPU_Decode/LCLMEM-*%
X145415000Y-175895000D03*
%TO.N,ZA10*%
X145415000Y-173355000D03*
%TO.N,/MainBoard-CPU_Decode/SRAMRD-*%
X145415000Y-170815000D03*
%TO.N,ZA11*%
X145415000Y-168275000D03*
%TO.N,ZA9*%
X145415000Y-165735000D03*
%TO.N,ZA8*%
X145415000Y-163195000D03*
%TO.N,/MainBoard-CPU_Decode/MHA13*%
X145415000Y-160655000D03*
%TO.N,/MainBoard-CPU_Decode/SRAMWR-*%
X145415000Y-158115000D03*
%TO.N,/MainBoard-CPU_Decode/MHA17*%
X145415000Y-155575000D03*
%TO.N,/MainBoard-CPU_Decode/MHA15*%
X145415000Y-153035000D03*
%TO.N,+5V*%
X145415000Y-150495000D03*
%TD*%
D15*
%TO.N,+5V*%
%TO.C,RN5*%
X160782000Y-144526000D03*
D11*
%TO.N,ZD0*%
X163322000Y-144526000D03*
%TO.N,ZD1*%
X165862000Y-144526000D03*
%TO.N,ZD2*%
X168402000Y-144526000D03*
%TO.N,ZD3*%
X170942000Y-144526000D03*
%TO.N,ZD4*%
X173482000Y-144526000D03*
%TO.N,ZD5*%
X176022000Y-144526000D03*
%TO.N,ZD6*%
X178562000Y-144526000D03*
%TO.N,ZD7*%
X181102000Y-144526000D03*
%TD*%
D16*
%TO.N,/ExpIFC-SIOCTC/USR8J*%
%TO.C,JP1*%
X194190000Y-129250000D03*
D17*
%TO.N,/ExpIFC-SIOCTC/USR8*%
X194190000Y-127250000D03*
%TD*%
D31*
%TO.N,BA15*%
%TO.C,J8*%
X109988501Y-101805501D03*
D22*
%TO.N,BA14*%
X109988501Y-99265501D03*
%TO.N,BA13*%
X112528501Y-101805501D03*
%TO.N,BA12*%
X112528501Y-99265501D03*
%TO.N,BA11*%
X115068500Y-101805501D03*
%TO.N,BA10*%
X115068501Y-99265501D03*
%TO.N,BA09*%
X117608501Y-101805501D03*
%TO.N,BA08*%
X117608501Y-99265501D03*
%TO.N,BA07*%
X120148501Y-101805501D03*
%TO.N,BA06*%
X120148501Y-99265501D03*
%TO.N,BA05*%
X122688501Y-101805501D03*
%TO.N,BA04*%
X122688501Y-99265501D03*
%TO.N,BA03*%
X125228501Y-101805501D03*
%TO.N,BA02*%
X125228501Y-99265501D03*
%TO.N,BA01*%
X127768502Y-101805501D03*
%TO.N,BA00*%
X127768501Y-99265501D03*
%TO.N,GND*%
X130308501Y-101805501D03*
%TO.N,+5V*%
X130308501Y-99265501D03*
%TO.N,ZM1-*%
X132848501Y-101805501D03*
%TO.N,BRDRST-*%
X132848501Y-99265501D03*
%TO.N,/ExpIFC-SIOCTC/CSTM41*%
X135388501Y-101805501D03*
%TO.N,/ExpIFC-SIOCTC/BAO0*%
X135388501Y-99265501D03*
%TO.N,/ExpIFC-SIOCTC/BAObp*%
X137928500Y-101805501D03*
%TO.N,/ExpIFC-SIOCTC/CSTM44*%
X137928501Y-99265501D03*
%TO.N,/ExpIFC-SIOCTC/CSTM45*%
X140468501Y-101805501D03*
%TO.N,/ExpIFC-SIOCTC/CSTM46*%
X140468501Y-99265501D03*
%TO.N,/ExpIFC-SIOCTC/CSTM47*%
X143008501Y-101805501D03*
%TO.N,/ExpIFC-SIOCTC/CSTM48*%
X143008501Y-99265501D03*
%TO.N,BA23*%
X145548501Y-101805501D03*
%TO.N,BA22*%
X145548501Y-99265501D03*
%TO.N,BA21*%
X148088500Y-101805501D03*
%TO.N,BA20*%
X148088501Y-99265501D03*
%TO.N,BA19*%
X150628502Y-101805501D03*
%TO.N,BA18*%
X150628501Y-99265501D03*
%TO.N,BA17*%
X153168501Y-101805501D03*
%TO.N,BA16*%
X153168501Y-99265501D03*
%TO.N,GND*%
X155708501Y-101805501D03*
%TO.N,+5V*%
X155708501Y-99265501D03*
%TO.N,ZRFSH-*%
X158248501Y-101805501D03*
%TO.N,RCBPAGE*%
X158248501Y-99265501D03*
%TD*%
D16*
%TO.N,Net-(D6-A)*%
%TO.C,JP5*%
X124222000Y-245618000D03*
D17*
%TO.N,+5V*%
X126222000Y-245618000D03*
%TD*%
D28*
%TO.N,Net-(D3-K)*%
%TO.C,D3*%
X159385000Y-251460000D03*
D29*
%TO.N,Net-(D3-A)*%
X161925000Y-251460000D03*
%TD*%
D15*
%TO.N,+5V*%
%TO.C,RN7*%
X210058000Y-128651000D03*
D11*
%TO.N,CRSTRQ-*%
X212598000Y-128651000D03*
%TO.N,ZINT-*%
X215138000Y-128651000D03*
%TO.N,NMIREQ-*%
X217678000Y-128651000D03*
%TO.N,ZWAIT-*%
X220218000Y-128651000D03*
%TO.N,ZRD-*%
X222758000Y-128651000D03*
%TO.N,ZWR-*%
X225298000Y-128651000D03*
%TO.N,ZMREQ-*%
X227838000Y-128651000D03*
%TO.N,ZIORQ-*%
X230378000Y-128651000D03*
%TD*%
D16*
%TO.N,/ExpIFC-SIOCTC/CTC2_OUT*%
%TO.C,OP7*%
X289560000Y-139192000D03*
D17*
%TO.N,/ExpIFC-SIOCTC/CTC_CLK*%
X287560000Y-139192000D03*
%TO.N,/ExpIFC-SIOCTC/CTC3_CLK*%
X289560000Y-141192000D03*
X287560000Y-141192000D03*
%TD*%
D15*
%TO.N,+5V*%
%TO.C,RN6*%
X136906000Y-131699000D03*
D11*
%TO.N,/MainBoard-CPU_Decode/VPU1N*%
X139446000Y-131699000D03*
%TO.N,/MainBoard-CPU_Decode/VPU2N*%
X141986000Y-131699000D03*
%TO.N,/MainBoard-CPU_Decode/VPU3N*%
X144526000Y-131699000D03*
%TO.N,BMREQ-*%
X147066000Y-131699000D03*
%TO.N,BWR-*%
X149606000Y-131699000D03*
%TO.N,BRD-*%
X152146000Y-131699000D03*
%TO.N,ZBREQ-*%
X154686000Y-131699000D03*
%TO.N,BIORQ-*%
X157226000Y-131699000D03*
%TD*%
D21*
%TO.N,unconnected-(J14-Pin_1-Pad1)*%
%TO.C,J14*%
X97663000Y-217297000D03*
D22*
%TO.N,unconnected-(J14-Pin_2-Pad2)*%
X97663000Y-219837000D03*
%TO.N,unconnected-(J14-Pin_3-Pad3)*%
X97663000Y-222377000D03*
%TO.N,unconnected-(J14-Pin_4-Pad4)*%
X97663000Y-224917000D03*
%TD*%
D21*
%TO.N,BA15*%
%TO.C,J12*%
X94996000Y-117856000D03*
D22*
%TO.N,BA14*%
X97536000Y-117856000D03*
%TO.N,BA13*%
X100076000Y-117856000D03*
%TO.N,BA12*%
X102616000Y-117856000D03*
%TO.N,BA11*%
X105156000Y-117856000D03*
%TO.N,BA10*%
X107696000Y-117856000D03*
%TO.N,BA09*%
X110236000Y-117856000D03*
%TO.N,BA08*%
X112776000Y-117856000D03*
%TO.N,BA07*%
X115316000Y-117856000D03*
%TO.N,BA06*%
X117856000Y-117856000D03*
%TO.N,BA05*%
X120396000Y-117856000D03*
%TO.N,BA04*%
X122936000Y-117856000D03*
%TO.N,BA03*%
X125476000Y-117856000D03*
%TO.N,BA02*%
X128016000Y-117856000D03*
%TO.N,BA01*%
X130556000Y-117856000D03*
%TO.N,BA00*%
X133096000Y-117856000D03*
%TO.N,GND*%
X135636000Y-117856000D03*
%TO.N,+5V*%
X138176000Y-117856000D03*
%TO.N,ZM1-*%
X140716000Y-117856000D03*
%TO.N,BRDRST-*%
X143256000Y-117856000D03*
%TO.N,ZCLK*%
X145796000Y-117856000D03*
%TO.N,ZINT-*%
X148336000Y-117856000D03*
%TO.N,BMREQ-*%
X150876000Y-117856000D03*
%TO.N,BWR-*%
X153416000Y-117856000D03*
%TO.N,BRD-*%
X155956000Y-117856000D03*
%TO.N,BIORQ-*%
X158496000Y-117856000D03*
%TO.N,BD0*%
X161036000Y-117856000D03*
%TO.N,BD1*%
X163576000Y-117856000D03*
%TO.N,BD2*%
X166116000Y-117856000D03*
%TO.N,BD3*%
X168656000Y-117856000D03*
%TO.N,BD4*%
X171196000Y-117856000D03*
%TO.N,BD5*%
X173736000Y-117856000D03*
%TO.N,BD6*%
X176276000Y-117856000D03*
%TO.N,BD7*%
X178816000Y-117856000D03*
%TO.N,/ExpIFC-SIOCTC/TXD_A*%
X181356000Y-117856000D03*
%TO.N,/ExpIFC-SIOCTC/RXD_A*%
X183896000Y-117856000D03*
%TO.N,/ExpIFC-SIOCTC/ExIRQ1-*%
X186436000Y-117856000D03*
%TO.N,/ExpIFC-SIOCTC/LCLIA-*%
X188976000Y-117856000D03*
%TO.N,/ExpIFC-SIOCTC/B0IEO*%
X191516000Y-117856000D03*
%TO.N,CRSTRQ-*%
X194056000Y-117856000D03*
%TO.N,/ExpIFC-SIOCTC/CSTM41*%
X94996000Y-120396000D03*
%TO.N,/ExpIFC-SIOCTC/BAI0*%
X97536000Y-120396000D03*
%TO.N,/ExpIFC-SIOCTC/BAO0*%
X100076000Y-120396000D03*
%TO.N,/ExpIFC-SIOCTC/CSTM44*%
X102616000Y-120396000D03*
%TO.N,/ExpIFC-SIOCTC/CSTM45*%
X105156000Y-120396000D03*
%TO.N,/ExpIFC-SIOCTC/CSTM46*%
X107696000Y-120396000D03*
%TO.N,/ExpIFC-SIOCTC/CSTM47*%
X110236000Y-120396000D03*
%TO.N,/ExpIFC-SIOCTC/CSTM48*%
X112776000Y-120396000D03*
%TO.N,BA23*%
X115316000Y-120396000D03*
%TO.N,BA22*%
X117856000Y-120396000D03*
%TO.N,BA21*%
X120396000Y-120396000D03*
%TO.N,BA20*%
X122936000Y-120396000D03*
%TO.N,BA19*%
X125476000Y-120396000D03*
%TO.N,BA18*%
X128016000Y-120396000D03*
%TO.N,BA17*%
X130556000Y-120396000D03*
%TO.N,BA16*%
X133096000Y-120396000D03*
%TO.N,GND*%
X135636000Y-120396000D03*
%TO.N,+5V*%
X138176000Y-120396000D03*
%TO.N,ZRFSH-*%
X140716000Y-120396000D03*
%TO.N,RCBPAGE*%
X143256000Y-120396000D03*
%TO.N,/ExpIFC-SIOCTC/IOCLK*%
X145796000Y-120396000D03*
%TO.N,ZBSAK-*%
X148336000Y-120396000D03*
%TO.N,ZHALT-*%
X150876000Y-120396000D03*
%TO.N,ZBREQ-*%
X153416000Y-120396000D03*
%TO.N,ZWAIT-*%
X155956000Y-120396000D03*
%TO.N,NMIREQ-*%
X158496000Y-120396000D03*
%TO.N,/ExpIFC-SIOCTC/NC_D08*%
X161036000Y-120396000D03*
%TO.N,/ExpIFC-SIOCTC/NC_D09*%
X163576000Y-120396000D03*
%TO.N,/ExpIFC-SIOCTC/NC_D10*%
X166116000Y-120396000D03*
%TO.N,/ExpIFC-SIOCTC/NC_D11*%
X168656000Y-120396000D03*
%TO.N,/ExpIFC-SIOCTC/NC_D12*%
X171196000Y-120396000D03*
%TO.N,/ExpIFC-SIOCTC/NC_D13*%
X173736000Y-120396000D03*
%TO.N,/ExpIFC-SIOCTC/NC_D14*%
X176276000Y-120396000D03*
%TO.N,/ExpIFC-SIOCTC/NC_D15*%
X178816000Y-120396000D03*
%TO.N,/ExpIFC-SIOCTC/TXD_B*%
X181356000Y-120396000D03*
%TO.N,/ExpIFC-SIOCTC/RXD_B*%
X183896000Y-120396000D03*
%TO.N,/ExpIFC-SIOCTC/ExIRQ2-*%
X186436000Y-120396000D03*
%TO.N,/ExpIFC-SIOCTC/USR6*%
X188976000Y-120396000D03*
%TO.N,/ExpIFC-SIOCTC/USR7*%
X191516000Y-120396000D03*
%TO.N,/ExpIFC-SIOCTC/USR8*%
X194056000Y-120396000D03*
%TD*%
D16*
%TO.N,/MainBoard-CPU_Decode/VPU1*%
%TO.C,OP5*%
X195548000Y-185515000D03*
D17*
%TO.N,ZA15*%
X195548000Y-183515000D03*
%TO.N,GND*%
X195548000Y-181515000D03*
%TO.N,/MainBoard-CPU_Decode/RA55RO*%
X193548000Y-185515000D03*
X193548000Y-183515000D03*
X193548000Y-181515000D03*
%TD*%
D28*
%TO.N,Net-(D1-K)*%
%TO.C,D1*%
X149225000Y-251460000D03*
D29*
%TO.N,Net-(D1-A)*%
X151765000Y-251460000D03*
%TD*%
D35*
%TO.N,Net-(R29-Pad1)*%
%TO.C,RV1*%
X164405000Y-237998000D03*
%TO.N,/ExpIFC-SIOCTC/CONV0*%
X161865000Y-240538000D03*
%TO.N,Net-(R20-Pad2)*%
X164405000Y-243078000D03*
%TD*%
D15*
%TO.N,+5V*%
%TO.C,RN8*%
X161036000Y-128778000D03*
D11*
%TO.N,BD0*%
X163576000Y-128778000D03*
%TO.N,BD1*%
X166116000Y-128778000D03*
%TO.N,BD2*%
X168656000Y-128778000D03*
%TO.N,BD3*%
X171196000Y-128778000D03*
%TO.N,BD4*%
X173736000Y-128778000D03*
%TO.N,BD5*%
X176276000Y-128778000D03*
%TO.N,BD6*%
X178816000Y-128778000D03*
%TO.N,BD7*%
X181356000Y-128778000D03*
%TD*%
D30*
%TO.N,+5V*%
%TO.C,C44*%
X100163000Y-190373000D03*
D11*
%TO.N,GND*%
X97663000Y-190373000D03*
%TD*%
D24*
%TO.N,+5V*%
%TO.C,U1*%
X134620000Y-206375000D03*
D19*
%TO.N,unconnected-(U1-NC2-Pad2)*%
X134620000Y-208915000D03*
%TO.N,unconnected-(U1-NC3-Pad3)*%
X134620000Y-211455000D03*
D25*
%TO.N,GND*%
X134620000Y-213995000D03*
D19*
%TO.N,unconnected-(U1-NC5-Pad5)*%
X134620000Y-216535000D03*
%TO.N,unconnected-(U1-NC6-Pad6)*%
X134620000Y-219075000D03*
D25*
%TO.N,GND*%
X134620000Y-221615000D03*
%TO.N,CLKf*%
X142240000Y-221615000D03*
D19*
%TO.N,unconnected-(U1-NC9-Pad9)*%
X142240000Y-219075000D03*
%TO.N,unconnected-(U1-NC10-Pad10)*%
X142240000Y-216535000D03*
D25*
%TO.N,CLKf*%
X142240000Y-213995000D03*
D19*
%TO.N,unconnected-(U1-NC12-Pad12)*%
X142240000Y-211455000D03*
%TO.N,unconnected-(U1-NC13-Pad13)*%
X142240000Y-208915000D03*
D25*
%TO.N,+5V*%
X142240000Y-206375000D03*
%TD*%
D36*
%TO.N,GND*%
X147320000Y-240538000D03*
X129032000Y-223647000D03*
X146690000Y-230100000D03*
X179400200Y-208610200D03*
X197866000Y-204597000D03*
X208980100Y-181965600D03*
X139790000Y-229950000D03*
X105079800Y-180721000D03*
X131445000Y-138430000D03*
X150495000Y-209550000D03*
X179832000Y-228286600D03*
X163830000Y-222290000D03*
X176098200Y-150368000D03*
X178540000Y-160100000D03*
X194970400Y-145618200D03*
X104749600Y-162280600D03*
X244602000Y-195326000D03*
X102235000Y-216027000D03*
X161340800Y-132664200D03*
X127889000Y-249428000D03*
X266954000Y-133858000D03*
X109982000Y-139801600D03*
X120650000Y-223266000D03*
X231902000Y-195326000D03*
X147320000Y-249428000D03*
D37*
X286385000Y-96520000D03*
D36*
X153670000Y-143560800D03*
X204901800Y-171780200D03*
D38*
X160807400Y-199110600D03*
D36*
X120396000Y-218440000D03*
X140944600Y-136271000D03*
X239928400Y-181635400D03*
X178587400Y-140208000D03*
X122682000Y-143510000D03*
X102235000Y-222885000D03*
X215341200Y-159461200D03*
X170180000Y-236474000D03*
X177800000Y-232410000D03*
D38*
X178765200Y-175056800D03*
D36*
X242595400Y-161493200D03*
D38*
X162204638Y-227674638D03*
D36*
X129032000Y-219837000D03*
X185343800Y-213817200D03*
X178562000Y-191338200D03*
X157327600Y-203987400D03*
X168275000Y-246380000D03*
X208153000Y-229108000D03*
X156133800Y-198755000D03*
X129032000Y-215900000D03*
X214858600Y-189407800D03*
D37*
X281686000Y-99314000D03*
D36*
X248589800Y-181889400D03*
X248945400Y-147955000D03*
X165887400Y-206340100D03*
X278130000Y-126872999D03*
X144754600Y-210769200D03*
X167030400Y-198780400D03*
X236347000Y-150647400D03*
X290245800Y-204749400D03*
X208432400Y-203809600D03*
X129290065Y-145539805D03*
D38*
X142240000Y-202438000D03*
D36*
X185340000Y-229000000D03*
X272084800Y-144907000D03*
X193598800Y-174510700D03*
X134366000Y-235966000D03*
X230047800Y-171450000D03*
X285750000Y-151638000D03*
X128524000Y-240411000D03*
X129188001Y-141632205D03*
X230047800Y-160121600D03*
X218694000Y-170815000D03*
X198504544Y-160131832D03*
D37*
X291013055Y-99240780D03*
D36*
X128016000Y-231648000D03*
X219430600Y-217449400D03*
X173228000Y-222326200D03*
X159664400Y-214706200D03*
X155829000Y-217932000D03*
X99695000Y-173355000D03*
D38*
X303215001Y-133985000D03*
D36*
X137134600Y-143383000D03*
D37*
%TO.N,+5V*%
X304165000Y-125603000D03*
D36*
X196951600Y-166497000D03*
X97790000Y-175895000D03*
X159308800Y-229387400D03*
X190449200Y-145669000D03*
X216408000Y-189382400D03*
X194411600Y-190144400D03*
X183103400Y-198704200D03*
X276377400Y-144881600D03*
X257810000Y-179959000D03*
X163195000Y-246380000D03*
X186940000Y-152300000D03*
X172540000Y-226000000D03*
X250393200Y-151384000D03*
D37*
X304165000Y-117305667D03*
D36*
X216662000Y-216662000D03*
X243814600Y-164261800D03*
X183769000Y-248539000D03*
X134640000Y-193900000D03*
X293370000Y-151511000D03*
D37*
X304165000Y-125603000D03*
D38*
X204620500Y-189674500D03*
D36*
X197739000Y-208889600D03*
X232460800Y-149453600D03*
X234442000Y-237363000D03*
D38*
X158292800Y-196240400D03*
D36*
X137160000Y-136144000D03*
X203047600Y-152120600D03*
X171450000Y-235966000D03*
X146354800Y-226288600D03*
X251460000Y-183388000D03*
X186932300Y-182448200D03*
X230174800Y-162991800D03*
X146685000Y-210820000D03*
X184912000Y-166166800D03*
X258140200Y-111937800D03*
X157403800Y-206273400D03*
X157022800Y-216331800D03*
X179806600Y-223545400D03*
D37*
X304165000Y-113157000D03*
D36*
X109982000Y-138049000D03*
X123698000Y-229362000D03*
X128016000Y-204470000D03*
X237134400Y-182651400D03*
X156464000Y-234442000D03*
X167030400Y-206146400D03*
X218973400Y-152095200D03*
X186131200Y-225399600D03*
X306451000Y-142367000D03*
X117475000Y-214249000D03*
X169951400Y-217347800D03*
X152781000Y-246380000D03*
D37*
X304165000Y-121454333D03*
D36*
X157861000Y-246380000D03*
X172999400Y-199339200D03*
X259080000Y-152757500D03*
X218592400Y-161544000D03*
X146726145Y-195386145D03*
X178562000Y-237490000D03*
X129286000Y-146812000D03*
X199390000Y-137185400D03*
D38*
%TO.N,Net-(D1-K)*%
X207010000Y-219075000D03*
%TO.N,Net-(D2-K)*%
X207010000Y-222885000D03*
%TO.N,Net-(D3-K)*%
X207010000Y-224155000D03*
%TO.N,Net-(D4-A)*%
X207010000Y-227965000D03*
%TO.N,/ExpIFC-SIOCTC/B0IEO*%
X246910500Y-115493800D03*
X192786000Y-115366800D03*
X246910500Y-154965400D03*
%TO.N,/ExpIFC-SIOCTC/LCLIA-*%
X247396000Y-153644600D03*
X219557600Y-156222300D03*
X219558164Y-153711900D03*
X219100400Y-119024400D03*
%TO.N,BA11*%
X233034683Y-111253383D03*
%TO.N,BA16*%
X109804200Y-125730000D03*
X133140000Y-125700000D03*
%TO.N,/MainBoard-CPU_Decode/CLKhEN-*%
X147955000Y-202768200D03*
X153640000Y-214426800D03*
X161240000Y-206579000D03*
%TO.N,BA17*%
X130530600Y-126441200D03*
X112395000Y-126415800D03*
%TO.N,/MainBoard-CPU_Decode/CLKfEN-*%
X160085383Y-207010000D03*
X161240000Y-216400000D03*
X161140000Y-232295700D03*
%TO.N,BA18*%
X127990600Y-127076200D03*
X114935000Y-127076200D03*
%TO.N,BA22*%
X124206000Y-124942600D03*
X117881400Y-124917200D03*
%TO.N,BA23*%
X115290600Y-124155200D03*
X126847600Y-124180600D03*
%TO.N,BA14*%
X235407200Y-108534200D03*
%TO.N,BA10*%
X231571800Y-112471200D03*
%TO.N,BA20*%
X122961400Y-128498600D03*
X120015000Y-128447800D03*
%TO.N,BA13*%
X233832400Y-109194600D03*
%TO.N,BA12*%
X247777000Y-194945000D03*
X221411800Y-104775000D03*
X231648000Y-193802000D03*
%TO.N,ZM1-*%
X139640000Y-193900000D03*
X257540000Y-155600000D03*
X168840000Y-227500000D03*
X139640000Y-228350000D03*
X139540000Y-187300000D03*
X231749600Y-227100000D03*
%TO.N,BA15*%
X237896400Y-105994200D03*
%TO.N,CLKf*%
X170180000Y-231140000D03*
X149233490Y-230795700D03*
X171140000Y-219000000D03*
X163830000Y-227726438D03*
%TO.N,BRDRST-*%
X209840000Y-214600000D03*
X245110000Y-173355000D03*
X243840000Y-150495000D03*
X245110000Y-134620000D03*
%TO.N,BA19*%
X117449600Y-127711200D03*
X125476000Y-127711200D03*
%TO.N,ZRFSH-*%
X175133000Y-145973800D03*
X175133000Y-168707500D03*
X140589000Y-126873000D03*
X188925200Y-145973800D03*
X175133000Y-182397400D03*
X168656000Y-126771400D03*
X188950600Y-126771400D03*
%TO.N,BA02*%
X126085600Y-135509000D03*
X102412800Y-135509000D03*
%TO.N,BA06*%
X116611400Y-129971800D03*
X99263200Y-129997200D03*
%TO.N,ZNMI-*%
X225882200Y-187401200D03*
X225780600Y-154965400D03*
%TO.N,BWR-*%
X214757000Y-178435000D03*
X214654500Y-134366000D03*
X149631400Y-134264400D03*
%TO.N,ZBREQ-*%
X148234400Y-190653400D03*
%TO.N,ZWAIT-*%
X220192600Y-106984800D03*
X130556000Y-130022600D03*
%TO.N,ZHALT-*%
X104673400Y-129133600D03*
%TO.N,ZBSAK-*%
X210963300Y-190347600D03*
X153009600Y-124307600D03*
X134640000Y-198800000D03*
X210388200Y-152441900D03*
X211277200Y-124282200D03*
%TO.N,BMREQ-*%
X213131400Y-135051800D03*
X147091400Y-136245600D03*
X213409900Y-179679600D03*
%TO.N,ZINT-*%
X133883400Y-124180600D03*
X169612300Y-222570300D03*
X138506200Y-222580200D03*
X295859200Y-130556000D03*
X137769600Y-190080900D03*
%TO.N,ZCLK*%
X116140000Y-165800000D03*
X105511600Y-123469400D03*
X116140000Y-212700000D03*
X160617700Y-219400000D03*
%TO.N,BRD-*%
X216204800Y-131546600D03*
X215519000Y-177139600D03*
%TO.N,BIORQ-*%
X157226000Y-125806200D03*
X218516200Y-180949600D03*
X215442800Y-125831600D03*
%TO.N,/ExpIFC-SIOCTC/IOCLK*%
X261213600Y-97358200D03*
X260909263Y-150091125D03*
X172240000Y-207700000D03*
%TO.N,BA00*%
X131902200Y-136956800D03*
X103759000Y-137109200D03*
%TO.N,ZRD-*%
X224190000Y-213200000D03*
X222758000Y-151168100D03*
X200265000Y-213222300D03*
X224240000Y-199400000D03*
X179966200Y-212039200D03*
X131521200Y-241782600D03*
X178993800Y-182473600D03*
X222508467Y-180843533D03*
%TO.N,ZD6*%
X142240000Y-179070000D03*
X255828800Y-247129300D03*
X218694000Y-202260200D03*
X219151200Y-179019200D03*
%TO.N,ZWR-*%
X162864800Y-234100000D03*
X182016400Y-234100000D03*
X162878738Y-215747600D03*
X203022200Y-177165000D03*
X124091700Y-220971100D03*
X181717700Y-177165000D03*
X224459800Y-166776400D03*
X203225400Y-166801800D03*
X154919115Y-220022300D03*
X181711600Y-183743600D03*
X203225400Y-160718500D03*
X120396000Y-220726000D03*
%TO.N,ZD2*%
X114300000Y-187325000D03*
X167894000Y-243852700D03*
X168367700Y-184480200D03*
X114300000Y-196977000D03*
%TO.N,ZA0*%
X129840000Y-218500000D03*
X129840000Y-247200000D03*
X127254000Y-194945000D03*
X245732300Y-156222300D03*
X134874000Y-177329200D03*
%TO.N,ZD7*%
X180340000Y-178434000D03*
X253034800Y-247650000D03*
X201739500Y-178409600D03*
X201879200Y-206044800D03*
X215138000Y-206044800D03*
X141605000Y-178435000D03*
X141605000Y-192405000D03*
X113664000Y-192405000D03*
%TO.N,BA05*%
X100457000Y-133451600D03*
X118846600Y-133299200D03*
%TO.N,DISPSEL-*%
X187566736Y-203314300D03*
X188040000Y-236000000D03*
%TO.N,ZD5*%
X106172000Y-184658000D03*
X258876800Y-246507000D03*
X178638200Y-181229000D03*
X220751400Y-183591200D03*
X221361000Y-201295000D03*
X133985000Y-170815000D03*
X133985000Y-183515000D03*
%TO.N,ZD0*%
X113665000Y-193675000D03*
X162814000Y-180924200D03*
X187401200Y-196875400D03*
X162814000Y-196850000D03*
%TO.N,ZD1*%
X113665000Y-195326000D03*
X115519200Y-250698000D03*
X163957000Y-180949600D03*
X113639600Y-219125800D03*
%TO.N,ZD3*%
X220014800Y-186867800D03*
X111607600Y-148285200D03*
X114935000Y-189865000D03*
X114934987Y-198120000D03*
X220065600Y-198831200D03*
%TO.N,ZD4*%
X220726000Y-200025000D03*
X261874000Y-245986300D03*
X220700600Y-186283600D03*
X133350000Y-186055000D03*
X133350000Y-168910000D03*
X120396000Y-188468000D03*
X173278800Y-186105800D03*
%TO.N,BA08*%
X226415600Y-114350800D03*
%TO.N,BA03*%
X123444000Y-134747000D03*
X101777800Y-134772400D03*
%TO.N,BA07*%
X94615000Y-124587000D03*
X114147600Y-124612400D03*
%TO.N,/ExpIFC-SIOCTC/CHB_TXD*%
X263906000Y-148336000D03*
%TO.N,/ExpIFC-SIOCTC/SPIMI*%
X133350000Y-235966000D03*
%TO.N,USBSDSEL-*%
X175564800Y-223400000D03*
X175564800Y-203200000D03*
X129540000Y-222250000D03*
D36*
%TO.N,+3.3V*%
X136652000Y-235966000D03*
X134740000Y-229700000D03*
X127240000Y-242500000D03*
X122555000Y-224536000D03*
X117475000Y-224536000D03*
D38*
%TO.N,/ExpIFC-SIOCTC/V3D6*%
X105537000Y-225679000D03*
%TO.N,/ExpIFC-SIOCTC/V3D4*%
X108585000Y-225679000D03*
%TO.N,/ExpIFC-SIOCTC/V3D2*%
X111125000Y-225679000D03*
%TO.N,RCBPAGE*%
X214440000Y-227900000D03*
X214040000Y-96700000D03*
%TO.N,/MainBoard-CPU_Decode/MHA21*%
X143662400Y-204241400D03*
X126136400Y-138430000D03*
%TO.N,/MainBoard-CPU_Decode/MHA22*%
X120446800Y-203022200D03*
X120015000Y-143510000D03*
D39*
%TO.N,/MainBoard-CPU_Decode/MHA23*%
X130810000Y-140995400D03*
X170154600Y-209296000D03*
X171551600Y-142798800D03*
D38*
%TO.N,BA04*%
X121081800Y-134035800D03*
X101168200Y-134137400D03*
%TO.N,ZMREQ-*%
X205790800Y-216357200D03*
X176940000Y-216741300D03*
X176890000Y-191750000D03*
X225247200Y-216014300D03*
X227838000Y-140309600D03*
%TO.N,NMIREQ-*%
X217652600Y-150545800D03*
%TO.N,ZIORQ-*%
X183032400Y-138226800D03*
X197993000Y-172745400D03*
X149225000Y-193929000D03*
X130200400Y-143501100D03*
X176316700Y-203822300D03*
X253619000Y-172720000D03*
X197967600Y-139700000D03*
X253562300Y-158100000D03*
X130225800Y-139369800D03*
X253695200Y-190119000D03*
D39*
X181716700Y-167436800D03*
D38*
X198755000Y-237464600D03*
X181762400Y-153670000D03*
X229743000Y-157480000D03*
X197993000Y-150634700D03*
X176336000Y-238446000D03*
X181716700Y-169926000D03*
X181717700Y-171214500D03*
%TO.N,Net-(U2A-D)*%
X154305000Y-217805000D03*
X149225000Y-217805000D03*
%TO.N,/MainBoard-CPU_Decode/PGINGEN*%
X166340000Y-194000000D03*
X138440000Y-199072300D03*
%TO.N,/MainBoard-CPU_Decode/PGENWR-*%
X181717700Y-197993000D03*
X181717700Y-206324200D03*
X163830000Y-199085200D03*
%TO.N,/MainBoard-CPU_Decode/BAtoZAH-*%
X252196600Y-184759600D03*
X192278000Y-205384400D03*
X252196600Y-157454600D03*
X248310400Y-184785000D03*
X248539000Y-203695300D03*
%TO.N,/MainBoard-CPU_Decode/PRA3*%
X240487200Y-146837400D03*
X240440000Y-158900000D03*
X144840000Y-146659600D03*
%TO.N,ZRST-*%
X210340000Y-153700000D03*
X137140000Y-193900000D03*
X127040000Y-193027300D03*
X137140000Y-154300000D03*
%TO.N,/MainBoard-CPU_Decode/BAtoZA-*%
X106019600Y-174955200D03*
X106273600Y-149606000D03*
X157530800Y-151739600D03*
X208965800Y-168605200D03*
X208965800Y-150012400D03*
%TO.N,/MainBoard-CPU_Decode/BAtoMHA-*%
X241325400Y-183515000D03*
X241300000Y-159385000D03*
%TO.N,/ExpIFC-SIOCTC/CTCIEO*%
X252940000Y-154400000D03*
X215215200Y-153670000D03*
X215214200Y-139090400D03*
X252907800Y-188290200D03*
%TO.N,/ExpIFC-SIOCTC/SIOIEO*%
X193141600Y-137160000D03*
X193141600Y-146088100D03*
X215214200Y-154956500D03*
X215849200Y-146088100D03*
%TO.N,/MainBoard-CPU_Decode/ZMNIO-*%
X208369900Y-156311600D03*
X194208400Y-196240400D03*
X156768800Y-213283800D03*
X208512364Y-195592700D03*
X151790400Y-193928000D03*
X194183000Y-214045800D03*
%TO.N,/MainBoard-CPU_Decode/PROE-*%
X154711400Y-140334000D03*
X154711400Y-159359600D03*
%TO.N,/MainBoard-CPU_Decode/PGRGRD-*%
X213409901Y-158082464D03*
X169824400Y-215115500D03*
X170738800Y-158115000D03*
X165662300Y-215099900D03*
%TO.N,/MainBoard-CPU_Decode/ZMASTER*%
X150698200Y-193954400D03*
X194183000Y-154940000D03*
X194183000Y-164617400D03*
X160172400Y-165404800D03*
X160197800Y-183565800D03*
%TO.N,/MainBoard-CPU_Decode/BUSMEM-*%
X218160600Y-175247300D03*
X190271400Y-175260000D03*
X230949500Y-154956500D03*
X218668600Y-158775400D03*
%TO.N,Net-(U29-Pad13)*%
X204673200Y-162077400D03*
X204491617Y-153758883D03*
%TO.N,/MainBoard-CPU_Decode/ZMASTER-*%
X151721400Y-198457400D03*
X175971200Y-169418000D03*
X175971200Y-199923400D03*
X192230965Y-152412700D03*
X175996600Y-155575000D03*
X230936800Y-149987000D03*
X192227200Y-154940000D03*
X230949500Y-153686500D03*
%TO.N,ZA7*%
X138740000Y-159549200D03*
X141040000Y-193900000D03*
%TO.N,Net-(U12-~{E0})*%
X134440000Y-146100000D03*
X142240000Y-193900000D03*
X177562300Y-202539600D03*
X177562300Y-193027300D03*
%TO.N,/MainBoard-CPU_Decode/ZRST*%
X161950400Y-199110600D03*
X140972064Y-197420300D03*
%TO.N,Net-(U29-Pad9)*%
X192938400Y-159385000D03*
X198767700Y-158931564D03*
X192913000Y-153653500D03*
%TO.N,BUSIA-*%
X191363600Y-156210000D03*
X191312800Y-139065000D03*
%TO.N,ZA6*%
X131368800Y-143501100D03*
X177241200Y-162509200D03*
X177241200Y-158800800D03*
%TO.N,INTACK*%
X182295800Y-136156700D03*
X182245000Y-152400000D03*
%TO.N,Net-(U12-E2)*%
X174880600Y-205061500D03*
X174117000Y-156210000D03*
%TO.N,Net-(U29-Pad5)*%
X193548000Y-157480000D03*
X194805300Y-157480000D03*
%TO.N,/MainBoard-CPU_Decode/LCLIO*%
X192024000Y-158775400D03*
X192430400Y-192976500D03*
X192455800Y-171450000D03*
X225221800Y-156222300D03*
X183692800Y-141578600D03*
X183692800Y-158737300D03*
X225221800Y-162763200D03*
X192481200Y-162572700D03*
X134518400Y-140995400D03*
X153051500Y-199161400D03*
%TO.N,ZA2*%
X156565600Y-157226000D03*
X118110000Y-170815000D03*
X156565600Y-173380400D03*
X126111000Y-144780000D03*
%TO.N,/MainBoard-CPU_Decode/LCLMEM*%
X182340000Y-160000000D03*
X182981600Y-234950000D03*
%TO.N,/MainBoard-CPU_Decode/NMIEN*%
X181717700Y-218700900D03*
X215240000Y-219000000D03*
%TO.N,/MainBoard-CPU_Decode/PGRGSEL-*%
X219430600Y-193801000D03*
X166370000Y-215722200D03*
X192278000Y-215163400D03*
X219430600Y-207035400D03*
X168224200Y-193422300D03*
X192303400Y-207077700D03*
%TO.N,BA09*%
X228955600Y-113538000D03*
%TO.N,/MainBoard-CPU_Decode/MHAtoBA-*%
X234454700Y-156222300D03*
X234454700Y-183362600D03*
%TO.N,/MainBoard-CPU_Decode/LCLMEM-*%
X204698600Y-165531800D03*
X186969400Y-177787300D03*
X187045600Y-169977500D03*
%TO.N,/MainBoard-CPU_Decode/LOW1MEG*%
X177546000Y-188849000D03*
X187960000Y-168926500D03*
X187960000Y-167640000D03*
X182962300Y-173151800D03*
X178638200Y-236220000D03*
X134493000Y-139687300D03*
X182984200Y-168691000D03*
X177571400Y-173151800D03*
X187655200Y-139446000D03*
%TO.N,/MainBoard-CPU_Decode/MHA20*%
X206248000Y-203835000D03*
X205905100Y-142214600D03*
X148615400Y-142214600D03*
X148539200Y-136347200D03*
%TO.N,BA01*%
X129209800Y-136220200D03*
X103098600Y-136321800D03*
%TO.N,ZA5*%
X169612300Y-201294000D03*
X169748200Y-166878000D03*
X106680000Y-167005000D03*
%TO.N,CTC_SEL-*%
X186690000Y-201295000D03*
%TO.N,/MainBoard-CPU_Decode/BDCTRL-*%
X198704200Y-173380400D03*
X188722000Y-173380400D03*
X186868800Y-206349600D03*
%TO.N,SIO_SEL-*%
X186690000Y-200025000D03*
%TO.N,ZA3*%
X106680000Y-168910000D03*
X171653200Y-198780400D03*
X171653200Y-172262800D03*
%TO.N,ZA4*%
X176657000Y-169964100D03*
X178892200Y-199999600D03*
%TO.N,ZA10*%
X139700000Y-151765000D03*
X170078400Y-170586400D03*
%TO.N,ZA13*%
X148577300Y-148716100D03*
X235610400Y-192430400D03*
X201117200Y-148640800D03*
X113017300Y-148971000D03*
X201077217Y-193067283D03*
%TO.N,ZA8*%
X140970000Y-156845000D03*
%TO.N,ZA15*%
X115925600Y-147726400D03*
X146050000Y-147434301D03*
X199390000Y-196215000D03*
X215188800Y-185191400D03*
X199364600Y-147332700D03*
%TO.N,ZA14*%
X147320000Y-148056600D03*
X240030000Y-188607700D03*
X240030000Y-189852300D03*
X114312700Y-148336000D03*
X200279000Y-147929600D03*
X200304400Y-194894200D03*
%TO.N,ZA1*%
X171856400Y-200761600D03*
X116840000Y-171450000D03*
%TO.N,ZA12*%
X199440800Y-185813700D03*
X247904000Y-193802000D03*
X244348000Y-193802000D03*
X198678800Y-156159200D03*
X133350000Y-155575000D03*
%TO.N,ZA9*%
X135255000Y-154305000D03*
X135255000Y-165735000D03*
%TO.N,/MainBoard-CPU_Decode/LOW1MEG-*%
X189331600Y-169545000D03*
X189534800Y-174371000D03*
%TO.N,/MainBoard-CPU_Decode/ZAtHoBA-*%
X213409900Y-182880000D03*
X194614800Y-174091600D03*
X194360800Y-179696100D03*
%TO.N,Net-(U14-Pad8)*%
X202260200Y-176250600D03*
X183870600Y-172516800D03*
%TO.N,/MainBoard-CPU_Decode/MHA15*%
X212902800Y-190322200D03*
X187375800Y-198069200D03*
X143281400Y-153009600D03*
X143967200Y-194487800D03*
X202971400Y-197526900D03*
X228473000Y-189890400D03*
X154889200Y-198272400D03*
X211963000Y-196215000D03*
%TO.N,/MainBoard-CPU_Decode/MHA19*%
X206527400Y-202450700D03*
X206400400Y-140970000D03*
X116230400Y-140309600D03*
X206502000Y-188976000D03*
X203301600Y-189001400D03*
X149860000Y-140258800D03*
%TO.N,/MainBoard-CPU_Decode/MHA13*%
X171551600Y-160858200D03*
X202869800Y-195148200D03*
X147955000Y-143281400D03*
X172542200Y-195783200D03*
X187858400Y-194995800D03*
%TO.N,/MainBoard-CPU_Decode/MHA16*%
X189128400Y-163817300D03*
X155498800Y-153035000D03*
X204647800Y-163550600D03*
X155498800Y-164642800D03*
X202971400Y-198932800D03*
%TO.N,/MainBoard-CPU_Decode/PGRGWR-*%
X209677000Y-133629400D03*
X138303000Y-133629400D03*
X161213800Y-211175600D03*
X209753200Y-191262000D03*
X211208700Y-210235800D03*
%TO.N,/MainBoard-CPU_Decode/MHA17*%
X207772000Y-135534400D03*
X207746600Y-199401000D03*
X142951200Y-135636000D03*
X113639600Y-151638000D03*
%TO.N,/MainBoard-CPU_Decode/MHA14*%
X153212800Y-158115000D03*
X153187400Y-149428200D03*
X232156000Y-187452000D03*
X211683600Y-161455100D03*
X228193600Y-195554600D03*
X212013800Y-195047600D03*
X247650000Y-188468000D03*
%TO.N,/MainBoard-CPU_Decode/MHA18*%
X151130000Y-140233400D03*
X207124300Y-201295000D03*
X207124300Y-149301200D03*
%TO.N,/MainBoard-CPU_Decode/SRAMRD-*%
X183083200Y-191312800D03*
X183083200Y-176428400D03*
%TO.N,/MainBoard-CPU_Decode/SRAMWR-*%
X142646400Y-160629600D03*
X185928000Y-164515800D03*
X187591700Y-188480700D03*
%TO.N,/MainBoard-CPU_Decode/FLASHWR-*%
X187426600Y-186220100D03*
X185877200Y-150634700D03*
%TO.N,/MainBoard-CPU_Decode/FLASHRD-*%
X178333400Y-183819800D03*
X164439600Y-185369200D03*
%TO.N,/MainBoard-CPU_Decode/RA55RO*%
X196088000Y-201295000D03*
%TO.N,/MainBoard-CPU_Decode/BDCTLWR-*%
X214240000Y-229250000D03*
X183840000Y-230505000D03*
X183840000Y-175000000D03*
%TO.N,/MainBoard-CPU_Decode/BDTOZD-*%
X203254793Y-159880813D03*
X204241400Y-134912100D03*
%TO.N,/ExpIFC-SIOCTC/FONT1*%
X243078000Y-248453400D03*
%TO.N,/MainBoard-CPU_Decode/ZDBDEN-*%
X202971400Y-134899400D03*
X202996800Y-144754600D03*
%TO.N,/MainBoard-CPU_Decode/VPU2*%
X151231600Y-214426800D03*
%TO.N,DSPBLON-*%
X218567000Y-224155000D03*
X235585000Y-224155000D03*
%TO.N,/ExpIFC-SIOCTC/INTRQ*%
X177038000Y-221234000D03*
%TO.N,/MainBoard-CPU_Decode/CLKfFRC-*%
X188662300Y-222453200D03*
X188747400Y-205105000D03*
%TO.N,/MainBoard-CPU_Decode/CLKf-*%
X180840000Y-211300000D03*
X180840000Y-213800000D03*
%TO.N,Net-(U2B-~{S})*%
X150495000Y-202234800D03*
X153035000Y-209575400D03*
%TO.N,/MainBoard-CPU_Decode/CLKhSW*%
X163840000Y-216200000D03*
X149225000Y-202805300D03*
X163804600Y-207060800D03*
%TO.N,Net-(U39-Pad10)*%
X204036268Y-156864284D03*
X225628200Y-153686500D03*
X204347967Y-217808967D03*
%TO.N,Net-(U32A-~{S})*%
X163840000Y-205650000D03*
X187417700Y-204571600D03*
X187417700Y-231140000D03*
%TO.N,/MainBoard-CPU_Decode/FRCCLKf*%
X215140000Y-222900000D03*
X186867800Y-219945500D03*
%TO.N,/MainBoard-CPU_Decode/CLKfSW*%
X165040000Y-227726438D03*
X165040000Y-205700000D03*
%TO.N,/MainBoard-CPU_Decode/CTRLCLK-*%
X172040000Y-219300000D03*
X177040000Y-219300000D03*
%TO.N,/MainBoard-CPU_Decode/ZMREQ*%
X186157767Y-224382232D03*
X186840000Y-216200000D03*
X170163500Y-224500000D03*
%TO.N,/ExpIFC-SIOCTC/MRD-*%
X113665000Y-226949000D03*
%TO.N,/ExpIFC-SIOCTC/MWR-*%
X119507000Y-222123000D03*
X119507000Y-219710000D03*
%TO.N,/ExpIFC-SIOCTC/MA0*%
X124714000Y-217170000D03*
%TO.N,/ExpIFC-SIOCTC/MSEL-*%
X125730000Y-220980000D03*
%TO.N,Net-(U46-T1OUT)*%
X232410000Y-117602000D03*
X232410000Y-140208000D03*
%TO.N,Net-(U46-R1IN)*%
X255270000Y-140970000D03*
X255270000Y-115570000D03*
%TO.N,/ExpIFC-SIOCTC/CHA_DTR-*%
X267970000Y-150876000D03*
%TO.N,/ExpIFC-SIOCTC/MODIRQ-*%
X207645000Y-215392000D03*
X262740000Y-192600000D03*
%TO.N,/ExpIFC-SIOCTC/ExIRQ1-*%
X262788400Y-150063200D03*
X262788400Y-116230400D03*
X259105400Y-175539400D03*
%TO.N,bpIEO*%
X171240000Y-125100000D03*
X167640000Y-227726438D03*
%TO.N,/ExpIFC-SIOCTC/ExIRQ2-*%
X261747000Y-150063200D03*
X260400800Y-168300400D03*
X261747000Y-100609400D03*
%TO.N,/ExpIFC-SIOCTC/bpIEI*%
X246288200Y-109677200D03*
X247294400Y-156844600D03*
%TO.N,/ExpIFC-SIOCTC/USR8J*%
X211937600Y-130835400D03*
X212369400Y-168630600D03*
%TD*%
D40*
%TO.N,/ExpIFC-SIOCTC/B0IEO*%
X246783500Y-115366800D02*
X246910500Y-115493800D01*
X192786000Y-115366800D02*
X246783500Y-115366800D01*
%TO.N,/ExpIFC-SIOCTC/LCLIA-*%
X247396000Y-153644600D02*
X246814600Y-153063200D01*
X220206864Y-153063200D02*
X219558164Y-153711900D01*
X219100400Y-119024400D02*
X190144400Y-119024400D01*
X246814600Y-153063200D02*
X220206864Y-153063200D01*
X190144400Y-119024400D02*
X188976000Y-117856000D01*
%TO.N,BA11*%
X190505849Y-110896400D02*
X112115600Y-110896400D01*
X193114989Y-110861800D02*
X193080390Y-110896400D01*
X233034683Y-111253383D02*
X232677700Y-110896400D01*
X192839551Y-110861800D02*
X190540449Y-110861800D01*
X194299613Y-110896400D02*
X194265012Y-110861800D01*
X190540449Y-110861800D02*
X190505849Y-110896400D01*
X232677700Y-110896400D02*
X194299613Y-110896400D01*
X194265012Y-110861800D02*
X193114989Y-110861800D01*
X112115600Y-110896400D02*
X105156000Y-117856000D01*
X193080390Y-110896400D02*
X192874151Y-110896400D01*
X192874151Y-110896400D02*
X192839551Y-110861800D01*
%TO.N,CLKh*%
X171805739Y-213776200D02*
X171485339Y-214096600D01*
X154845000Y-221837000D02*
X151256999Y-221837000D01*
X162585400Y-214096600D02*
X154845000Y-221837000D01*
X173192800Y-213776200D02*
X171805739Y-213776200D01*
X174212000Y-212757000D02*
X173192800Y-213776200D01*
X171485339Y-214096600D02*
X162585400Y-214096600D01*
%TO.N,BA14*%
X107489312Y-107902688D02*
X97536000Y-117856000D01*
X139873238Y-107902688D02*
X107489312Y-107902688D01*
X235407200Y-108534200D02*
X140504750Y-108534200D01*
X140504750Y-108534200D02*
X139873238Y-107902688D01*
%TO.N,BA10*%
X194096262Y-111269200D02*
X193283740Y-111269200D01*
X194409262Y-111582200D02*
X194096262Y-111269200D01*
X192670800Y-111269200D02*
X190709200Y-111269200D01*
X190709200Y-111269200D02*
X190709200Y-111582200D01*
X231571800Y-112471200D02*
X231444800Y-112471200D01*
X192970740Y-111582200D02*
X192670800Y-111582200D01*
X190709200Y-111582200D02*
X113969800Y-111582200D01*
X193283740Y-111269200D02*
X192970740Y-111582200D01*
X113969800Y-111582200D02*
X107696000Y-117856000D01*
X231444800Y-112471200D02*
X230555800Y-111582200D01*
X192670800Y-111582200D02*
X192670800Y-111269200D01*
X230555800Y-111582200D02*
X194409262Y-111582200D01*
%TO.N,BA13*%
X139704488Y-108310088D02*
X133523312Y-108310088D01*
X233832400Y-109194600D02*
X233781600Y-109143800D01*
X132689600Y-109143800D02*
X108788200Y-109143800D01*
X233781600Y-109143800D02*
X140538200Y-109143800D01*
X140538200Y-109143800D02*
X139704488Y-108310088D01*
X133523312Y-108310088D02*
X132689600Y-109143800D01*
X108788200Y-109143800D02*
X100076000Y-117856000D01*
%TO.N,BA12*%
X113684301Y-103067101D02*
X113684301Y-100421301D01*
X221411800Y-104775000D02*
X115392200Y-104775000D01*
X115392200Y-104775000D02*
X113684301Y-103067101D01*
X113684301Y-100421301D02*
X112528501Y-99265501D01*
%TO.N,ZM1-*%
X206240000Y-227100000D02*
X205790000Y-227550000D01*
X139641262Y-228348738D02*
X167991262Y-228348738D01*
X139540000Y-187300000D02*
X125705000Y-187300000D01*
X139640000Y-228350000D02*
X139641262Y-228348738D01*
X287324400Y-155600000D02*
X288289999Y-156565599D01*
X288289999Y-156565599D02*
X288289999Y-158115000D01*
X257540000Y-155600000D02*
X287324400Y-155600000D01*
X168890000Y-227550000D02*
X168840000Y-227500000D01*
X205790000Y-227550000D02*
X168890000Y-227550000D01*
X167991262Y-228348738D02*
X168840000Y-227500000D01*
X231749600Y-227100000D02*
X206240000Y-227100000D01*
X125705000Y-187300000D02*
X124460000Y-186055000D01*
%TO.N,BA15*%
X111937800Y-106019600D02*
X109988501Y-104070301D01*
X236600600Y-106019200D02*
X111938200Y-106019200D01*
X237896400Y-105994200D02*
X236625600Y-105994200D01*
X236625600Y-105994200D02*
X236600600Y-106019200D01*
X109988501Y-104070301D02*
X109988501Y-101805501D01*
X111938200Y-106019200D02*
X111937800Y-106019600D01*
%TO.N,CLKf*%
X149233490Y-230795700D02*
X169835700Y-230795700D01*
X169835700Y-230795700D02*
X170180000Y-231140000D01*
%TO.N,BRDRST-*%
X255768500Y-97323300D02*
X262167200Y-103722000D01*
X213689720Y-97231200D02*
X213781820Y-97323300D01*
X209840000Y-214600000D02*
X266040000Y-214600000D01*
X266040000Y-214600000D02*
X278130000Y-202510000D01*
X213781820Y-97323300D02*
X255768500Y-97323300D01*
X132848501Y-99265501D02*
X134882802Y-97231200D01*
X262167200Y-103722000D02*
X265450000Y-103722000D01*
X134882802Y-97231200D02*
X213689720Y-97231200D01*
%TO.N,ZRFSH-*%
X124460000Y-183515000D02*
X125577600Y-182397400D01*
X168656000Y-126771400D02*
X188950600Y-126771400D01*
X125577600Y-182397400D02*
X175133000Y-182397400D01*
%TO.N,BA02*%
X126085600Y-135509000D02*
X102412800Y-135509000D01*
%TO.N,BA06*%
X99263200Y-129997200D02*
X116586000Y-129997200D01*
X116586000Y-129997200D02*
X116611400Y-129971800D01*
%TO.N,ZNMI-*%
X109843300Y-193051700D02*
X123119463Y-193051700D01*
X129465670Y-191275700D02*
X176482820Y-191275700D01*
X128500570Y-192240800D02*
X129465670Y-191275700D01*
X123930363Y-192240800D02*
X128500570Y-192240800D01*
X179962720Y-187795800D02*
X225487600Y-187795800D01*
X123119463Y-193051700D02*
X123930363Y-192240800D01*
X176482820Y-191275700D02*
X179962720Y-187795800D01*
X225487600Y-187795800D02*
X225882200Y-187401200D01*
%TO.N,BWR-*%
X214579200Y-134366000D02*
X214477600Y-134264400D01*
X214654500Y-134366000D02*
X214579200Y-134366000D01*
X214477600Y-134264400D02*
X149631400Y-134264400D01*
%TO.N,ZWAIT-*%
X152146000Y-124053600D02*
X152984200Y-123215400D01*
X155956000Y-122529600D02*
X155956000Y-120396000D01*
X152984200Y-123215400D02*
X153009600Y-123240800D01*
X155270200Y-123240800D02*
X155270200Y-123215400D01*
X152146000Y-129463800D02*
X152146000Y-124053600D01*
X130556000Y-130022600D02*
X151587200Y-130022600D01*
X151587200Y-130022600D02*
X152146000Y-129463800D01*
X153009600Y-123240800D02*
X155270200Y-123240800D01*
X155270200Y-123215400D02*
X155956000Y-122529600D01*
%TO.N,ZHALT-*%
X104673400Y-129133600D02*
X104685100Y-129121900D01*
X150227300Y-129121900D02*
X150876000Y-128473200D01*
X150876000Y-128473200D02*
X150876000Y-120396000D01*
X104685100Y-129121900D02*
X150227300Y-129121900D01*
%TO.N,ZBSAK-*%
X209778600Y-190347600D02*
X209777600Y-190348600D01*
X177148180Y-192373300D02*
X142518180Y-192373300D01*
X178887770Y-189446900D02*
X177513300Y-190821370D01*
X204023778Y-190348600D02*
X203299878Y-189624700D01*
X210963300Y-190347600D02*
X209778600Y-190347600D01*
X132150537Y-193028300D02*
X132150537Y-196310537D01*
X177513300Y-192008180D02*
X177148180Y-192373300D01*
X187616100Y-189446900D02*
X178887770Y-189446900D01*
X177513300Y-190821370D02*
X177513300Y-192008180D01*
X203043420Y-189624700D02*
X202572520Y-189153800D01*
X153035000Y-124282200D02*
X153009600Y-124307600D01*
X202572520Y-189153800D02*
X187909200Y-189153800D01*
X132150537Y-196310537D02*
X134640000Y-198800000D01*
X209777600Y-190348600D02*
X204023778Y-190348600D01*
X141863180Y-193028300D02*
X132150537Y-193028300D01*
X187909200Y-189153800D02*
X187616100Y-189446900D01*
X211277200Y-124282200D02*
X153035000Y-124282200D01*
X142518180Y-192373300D02*
X141863180Y-193028300D01*
X203299878Y-189624700D02*
X203043420Y-189624700D01*
%TO.N,BMREQ-*%
X183176280Y-136157700D02*
X182363480Y-136970500D01*
X212025500Y-136157700D02*
X183176280Y-136157700D01*
X147816300Y-136970500D02*
X147091400Y-136245600D01*
X213131400Y-135051800D02*
X212025500Y-136157700D01*
X182363480Y-136970500D02*
X147816300Y-136970500D01*
%TO.N,ZINT-*%
X215138000Y-130022600D02*
X215138000Y-128651000D01*
X157593400Y-221552400D02*
X156328000Y-222817800D01*
X295859200Y-130556000D02*
X215671400Y-130556000D01*
X133883400Y-124180600D02*
X143645949Y-124180600D01*
X138743800Y-222817800D02*
X138506200Y-222580200D01*
X137146400Y-190029200D02*
X115652280Y-190029200D01*
X215671400Y-130556000D02*
X215138000Y-130022600D01*
X114546480Y-191135000D02*
X109220000Y-191135000D01*
X156328000Y-222817800D02*
X138743800Y-222817800D01*
X137198100Y-190080900D02*
X137146400Y-190029200D01*
X137769600Y-190080900D02*
X137198100Y-190080900D01*
X115652280Y-190029200D02*
X114546480Y-191135000D01*
X143645949Y-124180600D02*
X147180200Y-120646349D01*
X147180200Y-119011800D02*
X148336000Y-117856000D01*
X168594400Y-221552400D02*
X157593400Y-221552400D01*
X147180200Y-120646349D02*
X147180200Y-119011800D01*
X169612300Y-222570300D02*
X168594400Y-221552400D01*
%TO.N,ZCLK*%
X169590000Y-219400000D02*
X170690000Y-218300000D01*
X170690000Y-218300000D02*
X172669000Y-218300000D01*
X116140000Y-212700000D02*
X142908837Y-212700000D01*
X144640200Y-120646349D02*
X144640200Y-119011800D01*
X105511600Y-123469400D02*
X105537000Y-123444000D01*
X142908837Y-212700000D02*
X147256999Y-217048162D01*
X105537000Y-123444000D02*
X141842549Y-123444000D01*
X144640200Y-119011800D02*
X145796000Y-117856000D01*
X160617700Y-219400000D02*
X169590000Y-219400000D01*
X147256999Y-217048162D02*
X147256999Y-219836999D01*
X172669000Y-218300000D02*
X174212000Y-216757000D01*
X141842549Y-123444000D02*
X144640200Y-120646349D01*
%TO.N,BRD-*%
X157684038Y-130593200D02*
X153251800Y-130593200D01*
X158637438Y-131546600D02*
X157684038Y-130593200D01*
X153251800Y-130593200D02*
X152146000Y-131699000D01*
X216204800Y-131546600D02*
X158637438Y-131546600D01*
%TO.N,BIORQ-*%
X157226000Y-125806200D02*
X157251400Y-125831600D01*
X157251400Y-125831600D02*
X215442800Y-125831600D01*
%TO.N,/ExpIFC-SIOCTC/IOCLK*%
X274555800Y-200424200D02*
X273050000Y-201930000D01*
X276048037Y-200424200D02*
X274555800Y-200424200D01*
X276695800Y-202788037D02*
X276695800Y-201071963D01*
X271783837Y-207700000D02*
X276695800Y-202788037D01*
X276695800Y-201071963D02*
X276048037Y-200424200D01*
X172240000Y-207700000D02*
X271783837Y-207700000D01*
%TO.N,BA00*%
X131749800Y-137109200D02*
X131902200Y-136956800D01*
X103759000Y-137109200D02*
X131749800Y-137109200D01*
%TO.N,ZRD-*%
X224140000Y-213250000D02*
X200292700Y-213250000D01*
X206819400Y-242257600D02*
X201739400Y-242257600D01*
X208026000Y-241051000D02*
X206819400Y-242257600D01*
X293370000Y-186690000D02*
X280660000Y-199400000D01*
X200292700Y-213250000D02*
X200265000Y-213222300D01*
X201739400Y-242257600D02*
X201264400Y-241782600D01*
X224190000Y-213200000D02*
X224140000Y-213250000D01*
X280660000Y-199400000D02*
X224240000Y-199400000D01*
X201264400Y-241782600D02*
X131521200Y-241782600D01*
%TO.N,ZD6*%
X213685990Y-179074210D02*
X213668080Y-179056300D01*
X219151200Y-179019200D02*
X219096190Y-179074210D01*
X176924700Y-179056300D02*
X175006000Y-180975000D01*
X219096190Y-179074210D02*
X213685990Y-179074210D01*
X213668080Y-179056300D02*
X176924700Y-179056300D01*
X175006000Y-180975000D02*
X166370000Y-180975000D01*
%TO.N,ZWR-*%
X124269500Y-222338900D02*
X124218700Y-222389700D01*
X124218700Y-222389700D02*
X124091700Y-222262700D01*
X201075000Y-234100000D02*
X205486000Y-238511000D01*
X124091700Y-222262700D02*
X124091700Y-220971100D01*
X145878399Y-220458400D02*
X133740921Y-220458400D01*
X152135280Y-220856200D02*
X146276199Y-220856200D01*
X154919115Y-220022300D02*
X152969180Y-220022300D01*
X146276199Y-220856200D02*
X145878399Y-220458400D01*
X203022200Y-177165000D02*
X181717700Y-177165000D01*
X152969180Y-220022300D02*
X152135280Y-220856200D01*
X162864800Y-234100000D02*
X201075000Y-234100000D01*
X133740921Y-220458400D02*
X133063400Y-221135921D01*
X127529879Y-221135921D02*
X126326900Y-222338900D01*
X126326900Y-222338900D02*
X124269500Y-222338900D01*
X133063400Y-221135921D02*
X127529879Y-221135921D01*
%TO.N,ZD2*%
X168145099Y-244103799D02*
X212593201Y-244103799D01*
X167894000Y-243852700D02*
X168145099Y-244103799D01*
X212593201Y-244103799D02*
X215646000Y-241051000D01*
%TO.N,ZA0*%
X245732300Y-156222300D02*
X285892979Y-156222300D01*
X202885001Y-247200000D02*
X129840000Y-247200000D01*
X205345001Y-249660000D02*
X202885001Y-247200000D01*
X286994600Y-157323921D02*
X286994600Y-172059600D01*
X286994600Y-172059600D02*
X288290000Y-173355000D01*
X285892979Y-156222300D02*
X286994600Y-157323921D01*
%TO.N,ZD7*%
X215138000Y-206044800D02*
X201879200Y-206044800D01*
X201714100Y-178435000D02*
X166370000Y-178435000D01*
X201739500Y-178409600D02*
X201714100Y-178435000D01*
%TO.N,BA05*%
X100457000Y-133451600D02*
X118694200Y-133451600D01*
X118694200Y-133451600D02*
X118846600Y-133299200D01*
%TO.N,ZD5*%
X192446938Y-181229000D02*
X193192538Y-180483400D01*
X166395400Y-183540400D02*
X175437800Y-183540400D01*
X175437800Y-183540400D02*
X177749200Y-181229000D01*
X210131820Y-180483400D02*
X213239620Y-183591200D01*
X177749200Y-181229000D02*
X192446938Y-181229000D01*
X213239620Y-183591200D02*
X220751400Y-183591200D01*
X193192538Y-180483400D02*
X210131820Y-180483400D01*
%TO.N,ZD0*%
X187375800Y-196850000D02*
X187401200Y-196875400D01*
X162814000Y-196850000D02*
X187375800Y-196850000D01*
%TO.N,ZD1*%
X212965000Y-245426200D02*
X212965000Y-249660000D01*
X130171080Y-246649600D02*
X131200800Y-246649600D01*
X133264000Y-244586400D02*
X212125200Y-244586400D01*
X129581820Y-246576700D02*
X130098180Y-246576700D01*
X130098180Y-246576700D02*
X130171080Y-246649600D01*
X115735200Y-250761400D02*
X125397120Y-250761400D01*
X115519200Y-250698000D02*
X115671800Y-250698000D01*
X115671800Y-250698000D02*
X115735200Y-250761400D01*
X212125200Y-244586400D02*
X212965000Y-245426200D01*
X131200800Y-246649600D02*
X133264000Y-244586400D01*
X125397120Y-250761400D02*
X129581820Y-246576700D01*
%TO.N,ZD3*%
X219633800Y-187248800D02*
X220014800Y-186867800D01*
X169626180Y-145841820D02*
X135579660Y-145841820D01*
X126970275Y-144802205D02*
X124669380Y-147103100D01*
X166370000Y-188595000D02*
X167716200Y-187248800D01*
X167716200Y-187248800D02*
X219633800Y-187248800D01*
X170942000Y-144526000D02*
X169626180Y-145841820D01*
X135579660Y-145841820D02*
X134540045Y-144802205D01*
X124669380Y-147103100D02*
X112789700Y-147103100D01*
X112789700Y-147103100D02*
X111607600Y-148285200D01*
X134540045Y-144802205D02*
X126970275Y-144802205D01*
%TO.N,ZD4*%
X199891480Y-186244500D02*
X199640180Y-186495800D01*
X188583780Y-186495800D02*
X187684780Y-185596800D01*
X199640180Y-186495800D02*
X188583780Y-186495800D01*
X187684780Y-185596800D02*
X187168420Y-185596800D01*
X220700600Y-186283600D02*
X220661500Y-186244500D01*
X220661500Y-186244500D02*
X199891480Y-186244500D01*
X187168420Y-185596800D02*
X186659420Y-186105800D01*
X186659420Y-186105800D02*
X166420800Y-186105800D01*
%TO.N,BA08*%
X116255800Y-114376200D02*
X112776000Y-117856000D01*
X226415600Y-114350800D02*
X226390200Y-114376200D01*
X226390200Y-114376200D02*
X116255800Y-114376200D01*
%TO.N,BA03*%
X123418600Y-134772400D02*
X123444000Y-134747000D01*
X101777800Y-134772400D02*
X123418600Y-134772400D01*
%TO.N,BA07*%
X114096800Y-124561600D02*
X114147600Y-124612400D01*
X94640400Y-124561600D02*
X114096800Y-124561600D01*
X94615000Y-124587000D02*
X94640400Y-124561600D01*
%TO.N,USBSDSEL-*%
X175564800Y-223400000D02*
X130690000Y-223400000D01*
X130690000Y-223400000D02*
X129540000Y-222250000D01*
%TO.N,/MainBoard-CPU_Decode/MHA22*%
X165228980Y-207076700D02*
X164457480Y-207848200D01*
X141094983Y-207848200D02*
X136268983Y-203022200D01*
X136268983Y-203022200D02*
X120446800Y-203022200D01*
X164457480Y-207848200D02*
X141094983Y-207848200D01*
X189865000Y-206375000D02*
X189163300Y-207076700D01*
X189163300Y-207076700D02*
X165228980Y-207076700D01*
%TO.N,/MainBoard-CPU_Decode/MHA23*%
X171551600Y-142798800D02*
X149319080Y-142798800D01*
X136780724Y-141986000D02*
X131800600Y-141986000D01*
X149319080Y-142798800D02*
X148213180Y-143904700D01*
X138699424Y-143904700D02*
X136780724Y-141986000D01*
X148213180Y-143904700D02*
X138699424Y-143904700D01*
X131800600Y-141986000D02*
X130810000Y-140995400D01*
%TO.N,BA04*%
X101168200Y-134137400D02*
X120980200Y-134137400D01*
X120980200Y-134137400D02*
X121081800Y-134035800D01*
%TO.N,ZMREQ-*%
X225157300Y-215924400D02*
X216356476Y-215924400D01*
X215923676Y-216357200D02*
X205790800Y-216357200D01*
X129617520Y-191700000D02*
X126208320Y-195109200D01*
X225247200Y-216014300D02*
X225157300Y-215924400D01*
X176890000Y-191750000D02*
X176840000Y-191700000D01*
X176840000Y-191700000D02*
X129617520Y-191700000D01*
X126208320Y-195109200D02*
X120530800Y-195109200D01*
X120530800Y-195109200D02*
X116885000Y-198755000D01*
X216356476Y-215924400D02*
X215923676Y-216357200D01*
X116885000Y-198755000D02*
X109220000Y-198755000D01*
%TO.N,ZIORQ-*%
X281240000Y-190050000D02*
X283210000Y-188080000D01*
X197993000Y-172745400D02*
X198018400Y-172720000D01*
X183032400Y-138226800D02*
X132691324Y-138226800D01*
X131548324Y-139369800D02*
X130225800Y-139369800D01*
X149225000Y-199085200D02*
X149225000Y-193929000D01*
X164368050Y-203822300D02*
X160876550Y-200330800D01*
X110363000Y-200152000D02*
X109220000Y-201295000D01*
X149225000Y-199085200D02*
X144068800Y-199085200D01*
X253890000Y-190050000D02*
X281240000Y-190050000D01*
X143002000Y-200152000D02*
X110363000Y-200152000D01*
X198018400Y-172720000D02*
X253619000Y-172720000D01*
X176316700Y-203822300D02*
X164368050Y-203822300D01*
X253695200Y-190119000D02*
X253821000Y-190119000D01*
X150470600Y-200330800D02*
X149225000Y-199085200D01*
X132691324Y-138226800D02*
X131548324Y-139369800D01*
X144068800Y-199085200D02*
X143002000Y-200152000D01*
X283210000Y-188080000D02*
X283210000Y-186690000D01*
X253821000Y-190119000D02*
X253890000Y-190050000D01*
X160876550Y-200330800D02*
X150470600Y-200330800D01*
%TO.N,/MainBoard-CPU_Decode/PGINGEN*%
X144206600Y-193305700D02*
X165645700Y-193305700D01*
X165645700Y-193305700D02*
X166340000Y-194000000D01*
X138440000Y-199072300D02*
X144206600Y-193305700D01*
%TO.N,/MainBoard-CPU_Decode/PGENWR-*%
X163830000Y-199085200D02*
X164947600Y-197967600D01*
X164947600Y-197967600D02*
X181692300Y-197967600D01*
X181692300Y-197967600D02*
X181717700Y-197993000D01*
%TO.N,/MainBoard-CPU_Decode/BAtoZAH-*%
X246849900Y-205384400D02*
X192278000Y-205384400D01*
X248539000Y-203695300D02*
X246849900Y-205384400D01*
%TO.N,/MainBoard-CPU_Decode/PRA3*%
X199106420Y-146709400D02*
X199003820Y-146812000D01*
X240461800Y-146812000D02*
X199725380Y-146812000D01*
X144992400Y-146812000D02*
X144840000Y-146659600D01*
X240487200Y-146837400D02*
X240461800Y-146812000D01*
X199003820Y-146812000D02*
X144992400Y-146812000D01*
X199622780Y-146709400D02*
X199106420Y-146709400D01*
X199725380Y-146812000D02*
X199622780Y-146709400D01*
%TO.N,ZRST-*%
X137299200Y-154140800D02*
X174179600Y-154140800D01*
X197946780Y-151562400D02*
X198429980Y-151079200D01*
X207719200Y-151079200D02*
X210340000Y-153700000D01*
X174179600Y-154140800D02*
X176733200Y-151587200D01*
X176733200Y-151587200D02*
X186609676Y-151587200D01*
X137140000Y-154300000D02*
X137299200Y-154140800D01*
X186634476Y-151562400D02*
X197946780Y-151562400D01*
X198429980Y-151079200D02*
X207719200Y-151079200D01*
X186609676Y-151587200D02*
X186634476Y-151562400D01*
%TO.N,/MainBoard-CPU_Decode/BAtoZA-*%
X106273600Y-149606000D02*
X113263780Y-149606000D01*
X140556080Y-151739600D02*
X157530800Y-151739600D01*
X113263780Y-149606000D02*
X113480580Y-149389200D01*
X138205680Y-149389200D02*
X140556080Y-151739600D01*
X113480580Y-149389200D02*
X138205680Y-149389200D01*
%TO.N,/ExpIFC-SIOCTC/CTCIEO*%
X252907800Y-188290200D02*
X253060200Y-188290200D01*
X253070000Y-188300000D02*
X279060000Y-188300000D01*
X253060200Y-188290200D02*
X253070000Y-188300000D01*
X279060000Y-188300000D02*
X280670000Y-186690000D01*
%TO.N,/ExpIFC-SIOCTC/SIOIEO*%
X199151570Y-146088100D02*
X198884870Y-146354800D01*
X290525200Y-146050000D02*
X290487100Y-146088100D01*
X198884870Y-146354800D02*
X193408300Y-146354800D01*
X193408300Y-146354800D02*
X193141600Y-146088100D01*
X215849200Y-146088100D02*
X199151570Y-146088100D01*
X290487100Y-146088100D02*
X215849200Y-146088100D01*
X290830000Y-146354800D02*
X290525200Y-146050000D01*
X290830000Y-158115000D02*
X290830000Y-146354800D01*
%TO.N,/MainBoard-CPU_Decode/ZMNIO-*%
X194183000Y-214045800D02*
X192811400Y-212674200D01*
X207266764Y-196838300D02*
X194806300Y-196838300D01*
X194806300Y-196838300D02*
X194208400Y-196240400D01*
X208512364Y-195592700D02*
X207266764Y-196838300D01*
X192811400Y-212674200D02*
X175516261Y-212674200D01*
X174618261Y-211776200D02*
X161494680Y-211776200D01*
X175516261Y-212674200D02*
X174618261Y-211776200D01*
X159987080Y-213283800D02*
X156768800Y-213283800D01*
X161494680Y-211776200D02*
X159987080Y-213283800D01*
%TO.N,/MainBoard-CPU_Decode/PGRGRD-*%
X169808800Y-215099900D02*
X165662300Y-215099900D01*
X170738800Y-158115000D02*
X213377365Y-158115000D01*
X213377365Y-158115000D02*
X213409901Y-158082464D01*
X169824400Y-215115500D02*
X169808800Y-215099900D01*
%TO.N,/MainBoard-CPU_Decode/ZMASTER*%
X160172400Y-165404800D02*
X160948000Y-164629200D01*
X160948000Y-164629200D02*
X185159920Y-164629200D01*
X187815649Y-164617400D02*
X194183000Y-164617400D01*
X185669820Y-165139100D02*
X187293949Y-165139100D01*
X185159920Y-164629200D02*
X185669820Y-165139100D01*
X187293949Y-165139100D02*
X187815649Y-164617400D01*
%TO.N,/MainBoard-CPU_Decode/BUSMEM-*%
X230949500Y-154956500D02*
X227130600Y-158775400D01*
X190284100Y-175247300D02*
X190271400Y-175260000D01*
X227130600Y-158775400D02*
X218668600Y-158775400D01*
X218160600Y-175247300D02*
X190284100Y-175247300D01*
%TO.N,/MainBoard-CPU_Decode/ZMASTER-*%
X152932020Y-199923400D02*
X171894880Y-199923400D01*
X175653700Y-200240900D02*
X175971200Y-199923400D01*
X151721400Y-198457400D02*
X151721400Y-198712780D01*
X151721400Y-198712780D02*
X152932020Y-199923400D01*
X171894880Y-199923400D02*
X172212380Y-200240900D01*
X172212380Y-200240900D02*
X175653700Y-200240900D01*
%TO.N,Net-(U12-~{E0})*%
X143340000Y-192800000D02*
X142240000Y-193900000D01*
X177562300Y-193027300D02*
X177335000Y-192800000D01*
X177335000Y-192800000D02*
X143340000Y-192800000D01*
%TO.N,Net-(U29-Pad9)*%
X192989200Y-159435800D02*
X192938400Y-159385000D01*
X198263464Y-159435800D02*
X192989200Y-159435800D01*
X198767700Y-158931564D02*
X198263464Y-159435800D01*
%TO.N,Net-(U29-Pad5)*%
X193548000Y-157480000D02*
X194805300Y-157480000D01*
%TO.N,/MainBoard-CPU_Decode/LCLIO*%
X134518400Y-140995400D02*
X135101600Y-141578600D01*
X192430400Y-192976500D02*
X192011300Y-192557400D01*
X157589600Y-194623300D02*
X153051500Y-199161400D01*
X192011300Y-192557400D02*
X186005312Y-192557400D01*
X135101600Y-141578600D02*
X183692800Y-141578600D01*
X183939412Y-194623300D02*
X157589600Y-194623300D01*
X186005312Y-192557400D02*
X183939412Y-194623300D01*
%TO.N,/MainBoard-CPU_Decode/NMIEN*%
X214691700Y-218451700D02*
X215240000Y-219000000D01*
X181920850Y-218497750D02*
X181920850Y-218496850D01*
X181920850Y-218496850D02*
X181966000Y-218451700D01*
X181717700Y-218700900D02*
X181920850Y-218497750D01*
X181966000Y-218451700D02*
X214691700Y-218451700D01*
%TO.N,/MainBoard-CPU_Decode/PGRGSEL-*%
X186420720Y-215737800D02*
X186995120Y-215163400D01*
X196243221Y-193690583D02*
X192316038Y-189763400D01*
X188223162Y-189763400D02*
X184335962Y-193650600D01*
X166370000Y-215722200D02*
X166700200Y-215722200D01*
X192303400Y-207077700D02*
X219388300Y-207077700D01*
X192316038Y-189763400D02*
X188223162Y-189763400D01*
X219430600Y-193801000D02*
X219320183Y-193690583D01*
X219388300Y-207077700D02*
X219430600Y-207035400D01*
X219320183Y-193690583D02*
X196243221Y-193690583D01*
X184335962Y-193650600D02*
X168452500Y-193650600D01*
X186995120Y-215163400D02*
X192278000Y-215163400D01*
X166700200Y-215722200D02*
X166715800Y-215737800D01*
X168452500Y-193650600D02*
X168224200Y-193422300D01*
X166715800Y-215737800D02*
X186420720Y-215737800D01*
%TO.N,BA09*%
X228955600Y-113538000D02*
X114554000Y-113538000D01*
X114554000Y-113538000D02*
X110236000Y-117856000D01*
%TO.N,/MainBoard-CPU_Decode/LCLMEM-*%
X165264200Y-177000800D02*
X146520800Y-177000800D01*
X204698600Y-165531800D02*
X187477400Y-165531800D01*
X166370000Y-175895000D02*
X165264200Y-177000800D01*
X146520800Y-177000800D02*
X145415000Y-175895000D01*
X187045600Y-165963600D02*
X187477400Y-165531800D01*
X187045600Y-165963600D02*
X187045600Y-169977500D01*
%TO.N,/MainBoard-CPU_Decode/LOW1MEG*%
X134493000Y-139687300D02*
X134734300Y-139446000D01*
X134734300Y-139446000D02*
X187655200Y-139446000D01*
X177571400Y-173151800D02*
X182962300Y-173151800D01*
%TO.N,/MainBoard-CPU_Decode/MHA20*%
X205905100Y-142214600D02*
X148615400Y-142214600D01*
%TO.N,BA01*%
X103098600Y-136321800D02*
X129108200Y-136321800D01*
X129108200Y-136321800D02*
X129209800Y-136220200D01*
%TO.N,ZA5*%
X152273000Y-166878000D02*
X151130000Y-165735000D01*
X169748200Y-166878000D02*
X152273000Y-166878000D01*
%TO.N,CTC_SEL-*%
X273050000Y-204470000D02*
X259715000Y-204470000D01*
X189063162Y-203073000D02*
X188468000Y-203073000D01*
X259715000Y-204470000D02*
X258318000Y-203073000D01*
X189406962Y-202729200D02*
X189063162Y-203073000D01*
X275590000Y-201930000D02*
X273050000Y-204470000D01*
X188468000Y-203073000D02*
X186690000Y-201295000D01*
X258318000Y-203073000D02*
X190666838Y-203073000D01*
X190323038Y-202729200D02*
X189406962Y-202729200D01*
X190666838Y-203073000D02*
X190323038Y-202729200D01*
%TO.N,/MainBoard-CPU_Decode/BDCTRL-*%
X188722000Y-173380400D02*
X198704200Y-173380400D01*
%TO.N,SIO_SEL-*%
X284433837Y-195050000D02*
X260240000Y-195050000D01*
X189406962Y-197320799D02*
X189400581Y-197314419D01*
X291935800Y-187548037D02*
X284433837Y-195050000D01*
X293370000Y-173355000D02*
X291935800Y-174789200D01*
X190323038Y-197320799D02*
X189406962Y-197320799D01*
X191198439Y-198196200D02*
X190323038Y-197320799D01*
X189400581Y-197314419D02*
X186690000Y-200025000D01*
X257093800Y-198196200D02*
X191198439Y-198196200D01*
X260240000Y-195050000D02*
X257093800Y-198196200D01*
X291935800Y-174789200D02*
X291935800Y-187548037D01*
%TO.N,ZA4*%
X176657000Y-169964100D02*
X176579800Y-170041300D01*
X176579800Y-170041300D02*
X172098700Y-170041300D01*
X171438200Y-169380800D02*
X152235800Y-169380800D01*
X172098700Y-170041300D02*
X171438200Y-169380800D01*
X152235800Y-169380800D02*
X151130000Y-168275000D01*
%TO.N,ZA10*%
X170078400Y-170586400D02*
X167309800Y-173355000D01*
%TO.N,ZA11*%
X117945800Y-161760800D02*
X138900800Y-161760800D01*
X138900800Y-161760800D02*
X145415000Y-168275000D01*
X109220000Y-153035000D02*
X117945800Y-161760800D01*
%TO.N,ZA13*%
X148577300Y-148716100D02*
X148514700Y-148716100D01*
X148577300Y-148704300D02*
X148615400Y-148666200D01*
X148271500Y-148959300D02*
X113029000Y-148959300D01*
X234973517Y-193067283D02*
X235610400Y-192430400D01*
X201077217Y-193067283D02*
X234973517Y-193067283D01*
X148577300Y-148716100D02*
X148577300Y-148704300D01*
X148615400Y-148666200D02*
X201091800Y-148666200D01*
X113029000Y-148959300D02*
X113017300Y-148971000D01*
X148514700Y-148716100D02*
X148271500Y-148959300D01*
X201091800Y-148666200D02*
X201117200Y-148640800D01*
%TO.N,ZA15*%
X197224401Y-185191400D02*
X195548000Y-183514999D01*
X199364600Y-147332700D02*
X199351900Y-147320000D01*
X146164301Y-147320000D02*
X146050000Y-147434301D01*
X215188800Y-185191400D02*
X197224401Y-185191400D01*
X199351900Y-147320000D02*
X146164301Y-147320000D01*
X116102400Y-147549600D02*
X115925600Y-147726400D01*
X146050000Y-147434301D02*
X145934701Y-147549600D01*
X145934701Y-147549600D02*
X116102400Y-147549600D01*
%TO.N,ZA14*%
X239711500Y-194425300D02*
X240030000Y-194106800D01*
X200304400Y-194894200D02*
X200773300Y-194425300D01*
X200773300Y-194425300D02*
X239711500Y-194425300D01*
X114326400Y-148349700D02*
X114312700Y-148336000D01*
X200279000Y-147929600D02*
X200279000Y-148043900D01*
X240030000Y-194106800D02*
X240030000Y-189852300D01*
X200266300Y-148056600D02*
X147320000Y-148056600D01*
X147026900Y-148349700D02*
X114326400Y-148349700D01*
X147320000Y-148056600D02*
X147026900Y-148349700D01*
X200279000Y-148043900D02*
X200266300Y-148056600D01*
%TO.N,ZA1*%
X190323038Y-200189200D02*
X190782138Y-200648300D01*
X190782138Y-200648300D02*
X223873180Y-200648300D01*
X223873180Y-200648300D02*
X224504680Y-200016800D01*
X224504680Y-200016800D02*
X281296800Y-200016800D01*
X189406962Y-200189200D02*
X190323038Y-200189200D01*
X171969700Y-200648300D02*
X188947862Y-200648300D01*
X281296800Y-200016800D02*
X283210000Y-201930000D01*
X171856400Y-200761600D02*
X171969700Y-200648300D01*
X188947862Y-200648300D02*
X189406962Y-200189200D01*
%TO.N,ZA12*%
X152857200Y-156387800D02*
X151130000Y-158115000D01*
X198678800Y-156159200D02*
X198004700Y-156833300D01*
X165218963Y-156387800D02*
X152857200Y-156387800D01*
X198004700Y-156833300D02*
X165664463Y-156833300D01*
X165664463Y-156833300D02*
X165218963Y-156387800D01*
%TO.N,/MainBoard-CPU_Decode/ZAtHoBA-*%
X213409900Y-182880000D02*
X210226000Y-179696100D01*
X210226000Y-179696100D02*
X194360800Y-179696100D01*
%TO.N,Net-(U14-Pad8)*%
X184759600Y-173405800D02*
X183870600Y-172516800D01*
X202260200Y-176250600D02*
X202057000Y-176453800D01*
X202057000Y-176453800D02*
X184759600Y-176453800D01*
X184759600Y-176453800D02*
X184759600Y-173405800D01*
%TO.N,/MainBoard-CPU_Decode/MHA15*%
X181204600Y-197560200D02*
X181395100Y-197369700D01*
X212916401Y-190335801D02*
X212902800Y-190322200D01*
X181395100Y-197369700D02*
X186676300Y-197369700D01*
X143306800Y-153035000D02*
X143281400Y-153009600D01*
X155601400Y-197560200D02*
X181204600Y-197560200D01*
X145415000Y-153035000D02*
X143306800Y-153035000D01*
X154889200Y-198272400D02*
X155601400Y-197560200D01*
X186676300Y-197369700D02*
X187375800Y-198069200D01*
X228473000Y-189890400D02*
X228027599Y-190335801D01*
X228027599Y-190335801D02*
X212916401Y-190335801D01*
%TO.N,/MainBoard-CPU_Decode/MHA19*%
X150506700Y-140956300D02*
X149860000Y-140309600D01*
X206386700Y-140956300D02*
X150506700Y-140956300D01*
X149809200Y-140309600D02*
X149860000Y-140258800D01*
X206476600Y-189001400D02*
X206502000Y-188976000D01*
X203301600Y-189001400D02*
X206476600Y-189001400D01*
X206400400Y-140970000D02*
X206386700Y-140956300D01*
X149860000Y-140309600D02*
X149860000Y-140258800D01*
X116230400Y-140309600D02*
X149809200Y-140309600D01*
%TO.N,/MainBoard-CPU_Decode/MHA13*%
X199524520Y-194995800D02*
X200046220Y-195517500D01*
X187858400Y-194995800D02*
X199524520Y-194995800D01*
X202500500Y-195517500D02*
X202869800Y-195148200D01*
X200046220Y-195517500D02*
X202500500Y-195517500D01*
%TO.N,/MainBoard-CPU_Decode/MHA16*%
X204647800Y-163550600D02*
X189395100Y-163550600D01*
X189395100Y-163550600D02*
X189128400Y-163817300D01*
X155498800Y-153035000D02*
X151130000Y-153035000D01*
%TO.N,/MainBoard-CPU_Decode/PGRGWR-*%
X209677000Y-133629400D02*
X138303000Y-133629400D01*
X161671000Y-210235800D02*
X211208700Y-210235800D01*
X161213800Y-210693000D02*
X161671000Y-210235800D01*
X161213800Y-211175600D02*
X161213800Y-210693000D01*
%TO.N,/MainBoard-CPU_Decode/MHA17*%
X145415000Y-155575000D02*
X137406480Y-155575000D01*
X143052800Y-135534400D02*
X142951200Y-135636000D01*
X133469480Y-151638000D02*
X113639600Y-151638000D01*
X207772000Y-135534400D02*
X143052800Y-135534400D01*
X137406480Y-155575000D02*
X133469480Y-151638000D01*
%TO.N,/MainBoard-CPU_Decode/MHA14*%
X135088900Y-154951700D02*
X130798300Y-154951700D01*
X139358000Y-159220800D02*
X135088900Y-154951700D01*
X211683600Y-161455100D02*
X211581900Y-161353400D01*
X169697400Y-158115000D02*
X166370000Y-158115000D01*
X151988037Y-159220800D02*
X139358000Y-159220800D01*
X153212800Y-158115000D02*
X153093837Y-158115000D01*
X211581900Y-161353400D02*
X172935800Y-161353400D01*
X153093837Y-158115000D02*
X151988037Y-159220800D01*
X172935800Y-161353400D02*
X169697400Y-158115000D01*
X212520800Y-195554600D02*
X212013800Y-195047600D01*
X228193600Y-195554600D02*
X212520800Y-195554600D01*
X166370000Y-158115000D02*
X153212800Y-158115000D01*
%TO.N,/MainBoard-CPU_Decode/MHA18*%
X164334321Y-150495000D02*
X151130000Y-150495000D01*
X165528121Y-149301200D02*
X164334321Y-150495000D01*
X207124300Y-149301200D02*
X165528121Y-149301200D01*
%TO.N,/MainBoard-CPU_Decode/SRAMRD-*%
X149060800Y-174460800D02*
X145415000Y-170815000D01*
X167343237Y-174345600D02*
X167228037Y-174460800D01*
X181457600Y-174345600D02*
X167343237Y-174345600D01*
X183083200Y-175971200D02*
X181457600Y-174345600D01*
X167228037Y-174460800D02*
X149060800Y-174460800D01*
X183083200Y-176428400D02*
X183083200Y-175971200D01*
%TO.N,/MainBoard-CPU_Decode/SRAMWR-*%
X143777600Y-161760800D02*
X142646400Y-160629600D01*
X185928000Y-164515800D02*
X183173000Y-161760800D01*
X183173000Y-161760800D02*
X143777600Y-161760800D01*
%TO.N,/MainBoard-CPU_Decode/FLASHRD-*%
X164859600Y-184949200D02*
X164439600Y-185369200D01*
X177049700Y-185103500D02*
X167382337Y-185103500D01*
X178333400Y-183819800D02*
X177049700Y-185103500D01*
X167382337Y-185103500D02*
X167228037Y-184949200D01*
X167228037Y-184949200D02*
X164859600Y-184949200D01*
%TO.N,/MainBoard-CPU_Decode/BDCTLWR-*%
X212990000Y-230450000D02*
X214190000Y-229250000D01*
X183895000Y-230450000D02*
X212990000Y-230450000D01*
X214190000Y-229250000D02*
X214240000Y-229250000D01*
X183840000Y-230505000D02*
X183895000Y-230450000D01*
%TO.N,/ExpIFC-SIOCTC/CHB_CLK*%
X275590000Y-173355000D02*
X288289999Y-186054999D01*
%TO.N,/ExpIFC-SIOCTC/CHA_CLK*%
X281775800Y-177635800D02*
X281775800Y-164300800D01*
X290830000Y-186690000D02*
X281775800Y-177635800D01*
X281775800Y-164300800D02*
X275590000Y-158115000D01*
%TO.N,/MainBoard-CPU_Decode/CLKhSW*%
X163804600Y-206527400D02*
X163169600Y-205892400D01*
X149289500Y-202869800D02*
X149225000Y-202805300D01*
X162839400Y-202869800D02*
X149289500Y-202869800D01*
X163804600Y-207060800D02*
X163804600Y-206527400D01*
X163169600Y-205892400D02*
X163169600Y-203200000D01*
X163169600Y-203200000D02*
X162839400Y-202869800D01*
%TO.N,Net-(U39-Pad10)*%
X223714300Y-155600400D02*
X225628200Y-153686500D01*
X204036268Y-156864284D02*
X205300152Y-155600400D01*
X205300152Y-155600400D02*
X223714300Y-155600400D01*
%TO.N,Net-(U32A-~{S})*%
X165096200Y-204393800D02*
X163840000Y-205650000D01*
X187417700Y-204571600D02*
X176184520Y-204571600D01*
X176184520Y-204571600D02*
X176006720Y-204393800D01*
X176006720Y-204393800D02*
X165096200Y-204393800D01*
%TO.N,/MainBoard-CPU_Decode/FRCCLKf*%
X212185500Y-219945500D02*
X215140000Y-222900000D01*
X186867800Y-219945500D02*
X212185500Y-219945500D01*
%TO.N,/MainBoard-CPU_Decode/CTRLCLK-*%
X177040000Y-219300000D02*
X172040000Y-219300000D01*
%TO.N,/MainBoard-CPU_Decode/ZMREQ*%
X170163500Y-224500000D02*
X186039999Y-224500000D01*
X186039999Y-224500000D02*
X186157767Y-224382232D01*
%TO.N,/ExpIFC-SIOCTC/ExIRQ1-*%
X262788400Y-116230400D02*
X262763000Y-116205000D01*
X262763000Y-116205000D02*
X188087000Y-116205000D01*
X188087000Y-116205000D02*
X186436000Y-117856000D01*
%TO.N,/ExpIFC-SIOCTC/bpIEI*%
X233588569Y-107980800D02*
X192670800Y-107980800D01*
X233720969Y-107848400D02*
X233588569Y-107980800D01*
X246288200Y-109677200D02*
X244459400Y-107848400D01*
X244459400Y-107848400D02*
X233720969Y-107848400D01*
X192670800Y-107980800D02*
X191690000Y-107000000D01*
%TD*%
%TA.AperFunction,Conductor*%
%TO.N,+3.3V*%
G36*
X101035039Y-204489685D02*
G01*
X101080794Y-204542489D01*
X101092000Y-204594000D01*
X101092000Y-219710000D01*
X99010219Y-219710000D01*
X98980246Y-219520757D01*
X98914557Y-219318588D01*
X98818051Y-219129184D01*
X98818049Y-219129181D01*
X98818048Y-219129179D01*
X98693109Y-218957213D01*
X98579569Y-218843673D01*
X98546084Y-218782350D01*
X98551068Y-218712658D01*
X98592940Y-218656725D01*
X98623915Y-218639810D01*
X98755331Y-218590796D01*
X98870546Y-218504546D01*
X98956796Y-218389331D01*
X99007091Y-218254483D01*
X99013500Y-218194873D01*
X99013499Y-216399128D01*
X99007091Y-216339517D01*
X98956796Y-216204669D01*
X98956795Y-216204668D01*
X98956793Y-216204664D01*
X98870547Y-216089455D01*
X98870544Y-216089452D01*
X98755335Y-216003206D01*
X98755328Y-216003202D01*
X98623917Y-215954189D01*
X98567983Y-215912318D01*
X98543566Y-215846853D01*
X98558418Y-215778580D01*
X98579563Y-215750332D01*
X98693104Y-215636792D01*
X98818051Y-215464816D01*
X98914557Y-215275412D01*
X98980246Y-215073243D01*
X99013500Y-214863287D01*
X99013500Y-214650713D01*
X98980246Y-214440757D01*
X98914557Y-214238588D01*
X98818051Y-214049184D01*
X98818049Y-214049181D01*
X98818048Y-214049179D01*
X98693109Y-213877213D01*
X98542786Y-213726890D01*
X98370820Y-213601951D01*
X98370115Y-213601591D01*
X98362054Y-213597485D01*
X98311259Y-213549512D01*
X98294463Y-213481692D01*
X98316999Y-213415556D01*
X98362054Y-213376515D01*
X98370816Y-213372051D01*
X98392789Y-213356086D01*
X98542786Y-213247109D01*
X98542788Y-213247106D01*
X98542792Y-213247104D01*
X98693104Y-213096792D01*
X98693106Y-213096788D01*
X98693109Y-213096786D01*
X98818048Y-212924820D01*
X98818047Y-212924820D01*
X98818051Y-212924816D01*
X98914557Y-212735412D01*
X98980246Y-212533243D01*
X99013500Y-212323287D01*
X99013500Y-212110713D01*
X98980246Y-211900757D01*
X98914557Y-211698588D01*
X98818051Y-211509184D01*
X98818049Y-211509181D01*
X98818048Y-211509179D01*
X98693109Y-211337213D01*
X98542786Y-211186890D01*
X98370820Y-211061951D01*
X98370115Y-211061591D01*
X98362054Y-211057485D01*
X98311259Y-211009512D01*
X98294463Y-210941692D01*
X98316999Y-210875556D01*
X98362054Y-210836515D01*
X98370816Y-210832051D01*
X98392789Y-210816086D01*
X98542786Y-210707109D01*
X98542788Y-210707106D01*
X98542792Y-210707104D01*
X98693104Y-210556792D01*
X98693106Y-210556788D01*
X98693109Y-210556786D01*
X98818048Y-210384820D01*
X98818047Y-210384820D01*
X98818051Y-210384816D01*
X98914557Y-210195412D01*
X98980246Y-209993243D01*
X99013500Y-209783287D01*
X99013500Y-209570713D01*
X98980246Y-209360757D01*
X98914557Y-209158588D01*
X98818051Y-208969184D01*
X98818049Y-208969181D01*
X98818048Y-208969179D01*
X98693109Y-208797213D01*
X98579181Y-208683285D01*
X98545696Y-208621962D01*
X98550680Y-208552270D01*
X98592552Y-208496337D01*
X98623529Y-208479422D01*
X98755086Y-208430354D01*
X98755093Y-208430350D01*
X98870187Y-208344190D01*
X98870190Y-208344187D01*
X98956350Y-208229093D01*
X98956354Y-208229086D01*
X99006596Y-208094379D01*
X99006598Y-208094372D01*
X99012999Y-208034844D01*
X99013000Y-208034827D01*
X99013000Y-207387000D01*
X98096012Y-207387000D01*
X98128925Y-207329993D01*
X98163000Y-207202826D01*
X98163000Y-207071174D01*
X98128925Y-206944007D01*
X98096012Y-206887000D01*
X99013000Y-206887000D01*
X99013000Y-206239172D01*
X99012999Y-206239155D01*
X99006598Y-206179627D01*
X99006596Y-206179620D01*
X98956354Y-206044913D01*
X98956350Y-206044906D01*
X98870190Y-205929812D01*
X98870187Y-205929809D01*
X98755093Y-205843649D01*
X98755086Y-205843645D01*
X98620379Y-205793403D01*
X98620372Y-205793401D01*
X98560844Y-205787000D01*
X97913000Y-205787000D01*
X97913000Y-206703988D01*
X97855993Y-206671075D01*
X97728826Y-206637000D01*
X97597174Y-206637000D01*
X97470007Y-206671075D01*
X97413000Y-206703988D01*
X97413000Y-205787000D01*
X96765155Y-205787000D01*
X96705627Y-205793401D01*
X96705620Y-205793403D01*
X96570913Y-205843645D01*
X96570906Y-205843649D01*
X96455812Y-205929809D01*
X96455809Y-205929812D01*
X96369649Y-206044906D01*
X96369645Y-206044913D01*
X96319403Y-206179620D01*
X96319401Y-206179627D01*
X96313000Y-206239155D01*
X96313000Y-206887000D01*
X97229988Y-206887000D01*
X97197075Y-206944007D01*
X97163000Y-207071174D01*
X97163000Y-207202826D01*
X97197075Y-207329993D01*
X97229988Y-207387000D01*
X96313000Y-207387000D01*
X96313000Y-208034844D01*
X96319401Y-208094372D01*
X96319403Y-208094379D01*
X96369645Y-208229086D01*
X96369649Y-208229093D01*
X96455809Y-208344187D01*
X96455812Y-208344190D01*
X96570906Y-208430350D01*
X96570913Y-208430354D01*
X96702470Y-208479422D01*
X96758404Y-208521293D01*
X96782821Y-208586758D01*
X96767969Y-208655031D01*
X96746819Y-208683285D01*
X96632889Y-208797215D01*
X96507951Y-208969179D01*
X96411444Y-209158585D01*
X96345753Y-209360760D01*
X96312500Y-209570713D01*
X96312500Y-209783286D01*
X96345753Y-209993239D01*
X96411444Y-210195414D01*
X96507951Y-210384820D01*
X96632890Y-210556786D01*
X96783213Y-210707109D01*
X96955182Y-210832050D01*
X96963946Y-210836516D01*
X97014742Y-210884491D01*
X97031536Y-210952312D01*
X97008998Y-211018447D01*
X96963946Y-211057484D01*
X96955182Y-211061949D01*
X96783213Y-211186890D01*
X96632890Y-211337213D01*
X96507951Y-211509179D01*
X96411444Y-211698585D01*
X96345753Y-211900760D01*
X96312500Y-212110713D01*
X96312500Y-212323286D01*
X96345753Y-212533239D01*
X96411444Y-212735414D01*
X96507951Y-212924820D01*
X96632890Y-213096786D01*
X96783213Y-213247109D01*
X96955182Y-213372050D01*
X96963946Y-213376516D01*
X97014742Y-213424491D01*
X97031536Y-213492312D01*
X97008998Y-213558447D01*
X96963946Y-213597484D01*
X96955182Y-213601949D01*
X96783213Y-213726890D01*
X96632890Y-213877213D01*
X96507951Y-214049179D01*
X96411444Y-214238585D01*
X96345753Y-214440760D01*
X96312500Y-214650713D01*
X96312500Y-214863286D01*
X96345753Y-215073239D01*
X96411444Y-215275414D01*
X96507951Y-215464820D01*
X96632890Y-215636786D01*
X96746430Y-215750326D01*
X96779915Y-215811649D01*
X96774931Y-215881341D01*
X96733059Y-215937274D01*
X96702083Y-215954189D01*
X96570669Y-216003203D01*
X96570664Y-216003206D01*
X96455455Y-216089452D01*
X96455452Y-216089455D01*
X96369206Y-216204664D01*
X96369202Y-216204671D01*
X96318908Y-216339517D01*
X96312501Y-216399116D01*
X96312501Y-216399123D01*
X96312500Y-216399135D01*
X96312500Y-218194870D01*
X96312501Y-218194876D01*
X96318908Y-218254483D01*
X96369202Y-218389328D01*
X96369206Y-218389335D01*
X96455452Y-218504544D01*
X96455455Y-218504547D01*
X96570664Y-218590793D01*
X96570671Y-218590797D01*
X96702082Y-218639810D01*
X96758016Y-218681681D01*
X96782433Y-218747145D01*
X96767582Y-218815418D01*
X96746431Y-218843673D01*
X96632889Y-218957215D01*
X96507951Y-219129179D01*
X96411444Y-219318585D01*
X96345753Y-219520760D01*
X96315781Y-219710000D01*
X96012000Y-219710000D01*
X96012000Y-204594000D01*
X96031685Y-204526961D01*
X96084489Y-204481206D01*
X96136000Y-204470000D01*
X100968000Y-204470000D01*
X101035039Y-204489685D01*
G37*
%TD.AperFunction*%
%TD*%
%TA.AperFunction,Conductor*%
%TO.N,+3.3V*%
G36*
X96012000Y-219710000D02*
G01*
X96315781Y-219710000D01*
X96312500Y-219730713D01*
X96312500Y-219943287D01*
X96321656Y-220001096D01*
X96335531Y-220088702D01*
X96345754Y-220153243D01*
X96408183Y-220345380D01*
X96411444Y-220355414D01*
X96507951Y-220544820D01*
X96632890Y-220716786D01*
X96783213Y-220867109D01*
X96955182Y-220992050D01*
X96963946Y-220996516D01*
X97014742Y-221044491D01*
X97031536Y-221112312D01*
X97008998Y-221178447D01*
X96963946Y-221217484D01*
X96955182Y-221221949D01*
X96783213Y-221346890D01*
X96632890Y-221497213D01*
X96507951Y-221669179D01*
X96411444Y-221858585D01*
X96345753Y-222060760D01*
X96323653Y-222200294D01*
X96312500Y-222270713D01*
X96312500Y-222483287D01*
X96314372Y-222495104D01*
X96338515Y-222647542D01*
X96345754Y-222693243D01*
X96403673Y-222871500D01*
X96411444Y-222895414D01*
X96507951Y-223084820D01*
X96632890Y-223256786D01*
X96783213Y-223407109D01*
X96955182Y-223532050D01*
X96963946Y-223536516D01*
X97014742Y-223584491D01*
X97031536Y-223652312D01*
X97008998Y-223718447D01*
X96963946Y-223757484D01*
X96955182Y-223761949D01*
X96783213Y-223886890D01*
X96632890Y-224037213D01*
X96507951Y-224209179D01*
X96411444Y-224398585D01*
X96345753Y-224600760D01*
X96312500Y-224810713D01*
X96312500Y-225023286D01*
X96333765Y-225157552D01*
X96345754Y-225233243D01*
X96364693Y-225291532D01*
X96411444Y-225435414D01*
X96507951Y-225624820D01*
X96632890Y-225796786D01*
X96783213Y-225947109D01*
X96955179Y-226072048D01*
X96955181Y-226072049D01*
X96955184Y-226072051D01*
X97144588Y-226168557D01*
X97346757Y-226234246D01*
X97556713Y-226267500D01*
X97556714Y-226267500D01*
X97769286Y-226267500D01*
X97769287Y-226267500D01*
X97979243Y-226234246D01*
X98181412Y-226168557D01*
X98370816Y-226072051D01*
X98392789Y-226056086D01*
X98542786Y-225947109D01*
X98542788Y-225947106D01*
X98542792Y-225947104D01*
X98693104Y-225796792D01*
X98693106Y-225796788D01*
X98693109Y-225796786D01*
X98818048Y-225624820D01*
X98818047Y-225624820D01*
X98818051Y-225624816D01*
X98831496Y-225598429D01*
X104719000Y-225598429D01*
X104719000Y-225759570D01*
X104750433Y-225917594D01*
X104750435Y-225917602D01*
X104812096Y-226066466D01*
X104901619Y-226200447D01*
X105015552Y-226314380D01*
X105149533Y-226403903D01*
X105223965Y-226434733D01*
X105298398Y-226465565D01*
X105456429Y-226496999D01*
X105456433Y-226497000D01*
X105456434Y-226497000D01*
X105617567Y-226497000D01*
X105617568Y-226496999D01*
X105775602Y-226465565D01*
X105924468Y-226403902D01*
X106058445Y-226314382D01*
X106172382Y-226200445D01*
X106261902Y-226066468D01*
X106323565Y-225917602D01*
X106355000Y-225759566D01*
X106355000Y-225598434D01*
X106354999Y-225598429D01*
X107767000Y-225598429D01*
X107767000Y-225759570D01*
X107798433Y-225917594D01*
X107798435Y-225917602D01*
X107860096Y-226066466D01*
X107949619Y-226200447D01*
X108063552Y-226314380D01*
X108197533Y-226403903D01*
X108271965Y-226434733D01*
X108346398Y-226465565D01*
X108504429Y-226496999D01*
X108504433Y-226497000D01*
X108504434Y-226497000D01*
X108665567Y-226497000D01*
X108665568Y-226496999D01*
X108823602Y-226465565D01*
X108972468Y-226403902D01*
X109106445Y-226314382D01*
X109220382Y-226200445D01*
X109309902Y-226066468D01*
X109371565Y-225917602D01*
X109403000Y-225759566D01*
X109403000Y-225598434D01*
X109402999Y-225598429D01*
X110307000Y-225598429D01*
X110307000Y-225759570D01*
X110338433Y-225917594D01*
X110338435Y-225917602D01*
X110400096Y-226066466D01*
X110489619Y-226200447D01*
X110603552Y-226314380D01*
X110737533Y-226403903D01*
X110811965Y-226434733D01*
X110886398Y-226465565D01*
X111044429Y-226496999D01*
X111044433Y-226497000D01*
X111044434Y-226497000D01*
X111205567Y-226497000D01*
X111205568Y-226496999D01*
X111363602Y-226465565D01*
X111512468Y-226403902D01*
X111646445Y-226314382D01*
X111760382Y-226200445D01*
X111849902Y-226066468D01*
X111911565Y-225917602D01*
X111943000Y-225759566D01*
X111943000Y-225598434D01*
X111911565Y-225440398D01*
X111880733Y-225365965D01*
X111849903Y-225291533D01*
X111760380Y-225157552D01*
X111646447Y-225043619D01*
X111512466Y-224954096D01*
X111363602Y-224892435D01*
X111363594Y-224892433D01*
X111205570Y-224861000D01*
X111205566Y-224861000D01*
X111044434Y-224861000D01*
X111044429Y-224861000D01*
X110886405Y-224892433D01*
X110886397Y-224892435D01*
X110737533Y-224954096D01*
X110603552Y-225043619D01*
X110489619Y-225157552D01*
X110400096Y-225291533D01*
X110338435Y-225440397D01*
X110338433Y-225440405D01*
X110307000Y-225598429D01*
X109402999Y-225598429D01*
X109371565Y-225440398D01*
X109340733Y-225365965D01*
X109309903Y-225291533D01*
X109220380Y-225157552D01*
X109106447Y-225043619D01*
X108972466Y-224954096D01*
X108823602Y-224892435D01*
X108823594Y-224892433D01*
X108665570Y-224861000D01*
X108665566Y-224861000D01*
X108504434Y-224861000D01*
X108504429Y-224861000D01*
X108346405Y-224892433D01*
X108346397Y-224892435D01*
X108197533Y-224954096D01*
X108063552Y-225043619D01*
X107949619Y-225157552D01*
X107860096Y-225291533D01*
X107798435Y-225440397D01*
X107798433Y-225440405D01*
X107767000Y-225598429D01*
X106354999Y-225598429D01*
X106323565Y-225440398D01*
X106292733Y-225365965D01*
X106261903Y-225291533D01*
X106172380Y-225157552D01*
X106058447Y-225043619D01*
X105924466Y-224954096D01*
X105775602Y-224892435D01*
X105775594Y-224892433D01*
X105617570Y-224861000D01*
X105617566Y-224861000D01*
X105456434Y-224861000D01*
X105456429Y-224861000D01*
X105298405Y-224892433D01*
X105298397Y-224892435D01*
X105149533Y-224954096D01*
X105015552Y-225043619D01*
X104901619Y-225157552D01*
X104812096Y-225291533D01*
X104750435Y-225440397D01*
X104750433Y-225440405D01*
X104719000Y-225598429D01*
X98831496Y-225598429D01*
X98914557Y-225435412D01*
X98980246Y-225233243D01*
X99013500Y-225023287D01*
X99013500Y-224810713D01*
X98980246Y-224600757D01*
X98914557Y-224398588D01*
X98818051Y-224209184D01*
X98818049Y-224209181D01*
X98818048Y-224209179D01*
X98693109Y-224037213D01*
X98542786Y-223886890D01*
X98370820Y-223761951D01*
X98370115Y-223761591D01*
X98362054Y-223757485D01*
X98311259Y-223709512D01*
X98294463Y-223641692D01*
X98316999Y-223575556D01*
X98362054Y-223536515D01*
X98370816Y-223532051D01*
X98478457Y-223453846D01*
X98542786Y-223407109D01*
X98542788Y-223407106D01*
X98542792Y-223407104D01*
X98693104Y-223256792D01*
X98693106Y-223256788D01*
X98693109Y-223256786D01*
X98818048Y-223084820D01*
X98818047Y-223084820D01*
X98818051Y-223084816D01*
X98875624Y-222971822D01*
X101353499Y-222971822D01*
X101387374Y-223142118D01*
X101387377Y-223142128D01*
X101453821Y-223302540D01*
X101453828Y-223302553D01*
X101550293Y-223446922D01*
X101550296Y-223446926D01*
X101673073Y-223569703D01*
X101673077Y-223569706D01*
X101817446Y-223666171D01*
X101817459Y-223666178D01*
X101922078Y-223709512D01*
X101977876Y-223732624D01*
X101977880Y-223732624D01*
X101977881Y-223732625D01*
X102148177Y-223766500D01*
X102148180Y-223766500D01*
X102321822Y-223766500D01*
X102436394Y-223743709D01*
X102492124Y-223732624D01*
X102652547Y-223666175D01*
X102796923Y-223569706D01*
X102919706Y-223446923D01*
X103016175Y-223302547D01*
X103082624Y-223142124D01*
X103093709Y-223086394D01*
X103116500Y-222971822D01*
X103116500Y-222798177D01*
X103082625Y-222627881D01*
X103082624Y-222627880D01*
X103082624Y-222627876D01*
X103073963Y-222606966D01*
X103016178Y-222467459D01*
X103016171Y-222467446D01*
X102919706Y-222323077D01*
X102919703Y-222323073D01*
X102796926Y-222200296D01*
X102796922Y-222200293D01*
X102652553Y-222103828D01*
X102652540Y-222103821D01*
X102492128Y-222037377D01*
X102492118Y-222037374D01*
X102321822Y-222003500D01*
X102321820Y-222003500D01*
X102148180Y-222003500D01*
X102148178Y-222003500D01*
X101977881Y-222037374D01*
X101977871Y-222037377D01*
X101817459Y-222103821D01*
X101817446Y-222103828D01*
X101673077Y-222200293D01*
X101673073Y-222200296D01*
X101550296Y-222323073D01*
X101550293Y-222323077D01*
X101453828Y-222467446D01*
X101453821Y-222467459D01*
X101387377Y-222627871D01*
X101387374Y-222627881D01*
X101353500Y-222798177D01*
X101353500Y-222798180D01*
X101353500Y-222971820D01*
X101353500Y-222971822D01*
X101353499Y-222971822D01*
X98875624Y-222971822D01*
X98914557Y-222895412D01*
X98980246Y-222693243D01*
X99013500Y-222483287D01*
X99013500Y-222270713D01*
X98980246Y-222060757D01*
X98914557Y-221858588D01*
X98818051Y-221669184D01*
X98818049Y-221669181D01*
X98818048Y-221669179D01*
X98693109Y-221497213D01*
X98542786Y-221346890D01*
X98370820Y-221221951D01*
X98364247Y-221218602D01*
X98362054Y-221217485D01*
X98311259Y-221169512D01*
X98294463Y-221101692D01*
X98316999Y-221035556D01*
X98362054Y-220996515D01*
X98370816Y-220992051D01*
X98408608Y-220964594D01*
X98542786Y-220867109D01*
X98542788Y-220867106D01*
X98542792Y-220867104D01*
X98693104Y-220716792D01*
X98693106Y-220716788D01*
X98693109Y-220716786D01*
X98802086Y-220566789D01*
X98818051Y-220544816D01*
X98914557Y-220355412D01*
X98980246Y-220153243D01*
X99013500Y-219943287D01*
X99013500Y-219730713D01*
X99010219Y-219710000D01*
X101092000Y-219710000D01*
X101092000Y-218744800D01*
X112730265Y-218744800D01*
X112797304Y-218764485D01*
X112843059Y-218817289D01*
X112853003Y-218886447D01*
X112851882Y-218892991D01*
X112821600Y-219045229D01*
X112821600Y-219206370D01*
X112853033Y-219364394D01*
X112853035Y-219364402D01*
X112914696Y-219513266D01*
X113004219Y-219647247D01*
X113118152Y-219761180D01*
X113252133Y-219850703D01*
X113326565Y-219881533D01*
X113400998Y-219912365D01*
X113556450Y-219943286D01*
X113559029Y-219943799D01*
X113559033Y-219943800D01*
X113559034Y-219943800D01*
X113720167Y-219943800D01*
X113720168Y-219943799D01*
X113878202Y-219912365D01*
X114005266Y-219859732D01*
X114027066Y-219850703D01*
X114027066Y-219850702D01*
X114027068Y-219850702D01*
X114161045Y-219761182D01*
X114274982Y-219647245D01*
X114364502Y-219513268D01*
X114426165Y-219364402D01*
X114457600Y-219206366D01*
X114457600Y-219045234D01*
X114448985Y-219001922D01*
X114427318Y-218892991D01*
X114433545Y-218823399D01*
X114476409Y-218768222D01*
X114542298Y-218744978D01*
X114548935Y-218744800D01*
X119076272Y-218744800D01*
X119143311Y-218764485D01*
X119189066Y-218817289D01*
X119199010Y-218886447D01*
X119169985Y-218950003D01*
X119123725Y-218983361D01*
X119119533Y-218985096D01*
X118985552Y-219074619D01*
X118871619Y-219188552D01*
X118782096Y-219322533D01*
X118720435Y-219471397D01*
X118720433Y-219471405D01*
X118689000Y-219629429D01*
X118689000Y-219790570D01*
X118720433Y-219948594D01*
X118720435Y-219948602D01*
X118782096Y-220097466D01*
X118871619Y-220231447D01*
X118985552Y-220345380D01*
X119119533Y-220434903D01*
X119183339Y-220461332D01*
X119268398Y-220496565D01*
X119394651Y-220521678D01*
X119426429Y-220527999D01*
X119426433Y-220528000D01*
X119454000Y-220528000D01*
X119521039Y-220547685D01*
X119566794Y-220600489D01*
X119578000Y-220652000D01*
X119578000Y-220806570D01*
X119609433Y-220964594D01*
X119609435Y-220964602D01*
X119671098Y-221113469D01*
X119673968Y-221118838D01*
X119672536Y-221119603D01*
X119691068Y-221178785D01*
X119672584Y-221246166D01*
X119620606Y-221292856D01*
X119567088Y-221305000D01*
X119426429Y-221305000D01*
X119268405Y-221336433D01*
X119268397Y-221336435D01*
X119119533Y-221398096D01*
X118985552Y-221487619D01*
X118871619Y-221601552D01*
X118782096Y-221735533D01*
X118720435Y-221884397D01*
X118720433Y-221884405D01*
X118689000Y-222042429D01*
X118689000Y-222203570D01*
X118720433Y-222361594D01*
X118720435Y-222361602D01*
X118782096Y-222510466D01*
X118871619Y-222644447D01*
X118985552Y-222758380D01*
X119119533Y-222847903D01*
X119176502Y-222871500D01*
X119268398Y-222909565D01*
X119370731Y-222929920D01*
X119426429Y-222940999D01*
X119426433Y-222941000D01*
X119426434Y-222941000D01*
X119587567Y-222941000D01*
X119587567Y-222940999D01*
X119643269Y-222929920D01*
X119712860Y-222936147D01*
X119768037Y-222979009D01*
X119791282Y-223044899D01*
X119789077Y-223075728D01*
X119768500Y-223179175D01*
X119768500Y-223179180D01*
X119768500Y-223352820D01*
X119768500Y-223352822D01*
X119768499Y-223352822D01*
X119802374Y-223523118D01*
X119802377Y-223523128D01*
X119868821Y-223683540D01*
X119868828Y-223683553D01*
X119965293Y-223827922D01*
X119965296Y-223827926D01*
X120088073Y-223950703D01*
X120088077Y-223950706D01*
X120232446Y-224047171D01*
X120232459Y-224047178D01*
X120392871Y-224113622D01*
X120392876Y-224113624D01*
X120392880Y-224113624D01*
X120392881Y-224113625D01*
X120563177Y-224147500D01*
X120563180Y-224147500D01*
X120736822Y-224147500D01*
X120851394Y-224124709D01*
X120907124Y-224113624D01*
X121067547Y-224047175D01*
X121211923Y-223950706D01*
X121334706Y-223827923D01*
X121431175Y-223683547D01*
X121431825Y-223681979D01*
X121492077Y-223536516D01*
X121497624Y-223523124D01*
X121531500Y-223352820D01*
X121531500Y-223179180D01*
X121531500Y-223179177D01*
X121497625Y-223008881D01*
X121497624Y-223008880D01*
X121497624Y-223008876D01*
X121473281Y-222950106D01*
X121431178Y-222848459D01*
X121431171Y-222848446D01*
X121334706Y-222704077D01*
X121334703Y-222704073D01*
X121211926Y-222581296D01*
X121211922Y-222581293D01*
X121067553Y-222484828D01*
X121067540Y-222484821D01*
X120907128Y-222418377D01*
X120907118Y-222418374D01*
X120736822Y-222384500D01*
X120736820Y-222384500D01*
X120563180Y-222384500D01*
X120563175Y-222384500D01*
X120459728Y-222405077D01*
X120390136Y-222398850D01*
X120334959Y-222355987D01*
X120311715Y-222290097D01*
X120313920Y-222259268D01*
X120325000Y-222203566D01*
X120325000Y-222042434D01*
X120293565Y-221884398D01*
X120231902Y-221735532D01*
X120231901Y-221735530D01*
X120229032Y-221730162D01*
X120230463Y-221729396D01*
X120211932Y-221670215D01*
X120230416Y-221602834D01*
X120282394Y-221556144D01*
X120335912Y-221544000D01*
X120476567Y-221544000D01*
X120476568Y-221543999D01*
X120634602Y-221512565D01*
X120783468Y-221450902D01*
X120917445Y-221361382D01*
X121031382Y-221247445D01*
X121120902Y-221113468D01*
X121182565Y-220964602D01*
X121214000Y-220806566D01*
X121214000Y-220645434D01*
X121182565Y-220487398D01*
X121145917Y-220398923D01*
X121120903Y-220338533D01*
X121031380Y-220204552D01*
X120917447Y-220090619D01*
X120783466Y-220001096D01*
X120634602Y-219939435D01*
X120634594Y-219939433D01*
X120476570Y-219908000D01*
X120476566Y-219908000D01*
X120449000Y-219908000D01*
X120381961Y-219888315D01*
X120336206Y-219835511D01*
X120325000Y-219784000D01*
X120325000Y-219629433D01*
X120324999Y-219629429D01*
X120293226Y-219469691D01*
X120299453Y-219400099D01*
X120342316Y-219344922D01*
X120408206Y-219321678D01*
X120414843Y-219321500D01*
X120482822Y-219321500D01*
X120597394Y-219298709D01*
X120653124Y-219287624D01*
X120813547Y-219221175D01*
X120957923Y-219124706D01*
X121080706Y-219001923D01*
X121177175Y-218857547D01*
X121192170Y-218821346D01*
X121236008Y-218766945D01*
X121302302Y-218744879D01*
X121306730Y-218744800D01*
X128745449Y-218744800D01*
X128812488Y-218764485D01*
X128858243Y-218817289D01*
X128868187Y-218886447D01*
X128839162Y-218950003D01*
X128780698Y-218987575D01*
X128780708Y-218987607D01*
X128780595Y-218987641D01*
X128780384Y-218987777D01*
X128779139Y-218988082D01*
X128774871Y-218989377D01*
X128614459Y-219055821D01*
X128614446Y-219055828D01*
X128470077Y-219152293D01*
X128470073Y-219152296D01*
X128347296Y-219275073D01*
X128347293Y-219275077D01*
X128250828Y-219419446D01*
X128250821Y-219419459D01*
X128184377Y-219579871D01*
X128184374Y-219579881D01*
X128150500Y-219750177D01*
X128150500Y-219750180D01*
X128150500Y-219923820D01*
X128150500Y-219923822D01*
X128150499Y-219923822D01*
X128184374Y-220094118D01*
X128184377Y-220094128D01*
X128250821Y-220254540D01*
X128250828Y-220254553D01*
X128308544Y-220340930D01*
X128329422Y-220407607D01*
X128310938Y-220474988D01*
X128258959Y-220521678D01*
X128205442Y-220533821D01*
X127450611Y-220533821D01*
X127348521Y-220561176D01*
X127297476Y-220574854D01*
X127160182Y-220654120D01*
X127160179Y-220654122D01*
X126759681Y-221054620D01*
X126698358Y-221088105D01*
X126628666Y-221083121D01*
X126572733Y-221041249D01*
X126548316Y-220975785D01*
X126548000Y-220966939D01*
X126548000Y-220899433D01*
X126547999Y-220899429D01*
X126541569Y-220867104D01*
X126516565Y-220741398D01*
X126457245Y-220598188D01*
X126454903Y-220592533D01*
X126365380Y-220458552D01*
X126251447Y-220344619D01*
X126117466Y-220255096D01*
X125968602Y-220193435D01*
X125968594Y-220193433D01*
X125810570Y-220162000D01*
X125810566Y-220162000D01*
X125649434Y-220162000D01*
X125649429Y-220162000D01*
X125491405Y-220193433D01*
X125491397Y-220193435D01*
X125342533Y-220255096D01*
X125208552Y-220344619D01*
X125094620Y-220458551D01*
X125094617Y-220458555D01*
X125016925Y-220574830D01*
X124963313Y-220619635D01*
X124893988Y-220628342D01*
X124830960Y-220598188D01*
X124810721Y-220574829D01*
X124727085Y-220449659D01*
X124727079Y-220449651D01*
X124613147Y-220335719D01*
X124479166Y-220246196D01*
X124330302Y-220184535D01*
X124330294Y-220184533D01*
X124172270Y-220153100D01*
X124172266Y-220153100D01*
X124011134Y-220153100D01*
X124011129Y-220153100D01*
X123853105Y-220184533D01*
X123853097Y-220184535D01*
X123704233Y-220246196D01*
X123570252Y-220335719D01*
X123456319Y-220449652D01*
X123366796Y-220583633D01*
X123305135Y-220732497D01*
X123305133Y-220732505D01*
X123273700Y-220890529D01*
X123273700Y-221051670D01*
X123305133Y-221209694D01*
X123305135Y-221209702D01*
X123366796Y-221358566D01*
X123456319Y-221492547D01*
X123460183Y-221497255D01*
X123458330Y-221498774D01*
X123486756Y-221550783D01*
X123489600Y-221577189D01*
X123489600Y-222341968D01*
X123510073Y-222418374D01*
X123530633Y-222495103D01*
X123530634Y-222495104D01*
X123592093Y-222601555D01*
X123609900Y-222632398D01*
X123849002Y-222871500D01*
X123986299Y-222950767D01*
X124139432Y-222991800D01*
X124139434Y-222991800D01*
X124297966Y-222991800D01*
X124297968Y-222991800D01*
X124451101Y-222950767D01*
X124451103Y-222950766D01*
X124451893Y-222950439D01*
X124453565Y-222950106D01*
X124458952Y-222948663D01*
X124459046Y-222949016D01*
X124499346Y-222941000D01*
X126406166Y-222941000D01*
X126406168Y-222941000D01*
X126559302Y-222899967D01*
X126696598Y-222820700D01*
X126808700Y-222708598D01*
X127742958Y-221774340D01*
X127804281Y-221740855D01*
X127830639Y-221738021D01*
X128681093Y-221738021D01*
X128748132Y-221757706D01*
X128793887Y-221810510D01*
X128803831Y-221879668D01*
X128795654Y-221909474D01*
X128753435Y-222011397D01*
X128753433Y-222011405D01*
X128722000Y-222169429D01*
X128722000Y-222330570D01*
X128753433Y-222488594D01*
X128753435Y-222488602D01*
X128817429Y-222643096D01*
X128815840Y-222643753D01*
X128828408Y-222704140D01*
X128803403Y-222769382D01*
X128752262Y-222808742D01*
X128614456Y-222865823D01*
X128614446Y-222865828D01*
X128470077Y-222962293D01*
X128470073Y-222962296D01*
X128347296Y-223085073D01*
X128347293Y-223085077D01*
X128250828Y-223229446D01*
X128250821Y-223229459D01*
X128184377Y-223389871D01*
X128184374Y-223389881D01*
X128150500Y-223560177D01*
X128150500Y-223560180D01*
X128150500Y-223733820D01*
X128150500Y-223733822D01*
X128150499Y-223733822D01*
X128184374Y-223904118D01*
X128184377Y-223904128D01*
X128250821Y-224064540D01*
X128250828Y-224064553D01*
X128347293Y-224208922D01*
X128347296Y-224208926D01*
X128470073Y-224331703D01*
X128470077Y-224331706D01*
X128614446Y-224428171D01*
X128614459Y-224428178D01*
X128774871Y-224494622D01*
X128774876Y-224494624D01*
X128774880Y-224494624D01*
X128774881Y-224494625D01*
X128945177Y-224528500D01*
X128945180Y-224528500D01*
X129118822Y-224528500D01*
X129233394Y-224505709D01*
X129289124Y-224494624D01*
X129449547Y-224428175D01*
X129593923Y-224331706D01*
X129716706Y-224208923D01*
X129813175Y-224064547D01*
X129879624Y-223904124D01*
X129906363Y-223769698D01*
X129911183Y-223745469D01*
X129943568Y-223683558D01*
X130004283Y-223648984D01*
X130074053Y-223652723D01*
X130120481Y-223681979D01*
X130320302Y-223881800D01*
X130320303Y-223881801D01*
X130320305Y-223881802D01*
X130358975Y-223904128D01*
X130457599Y-223961068D01*
X130610732Y-224002100D01*
X130610735Y-224002100D01*
X137331545Y-224002100D01*
X137398584Y-224021785D01*
X137444339Y-224074589D01*
X137455545Y-224126313D01*
X137445824Y-229779540D01*
X137426430Y-241056714D01*
X137406631Y-241123719D01*
X137353748Y-241169383D01*
X137302431Y-241180500D01*
X132127290Y-241180500D01*
X132060251Y-241160815D01*
X132047681Y-241150685D01*
X132047355Y-241151083D01*
X132042647Y-241147219D01*
X131908666Y-241057696D01*
X131759802Y-240996035D01*
X131759794Y-240996033D01*
X131601770Y-240964600D01*
X131601766Y-240964600D01*
X131440634Y-240964600D01*
X131440629Y-240964600D01*
X131282605Y-240996033D01*
X131282597Y-240996035D01*
X131133733Y-241057696D01*
X130999752Y-241147219D01*
X130885819Y-241261152D01*
X130796296Y-241395133D01*
X130734635Y-241543997D01*
X130734633Y-241544005D01*
X130703200Y-241702029D01*
X130703200Y-241863170D01*
X130734633Y-242021194D01*
X130734635Y-242021202D01*
X130796296Y-242170066D01*
X130885819Y-242304047D01*
X130999752Y-242417980D01*
X131133733Y-242507503D01*
X131208165Y-242538333D01*
X131282598Y-242569165D01*
X131440629Y-242600599D01*
X131440633Y-242600600D01*
X131440634Y-242600600D01*
X131601767Y-242600600D01*
X131601768Y-242600599D01*
X131759802Y-242569165D01*
X131908668Y-242507502D01*
X132042645Y-242417982D01*
X132042647Y-242417980D01*
X132047355Y-242414117D01*
X132048869Y-242415962D01*
X132100932Y-242387534D01*
X132127290Y-242384700D01*
X137299933Y-242384700D01*
X137366972Y-242404385D01*
X137412727Y-242457189D01*
X137423933Y-242508913D01*
X137422284Y-243468213D01*
X137421609Y-243860513D01*
X137401809Y-243927519D01*
X137348926Y-243973183D01*
X137297609Y-243984300D01*
X133343268Y-243984300D01*
X133184732Y-243984300D01*
X133082642Y-244011655D01*
X133031597Y-244025333D01*
X132894303Y-244104599D01*
X132894300Y-244104601D01*
X130987721Y-246011181D01*
X130926398Y-246044666D01*
X130900040Y-246047500D01*
X130419004Y-246047500D01*
X130357006Y-246030888D01*
X130330586Y-246015635D01*
X130330583Y-246015633D01*
X130279537Y-246001955D01*
X130177448Y-245974600D01*
X129661088Y-245974600D01*
X129502552Y-245974600D01*
X129400462Y-246001955D01*
X129349417Y-246015633D01*
X129212123Y-246094899D01*
X129212120Y-246094901D01*
X127064690Y-248242330D01*
X127003367Y-248275815D01*
X126976934Y-248278649D01*
X120148769Y-248274494D01*
X120081741Y-248254769D01*
X120036018Y-248201937D01*
X120026117Y-248132772D01*
X120055180Y-248069234D01*
X120084068Y-248044758D01*
X120087565Y-248042615D01*
X120259459Y-247917727D01*
X120259464Y-247917723D01*
X120409723Y-247767464D01*
X120409727Y-247767459D01*
X120534620Y-247595557D01*
X120631095Y-247406217D01*
X120696757Y-247204129D01*
X120696757Y-247204126D01*
X120707231Y-247138000D01*
X119824560Y-247138000D01*
X119855245Y-247084853D01*
X119890000Y-246955143D01*
X119890000Y-246820857D01*
X119855245Y-246691147D01*
X119824560Y-246638000D01*
X120707231Y-246638000D01*
X120696757Y-246571873D01*
X120696757Y-246571870D01*
X120631095Y-246369782D01*
X120534620Y-246180442D01*
X120409727Y-246008540D01*
X120409723Y-246008535D01*
X120259464Y-245858276D01*
X120259459Y-245858272D01*
X120087555Y-245733377D01*
X120078500Y-245728763D01*
X120027706Y-245680788D01*
X120010912Y-245612966D01*
X120033451Y-245546832D01*
X120078508Y-245507793D01*
X120087816Y-245503051D01*
X120177554Y-245437853D01*
X120259786Y-245378109D01*
X120259788Y-245378106D01*
X120259792Y-245378104D01*
X120410104Y-245227792D01*
X120410106Y-245227788D01*
X120410109Y-245227786D01*
X120535048Y-245055820D01*
X120535047Y-245055820D01*
X120535051Y-245055816D01*
X120616922Y-244895135D01*
X123046500Y-244895135D01*
X123046500Y-246340870D01*
X123046501Y-246340876D01*
X123052908Y-246400483D01*
X123103202Y-246535328D01*
X123103206Y-246535335D01*
X123189452Y-246650544D01*
X123189455Y-246650547D01*
X123304664Y-246736793D01*
X123304671Y-246736797D01*
X123439517Y-246787091D01*
X123439516Y-246787091D01*
X123446444Y-246787835D01*
X123499127Y-246793500D01*
X124944872Y-246793499D01*
X125004483Y-246787091D01*
X125139331Y-246736796D01*
X125254546Y-246650546D01*
X125318241Y-246565459D01*
X125374174Y-246523590D01*
X125443866Y-246518606D01*
X125490392Y-246539453D01*
X125605904Y-246623378D01*
X125659224Y-246650546D01*
X125770764Y-246707379D01*
X125770767Y-246707380D01*
X125858750Y-246735967D01*
X125946736Y-246764555D01*
X126129486Y-246793500D01*
X126129487Y-246793500D01*
X126314513Y-246793500D01*
X126314514Y-246793500D01*
X126497264Y-246764555D01*
X126673235Y-246707379D01*
X126838096Y-246623378D01*
X126987787Y-246514621D01*
X127118621Y-246383787D01*
X127227378Y-246234096D01*
X127311379Y-246069235D01*
X127368555Y-245893264D01*
X127397500Y-245710514D01*
X127397500Y-245525486D01*
X127368555Y-245342736D01*
X127311379Y-245166765D01*
X127311379Y-245166764D01*
X127268577Y-245082763D01*
X127227378Y-245001904D01*
X127118621Y-244852213D01*
X126987787Y-244721379D01*
X126838096Y-244612622D01*
X126784778Y-244585455D01*
X126673235Y-244528620D01*
X126673232Y-244528619D01*
X126497265Y-244471445D01*
X126405889Y-244456972D01*
X126314514Y-244442500D01*
X126129486Y-244442500D01*
X126089028Y-244448908D01*
X125946734Y-244471445D01*
X125770767Y-244528619D01*
X125770764Y-244528620D01*
X125605900Y-244612624D01*
X125490392Y-244696545D01*
X125424586Y-244720025D01*
X125356532Y-244704199D01*
X125318241Y-244670539D01*
X125274884Y-244612622D01*
X125254546Y-244585454D01*
X125254544Y-244585453D01*
X125254544Y-244585452D01*
X125139335Y-244499206D01*
X125139328Y-244499202D01*
X125004482Y-244448908D01*
X125004483Y-244448908D01*
X124944883Y-244442501D01*
X124944881Y-244442500D01*
X124944873Y-244442500D01*
X124944864Y-244442500D01*
X123499129Y-244442500D01*
X123499123Y-244442501D01*
X123439516Y-244448908D01*
X123304671Y-244499202D01*
X123304664Y-244499206D01*
X123189455Y-244585452D01*
X123189452Y-244585455D01*
X123103206Y-244700664D01*
X123103202Y-244700671D01*
X123052908Y-244835517D01*
X123046501Y-244895116D01*
X123046500Y-244895135D01*
X120616922Y-244895135D01*
X120631557Y-244866412D01*
X120697246Y-244664243D01*
X120730500Y-244454287D01*
X120730500Y-244241713D01*
X120697246Y-244031757D01*
X120631557Y-243829588D01*
X120535051Y-243640184D01*
X120535049Y-243640181D01*
X120535048Y-243640179D01*
X120410109Y-243468213D01*
X120259786Y-243317890D01*
X120087820Y-243192951D01*
X120087115Y-243192591D01*
X120079054Y-243188485D01*
X120028259Y-243140512D01*
X120011463Y-243072692D01*
X120033999Y-243006556D01*
X120079054Y-242967515D01*
X120087816Y-242963051D01*
X120109789Y-242947086D01*
X120259786Y-242838109D01*
X120259788Y-242838106D01*
X120259792Y-242838104D01*
X120410104Y-242687792D01*
X120410106Y-242687788D01*
X120410109Y-242687786D01*
X120535048Y-242515820D01*
X120535047Y-242515820D01*
X120535051Y-242515816D01*
X120631557Y-242326412D01*
X120697246Y-242124243D01*
X120730500Y-241914287D01*
X120730500Y-241701713D01*
X120697246Y-241491757D01*
X120631557Y-241289588D01*
X120535051Y-241100184D01*
X120535049Y-241100181D01*
X120535048Y-241100179D01*
X120410109Y-240928213D01*
X120296569Y-240814673D01*
X120263084Y-240753350D01*
X120268068Y-240683658D01*
X120309940Y-240627725D01*
X120340915Y-240610810D01*
X120472331Y-240561796D01*
X120557789Y-240497822D01*
X127642499Y-240497822D01*
X127676374Y-240668118D01*
X127676377Y-240668128D01*
X127742821Y-240828540D01*
X127742828Y-240828553D01*
X127839293Y-240972922D01*
X127839296Y-240972926D01*
X127962073Y-241095703D01*
X127962077Y-241095706D01*
X128106446Y-241192171D01*
X128106459Y-241192178D01*
X128266871Y-241258622D01*
X128266876Y-241258624D01*
X128266880Y-241258624D01*
X128266881Y-241258625D01*
X128437177Y-241292500D01*
X128437180Y-241292500D01*
X128610822Y-241292500D01*
X128725394Y-241269709D01*
X128781124Y-241258624D01*
X128941547Y-241192175D01*
X129085923Y-241095706D01*
X129208706Y-240972923D01*
X129305175Y-240828547D01*
X129371624Y-240668124D01*
X129397508Y-240538000D01*
X129405500Y-240497822D01*
X129405500Y-240324177D01*
X129371625Y-240153881D01*
X129371624Y-240153880D01*
X129371624Y-240153876D01*
X129369104Y-240147792D01*
X129305178Y-239993459D01*
X129305171Y-239993446D01*
X129208706Y-239849077D01*
X129208703Y-239849073D01*
X129085926Y-239726296D01*
X129085922Y-239726293D01*
X128941553Y-239629828D01*
X128941540Y-239629821D01*
X128781128Y-239563377D01*
X128781118Y-239563374D01*
X128610822Y-239529500D01*
X128610820Y-239529500D01*
X128437180Y-239529500D01*
X128437178Y-239529500D01*
X128266881Y-239563374D01*
X128266871Y-239563377D01*
X128106459Y-239629821D01*
X128106446Y-239629828D01*
X127962077Y-239726293D01*
X127962073Y-239726296D01*
X127839296Y-239849073D01*
X127839293Y-239849077D01*
X127742828Y-239993446D01*
X127742821Y-239993459D01*
X127676377Y-240153871D01*
X127676374Y-240153881D01*
X127642500Y-240324177D01*
X127642500Y-240324180D01*
X127642500Y-240497820D01*
X127642500Y-240497822D01*
X127642499Y-240497822D01*
X120557789Y-240497822D01*
X120587546Y-240475546D01*
X120673796Y-240360331D01*
X120724091Y-240225483D01*
X120730500Y-240165873D01*
X120730499Y-238370128D01*
X120724091Y-238310517D01*
X120673796Y-238175669D01*
X120673795Y-238175668D01*
X120673793Y-238175664D01*
X120587547Y-238060455D01*
X120587544Y-238060452D01*
X120472335Y-237974206D01*
X120472328Y-237974202D01*
X120340917Y-237925189D01*
X120284983Y-237883318D01*
X120260566Y-237817853D01*
X120275418Y-237749580D01*
X120296563Y-237721332D01*
X120410104Y-237607792D01*
X120535051Y-237435816D01*
X120631557Y-237246412D01*
X120697246Y-237044243D01*
X120730500Y-236834287D01*
X120730500Y-236621713D01*
X120697246Y-236411757D01*
X120631557Y-236209588D01*
X120535051Y-236020184D01*
X120535049Y-236020181D01*
X120485678Y-235952226D01*
X120485677Y-235952225D01*
X120437147Y-235885429D01*
X132532000Y-235885429D01*
X132532000Y-236046570D01*
X132563433Y-236204594D01*
X132563435Y-236204602D01*
X132625096Y-236353466D01*
X132714619Y-236487447D01*
X132828552Y-236601380D01*
X132962533Y-236690903D01*
X133036965Y-236721733D01*
X133111398Y-236752565D01*
X133269429Y-236783999D01*
X133269433Y-236784000D01*
X133269434Y-236784000D01*
X133430567Y-236784000D01*
X133430568Y-236783999D01*
X133588602Y-236752565D01*
X133737468Y-236690902D01*
X133737475Y-236690896D01*
X133742343Y-236688296D01*
X133810745Y-236674050D01*
X133869692Y-236694548D01*
X133948453Y-236747175D01*
X133948455Y-236747176D01*
X133948459Y-236747178D01*
X134108871Y-236813622D01*
X134108876Y-236813624D01*
X134108880Y-236813624D01*
X134108881Y-236813625D01*
X134279177Y-236847500D01*
X134279180Y-236847500D01*
X134452822Y-236847500D01*
X134567394Y-236824709D01*
X134623124Y-236813624D01*
X134783547Y-236747175D01*
X134927923Y-236650706D01*
X135050706Y-236527923D01*
X135147175Y-236383547D01*
X135213624Y-236223124D01*
X135247500Y-236052820D01*
X135247500Y-235879180D01*
X135247500Y-235879177D01*
X135213625Y-235708881D01*
X135213624Y-235708880D01*
X135213624Y-235708876D01*
X135209076Y-235697896D01*
X135147178Y-235548459D01*
X135147171Y-235548446D01*
X135050706Y-235404077D01*
X135050703Y-235404073D01*
X134927926Y-235281296D01*
X134927922Y-235281293D01*
X134783553Y-235184828D01*
X134783540Y-235184821D01*
X134623128Y-235118377D01*
X134623118Y-235118374D01*
X134452822Y-235084500D01*
X134452820Y-235084500D01*
X134279180Y-235084500D01*
X134279178Y-235084500D01*
X134108881Y-235118374D01*
X134108871Y-235118377D01*
X133948459Y-235184821D01*
X133948448Y-235184827D01*
X133869691Y-235237451D01*
X133803014Y-235258328D01*
X133742346Y-235243705D01*
X133737469Y-235241098D01*
X133588602Y-235179435D01*
X133588594Y-235179433D01*
X133430570Y-235148000D01*
X133430566Y-235148000D01*
X133269434Y-235148000D01*
X133269429Y-235148000D01*
X133111405Y-235179433D01*
X133111397Y-235179435D01*
X132962533Y-235241096D01*
X132828552Y-235330619D01*
X132714619Y-235444552D01*
X132625096Y-235578533D01*
X132563435Y-235727397D01*
X132563433Y-235727405D01*
X132532000Y-235885429D01*
X120437147Y-235885429D01*
X120410109Y-235848214D01*
X120410105Y-235848209D01*
X120259786Y-235697890D01*
X120087820Y-235572951D01*
X120087115Y-235572591D01*
X120079054Y-235568485D01*
X120028259Y-235520512D01*
X120011463Y-235452692D01*
X120033999Y-235386556D01*
X120079054Y-235347515D01*
X120087816Y-235343051D01*
X120172818Y-235281294D01*
X120259786Y-235218109D01*
X120259788Y-235218106D01*
X120259792Y-235218104D01*
X120410104Y-235067792D01*
X120410106Y-235067788D01*
X120410109Y-235067786D01*
X120535048Y-234895820D01*
X120535047Y-234895820D01*
X120535051Y-234895816D01*
X120631557Y-234706412D01*
X120697246Y-234504243D01*
X120730500Y-234294287D01*
X120730500Y-234081713D01*
X120697246Y-233871757D01*
X120631557Y-233669588D01*
X120535051Y-233480184D01*
X120535049Y-233480181D01*
X120535048Y-233480179D01*
X120410109Y-233308213D01*
X120259786Y-233157890D01*
X120087820Y-233032951D01*
X120087115Y-233032591D01*
X120079054Y-233028485D01*
X120028259Y-232980512D01*
X120011463Y-232912692D01*
X120033999Y-232846556D01*
X120079054Y-232807515D01*
X120087816Y-232803051D01*
X120177554Y-232737853D01*
X120259786Y-232678109D01*
X120259788Y-232678106D01*
X120259792Y-232678104D01*
X120410104Y-232527792D01*
X120410108Y-232527787D01*
X120410109Y-232527786D01*
X120535048Y-232355820D01*
X120535050Y-232355817D01*
X120535051Y-232355816D01*
X120631557Y-232166412D01*
X120697246Y-231964243D01*
X120730500Y-231754287D01*
X120730500Y-231734822D01*
X127134499Y-231734822D01*
X127168374Y-231905118D01*
X127168377Y-231905128D01*
X127234821Y-232065540D01*
X127234828Y-232065553D01*
X127331293Y-232209922D01*
X127331296Y-232209926D01*
X127454073Y-232332703D01*
X127454077Y-232332706D01*
X127598446Y-232429171D01*
X127598459Y-232429178D01*
X127758871Y-232495622D01*
X127758876Y-232495624D01*
X127758880Y-232495624D01*
X127758881Y-232495625D01*
X127929177Y-232529500D01*
X127929180Y-232529500D01*
X128102822Y-232529500D01*
X128217394Y-232506709D01*
X128273124Y-232495624D01*
X128433547Y-232429175D01*
X128577923Y-232332706D01*
X128700706Y-232209923D01*
X128797175Y-232065547D01*
X128863624Y-231905124D01*
X128897500Y-231734820D01*
X128897500Y-231561180D01*
X128897500Y-231561177D01*
X128863625Y-231390881D01*
X128863624Y-231390880D01*
X128863624Y-231390876D01*
X128863622Y-231390871D01*
X128797178Y-231230459D01*
X128797171Y-231230446D01*
X128700706Y-231086077D01*
X128700703Y-231086073D01*
X128577926Y-230963296D01*
X128577922Y-230963293D01*
X128433553Y-230866828D01*
X128433540Y-230866821D01*
X128273128Y-230800377D01*
X128273118Y-230800374D01*
X128102822Y-230766500D01*
X128102820Y-230766500D01*
X127929180Y-230766500D01*
X127929178Y-230766500D01*
X127758881Y-230800374D01*
X127758871Y-230800377D01*
X127598459Y-230866821D01*
X127598446Y-230866828D01*
X127454077Y-230963293D01*
X127454073Y-230963296D01*
X127331296Y-231086073D01*
X127331293Y-231086077D01*
X127234828Y-231230446D01*
X127234821Y-231230459D01*
X127168377Y-231390871D01*
X127168374Y-231390881D01*
X127134500Y-231561177D01*
X127134500Y-231561180D01*
X127134500Y-231734820D01*
X127134500Y-231734822D01*
X127134499Y-231734822D01*
X120730500Y-231734822D01*
X120730500Y-231541713D01*
X120697246Y-231331757D01*
X120631557Y-231129588D01*
X120535051Y-230940184D01*
X120535049Y-230940181D01*
X120535048Y-230940179D01*
X120410109Y-230768213D01*
X120259786Y-230617890D01*
X120087820Y-230492951D01*
X119898414Y-230396444D01*
X119898413Y-230396443D01*
X119898412Y-230396443D01*
X119696243Y-230330754D01*
X119696241Y-230330753D01*
X119696240Y-230330753D01*
X119534957Y-230305208D01*
X119486287Y-230297500D01*
X119273713Y-230297500D01*
X119225042Y-230305208D01*
X119063760Y-230330753D01*
X118861585Y-230396444D01*
X118672179Y-230492951D01*
X118500213Y-230617890D01*
X118349890Y-230768213D01*
X118224949Y-230940182D01*
X118220484Y-230948946D01*
X118172509Y-230999742D01*
X118104688Y-231016536D01*
X118038553Y-230993998D01*
X117999516Y-230948946D01*
X117995050Y-230940182D01*
X117870109Y-230768213D01*
X117719786Y-230617890D01*
X117547820Y-230492951D01*
X117358414Y-230396444D01*
X117358413Y-230396443D01*
X117358412Y-230396443D01*
X117156243Y-230330754D01*
X117156241Y-230330753D01*
X117156240Y-230330753D01*
X116994957Y-230305208D01*
X116946287Y-230297500D01*
X116733713Y-230297500D01*
X116685042Y-230305208D01*
X116523760Y-230330753D01*
X116321585Y-230396444D01*
X116132179Y-230492951D01*
X115960213Y-230617890D01*
X115809890Y-230768213D01*
X115684949Y-230940182D01*
X115680484Y-230948946D01*
X115632509Y-230999742D01*
X115564688Y-231016536D01*
X115498553Y-230993998D01*
X115459516Y-230948946D01*
X115455050Y-230940182D01*
X115330109Y-230768213D01*
X115179786Y-230617890D01*
X115007820Y-230492951D01*
X114818414Y-230396444D01*
X114818413Y-230396443D01*
X114818412Y-230396443D01*
X114616243Y-230330754D01*
X114616241Y-230330753D01*
X114616240Y-230330753D01*
X114454957Y-230305208D01*
X114406287Y-230297500D01*
X114193713Y-230297500D01*
X114145042Y-230305208D01*
X113983760Y-230330753D01*
X113781585Y-230396444D01*
X113592179Y-230492951D01*
X113420213Y-230617890D01*
X113269890Y-230768213D01*
X113144948Y-230940183D01*
X113140482Y-230948949D01*
X113092506Y-230999742D01*
X113024684Y-231016535D01*
X112958550Y-230993995D01*
X112919516Y-230948945D01*
X112915050Y-230940181D01*
X112790109Y-230768212D01*
X112639786Y-230617889D01*
X112467820Y-230492950D01*
X112278414Y-230396443D01*
X112278413Y-230396442D01*
X112278412Y-230396442D01*
X112076243Y-230330753D01*
X112076241Y-230330752D01*
X112076240Y-230330752D01*
X111914957Y-230305207D01*
X111866287Y-230297499D01*
X111653713Y-230297499D01*
X111605042Y-230305207D01*
X111443760Y-230330752D01*
X111241585Y-230396443D01*
X111052179Y-230492950D01*
X110880213Y-230617889D01*
X110729890Y-230768212D01*
X110604948Y-230940183D01*
X110604946Y-230940186D01*
X110600481Y-230948949D01*
X110552505Y-230999743D01*
X110484683Y-231016536D01*
X110418549Y-230993996D01*
X110379513Y-230948943D01*
X110375051Y-230940185D01*
X110375049Y-230940182D01*
X110375048Y-230940180D01*
X110250109Y-230768214D01*
X110099786Y-230617891D01*
X109927820Y-230492952D01*
X109738414Y-230396445D01*
X109738413Y-230396444D01*
X109738412Y-230396444D01*
X109536243Y-230330755D01*
X109536241Y-230330754D01*
X109536240Y-230330754D01*
X109374957Y-230305209D01*
X109326287Y-230297501D01*
X109113713Y-230297501D01*
X109065042Y-230305209D01*
X108903760Y-230330754D01*
X108701585Y-230396445D01*
X108512179Y-230492952D01*
X108340213Y-230617891D01*
X108189890Y-230768214D01*
X108064948Y-230940184D01*
X108060482Y-230948950D01*
X108012506Y-230999743D01*
X107944684Y-231016536D01*
X107878550Y-230993996D01*
X107839516Y-230948946D01*
X107835050Y-230940182D01*
X107710109Y-230768213D01*
X107559786Y-230617890D01*
X107387820Y-230492951D01*
X107198414Y-230396444D01*
X107198413Y-230396443D01*
X107198412Y-230396443D01*
X106996243Y-230330754D01*
X106996241Y-230330753D01*
X106996240Y-230330753D01*
X106834957Y-230305208D01*
X106786287Y-230297500D01*
X106573713Y-230297500D01*
X106525042Y-230305208D01*
X106363760Y-230330753D01*
X106161585Y-230396444D01*
X105972179Y-230492951D01*
X105800213Y-230617890D01*
X105649890Y-230768213D01*
X105524949Y-230940182D01*
X105520484Y-230948946D01*
X105472509Y-230999742D01*
X105404688Y-231016536D01*
X105338553Y-230993998D01*
X105299516Y-230948946D01*
X105295050Y-230940182D01*
X105170109Y-230768213D01*
X105019786Y-230617890D01*
X104847820Y-230492951D01*
X104658414Y-230396444D01*
X104658413Y-230396443D01*
X104658412Y-230396443D01*
X104456243Y-230330754D01*
X104456241Y-230330753D01*
X104456240Y-230330753D01*
X104294957Y-230305208D01*
X104246287Y-230297500D01*
X104033713Y-230297500D01*
X103985042Y-230305208D01*
X103823760Y-230330753D01*
X103621585Y-230396444D01*
X103432179Y-230492951D01*
X103260213Y-230617890D01*
X103109890Y-230768213D01*
X102984951Y-230940179D01*
X102888444Y-231129585D01*
X102822753Y-231331760D01*
X102789500Y-231541713D01*
X102789500Y-231754286D01*
X102822753Y-231964239D01*
X102888444Y-232166414D01*
X102984951Y-232355820D01*
X103109890Y-232527786D01*
X103223430Y-232641326D01*
X103256915Y-232702649D01*
X103251931Y-232772341D01*
X103210059Y-232828274D01*
X103179083Y-232845189D01*
X103047669Y-232894203D01*
X103047664Y-232894206D01*
X102932455Y-232980452D01*
X102932452Y-232980455D01*
X102846206Y-233095664D01*
X102846202Y-233095671D01*
X102795908Y-233230517D01*
X102789501Y-233290116D01*
X102789501Y-233290123D01*
X102789500Y-233290135D01*
X102789500Y-235085870D01*
X102789501Y-235085876D01*
X102795908Y-235145483D01*
X102846202Y-235280328D01*
X102846206Y-235280335D01*
X102932452Y-235395544D01*
X102932455Y-235395547D01*
X103047664Y-235481793D01*
X103047671Y-235481797D01*
X103179082Y-235530810D01*
X103235016Y-235572681D01*
X103259433Y-235638145D01*
X103244582Y-235706418D01*
X103223431Y-235734673D01*
X103109889Y-235848215D01*
X102984951Y-236020179D01*
X102888444Y-236209585D01*
X102822753Y-236411760D01*
X102789500Y-236621713D01*
X102789500Y-236834286D01*
X102822753Y-237044239D01*
X102888444Y-237246414D01*
X102984951Y-237435820D01*
X103109890Y-237607786D01*
X103260213Y-237758109D01*
X103432182Y-237883050D01*
X103440946Y-237887516D01*
X103491742Y-237935491D01*
X103508536Y-238003312D01*
X103485998Y-238069447D01*
X103440946Y-238108484D01*
X103432182Y-238112949D01*
X103260213Y-238237890D01*
X103109890Y-238388213D01*
X102984951Y-238560179D01*
X102888444Y-238749585D01*
X102822753Y-238951760D01*
X102789500Y-239161713D01*
X102789500Y-239374286D01*
X102819448Y-239563374D01*
X102822754Y-239584243D01*
X102868909Y-239726294D01*
X102888444Y-239786414D01*
X102984951Y-239975820D01*
X103109890Y-240147786D01*
X103260213Y-240298109D01*
X103432182Y-240423050D01*
X103440946Y-240427516D01*
X103491742Y-240475491D01*
X103508536Y-240543312D01*
X103485998Y-240609447D01*
X103440946Y-240648484D01*
X103432182Y-240652949D01*
X103260213Y-240777890D01*
X103109890Y-240928213D01*
X102984951Y-241100179D01*
X102888444Y-241289585D01*
X102822753Y-241491760D01*
X102789500Y-241701713D01*
X102789500Y-241914286D01*
X102806432Y-242021194D01*
X102822754Y-242124243D01*
X102881175Y-242304045D01*
X102888444Y-242326414D01*
X102984951Y-242515820D01*
X103109890Y-242687786D01*
X103260213Y-242838109D01*
X103432182Y-242963050D01*
X103440946Y-242967516D01*
X103491742Y-243015491D01*
X103508536Y-243083312D01*
X103485998Y-243149447D01*
X103440946Y-243188484D01*
X103432182Y-243192949D01*
X103260213Y-243317890D01*
X103109890Y-243468213D01*
X102984951Y-243640179D01*
X102888444Y-243829585D01*
X102822753Y-244031760D01*
X102789500Y-244241713D01*
X102789500Y-244454286D01*
X102810274Y-244585452D01*
X102822754Y-244664243D01*
X102883829Y-244852213D01*
X102888444Y-244866414D01*
X102984951Y-245055820D01*
X103109890Y-245227786D01*
X103223430Y-245341326D01*
X103256915Y-245402649D01*
X103251931Y-245472341D01*
X103210059Y-245528274D01*
X103179083Y-245545189D01*
X103047669Y-245594203D01*
X103047664Y-245594206D01*
X102932455Y-245680452D01*
X102932452Y-245680455D01*
X102846206Y-245795664D01*
X102846202Y-245795671D01*
X102795908Y-245930517D01*
X102791169Y-245974600D01*
X102789501Y-245990123D01*
X102789500Y-245990135D01*
X102789500Y-247785870D01*
X102789501Y-247785876D01*
X102795908Y-247845483D01*
X102846202Y-247980328D01*
X102846203Y-247980330D01*
X102874402Y-248017999D01*
X102894227Y-248044482D01*
X102910062Y-248065634D01*
X102934479Y-248131098D01*
X102919628Y-248199371D01*
X102870223Y-248248777D01*
X102810720Y-248263945D01*
X98332870Y-248261221D01*
X98265842Y-248241496D01*
X98220119Y-248188664D01*
X98218404Y-248184721D01*
X98183224Y-248099788D01*
X98061936Y-247889711D01*
X97982261Y-247785876D01*
X97914266Y-247697263D01*
X97914260Y-247697256D01*
X97742743Y-247525739D01*
X97742736Y-247525733D01*
X97550293Y-247378067D01*
X97550292Y-247378066D01*
X97550289Y-247378064D01*
X97340212Y-247256776D01*
X97340205Y-247256773D01*
X97116104Y-247163947D01*
X96998944Y-247132554D01*
X96881789Y-247101162D01*
X96881788Y-247101161D01*
X96881785Y-247101161D01*
X96641289Y-247069500D01*
X96641288Y-247069500D01*
X96398712Y-247069500D01*
X96398711Y-247069500D01*
X96158214Y-247101161D01*
X95923895Y-247163947D01*
X95699794Y-247256773D01*
X95699785Y-247256777D01*
X95489706Y-247378067D01*
X95297263Y-247525733D01*
X95297256Y-247525739D01*
X95125739Y-247697256D01*
X95125733Y-247697263D01*
X94978067Y-247889706D01*
X94856780Y-248099779D01*
X94856775Y-248099788D01*
X94822527Y-248182469D01*
X94778685Y-248236872D01*
X94712391Y-248258936D01*
X94707892Y-248259015D01*
X92885382Y-248257907D01*
X92818354Y-248238182D01*
X92772631Y-248185350D01*
X92761457Y-248134124D01*
X92761343Y-248069234D01*
X92728741Y-229448822D01*
X122816499Y-229448822D01*
X122850374Y-229619118D01*
X122850377Y-229619128D01*
X122916821Y-229779540D01*
X122916828Y-229779553D01*
X123013293Y-229923922D01*
X123013296Y-229923926D01*
X123136073Y-230046703D01*
X123136077Y-230046706D01*
X123280446Y-230143171D01*
X123280459Y-230143178D01*
X123440871Y-230209622D01*
X123440876Y-230209624D01*
X123440880Y-230209624D01*
X123440881Y-230209625D01*
X123611177Y-230243500D01*
X123611180Y-230243500D01*
X123784822Y-230243500D01*
X123899394Y-230220709D01*
X123955124Y-230209624D01*
X124115547Y-230143175D01*
X124259923Y-230046706D01*
X124382706Y-229923923D01*
X124479175Y-229779547D01*
X124545624Y-229619124D01*
X124579500Y-229448820D01*
X124579500Y-229275180D01*
X124579500Y-229275177D01*
X124545625Y-229104881D01*
X124545624Y-229104880D01*
X124545624Y-229104876D01*
X124545622Y-229104871D01*
X124479178Y-228944459D01*
X124479171Y-228944446D01*
X124382706Y-228800077D01*
X124382703Y-228800073D01*
X124259926Y-228677296D01*
X124259922Y-228677293D01*
X124115553Y-228580828D01*
X124115540Y-228580821D01*
X123955128Y-228514377D01*
X123955118Y-228514374D01*
X123784822Y-228480500D01*
X123784820Y-228480500D01*
X123611180Y-228480500D01*
X123611178Y-228480500D01*
X123440881Y-228514374D01*
X123440871Y-228514377D01*
X123280459Y-228580821D01*
X123280446Y-228580828D01*
X123136077Y-228677293D01*
X123136073Y-228677296D01*
X123013296Y-228800073D01*
X123013293Y-228800077D01*
X122916828Y-228944446D01*
X122916821Y-228944459D01*
X122850377Y-229104871D01*
X122850374Y-229104881D01*
X122816500Y-229275177D01*
X122816500Y-229275180D01*
X122816500Y-229448820D01*
X122816500Y-229448822D01*
X122816499Y-229448822D01*
X92728741Y-229448822D01*
X92724223Y-226868429D01*
X112847000Y-226868429D01*
X112847000Y-227029570D01*
X112878433Y-227187594D01*
X112878435Y-227187602D01*
X112940096Y-227336466D01*
X113029619Y-227470447D01*
X113143552Y-227584380D01*
X113277533Y-227673903D01*
X113351965Y-227704733D01*
X113426398Y-227735565D01*
X113584429Y-227766999D01*
X113584433Y-227767000D01*
X113584434Y-227767000D01*
X113745567Y-227767000D01*
X113745568Y-227766999D01*
X113903602Y-227735565D01*
X114052468Y-227673902D01*
X114186445Y-227584382D01*
X114300382Y-227470445D01*
X114389902Y-227336468D01*
X114451565Y-227187602D01*
X114483000Y-227029566D01*
X114483000Y-226868434D01*
X114451565Y-226710398D01*
X114420733Y-226635965D01*
X114389903Y-226561533D01*
X114300380Y-226427552D01*
X114186447Y-226313619D01*
X114052466Y-226224096D01*
X113903602Y-226162435D01*
X113903594Y-226162433D01*
X113745570Y-226131000D01*
X113745566Y-226131000D01*
X113584434Y-226131000D01*
X113584429Y-226131000D01*
X113426405Y-226162433D01*
X113426397Y-226162435D01*
X113277533Y-226224096D01*
X113143552Y-226313619D01*
X113029619Y-226427552D01*
X112940096Y-226561533D01*
X112878435Y-226710397D01*
X112878433Y-226710405D01*
X112847000Y-226868429D01*
X92724223Y-226868429D01*
X92710217Y-218869015D01*
X92729784Y-218801943D01*
X92782508Y-218756096D01*
X92834217Y-218744800D01*
X96012000Y-218744800D01*
X96012000Y-219710000D01*
G37*
%TD.AperFunction*%
%TA.AperFunction,Conductor*%
G36*
X118181444Y-232301999D02*
G01*
X118220484Y-232347054D01*
X118224591Y-232355115D01*
X118224951Y-232355820D01*
X118349890Y-232527786D01*
X118500213Y-232678109D01*
X118672182Y-232803050D01*
X118680946Y-232807516D01*
X118731742Y-232855491D01*
X118748536Y-232923312D01*
X118725998Y-232989447D01*
X118680946Y-233028484D01*
X118672182Y-233032949D01*
X118500213Y-233157890D01*
X118349890Y-233308213D01*
X118224951Y-233480179D01*
X118128444Y-233669585D01*
X118062753Y-233871760D01*
X118029500Y-234081713D01*
X118029500Y-234294286D01*
X118062753Y-234504239D01*
X118128444Y-234706414D01*
X118224951Y-234895820D01*
X118349890Y-235067786D01*
X118500213Y-235218109D01*
X118672182Y-235343050D01*
X118680946Y-235347516D01*
X118731742Y-235395491D01*
X118748536Y-235463312D01*
X118725998Y-235529447D01*
X118680946Y-235568484D01*
X118672182Y-235572949D01*
X118500213Y-235697890D01*
X118349890Y-235848213D01*
X118224951Y-236020179D01*
X118128444Y-236209585D01*
X118062753Y-236411760D01*
X118029500Y-236621713D01*
X118029500Y-236834286D01*
X118062753Y-237044239D01*
X118128444Y-237246414D01*
X118224951Y-237435820D01*
X118349890Y-237607786D01*
X118463430Y-237721326D01*
X118496915Y-237782649D01*
X118491931Y-237852341D01*
X118450059Y-237908274D01*
X118419083Y-237925189D01*
X118287669Y-237974203D01*
X118287664Y-237974206D01*
X118172455Y-238060452D01*
X118172452Y-238060455D01*
X118086206Y-238175664D01*
X118086202Y-238175671D01*
X118035908Y-238310517D01*
X118029501Y-238370116D01*
X118029501Y-238370123D01*
X118029500Y-238370135D01*
X118029500Y-240165870D01*
X118029501Y-240165876D01*
X118035908Y-240225483D01*
X118086202Y-240360328D01*
X118086206Y-240360335D01*
X118172452Y-240475544D01*
X118172455Y-240475547D01*
X118287664Y-240561793D01*
X118287671Y-240561797D01*
X118419082Y-240610810D01*
X118475016Y-240652681D01*
X118499433Y-240718145D01*
X118484582Y-240786418D01*
X118463431Y-240814673D01*
X118349889Y-240928215D01*
X118224951Y-241100179D01*
X118128444Y-241289585D01*
X118062753Y-241491760D01*
X118029500Y-241701713D01*
X118029500Y-241914286D01*
X118046432Y-242021194D01*
X118062754Y-242124243D01*
X118121175Y-242304045D01*
X118128444Y-242326414D01*
X118224951Y-242515820D01*
X118349890Y-242687786D01*
X118500213Y-242838109D01*
X118672182Y-242963050D01*
X118680946Y-242967516D01*
X118731742Y-243015491D01*
X118748536Y-243083312D01*
X118725998Y-243149447D01*
X118680946Y-243188484D01*
X118672182Y-243192949D01*
X118500213Y-243317890D01*
X118349890Y-243468213D01*
X118224951Y-243640179D01*
X118128444Y-243829585D01*
X118062753Y-244031760D01*
X118029500Y-244241713D01*
X118029500Y-244454286D01*
X118050274Y-244585452D01*
X118062754Y-244664243D01*
X118123829Y-244852213D01*
X118128444Y-244866414D01*
X118224951Y-245055820D01*
X118349890Y-245227786D01*
X118500213Y-245378109D01*
X118672179Y-245503048D01*
X118672181Y-245503049D01*
X118672184Y-245503051D01*
X118681493Y-245507794D01*
X118732290Y-245555766D01*
X118749087Y-245623587D01*
X118726552Y-245689722D01*
X118681502Y-245728762D01*
X118672443Y-245733378D01*
X118500540Y-245858272D01*
X118500535Y-245858276D01*
X118350276Y-246008535D01*
X118350272Y-246008540D01*
X118225379Y-246180442D01*
X118128904Y-246369782D01*
X118063242Y-246571870D01*
X118063242Y-246571873D01*
X118052769Y-246638000D01*
X118935440Y-246638000D01*
X118904755Y-246691147D01*
X118870000Y-246820857D01*
X118870000Y-246955143D01*
X118904755Y-247084853D01*
X118935440Y-247138000D01*
X118052769Y-247138000D01*
X118063242Y-247204126D01*
X118063242Y-247204129D01*
X118128904Y-247406217D01*
X118225379Y-247595557D01*
X118350272Y-247767459D01*
X118350276Y-247767464D01*
X118500535Y-247917723D01*
X118500540Y-247917727D01*
X118672442Y-248042621D01*
X118674412Y-248043828D01*
X118675003Y-248044482D01*
X118676387Y-248045487D01*
X118676175Y-248045777D01*
X118721290Y-248095637D01*
X118732715Y-248164566D01*
X118705061Y-248228730D01*
X118647108Y-248267758D01*
X118609552Y-248273558D01*
X105467918Y-248265562D01*
X105400890Y-248245837D01*
X105355167Y-248193005D01*
X105345266Y-248123840D01*
X105368725Y-248067254D01*
X105433796Y-247980331D01*
X105484091Y-247845483D01*
X105490500Y-247785873D01*
X105490499Y-245990128D01*
X105484091Y-245930517D01*
X105457145Y-245858272D01*
X105433797Y-245795671D01*
X105433793Y-245795664D01*
X105347547Y-245680455D01*
X105347544Y-245680452D01*
X105232335Y-245594206D01*
X105232328Y-245594202D01*
X105100917Y-245545189D01*
X105044983Y-245503318D01*
X105020566Y-245437853D01*
X105035418Y-245369580D01*
X105056563Y-245341332D01*
X105170104Y-245227792D01*
X105295051Y-245055816D01*
X105391557Y-244866412D01*
X105457246Y-244664243D01*
X105490500Y-244454287D01*
X105490500Y-244241713D01*
X105457246Y-244031757D01*
X105391557Y-243829588D01*
X105295051Y-243640184D01*
X105295049Y-243640181D01*
X105295048Y-243640179D01*
X105170109Y-243468213D01*
X105019786Y-243317890D01*
X104847820Y-243192951D01*
X104847115Y-243192591D01*
X104839054Y-243188485D01*
X104788259Y-243140512D01*
X104771463Y-243072692D01*
X104793999Y-243006556D01*
X104839054Y-242967515D01*
X104847816Y-242963051D01*
X104869789Y-242947086D01*
X105019786Y-242838109D01*
X105019788Y-242838106D01*
X105019792Y-242838104D01*
X105170104Y-242687792D01*
X105170106Y-242687788D01*
X105170109Y-242687786D01*
X105295048Y-242515820D01*
X105295047Y-242515820D01*
X105295051Y-242515816D01*
X105391557Y-242326412D01*
X105457246Y-242124243D01*
X105490500Y-241914287D01*
X105490500Y-241701713D01*
X105457246Y-241491757D01*
X105391557Y-241289588D01*
X105295051Y-241100184D01*
X105295049Y-241100181D01*
X105295048Y-241100179D01*
X105170109Y-240928213D01*
X105019786Y-240777890D01*
X104847820Y-240652951D01*
X104847115Y-240652591D01*
X104839054Y-240648485D01*
X104788259Y-240600512D01*
X104771463Y-240532692D01*
X104793999Y-240466556D01*
X104839054Y-240427515D01*
X104847816Y-240423051D01*
X104934138Y-240360335D01*
X105019786Y-240298109D01*
X105019788Y-240298106D01*
X105019792Y-240298104D01*
X105170104Y-240147792D01*
X105170106Y-240147788D01*
X105170109Y-240147786D01*
X105295048Y-239975820D01*
X105295047Y-239975820D01*
X105295051Y-239975816D01*
X105391557Y-239786412D01*
X105457246Y-239584243D01*
X105490500Y-239374287D01*
X105490500Y-239161713D01*
X105457246Y-238951757D01*
X105391557Y-238749588D01*
X105295051Y-238560184D01*
X105295049Y-238560181D01*
X105295048Y-238560179D01*
X105170109Y-238388213D01*
X105019786Y-238237890D01*
X104847820Y-238112951D01*
X104847115Y-238112591D01*
X104839054Y-238108485D01*
X104788259Y-238060512D01*
X104771463Y-237992692D01*
X104793999Y-237926556D01*
X104839054Y-237887515D01*
X104847816Y-237883051D01*
X104937554Y-237817853D01*
X105019786Y-237758109D01*
X105019788Y-237758106D01*
X105019792Y-237758104D01*
X105170104Y-237607792D01*
X105170106Y-237607788D01*
X105170109Y-237607786D01*
X105295048Y-237435820D01*
X105295047Y-237435820D01*
X105295051Y-237435816D01*
X105391557Y-237246412D01*
X105457246Y-237044243D01*
X105490500Y-236834287D01*
X105490500Y-236621713D01*
X105457246Y-236411757D01*
X105391557Y-236209588D01*
X105295051Y-236020184D01*
X105295049Y-236020181D01*
X105295048Y-236020179D01*
X105170109Y-235848213D01*
X105056569Y-235734673D01*
X105023084Y-235673350D01*
X105028068Y-235603658D01*
X105069940Y-235547725D01*
X105100915Y-235530810D01*
X105232331Y-235481796D01*
X105347546Y-235395546D01*
X105433796Y-235280331D01*
X105484091Y-235145483D01*
X105490500Y-235085873D01*
X105490499Y-233290128D01*
X105484091Y-233230517D01*
X105433796Y-233095669D01*
X105433795Y-233095668D01*
X105433793Y-233095664D01*
X105347547Y-232980455D01*
X105347544Y-232980452D01*
X105232335Y-232894206D01*
X105232328Y-232894202D01*
X105100917Y-232845189D01*
X105044983Y-232803318D01*
X105020566Y-232737853D01*
X105035418Y-232669580D01*
X105056563Y-232641332D01*
X105170104Y-232527792D01*
X105295051Y-232355816D01*
X105299514Y-232347054D01*
X105347488Y-232296259D01*
X105415308Y-232279463D01*
X105481444Y-232301999D01*
X105520484Y-232347054D01*
X105524591Y-232355115D01*
X105524951Y-232355820D01*
X105649890Y-232527786D01*
X105800213Y-232678109D01*
X105972179Y-232803048D01*
X105972181Y-232803049D01*
X105972184Y-232803051D01*
X106161588Y-232899557D01*
X106363757Y-232965246D01*
X106573713Y-232998500D01*
X106573714Y-232998500D01*
X106786286Y-232998500D01*
X106786287Y-232998500D01*
X106996243Y-232965246D01*
X107198412Y-232899557D01*
X107387816Y-232803051D01*
X107477554Y-232737853D01*
X107559786Y-232678109D01*
X107559788Y-232678106D01*
X107559792Y-232678104D01*
X107710104Y-232527792D01*
X107710108Y-232527787D01*
X107710109Y-232527786D01*
X107835048Y-232355820D01*
X107835050Y-232355817D01*
X107835051Y-232355816D01*
X107839512Y-232347058D01*
X107887483Y-232296262D01*
X107955303Y-232279464D01*
X108021440Y-232301998D01*
X108060481Y-232347051D01*
X108064946Y-232355813D01*
X108064948Y-232355816D01*
X108189890Y-232527787D01*
X108340213Y-232678110D01*
X108512179Y-232803049D01*
X108512181Y-232803050D01*
X108512184Y-232803052D01*
X108701588Y-232899558D01*
X108903757Y-232965247D01*
X109113713Y-232998501D01*
X109113714Y-232998501D01*
X109326286Y-232998501D01*
X109326287Y-232998501D01*
X109536243Y-232965247D01*
X109738412Y-232899558D01*
X109927816Y-232803052D01*
X109970086Y-232772341D01*
X110099786Y-232678110D01*
X110099788Y-232678107D01*
X110099792Y-232678105D01*
X110250104Y-232527793D01*
X110250106Y-232527789D01*
X110250109Y-232527787D01*
X110375048Y-232355822D01*
X110375051Y-232355817D01*
X110379513Y-232347057D01*
X110427484Y-232296261D01*
X110495304Y-232279463D01*
X110561440Y-232301997D01*
X110600484Y-232347053D01*
X110604949Y-232355816D01*
X110729890Y-232527785D01*
X110880213Y-232678108D01*
X111052179Y-232803047D01*
X111052181Y-232803048D01*
X111052184Y-232803050D01*
X111241588Y-232899556D01*
X111443757Y-232965245D01*
X111653713Y-232998499D01*
X111653714Y-232998499D01*
X111866286Y-232998499D01*
X111866287Y-232998499D01*
X112076243Y-232965245D01*
X112278412Y-232899556D01*
X112467816Y-232803050D01*
X112557553Y-232737853D01*
X112639786Y-232678108D01*
X112639788Y-232678105D01*
X112639792Y-232678103D01*
X112790104Y-232527791D01*
X112790108Y-232527786D01*
X112790109Y-232527785D01*
X112915048Y-232355819D01*
X112915047Y-232355819D01*
X112915051Y-232355815D01*
X112919512Y-232347057D01*
X112967483Y-232296261D01*
X113035303Y-232279463D01*
X113101440Y-232301997D01*
X113140481Y-232347050D01*
X113144946Y-232355812D01*
X113144948Y-232355815D01*
X113269890Y-232527786D01*
X113420213Y-232678109D01*
X113592179Y-232803048D01*
X113592181Y-232803049D01*
X113592184Y-232803051D01*
X113781588Y-232899557D01*
X113983757Y-232965246D01*
X114193713Y-232998500D01*
X114193714Y-232998500D01*
X114406286Y-232998500D01*
X114406287Y-232998500D01*
X114616243Y-232965246D01*
X114818412Y-232899557D01*
X115007816Y-232803051D01*
X115097554Y-232737853D01*
X115179786Y-232678109D01*
X115179788Y-232678106D01*
X115179792Y-232678104D01*
X115330104Y-232527792D01*
X115330108Y-232527787D01*
X115330109Y-232527786D01*
X115455048Y-232355820D01*
X115455050Y-232355817D01*
X115455051Y-232355816D01*
X115459514Y-232347054D01*
X115507488Y-232296259D01*
X115575308Y-232279463D01*
X115641444Y-232301999D01*
X115680484Y-232347054D01*
X115684591Y-232355115D01*
X115684951Y-232355820D01*
X115809890Y-232527786D01*
X115960213Y-232678109D01*
X116132179Y-232803048D01*
X116132181Y-232803049D01*
X116132184Y-232803051D01*
X116321588Y-232899557D01*
X116523757Y-232965246D01*
X116733713Y-232998500D01*
X116733714Y-232998500D01*
X116946286Y-232998500D01*
X116946287Y-232998500D01*
X117156243Y-232965246D01*
X117358412Y-232899557D01*
X117547816Y-232803051D01*
X117637554Y-232737853D01*
X117719786Y-232678109D01*
X117719788Y-232678106D01*
X117719792Y-232678104D01*
X117870104Y-232527792D01*
X117870108Y-232527787D01*
X117870109Y-232527786D01*
X117995048Y-232355820D01*
X117995050Y-232355817D01*
X117995051Y-232355816D01*
X117999514Y-232347054D01*
X118047488Y-232296259D01*
X118115308Y-232279463D01*
X118181444Y-232301999D01*
G37*
%TD.AperFunction*%
%TD*%
M02*
