%TF.GenerationSoftware,KiCad,Pcbnew,9.0.6*%
%TF.CreationDate,2025-11-25T21:23:55-08:00*%
%TF.ProjectId,SD-ZMB,53442d5a-4d42-42e6-9b69-6361645f7063,PR8.2*%
%TF.SameCoordinates,Original*%
%TF.FileFunction,Other,User*%
%FSLAX46Y46*%
G04 Gerber Fmt 4.6, Leading zero omitted, Abs format (unit mm)*
G04 Created by KiCad (PCBNEW 9.0.6) date 2025-11-25 21:23:55*
%MOMM*%
%LPD*%
G01*
G04 APERTURE LIST*
%ADD10C,0.050000*%
%ADD11C,0.120000*%
G04 APERTURE END LIST*
%TO.C,SPARE1*%
D10*
X300285600Y-208032000D02*
X313241400Y-208032000D01*
X313241400Y-228852000D01*
X300285600Y-228852000D01*
X300285600Y-208032000D01*
%TO.C,DISP1*%
X185765000Y-251460000D02*
X185765000Y-247910000D01*
X242665000Y-251460000D02*
X185765000Y-251460000D01*
X185765000Y-247910000D02*
X242665000Y-247910000D01*
X242665000Y-247910000D02*
X242665000Y-251460000D01*
%TO.C,SPARE3*%
X282528200Y-252007000D02*
X303703800Y-252007000D01*
X303703800Y-242277000D01*
X282528200Y-242277000D01*
X282528200Y-252007000D01*
%TO.C,SPARE2*%
X282528200Y-239361969D02*
X303703800Y-239361969D01*
X303703800Y-229631969D01*
X282528200Y-229631969D01*
X282528200Y-239361969D01*
%TO.C,C32*%
X120110000Y-213658000D02*
X120110000Y-216618000D01*
X118650000Y-213658000D02*
X120110000Y-213658000D01*
X120110000Y-216618000D02*
X118650000Y-216618000D01*
X118650000Y-216618000D02*
X118650000Y-213658000D01*
%TO.C,D5*%
X158050000Y-224175000D02*
X159450000Y-224175000D01*
X158050000Y-226675000D02*
X158050000Y-224175000D01*
X159450000Y-224175000D02*
X159450000Y-226675000D01*
X159450000Y-226675000D02*
X158050000Y-226675000D01*
%TO.C,H3*%
X313330000Y-99060000D02*
G75*
G02*
X306430000Y-99060000I-3450000J0D01*
G01*
X306430000Y-99060000D02*
G75*
G02*
X313330000Y-99060000I3450000J0D01*
G01*
%TO.C,C6*%
X157543600Y-240157000D02*
G75*
G02*
X153043600Y-240157000I-2250000J0D01*
G01*
X153043600Y-240157000D02*
G75*
G02*
X157543600Y-240157000I2250000J0D01*
G01*
%TO.C,RN4*%
X105715000Y-130090000D02*
X105715000Y-133210000D01*
X105715000Y-133210000D02*
X129235000Y-133210000D01*
X129235000Y-130090000D02*
X105715000Y-130090000D01*
X129235000Y-133210000D02*
X129235000Y-130090000D01*
%TO.C,U4*%
X126540000Y-137880000D02*
X128040000Y-137880000D01*
X126540000Y-146600000D02*
X126540000Y-137880000D01*
X128040000Y-137660000D02*
X132440000Y-137660000D01*
X128040000Y-137880000D02*
X128040000Y-137660000D01*
X128040000Y-146600000D02*
X126540000Y-146600000D01*
X128040000Y-146820000D02*
X128040000Y-146600000D01*
X132440000Y-137660000D02*
X132440000Y-137880000D01*
X132440000Y-137880000D02*
X133940000Y-137880000D01*
X132440000Y-146600000D02*
X132440000Y-146820000D01*
X132440000Y-146820000D02*
X128040000Y-146820000D01*
X133940000Y-137880000D02*
X133940000Y-146600000D01*
X133940000Y-146600000D02*
X132440000Y-146600000D01*
%TO.C,C26*%
X167684000Y-147352000D02*
X170644000Y-147352000D01*
X167684000Y-148812000D02*
X167684000Y-147352000D01*
X170644000Y-147352000D02*
X170644000Y-148812000D01*
X170644000Y-148812000D02*
X167684000Y-148812000D01*
%TO.C,D6*%
X123002000Y-249250000D02*
X124902000Y-249250000D01*
X123002000Y-253250000D02*
X123002000Y-249250000D01*
X123002000Y-253250000D02*
X124902000Y-253250000D01*
X124902000Y-253250000D02*
X124902000Y-249250000D01*
%TO.C,R36*%
X157292000Y-197710000D02*
X159192000Y-197710000D01*
X157292000Y-201070000D02*
X157292000Y-197710000D01*
X159192000Y-197710000D02*
X159192000Y-201070000D01*
X159192000Y-201070000D02*
X157292000Y-201070000D01*
%TO.C,C27*%
X199676000Y-238296000D02*
X201136000Y-238296000D01*
X199676000Y-241256000D02*
X199676000Y-238296000D01*
X201136000Y-238296000D02*
X201136000Y-241256000D01*
X201136000Y-241256000D02*
X199676000Y-241256000D01*
%TO.C,OP1*%
X149280999Y-204875000D02*
X149280999Y-207875000D01*
X149280999Y-207875000D02*
X156280999Y-207875000D01*
X156280999Y-204875000D02*
X149280999Y-204875000D01*
X156280999Y-207875000D02*
X156280999Y-204875000D01*
%TO.C,U1*%
X280410000Y-134419000D02*
X298710000Y-134419000D01*
X298710000Y-123899000D01*
X280410000Y-123899000D01*
X280410000Y-134419000D01*
%TO.C,U37*%
X121395000Y-215350000D02*
X122895000Y-215350000D01*
X121395000Y-224070000D02*
X121395000Y-215350000D01*
X122895000Y-215130000D02*
X127295000Y-215130000D01*
X122895000Y-215350000D02*
X122895000Y-215130000D01*
X122895000Y-224070000D02*
X121395000Y-224070000D01*
X122895000Y-224290000D02*
X122895000Y-224070000D01*
X127295000Y-215130000D02*
X127295000Y-215350000D01*
X127295000Y-215350000D02*
X128795000Y-215350000D01*
X127295000Y-224070000D02*
X127295000Y-224290000D01*
X127295000Y-224290000D02*
X122895000Y-224290000D01*
X128795000Y-215350000D02*
X128795000Y-224070000D01*
X128795000Y-224070000D02*
X127295000Y-224070000D01*
%TO.C,U21*%
X208660001Y-168990000D02*
X210460000Y-168990000D01*
X208660001Y-181530000D02*
X208660001Y-168990000D01*
X210460000Y-168710000D02*
X216260000Y-168710000D01*
X210460000Y-168990000D02*
X210460000Y-168710000D01*
X210460000Y-181530000D02*
X208660001Y-181530000D01*
X210460000Y-181810000D02*
X210460000Y-181530000D01*
X216260000Y-168710000D02*
X216260000Y-168990000D01*
X216260000Y-168990000D02*
X218059999Y-168990000D01*
X216260000Y-181530000D02*
X216260000Y-181810000D01*
X216260000Y-181810000D02*
X210460000Y-181810000D01*
X218059999Y-168990000D02*
X218059999Y-181530000D01*
X218059999Y-181530000D02*
X216260000Y-181530000D01*
%TO.C,C12*%
X157766000Y-203244000D02*
X159226000Y-203244000D01*
X157766000Y-206204000D02*
X157766000Y-203244000D01*
X159226000Y-203244000D02*
X159226000Y-206204000D01*
X159226000Y-206204000D02*
X157766000Y-206204000D01*
%TO.C,H6*%
X174746679Y-248907865D02*
G75*
G02*
X168846679Y-248907865I-2950000J0D01*
G01*
X168846679Y-248907865D02*
G75*
G02*
X174746679Y-248907865I2950000J0D01*
G01*
%TO.C,C41*%
X275622000Y-140506000D02*
X277082000Y-140506000D01*
X275622000Y-143466000D02*
X275622000Y-140506000D01*
X277082000Y-140506000D02*
X277082000Y-143466000D01*
X277082000Y-143466000D02*
X275622000Y-143466000D01*
%TO.C,J7*%
X267597001Y-117483000D02*
X267597001Y-121023000D01*
X267597001Y-121023000D02*
X276217000Y-121023000D01*
X276217000Y-117483000D02*
X267597001Y-117483000D01*
X276217000Y-121023000D02*
X276217000Y-117483000D01*
%TO.C,U28*%
X147185000Y-195920000D02*
X147405000Y-195920000D01*
X147185000Y-200320000D02*
X147185000Y-195920000D01*
X147405000Y-194420000D02*
X156125000Y-194420000D01*
X147405000Y-195920000D02*
X147405000Y-194420000D01*
X147405000Y-200320000D02*
X147185000Y-200320000D01*
X147405000Y-201820000D02*
X147405000Y-200320000D01*
X156125000Y-194420000D02*
X156125000Y-195920000D01*
X156125000Y-195920000D02*
X156345000Y-195920000D01*
X156125000Y-200320000D02*
X156125000Y-201820000D01*
X156125000Y-201820000D02*
X147405000Y-201820000D01*
X156345000Y-195920000D02*
X156345000Y-200320000D01*
X156345000Y-200320000D02*
X156125000Y-200320000D01*
D11*
%TO.C,M1*%
X264930000Y-93522000D02*
X278630000Y-93522000D01*
X264930000Y-115522000D02*
X264930000Y-93522000D01*
X278630000Y-93522000D02*
X278630000Y-115522000D01*
X278630000Y-115522000D02*
X264930000Y-115522000D01*
D10*
%TO.C,U7*%
X195182000Y-136610000D02*
X196682000Y-136610000D01*
X195182000Y-145330000D02*
X195182000Y-136610000D01*
X196682000Y-136390000D02*
X201082000Y-136390000D01*
X196682000Y-136610000D02*
X196682000Y-136390000D01*
X196682000Y-145330000D02*
X195182000Y-145330000D01*
X196682000Y-145550000D02*
X196682000Y-145330000D01*
X201082000Y-136390000D02*
X201082000Y-136610000D01*
X201082000Y-136610000D02*
X202582000Y-136610000D01*
X201082000Y-145330000D02*
X201082000Y-145550000D01*
X201082000Y-145550000D02*
X196682000Y-145550000D01*
X202582000Y-136610000D02*
X202582000Y-145330000D01*
X202582000Y-145330000D02*
X201082000Y-145330000D01*
%TO.C,U30*%
X179180000Y-198173000D02*
X180680000Y-198173000D01*
X179180000Y-208173000D02*
X179180000Y-198173000D01*
X180680000Y-197973000D02*
X185080000Y-197973000D01*
X180680000Y-198173000D02*
X180680000Y-197973000D01*
X180680000Y-208173000D02*
X179180000Y-208173000D01*
X180680000Y-208373000D02*
X180680000Y-208173000D01*
X185080000Y-197973000D02*
X185080000Y-198173000D01*
X185080000Y-198173000D02*
X186580000Y-198173000D01*
X185080000Y-208173000D02*
X185080000Y-208373000D01*
X185080000Y-208373000D02*
X180680000Y-208373000D01*
X186580000Y-198173000D02*
X186580000Y-208173000D01*
X186580000Y-208173000D02*
X185080000Y-208173000D01*
%TO.C,H1*%
X99970000Y-248920000D02*
G75*
G02*
X93070000Y-248920000I-3450000J0D01*
G01*
X93070000Y-248920000D02*
G75*
G02*
X99970000Y-248920000I3450000J0D01*
G01*
%TO.C,C8*%
X232454000Y-149892000D02*
X235414000Y-149892000D01*
X232454000Y-151352000D02*
X232454000Y-149892000D01*
X235414000Y-149892000D02*
X235414000Y-151352000D01*
X235414000Y-151352000D02*
X232454000Y-151352000D01*
%TO.C,U13*%
X179180000Y-151850000D02*
X180680000Y-151850000D01*
X179180000Y-160570000D02*
X179180000Y-151850000D01*
X180680000Y-151630000D02*
X185080000Y-151630000D01*
X180680000Y-151850000D02*
X180680000Y-151630000D01*
X180680000Y-160570000D02*
X179180000Y-160570000D01*
X180680000Y-160790000D02*
X180680000Y-160570000D01*
X185080000Y-151630000D02*
X185080000Y-151850000D01*
X185080000Y-151850000D02*
X186580000Y-151850000D01*
X185080000Y-160570000D02*
X185080000Y-160790000D01*
X185080000Y-160790000D02*
X180680000Y-160790000D01*
X186580000Y-151850000D02*
X186580000Y-160570000D01*
X186580000Y-160570000D02*
X185080000Y-160570000D01*
%TO.C,U10*%
X107690000Y-151445000D02*
X125990000Y-151445000D01*
X125990000Y-202875000D01*
X107690000Y-202875000D01*
X107690000Y-151445000D01*
%TO.C,C31*%
X197136000Y-205022000D02*
X198596000Y-205022000D01*
X197136000Y-207982000D02*
X197136000Y-205022000D01*
X198596000Y-205022000D02*
X198596000Y-207982000D01*
X198596000Y-207982000D02*
X197136000Y-207982000D01*
%TO.C,C7*%
X214166000Y-189770000D02*
X217126000Y-189770000D01*
X214166000Y-191230000D02*
X214166000Y-189770000D01*
X217126000Y-189770000D02*
X217126000Y-191230000D01*
X217126000Y-191230000D02*
X214166000Y-191230000D01*
%TO.C,J6*%
X249050000Y-117610000D02*
X249050000Y-121150000D01*
X249050000Y-121150000D02*
X255140000Y-121150000D01*
X255140000Y-117610000D02*
X249050000Y-117610000D01*
X255140000Y-121150000D02*
X255140000Y-117610000D01*
%TO.C,U17*%
X242680000Y-151850000D02*
X244180000Y-151850000D01*
X242680000Y-160570000D02*
X242680000Y-151850000D01*
X244180000Y-151630000D02*
X248580000Y-151630000D01*
X244180000Y-151850000D02*
X244180000Y-151630000D01*
X244180000Y-160570000D02*
X242680000Y-160570000D01*
X244180000Y-160790000D02*
X244180000Y-160570000D01*
X248580000Y-151630000D02*
X248580000Y-151850000D01*
X248580000Y-151850000D02*
X250080000Y-151850000D01*
X248580000Y-160570000D02*
X248580000Y-160790000D01*
X248580000Y-160790000D02*
X244180000Y-160790000D01*
X250080000Y-151850000D02*
X250080000Y-160570000D01*
X250080000Y-160570000D02*
X248580000Y-160570000D01*
%TO.C,U32*%
X208660000Y-191850000D02*
X210460000Y-191850000D01*
X208660000Y-204390000D02*
X208660000Y-191850000D01*
X210460000Y-191570000D02*
X216260000Y-191570000D01*
X210460000Y-191850000D02*
X210460000Y-191570000D01*
X210460000Y-204390000D02*
X208660000Y-204390000D01*
X210460000Y-204670000D02*
X210460000Y-204390000D01*
X216260000Y-191570000D02*
X216260000Y-191850000D01*
X216260000Y-191850000D02*
X218060000Y-191850000D01*
X216260000Y-204390000D02*
X216260000Y-204670000D01*
X216260000Y-204670000D02*
X210460000Y-204670000D01*
X218060000Y-191850000D02*
X218060000Y-204390000D01*
X218060000Y-204390000D02*
X216260000Y-204390000D01*
%TO.C,RN1*%
X188305000Y-189535000D02*
X188305000Y-213055000D01*
X188305000Y-213055000D02*
X191425000Y-213055000D01*
X191425000Y-189535000D02*
X188305000Y-189535000D01*
X191425000Y-213055000D02*
X191425000Y-189535000D01*
%TO.C,R6*%
X256860000Y-175866000D02*
X258760000Y-175866000D01*
X256860000Y-179226000D02*
X256860000Y-175866000D01*
X258760000Y-175866000D02*
X258760000Y-179226000D01*
X258760000Y-179226000D02*
X256860000Y-179226000D01*
%TO.C,U5*%
X135955000Y-137545000D02*
X136605000Y-137545000D01*
X135955000Y-145665000D02*
X135955000Y-137545000D01*
X136605000Y-136705000D02*
X154225000Y-136705000D01*
X136605000Y-137545000D02*
X136605000Y-136705000D01*
X136605000Y-145665000D02*
X135955000Y-145665000D01*
X136605000Y-146505000D02*
X136605000Y-145665000D01*
X154225000Y-136705000D02*
X154225000Y-137545000D01*
X154225000Y-137545000D02*
X154875000Y-137545000D01*
X154225000Y-145665000D02*
X154225000Y-146505000D01*
X154225000Y-146505000D02*
X136605000Y-146505000D01*
X154875000Y-137545000D02*
X154875000Y-145665000D01*
X154875000Y-145665000D02*
X154225000Y-145665000D01*
%TO.C,C14*%
X107982000Y-137458000D02*
X109442000Y-137458000D01*
X107982000Y-140418000D02*
X107982000Y-137458000D01*
X109442000Y-137458000D02*
X109442000Y-140418000D01*
X109442000Y-140418000D02*
X107982000Y-140418000D01*
%TO.C,C9*%
X144062000Y-211360000D02*
X147022000Y-211360000D01*
X144062000Y-212820000D02*
X144062000Y-211360000D01*
X147022000Y-211360000D02*
X147022000Y-212820000D01*
X147022000Y-212820000D02*
X144062000Y-212820000D01*
%TO.C,J3*%
X227260000Y-87095331D02*
X227260000Y-106885331D01*
X227260000Y-106885331D02*
X259120000Y-106885331D01*
X259120000Y-87095331D02*
X227260000Y-87095331D01*
X259120000Y-106885331D02*
X259120000Y-87095331D01*
%TO.C,R14*%
X143703000Y-230603000D02*
X145603000Y-230603000D01*
X143703000Y-233963000D02*
X143703000Y-230603000D01*
X145603000Y-230603000D02*
X145603000Y-233963000D01*
X145603000Y-233963000D02*
X143703000Y-233963000D01*
%TO.C,OP4*%
X145756999Y-218337000D02*
X145756999Y-223337000D01*
X145756999Y-223337000D02*
X152756999Y-223337000D01*
X152756999Y-218337000D02*
X145756999Y-218337000D01*
X152756999Y-223337000D02*
X152756999Y-218337000D01*
%TO.C,SW2*%
X292379000Y-93966000D02*
X306379000Y-93966000D01*
X306379000Y-111566000D01*
X292379000Y-111566000D01*
X292379000Y-93966000D01*
%TO.C,U31*%
X196595001Y-191850000D02*
X198395000Y-191850000D01*
X196595001Y-204390000D02*
X196595001Y-191850000D01*
X198395000Y-191570000D02*
X204195000Y-191570000D01*
X198395000Y-191850000D02*
X198395000Y-191570000D01*
X198395000Y-204390000D02*
X196595001Y-204390000D01*
X198395000Y-204670000D02*
X198395000Y-204390000D01*
X204195000Y-191570000D02*
X204195000Y-191850000D01*
X204195000Y-191850000D02*
X205994999Y-191850000D01*
X204195000Y-204390000D02*
X204195000Y-204670000D01*
X204195000Y-204670000D02*
X198395000Y-204670000D01*
X205994999Y-191850000D02*
X205994999Y-204390000D01*
X205994999Y-204390000D02*
X204195000Y-204390000D01*
%TO.C,D2*%
X153155000Y-249250000D02*
X153155000Y-253670000D01*
X153155000Y-253670000D02*
X157995000Y-253670000D01*
X157995000Y-249250000D02*
X153155000Y-249250000D01*
X157995000Y-253670000D02*
X157995000Y-249250000D01*
%TO.C,J9*%
X95863000Y-205337000D02*
X99413000Y-205337000D01*
X95863000Y-216537000D02*
X95863000Y-205337000D01*
X99413000Y-205337000D02*
X99413000Y-216537000D01*
X99413000Y-216537000D02*
X95863000Y-216537000D01*
%TO.C,H5*%
X312727694Y-151929173D02*
G75*
G02*
X306827694Y-151929173I-2950000J0D01*
G01*
X306827694Y-151929173D02*
G75*
G02*
X312727694Y-151929173I2950000J0D01*
G01*
%TO.C,R17*%
X259400000Y-151990000D02*
X261300000Y-151990000D01*
X259400000Y-155350000D02*
X259400000Y-151990000D01*
X261300000Y-151990000D02*
X261300000Y-155350000D01*
X261300000Y-155350000D02*
X259400000Y-155350000D01*
%TO.C,R29*%
X168754000Y-237048000D02*
X172114000Y-237048000D01*
X168754000Y-238948000D02*
X168754000Y-237048000D01*
X172114000Y-237048000D02*
X172114000Y-238948000D01*
X172114000Y-238948000D02*
X168754000Y-238948000D01*
%TO.C,RN3*%
X222595000Y-169850000D02*
X222595000Y-193370000D01*
X222595000Y-193370000D02*
X225715000Y-193370000D01*
X225715000Y-169850000D02*
X222595000Y-169850000D01*
X225715000Y-193370000D02*
X225715000Y-169850000D01*
%TO.C,R1*%
X150815000Y-245589000D02*
X152715000Y-245589000D01*
X150815000Y-248949000D02*
X150815000Y-245589000D01*
X152715000Y-245589000D02*
X152715000Y-248949000D01*
X152715000Y-248949000D02*
X150815000Y-248949000D01*
%TO.C,C23*%
X191560000Y-144304000D02*
X194520000Y-144304000D01*
X191560000Y-145764000D02*
X191560000Y-144304000D01*
X194520000Y-144304000D02*
X194520000Y-145764000D01*
X194520000Y-145764000D02*
X191560000Y-145764000D01*
%TO.C,R10*%
X267147000Y-151990000D02*
X269047000Y-151990000D01*
X267147000Y-155350000D02*
X267147000Y-151990000D01*
X269047000Y-151990000D02*
X269047000Y-155350000D01*
X269047000Y-155350000D02*
X267147000Y-155350000D01*
%TO.C,R21*%
X148275000Y-224530500D02*
X150175000Y-224530500D01*
X148275000Y-227890500D02*
X148275000Y-224530500D01*
X150175000Y-224530500D02*
X150175000Y-227890500D01*
X150175000Y-227890500D02*
X148275000Y-227890500D01*
%TO.C,RN2*%
X93055000Y-158419999D02*
X93055000Y-181939999D01*
X93055000Y-181939999D02*
X96175000Y-181939999D01*
X96175000Y-158419999D02*
X93055000Y-158419999D01*
X96175000Y-181939999D02*
X96175000Y-158419999D01*
%TO.C,C3*%
X140303449Y-109466688D02*
G75*
G02*
X133503449Y-109466688I-3400000J0D01*
G01*
X133503449Y-109466688D02*
G75*
G02*
X140303449Y-109466688I3400000J0D01*
G01*
%TO.C,R25*%
X236921000Y-237969000D02*
X238821000Y-237969000D01*
X236921000Y-241329000D02*
X236921000Y-237969000D01*
X238821000Y-237969000D02*
X238821000Y-241329000D01*
X238821000Y-241329000D02*
X236921000Y-241329000D01*
%TO.C,U3*%
X110290000Y-138705000D02*
X110570000Y-138705000D01*
X110290000Y-144505000D02*
X110290000Y-138705000D01*
X110570000Y-136905000D02*
X123110000Y-136905000D01*
X110570000Y-138705000D02*
X110570000Y-136905000D01*
X110570000Y-144505000D02*
X110290000Y-144505000D01*
X110570000Y-146305000D02*
X110570000Y-144505000D01*
X123110000Y-136905000D02*
X123110000Y-138705000D01*
X123110000Y-138705000D02*
X123390000Y-138705000D01*
X123110000Y-144505000D02*
X123110000Y-146305000D01*
X123110000Y-146305000D02*
X110570000Y-146305000D01*
X123390000Y-138705000D02*
X123390000Y-144505000D01*
X123390000Y-144505000D02*
X123110000Y-144505000D01*
%TO.C,C24*%
X105442000Y-177844000D02*
X106902000Y-177844000D01*
X105442000Y-180804000D02*
X105442000Y-177844000D01*
X106902000Y-177844000D02*
X106902000Y-180804000D01*
X106902000Y-180804000D02*
X105442000Y-180804000D01*
%TO.C,R20*%
X180565000Y-251018000D02*
X183925000Y-251018000D01*
X180565000Y-252918000D02*
X180565000Y-251018000D01*
X183925000Y-251018000D02*
X183925000Y-252918000D01*
X183925000Y-252918000D02*
X180565000Y-252918000D01*
%TO.C,C4*%
X299623380Y-115697000D02*
G75*
G02*
X292823380Y-115697000I-3400000J0D01*
G01*
X292823380Y-115697000D02*
G75*
G02*
X299623380Y-115697000I3400000J0D01*
G01*
%TO.C,OP2*%
X235419000Y-111276000D02*
X235419000Y-114276000D01*
X235419000Y-114276000D02*
X242419000Y-114276000D01*
X242419000Y-111276000D02*
X235419000Y-111276000D01*
X242419000Y-114276000D02*
X242419000Y-111276000D01*
%TO.C,U16*%
X226805000Y-151850000D02*
X228305000Y-151850000D01*
X226805000Y-160570000D02*
X226805000Y-151850000D01*
X228305000Y-151630000D02*
X232705000Y-151630000D01*
X228305000Y-151850000D02*
X228305000Y-151630000D01*
X228305000Y-160570000D02*
X226805000Y-160570000D01*
X228305000Y-160790000D02*
X228305000Y-160570000D01*
X232705000Y-151630000D02*
X232705000Y-151850000D01*
X232705000Y-151850000D02*
X234205000Y-151850000D01*
X232705000Y-160570000D02*
X232705000Y-160790000D01*
X232705000Y-160790000D02*
X228305000Y-160790000D01*
X234205000Y-151850000D02*
X234205000Y-160570000D01*
X234205000Y-160570000D02*
X232705000Y-160570000D01*
%TO.C,C1*%
X140125000Y-203232000D02*
X143085000Y-203232000D01*
X140125000Y-204692000D02*
X140125000Y-203232000D01*
X143085000Y-203232000D02*
X143085000Y-204692000D01*
X143085000Y-204692000D02*
X140125000Y-204692000D01*
%TO.C,C21*%
X212388000Y-160814000D02*
X215348000Y-160814000D01*
X212388000Y-162274000D02*
X212388000Y-160814000D01*
X215348000Y-160814000D02*
X215348000Y-162274000D01*
X215348000Y-162274000D02*
X212388000Y-162274000D01*
%TO.C,R7*%
X231333000Y-112874000D02*
X233233000Y-112874000D01*
X231333000Y-116234000D02*
X231333000Y-112874000D01*
X233233000Y-112874000D02*
X233233000Y-116234000D01*
X233233000Y-116234000D02*
X231333000Y-116234000D01*
%TO.C,R9*%
X253177000Y-112874000D02*
X255077000Y-112874000D01*
X253177000Y-116234000D02*
X253177000Y-112874000D01*
X255077000Y-112874000D02*
X255077000Y-116234000D01*
X255077000Y-116234000D02*
X253177000Y-116234000D01*
%TO.C,SW1*%
X306988000Y-102527000D02*
X309088000Y-102527000D01*
X306988000Y-113677000D02*
X306988000Y-102527000D01*
X309088000Y-102527000D02*
X309088000Y-104327000D01*
X309088000Y-104327000D02*
X311688000Y-104327000D01*
X309088000Y-111877000D02*
X309088000Y-113677000D01*
X309088000Y-113677000D02*
X306988000Y-113677000D01*
X311688000Y-102527000D02*
X313788000Y-102527000D01*
X311688000Y-104327000D02*
X311688000Y-102527000D01*
X311688000Y-111877000D02*
X309088000Y-111877000D01*
X311688000Y-113677000D02*
X311688000Y-111877000D01*
X313788000Y-102527000D02*
X313788000Y-113677000D01*
X313788000Y-113677000D02*
X311688000Y-113677000D01*
%TO.C,R31*%
X135990000Y-230570000D02*
X137890000Y-230570000D01*
X135990000Y-233930000D02*
X135990000Y-230570000D01*
X137890000Y-230570000D02*
X137890000Y-233930000D01*
X137890000Y-233930000D02*
X135990000Y-233930000D01*
%TO.C,U25*%
X241680001Y-182960000D02*
X243480000Y-182960000D01*
X241680001Y-195500000D02*
X241680001Y-182960000D01*
X243480000Y-182680000D02*
X249280000Y-182680000D01*
X243480000Y-182960000D02*
X243480000Y-182680000D01*
X243480000Y-195500000D02*
X241680001Y-195500000D01*
X243480000Y-195780000D02*
X243480000Y-195500000D01*
X249280000Y-182680000D02*
X249280000Y-182960000D01*
X249280000Y-182960000D02*
X251079999Y-182960000D01*
X249280000Y-195500000D02*
X249280000Y-195780000D01*
X249280000Y-195780000D02*
X243480000Y-195780000D01*
X251079999Y-182960000D02*
X251079999Y-195500000D01*
X251079999Y-195500000D02*
X249280000Y-195500000D01*
%TO.C,U8*%
X265056000Y-138008000D02*
X265256000Y-138008000D01*
X265056000Y-142408000D02*
X265056000Y-138008000D01*
X265256000Y-136508000D02*
X275256000Y-136508000D01*
X265256000Y-138008000D02*
X265256000Y-136508000D01*
X265256000Y-142408000D02*
X265056000Y-142408000D01*
X265256000Y-143908000D02*
X265256000Y-142408000D01*
X275256000Y-136508000D02*
X275256000Y-138008000D01*
X275256000Y-138008000D02*
X275456000Y-138008000D01*
X275256000Y-142408000D02*
X275256000Y-143908000D01*
X275256000Y-143908000D02*
X265256000Y-143908000D01*
X275456000Y-138008000D02*
X275456000Y-142408000D01*
X275456000Y-142408000D02*
X275256000Y-142408000D01*
%TO.C,R28*%
X99531500Y-130363000D02*
X102891500Y-130363000D01*
X99531500Y-132263000D02*
X99531500Y-130363000D01*
X102891500Y-130363000D02*
X102891500Y-132263000D01*
X102891500Y-132263000D02*
X99531500Y-132263000D01*
%TO.C,C37*%
X140240000Y-229280772D02*
X141700000Y-229280772D01*
X140240000Y-232240772D02*
X140240000Y-229280772D01*
X141700000Y-229280772D02*
X141700000Y-232240772D01*
X141700000Y-232240772D02*
X140240000Y-232240772D01*
%TO.C,R18*%
X264480000Y-175866000D02*
X266380000Y-175866000D01*
X264480000Y-179226000D02*
X264480000Y-175866000D01*
X266380000Y-175866000D02*
X266380000Y-179226000D01*
X266380000Y-179226000D02*
X264480000Y-179226000D01*
%TO.C,U12*%
X149600000Y-148905000D02*
X167900000Y-148905000D01*
X167900000Y-190185000D01*
X149600000Y-190185000D01*
X149600000Y-148905000D01*
%TO.C,R33*%
X133990000Y-230570000D02*
X135890000Y-230570000D01*
X133990000Y-233930000D02*
X133990000Y-230570000D01*
X135890000Y-230570000D02*
X135890000Y-233930000D01*
X135890000Y-233930000D02*
X133990000Y-233930000D01*
%TO.C,J2*%
X164078501Y-95585501D02*
X164078501Y-105485501D01*
X164078501Y-105485501D02*
X223538501Y-105485501D01*
X223538501Y-95585501D02*
X164078501Y-95585501D01*
X223538501Y-105485501D02*
X223538501Y-95585501D01*
%TO.C,R12*%
X263083000Y-151990000D02*
X264983000Y-151990000D01*
X263083000Y-155350000D02*
X263083000Y-151990000D01*
X264983000Y-151990000D02*
X264983000Y-155350000D01*
X264983000Y-155350000D02*
X263083000Y-155350000D01*
%TO.C,U39*%
X159250000Y-213065000D02*
X159470000Y-213065000D01*
X159250000Y-217465000D02*
X159250000Y-213065000D01*
X159470000Y-211565000D02*
X168190000Y-211565000D01*
X159470000Y-213065000D02*
X159470000Y-211565000D01*
X159470000Y-217465000D02*
X159250000Y-217465000D01*
X159470000Y-218965000D02*
X159470000Y-217465000D01*
X168190000Y-211565000D02*
X168190000Y-213065000D01*
X168190000Y-213065000D02*
X168410000Y-213065000D01*
X168190000Y-217465000D02*
X168190000Y-218965000D01*
X168190000Y-218965000D02*
X159470000Y-218965000D01*
X168410000Y-213065000D02*
X168410000Y-217465000D01*
X168410000Y-217465000D02*
X168190000Y-217465000D01*
%TO.C,U9*%
X302465000Y-136490999D02*
X302665000Y-136491000D01*
X302465000Y-138591001D02*
X302465000Y-136490999D01*
X302665000Y-135491000D02*
X305665000Y-135491000D01*
X302665000Y-136491000D02*
X302665000Y-135491000D01*
X302665000Y-138591000D02*
X302465000Y-138591001D01*
X302665000Y-139591000D02*
X302665000Y-138591000D01*
X305665000Y-135491000D02*
X305665000Y-136491000D01*
X305665000Y-136491000D02*
X305865000Y-136490999D01*
X305665000Y-138591000D02*
X305665000Y-139591000D01*
X305665000Y-139591000D02*
X302665000Y-139591000D01*
X305865000Y-136490999D02*
X305865000Y-138591001D01*
X305865000Y-138591001D02*
X305665000Y-138591000D01*
%TO.C,H7*%
X174704750Y-151938471D02*
G75*
G02*
X168804750Y-151938471I-2950000J0D01*
G01*
X168804750Y-151938471D02*
G75*
G02*
X174704750Y-151938471I2950000J0D01*
G01*
%TO.C,C33*%
X189185000Y-187738000D02*
X192145000Y-187738000D01*
X189185000Y-189198000D02*
X189185000Y-187738000D01*
X192145000Y-187738000D02*
X192145000Y-189198000D01*
X192145000Y-189198000D02*
X189185000Y-189198000D01*
%TO.C,U41*%
X179180000Y-214299000D02*
X180680000Y-214299000D01*
X179180000Y-223019000D02*
X179180000Y-214299000D01*
X180680000Y-214079000D02*
X185080000Y-214079000D01*
X180680000Y-214299000D02*
X180680000Y-214079000D01*
X180680000Y-223019000D02*
X179180000Y-223019000D01*
X180680000Y-223239000D02*
X180680000Y-223019000D01*
X185080000Y-214079000D02*
X185080000Y-214299000D01*
X185080000Y-214299000D02*
X186580000Y-214299000D01*
X185080000Y-223019000D02*
X185080000Y-223239000D01*
X185080000Y-223239000D02*
X180680000Y-223239000D01*
X186580000Y-214299000D02*
X186580000Y-223019000D01*
X186580000Y-223019000D02*
X185080000Y-223019000D01*
%TO.C,OP8*%
X258215000Y-116880000D02*
X258215000Y-121880000D01*
X258215000Y-121880000D02*
X261215000Y-121880000D01*
X261215000Y-116880000D02*
X258215000Y-116880000D01*
X261215000Y-121880000D02*
X261215000Y-116880000D01*
%TO.C,H2*%
X313330000Y-248920000D02*
G75*
G02*
X306430000Y-248920000I-3450000J0D01*
G01*
X306430000Y-248920000D02*
G75*
G02*
X313330000Y-248920000I3450000J0D01*
G01*
%TO.C,C25*%
X162096000Y-132112000D02*
X165056000Y-132112000D01*
X162096000Y-133572000D02*
X162096000Y-132112000D01*
X165056000Y-132112000D02*
X165056000Y-133572000D01*
X165056000Y-133572000D02*
X162096000Y-133572000D01*
%TO.C,C35*%
X179102000Y-224072000D02*
X180562000Y-224072000D01*
X179102000Y-227032000D02*
X179102000Y-224072000D01*
X180562000Y-224072000D02*
X180562000Y-227032000D01*
X180562000Y-227032000D02*
X179102000Y-227032000D01*
%TO.C,C2*%
X278797000Y-124631001D02*
X280257000Y-124631001D01*
X278797000Y-127591001D02*
X278797000Y-124631001D01*
X280257000Y-124631001D02*
X280257000Y-127591001D01*
X280257000Y-127591001D02*
X278797000Y-127591001D01*
%TO.C,U22*%
X307660000Y-156585000D02*
X256230000Y-156585000D01*
X256230000Y-174885000D01*
X307660000Y-174885000D01*
X307660000Y-156585000D01*
%TO.C,U6*%
X165154000Y-133855000D02*
X165434000Y-133855000D01*
X165154000Y-139655000D02*
X165154000Y-133855000D01*
X165434000Y-132055001D02*
X177974000Y-132055001D01*
X165434000Y-133855000D02*
X165434000Y-132055001D01*
X165434000Y-139655000D02*
X165154000Y-139655000D01*
X165434000Y-141454999D02*
X165434000Y-139655000D01*
X177974000Y-132055001D02*
X177974000Y-133855000D01*
X177974000Y-133855000D02*
X178254000Y-133855000D01*
X177974000Y-139655000D02*
X177974000Y-141454999D01*
X177974000Y-141454999D02*
X165434000Y-141454999D01*
X178254000Y-133855000D02*
X178254000Y-139655000D01*
X178254000Y-139655000D02*
X177974000Y-139655000D01*
%TO.C,OP3*%
X243769000Y-111276000D02*
X243769000Y-114276000D01*
X243769000Y-114276000D02*
X250769000Y-114276000D01*
X250769000Y-111276000D02*
X243769000Y-111276000D01*
X250769000Y-114276000D02*
X250769000Y-111276000D01*
%TO.C,J4*%
X281635000Y-93777000D02*
X291135000Y-93777000D01*
X281635000Y-108827000D02*
X281635000Y-93777000D01*
X284135000Y-108827000D02*
X281635000Y-108827000D01*
X284135000Y-108827000D02*
X284135000Y-109277000D01*
X284135000Y-109277000D02*
X288735000Y-109277000D01*
X288735000Y-109277000D02*
X288735000Y-108827000D01*
X291135000Y-93777000D02*
X291135000Y-108827000D01*
X291135000Y-108827000D02*
X288735000Y-108827000D01*
%TO.C,J11*%
X201176000Y-236731000D02*
X201176000Y-242821000D01*
X201176000Y-242821000D02*
X227576000Y-242821000D01*
X227576000Y-236731000D02*
X201176000Y-236731000D01*
X227576000Y-242821000D02*
X227576000Y-236731000D01*
%TO.C,JP3*%
X97190000Y-124750000D02*
X97190000Y-127750000D01*
X97190000Y-127750000D02*
X102190000Y-127750000D01*
X102190000Y-124750000D02*
X97190000Y-124750000D01*
X102190000Y-127750000D02*
X102190000Y-124750000D01*
%TO.C,C19*%
X285020000Y-152190000D02*
X286480000Y-152190000D01*
X285020000Y-155150000D02*
X285020000Y-152190000D01*
X286480000Y-152190000D02*
X286480000Y-155150000D01*
X286480000Y-155150000D02*
X285020000Y-155150000D01*
%TO.C,JP1*%
X190190000Y-105500000D02*
X190190000Y-108500000D01*
X190190000Y-108500000D02*
X195190000Y-108500000D01*
X195190000Y-105500000D02*
X190190000Y-105500000D01*
X195190000Y-108500000D02*
X195190000Y-105500000D01*
%TO.C,C30*%
X145574000Y-226866000D02*
X147034000Y-226866000D01*
X145574000Y-229826000D02*
X145574000Y-226866000D01*
X147034000Y-226866000D02*
X147034000Y-229826000D01*
X147034000Y-229826000D02*
X145574000Y-229826000D01*
%TO.C,OP6*%
X170712000Y-211257000D02*
X170712000Y-218257000D01*
X170712000Y-218257000D02*
X175712000Y-218257000D01*
X175712000Y-211257000D02*
X170712000Y-211257000D01*
X175712000Y-218257000D02*
X175712000Y-211257000D01*
%TO.C,C18*%
X243110000Y-160826000D02*
X244570000Y-160826000D01*
X243110000Y-163786000D02*
X243110000Y-160826000D01*
X244570000Y-160826000D02*
X244570000Y-163786000D01*
X244570000Y-163786000D02*
X243110000Y-163786000D01*
%TO.C,R2*%
X155895000Y-245589000D02*
X157795000Y-245589000D01*
X155895000Y-248949000D02*
X155895000Y-245589000D01*
X157795000Y-245589000D02*
X157795000Y-248949000D01*
X157795000Y-248949000D02*
X155895000Y-248949000D01*
%TO.C,JP2*%
X190190000Y-110750000D02*
X190190000Y-113750000D01*
X190190000Y-113750000D02*
X195190000Y-113750000D01*
X195190000Y-110750000D02*
X190190000Y-110750000D01*
X195190000Y-113750000D02*
X195190000Y-110750000D01*
%TO.C,R32*%
X122760000Y-240800000D02*
X126120000Y-240800000D01*
X122760000Y-242700000D02*
X122760000Y-240800000D01*
X126120000Y-240800000D02*
X126120000Y-242700000D01*
X126120000Y-242700000D02*
X122760000Y-242700000D01*
%TO.C,M2*%
X101092000Y-228854000D02*
X122428000Y-228854000D01*
X101092000Y-256286000D02*
X101092000Y-228854000D01*
X122428000Y-228854000D02*
X122428000Y-256286000D01*
X122428000Y-256286000D02*
X101092000Y-256286000D01*
%TO.C,U44*%
X147185000Y-229575000D02*
X147405000Y-229575000D01*
X147185000Y-233975000D02*
X147185000Y-229575000D01*
X147405000Y-228075000D02*
X156125000Y-228075000D01*
X147405000Y-229575000D02*
X147405000Y-228075000D01*
X147405000Y-233975000D02*
X147185000Y-233975000D01*
X147405000Y-235475000D02*
X147405000Y-233975000D01*
X156125000Y-228075000D02*
X156125000Y-229575000D01*
X156125000Y-229575000D02*
X156345000Y-229575000D01*
X156125000Y-233975000D02*
X156125000Y-235475000D01*
X156125000Y-235475000D02*
X147405000Y-235475000D01*
X156345000Y-229575000D02*
X156345000Y-233975000D01*
X156345000Y-233975000D02*
X156125000Y-233975000D01*
%TO.C,C28*%
X225850000Y-170720000D02*
X228810000Y-170720000D01*
X225850000Y-172180000D02*
X225850000Y-170720000D01*
X228810000Y-170720000D02*
X228810000Y-172180000D01*
X228810000Y-172180000D02*
X225850000Y-172180000D01*
%TO.C,JP5*%
X278747869Y-115863742D02*
X278747869Y-120863742D01*
X278747869Y-120863742D02*
X281747869Y-120863742D01*
X281747869Y-115863742D02*
X278747869Y-115863742D01*
X281747869Y-120863742D02*
X281747869Y-115863742D01*
%TO.C,J8*%
X307343000Y-115069999D02*
X307343000Y-118609999D01*
X307343000Y-118609999D02*
X313433000Y-118609999D01*
X313433000Y-115069999D02*
X307343000Y-115069999D01*
X313433000Y-118609999D02*
X313433000Y-115069999D01*
%TO.C,C42*%
X269157000Y-134652000D02*
X272117000Y-134652000D01*
X269157000Y-136112000D02*
X269157000Y-134652000D01*
X272117000Y-134652000D02*
X272117000Y-136112000D01*
X272117000Y-136112000D02*
X269157000Y-136112000D01*
%TO.C,C10*%
X236518000Y-180880000D02*
X239478000Y-180880000D01*
X236518000Y-182340000D02*
X236518000Y-180880000D01*
X239478000Y-180880000D02*
X239478000Y-182340000D01*
X239478000Y-182340000D02*
X236518000Y-182340000D01*
%TO.C,U20*%
X195055000Y-167090000D02*
X196555000Y-167090000D01*
X195055000Y-175810000D02*
X195055000Y-167090000D01*
X196555000Y-166870000D02*
X200955000Y-166870000D01*
X196555000Y-167090000D02*
X196555000Y-166870000D01*
X196555000Y-175810000D02*
X195055000Y-175810000D01*
X196555000Y-176030000D02*
X196555000Y-175810000D01*
X200955000Y-166870000D02*
X200955000Y-167090000D01*
X200955000Y-167090000D02*
X202455000Y-167090000D01*
X200955000Y-175810000D02*
X200955000Y-176030000D01*
X200955000Y-176030000D02*
X196555000Y-176030000D01*
X202455000Y-167090000D02*
X202455000Y-175810000D01*
X202455000Y-175810000D02*
X200955000Y-175810000D01*
%TO.C,U26*%
X307600000Y-185230000D02*
X271520000Y-185230000D01*
X271520000Y-203380000D01*
X307600000Y-203380000D01*
X307600000Y-185230000D01*
%TO.C,C34*%
X290874000Y-203740000D02*
X293834000Y-203740000D01*
X290874000Y-205200000D02*
X290874000Y-203740000D01*
X293834000Y-203740000D02*
X293834000Y-205200000D01*
X293834000Y-205200000D02*
X290874000Y-205200000D01*
%TO.C,U35*%
X159250000Y-204429000D02*
X159470000Y-204429000D01*
X159250000Y-208829000D02*
X159250000Y-204429000D01*
X159470000Y-202929000D02*
X168190000Y-202929000D01*
X159470000Y-204429000D02*
X159470000Y-202929000D01*
X159470000Y-208829000D02*
X159250000Y-208829000D01*
X159470000Y-210329000D02*
X159470000Y-208829000D01*
X168190000Y-202929000D02*
X168190000Y-204429000D01*
X168190000Y-204429000D02*
X168410000Y-204429000D01*
X168190000Y-208829000D02*
X168190000Y-210329000D01*
X168190000Y-210329000D02*
X159470000Y-210329000D01*
X168410000Y-204429000D02*
X168410000Y-208829000D01*
X168410000Y-208829000D02*
X168190000Y-208829000D01*
%TO.C,U29*%
X159250000Y-195793000D02*
X159470000Y-195793000D01*
X159250000Y-200193000D02*
X159250000Y-195793000D01*
X159470000Y-194293000D02*
X168190000Y-194293000D01*
X159470000Y-195793000D02*
X159470000Y-194293000D01*
X159470000Y-200193000D02*
X159250000Y-200193000D01*
X159470000Y-201693000D02*
X159470000Y-200193000D01*
X168190000Y-194293000D02*
X168190000Y-195793000D01*
X168190000Y-195793000D02*
X168410000Y-195793000D01*
X168190000Y-200193000D02*
X168190000Y-201693000D01*
X168190000Y-201693000D02*
X159470000Y-201693000D01*
X168410000Y-195793000D02*
X168410000Y-200193000D01*
X168410000Y-200193000D02*
X168190000Y-200193000D01*
%TO.C,R5*%
X155895000Y-223745000D02*
X157795000Y-223745000D01*
X155895000Y-227105000D02*
X155895000Y-223745000D01*
X157795000Y-223745000D02*
X157795000Y-227105000D01*
X157795000Y-227105000D02*
X155895000Y-227105000D01*
%TO.C,C16*%
X227882000Y-160814000D02*
X230842000Y-160814000D01*
X227882000Y-162274000D02*
X227882000Y-160814000D01*
X230842000Y-160814000D02*
X230842000Y-162274000D01*
X230842000Y-162274000D02*
X227882000Y-162274000D01*
%TO.C,U15*%
X210930001Y-151850000D02*
X212430001Y-151850000D01*
X210930001Y-160570000D02*
X210930001Y-151850000D01*
X212430001Y-151630000D02*
X216830001Y-151630000D01*
X212430001Y-151850000D02*
X212430001Y-151630000D01*
X212430001Y-160570000D02*
X210930001Y-160570000D01*
X212430001Y-160790000D02*
X212430001Y-160570000D01*
X216830001Y-151630000D02*
X216830001Y-151850000D01*
X216830001Y-151850000D02*
X218330001Y-151850000D01*
X216830001Y-160570000D02*
X216830001Y-160790000D01*
X216830001Y-160790000D02*
X212430001Y-160790000D01*
X218330001Y-151850000D02*
X218330001Y-160570000D01*
X218330001Y-160570000D02*
X216830001Y-160570000D01*
%TO.C,D4*%
X163315000Y-249250000D02*
X163315000Y-253670000D01*
X163315000Y-253670000D02*
X168155000Y-253670000D01*
X168155000Y-249250000D02*
X163315000Y-249250000D01*
X168155000Y-253670000D02*
X168155000Y-249250000D01*
%TO.C,U18*%
X96612501Y-162640000D02*
X98412500Y-162640000D01*
X96612501Y-175180000D02*
X96612501Y-162640000D01*
X98412500Y-162360000D02*
X104212500Y-162360000D01*
X98412500Y-162640000D02*
X98412500Y-162360000D01*
X98412500Y-175180000D02*
X96612501Y-175180000D01*
X98412500Y-175460000D02*
X98412500Y-175180000D01*
X104212500Y-162360000D02*
X104212500Y-162640000D01*
X104212500Y-162640000D02*
X106012499Y-162640000D01*
X104212500Y-175180000D02*
X104212500Y-175460000D01*
X104212500Y-175460000D02*
X98412500Y-175460000D01*
X106012499Y-162640000D02*
X106012499Y-175180000D01*
X106012499Y-175180000D02*
X104212500Y-175180000D01*
%TO.C,U43*%
X124284000Y-229454999D02*
X124484000Y-229455000D01*
X124284000Y-231555001D02*
X124284000Y-229454999D01*
X124484000Y-228455000D02*
X127484000Y-228455000D01*
X124484000Y-229455000D02*
X124484000Y-228455000D01*
X124484000Y-231555000D02*
X124284000Y-231555001D01*
X124484000Y-232555000D02*
X124484000Y-231555000D01*
X127484000Y-228455000D02*
X127484000Y-229455000D01*
X127484000Y-229455000D02*
X127684000Y-229454999D01*
X127484000Y-231555000D02*
X127484000Y-232555000D01*
X127484000Y-232555000D02*
X124484000Y-232555000D01*
X127684000Y-229454999D02*
X127684000Y-231555001D01*
X127684000Y-231555001D02*
X127484000Y-231555000D01*
%TO.C,U11*%
X128645000Y-148905000D02*
X146945000Y-148905000D01*
X146945000Y-190185000D01*
X128645000Y-190185000D01*
X128645000Y-148905000D01*
%TO.C,U40*%
X163060000Y-221320000D02*
X163280000Y-221320000D01*
X163060000Y-225720000D02*
X163060000Y-221320000D01*
X163280000Y-219820000D02*
X172000000Y-219820000D01*
X163280000Y-221320000D02*
X163280000Y-219820000D01*
X163280000Y-225720000D02*
X163060000Y-225720000D01*
X163280000Y-227220000D02*
X163280000Y-225720000D01*
X172000000Y-219820000D02*
X172000000Y-221320000D01*
X172000000Y-221320000D02*
X172220000Y-221320000D01*
X172000000Y-225720000D02*
X172000000Y-227220000D01*
X172000000Y-227220000D02*
X163280000Y-227220000D01*
X172220000Y-221320000D02*
X172220000Y-225720000D01*
X172220000Y-225720000D02*
X172000000Y-225720000D01*
%TO.C,R35*%
X202028000Y-186502000D02*
X205388000Y-186502000D01*
X202028000Y-188402000D02*
X202028000Y-186502000D01*
X205388000Y-186502000D02*
X205388000Y-188402000D01*
X205388000Y-188402000D02*
X202028000Y-188402000D01*
%TO.C,R22*%
X292420000Y-152117000D02*
X294320000Y-152117000D01*
X292420000Y-155477000D02*
X292420000Y-152117000D01*
X294320000Y-152117000D02*
X294320000Y-155477000D01*
X294320000Y-155477000D02*
X292420000Y-155477000D01*
%TO.C,RN5*%
X159182000Y-142966000D02*
X159182000Y-146086000D01*
X159182000Y-146086000D02*
X182702000Y-146086000D01*
X182702000Y-142966000D02*
X159182000Y-142966000D01*
X182702000Y-146086000D02*
X182702000Y-142966000D01*
%TO.C,C29*%
X248190000Y-148634000D02*
X249650000Y-148634000D01*
X248190000Y-151594000D02*
X248190000Y-148634000D01*
X249650000Y-148634000D02*
X249650000Y-151594000D01*
X249650000Y-151594000D02*
X248190000Y-151594000D01*
%TO.C,U36*%
X102740000Y-216522500D02*
X102950000Y-216522500D01*
X102740000Y-222322500D02*
X102740000Y-216522500D01*
X102950000Y-214722500D02*
X118030000Y-214722500D01*
X102950000Y-216522500D02*
X102950000Y-214722500D01*
X102950000Y-222322500D02*
X102740000Y-222322500D01*
X102950000Y-224122500D02*
X102950000Y-222322500D01*
X118030000Y-214722500D02*
X118030000Y-216522500D01*
X118030000Y-216522500D02*
X118240000Y-216522500D01*
X118030000Y-222322500D02*
X118030000Y-224122500D01*
X118030000Y-224122500D02*
X102950000Y-224122500D01*
X118240000Y-216522500D02*
X118240000Y-222322500D01*
X118240000Y-222322500D02*
X118030000Y-222322500D01*
%TO.C,C40*%
X168700000Y-199168000D02*
X171660000Y-199168000D01*
X168700000Y-200628000D02*
X168700000Y-199168000D01*
X171660000Y-199168000D02*
X171660000Y-200628000D01*
X171660000Y-200628000D02*
X168700000Y-200628000D01*
%TO.C,C45*%
X272332000Y-134652000D02*
X275292000Y-134652000D01*
X272332000Y-136112000D02*
X272332000Y-134652000D01*
X275292000Y-134652000D02*
X275292000Y-136112000D01*
X275292000Y-136112000D02*
X272332000Y-136112000D01*
%TO.C,C11*%
X172498000Y-222802000D02*
X173958000Y-222802000D01*
X172498000Y-225762000D02*
X172498000Y-222802000D01*
X173958000Y-222802000D02*
X173958000Y-225762000D01*
X173958000Y-225762000D02*
X172498000Y-225762000D01*
%TO.C,JP4*%
X192690000Y-125750000D02*
X192690000Y-130750000D01*
X192690000Y-130750000D02*
X195690000Y-130750000D01*
X195690000Y-125750000D02*
X192690000Y-125750000D01*
X195690000Y-130750000D02*
X195690000Y-125750000D01*
%TO.C,R34*%
X144370000Y-205552000D02*
X147730000Y-205552000D01*
X144370000Y-207452000D02*
X144370000Y-205552000D01*
X147730000Y-205552000D02*
X147730000Y-207452000D01*
X147730000Y-207452000D02*
X144370000Y-207452000D01*
%TO.C,C17*%
X184690000Y-225596000D02*
X186150000Y-225596000D01*
X184690000Y-228556000D02*
X184690000Y-225596000D01*
X186150000Y-225596000D02*
X186150000Y-228556000D01*
X186150000Y-228556000D02*
X184690000Y-228556000D01*
%TO.C,U45*%
X163060000Y-229575000D02*
X163280000Y-229575000D01*
X163060000Y-233975000D02*
X163060000Y-229575000D01*
X163280000Y-228075000D02*
X172000000Y-228075000D01*
X163280000Y-229575000D02*
X163280000Y-228075000D01*
X163280000Y-233975000D02*
X163060000Y-233975000D01*
X163280000Y-235475000D02*
X163280000Y-233975000D01*
X172000000Y-228075000D02*
X172000000Y-229575000D01*
X172000000Y-229575000D02*
X172220000Y-229575000D01*
X172000000Y-233975000D02*
X172000000Y-235475000D01*
X172000000Y-235475000D02*
X163280000Y-235475000D01*
X172220000Y-229575000D02*
X172220000Y-233975000D01*
X172220000Y-233975000D02*
X172000000Y-233975000D01*
%TO.C,R24*%
X119700000Y-225269000D02*
X121600000Y-225269000D01*
X119700000Y-228629000D02*
X119700000Y-225269000D01*
X121600000Y-225269000D02*
X121600000Y-228629000D01*
X121600000Y-228629000D02*
X119700000Y-228629000D01*
%TO.C,U42*%
X208660001Y-217250000D02*
X210460000Y-217250000D01*
X208660001Y-229790000D02*
X208660001Y-217250000D01*
X210460000Y-216970000D02*
X216260000Y-216970000D01*
X210460000Y-217250000D02*
X210460000Y-216970000D01*
X210460000Y-229790000D02*
X208660001Y-229790000D01*
X210460000Y-230070000D02*
X210460000Y-229790000D01*
X216260000Y-216970000D02*
X216260000Y-217250000D01*
X216260000Y-217250000D02*
X218059999Y-217250000D01*
X216260000Y-229790000D02*
X216260000Y-230070000D01*
X216260000Y-230070000D02*
X210460000Y-230070000D01*
X218059999Y-217250000D02*
X218059999Y-229790000D01*
X218059999Y-229790000D02*
X216260000Y-229790000D01*
%TO.C,J1*%
X104388501Y-95585501D02*
X104388501Y-105485501D01*
X104388501Y-105485501D02*
X163848501Y-105485501D01*
X163848501Y-95585501D02*
X104388501Y-95585501D01*
X163848501Y-105485501D02*
X163848501Y-95585501D01*
%TO.C,R3*%
X160975000Y-245589000D02*
X162875000Y-245589000D01*
X160975000Y-248949000D02*
X160975000Y-245589000D01*
X162875000Y-245589000D02*
X162875000Y-248949000D01*
X162875000Y-248949000D02*
X160975000Y-248949000D01*
%TO.C,D7*%
X142048000Y-231160000D02*
X143448000Y-231160000D01*
X142048000Y-233660000D02*
X142048000Y-231160000D01*
X143448000Y-231160000D02*
X143448000Y-233660000D01*
X143448000Y-233660000D02*
X142048000Y-233660000D01*
%TO.C,C36*%
X159774757Y-225419638D02*
X161234757Y-225419638D01*
X159774757Y-228379638D02*
X159774757Y-225419638D01*
X161234757Y-225419638D02*
X161234757Y-228379638D01*
X161234757Y-228379638D02*
X159774757Y-228379638D01*
%TO.C,R27*%
X123288000Y-247208000D02*
X126648000Y-247208000D01*
X123288000Y-249108000D02*
X123288000Y-247208000D01*
X126648000Y-247208000D02*
X126648000Y-249108000D01*
X126648000Y-249108000D02*
X123288000Y-249108000D01*
%TO.C,R30*%
X137990000Y-230570000D02*
X139890000Y-230570000D01*
X137990000Y-233930000D02*
X137990000Y-230570000D01*
X139890000Y-230570000D02*
X139890000Y-233930000D01*
X139890000Y-233930000D02*
X137990000Y-233930000D01*
%TO.C,R8*%
X257090000Y-112874000D02*
X258990000Y-112874000D01*
X257090000Y-116234000D02*
X257090000Y-112874000D01*
X258990000Y-112874000D02*
X258990000Y-116234000D01*
X258990000Y-116234000D02*
X257090000Y-116234000D01*
%TO.C,JP6*%
X122722000Y-244118000D02*
X122722000Y-247118000D01*
X122722000Y-247118000D02*
X127722000Y-247118000D01*
X127722000Y-244118000D02*
X122722000Y-244118000D01*
X127722000Y-247118000D02*
X127722000Y-244118000D01*
%TO.C,D3*%
X158235000Y-249250000D02*
X158235000Y-253670000D01*
X158235000Y-253670000D02*
X163075000Y-253670000D01*
X163075000Y-249250000D02*
X158235000Y-249250000D01*
X163075000Y-253670000D02*
X163075000Y-249250000D01*
%TO.C,R23*%
X129352000Y-228952000D02*
X131252000Y-228952000D01*
X129352000Y-232312000D02*
X129352000Y-228952000D01*
X131252000Y-228952000D02*
X131252000Y-232312000D01*
X131252000Y-232312000D02*
X129352000Y-232312000D01*
%TO.C,R26*%
X302485000Y-141417000D02*
X305845000Y-141417000D01*
X302485000Y-143317000D02*
X302485000Y-141417000D01*
X305845000Y-141417000D02*
X305845000Y-143317000D01*
X305845000Y-143317000D02*
X302485000Y-143317000D01*
%TO.C,RN7*%
X208458000Y-127091000D02*
X208458000Y-130211000D01*
X208458000Y-130211000D02*
X231978000Y-130211000D01*
X231978000Y-127091000D02*
X208458000Y-127091000D01*
X231978000Y-130211000D02*
X231978000Y-127091000D01*
%TO.C,OP7*%
X286060000Y-137692000D02*
X286060000Y-142692000D01*
X286060000Y-142692000D02*
X291060000Y-142692000D01*
X291060000Y-137692000D02*
X286060000Y-137692000D01*
X291060000Y-142692000D02*
X291060000Y-137692000D01*
%TO.C,RN6*%
X135306000Y-130139000D02*
X135306000Y-133259000D01*
X135306000Y-133259000D02*
X158826000Y-133259000D01*
X158826000Y-130139000D02*
X135306000Y-130139000D01*
X158826000Y-133259000D02*
X158826000Y-130139000D01*
%TO.C,Q1*%
X232869000Y-238858500D02*
X233069000Y-238858500D01*
X232869000Y-240958500D02*
X232869000Y-238858500D01*
X233069000Y-237858500D02*
X236069000Y-237858500D01*
X233069000Y-238858500D02*
X233069000Y-237858500D01*
X234019000Y-240958500D02*
X232869000Y-240958500D01*
X234019000Y-241958500D02*
X234019000Y-240958500D01*
X235119000Y-240958500D02*
X235119000Y-241958500D01*
X235119000Y-241958500D02*
X234019000Y-241958500D01*
X236069000Y-237858500D02*
X236069000Y-238858500D01*
X236069000Y-238858500D02*
X236269000Y-238858500D01*
X236269000Y-238858500D02*
X236269000Y-240958500D01*
X236269000Y-240958500D02*
X235119000Y-240958500D01*
%TO.C,C44*%
X272840000Y-144177000D02*
X275800000Y-144177000D01*
X272840000Y-145637000D02*
X272840000Y-144177000D01*
X275800000Y-144177000D02*
X275800000Y-145637000D01*
X275800000Y-145637000D02*
X272840000Y-145637000D01*
%TO.C,J10*%
X95863000Y-215497000D02*
X99413000Y-215497000D01*
X95863000Y-226697000D02*
X95863000Y-215497000D01*
X99413000Y-215497000D02*
X99413000Y-226697000D01*
X99413000Y-226697000D02*
X95863000Y-226697000D01*
%TO.C,U38*%
X147185000Y-211414000D02*
X147405000Y-211414000D01*
X147185000Y-215814000D02*
X147185000Y-211414000D01*
X147405000Y-209914000D02*
X156125000Y-209914000D01*
X147405000Y-211414000D02*
X147405000Y-209914000D01*
X147405000Y-215814000D02*
X147185000Y-215814000D01*
X147405000Y-217314000D02*
X147405000Y-215814000D01*
X156125000Y-209914000D02*
X156125000Y-211414000D01*
X156125000Y-211414000D02*
X156345000Y-211414000D01*
X156125000Y-215814000D02*
X156125000Y-217314000D01*
X156125000Y-217314000D02*
X147405000Y-217314000D01*
X156345000Y-211414000D02*
X156345000Y-215814000D01*
X156345000Y-215814000D02*
X156125000Y-215814000D01*
%TO.C,U2*%
X302465000Y-129505999D02*
X302665000Y-129506000D01*
X302465000Y-131606001D02*
X302465000Y-129505999D01*
X302665000Y-128506000D02*
X305665000Y-128506000D01*
X302665000Y-129506000D02*
X302665000Y-128506000D01*
X302665000Y-131606000D02*
X302465000Y-131606001D01*
X302665000Y-132606000D02*
X302665000Y-131606000D01*
X305665000Y-128506000D02*
X305665000Y-129506000D01*
X305665000Y-129506000D02*
X305865000Y-129505999D01*
X305665000Y-131606000D02*
X305665000Y-132606000D01*
X305665000Y-132606000D02*
X302665000Y-132606000D01*
X305865000Y-129505999D02*
X305865000Y-131606001D01*
X305865000Y-131606001D02*
X305665000Y-131606000D01*
%TO.C,H4*%
X99970000Y-99060000D02*
G75*
G02*
X93070000Y-99060000I-3450000J0D01*
G01*
X93070000Y-99060000D02*
G75*
G02*
X99970000Y-99060000I3450000J0D01*
G01*
%TO.C,C22*%
X217214000Y-215424000D02*
X220174000Y-215424000D01*
X217214000Y-216884000D02*
X217214000Y-215424000D01*
X220174000Y-215424000D02*
X220174000Y-216884000D01*
X220174000Y-216884000D02*
X217214000Y-216884000D01*
%TO.C,J5*%
X93196000Y-116096000D02*
X195796000Y-116096000D01*
X93196000Y-122196000D02*
X93196000Y-116096000D01*
X195796000Y-116096000D02*
X195796000Y-122196000D01*
X195796000Y-122196000D02*
X93196000Y-122196000D01*
%TO.C,C43*%
X267367000Y-133013000D02*
X268827000Y-133013000D01*
X267367000Y-135973000D02*
X267367000Y-133013000D01*
X268827000Y-133013000D02*
X268827000Y-135973000D01*
X268827000Y-135973000D02*
X267367000Y-135973000D01*
%TO.C,OP5*%
X192048000Y-180015000D02*
X192048000Y-187015000D01*
X192048000Y-187015000D02*
X197048000Y-187015000D01*
X197048000Y-180015000D02*
X192048000Y-180015000D01*
X197048000Y-187015000D02*
X197048000Y-180015000D01*
%TO.C,R4*%
X166055000Y-245589000D02*
X167955000Y-245589000D01*
X166055000Y-248949000D02*
X166055000Y-245589000D01*
X167955000Y-245589000D02*
X167955000Y-248949000D01*
X167955000Y-248949000D02*
X166055000Y-248949000D01*
%TO.C,C20*%
X159810000Y-228632000D02*
X162770000Y-228632000D01*
X159810000Y-230092000D02*
X159810000Y-228632000D01*
X162770000Y-228632000D02*
X162770000Y-230092000D01*
X162770000Y-230092000D02*
X159810000Y-230092000D01*
%TO.C,SD1*%
X128920000Y-237492500D02*
X146670000Y-237492500D01*
X128920000Y-254092500D02*
X128920000Y-237492500D01*
X128920000Y-254092500D02*
X143270000Y-254092500D01*
X143270000Y-254092500D02*
X143270000Y-254342500D01*
X143270000Y-254342500D02*
X144870000Y-254342500D01*
X144870000Y-254092500D02*
X146670000Y-254092500D01*
X144870000Y-254342500D02*
X144870000Y-254092500D01*
X146670000Y-237492500D02*
X146670000Y-254092500D01*
%TO.C,D1*%
X148075000Y-249250000D02*
X148075000Y-253670000D01*
X148075000Y-253670000D02*
X152915000Y-253670000D01*
X152915000Y-249250000D02*
X148075000Y-249250000D01*
X152915000Y-253670000D02*
X152915000Y-249250000D01*
%TO.C,RV1*%
X168215000Y-244088000D02*
X160715000Y-244088000D01*
X160715000Y-236988000D01*
X168215000Y-236988000D01*
X168215000Y-244088000D01*
%TO.C,H8*%
X101748000Y-106045000D02*
G75*
G02*
X94848000Y-106045000I-3450000J0D01*
G01*
X94848000Y-106045000D02*
G75*
G02*
X101748000Y-106045000I3450000J0D01*
G01*
%TO.C,R11*%
X278577000Y-151990000D02*
X280477000Y-151990000D01*
X278577000Y-155350000D02*
X278577000Y-151990000D01*
X280477000Y-151990000D02*
X280477000Y-155350000D01*
X280477000Y-155350000D02*
X278577000Y-155350000D01*
%TO.C,R15*%
X238699000Y-118589000D02*
X240599000Y-118589000D01*
X238699000Y-121949000D02*
X238699000Y-118589000D01*
X240599000Y-118589000D02*
X240599000Y-121949000D01*
X240599000Y-121949000D02*
X238699000Y-121949000D01*
%TO.C,R19*%
X152085000Y-224530500D02*
X153985000Y-224530500D01*
X152085000Y-227890500D02*
X152085000Y-224530500D01*
X153985000Y-224530500D02*
X153985000Y-227890500D01*
X153985000Y-227890500D02*
X152085000Y-227890500D01*
%TO.C,U33*%
X127332000Y-205959999D02*
X127532000Y-205960000D01*
X127332000Y-208060001D02*
X127332000Y-205959999D01*
X127532000Y-204960000D02*
X130532000Y-204960000D01*
X127532000Y-205960000D02*
X127532000Y-204960000D01*
X127532000Y-208060000D02*
X127332000Y-208060001D01*
X127532000Y-209060000D02*
X127532000Y-208060000D01*
X130532000Y-204960000D02*
X130532000Y-205960000D01*
X130532000Y-205960000D02*
X130732000Y-205959999D01*
X130532000Y-208060000D02*
X130532000Y-209060000D01*
X130532000Y-209060000D02*
X127532000Y-209060000D01*
X130732000Y-205959999D02*
X130732000Y-208060001D01*
X130732000Y-208060001D02*
X130532000Y-208060000D01*
%TO.C,U27*%
X133850000Y-195920000D02*
X134070000Y-195920000D01*
X133850000Y-200320000D02*
X133850000Y-195920000D01*
X134070000Y-194420000D02*
X142790000Y-194420000D01*
X134070000Y-195920000D02*
X134070000Y-194420000D01*
X134070000Y-200320000D02*
X133850000Y-200320000D01*
X134070000Y-201820000D02*
X134070000Y-200320000D01*
X142790000Y-194420000D02*
X142790000Y-195920000D01*
X142790000Y-195920000D02*
X143010000Y-195920000D01*
X142790000Y-200320000D02*
X142790000Y-201820000D01*
X142790000Y-201820000D02*
X134070000Y-201820000D01*
X143010000Y-195920000D02*
X143010000Y-200320000D01*
X143010000Y-200320000D02*
X142790000Y-200320000D01*
%TO.C,U23*%
X179180000Y-181892000D02*
X180680000Y-181892000D01*
X179180000Y-191892000D02*
X179180000Y-181892000D01*
X180680000Y-181692000D02*
X185080000Y-181692000D01*
X180680000Y-181892000D02*
X180680000Y-181692000D01*
X180680000Y-191892000D02*
X179180000Y-191892000D01*
X180680000Y-192092000D02*
X180680000Y-191892000D01*
X185080000Y-181692000D02*
X185080000Y-181892000D01*
X185080000Y-181892000D02*
X186580000Y-181892000D01*
X185080000Y-191892000D02*
X185080000Y-192092000D01*
X185080000Y-192092000D02*
X180680000Y-192092000D01*
X186580000Y-181892000D02*
X186580000Y-191892000D01*
X186580000Y-191892000D02*
X185080000Y-191892000D01*
%TO.C,U19*%
X179180000Y-166871000D02*
X180680000Y-166871000D01*
X179180000Y-175591000D02*
X179180000Y-166871000D01*
X180680000Y-166651000D02*
X185080000Y-166651000D01*
X180680000Y-166871000D02*
X180680000Y-166651000D01*
X180680000Y-175591000D02*
X179180000Y-175591000D01*
X180680000Y-175811000D02*
X180680000Y-175591000D01*
X185080000Y-166651000D02*
X185080000Y-166871000D01*
X185080000Y-166871000D02*
X186580000Y-166871000D01*
X185080000Y-175591000D02*
X185080000Y-175811000D01*
X185080000Y-175811000D02*
X180680000Y-175811000D01*
X186580000Y-166871000D02*
X186580000Y-175591000D01*
X186580000Y-175591000D02*
X185080000Y-175591000D01*
%TO.C,C5*%
X183813000Y-246285000D02*
X186773000Y-246285000D01*
X183813000Y-247745000D02*
X183813000Y-246285000D01*
X186773000Y-246285000D02*
X186773000Y-247745000D01*
X186773000Y-247745000D02*
X183813000Y-247745000D01*
%TO.C,R13*%
X250510000Y-167865000D02*
X252410000Y-167865000D01*
X250510000Y-171225000D02*
X250510000Y-167865000D01*
X252410000Y-167865000D02*
X252410000Y-171225000D01*
X252410000Y-171225000D02*
X250510000Y-171225000D01*
%TO.C,R16*%
X242890000Y-118589000D02*
X244790000Y-118589000D01*
X242890000Y-121949000D02*
X242890000Y-118589000D01*
X244790000Y-118589000D02*
X244790000Y-121949000D01*
X244790000Y-121949000D02*
X242890000Y-121949000D01*
%TO.C,U14*%
X195055000Y-151850000D02*
X196555000Y-151850000D01*
X195055000Y-160570000D02*
X195055000Y-151850000D01*
X196555000Y-151630000D02*
X200955000Y-151630000D01*
X196555000Y-151850000D02*
X196555000Y-151630000D01*
X196555000Y-160570000D02*
X195055000Y-160570000D01*
X196555000Y-160790000D02*
X196555000Y-160570000D01*
X200955000Y-151630000D02*
X200955000Y-151850000D01*
X200955000Y-151850000D02*
X202455000Y-151850000D01*
X200955000Y-160570000D02*
X200955000Y-160790000D01*
X200955000Y-160790000D02*
X196555000Y-160790000D01*
X202455000Y-151850000D02*
X202455000Y-160570000D01*
X202455000Y-160570000D02*
X200955000Y-160570000D01*
%TO.C,U24*%
X228980001Y-182960000D02*
X230780000Y-182960000D01*
X228980001Y-195500000D02*
X228980001Y-182960000D01*
X230780000Y-182680000D02*
X236580000Y-182680000D01*
X230780000Y-182960000D02*
X230780000Y-182680000D01*
X230780000Y-195500000D02*
X228980001Y-195500000D01*
X230780000Y-195780000D02*
X230780000Y-195500000D01*
X236580000Y-182680000D02*
X236580000Y-182960000D01*
X236580000Y-182960000D02*
X238379999Y-182960000D01*
X236580000Y-195500000D02*
X236580000Y-195780000D01*
X236580000Y-195780000D02*
X230780000Y-195780000D01*
X238379999Y-182960000D02*
X238379999Y-195500000D01*
X238379999Y-195500000D02*
X236580000Y-195500000D01*
%TO.C,U46*%
X179180000Y-229320000D02*
X180680000Y-229320000D01*
X179180000Y-238040000D02*
X179180000Y-229320000D01*
X180680000Y-229100000D02*
X185080000Y-229100000D01*
X180680000Y-229320000D02*
X180680000Y-229100000D01*
X180680000Y-238040000D02*
X179180000Y-238040000D01*
X180680000Y-238260000D02*
X180680000Y-238040000D01*
X185080000Y-229100000D02*
X185080000Y-229320000D01*
X185080000Y-229320000D02*
X186580000Y-229320000D01*
X185080000Y-238040000D02*
X185080000Y-238260000D01*
X185080000Y-238260000D02*
X180680000Y-238260000D01*
X186580000Y-229320000D02*
X186580000Y-238040000D01*
X186580000Y-238040000D02*
X185080000Y-238040000D01*
%TO.C,RN8*%
X159436000Y-127218000D02*
X159436000Y-130338000D01*
X159436000Y-130338000D02*
X182956000Y-130338000D01*
X182956000Y-127218000D02*
X159436000Y-127218000D01*
X182956000Y-130338000D02*
X182956000Y-127218000D01*
%TO.C,C46*%
X102313000Y-190373000D02*
G75*
G02*
X95513000Y-190373000I-3400000J0D01*
G01*
X95513000Y-190373000D02*
G75*
G02*
X102313000Y-190373000I3400000J0D01*
G01*
%TO.C,U34*%
X133170000Y-204845000D02*
X143690000Y-204845000D01*
X143690000Y-223145000D01*
X133170000Y-223145000D01*
X133170000Y-204845000D01*
%TO.C,C13*%
X133140000Y-135414000D02*
X136100000Y-135414000D01*
X133140000Y-136874000D02*
X133140000Y-135414000D01*
X136100000Y-135414000D02*
X136100000Y-136874000D01*
X136100000Y-136874000D02*
X133140000Y-136874000D01*
%TO.C,C15*%
X248964000Y-181134000D02*
X251924000Y-181134000D01*
X248964000Y-182594000D02*
X248964000Y-181134000D01*
X251924000Y-181134000D02*
X251924000Y-182594000D01*
X251924000Y-182594000D02*
X248964000Y-182594000D01*
%TD*%
M02*
